<svg viewBox="0 0 320 321" fill="none" xmlns="http://www.w3.org/2000/svg">
    <g clip-path="url(#clip0_3419_2799)">
        <rect width="320" height="320" rx="12" transform="matrix(4.37114e-08 1 1 -4.37114e-08 3.05176e-05 0.904297)"
            fill="#FFDB8D" />
        <mask id="mask0_3419_2799" style="mask-type:alpha" maskUnits="userSpaceOnUse" x="0" y="0" width="320"
            height="321">
            <mask id="path-2-inside-1_3419_2799" fill="white">
                <path
                    d="M12 0.90431C5.37259 0.90431 0 6.27689 0 12.9043V308.904C0 315.532 5.37259 320.904 12 320.904H308C314.627 320.904 320 315.532 320 308.904L320 12.9043C320 6.27689 314.627 0.904297 308 0.904297L12 0.90431Z" />
            </mask>
            <path
                d="M12 0.90431C5.37259 0.90431 0 6.27689 0 12.9043V308.904C0 315.532 5.37259 320.904 12 320.904H308C314.627 320.904 320 315.532 320 308.904L320 12.9043C320 6.27689 314.627 0.904297 308 0.904297L12 0.90431Z"
                fill="#FFDB8D" />
            <path
                d="M308 0.904297V-0.0957031V0.904297ZM308 320.904V321.904V320.904ZM0 308.904H-1H0ZM12 320.904V319.904V320.904ZM0 12.9043H1H0ZM12 0.90431V1.90431V0.90431ZM1 12.9043V308.904H-1V12.9043H1ZM12 319.904H308V321.904H12V319.904ZM319 308.904L319 12.9043H321L321 308.904H319ZM308 1.9043L12 1.90431V-0.0956902L308 -0.0957031V1.9043ZM319 12.9043C319 6.82917 314.075 1.9043 308 1.9043V-0.0957031C315.18 -0.0957035 321 5.7246 321 12.9043H319ZM308 319.904C314.075 319.904 319 314.979 319 308.904H321C321 316.084 315.18 321.904 308 321.904V319.904ZM1 308.904C1 314.979 5.92487 319.904 12 319.904V321.904C4.82031 321.904 -1 316.084 -1 308.904H1ZM-1 12.9043C-1 5.72461 4.82028 -0.0956899 12 -0.0956902V1.90431C5.92487 1.90431 1 6.82918 1 12.9043H-1Z"
                fill="#FFB433" mask="url(#path-2-inside-1_3419_2799)" />
        </mask>
        <g mask="url(#mask0_3419_2799)">
            <path
                d="M961.231 -207.37C964.249 -242.149 955.416 -248.714 938.04 -247.617L936.392 -247.174C937.592 -249.285 938.792 -251.395 939.991 -253.505C942.694 -263.171 943.3 -274.061 937.314 -283.178L905 -344.215C897.67 -358.334 881.349 -366.461 866.517 -362.473L864.869 -362.03L753.999 -314.342C742.911 -309.573 736.465 -300.689 735.859 -289.799C734.804 -280.576 734.95 -273.464 735.543 -264.685L719.392 -305.037C714.461 -323.378 695.596 -334.395 677.469 -329.522L629.679 -316.673C616.496 -313.128 606.002 -299.58 604.645 -284.912C604.039 -274.022 601.785 -262.689 601.93 -255.577C598.489 -261.803 593.4 -267.586 589.511 -275.48C580.532 -289.156 564.659 -295.615 549.828 -291.627C548.18 -291.184 546.532 -290.741 546.532 -290.741L501.735 -273.333C485.705 -267.235 476.108 -250.352 481.039 -232.012L487.012 -203.226L472.799 -229.797C465.469 -243.916 449.148 -252.043 434.316 -248.055L432.668 -247.612L321.797 -199.924C310.71 -195.155 304.264 -186.271 303.658 -175.381C302.749 -159.046 303.487 -143.155 303.778 -128.93L268.351 -240.976C263.42 -259.316 245.002 -268.667 226.875 -263.793L164.255 -246.956C151.071 -243.412 140.13 -231.531 138.772 -216.863C135.767 -201.753 134.106 -181.64 131.101 -166.53C124.667 -177.315 115.689 -190.991 109.703 -200.109C100.725 -213.785 86.9481 -219.02 72.1169 -215.032C70.469 -214.589 68.8211 -214.146 68.8211 -214.146L7.99366 -190.64C-8.03717 -184.542 -15.9863 -168.102 -13.1514 -150.986L-6.42719 -125.977C31.2475 40.4591 79.2081 203.584 121.32 368.868C123.562 377.204 129.099 384.654 137.484 389.551C145.868 394.448 155.005 395.567 163.244 393.352L164.892 392.909L221.672 374.067C237.703 367.969 247.3 351.086 242.369 332.746L236.093 309.404C236.844 305.626 235.948 302.292 235.051 298.957C240.14 304.74 246.877 310.08 253.614 315.42C263.344 325.318 274.721 334.774 284.451 344.673C293.732 352.904 304.964 355.248 316.5 352.146C318.148 351.703 319.796 351.26 321.443 350.817L374.783 325.749C384.222 321.423 392.316 312.095 394.57 300.763C398.327 281.874 392.499 260.2 386.066 249.415C384.721 244.413 381.728 239.854 377.087 235.739C360.173 218.833 331.432 190.804 310.628 166.005C317.39 132.006 327.303 90.0088 334.659 64.7896C334.659 64.7896 334.21 63.1223 335.41 61.012C337.203 67.6811 342.292 73.464 348.581 77.1367L397.298 251.758C397.746 253.426 398.643 256.76 399.091 258.427L406.264 285.104C411.195 303.444 430.06 314.462 448.187 309.588C448.187 309.588 449.835 309.145 451.483 308.702L488.489 295.177C504.519 289.079 514.116 272.196 509.634 255.523L504.109 228.404C503.661 226.736 504.412 222.959 503.964 221.291L466.769 63.2375C472.016 56.4634 475.167 48.465 476.221 39.2425L475.628 30.463C476.076 32.1303 476.524 33.7976 476.972 35.4648C488.918 93.0386 520.733 231.085 527.906 257.761C532.837 276.102 551.254 285.452 567.734 281.021L569.381 280.578L603.539 269.607C618.37 265.619 627.968 248.736 625.581 233.287C624.539 222.841 621.401 211.17 619.911 199.056L653.438 238.312C661.519 248.654 674.848 252.222 686.383 249.12C688.031 248.677 688.031 248.677 689.679 248.234L763.69 221.184C779.721 215.086 787.67 198.646 783.187 181.973L778.111 156.521C777.662 154.853 777.662 154.853 777.214 153.186C783.2 162.304 791.584 167.2 800.721 168.32C795.171 180.539 811.363 215.517 811.363 215.517C811.363 215.517 831.428 279.847 863.714 271.166L865.362 270.723C871.953 268.951 879.744 265.068 886.336 263.296C900.719 257.641 913.902 254.096 927.837 246.774C942.22 241.119 956.603 235.464 968.889 228.585C982.824 221.263 995.111 214.384 1004.1 208.391C1011.44 202.841 1018.34 195.624 1021.49 187.625C1024.64 179.627 1027.79 171.629 1030.49 161.963C1031.55 152.74 1032.6 143.518 1033.66 134.295C1034.71 125.073 1033.67 114.626 1033.08 105.846C1033.38 100.402 1031.14 92.0652 1029.65 79.9511C1027.85 73.282 1026.51 68.2802 1026.36 61.168C1025.47 57.8334 1024.12 52.8316 1023.98 45.7194C1020.84 34.0484 1018.9 20.267 1014.87 5.26146C1010.83 -9.74407 1006.8 -24.7496 1003.96 -41.8655C999.48 -58.5383 995.446 -73.5439 991.859 -86.8821C986.032 -108.557 972.413 -126.349 955.195 -137.81C957.594 -142.03 957.897 -147.475 959.848 -153.363L961.231 -207.37ZM893.528 27.159L866.265 30.9136L863.878 15.465L890.693 10.0431L893.528 27.159Z"
                fill="#FFCA70" />
            <path
                d="M226.774 -244.848L164.603 -228.764C158.058 -227.071 152.901 -220.307 153.113 -213.122C152.826 -194.948 149.229 -163.247 145.67 -144.227C144.958 -140.423 143.784 -138.309 142.61 -136.195C142.61 -136.195 140.974 -135.772 139.338 -135.349C137.702 -134.925 137.702 -134.925 136.066 -134.502C133.967 -135.769 131.869 -137.036 131.407 -138.727C120.704 -152.248 105.13 -177.178 95.6003 -192.813C90.4797 -198.728 82.549 -202.106 76.0047 -200.413L74.3686 -199.99L14.046 -177.144C6.32772 -173.337 1.63183 -164.882 3.94238 -156.43L48.23 31.2102C51.0027 41.3528 59.3954 46.4215 69.2119 43.8819L95.3892 37.1096C103.57 34.9933 108.265 26.5385 107.591 17.6631L93.3404 -60.0994C93.3404 -60.0994 91.492 -66.8612 94.7642 -67.7077C96.4002 -68.131 98.4984 -66.8638 101.059 -63.9062C115.247 -44.0469 142.236 -9.39963 155.037 5.38834C160.158 11.3035 165.99 13.4146 172.535 11.7215L177.443 10.4517C183.987 8.75866 189.607 3.68473 189.395 -3.50026C192.492 -24.2113 197.762 -69.0144 201.109 -95.22C201.821 -99.0242 202.995 -101.138 204.631 -101.561C206.267 -101.984 208.366 -100.717 210.926 -97.7596L213.236 -89.3075L238.015 -17.8887C240.326 -9.43653 250.355 -4.79113 258.535 -6.90746C258.535 -6.90746 258.535 -6.90746 260.171 -7.33072L298.975 -19.1796C307.155 -21.2959 313.025 -31.8644 309.079 -39.8933L247.756 -232.177C244.983 -242.319 236.59 -247.388 226.774 -244.848Z"
                fill="#FFDB8D" />
            <path
                d="M291.653 4.18646L233.827 10.1059C232.194 10.5279 232.194 10.5279 230.561 10.9498C225.662 12.2157 220.052 17.2745 219.803 22.7528C211.562 50.1467 193.871 119.684 190.356 126.006C189.184 128.114 189.184 128.114 188.012 130.221C186.13 136.121 183.786 140.336 182.153 140.758C182.153 140.758 182.153 140.758 180.52 141.18C178.887 141.602 177.043 134.86 178.214 132.753L177.753 131.067L155.369 55.6442C153.063 47.2169 144.225 40.4775 134.428 43.0093L75.641 58.1999C67.4762 60.3097 61.156 69.1613 63.9228 79.274L134.266 329.984C137.033 340.097 145.41 345.151 155.207 342.619C155.207 342.619 155.207 342.619 156.84 342.197L213.072 324.057C221.237 321.947 225.463 311.832 223.157 303.405L203.328 230.931C201.944 225.875 202.655 222.082 205.921 221.238C207.554 220.816 209.648 222.079 211.742 223.343C216.391 227.555 237.544 247.354 261.713 271.787C271.473 281.897 282.866 291.585 292.626 301.696C297.275 305.908 303.096 308.013 307.995 306.747C309.628 306.325 309.628 306.325 311.261 305.903L364.015 281.444C374.985 276.805 376.194 262.055 368.529 253.209C344.359 228.776 304.859 186.649 283.495 159.686C289.43 123.865 304.066 62.3357 310.923 29.8854C313.766 14.7139 303.545 2.91818 291.653 4.18646Z"
                fill="#FFDB8D" />
        </g>
        <g clip-path="url(#clip1_3419_2799)">
            <path
                d="M99.5493 42.7705C67.6817 25.3881 48.3335 35.5278 42.6429 42.7705L39.5389 98.6423C43.5051 89.5028 76.8873 86.3696 94.376 98.6423C123.864 119.335 181.805 111.058 203.533 89.8476C219.961 73.8103 251.472 91.5721 261.991 95.021L236.642 56.7385L261.991 34.4931C251.127 29.3198 210.879 18.5592 190.6 37.597C165.25 61.3943 139.384 64.4984 99.5493 42.7705Z"
                fill="#FFE033" stroke="#FFB433" stroke-width="2" stroke-linecap="round" stroke-linejoin="round" />
            <path
                d="M56.7597 59.5988C56.8086 59.3276 56.8632 59.0576 56.9235 58.7889C57.1635 57.7198 57.4956 56.6684 57.9198 55.6346C58.4488 54.3482 59.1104 53.1665 59.9046 52.0897C60.8182 51.9525 61.7574 51.8751 62.7221 51.8574C63.6869 51.8398 64.6507 51.867 65.6134 51.939C66.583 52.0065 67.5418 52.1227 68.4897 52.2874C69.0335 52.3795 69.5656 52.4839 70.0858 52.6007C70.4746 52.6879 70.8586 52.7831 71.2378 52.8863C71.2892 53.4863 71.2557 54.1304 71.1373 54.8184C71.0517 55.3337 70.9569 55.8228 70.8529 56.2859C70.8183 56.4403 70.7814 56.5911 70.7423 56.7385C69.7129 56.6695 68.6855 56.565 67.66 56.4249C66.6403 56.2861 65.6105 56.205 64.5708 56.1818C64.295 56.4742 64.0843 56.8112 63.9385 57.1929C63.7928 57.5745 63.6687 57.967 63.5661 58.3704C64.5934 58.8232 65.6218 59.2582 66.6511 59.6754C67.6861 60.0939 68.7271 60.5258 69.7742 60.971C69.8715 61.5273 69.8849 62.1098 69.8143 62.7185C69.7754 63.0521 69.7188 63.3847 69.6444 63.7163C69.584 63.985 69.5123 64.2511 69.4291 64.5147C69.2429 65.1034 69.0027 65.665 68.7086 66.1995C68.4157 66.7283 68.0938 67.1995 67.7427 67.6131C66.8048 67.859 65.8495 68.0349 64.8769 68.1408C63.9043 68.2468 62.9276 68.3038 61.947 68.3118C60.972 68.3212 59.9969 68.2914 59.0215 68.2226C58.0448 68.1595 57.0913 68.0866 56.1611 68.0038C56.0761 67.9007 56.0296 67.6531 56.0216 67.2609C56.0192 66.8701 56.0405 66.4545 56.0853 66.0141C56.1313 65.5681 56.1821 65.1411 56.2377 64.7332C56.2726 64.4708 56.3108 64.2602 56.3525 64.1014C56.373 64.0099 56.3932 63.9334 56.413 63.8718C56.9213 63.9619 57.4782 64.0358 58.0837 64.0937C58.6905 64.1458 59.2856 64.1833 59.869 64.2062C60.4594 64.2246 61.0031 64.2236 61.5001 64.203C61.9985 64.1768 62.3847 64.1284 62.6587 64.0578C62.7557 63.8934 62.8464 63.6765 62.9309 63.4072C62.9731 63.2726 63.009 63.1395 63.0385 63.008C63.068 62.8765 63.0905 62.7495 63.106 62.6269C62.9862 62.4919 62.7717 62.3506 62.4625 62.2032C62.1546 62.05 61.7962 61.8944 61.3872 61.7366C60.9796 61.573 60.5427 61.4059 60.0766 61.2352C59.6162 61.0658 59.1713 60.8939 58.7421 60.7194C58.3141 60.5393 57.9224 60.3583 57.5669 60.1764C57.2183 59.9901 56.9493 59.7975 56.7597 59.5988ZM70.7692 67.1305C70.8784 66.5905 71.0074 65.9889 71.1563 65.3258C71.3052 64.6626 71.4534 64.0023 71.601 63.3448C71.7499 62.6816 71.9022 62.0432 72.0579 61.4296C72.215 60.8103 72.3576 60.2688 72.4857 59.8051C72.6607 59.6943 72.8873 59.541 73.1654 59.3452C73.4436 59.1494 73.7309 58.9527 74.0275 58.7551C74.3241 58.5574 74.6048 58.3772 74.8695 58.2144C75.1412 58.0472 75.3652 57.9324 75.5414 57.8698C76.0865 57.9562 76.7434 58.0526 77.5122 58.1591C78.288 58.2612 79.0856 58.3862 79.9051 58.5341C80.522 58.6486 81.1277 58.7725 81.7223 58.906C81.9224 58.9509 82.1196 58.9952 82.314 59.0389C83.1004 59.2274 83.786 59.4504 84.3708 59.7077C84.7384 60.1566 85.0645 60.7102 85.3491 61.3686C85.6407 62.0226 85.9028 62.6339 86.1355 63.2025C86.062 63.6905 85.9599 64.2921 85.8294 65.0075C85.6988 65.7228 85.5578 66.4448 85.4062 67.1734C85.3029 67.6607 85.2024 68.1215 85.1049 68.556C85.0574 68.7676 85.0105 68.9762 84.9643 69.182C84.82 69.7982 84.6923 70.2469 84.5811 70.5283C84.1488 70.8756 83.719 71.2385 83.2918 71.617C82.8715 71.9911 82.4252 72.3473 81.9529 72.6857C81.3695 72.6628 80.6468 72.5786 79.7847 72.4331C78.927 72.2946 78.0322 72.1208 77.1003 71.9116C76.1684 71.7024 75.2496 71.4752 74.3439 71.2298C73.4426 70.9914 72.655 70.7546 71.9812 70.5193C71.8615 70.3302 71.7371 70.0951 71.6081 69.814C71.486 69.5283 71.3678 69.2256 71.2535 68.9056C71.1461 68.5813 71.0467 68.2617 70.9552 67.9469C70.8638 67.6321 70.8018 67.36 70.7692 67.1305ZM76.6767 64.9706C76.5741 65.428 76.4753 65.8682 76.3803 66.2913C76.2866 66.7086 76.2083 67.0844 76.1452 67.4185C76.0835 67.747 76.0341 67.9941 75.9968 68.1599C76.2227 68.3307 76.4925 68.4663 76.8063 68.5668C76.9524 68.6116 77.0969 68.65 77.2398 68.6821C77.417 68.7219 77.599 68.7537 77.7858 68.7777C78.1251 68.8178 78.4492 68.8185 78.7582 68.7797C79.0729 68.7423 79.3349 68.672 79.5442 68.5689C79.7634 67.6993 80.0051 66.7296 80.2692 65.66C80.3083 65.5126 80.3445 65.3646 80.3779 65.2159C80.5871 64.2841 80.7373 63.3209 80.8284 62.3265C80.5228 62.2699 80.2322 62.2137 79.9565 62.1578C79.6808 62.1019 79.4146 62.0571 79.1579 62.0235C78.9012 61.9899 78.6442 61.9713 78.3868 61.9676C78.1294 61.9638 77.8586 61.9931 77.5744 62.0554C77.4915 62.1569 77.3989 62.3553 77.2966 62.6506C77.2013 62.9415 77.0995 63.288 76.9912 63.69C76.8842 64.0864 76.7794 64.5132 76.6767 64.9706ZM89.6292 59.9964C89.83 59.1287 90.0072 58.4328 90.1609 57.9088C90.2601 57.8951 90.4371 57.8958 90.6919 57.9109C90.948 57.9204 91.2444 57.9509 91.5811 58.0024C91.9236 58.0553 92.2841 58.1212 92.6627 58.2002C93.047 58.2805 93.4171 58.3575 93.7728 58.4314C93.8872 58.457 93.9986 58.4821 94.1073 58.5065C94.3245 58.5552 94.5297 58.6043 94.7228 58.6536C95.0061 58.7292 95.2179 58.7888 95.3583 58.8323C95.2236 59.3786 95.0441 60.125 94.8196 61.0714C94.5951 62.0179 94.3562 63.0422 94.1028 64.1443C93.8506 65.2407 93.593 66.3749 93.3299 67.5469C93.0669 68.7189 92.823 69.8052 92.5984 70.8057C92.3738 71.8062 92.1794 72.6723 92.0151 73.4041C91.8509 74.1359 91.7424 74.619 91.6898 74.8534C91.2793 74.8093 90.9394 74.772 90.67 74.7416C90.4006 74.7111 90.1052 74.6628 89.7837 74.5967C89.7208 74.5825 89.6551 74.5678 89.5865 74.5524C89.3063 74.4895 88.991 74.4097 88.6404 74.313C88.1996 74.19 87.5885 74.0228 86.8073 73.8114C86.8985 73.3515 87.0238 72.713 87.1832 71.8961C87.3426 71.0791 87.5225 70.1707 87.7229 69.1707C87.9246 68.1651 88.1338 67.1131 88.3503 66.0147C88.5681 64.9106 88.7855 63.8485 89.0025 62.8283C89.1495 62.1466 89.2917 61.5 89.429 60.8882C89.4983 60.5795 89.5651 60.2822 89.6292 59.9964ZM94.4702 72.6581C94.6638 71.9029 94.9389 71.1719 95.2957 70.4653C95.6538 69.753 96.0249 69.1698 96.4091 68.7156C96.7291 68.6012 97.1665 68.5253 97.7214 68.4877C98.2833 68.4457 98.8954 68.4209 99.5576 68.4135C100.227 68.4016 100.919 68.4097 101.633 68.4379C102.354 68.4617 103.044 68.4905 103.703 68.5244C103.701 68.3738 103.703 68.206 103.708 68.021C103.715 67.8304 103.709 67.6969 103.69 67.6206C103.459 67.3945 103.109 67.1869 102.641 66.9978C102.179 66.8099 101.667 66.641 101.106 66.4911C100.658 66.3726 100.2 66.2607 99.7312 66.1554C99.6112 66.1285 99.494 66.1022 99.3796 66.0765C98.7952 65.9513 98.2686 65.8361 97.7998 65.7309C97.8133 65.6438 97.8316 65.5489 97.8547 65.446C97.8984 65.2516 97.9531 65.0477 98.0191 64.8343C98.1138 64.5193 98.2209 64.216 98.3404 63.9246C98.4656 63.6344 98.591 63.3833 98.7166 63.1713C98.8423 62.9593 98.971 62.814 99.1027 62.7355C99.9211 62.8352 100.753 62.9558 101.598 63.0974C102.154 63.1863 102.707 63.2924 103.256 63.4156C103.553 63.4823 103.843 63.5535 104.127 63.6291C104.968 63.8419 105.781 64.0966 106.567 64.3932C107.359 64.691 108.114 65.0317 108.833 65.4152C108.993 65.7454 109.081 66.2124 109.095 66.8162C109.117 67.4156 109.09 68.0943 109.016 68.8523C108.942 69.6103 108.83 70.4169 108.68 71.272C108.537 72.1227 108.378 72.9546 108.201 73.7677C108.165 73.9278 108.129 74.0907 108.091 74.2565C107.948 74.8969 107.801 75.5095 107.652 76.0945C107.463 76.8269 107.294 77.4465 107.145 77.9533C106.707 77.9753 106.171 77.9719 105.534 77.9432C104.905 77.9101 104.231 77.8517 103.511 77.7682C102.79 77.6904 102.046 77.5925 101.28 77.4746C100.514 77.3566 99.7798 77.2279 99.0785 77.0885C98.8142 77.0352 98.5592 76.9809 98.3134 76.9257C97.9017 76.8333 97.5149 76.7375 97.1528 76.6382C96.5647 76.4762 96.0868 76.3178 95.7191 76.1632C95.6123 75.9171 95.4911 75.6407 95.3558 75.334C95.2262 75.0287 95.1013 74.7154 94.9813 74.3942C94.8612 74.073 94.7541 73.7607 94.6601 73.4574C94.5731 73.1496 94.5098 72.8832 94.4702 72.6581ZM100.101 72.6521C100.064 72.8719 100.042 73.0921 100.034 73.3126C100.032 73.5344 100.042 73.7346 100.062 73.9132C100.258 74.0535 100.52 74.1602 100.845 74.2333C100.925 74.2513 101.012 74.2677 101.105 74.2825C101.557 74.354 102.104 74.4318 102.746 74.5158C102.852 73.9872 102.957 73.4822 103.059 73.0007C103.162 72.5135 103.259 72.0157 103.349 71.5075C102.86 71.4937 102.394 71.4673 101.953 71.4282C101.512 71.3834 101.054 71.4186 100.578 71.5339C100.459 71.6633 100.359 71.8271 100.278 72.0252C100.215 72.1731 100.168 72.3306 100.136 72.4977C100.125 72.5492 100.113 72.6006 100.101 72.6521ZM110.527 73.0739C110.707 72.2493 110.887 71.434 111.068 70.6279C111.25 69.8161 111.429 69.0427 111.606 68.3077C111.789 67.5741 111.953 66.9354 112.1 66.3917C112.17 66.3474 112.362 66.3335 112.676 66.35C112.992 66.3609 113.377 66.3871 113.83 66.4288C114.283 66.4704 114.771 66.529 115.295 66.6045C115.819 66.6742 116.325 66.7487 116.812 66.828C117.298 66.9072 117.739 66.9911 118.133 67.0796C118.534 67.1695 118.824 67.2527 119.005 67.3294C119.129 68.3541 119.298 69.3707 119.51 70.3791C119.722 71.3875 119.931 72.3953 120.137 73.4025C120.153 73.4902 120.196 73.5688 120.264 73.6382C120.339 73.7089 120.423 73.746 120.519 73.7493C120.614 73.7527 120.71 73.7262 120.807 73.6699C120.909 73.6148 121.001 73.5152 121.081 73.3711C121.105 73.3165 121.17 73.0939 121.276 72.7033C121.382 72.3126 121.499 71.8585 121.627 71.3408C121.755 70.8231 121.886 70.3061 122.02 69.7897C122.16 69.2745 122.268 68.8725 122.345 68.5835C123.048 68.5793 123.743 68.63 124.427 68.7357C124.77 68.7886 125.11 68.8528 125.447 68.9286C125.79 69.0056 126.131 69.094 126.468 69.1939C126.178 70.5698 125.877 71.9496 125.566 73.3331C125.411 74.0249 125.254 74.7131 125.094 75.3979C124.615 77.4764 124.114 79.5348 123.591 81.5731C123.243 81.5431 122.829 81.5012 122.349 81.4474C121.868 81.3937 121.349 81.3372 120.792 81.2782C120.236 81.2135 119.66 81.1321 119.063 81.0343C118.473 80.9377 117.884 80.8296 117.299 80.7102C116.916 79.7414 116.593 78.7442 116.331 77.7185C116.074 76.6941 115.85 75.6618 115.657 74.6216C115.634 74.5085 115.577 74.4146 115.486 74.3401C115.401 74.2611 115.302 74.2208 115.189 74.2193C115.082 74.2133 114.974 74.2401 114.864 74.2996C114.761 74.3604 114.677 74.4769 114.615 74.649C114.376 75.3399 114.155 76.0951 113.953 76.9145C113.905 77.1019 113.858 77.2956 113.814 77.4957C113.665 78.1589 113.527 78.8787 113.401 79.655C112.735 79.6797 112.079 79.6315 111.434 79.5107C111.324 79.492 111.209 79.4692 111.089 79.4422C110.557 79.3229 110.015 79.1533 109.464 78.9335C109.497 78.5745 109.563 78.091 109.664 77.483C109.766 76.8693 109.892 76.186 110.043 75.4332C110.194 74.6804 110.355 73.894 110.527 73.0739ZM126.148 79.7691C126.342 79.0139 126.617 78.283 126.973 77.5764C127.332 76.8641 127.703 76.2808 128.087 75.8266C128.407 75.7123 128.844 75.6363 129.399 75.5987C129.961 75.5567 130.573 75.532 131.235 75.5245C131.905 75.5126 132.596 75.5208 133.311 75.549C134.032 75.5728 134.722 75.6016 135.381 75.6354C135.379 75.4848 135.381 75.317 135.386 75.1321C135.393 74.9414 135.387 74.808 135.368 74.7317C135.136 74.5055 134.787 74.2979 134.319 74.1088C133.856 73.9209 133.345 73.7521 132.784 73.6021C132.336 73.4836 131.878 73.3717 131.409 73.2665C131.289 73.2395 131.172 73.2132 131.057 73.1876C130.473 73.0624 129.946 72.9472 129.478 72.8419C129.491 72.7549 129.509 72.6599 129.532 72.557C129.576 72.3626 129.631 72.1587 129.697 71.9453C129.792 71.6303 129.899 71.3271 130.018 71.0356C130.143 70.7454 130.269 70.4943 130.394 70.2823C130.52 70.0703 130.649 69.9251 130.78 69.8466C131.599 69.9462 132.43 70.0668 133.275 70.2085C133.832 70.2974 134.385 70.4034 134.934 70.5266C135.231 70.5934 135.521 70.6645 135.804 70.7401C136.645 70.9529 137.459 71.2076 138.245 71.5042C139.037 71.8021 139.792 72.1428 140.511 72.5263C140.671 72.8565 140.758 73.3235 140.773 73.9272C140.794 74.5266 140.768 75.2053 140.694 75.9633C140.62 76.7214 140.508 77.528 140.358 78.3831C140.215 79.2338 140.055 80.0657 139.879 80.8788C139.843 81.0388 139.806 81.2018 139.769 81.3676C139.625 82.0079 139.479 82.6206 139.33 83.2056C139.141 83.9379 138.972 84.5575 138.822 85.0644C138.385 85.0863 137.848 85.0829 137.212 85.0542C136.583 85.0211 135.909 84.9628 135.189 84.8793C134.467 84.8014 133.724 84.7036 132.958 84.5856C132.191 84.4676 131.458 84.339 130.756 84.1995C130.492 84.1462 130.237 84.092 129.991 84.0368C129.579 83.9444 129.193 83.8485 128.831 83.7492C128.242 83.5872 127.765 83.4289 127.397 83.2743C127.29 83.0281 127.169 82.7517 127.034 82.4451C126.904 82.1397 126.779 81.8265 126.659 81.5053C126.539 81.184 126.432 80.8718 126.338 80.5684C126.251 80.2606 126.188 79.9942 126.148 79.7691ZM131.779 79.7631C131.742 79.9829 131.719 80.2031 131.712 80.4236C131.71 80.6454 131.719 80.8456 131.739 81.0243C131.936 81.1645 132.197 81.2712 132.523 81.3444C132.603 81.3623 132.69 81.3787 132.782 81.3935C133.235 81.4651 133.782 81.5428 134.423 81.6268C134.53 81.0983 134.634 80.5932 134.737 80.1117C134.84 79.6245 134.937 79.1268 135.027 78.6185C134.537 78.6048 134.072 78.5783 133.63 78.5392C133.19 78.4944 132.732 78.5297 132.255 78.645C132.136 78.7744 132.036 78.9381 131.956 79.1362C131.893 79.2842 131.845 79.4417 131.814 79.6088C131.802 79.6602 131.791 79.7117 131.779 79.7631Z"
                fill="#FF9900" />
            <path
                d="M151.321 81.2215C151.637 80.6388 152.005 80.0958 152.424 79.5926C152.842 79.0838 153.375 78.6141 154.023 78.1834C153.75 78.191 153.458 78.1738 153.146 78.1318C152.832 78.0842 152.528 78.0156 152.232 77.926C151.937 77.8364 151.662 77.7224 151.407 77.5841C151.15 77.4402 150.946 77.2776 150.795 77.0964C150.752 76.8707 150.741 76.6052 150.76 76.2999C150.78 75.9947 150.818 75.6901 150.874 75.3861C150.929 75.0764 150.995 74.7848 151.073 74.5112C151.156 74.2359 151.239 74.031 151.322 73.8966C151.682 73.6676 152.03 73.4512 152.367 73.2475C152.708 73.0364 153.037 72.8379 153.355 72.6521C153.148 71.9981 152.969 71.4554 152.817 71.0239C152.663 70.5868 152.499 70.1373 152.325 69.6754C152.651 69.4138 153.006 69.1772 153.389 68.9657C153.778 68.7526 154.179 68.5602 154.593 68.3887C155.005 68.2115 155.413 68.063 155.818 67.9431C156.228 67.8215 156.609 67.7267 156.962 67.6588C157.045 68.2697 157.142 68.8337 157.253 69.351C157.362 69.8626 157.466 70.3481 157.565 70.8075C157.96 70.6539 158.368 70.5146 158.789 70.3897C159.216 70.2631 159.665 70.1298 160.137 69.9899C160.255 70.0161 160.398 70.108 160.567 70.2657C160.74 70.4161 160.909 70.5923 161.073 70.7943C161.242 70.9946 161.395 71.2213 161.531 71.4743C161.665 71.7216 161.759 71.9565 161.813 72.1789C161.604 72.2776 161.264 72.409 160.793 72.573C160.328 72.7354 159.821 72.9224 159.273 73.1339C158.73 73.3438 158.199 73.5744 157.681 73.8259C157.167 74.0701 156.761 74.3188 156.463 74.5721C156.387 74.8699 156.348 75.1318 156.348 75.358C156.346 75.5786 156.442 75.8497 156.635 76.1713C156.749 76.1863 156.95 76.1633 157.238 76.1025C157.531 76.04 157.837 75.9678 158.155 75.8857C158.478 75.802 158.789 75.716 159.086 75.6277C159.384 75.5394 159.603 75.4745 159.744 75.4328C159.992 75.671 160.212 75.9602 160.404 76.3003C160.595 76.6349 160.728 76.9684 160.802 77.3009C160.538 77.3792 160.209 77.4951 159.814 77.6488C159.42 77.8024 159.028 77.9645 158.638 78.135C158.253 78.2982 157.901 78.4635 157.584 78.6308C157.273 78.7965 157.069 78.9426 156.972 79.0692C157.082 79.5252 157.178 79.8696 157.26 80.1022C157.341 80.3348 157.466 80.5086 157.634 80.6236C158.095 80.6094 158.582 80.5534 159.097 80.4557C159.61 80.3524 160.14 80.232 160.686 80.0946C161.238 79.9555 161.799 79.7981 162.37 79.6226C162.947 79.4454 163.522 79.2719 164.095 79.102C164.194 79.311 164.27 79.5453 164.322 79.8048C164.375 80.0642 164.401 80.3284 164.401 80.5972C164.407 80.8644 164.396 81.1273 164.369 81.3859C164.342 81.6445 164.305 81.8695 164.258 82.0607C163.973 82.1939 163.592 82.3499 163.113 82.5285C162.634 82.7071 162.098 82.8968 161.503 83.0975C161.591 83.4749 161.664 83.8445 161.722 84.2061C161.779 84.5621 161.812 84.9312 161.821 85.3134C161.652 85.4246 161.398 85.5551 161.057 85.705C160.718 85.8605 160.357 86.0134 159.974 86.1637C159.591 86.314 159.214 86.4441 158.843 86.5541C158.478 86.6623 158.193 86.7223 157.989 86.734C157.831 86.243 157.687 85.809 157.557 85.432C157.431 85.0477 157.306 84.6904 157.184 84.36C156.578 84.5029 156.016 84.6147 155.496 84.6956C154.974 84.7708 154.545 84.7972 154.208 84.7748C153.592 84.3463 153.022 83.8035 152.497 83.1463C151.97 82.4835 151.578 81.8419 151.321 81.2215ZM170.615 68.3221C170.481 67.7873 170.366 67.2347 170.27 66.6642C170.175 66.0937 170.114 65.5494 170.089 65.0313C170.646 64.7255 171.262 64.4328 171.937 64.1533C172.61 63.868 173.312 63.5958 174.042 63.3366C174.766 63.0791 175.509 62.8342 176.271 62.6021C176.524 62.5271 176.777 62.4521 177.03 62.3772C177.53 62.2289 178.025 62.0851 178.515 61.9458C179.249 61.7405 179.95 61.5508 180.62 61.3767C181.295 61.201 181.914 61.0419 182.477 60.8994C182.599 61.0648 182.718 61.2986 182.832 61.601C182.944 61.8976 183.051 62.2081 183.154 62.5322C183.184 62.6333 183.215 62.7401 183.249 62.8524C183.312 63.0659 183.372 63.2802 183.43 63.4953C183.512 63.8132 183.579 64.0806 183.631 64.2974C183.055 64.4987 182.478 64.6852 181.899 64.8568C181.613 64.9417 181.323 65.0247 181.029 65.1057C180.853 65.1517 180.678 65.2006 180.504 65.2522C179.808 65.4588 179.119 65.7027 178.438 65.9839C178.39 66.151 178.376 66.3813 178.396 66.6749C178.42 66.9612 178.469 67.2706 178.543 67.6031C178.574 67.7284 178.606 67.8564 178.638 67.9873C178.697 68.1839 178.765 68.3716 178.842 68.5503C178.967 68.8493 179.097 69.0919 179.232 69.2781C179.269 69.2793 179.391 69.2491 179.599 69.1875C179.807 69.1258 180.062 69.0472 180.364 68.9517C180.665 68.8561 180.996 68.755 181.355 68.6484C181.721 68.5401 182.072 68.436 182.409 68.336C182.751 68.2344 183.07 68.1431 183.363 68.0621C183.663 67.9794 183.891 67.9361 184.049 67.9321C184.217 68.3345 184.384 68.7739 184.55 69.2504C184.597 69.3891 184.643 69.5223 184.687 69.6498C184.782 69.97 184.848 70.2772 184.887 70.5714C184.507 70.733 184.11 70.8782 183.696 71.0071C183.287 71.1343 182.876 71.2624 182.462 71.3913C182.054 71.5185 181.648 71.6541 181.244 71.7982C180.847 71.9406 180.464 72.1123 180.095 72.3131C180.074 72.5089 180.088 72.7523 180.138 73.0431C180.177 73.2576 180.226 73.4753 180.285 73.696C180.309 73.7747 180.336 73.8553 180.366 73.9379C180.469 74.2435 180.579 74.5411 180.695 74.8305C180.815 75.1126 180.92 75.3413 181.009 75.5167C181.285 75.5204 181.658 75.4615 182.13 75.3401C182.369 75.2814 182.609 75.2162 182.851 75.1446C183.098 75.0713 183.352 74.9899 183.613 74.9004C184.13 74.7286 184.64 74.5621 185.142 74.401C185.266 74.3643 185.386 74.3257 185.502 74.2851C185.85 74.1818 186.149 74.1084 186.399 74.0649C186.633 74.564 186.844 75.1096 187.031 75.7017C187.045 75.7467 187.059 75.7944 187.074 75.845C187.235 76.3899 187.326 76.9222 187.346 77.442C186.429 77.8117 185.526 78.1588 184.638 78.4831C183.752 78.8131 182.847 79.1184 181.921 79.3988C181.82 79.4288 181.716 79.4596 181.61 79.4913C180.784 79.7362 179.935 79.9664 179.064 80.1819C178.085 80.4235 177.048 80.6363 175.953 80.8202C175.591 79.8886 175.234 78.8884 174.88 77.8199C174.536 76.7608 174.196 75.676 173.86 74.5654C173.779 74.2901 173.696 74.0121 173.613 73.7312C173.365 72.8942 173.121 72.0527 172.882 71.2067C172.566 70.0782 172.264 68.9882 171.977 67.9366C171.78 67.9949 171.552 68.0596 171.292 68.1306C171.032 68.2016 170.806 68.2654 170.615 68.3221ZM184.805 61.3001C185.215 61.1173 185.673 60.9111 186.18 60.6815C186.684 60.4462 187.176 60.2272 187.653 60.0245C188.131 59.8217 188.551 59.6513 188.914 59.5133C189.034 59.4654 189.139 59.4281 189.229 59.4015C189.414 59.3465 189.541 59.3304 189.609 59.353C189.752 59.6711 189.931 60.0396 190.147 60.4584C190.369 60.8755 190.599 61.3115 190.838 61.7663C191.082 62.2194 191.327 62.6754 191.573 63.1341C191.825 63.5912 192.063 64.0247 192.289 64.4345C192.52 64.8427 192.723 65.198 192.898 65.5005C193.074 65.803 193.208 66.0411 193.303 66.2149C193.331 66.2677 193.391 66.3597 193.485 66.4907C193.579 66.6218 193.679 66.754 193.786 66.8874C193.897 67.0134 194.007 67.1274 194.117 67.2294C194.225 67.3257 194.31 67.3647 194.372 67.3463C194.461 67.3197 194.531 67.2562 194.581 67.1559C194.635 67.0483 194.675 66.9356 194.701 66.8179C194.725 66.6945 194.741 66.5736 194.749 66.4552C194.755 66.3312 194.759 66.2321 194.762 66.1581C194.74 64.8262 194.746 63.4369 194.782 61.9902C194.816 60.5378 194.843 59.1455 194.863 57.8132C195.27 57.6377 195.669 57.4916 196.063 57.375C196.192 57.3367 196.319 57.302 196.444 57.271C196.957 57.1436 197.423 57.048 197.844 56.9842C198.265 56.9204 198.631 56.8854 198.941 56.8791C199.255 56.8655 199.478 56.8757 199.61 56.9098C199.54 58.1589 199.466 59.4857 199.388 60.8902C199.309 62.2947 199.233 63.729 199.16 65.193C199.085 66.6514 199.013 68.1182 198.943 69.5935C198.879 71.067 198.819 72.4935 198.764 73.8728C198.365 74.0523 197.929 74.2333 197.458 74.4159C196.987 74.5985 196.51 74.7734 196.028 74.9408C195.547 75.1138 195.066 75.2748 194.585 75.4237C194.489 75.452 194.394 75.4803 194.298 75.5086C193.922 75.6202 193.566 75.7168 193.229 75.7982C192.797 75.1867 192.326 74.4924 191.814 73.7152C191.301 72.9323 190.778 72.1065 190.245 71.2377C189.712 70.3689 189.182 69.4779 188.655 68.5648C188.127 67.6517 187.624 66.7589 187.146 65.8863C186.667 65.0138 186.226 64.1851 185.822 63.4003C185.422 62.6083 185.083 61.9082 184.805 61.3001ZM205.042 69.7561C204.772 68.7849 204.496 67.7634 204.215 66.6917C203.933 65.6143 203.657 64.5317 203.39 63.4437C203.126 62.3485 202.883 61.3235 202.661 60.3687C202.439 59.4139 202.247 58.5695 202.084 57.8354C201.927 57.0997 201.816 56.5612 201.752 56.2197C202.045 56.0349 202.398 55.8326 202.809 55.6127C203.219 55.3873 203.652 55.1765 204.107 54.9804C204.561 54.7787 205.01 54.5843 205.456 54.3971C205.901 54.21 206.313 54.0513 206.69 53.9212C207.072 53.7894 207.398 53.6835 207.668 53.6036C207.938 53.5236 208.11 53.4849 208.184 53.4874C208.733 54.29 209.269 55.106 209.79 55.9355C210.315 56.7577 210.885 57.536 211.5 58.2703C211.612 58.402 211.761 58.483 211.948 58.5134C212.134 58.5437 212.282 58.4782 212.394 58.317C212.444 58.2408 212.499 58.0535 212.557 57.7551C212.615 57.4567 212.667 57.096 212.713 56.673C212.762 56.2427 212.81 55.7762 212.857 55.2735C212.903 54.7708 212.945 54.2939 212.983 53.8428C213.024 53.3844 213.055 52.9748 213.077 52.614C213.102 52.2459 213.116 51.9849 213.12 51.8312C213.439 51.6509 213.887 51.4509 214.463 51.231C215.034 51.0128 215.645 50.8043 216.295 50.6055C216.385 50.5788 216.477 50.5513 216.573 50.523C217.118 50.3614 217.664 50.2147 218.212 50.0829C218.84 49.9334 219.374 49.8298 219.816 49.7723C220.739 52.4748 221.642 55.1682 222.523 57.8525C223.409 60.5296 224.348 63.2428 225.34 65.992C225.132 66.2187 224.821 66.427 224.407 66.6171C223.993 66.8071 223.538 66.9847 223.043 67.1498C222.86 67.2104 222.672 67.269 222.481 67.3257C222.167 67.4189 221.844 67.5055 221.513 67.5852C220.988 67.7104 220.5 67.8155 220.048 67.9005C219.979 67.7072 219.872 67.4181 219.727 67.0332C219.586 66.641 219.427 66.1963 219.249 65.699C219.069 65.1962 218.886 64.682 218.7 64.1567C218.513 63.6314 218.338 63.1425 218.173 62.6902C218.009 62.2379 217.868 61.8578 217.753 61.5499C217.635 61.2363 217.562 61.0531 217.535 61.0003C217.376 60.754 217.229 60.6508 217.094 60.6908C217.078 60.6958 217.064 60.7027 217.055 60.7117C216.913 60.7904 216.824 60.9422 216.786 61.1671C216.738 61.5177 216.677 61.994 216.605 62.596C216.537 63.1907 216.463 63.8389 216.384 64.5408C216.303 65.237 216.214 65.9571 216.117 66.701C216.024 67.4376 215.933 68.1399 215.844 68.8081C215.529 68.9013 215.211 69.0047 214.891 69.1182C214.819 69.1455 214.744 69.1708 214.666 69.1941C214.418 69.2674 214.165 69.3182 213.904 69.3466C213.432 68.8877 212.973 68.4033 212.529 67.8934C212.088 67.3762 211.669 66.8681 211.27 66.369C210.87 65.8643 210.503 65.3894 210.169 64.9444C209.841 64.4978 209.545 64.1059 209.28 63.7689C209.175 63.6227 209.034 63.5484 208.856 63.5462C208.684 63.5423 208.579 63.6528 208.542 63.8777C208.519 64.0067 208.539 64.2484 208.601 64.6027C208.662 64.9514 208.746 65.3575 208.852 65.8208C208.959 66.2842 209.078 66.7776 209.209 67.3011C209.345 67.8229 209.477 68.3186 209.604 68.7882C209.731 69.2578 209.848 69.6816 209.954 70.0596C210.058 70.4321 210.13 70.707 210.171 70.8845C209.491 71.2511 208.801 71.5413 208.1 71.7551C208.061 71.7668 208.022 71.7784 207.982 71.7901C207.314 71.9883 206.587 72.1549 205.802 72.2899C205.668 71.8776 205.528 71.427 205.383 70.9383C205.273 70.5675 205.159 70.1735 205.042 69.7561Z"
                fill="#FF9900" />
            <path
                d="M144.187 154.023L130.043 176.523C126.878 181.556 120.8 183.935 115.061 182.387L137.694 209.538L139.418 196.743L160.079 162.914C165.105 163.666 168.148 159.456 169.205 156.553C181.249 155.431 173.527 129.91 157.327 133.362C144.367 136.124 143.167 148.287 144.187 154.023Z"
                fill="#FFE3B1" />
            <path d="M56.1243 324.676L61.2976 293.119L89.7508 282.772L76.8175 324.676L56.1243 324.676Z"
                fill="#FFE3B1" />
            <path d="M92.3374 324.676L97.5108 274.495L124.719 277.601L112.512 324.674L92.3374 324.676Z"
                fill="#FFE3B1" />
            <path
                d="M169.205 156.553C181.249 155.431 173.527 129.91 157.327 133.362C144.367 136.124 143.167 148.287 144.187 154.023L130.043 176.523C126.878 181.556 120.8 183.935 115.061 182.387V182.387L137.694 209.538L139.418 196.743L160.079 162.914M169.205 156.553C157.162 157.674 150.223 145.787 154.493 139.458M169.205 156.553C168.148 159.456 165.105 163.666 160.079 162.914M154.495 160.352C156.569 161.887 158.431 162.667 160.079 162.914M61.2976 293.119L56.1243 324.676L76.8175 324.676L89.7508 282.772L61.2976 293.119ZM97.5108 274.495L92.3374 324.676L112.512 324.674L124.719 277.601L97.5108 274.495Z"
                stroke="#FFB433" stroke-width="2" stroke-linecap="round" stroke-linejoin="round" />
            <path
                d="M53.2197 156.195L70.5093 178.747C74.3768 183.792 81.0836 185.722 87.0409 183.504L88.5929 172.123L103.078 167.236L105.665 178.848L122.219 176.779L109.609 208.963L65.6363 214.654L62.5323 201.203L37.1824 167.236C31.9065 168.535 28.2489 164.355 26.8358 161.369C13.9025 161.369 19.5932 133.433 37.1824 135.502C51.2538 137.158 53.737 149.987 53.2197 156.195Z"
                fill="#FFE3B1" />
            <path
                d="M26.8358 161.369C13.9025 161.369 19.5932 133.433 37.1824 135.502C51.2538 137.158 53.737 149.987 53.2197 156.195L70.5093 178.747C74.3768 183.792 81.0836 185.722 87.0409 183.504V183.504L88.5929 172.123L103.078 167.236L105.665 178.848L122.219 176.779L109.609 208.963L65.6363 214.654L62.5323 201.203L37.1824 167.236M26.8358 161.369C39.7691 161.369 45.9777 148.025 40.8044 141.71M26.8358 161.369C28.2489 164.355 31.9065 168.535 37.1824 167.236M42.8737 163.955C40.8173 165.795 38.9128 166.81 37.1824 167.236"
                stroke="#FFB433" stroke-width="2" stroke-linecap="round" stroke-linejoin="round" />
            <path
                d="M131.955 184.829C129.914 177.322 123.62 174.75 120.218 175.445C117.836 177.878 114.604 190.043 102.357 200.992C90.1037 211.945 73.61 213.678 64.0843 211.94L66.6358 222.889C71.1819 224.03 75.4283 224.836 79.3934 225.346C127.949 231.592 134.314 193.505 131.955 184.829Z"
                fill="#FF9429" />
            <path
                d="M116.135 206.727C103.888 219.239 89.5995 225.226 79.3934 225.346M79.3934 225.346C127.949 231.592 134.314 193.505 131.955 184.829C129.914 177.322 123.62 174.75 120.218 175.445C117.836 177.878 114.604 190.043 102.357 200.992C90.1037 211.945 73.61 213.678 64.0843 211.94L66.6358 222.889C71.1819 224.03 75.4283 224.836 79.3934 225.346Z"
                stroke="#FFB433" stroke-width="2" stroke-linecap="round" stroke-linejoin="round" />
            <mask id="path-16-outside-2_3419_2799" maskUnits="userSpaceOnUse" x="62.6921" y="112.745" width="23.9576"
                height="29.0411" fill="black">
                <rect fill="white" x="62.6921" y="112.745" width="23.9576" height="29.0411" />
                <path fill-rule="evenodd" clip-rule="evenodd"
                    d="M73.814 122.766C74.5225 121.905 74.7241 120.562 74.2318 119.302C73.5592 117.58 71.8457 116.664 70.4047 117.256C68.9636 117.848 68.3407 119.723 69.0134 121.445C69.4094 122.458 70.1662 123.193 71.0158 123.505C71.5833 126.288 72.062 131.92 70.1705 136.298L80.8843 129.902C79.125 129.114 75.4602 126.653 73.814 122.766Z" />
            </mask>
            <path fill-rule="evenodd" clip-rule="evenodd"
                d="M73.814 122.766C74.5225 121.905 74.7241 120.562 74.2318 119.302C73.5592 117.58 71.8457 116.664 70.4047 117.256C68.9636 117.848 68.3407 119.723 69.0134 121.445C69.4094 122.458 70.1662 123.193 71.0158 123.505C71.5833 126.288 72.062 131.92 70.1705 136.298L80.8843 129.902C79.125 129.114 75.4602 126.653 73.814 122.766Z"
                fill="#FF9429" />
            <path
                d="M74.2318 119.302L76.0961 118.589L76.0961 118.589L74.2318 119.302ZM73.814 122.766L72.2627 121.49L71.4996 122.418L71.9711 123.531L73.814 122.766ZM70.4047 117.256L69.6302 115.407L69.6302 115.407L70.4047 117.256ZM69.0134 121.445L70.8776 120.732L70.8776 120.732L69.0134 121.445ZM71.0158 123.505L72.9773 123.122L72.7524 122.019L71.6931 121.63L71.0158 123.505ZM70.1705 136.298L68.3313 135.494L65.864 141.206L71.2084 138.015L70.1705 136.298ZM80.8843 129.902L81.9222 131.619L85.2107 129.656L81.6911 128.08L80.8843 129.902ZM72.3676 120.015C72.6288 120.683 72.4616 121.248 72.2627 121.49L75.3652 124.041C76.5833 122.561 76.8195 120.441 76.0961 118.589L72.3676 120.015ZM71.1791 119.105C71.2764 119.065 71.4372 119.045 71.6725 119.171C71.9157 119.301 72.1961 119.576 72.3676 120.015L76.0961 118.589C75.1369 116.134 72.3952 114.272 69.6302 115.407L71.1791 119.105ZM70.8776 120.732C70.7059 120.292 70.7163 119.873 70.817 119.569C70.917 119.268 71.0743 119.148 71.1791 119.105L69.6302 115.407C66.9205 116.52 66.1951 119.716 67.1491 122.157L70.8776 120.732ZM71.6931 121.63C71.4334 121.535 71.0817 121.254 70.8776 120.732L67.1491 122.157C67.737 123.662 68.8989 124.851 70.3384 125.379L71.6931 121.63ZM72.0098 137.102C74.1413 132.168 73.5742 126.049 72.9773 123.122L69.0543 123.888C69.5924 126.527 69.9826 131.672 68.3313 135.494L72.0098 137.102ZM79.8465 128.185L69.1327 134.581L71.2084 138.015L81.9222 131.619L79.8465 128.185ZM71.9711 123.531C73.8845 128.049 78.0405 130.812 80.0775 131.724L81.6911 128.08C80.2096 127.416 77.0359 125.257 75.6568 122L71.9711 123.531Z"
                fill="#FFB433" mask="url(#path-16-outside-2_3419_2799)" />
            <mask id="path-18-outside-3_3419_2799" maskUnits="userSpaceOnUse" x="86.4709" y="110.111" width="23.9576"
                height="29.0411" fill="black">
                <rect fill="white" x="86.4709" y="110.111" width="23.9576" height="29.0411" />
                <path fill-rule="evenodd" clip-rule="evenodd"
                    d="M98.303 119.999C97.4373 119.304 96.9529 118.059 97.1477 116.751C97.4177 114.936 98.8919 113.685 100.44 113.958C101.989 114.23 103.025 115.922 102.755 117.738C102.591 118.837 101.985 119.73 101.189 120.202C101.262 123.041 102.061 128.63 104.887 132.499L92.9945 128.523C94.5424 127.376 97.5892 124.172 98.303 119.999Z" />
            </mask>
            <path fill-rule="evenodd" clip-rule="evenodd"
                d="M98.303 119.999C97.4373 119.304 96.9529 118.059 97.1477 116.751C97.4177 114.936 98.8919 113.685 100.44 113.958C101.989 114.23 103.025 115.922 102.755 117.738C102.591 118.837 101.985 119.73 101.189 120.202C101.262 123.041 102.061 128.63 104.887 132.499L92.9945 128.523C94.5424 127.376 97.5892 124.172 98.303 119.999Z"
                fill="#FF9429" />
            <path
                d="M97.1477 116.751L95.1675 116.441L95.1675 116.441L97.1477 116.751ZM98.303 119.999L99.5497 118.446L100.475 119.189L100.276 120.351L98.303 119.999ZM100.44 113.958L100.772 111.99L100.772 111.99L100.44 113.958ZM102.755 117.738L100.775 117.428L102.755 117.738ZM101.189 120.202L99.188 120.237L99.1581 119.073L100.157 118.482L101.189 120.202ZM104.887 132.499L106.501 131.33L110.185 136.372L104.266 134.393L104.887 132.499ZM92.9945 128.523L92.3727 130.417L88.7159 129.194L91.793 126.915L92.9945 128.523ZM99.1278 117.06C99.0262 117.743 99.3025 118.248 99.5497 118.446L97.0563 121.552C95.5721 120.361 94.8797 118.376 95.1675 116.441L99.1278 117.06ZM100.108 115.925C99.9938 115.905 99.8235 115.924 99.6182 116.098C99.4067 116.278 99.1959 116.603 99.1278 117.06L95.1675 116.441C95.5552 113.836 97.8276 111.472 100.772 111.99L100.108 115.925ZM100.775 117.428C100.843 116.97 100.739 116.571 100.574 116.301C100.41 116.034 100.229 115.947 100.108 115.925L100.772 111.99C103.671 112.5 105.121 115.454 104.735 118.047L100.775 117.428ZM100.157 118.482C100.398 118.338 100.691 117.989 100.775 117.428L104.735 118.047C104.491 119.685 103.573 121.121 102.222 121.922L100.157 118.482ZM103.273 133.667C100.087 129.306 99.2646 123.222 99.188 120.237L103.19 120.167C103.259 122.86 104.036 127.955 106.501 131.33L103.273 133.667ZM93.6163 126.629L105.509 130.604L104.266 134.393L92.3727 130.417L93.6163 126.629ZM100.276 120.351C99.4467 125.201 95.9855 128.805 94.196 130.131L91.793 126.915C93.0993 125.947 95.7317 123.142 96.3297 119.647L100.276 120.351Z"
                fill="#FFB433" mask="url(#path-18-outside-3_3419_2799)" />
            <path
                d="M89.6251 155.145C95.9951 154.442 101.64 152.257 105.615 149.241C109.57 146.239 112.015 142.285 111.55 138.075C111.085 133.865 107.837 130.539 103.321 128.473C98.784 126.397 92.7985 125.496 86.4285 126.2C80.0585 126.903 74.4137 129.088 70.439 132.104C66.4832 135.106 64.0384 139.061 64.5033 143.27C64.9683 147.48 68.217 150.806 72.7325 152.872C77.2695 154.948 83.2551 155.849 89.6251 155.145Z"
                fill="#FF9900" stroke="#FFB433" stroke-width="2" />
            <mask id="path-21-outside-4_3419_2799" maskUnits="userSpaceOnUse" x="39.4819" y="106.533" width="98.3568"
                height="78.1672" fill="black">
                <rect fill="white" x="39.4819" y="106.533" width="98.3568" height="78.1672" />
                <path fill-rule="evenodd" clip-rule="evenodd"
                    d="M88.5023 122.9C90.0273 121.875 90.9407 119.997 90.7098 117.965C90.384 115.099 87.9045 113.013 85.1716 113.306C82.4387 113.598 80.4874 116.159 80.8132 119.024C81.0322 120.951 82.2247 122.525 83.8131 123.261C84.1717 130.257 83.2727 142.525 76.8927 143.192C70.788 143.831 65.277 136.799 62.9393 133.105C63.0379 133.051 63.1329 132.989 63.224 132.92C64.7986 131.721 64.5938 128.662 62.7667 126.087C60.9396 123.512 58.1821 122.396 56.6075 123.594C55.033 124.793 55.2377 127.852 57.0648 130.427C58.3048 132.175 59.9733 133.25 61.4098 133.386C63.2335 137.298 64.55 143.047 61.6062 142.724C58.8046 142.416 54.0217 136.569 52.0223 133.486C52.4687 132.254 51.2332 130.444 49.1799 129.371C47.0554 128.261 44.8598 128.36 44.276 129.592C43.6922 130.824 44.9413 132.723 47.0658 133.833C47.6438 134.135 48.227 134.348 48.7816 134.472C51.0294 136.324 54.7479 140.473 57.9067 144.614C61.6902 149.574 68.8446 162.075 66.2086 165.451C65.5561 165.457 64.2172 165.791 64.5208 167.789C64.9003 170.286 69.0452 175.29 85.3086 177.266C87.3867 177.519 95.372 177.248 97.6726 176.349L97.6119 176.061C98.3779 175.891 99.0005 175.729 99.3914 175.595C114.81 170.305 117.706 164.565 117.502 162.049C117.339 160.037 115.956 159.987 115.318 160.116C111.969 157.366 116.08 143.687 118.633 138.064C120.885 133.103 123.746 128.005 125.501 125.918C125.938 125.692 126.377 125.4 126.798 125.045C128.62 123.511 129.409 121.387 128.56 120.303C127.71 119.219 125.545 119.584 123.722 121.119C121.949 122.612 121.154 124.663 121.896 125.772C120.719 129.119 117.308 136.086 114.588 136.984C111.766 137.915 111.752 131.928 112.656 127.727C114.051 127.313 115.468 125.901 116.298 123.91C117.505 121.013 117.012 117.986 115.197 117.148C113.382 116.31 110.931 117.979 109.724 120.875C108.517 123.772 109.01 126.799 110.826 127.637C110.922 127.681 111.02 127.719 111.119 127.749C109.719 131.798 105.942 139.955 99.776 140.6C93.4942 141.257 89.8142 129.839 88.5023 122.9Z" />
            </mask>
            <path fill-rule="evenodd" clip-rule="evenodd"
                d="M88.5023 122.9C90.0273 121.875 90.9407 119.997 90.7098 117.965C90.384 115.099 87.9045 113.013 85.1716 113.306C82.4387 113.598 80.4874 116.159 80.8132 119.024C81.0322 120.951 82.2247 122.525 83.8131 123.261C84.1717 130.257 83.2727 142.525 76.8927 143.192C70.788 143.831 65.277 136.799 62.9393 133.105C63.0379 133.051 63.1329 132.989 63.224 132.92C64.7986 131.721 64.5938 128.662 62.7667 126.087C60.9396 123.512 58.1821 122.396 56.6075 123.594C55.033 124.793 55.2377 127.852 57.0648 130.427C58.3048 132.175 59.9733 133.25 61.4098 133.386C63.2335 137.298 64.55 143.047 61.6062 142.724C58.8046 142.416 54.0217 136.569 52.0223 133.486C52.4687 132.254 51.2332 130.444 49.1799 129.371C47.0554 128.261 44.8598 128.36 44.276 129.592C43.6922 130.824 44.9413 132.723 47.0658 133.833C47.6438 134.135 48.227 134.348 48.7816 134.472C51.0294 136.324 54.7479 140.473 57.9067 144.614C61.6902 149.574 68.8446 162.075 66.2086 165.451C65.5561 165.457 64.2172 165.791 64.5208 167.789C64.9003 170.286 69.0452 175.29 85.3086 177.266C87.3867 177.519 95.372 177.248 97.6726 176.349L97.6119 176.061C98.3779 175.891 99.0005 175.729 99.3914 175.595C114.81 170.305 117.706 164.565 117.502 162.049C117.339 160.037 115.956 159.987 115.318 160.116C111.969 157.366 116.08 143.687 118.633 138.064C120.885 133.103 123.746 128.005 125.501 125.918C125.938 125.692 126.377 125.4 126.798 125.045C128.62 123.511 129.409 121.387 128.56 120.303C127.71 119.219 125.545 119.584 123.722 121.119C121.949 122.612 121.154 124.663 121.896 125.772C120.719 129.119 117.308 136.086 114.588 136.984C111.766 137.915 111.752 131.928 112.656 127.727C114.051 127.313 115.468 125.901 116.298 123.91C117.505 121.013 117.012 117.986 115.197 117.148C113.382 116.31 110.931 117.979 109.724 120.875C108.517 123.772 109.01 126.799 110.826 127.637C110.922 127.681 111.02 127.719 111.119 127.749C109.719 131.798 105.942 139.955 99.776 140.6C93.4942 141.257 89.8142 129.839 88.5023 122.9Z"
                fill="#FFE3B1" />
            <path
                d="M90.7098 117.965L88.7207 118.174L88.7207 118.174L90.7098 117.965ZM88.5023 122.9L87.3745 121.24L86.2919 121.968L86.5353 123.255L88.5023 122.9ZM80.8132 119.024L82.8022 118.815L82.8022 118.815L80.8132 119.024ZM83.8131 123.261L85.8123 123.175L85.7502 121.963L84.6437 121.45L83.8131 123.261ZM76.8927 143.192L76.668 141.205L76.668 141.205L76.8927 143.192ZM62.9393 133.105L61.9652 131.351L60.1128 132.366L61.2493 134.162L62.9393 133.105ZM63.224 132.92L64.4461 134.512L63.224 132.92ZM62.7667 126.087L61.1363 127.233L61.1363 127.233L62.7667 126.087ZM56.6075 123.594L55.3855 122.002L55.3855 122.002L56.6075 123.594ZM57.0648 130.427L58.6953 129.281L58.6953 129.281L57.0648 130.427ZM61.4098 133.386L63.2235 132.556L62.7343 131.506L61.5829 131.397L61.4098 133.386ZM61.6062 142.724L61.4034 144.71L61.4034 144.71L61.6062 142.724ZM52.0223 133.486L50.1391 132.793L49.8015 133.725L50.3445 134.562L52.0223 133.486ZM49.1799 129.371L48.2629 131.14L49.1799 129.371ZM44.276 129.592L46.087 130.458L46.087 130.458L44.276 129.592ZM47.0658 133.833L47.9828 132.064L47.9828 132.064L47.0658 133.833ZM48.7816 134.472L50.0485 132.935L49.6761 132.629L49.2059 132.523L48.7816 134.472ZM57.9067 144.614L56.3176 145.816L57.9067 144.614ZM66.2086 165.451L66.2422 167.449L67.2031 167.441L67.7914 166.687L66.2086 165.451ZM64.5208 167.789L66.4999 167.505L64.5208 167.789ZM85.3086 177.266L85.5345 175.283L85.5345 175.283L85.3086 177.266ZM97.6726 176.349L98.4151 178.211L99.9785 177.601L99.6315 175.953L97.6726 176.349ZM97.6119 176.061L97.1612 174.111L95.2484 174.536L95.6531 176.457L97.6119 176.061ZM99.3914 175.595L98.7269 173.704L98.7269 173.704L99.3914 175.595ZM117.502 162.049L119.497 161.905L119.497 161.905L117.502 162.049ZM115.318 160.116L114.053 161.655L114.795 162.265L115.731 162.075L115.318 160.116ZM118.633 138.064L120.457 138.901L120.457 138.901L118.633 138.064ZM125.501 125.918L124.568 124.143L124.217 124.324L123.963 124.626L125.501 125.918ZM126.798 125.045L125.5 123.514L125.5 123.514L126.798 125.045ZM128.56 120.303L126.986 121.526L128.56 120.303ZM123.722 121.119L122.424 119.587L123.722 121.119ZM121.896 125.772L123.785 126.447L124.116 125.506L123.558 124.671L121.896 125.772ZM114.588 136.984L113.945 135.086L113.945 135.086L114.588 136.984ZM112.656 127.727L112.07 125.812L110.945 126.147L110.698 127.293L112.656 127.727ZM116.298 123.91L118.147 124.69L118.147 124.69L116.298 123.91ZM109.724 120.875L107.875 120.095L107.875 120.095L109.724 120.875ZM110.826 127.637L111.654 125.825L111.654 125.825L110.826 127.637ZM111.119 127.749L113.012 128.415L113.69 126.453L111.693 125.84L111.119 127.749ZM99.776 140.6L99.5514 138.613L99.776 140.6ZM88.7207 118.174C88.8687 119.476 88.2803 120.631 87.3745 121.24L89.63 124.56C91.7742 123.118 93.0128 120.518 92.6988 117.756L88.7207 118.174ZM85.4011 115.293C86.9448 115.127 88.5095 116.316 88.7207 118.174L92.6988 117.756C92.2585 113.883 88.8641 110.899 84.9421 111.319L85.4011 115.293ZM82.8022 118.815C82.5907 116.954 83.8542 115.458 85.4011 115.293L84.9421 111.319C81.0233 111.739 78.3841 115.363 78.8242 119.234L82.8022 118.815ZM84.6437 121.45C83.6978 121.012 82.9423 120.048 82.8022 118.815L78.8242 119.234C79.1221 121.855 80.7515 124.039 82.9826 125.072L84.6437 121.45ZM77.1174 145.18C79.4191 144.939 81.1326 143.636 82.344 141.956C83.5292 140.313 84.3066 138.222 84.8256 136.085C85.866 131.801 85.9968 126.773 85.8123 123.175L81.8139 123.347C81.9881 126.745 81.8487 131.348 80.9342 135.114C80.4757 137.002 79.8545 138.541 79.088 139.604C78.3476 140.631 77.5563 141.112 76.668 141.205L77.1174 145.18ZM61.2493 134.162C62.4744 136.098 64.5555 138.953 67.1869 141.268C69.7738 143.543 73.2295 145.586 77.1174 145.18L76.668 141.205C74.4511 141.437 72.099 140.283 69.8199 138.279C67.5851 136.313 65.7419 133.806 64.6293 132.047L61.2493 134.162ZM62.002 131.327C61.9896 131.336 61.9775 131.344 61.9652 131.351L63.9134 134.858C64.0983 134.757 64.2763 134.641 64.4461 134.512L62.002 131.327ZM61.1363 127.233C61.8643 128.259 62.2188 129.317 62.2736 130.136C62.331 130.994 62.0668 131.278 62.002 131.327L64.4461 134.512C65.9558 133.363 66.3764 131.517 66.2684 129.903C66.1577 128.249 65.4963 126.49 64.3972 124.941L61.1363 127.233ZM57.8296 125.187C57.8674 125.158 58.1365 124.986 58.8534 125.277C59.5512 125.559 60.4068 126.205 61.1363 127.233L64.3972 124.941C63.2996 123.394 61.8628 122.194 60.3315 121.575C58.8192 120.963 56.9222 120.832 55.3855 122.002L57.8296 125.187ZM58.6953 129.281C57.9672 128.255 57.6127 127.197 57.5579 126.378C57.5005 125.52 57.7648 125.236 57.8296 125.187L55.3855 122.002C53.8757 123.151 53.4551 124.997 53.5632 126.612C53.6739 128.265 54.3353 130.024 55.4344 131.573L58.6953 129.281ZM61.5829 131.397C60.9126 131.334 59.7174 130.722 58.6953 129.281L55.4344 131.573C56.8922 133.628 59.0341 135.167 61.2367 135.376L61.5829 131.397ZM61.4034 144.71C62.0892 144.785 62.8233 144.699 63.4987 144.325C64.1753 143.951 64.6157 143.387 64.8857 142.816C65.3834 141.762 65.3925 140.506 65.2876 139.46C65.0685 137.275 64.1926 134.634 63.2235 132.556L59.5961 134.217C60.4506 136.05 61.1448 138.239 61.3039 139.826C61.3424 140.21 61.3451 140.518 61.3245 140.751C61.3144 140.865 61.2996 140.95 61.2854 141.009C61.2711 141.068 61.2601 141.091 61.262 141.087C61.27 141.07 61.3446 140.932 61.5368 140.826C61.7279 140.72 61.8592 140.743 61.8091 140.737L61.4034 144.71ZM50.3445 134.562C51.4073 136.201 53.1795 138.533 55.068 140.516C56.012 141.507 57.027 142.455 58.0326 143.192C58.9833 143.888 60.1625 144.573 61.4034 144.71L61.8091 140.737C61.6492 140.72 61.1799 140.559 60.3834 139.976C59.6418 139.433 58.8107 138.669 57.9589 137.775C56.2556 135.986 54.6367 133.854 53.7 132.41L50.3445 134.562ZM48.2629 131.14C49.042 131.547 49.5954 132.061 49.8915 132.491C50.227 132.978 50.0488 133.042 50.1391 132.793L53.9055 134.179C54.4422 132.697 53.8695 131.24 53.1855 130.246C52.4621 129.196 51.3711 128.268 50.0969 127.603L48.2629 131.14ZM46.087 130.458C45.9332 130.783 45.7343 130.623 46.2567 130.599C46.724 130.578 47.4523 130.716 48.2629 131.14L50.0969 127.603C48.7829 126.916 47.3512 126.548 46.0437 126.607C44.7912 126.663 43.2026 127.169 42.4651 128.726L46.087 130.458ZM47.9828 132.064C47.1746 131.642 46.6125 131.107 46.3259 130.671C46 130.176 46.2232 130.171 46.087 130.458L42.4651 128.726C41.745 130.245 42.3009 131.806 42.9846 132.845C43.7078 133.945 44.8324 134.914 46.1488 135.602L47.9828 132.064ZM49.2059 132.523C48.8316 132.439 48.4134 132.289 47.9828 132.064L46.1488 135.602C46.8742 135.981 47.6225 136.256 48.3574 136.421L49.2059 132.523ZM59.4958 143.412C56.3081 139.233 52.4777 134.937 50.0485 132.935L47.5148 136.009C49.5811 137.712 53.1877 141.713 56.3176 145.816L59.4958 143.412ZM67.7914 166.687C68.4397 165.857 68.6934 164.869 68.7605 163.951C68.8277 163.03 68.7175 162.048 68.5153 161.077C68.1114 159.138 67.2754 156.945 66.2805 154.8C64.2861 150.498 61.4754 146.007 59.4958 143.412L56.3176 145.816C58.1215 148.181 60.7797 152.421 62.6495 156.453C63.5866 158.475 64.2814 160.351 64.5958 161.86C64.7528 162.614 64.7986 163.201 64.7674 163.629C64.7359 164.06 64.6366 164.201 64.6258 164.215L67.7914 166.687ZM66.4999 167.505C66.4574 167.225 66.4927 167.136 66.4839 167.165C66.4793 167.181 66.4664 167.215 66.4385 167.259C66.4106 167.302 66.3762 167.342 66.3392 167.375C66.3032 167.406 66.271 167.426 66.2491 167.438C66.2279 167.449 66.2152 167.453 66.2139 167.453C66.2128 167.453 66.2171 167.452 66.2261 167.451C66.2302 167.45 66.234 167.45 66.2374 167.45C66.2407 167.449 66.2425 167.449 66.2422 167.449L66.1751 163.453C65.604 163.458 64.553 163.595 63.6731 164.371C62.6671 165.26 62.3159 166.587 62.5417 168.073L66.4999 167.505ZM85.5345 175.283C77.5589 174.314 72.7509 172.622 69.9544 170.998C67.1221 169.353 66.5627 167.918 66.4999 167.505L62.5417 168.073C62.8584 170.157 64.5611 172.473 67.962 174.448C71.3987 176.444 76.7949 178.243 85.0828 179.25L85.5345 175.283ZM96.9302 174.488C96.5952 174.619 95.8715 174.781 94.7805 174.927C93.7403 175.066 92.514 175.172 91.274 175.245C88.7379 175.393 86.3791 175.386 85.5345 175.283L85.0827 179.25C86.3162 179.4 88.9892 179.383 91.5404 179.234C92.844 179.158 94.1753 179.044 95.3443 178.888C96.4626 178.738 97.5998 178.529 98.4151 178.211L96.9302 174.488ZM95.6531 176.457L95.7138 176.745L99.6315 175.953L99.5707 175.665L95.6531 176.457ZM98.7269 173.704C98.4453 173.801 97.9117 173.944 97.1612 174.111L98.0626 178.012C98.8442 177.838 99.5557 177.656 100.056 177.485L98.7269 173.704ZM115.507 162.194C115.54 162.607 115.326 164.118 112.943 166.306C110.59 168.467 106.288 171.111 98.7269 173.704L100.056 177.485C107.914 174.789 112.769 171.918 115.667 169.258C118.535 166.624 119.667 164.007 119.497 161.905L115.507 162.194ZM115.731 162.075C115.731 162.075 115.733 162.075 115.736 162.074C115.739 162.074 115.743 162.073 115.747 162.073C115.757 162.072 115.761 162.073 115.76 162.073C115.76 162.072 115.747 162.071 115.724 162.065C115.701 162.059 115.667 162.046 115.626 162.024C115.583 162 115.542 161.97 115.506 161.934C115.47 161.899 115.451 161.869 115.443 161.856C115.429 161.831 115.484 161.912 115.507 162.194L119.497 161.905C119.376 160.407 118.729 159.19 117.551 158.536C116.518 157.962 115.464 158.045 114.904 158.158L115.731 162.075ZM116.808 137.227C115.472 140.17 113.76 145.135 112.802 149.746C112.324 152.047 112.012 154.36 112.063 156.337C112.089 157.326 112.207 158.307 112.484 159.192C112.76 160.074 113.234 160.982 114.053 161.655L116.582 158.578C116.565 158.563 116.434 158.442 116.304 158.028C116.175 157.616 116.085 157.033 116.065 156.266C116.025 154.728 116.272 152.755 116.722 150.589C117.62 146.267 119.24 141.581 120.457 138.901L116.808 137.227ZM123.963 124.626C122.024 126.932 119.072 132.242 116.808 137.227L120.457 138.901C122.699 133.964 125.468 129.077 127.038 127.21L123.963 124.626ZM125.5 123.514C125.187 123.778 124.869 123.987 124.568 124.143L126.434 127.694C127.006 127.397 127.567 127.022 128.096 126.577L125.5 123.514ZM126.986 121.526C126.792 121.277 127.009 121.241 126.803 121.797C126.621 122.286 126.193 122.93 125.5 123.514L128.096 126.577C129.225 125.626 130.102 124.441 130.558 123.213C130.989 122.053 131.177 120.413 130.133 119.08L126.986 121.526ZM125.021 122.65C125.716 122.064 126.395 121.776 126.855 121.699C127.368 121.613 127.209 121.81 126.986 121.526L130.133 119.08C129.061 117.712 127.395 117.55 126.157 117.758C124.866 117.976 123.551 118.638 122.424 119.587L125.021 122.65ZM123.558 124.671C123.71 124.898 123.516 124.881 123.732 124.329C123.922 123.843 124.347 123.217 125.021 122.65L122.424 119.587C121.324 120.514 120.465 121.661 120 122.85C119.561 123.975 119.341 125.537 120.234 126.872L123.558 124.671ZM115.23 138.882C116.436 138.484 117.45 137.539 118.23 136.638C119.058 135.683 119.844 134.513 120.548 133.32C121.955 130.935 123.155 128.239 123.785 126.447L120.007 125.096C119.46 126.651 118.367 129.113 117.093 131.272C116.457 132.351 115.807 133.301 115.193 134.01C114.533 134.772 114.1 135.035 113.945 135.086L115.23 138.882ZM110.698 127.293C110.217 129.529 109.958 132.315 110.239 134.517C110.374 135.571 110.667 136.804 111.388 137.735C111.778 138.239 112.334 138.705 113.081 138.935C113.828 139.165 114.571 139.099 115.23 138.882L113.945 135.086C113.899 135.101 114.024 135.052 114.234 135.117C114.443 135.182 114.542 135.299 114.549 135.308C114.549 135.308 114.531 135.285 114.503 135.227C114.474 135.168 114.439 135.085 114.403 134.972C114.328 134.742 114.26 134.433 114.21 134.044C114.005 132.434 114.191 130.126 114.613 128.162L110.698 127.293ZM114.449 123.13C113.764 124.773 112.713 125.621 112.07 125.812L113.242 129.643C115.389 129.004 117.172 127.029 118.147 124.69L114.449 123.13ZM114.369 118.96C114.446 118.996 114.767 119.216 114.905 120.062C115.037 120.87 114.93 121.976 114.449 123.13L118.147 124.69C118.874 122.947 119.124 121.091 118.857 119.452C118.596 117.85 117.763 116.138 116.025 115.336L114.369 118.96ZM111.574 121.655C112.055 120.5 112.748 119.688 113.37 119.265C114.01 118.829 114.319 118.937 114.369 118.96L116.025 115.336C114.259 114.52 112.436 115.044 111.095 115.958C109.737 116.883 108.601 118.354 107.875 120.095L111.574 121.655ZM111.654 125.825C111.577 125.789 111.255 125.569 111.118 124.723C110.986 123.915 111.093 122.809 111.574 121.655L107.875 120.095C107.149 121.838 106.899 123.694 107.166 125.333C107.427 126.935 108.26 128.647 109.998 129.449L111.654 125.825ZM111.693 125.84C111.68 125.836 111.667 125.831 111.654 125.825L109.998 129.449C110.176 129.532 110.359 129.602 110.545 129.659L111.693 125.84ZM100.001 142.587C103.929 142.176 106.856 139.416 108.864 136.626C110.907 133.787 112.277 130.539 113.012 128.415L109.226 127.084C108.561 129.008 107.342 131.864 105.606 134.277C103.834 136.738 101.789 138.379 99.5514 138.613L100.001 142.587ZM86.5353 123.255C87.2094 126.821 88.5031 131.619 90.4956 135.499C91.4898 137.435 92.7207 139.267 94.2406 140.589C95.7937 141.94 97.7372 142.824 100.001 142.587L99.5514 138.613C98.6739 138.704 97.8018 138.407 96.8571 137.586C95.8793 136.735 94.9303 135.402 94.0553 133.699C92.3094 130.299 91.1071 125.919 90.4693 122.545L86.5353 123.255Z"
                fill="#FFB433" mask="url(#path-21-outside-4_3419_2799)" />
            <path d="M92.6257 149.461L92.6257 156.478" stroke="#FFB433" stroke-width="3" stroke-linecap="round" />
            <path d="M105.215 147.809C105.681 149.787 105.422 151.96 105.422 154" stroke="#FFB433" stroke-width="3"
                stroke-linecap="round" />
            <path
                d="M91.1788 162.05C94.1747 164.224 98.4597 164.512 102.071 164.068C105.032 163.704 107.126 161.528 108.927 159.367"
                stroke="#FFB433" stroke-width="3" stroke-linecap="round" />
            <path
                d="M125.128 297.427C141.886 295.39 141.284 253.116 136.107 232.122C135.217 228.511 135.363 224.662 136.996 221.32C142.17 210.725 141.754 198.08 134.767 188.582C133.894 187.396 133.023 186.247 132.17 185.166C132.237 192.064 129.889 207.929 119.956 216.206C107.54 226.553 70.8093 218.793 67.188 221.379C65.1893 222.807 65.3739 226.286 66.077 229.27C66.623 231.587 66.866 234.006 66.2704 236.311L59.5661 262.248C55.6411 266.297 52.4505 271.295 51.15 278.286C47.0113 300.531 66.4697 297.257 88.1976 289.497C109.926 281.737 113.23 300.531 125.128 297.427Z"
                fill="#FFE033" />
            <path
                d="M83.7426 238.451C80.1949 249.094 68.1318 253.412 59.5661 262.248M59.5661 262.248C55.6411 266.297 52.4505 271.295 51.15 278.286C47.0113 300.531 66.4697 297.257 88.1976 289.497C109.926 281.737 113.23 300.531 125.128 297.427C141.886 295.39 141.284 253.116 136.107 232.122C135.217 228.511 135.363 224.662 136.996 221.32V221.32C142.17 210.725 141.754 198.08 134.767 188.582C133.894 187.396 133.023 186.247 132.17 185.166C132.237 192.064 129.889 207.929 119.956 216.206C107.54 226.553 70.8093 218.793 67.188 221.379C65.1893 222.807 65.3739 226.286 66.077 229.27C66.623 231.587 66.866 234.006 66.2704 236.311L59.5661 262.248ZM117.886 228.622L75.4653 284.494"
                stroke="#FFB433" stroke-width="2" stroke-linecap="round" stroke-linejoin="round" />
            <path d="M45.135 32.9609L35.8231 134.358" stroke="#FFB433" stroke-width="4" stroke-linecap="round"
                stroke-linejoin="round" />
            <path d="M33.7537 160.742L31.1671 187.126" stroke="#FFB433" stroke-width="3" stroke-linecap="round"
                stroke-linejoin="round" />
        </g>
    </g>
    <defs>
        <clipPath id="clip0_3419_2799">
            <rect width="320" height="320" fill="white" transform="translate(-1.52588e-05 0.904297)" />
        </clipPath>
        <clipPath id="clip1_3419_2799">
            <rect width="320" height="320" fill="white" transform="translate(-1.52588e-05 0.904297)" />
        </clipPath>
    </defs>
</svg>