<svg width="286" height="162" viewBox="0 0 286 162" fill="none" xmlns="http://www.w3.org/2000/svg">
<path d="M267.484 81C267.484 102.881 252.78 122.859 228.649 137.419C204.536 151.969 171.161 161 134.242 161C97.3232 161 63.9478 151.969 39.8352 137.419C15.7036 122.859 1 102.881 1 81C1 59.1189 15.7036 39.1413 39.8352 24.5806C63.9478 10.0313 97.3232 1 134.242 1C171.161 1 204.536 10.0313 228.649 24.5806C252.78 39.1413 267.484 59.1189 267.484 81Z" fill="#FFEFD4" stroke="#FFB433" stroke-width="2"/>
<path d="M271.144 28.6725L284.776 40.5346L239.752 72.5379L271.144 28.6725Z" fill="#FFB433"/>
<path d="M242.892 23.9653L252.994 32.3996L240.373 58.5491L242.892 23.9653Z" fill="#FFB433"/>
<path d="M232.859 49.5449C232.037 47.6902 230.566 46.3944 229.302 45.1747C222.648 38.7561 215.494 33.9225 207.847 30.0778C184.675 18.4264 159.622 13.7522 135.05 11.9515C104.683 9.72618 72.5114 11.9801 43.5672 25.7325C32.1791 31.1433 19.951 38.9366 12.5596 52.4749C6.82117 62.9854 6.63254 76.4196 9.73568 88.4046C18.0994 120.707 46.6428 134.88 69.0005 142.312C84.3656 147.419 100.139 150.084 115.906 151.499C136.629 153.359 157.621 153.486 178.288 150.481C205.834 146.476 297.453 119.382 276.427 56.2491" stroke="#FFB433" stroke-width="2" stroke-linecap="round"/>
</svg>
