<svg viewBox="0 0 320 321" fill="none" xmlns="http://www.w3.org/2000/svg">
    <g clip-path="url(#clip0_3419_2853)">
        <rect width="320" height="320" rx="12" transform="matrix(3.77025e-08 1 1 -5.06779e-08 -6.10352e-05 0.904297)"
            fill="#FFDB8D" />
        <mask id="mask0_3419_2853" style="mask-type:alpha" maskUnits="userSpaceOnUse" x="0" y="0" width="320"
            height="321">
            <mask id="path-2-inside-1_3419_2853" fill="white">
                <path
                    d="M12 0.904308C5.37259 0.904308 -3.05176e-05 6.27689 -3.05176e-05 12.9043L0 308.904C0 315.532 5.37259 320.904 12 320.904H308C314.627 320.904 320 315.532 320 308.904L320 12.9043C320 6.27689 314.627 0.904297 308 0.904297L12 0.904308Z" />
            </mask>
            <path
                d="M12 0.904308C5.37259 0.904308 -3.05176e-05 6.27689 -3.05176e-05 12.9043L0 308.904C0 315.532 5.37259 320.904 12 320.904H308C314.627 320.904 320 315.532 320 308.904L320 12.9043C320 6.27689 314.627 0.904297 308 0.904297L12 0.904308Z"
                fill="#FFDB8D" />
            <path
                d="M308 0.904297V-0.0957031V0.904297ZM308 320.904V319.904V320.904ZM12 320.904V321.904V320.904ZM-3.05176e-05 12.9043H0.999969H-3.05176e-05ZM12 0.904308V1.90431V0.904308ZM0.999969 12.9043L1 308.904H-1L-1.00003 12.9043H0.999969ZM12 319.904H308V321.904H12V319.904ZM319 308.904L319 12.9043L321 12.9043L321 308.904H319ZM308 1.9043L12 1.90431V-0.0956923L308 -0.0957031V1.9043ZM319 12.9043C319 6.82917 314.075 1.9043 308 1.9043V-0.0957031C315.18 -0.0957034 321 5.7246 321 12.9043L319 12.9043ZM308 319.904C314.075 319.904 319 314.979 319 308.904H321C321 316.084 315.18 321.904 308 321.904V319.904ZM1 308.904C1 314.979 5.92487 319.904 12 319.904V321.904C4.82031 321.904 -1 316.084 -1 308.904H1ZM-1.00003 12.9043C-1.00003 5.72461 4.82028 -0.095692 12 -0.0956923V1.90431C5.92487 1.90431 0.999969 6.82918 0.999969 12.9043H-1.00003Z"
                fill="#FFB433" mask="url(#path-2-inside-1_3419_2853)" />
        </mask>
        <g mask="url(#mask0_3419_2853)">
            <path
                d="M611.231 -207.37C614.249 -242.149 605.416 -248.714 588.04 -247.617L586.392 -247.174C587.592 -249.285 588.792 -251.395 589.991 -253.505C592.694 -263.171 593.3 -274.061 587.314 -283.178L555 -344.215C547.67 -358.334 531.349 -366.461 516.517 -362.473L514.869 -362.03L403.999 -314.342C392.911 -309.573 386.465 -300.689 385.859 -289.799C384.804 -280.576 384.95 -273.464 385.543 -264.685L369.392 -305.037C364.461 -323.378 345.596 -334.395 327.469 -329.522L279.679 -316.673C266.496 -313.128 256.002 -299.58 254.645 -284.912C254.039 -274.022 251.785 -262.689 251.93 -255.577C248.489 -261.803 243.4 -267.586 239.511 -275.48C230.532 -289.156 214.659 -295.615 199.828 -291.627C198.18 -291.184 196.532 -290.741 196.532 -290.741L151.735 -273.333C135.705 -267.235 126.108 -250.352 131.039 -232.012L137.012 -203.226L122.799 -229.797C115.469 -243.916 99.1475 -252.043 84.3163 -248.055L82.6684 -247.612L-28.2025 -199.924C-39.2896 -195.155 -45.736 -186.271 -46.3422 -175.381C-47.2514 -159.046 -46.5127 -143.155 -46.2222 -128.93L-81.6491 -240.976C-86.5802 -259.316 -104.998 -268.667 -123.125 -263.793L-185.745 -246.956C-198.929 -243.412 -209.87 -231.531 -211.228 -216.863C-214.233 -201.753 -215.894 -181.64 -218.899 -166.53C-225.333 -177.315 -234.311 -190.991 -240.297 -200.109C-249.275 -213.785 -263.052 -219.02 -277.883 -215.032C-279.531 -214.589 -281.179 -214.146 -281.179 -214.146L-342.006 -190.64C-358.037 -184.542 -365.986 -168.102 -363.151 -150.986L-356.427 -125.977C-318.752 40.4591 -270.792 203.584 -228.68 368.868C-226.438 377.204 -220.901 384.654 -212.516 389.551C-204.132 394.448 -194.995 395.567 -186.756 393.352L-185.108 392.909L-128.328 374.067C-112.297 367.969 -102.7 351.086 -107.631 332.746L-113.907 309.404C-113.156 305.626 -114.052 302.292 -114.949 298.957C-109.86 304.74 -103.123 310.08 -96.386 315.42C-86.6564 325.318 -75.2789 334.774 -65.5493 344.673C-56.2679 352.904 -45.0356 355.248 -33.5003 352.146C-31.8523 351.703 -30.2044 351.26 -28.5565 350.817L24.7828 325.749C34.2219 321.423 42.3163 312.095 44.5703 300.763C48.3271 281.874 42.4994 260.2 36.0656 249.415C34.7208 244.413 31.728 239.854 27.0874 235.739C10.1726 218.833 -18.5679 190.804 -39.372 166.005C-32.6098 132.006 -22.6971 90.0088 -15.3415 64.7896C-15.3415 64.7896 -15.7897 63.1223 -14.5901 61.012C-12.797 67.6811 -7.70803 73.464 -1.41947 77.1367L47.298 251.758C47.7462 253.426 48.6428 256.76 49.0911 258.427L56.2636 285.104C61.1946 303.444 80.0604 314.462 98.1874 309.588C98.1874 309.588 99.8354 309.145 101.483 308.702L138.489 295.177C154.519 289.079 164.116 272.196 159.634 255.523L154.109 228.404C153.661 226.736 154.412 222.959 153.964 221.291L116.769 63.2375C122.016 56.4634 125.167 48.465 126.221 39.2425L125.628 30.463C126.076 32.1303 126.524 33.7976 126.972 35.4648C138.918 93.0386 170.733 231.085 177.906 257.761C182.837 276.102 201.254 285.452 217.734 281.021L219.381 280.578L253.539 269.607C268.37 265.619 277.968 248.736 275.581 233.287C274.539 222.841 271.401 211.17 269.911 199.056L303.438 238.312C311.519 248.654 324.848 252.222 336.383 249.12C338.031 248.677 338.031 248.677 339.679 248.234L413.69 221.184C429.721 215.086 437.67 198.646 433.187 181.973L428.111 156.521C427.662 154.853 427.662 154.853 427.214 153.186C433.2 162.304 441.584 167.2 450.721 168.32C445.171 180.539 461.363 215.517 461.363 215.517C461.363 215.517 481.428 279.847 513.714 271.166L515.362 270.723C521.953 268.951 529.744 265.068 536.336 263.296C550.719 257.641 563.902 254.096 577.837 246.774C592.22 241.119 606.603 235.464 618.889 228.585C632.824 221.263 645.111 214.384 654.102 208.391C661.445 202.841 668.339 195.624 671.49 187.625C674.641 179.627 677.791 171.629 680.494 161.963C681.548 152.74 682.602 143.518 683.657 134.295C684.711 125.073 683.669 114.626 683.076 105.846C683.379 100.402 681.138 92.0652 679.648 79.9511C677.854 73.282 676.51 68.2802 676.364 61.168C675.468 57.8334 674.123 52.8316 673.978 45.7194C670.84 34.0484 668.901 20.267 664.867 5.26146C660.832 -9.74407 656.798 -24.7496 653.963 -41.8655C649.48 -58.5383 645.446 -73.5439 641.859 -86.8821C636.032 -108.557 622.413 -126.349 605.195 -137.81C607.594 -142.03 607.897 -147.475 609.848 -153.363L611.231 -207.37ZM543.528 27.159L516.265 30.9136L513.878 15.465L540.693 10.0431L543.528 27.159Z"
                fill="#FFCA70" />
            <path
                d="M-58.3467 4.18646L-116.173 10.1059C-117.806 10.5279 -117.806 10.5279 -119.439 10.9498C-124.338 12.2157 -129.948 17.2745 -130.197 22.7528C-138.438 50.1467 -156.129 119.684 -159.644 126.006C-160.816 128.114 -160.816 128.114 -161.988 130.221C-163.87 136.121 -166.214 140.336 -167.847 140.758C-167.847 140.758 -167.847 140.758 -169.48 141.18C-171.113 141.602 -172.957 134.86 -171.786 132.753L-172.247 131.067L-194.631 55.6442C-196.937 47.2169 -205.775 40.4775 -215.572 43.0093L-274.359 58.1999C-282.524 60.3097 -288.844 69.1613 -286.077 79.274L-215.734 329.984C-212.967 340.097 -204.59 345.151 -194.793 342.619C-194.793 342.619 -194.793 342.619 -193.16 342.197L-136.928 324.057C-128.763 321.947 -124.537 311.832 -126.843 303.405L-146.672 230.931C-148.056 225.875 -147.345 222.082 -144.079 221.238C-142.446 220.816 -140.352 222.079 -138.258 223.343C-133.609 227.555 -112.456 247.354 -88.2868 271.787C-78.5269 281.897 -67.1341 291.585 -57.3743 301.696C-52.7249 305.908 -46.9037 308.013 -42.0048 306.747C-40.3719 306.325 -40.3719 306.325 -38.7389 305.903L14.015 281.444C24.9846 276.805 26.1943 262.055 18.5285 253.209C-5.64054 228.776 -45.1411 186.649 -66.5054 159.686C-60.5705 123.865 -45.9337 62.3357 -39.0765 29.8854C-36.2338 14.7139 -46.4548 2.91818 -58.3467 4.18646Z"
                fill="#FFDB8D" />
            <path
                d="M96.8952 -54.631C93.6205 -53.7832 91.2707 -49.5494 91.0207 -44.0464C91.4831 -42.3534 92.408 -38.9674 92.8705 -37.2743C88.1708 -28.8067 81.3714 -21.6081 74.822 -19.9125C73.1846 -19.4886 73.1846 -19.4886 71.5472 -19.0647C59.1608 -19.4834 51.4741 -28.3699 43.5749 -44.4522C44.7498 -46.5692 47.0996 -50.803 46.1747 -54.189C44.3249 -60.9611 41.3002 -65.6163 36.3882 -64.3445C33.1135 -63.4967 30.7636 -59.2629 30.9761 -52.0669C31.901 -48.6809 33.2883 -43.6018 35.3881 -42.3327C33.7132 -29.2099 28.3011 -16.9323 16.8396 -13.965C16.8396 -13.965 16.8396 -13.965 15.2022 -13.5411C8.65279 -11.8455 -1.84625 -18.1911 -9.53301 -27.0775C-9.53301 -27.0775 -8.35809 -29.1944 -8.82054 -30.8874C-9.28298 -32.5804 -9.28298 -32.5804 -9.74543 -34.2735C-11.1328 -39.3525 -14.1575 -44.0077 -17.4322 -43.1599C-20.7069 -42.3121 -23.0567 -38.0782 -21.6694 -32.9992C-20.2821 -27.9201 -17.7198 -24.958 -13.9826 -24.1128L-4.52124 16.9436C-2.209 25.4087 5.0153 32.602 13.2021 30.4825L86.3832 22.4129L88.0205 21.989C94.5699 20.2934 99.732 13.5188 99.0572 4.6298L98.245 -36.853C101.52 -37.7008 103.87 -41.9347 102.482 -47.0137C104.832 -51.2476 100.632 -53.7858 96.8952 -54.631Z"
                fill="#FFDB8D" />
            <path
                d="M76.5597 41.4439L29.2744 46.4696L27.651 46.8886C17.9104 49.4023 13.7036 59.4593 15.9905 67.8405L66.5529 246.779C69.2972 256.836 79.2438 261.447 87.3609 259.352L88.9843 258.933L125.408 245.944C133.525 243.85 137.732 233.793 135.445 225.411L94.1208 54.8546C93.9147 47.7307 85.1341 41.0253 76.5597 41.4439Z"
                fill="#FFDB8D" />
            <path
                d="M341.612 -72.9239L300.767 -62.3667C292.598 -60.2553 289.542 -52.2419 290.215 -43.3864C294.119 -22.7245 305.117 43.0569 307.387 64.1411C307.848 65.8277 307.137 69.6233 305.503 70.0456L303.87 70.4679C301.774 69.2035 301.774 69.2035 299.679 67.9391C291.548 57.3995 246.738 -10.4782 229.091 -36.6174C225.612 -42.9416 218.154 -44.6258 211.619 -42.9366L145.556 -22.2496C137.387 -20.1382 132.697 -11.7025 135.004 -3.26934C146.29 44.3788 179.899 192.805 187.281 219.792C189.588 228.225 198.431 234.969 206.6 232.857L240.448 222.303C246.983 220.614 251.673 212.178 251.461 205.009C246.884 175.492 237.943 123.626 237.943 123.626C237.943 123.626 238.654 119.83 240.288 119.408C241.922 118.986 244.478 121.937 244.478 121.937L308.856 197.398C313.508 201.613 319.332 203.72 324.233 202.453L325.867 202.031L399.176 175.859C407.345 173.748 409.94 164.047 407.632 155.614L357.663 -59.0135C358.162 -69.9779 349.781 -75.0353 341.612 -72.9239Z"
                fill="#FFDB8D" />
        </g>
        <g clip-path="url(#clip1_3419_2853)">
            <path
                d="M79.3833 234.515C55.618 223.494 -2.31782 229.923 -12 234.515L-12 171.365L174.196 168.277L221.315 141.141C223.736 140.376 229.897 139.763 235.179 143.437C240.46 147.111 239.139 152.111 237.819 154.152L141.437 240.638C134.572 247.985 123.613 247.781 118.992 246.761C106.669 243.189 81.4958 235.74 79.3833 234.515Z"
                fill="#FFE3B1" stroke="#FF9429" stroke-width="2" />
            <path
                d="M181.708 168.693L222.637 168.693L214.715 175.582L184.349 182.47C186.461 178.184 183.468 171.5 181.708 168.693Z"
                fill="#FF9429" />
            <path d="M99.8488 213.085C100.949 211.555 103.282 207.881 103.81 205.432" stroke="#FF9429"
                stroke-width="2" />
            <path d="M235.844 151.857C232.983 153.643 226.602 157.98 227.922 162.572" stroke="#FF9429"
                stroke-width="2" />
            <path
                d="M109.092 204.669C109.092 206.199 108.828 209.414 107.772 210.026M188.97 190.892L191.611 196.25M192.931 189.361L194.251 192.423"
                stroke="#FF9429" stroke-width="2" />
            <rect width="72.3633" height="29.3836" rx="1.57482"
                transform="matrix(-0.979041 2.46565e-09 1.90454e-09 1.0165 139.417 143.414)" fill="#FFE033"
                stroke="#FF9429" stroke-width="2" />
            <path d="M139.417 165.775L81.4516 143.414L139.417 144.347L139.417 165.775Z" fill="#FFB41D" />
            <rect width="72.3633" height="29.3836" rx="1.57482"
                transform="matrix(-0.979041 2.46565e-09 1.90454e-09 1.0165 139.417 143.414)" stroke="#FF9429"
                stroke-width="2" />
            <rect x="73.4079" y="143.414" width="1.61015" height="29.8683" fill="#FF9429" />
            <rect x="79.8422" y="143.414" width="1.61015" height="29.8683" fill="#FF9429" />
            <rect x="91.1133" y="143.414" width="1.61015" height="29.8683" fill="#FF9429" />
            <rect x="104.002" y="143.414" width="1.61015" height="29.8683" fill="#FF9429" />
            <rect x="115.262" y="143.414" width="1.61015" height="29.8683" fill="#FF9429" />
            <rect x="126.54" y="143.414" width="1.61015" height="29.8683" fill="#FF9429" />
            <rect x="132.971" y="143.414" width="1.61015" height="29.8683" fill="#FF9429" />
            <rect x="136.192" y="143.414" width="1.61015" height="29.8683" fill="#FF9429" />
            <rect x="70.1837" y="143.414" width="1.61015" height="29.8683" fill="#FF9429" />
            <rect x="76.6104" y="113.551" width="70.8466" height="29.8683" rx="1.57482" fill="#FFE033" stroke="#FF9429"
                stroke-width="2" />
            <path d="M76.6104 135.911L134.576 113.551L76.6104 114.484L76.6104 135.911Z" fill="#FFB41D" />
            <rect x="76.6104" y="113.551" width="70.8466" height="29.8683" rx="1.57482" stroke="#FF9429"
                stroke-width="2" />
            <rect x="81.4359" y="113.551" width="1.61015" height="29.8683" fill="#FF9429" />
            <rect x="87.8853" y="113.551" width="1.61015" height="29.8683" fill="#FF9429" />
            <rect x="99.1488" y="113.551" width="1.61015" height="29.8683" fill="#FF9429" />
            <rect x="112.027" y="113.551" width="1.61015" height="29.8683" fill="#FF9429" />
            <rect x="123.308" y="113.551" width="1.61015" height="29.8683" fill="#FF9429" />
            <rect x="134.582" y="113.551" width="1.61015" height="29.8683" fill="#FF9429" />
            <rect x="141.018" y="113.551" width="1.61015" height="29.8683" fill="#FF9429" />
            <rect x="144.237" y="113.551" width="1.61015" height="29.8683" fill="#FF9429" />
            <rect x="78.2164" y="113.551" width="1.61015" height="29.8683" fill="#FF9429" />
            <rect x="70.1736" y="85.5488" width="70.8466" height="29.8683" rx="1.57482" fill="#FFE033" stroke="#FF9429"
                stroke-width="2" />
            <rect x="74.9991" y="85.5488" width="1.61015" height="29.8683" fill="#FF9429" />
            <rect x="81.4485" y="85.5488" width="1.61015" height="29.8683" fill="#FF9429" />
            <rect x="92.712" y="85.5488" width="1.61015" height="29.8683" fill="#FF9429" />
            <rect x="105.589" y="85.5488" width="1.61015" height="29.8683" fill="#FF9429" />
            <rect x="116.871" y="85.5488" width="1.61015" height="29.8683" fill="#FF9429" />
            <rect x="128.145" y="85.5488" width="1.61015" height="29.8683" fill="#FF9429" />
            <rect x="134.582" y="85.5488" width="1.61015" height="29.8683" fill="#FF9429" />
            <rect x="137.8" y="85.5488" width="1.61015" height="29.8683" fill="#FF9429" />
            <rect x="71.7787" y="85.5488" width="1.61015" height="29.8683" fill="#FF9429" />
            <rect width="98.4164" height="39.9626" rx="1.57482"
                transform="matrix(-0.979041 2.46565e-09 1.90454e-09 1.0165 219.944 132.666)" fill="#FFE033"
                stroke="#FF9429" stroke-width="2" />
            <path d="M219.944 163.077L141.109 132.666L219.944 133.935L219.944 163.077Z" fill="#FFB41D" />
            <rect width="98.4164" height="39.9626" rx="1.57482"
                transform="matrix(-0.979041 2.46565e-09 1.90454e-09 1.0165 219.944 132.666)" stroke="#FF9429"
                stroke-width="2" />
            <rect x="130.172" y="132.666" width="2.18986" height="40.6218" fill="#FF9429" />
            <rect x="138.919" y="132.666" width="2.18986" height="40.6218" fill="#FF9429" />
            <rect x="154.252" y="132.666" width="2.18986" height="40.6218" fill="#FF9429" />
            <rect x="171.768" y="132.666" width="2.18986" height="40.6218" fill="#FF9429" />
            <rect x="187.094" y="132.666" width="2.18986" height="40.6218" fill="#FF9429" />
            <rect x="202.427" y="132.666" width="2.18986" height="40.6218" fill="#FF9429" />
            <rect x="211.179" y="132.666" width="2.18986" height="40.6218" fill="#FF9429" />
            <rect x="215.558" y="132.666" width="2.18986" height="40.6218" fill="#FF9429" />
            <rect x="125.784" y="132.666" width="2.18986" height="40.6218" fill="#FF9429" />
            <rect x="134.545" y="92.041" width="96.3537" height="40.6218" rx="1.57482" fill="#FFE033" stroke="#FF9429"
                stroke-width="2" />
            <path d="M134.545 122.452L213.38 92.041L134.545 93.3104L134.545 122.452Z" fill="#FFB41D" />
            <rect x="134.545" y="92.041" width="96.3537" height="40.6218" rx="1.57482" stroke="#FF9429"
                stroke-width="2" />
            <rect x="141.115" y="92.041" width="2.18986" height="40.6218" fill="#FF9429" />
            <rect x="149.878" y="92.041" width="2.18986" height="40.6218" fill="#FF9429" />
            <rect x="165.197" y="92.041" width="2.18986" height="40.6218" fill="#FF9429" />
            <rect x="182.721" y="92.041" width="2.18986" height="40.6218" fill="#FF9429" />
            <rect x="198.053" y="92.041" width="2.18986" height="40.6218" fill="#FF9429" />
            <rect x="213.385" y="92.041" width="2.18986" height="40.6218" fill="#FF9429" />
            <rect x="222.132" y="92.041" width="2.18986" height="40.6218" fill="#FF9429" />
            <rect x="226.52" y="92.041" width="2.18986" height="40.6218" fill="#FF9429" />
            <rect x="136.73" y="92.041" width="2.18986" height="40.6218" fill="#FF9429" />
            <rect x="125.787" y="53.959" width="96.3537" height="40.6218" rx="1.57482" fill="#FFE033" stroke="#FF9429"
                stroke-width="2" />
            <rect x="132.357" y="53.959" width="2.18986" height="40.6218" fill="#FF9429" />
            <rect x="141.118" y="53.959" width="2.18986" height="40.6218" fill="#FF9429" />
            <rect x="156.438" y="53.959" width="2.18986" height="40.6218" fill="#FF9429" />
            <rect x="173.962" y="53.959" width="2.18986" height="40.6218" fill="#FF9429" />
            <rect x="189.296" y="53.959" width="2.18986" height="40.6218" fill="#FF9429" />
            <rect x="204.628" y="53.959" width="2.18986" height="40.6218" fill="#FF9429" />
            <rect x="213.375" y="53.959" width="2.18986" height="40.6218" fill="#FF9429" />
            <rect x="217.762" y="53.959" width="2.18986" height="40.6218" fill="#FF9429" />
            <rect x="127.972" y="53.959" width="2.18986" height="40.6218" fill="#FF9429" />
            <path
                d="M99.8489 159.509C57.5994 136.242 31.6335 158.489 23.9318 172.52L23.9318 220.738L87.9662 213.084C102.489 201.604 147.38 197.012 166.524 195.481C185.668 193.95 186.328 182.47 183.688 172.52C181.047 162.571 160.583 157.213 136.157 161.805C116.812 165.442 105.79 161.805 99.8489 159.509Z"
                fill="#FFE3B1" />
            <path
                d="M23.9318 172.52C31.6335 158.489 57.5994 136.242 99.8489 159.509C105.79 161.805 116.812 165.442 136.157 161.805C160.583 157.213 181.047 162.571 183.688 172.52C186.328 182.47 185.668 193.95 166.524 195.481C147.38 197.012 102.489 201.604 87.9662 213.084"
                stroke="#FF9429" stroke-width="2" />
            <path
                d="M134.173 178.643L135.493 191.654M140.114 174.816C140.334 179.919 140.907 190.583 141.435 192.42M144.735 177.112L146.056 191.654"
                stroke="#FF9429" stroke-width="2" />
            <path
                d="M174.452 168.696C170.051 167.931 160.985 168.237 159.929 175.584C158.608 184.769 159.269 190.891 164.55 192.422"
                stroke="#FF9429" stroke-width="2" />
        </g>
    </g>
    <defs>
        <clipPath id="clip0_3419_2853">
            <rect width="320" height="320" fill="white" transform="translate(0 0.904297)" />
        </clipPath>
        <clipPath id="clip1_3419_2853">
            <rect width="320" height="320" fill="white" transform="translate(0 0.904297)" />
        </clipPath>
    </defs>
</svg>