<svg width="300" height="300" viewBox="0 0 300 300" fill="none" xmlns="http://www.w3.org/2000/svg">
<g clip-path="url(#clip0_3220_3921)">
<path fill-rule="evenodd" clip-rule="evenodd" d="M204.792 221.43L204.792 222.858L226.025 222.858L226.025 245.001L227.395 245.001L227.395 221.43L204.792 221.43Z" fill="#FFE1AD"/>
<path fill-rule="evenodd" clip-rule="evenodd" d="M204.106 192.859L204.106 195.716L224.654 195.716L224.654 217.145L227.393 217.145L227.393 192.859L204.106 192.859Z" fill="#FFE1AD"/>
<path fill-rule="evenodd" clip-rule="evenodd" d="M203.422 162.857L203.422 167.143L223.285 167.143L223.285 187.857L227.394 187.857L227.394 162.857L203.422 162.857Z" fill="#FFE1AD"/>
<path fill-rule="evenodd" clip-rule="evenodd" d="M202.739 131.43L202.739 137.144L221.917 137.144L221.917 157.143L227.396 157.143L227.396 131.43L202.739 131.43Z" fill="#FFE1AD"/>
<path fill-rule="evenodd" clip-rule="evenodd" d="M201.367 100.004L201.367 108.575L219.175 108.575L219.175 127.146L227.394 127.146L227.394 100.004L201.367 100.004Z" fill="#FFE1AD"/>
<path fill-rule="evenodd" clip-rule="evenodd" d="M199.999 67.1523L199.999 78.5807L216.437 78.5807L216.437 95.7231L227.396 95.7231L227.396 67.1523L199.999 67.1523Z" fill="#FFE1AD"/>
<path fill-rule="evenodd" clip-rule="evenodd" d="M227.395 62.8652L216.436 62.8652L216.436 45.7228L199.998 45.7228L199.998 34.2945L227.395 34.2945L227.395 62.8652Z" fill="#FFE1AD"/>
<path fill-rule="evenodd" clip-rule="evenodd" d="M241.774 248.572L241.774 250.001L263.006 250.001L263.006 272.143L264.376 272.143L264.376 248.572L241.774 248.572Z" fill="#FFE1AD"/>
<path fill-rule="evenodd" clip-rule="evenodd" d="M241.094 221.43L241.094 224.287L261.641 224.287L261.641 245.715L264.381 245.715L264.381 221.43L241.094 221.43Z" fill="#FFE1AD"/>
<path fill-rule="evenodd" clip-rule="evenodd" d="M240.412 192.859L240.412 197.145L260.274 197.145L260.274 217.859L264.384 217.859L264.384 192.859L240.412 192.859Z" fill="#FFE1AD"/>
<path fill-rule="evenodd" clip-rule="evenodd" d="M239.726 162.854L239.726 168.568L258.903 168.568L258.903 188.567L264.382 188.567L264.382 162.854L239.726 162.854Z" fill="#FFE1AD"/>
<path fill-rule="evenodd" clip-rule="evenodd" d="M238.353 131.432L238.353 140.003L256.161 140.003L256.161 158.574L264.38 158.574L264.38 131.432L238.353 131.432Z" fill="#FFE1AD"/>
<path fill-rule="evenodd" clip-rule="evenodd" d="M237.669 100.004L237.669 110.004L254.792 110.004L254.792 127.86L264.381 127.86L264.381 100.004L237.669 100.004Z" fill="#FFE1AD"/>
<path fill-rule="evenodd" clip-rule="evenodd" d="M236.984 67.1465L236.984 78.5748L253.422 78.5748L253.422 95.7173L264.381 95.7173L264.381 67.1465L236.984 67.1465Z" fill="#FFE1AD"/>
<path fill-rule="evenodd" clip-rule="evenodd" d="M235.615 34.2871L235.615 48.5725L250.683 48.5725L250.683 64.2864L264.381 64.2864L264.381 34.2871L235.615 34.2871Z" fill="#FFE1AD"/>
<path fill-rule="evenodd" clip-rule="evenodd" d="M198.628 0.0078125L198.628 14.2932L213.696 14.2932L213.696 30.0071L227.394 30.0071L227.394 0.00780999L198.628 0.0078125Z" fill="#FFE1AD"/>
<path fill-rule="evenodd" clip-rule="evenodd" d="M264.379 30.0039L250.681 30.0039L250.681 14.29L235.612 14.29L235.612 0.00459923L264.379 0.00459671L264.379 30.0039Z" fill="#FFE1AD"/>
<path fill-rule="evenodd" clip-rule="evenodd" d="M277.395 276.43L277.395 277.858L298.627 277.858L298.627 300.001L299.997 300.001L299.997 276.43L277.395 276.43Z" fill="#FFE1AD"/>
<path fill-rule="evenodd" clip-rule="evenodd" d="M276.711 248.576L276.711 251.433L297.258 251.433L297.258 272.861L299.998 272.861L299.998 248.576L276.711 248.576Z" fill="#FFE1AD"/>
<path fill-rule="evenodd" clip-rule="evenodd" d="M276.022 221.43L276.022 225.715L295.885 225.715L295.885 246.429L299.994 246.429L299.994 221.43L276.022 221.43Z" fill="#FFE1AD"/>
<path fill-rule="evenodd" clip-rule="evenodd" d="M275.344 192.859L275.344 198.574L294.521 198.574L294.521 218.573L300.001 218.573L300.001 192.859L275.344 192.859Z" fill="#FFE1AD"/>
<path fill-rule="evenodd" clip-rule="evenodd" d="M273.969 162.857L273.969 171.429L291.777 171.429L291.777 190L299.996 190L299.996 162.857L273.969 162.857Z" fill="#FFE1AD"/>
<path fill-rule="evenodd" clip-rule="evenodd" d="M273.285 131.43L273.285 141.429L290.408 141.429L290.408 159.286L299.997 159.286L299.997 131.43L273.285 131.43Z" fill="#FFE1AD"/>
<path fill-rule="evenodd" clip-rule="evenodd" d="M272.601 100.004L272.601 111.432L289.039 111.432L289.039 128.575L299.998 128.575L299.998 100.004L272.601 100.004Z" fill="#FFE1AD"/>
<path fill-rule="evenodd" clip-rule="evenodd" d="M271.232 67.1484L271.232 81.4338L286.3 81.4338L286.3 97.1477L299.998 97.1477L299.998 67.1484L271.232 67.1484Z" fill="#FFE1AD"/>
<path fill-rule="evenodd" clip-rule="evenodd" d="M299.997 64.998L284.929 64.998L284.929 49.9984L270.546 49.9984L270.546 34.2845L299.997 34.2845L299.997 64.998Z" fill="#FFE1AD"/>
<path fill-rule="evenodd" clip-rule="evenodd" d="M270.548 0L270.548 15.7139L284.931 15.7139L284.931 30.7136L299.999 30.7136L299.999 -2.57471e-06L270.548 0Z" fill="#FFE1AD"/>
<path fill-rule="evenodd" clip-rule="evenodd" d="M75.3467 99.2871L73.9769 99.2871L73.9769 77.1448L52.7445 77.1448L52.7445 75.7162L75.3467 75.7162L75.3467 99.2871Z" fill="#FFE1AD"/>
<path fill-rule="evenodd" clip-rule="evenodd" d="M102.738 100.004L99.9985 100.004L99.9985 78.5758L79.4511 78.5758L79.4511 75.7188L102.738 75.7188L102.738 100.004Z" fill="#FFE1AD"/>
<path fill-rule="evenodd" clip-rule="evenodd" d="M131.508 100.711L127.398 100.711L127.398 79.9971L107.536 79.9971L107.536 75.7115L131.508 75.7115L131.508 100.711Z" fill="#FFE1AD"/>
<path fill-rule="evenodd" clip-rule="evenodd" d="M161.641 101.432L156.161 101.432L156.161 81.4321L136.984 81.4321L136.984 75.718L161.641 75.7179L161.641 101.432Z" fill="#FFE1AD"/>
<path fill-rule="evenodd" clip-rule="evenodd" d="M191.78 102.857L183.561 102.857L183.561 84.2864L165.753 84.2864L165.753 75.7152L191.78 75.7152L191.78 102.857Z" fill="#FFE1AD"/>
<path fill-rule="evenodd" clip-rule="evenodd" d="M49.3131 60.7188L47.9433 60.7188L47.9433 38.5764L26.711 38.5764L26.711 37.1479L49.3131 37.1479L49.3131 60.7188Z" fill="#FFE1AD"/>
<path fill-rule="evenodd" clip-rule="evenodd" d="M75.3445 61.4336L72.6048 61.4336L72.6048 40.0055L52.0574 40.0055L52.0574 37.1484L75.3445 37.1484L75.3445 61.4336Z" fill="#FFE1AD"/>
<path fill-rule="evenodd" clip-rule="evenodd" d="M102.738 62.1445L98.6287 62.1445L98.6287 41.4307L78.7662 41.4307L78.7662 37.1451L102.738 37.1451L102.738 62.1445Z" fill="#FFE1AD"/>
<path fill-rule="evenodd" clip-rule="evenodd" d="M131.508 62.8594L126.028 62.8594L126.028 42.8598L106.851 42.8598L106.851 37.1457L131.508 37.1457L131.508 62.8594Z" fill="#FFE1AD"/>
<path fill-rule="evenodd" clip-rule="evenodd" d="M161.639 64.2832L153.42 64.2832L153.42 45.7122L135.613 45.7122L135.613 37.141L161.639 37.141L161.639 64.2832Z" fill="#FFE1AD"/>
<path fill-rule="evenodd" clip-rule="evenodd" d="M191.776 64.998L182.187 64.998L182.187 47.1413L165.064 47.1413L165.064 37.1416L191.776 37.1415L191.776 64.998Z" fill="#FFE1AD"/>
<path fill-rule="evenodd" clip-rule="evenodd" d="M22.6012 23.5723L21.2314 23.5723L21.2314 1.42992L-0.000946073 1.42992L-0.000946198 0.0013848L22.6012 0.00138283L22.6012 23.5723Z" fill="#FFE1AD"/>
<path fill-rule="evenodd" clip-rule="evenodd" d="M49.3154 24.2871L46.5758 24.2871L46.5758 2.85903L26.0284 2.85904L26.0284 0.00195707L49.3154 0.00195503L49.3154 24.2871Z" fill="#FFE1AD"/>
<path fill-rule="evenodd" clip-rule="evenodd" d="M75.3445 25.0059L71.235 25.0059L71.235 4.29205L51.3725 4.29205L51.3725 0.00643749L75.3445 0.00643539L75.3445 25.0059Z" fill="#FFE1AD"/>
<path fill-rule="evenodd" clip-rule="evenodd" d="M102.737 25.7129L97.2578 25.7129L97.2578 5.71335L78.0802 5.71335L78.0802 -0.000798931L102.737 -0.000801086L102.737 25.7129Z" fill="#FFE1AD"/>
<path fill-rule="evenodd" clip-rule="evenodd" d="M131.508 27.1465L123.289 27.1465L123.289 8.57549L105.481 8.57549L105.481 0.00425948L131.508 0.0042572L131.508 27.1465Z" fill="#FFE1AD"/>
<path fill-rule="evenodd" clip-rule="evenodd" d="M161.644 27.8613L152.055 27.8613L152.055 10.0046L134.932 10.0046L134.932 0.00483174L161.644 0.00482941L161.644 27.8613Z" fill="#FFE1AD"/>
<path fill-rule="evenodd" clip-rule="evenodd" d="M191.776 28.5703L180.817 28.5703L180.817 11.4278L164.379 11.4279L164.379 -0.000455369L191.776 -0.000457764L191.776 28.5703Z" fill="#FFE1AD"/>
</g>
<defs>
<clipPath id="clip0_3220_3921">
<rect width="300.002" height="300" fill="white" transform="matrix(1 0 0 -1 -0.00158691 300)"/>
</clipPath>
</defs>
</svg>
