<svg viewBox="0 0 670 321" fill="none" xmlns="http://www.w3.org/2000/svg">
    <g clip-path="url(#clip0_3419_2747)">
        <rect width="320" height="670" rx="12" transform="matrix(4.37114e-08 1 1 -4.37114e-08 -1.52588e-05 0.4375)"
            fill="#FFDB8D" />
        <mask id="mask0_3419_2747" style="mask-type:alpha" maskUnits="userSpaceOnUse" x="0" y="0" width="670"
            height="320">
            <mask id="path-2-inside-1_3419_2747" fill="white">
                <path
                    d="M12 2.82376e-05C5.37262 2.85273e-05 6.10352e-05 5.37261 6.10352e-05 12V308C6.10352e-05 314.627 5.37262 320 12.0001 320L658 320C664.627 320 670 314.627 670 308L670 12C670 5.37259 664.627 -2.89694e-07 658 0L12 2.82376e-05Z" />
            </mask>
            <path
                d="M12 2.82376e-05C5.37262 2.85273e-05 6.10352e-05 5.37261 6.10352e-05 12V308C6.10352e-05 314.627 5.37262 320 12.0001 320L658 320C664.627 320 670 314.627 670 308L670 12C670 5.37259 664.627 -2.89694e-07 658 0L12 2.82376e-05Z"
                fill="#FFDB8D" />
            <path
                d="M658 0V-1V0ZM658 320V321V320ZM670 308H671H670ZM6.10352e-05 308H-0.999939H6.10352e-05ZM12.0001 320V319V320ZM6.10352e-05 12H1.00006H6.10352e-05ZM12 2.82376e-05V1.00003V2.82376e-05ZM1.00006 12V308H-0.999939V12H1.00006ZM12.0001 319L658 319V321L12.0001 321V319ZM669 308L669 12H671L671 308H669ZM658 1L12 1.00003V-0.999972L658 -1V1ZM669 12C669 5.92487 664.075 1 658 1V-1C665.18 -1 671 4.82031 671 12H669ZM658 319C664.075 319 669 314.075 669 308H671C671 315.18 665.18 321 658 321V319ZM1.00006 308C1.00006 314.075 5.92493 319 12.0001 319V321C4.82037 321 -0.999939 315.18 -0.999939 308H1.00006ZM-0.999939 12C-0.999939 4.82033 4.82031 -0.999971 12 -0.999972V1.00003C5.92493 1.00003 1.00006 5.9249 1.00006 12H-0.999939Z"
                fill="#FFB433" mask="url(#path-2-inside-1_3419_2747)" />
        </mask>
        <g mask="url(#mask0_3419_2747)">
            <g opacity="0.52">
                <path
                    d="M438.845 74.9985C400.497 48.5152 368.867 51.2874 357.846 55.984C376.923 -10.4864 501.2 -3.235 562.551 25.2552C611.632 48.0474 622.651 76.3608 622.026 87.6685C587.307 70.4491 550.195 78.1373 535.98 84.1338C491.239 63.071 452.581 69.2674 438.845 74.9985Z"
                    fill="#EA980E" />
                <path
                    d="M433.14 40.1042C392.814 12.086 365.877 38.5343 357.449 55.2607C358.426 39.2162 392.172 -80.4823 514.197 -56.9474C613.838 -37.7294 627.657 51.1924 621.628 86.9464C606.926 45.4843 569.709 48.0634 552.938 54.5357C510.555 -15.185 455.413 15.8644 433.14 40.1042Z"
                    fill="#FFA810" />
                <path
                    d="M358.868 55.4166L452.804 213.839M432.369 38.574L462.859 216.724M552.812 54.9704L472.355 219.45M619.14 86.4008L474.992 220.793"
                    stroke="#FFB22F" stroke-width="3" />
                <path
                    d="M435.946 193.643C455.459 187.065 476.998 191.396 492.452 205.005C507.905 218.614 514.924 239.434 510.865 259.621C506.805 279.808 492.284 296.297 472.772 302.875C453.26 309.453 431.72 305.122 416.267 291.513C400.813 277.904 393.794 257.084 397.854 236.897C401.913 216.71 416.434 200.221 435.946 193.643Z"
                    fill="#FFDB8D" stroke="#FFB22F" stroke-width="2" stroke-linecap="round" />
                <path
                    d="M437.553 199.496C454.923 193.738 474.492 197.673 488.287 209.697C502.048 221.692 508.521 240.319 504.922 258.217C501.324 276.115 488.154 290.792 470.825 296.535C453.455 302.293 433.887 298.358 420.092 286.334C406.33 274.339 399.857 255.712 403.456 237.814C407.055 219.916 420.225 205.239 437.553 199.496Z"
                    fill="#FFDB8D" stroke="#FFB22F" stroke-width="2" stroke-linecap="round" stroke-dasharray="4 4" />
                <path
                    d="M466.103 249.442C466.153 249.114 466.212 248.78 466.281 248.441C466.408 247.846 466.558 247.239 466.729 246.622C467.003 245.647 467.347 244.719 467.761 243.835C467.983 243.786 468.4 243.78 469.014 243.816C469.628 243.846 470.357 243.914 471.2 244.02C472.05 244.128 472.99 244.262 474.018 244.422C475.047 244.582 476.093 244.753 477.156 244.935C478.227 245.119 479.277 245.307 480.307 245.498C480.952 245.612 481.566 245.727 482.147 245.844C482.494 245.914 482.83 245.982 483.155 246.047C484.021 246.237 484.756 246.408 485.362 246.562C485.975 246.716 486.401 246.841 486.641 246.937C486.6 247.298 486.533 247.712 486.439 248.18C486.346 248.641 486.237 249.103 486.113 249.565C485.99 250.019 485.861 250.449 485.724 250.854C485.588 251.258 485.469 251.596 485.367 251.866C484.508 251.803 483.667 251.728 482.843 251.641C482.029 251.548 481.2 251.433 480.356 251.294C480.203 251.664 480.014 252.212 479.79 252.937C479.567 253.654 479.324 254.473 479.06 255.394C478.804 256.317 478.543 257.302 478.277 258.348C478.012 259.395 477.756 260.432 477.511 261.459C477.266 262.478 477.048 263.448 476.855 264.367C476.755 264.826 476.66 265.259 476.57 265.665C476.488 266.073 476.42 266.452 476.365 266.803C475.146 266.77 473.93 266.725 472.715 266.67C471.913 266.634 471.124 266.534 470.348 266.37C469.955 266.291 469.565 266.197 469.179 266.088C469.36 264.483 469.547 263.024 469.741 261.711C469.941 260.4 470.156 259.139 470.383 257.928C470.497 257.322 470.615 256.717 470.737 256.113C470.858 255.509 470.985 254.898 471.117 254.28C471.378 253.06 471.659 251.742 471.959 250.325C471.617 250.232 471.253 250.147 470.867 250.07C470.777 250.052 470.679 250.032 470.573 250.011C470.073 249.918 469.563 249.835 469.044 249.762C468.526 249.682 468.011 249.621 467.501 249.582C466.998 249.543 466.532 249.497 466.103 249.442Z"
                    fill="#FFBF51" />
                <path
                    d="M442.471 242.95C442.682 242.057 442.906 241.234 443.144 240.481C443.391 239.721 443.623 239.002 443.838 238.322C444.596 238.38 445.456 238.459 446.418 238.558C447.382 238.65 448.403 238.769 449.482 238.915C450.566 239.07 451.685 239.248 452.839 239.449C453.575 239.581 454.306 239.716 455.032 239.854C455.447 239.938 455.858 240.024 456.264 240.114C457.394 240.357 458.488 240.624 459.545 240.915C460.611 241.2 461.592 241.495 462.489 241.801C462.619 242.055 462.738 242.421 462.846 242.899C462.964 243.37 463.061 243.884 463.137 244.442C463.223 244.993 463.278 245.558 463.303 246.137C463.337 246.71 463.334 247.212 463.295 247.644C463.069 248.062 462.776 248.463 462.416 248.846C462.058 249.222 461.666 249.567 461.242 249.883C460.817 250.198 460.386 250.465 459.949 250.684C459.512 250.902 459.098 251.066 458.707 251.176C459.634 251.685 460.466 252.351 461.204 253.175C461.951 253.993 462.495 254.998 462.837 256.19C462.646 256.828 462.396 257.524 462.087 258.279C461.787 259.028 461.46 259.74 461.104 260.415C460.756 261.091 460.391 261.693 460.01 262.222C459.629 262.75 459.259 263.104 458.901 263.283C458.47 263.275 457.907 263.26 457.213 263.238C456.524 263.226 455.777 263.189 454.972 263.13C454.165 263.077 453.334 263.012 452.477 262.934C451.619 262.864 450.825 262.771 450.094 262.655C448.704 262.455 447.367 262.225 446.084 261.967C445.759 261.902 445.443 261.834 445.135 261.764C443.561 261.424 442.145 260.983 440.887 260.439C440.939 259.711 441.087 258.703 441.33 257.417C441.426 256.902 441.53 256.365 441.642 255.806C441.811 254.968 441.996 254.086 442.198 253.16C442.533 251.609 442.898 249.989 443.293 248.301C443.687 246.612 444.052 245.012 444.388 243.5C444.285 243.464 444.15 243.433 443.982 243.407C443.822 243.383 443.648 243.351 443.459 243.314C443.278 243.277 443.095 243.229 442.911 243.168C442.726 243.107 442.58 243.035 442.471 242.95ZM449.319 255.841C449.188 256.726 449.109 257.472 449.081 258.08C449.298 258.17 449.536 258.242 449.792 258.293C449.86 258.307 449.924 258.32 449.985 258.332C450.32 258.384 450.657 258.428 450.995 258.464C451.334 258.501 451.668 258.517 451.999 258.513C452.33 258.509 452.621 258.489 452.872 258.453C453.33 258.011 453.688 257.419 453.947 256.677C454.141 256.104 454.307 255.473 454.446 254.786C454.487 254.582 454.525 254.374 454.56 254.161C454.413 253.99 454.16 253.821 453.801 253.655C453.443 253.48 453.041 253.333 452.594 253.211C452.4 253.157 452.206 253.11 452.009 253.07L451.255 252.954C450.794 252.901 450.398 252.896 450.067 252.939C449.787 253.747 449.572 254.505 449.422 255.213C449.387 255.426 449.352 255.636 449.319 255.841ZM451.264 246.285C451.171 246.668 451.094 247.013 451.032 247.323C450.97 247.633 450.925 247.895 450.897 248.109C451.077 248.192 451.358 248.28 451.74 248.373C451.838 248.393 451.936 248.412 452.034 248.432C452.329 248.491 452.634 248.537 452.95 248.569C453.371 248.622 453.775 248.645 454.162 248.636C454.556 248.629 454.832 248.586 454.989 248.508C455.106 248.201 455.2 247.87 455.271 247.515C455.279 247.478 455.287 247.436 455.296 247.391C455.371 246.982 455.408 246.581 455.408 246.188C455.409 245.795 455.359 245.435 455.26 245.109C455.168 244.784 455.023 244.511 454.824 244.291C454.585 244.188 454.33 244.109 454.058 244.054C453.846 244.012 453.624 243.983 453.392 243.967C452.85 243.929 452.338 243.952 451.858 244.036C451.771 244.388 451.673 244.757 451.564 245.144C451.457 245.523 451.357 245.903 451.264 246.285Z"
                    fill="#FFBF51" />
                <path
                    d="M421.2 246.232C421.256 245.874 421.32 245.518 421.391 245.163C421.675 243.751 422.081 242.359 422.608 240.988C423.265 239.282 424.1 237.71 425.112 236.271C426.309 236.064 427.541 235.934 428.808 235.883C430.076 235.831 431.343 235.839 432.611 235.905C433.887 235.965 435.15 236.09 436.401 236.278C437.118 236.383 437.821 236.505 438.508 236.643C439.021 236.746 439.529 236.86 440.03 236.984C440.116 237.771 440.09 238.619 439.955 239.527C439.858 240.206 439.748 240.852 439.625 241.464C439.584 241.668 439.54 241.867 439.493 242.062C438.138 242.001 436.784 241.894 435.432 241.74C434.088 241.588 432.732 241.512 431.365 241.512C431.011 241.904 430.744 242.353 430.564 242.859C430.384 243.365 430.232 243.885 430.109 244.418C431.473 244.982 432.837 245.524 434.202 246.042C435.575 246.562 436.955 247.099 438.345 247.653C438.489 248.381 438.524 249.146 438.449 249.948C438.408 250.388 438.343 250.827 438.255 251.265C438.183 251.62 438.097 251.971 437.995 252.32C437.768 253.099 437.469 253.845 437.098 254.556C436.729 255.259 436.319 255.888 435.87 256.442C434.645 256.793 433.394 257.052 432.119 257.22C430.844 257.388 429.562 257.491 428.274 257.531C426.993 257.572 425.71 257.561 424.426 257.5C423.141 257.445 421.886 257.378 420.661 257.296C420.546 257.163 420.477 256.839 420.455 256.324C420.441 255.81 420.456 255.264 420.502 254.684C420.55 254.096 420.604 253.533 420.665 252.996C420.703 252.65 420.747 252.372 420.797 252.162C420.822 252.041 420.846 251.94 420.87 251.858C421.541 251.962 422.275 252.043 423.072 252.101C423.871 252.152 424.655 252.183 425.422 252.196C426.198 252.203 426.913 252.186 427.566 252.144C428.22 252.095 428.726 252.02 429.084 251.919C429.207 251.7 429.319 251.412 429.423 251.056C429.474 250.878 429.517 250.702 429.552 250.528C429.587 250.355 429.613 250.187 429.63 250.025C429.468 249.851 429.182 249.672 428.772 249.487C428.362 249.295 427.887 249.101 427.345 248.906C426.804 248.703 426.225 248.496 425.607 248.285C424.997 248.076 424.408 247.863 423.838 247.647C423.271 247.423 422.75 247.196 422.278 246.968C421.814 246.733 421.455 246.488 421.2 246.232Z"
                    fill="#FFBF51" />
            </g>
            <path
                d="M962.071 142.63C965.089 107.851 956.256 101.286 938.88 102.383L937.232 102.826C938.432 100.715 939.632 98.605 940.831 96.4946C943.534 86.829 944.14 75.9392 938.154 66.8216L905.84 5.78526C898.51 -8.33415 882.188 -16.4605 867.357 -12.4729L865.709 -12.0298L754.838 35.6581C743.751 40.4269 737.305 49.3114 736.699 60.2012C735.644 69.4238 735.79 76.5359 736.383 85.3154L720.232 44.9626C715.301 26.6225 696.435 15.6046 678.308 20.4784L630.519 33.3275C617.336 36.8721 606.842 50.4203 605.485 65.0878C604.879 75.9777 602.624 87.3106 602.77 94.4228C599.329 88.1967 594.24 82.4137 590.35 74.5204C581.372 60.8441 565.499 54.385 550.668 58.3726C549.02 58.8157 547.372 59.2588 547.372 59.2588L502.575 76.6667C486.544 82.7647 476.947 99.6475 481.879 117.988L487.851 146.774L473.639 120.203C466.309 106.084 449.987 97.9572 435.156 101.945L433.508 102.388L322.637 150.076C311.55 154.845 305.104 163.729 304.498 174.619C303.588 190.954 304.327 206.845 304.618 221.07L269.191 109.024C264.26 90.6837 245.842 81.3331 227.715 86.2069L165.095 103.044C151.911 106.588 140.969 118.469 139.612 133.137C136.607 148.247 134.946 168.36 131.941 183.47C125.507 172.685 116.529 159.009 110.543 149.891C101.565 136.215 87.788 130.98 72.9568 134.968C71.3089 135.411 69.661 135.854 69.661 135.854L8.8335 159.36C-7.19733 165.458 -15.1465 181.898 -12.3116 199.014L-5.58734 224.023C32.0873 390.459 80.0479 553.584 122.16 718.868C124.401 727.204 129.939 734.654 138.323 739.551C146.708 744.448 155.844 745.567 164.084 743.352L165.732 742.909L222.512 724.067C238.543 717.969 248.14 701.086 243.209 682.746L236.933 659.404C237.684 655.626 236.788 652.292 235.891 648.957C240.98 654.74 247.717 660.08 254.454 665.42C264.183 675.318 275.561 684.774 285.291 694.673C294.572 702.904 305.804 705.248 317.34 702.146C318.988 701.703 320.635 701.26 322.283 700.817L375.623 675.749C385.062 671.423 393.156 662.095 395.41 650.763C399.167 631.874 393.339 610.2 386.905 599.415C385.561 594.413 382.568 589.854 377.927 585.739C361.012 568.833 332.272 540.804 311.468 516.005C318.23 482.006 328.143 440.009 335.498 414.79C335.498 414.79 335.05 413.122 336.25 411.012C338.043 417.681 343.132 423.464 349.42 427.137L398.138 601.758C398.586 603.426 399.483 606.76 399.931 608.427L407.103 635.104C412.034 653.444 430.9 664.462 449.027 659.588C449.027 659.588 450.675 659.145 452.323 658.702L489.328 645.177C505.359 639.079 514.956 622.196 510.474 605.523L504.949 578.404C504.501 576.736 505.252 572.959 504.804 571.291L467.609 413.237C472.856 406.463 476.006 398.465 477.061 389.242L476.467 380.463C476.916 382.13 477.364 383.798 477.812 385.465C489.758 443.039 521.573 581.085 528.746 607.761C533.677 626.102 552.094 635.452 568.573 631.021L570.221 630.578L604.379 619.607C619.21 615.619 628.807 598.736 626.421 583.287C625.379 572.841 622.241 561.17 620.751 549.056L654.277 588.312C662.359 598.654 675.688 602.222 687.223 599.12C688.871 598.677 688.871 598.677 690.519 598.234L764.53 571.184C780.561 565.086 788.51 548.646 784.027 531.973L778.951 506.521C778.502 504.853 778.502 504.853 778.054 503.186C784.039 512.304 792.424 517.2 801.56 518.32C796.01 530.539 812.203 565.517 812.203 565.517C812.203 565.517 832.268 629.847 864.553 621.166L866.201 620.723C872.793 618.951 880.584 615.068 887.176 613.296C901.559 607.641 914.742 604.096 928.677 596.774C943.06 591.119 957.443 585.464 969.729 578.585C983.664 571.263 995.951 564.384 1004.94 558.391C1012.28 552.841 1019.18 545.624 1022.33 537.625C1025.48 529.627 1028.63 521.629 1031.33 511.963C1032.39 502.74 1033.44 493.518 1034.5 484.295C1035.55 475.073 1034.51 464.626 1033.92 455.846C1034.22 450.402 1031.98 442.065 1030.49 429.951C1028.69 423.282 1027.35 418.28 1027.2 411.168C1026.31 407.833 1024.96 402.832 1024.82 395.719C1021.68 384.048 1019.74 370.267 1015.71 355.261C1011.67 340.256 1007.64 325.25 1004.8 308.135C1000.32 291.462 996.285 276.456 992.699 263.118C986.872 241.443 973.253 223.651 956.035 212.19C958.434 207.97 958.737 202.525 960.688 196.637L962.071 142.63ZM894.367 377.159L867.104 380.914L864.718 365.465L891.533 360.043L894.367 377.159Z"
                fill="#FFCA70" />
            <path
                d="M227.613 105.15L165.442 121.234C158.898 122.927 153.74 129.691 153.952 136.876C153.665 155.05 150.068 186.751 146.509 205.771C145.797 209.575 144.623 211.689 143.449 213.803C143.449 213.803 141.813 214.226 140.177 214.649C138.541 215.073 138.541 215.073 136.905 215.496C134.807 214.229 132.708 212.962 132.246 211.271C121.543 197.75 105.969 172.82 96.4396 157.185C91.319 151.27 83.3884 147.892 76.844 149.585L75.208 150.008L14.8853 172.854C7.16704 176.661 2.47116 185.116 4.7817 193.568L49.0693 381.208C51.842 391.351 60.2347 396.42 70.0512 393.88L96.2285 387.108C104.409 384.991 109.105 376.537 108.43 367.661L94.1798 289.899C94.1798 289.899 92.3313 283.137 95.6035 282.29C97.2396 281.867 99.3378 283.134 101.898 286.092C116.086 305.951 143.075 340.598 155.877 355.386C160.997 361.302 166.83 363.413 173.374 361.72L178.282 360.45C184.827 358.757 190.447 353.683 190.234 346.498C193.332 325.787 198.602 280.984 201.949 254.778C202.661 250.974 203.835 248.86 205.471 248.437C207.107 248.014 209.205 249.281 211.765 252.238L214.076 260.691L238.855 332.109C241.165 340.562 251.194 345.207 259.374 343.091C259.374 343.091 259.374 343.091 261.011 342.667L299.814 330.818C307.995 328.702 313.865 318.134 309.918 310.105L248.595 117.821C245.822 107.679 237.43 102.61 227.613 105.15Z"
                fill="#FFDB8D" />
            <path
                d="M502.526 237.212L407.701 261.731C404.431 262.576 399.065 262.156 396.045 257.514C395.583 255.825 393.024 252.871 392.101 249.495C396.544 246.538 450.746 227.099 480.885 215.691C490.233 211.466 494.002 199.644 489.597 189.937L456.873 127.895C453.391 121.564 445.467 118.19 438.927 119.881C438.927 119.881 438.927 119.881 437.292 120.303L325.831 167.202C320.926 168.47 318.579 172.693 318.33 178.181C316.083 227.572 321.338 265.984 344.077 310.722L344.538 312.411C347.559 317.053 351.752 319.585 357.118 320.005L493.49 293.781C493.49 293.781 493.491 293.781 495.125 293.359C501.665 291.668 506.819 284.912 506.607 277.735L508.105 244.808C509.989 238.897 505.796 236.366 502.526 237.212ZM377.823 184.491C377.362 182.802 378.535 180.691 380.17 180.268L408.675 169.282C411.944 168.437 416.138 170.968 417.061 174.345L422.852 189.117C423.776 192.494 423.064 196.294 420.256 198.828L388.943 212.348C387.308 212.77 385.212 211.505 384.75 209.816L377.823 184.491Z"
                fill="#FFDB8D" />
            <path
                d="M681.327 36.911L633.888 49.1822C627.345 50.8748 622.187 57.6372 620.764 65.2433C619.553 80.0323 617.842 105.807 614.995 121.019C614.283 124.822 613.11 126.936 613.572 128.625C611.936 129.049 612.398 130.739 610.762 131.162L609.126 131.585C606.566 128.628 604.93 129.051 602.833 127.784C594.691 117.224 582.141 96.9476 575.173 84.2743C571.227 76.2477 563.298 72.8704 555.119 74.9862L553.483 75.4093L509.066 92.3272C501.349 96.1329 496.654 104.585 498.964 113.035L534.004 266.823C536.776 276.962 537.451 285.835 547.265 283.296L581.156 272.72C589.335 270.605 585.851 264.268 584.714 253.705L572.989 191.598C572.989 191.598 571.14 184.838 574.412 183.992C576.048 183.568 578.146 184.835 578.608 186.525C590.233 203.422 611.637 230.456 622.338 243.973C627.458 249.886 633.289 251.997 639.833 250.304C646.376 248.612 651.995 243.539 651.783 236.356C653.706 217.764 658.014 182.27 660.648 159.875C661.822 157.762 661.36 156.072 664.632 155.226C666.268 154.803 668.365 156.069 669.29 159.449L671.138 166.209L690.118 222.821C692.891 232.961 695.913 237.607 704.092 235.492L705.727 235.068L744.987 224.913C754.802 222.374 752.492 213.924 749.72 203.785L702.305 49.5791C699.995 41.1293 689.506 34.7953 681.327 36.911Z"
                fill="#FFDB8D" />
            <path
                d="M447.736 295.373C444.461 296.221 442.111 300.455 441.861 305.957C442.324 307.65 443.249 311.037 443.711 312.73C439.012 321.197 432.212 328.396 425.663 330.091C424.025 330.515 424.025 330.515 422.388 330.939C410.002 330.52 402.315 321.634 394.416 305.552C395.59 303.435 397.94 299.201 397.015 295.815C395.166 289.043 392.141 284.388 387.229 285.659C383.954 286.507 381.604 290.741 381.817 297.937C382.742 301.323 384.129 306.402 386.229 307.671C384.554 320.794 379.142 333.072 367.68 336.039C367.68 336.039 367.68 336.039 366.043 336.463C359.493 338.158 348.994 331.813 341.308 322.926C341.308 322.926 342.483 320.81 342.02 319.116C341.558 317.423 341.558 317.423 341.095 315.73C339.708 310.651 336.683 305.996 333.408 306.844C330.134 307.692 327.784 311.926 329.171 317.005C330.559 322.084 333.121 325.046 336.858 325.891L346.319 366.947C348.632 375.413 355.856 382.606 364.043 380.486L437.224 372.417L438.861 371.993C445.411 370.297 450.573 363.523 449.898 354.634L449.086 313.151C452.36 312.303 454.71 308.069 453.323 302.99C455.673 298.756 451.473 296.218 447.736 295.373Z"
                fill="#FFDB8D" />
            <path
                d="M692.452 277.08L651.607 287.637C643.438 289.749 640.383 297.762 641.056 306.617C644.959 327.279 655.958 393.061 658.227 414.145C658.689 415.832 657.978 419.627 656.344 420.049L654.71 420.472C652.615 419.207 652.615 419.207 650.52 417.943C642.389 407.403 597.579 339.526 579.932 313.387C576.453 307.062 568.995 305.378 562.459 307.067L496.396 327.754C488.227 329.866 483.538 338.301 485.845 346.735C497.131 394.383 530.739 542.809 538.122 569.796C540.429 578.229 549.271 584.973 557.44 582.861L591.289 572.307C597.824 570.618 602.514 562.182 602.302 555.013C597.725 525.496 588.784 473.63 588.784 473.63C588.784 473.63 589.495 469.834 591.129 469.412C592.762 468.989 595.319 471.94 595.319 471.94L659.696 547.402C664.348 551.617 670.173 553.724 675.074 552.457L676.708 552.034L750.017 525.863C758.186 523.751 760.78 514.051 758.473 505.618L708.503 290.99C709.002 280.026 700.621 274.969 692.452 277.08Z"
                fill="#FFDB8D" />
        </g>
        <path
            d="M74 113.725C78.963 90.8647 102.966 44.8739 159.274 43.791L159.274 111.92C143.753 96.3993 124.533 105.453 116.863 111.92C98.0933 98.5649 80.467 107.559 74 113.725Z"
            fill="#FFE3B1" />
        <path
            d="M74 113.725C78.963 90.8647 102.966 44.8739 159.274 43.791M74 113.725C80.467 107.559 98.0933 98.5649 116.863 111.92M74 113.725L127.24 173.278M159.274 43.791C128.593 48.1224 118.216 91.0151 116.863 111.92M159.274 43.791L159.274 111.92M116.863 111.92C124.533 105.453 143.753 96.3993 159.274 111.92M116.863 111.92L139.873 167.412M159.274 111.92L159.274 159.291"
            stroke="#FF9000" stroke-width="2" stroke-linecap="round" />
        <path
            d="M245 113.725C240.037 90.8647 216.034 44.8739 159.726 43.791L159.726 111.92C175.247 96.3993 194.467 105.453 202.137 111.92C220.907 98.5649 238.533 107.559 245 113.725Z"
            fill="#FFE3B1" />
        <path
            d="M245 113.725C240.037 90.8647 216.034 44.8739 159.726 43.791M245 113.725C238.533 107.559 220.907 98.5649 202.137 111.92M245 113.725L191.76 173.791M159.726 43.791C190.407 48.1224 200.784 91.0151 202.137 111.92M159.726 43.791L159.726 111.92M202.137 111.92C194.467 105.453 175.247 96.3993 159.726 111.92M202.137 111.92L179.127 167.926M159.726 111.92L159.726 159.804"
            stroke="#FF9000" stroke-width="2" stroke-linecap="round" />
        <path
            d="M153.224 160.544C157.246 158.222 162.202 158.222 166.224 160.544L214.179 188.231C218.201 190.553 220.679 194.845 220.679 199.489L220.679 254.863C220.679 259.507 218.201 263.799 214.179 266.121L166.224 293.808C162.202 296.13 157.246 296.13 153.224 293.808L105.269 266.121C101.246 263.799 98.7687 259.507 98.7687 254.863L98.7687 199.489C98.7687 194.845 101.246 190.553 105.269 188.231L153.224 160.544Z"
            fill="#FFE033" stroke="#FF9000" stroke-width="2" stroke-linecap="round" />
        <path
            d="M153.055 168.182C157.048 165.903 161.947 165.903 165.94 168.182L207.668 191.99C211.723 194.303 214.226 198.613 214.226 203.281L214.226 250.633C214.226 255.301 211.723 259.611 207.668 261.924L165.94 285.733C161.947 288.011 157.048 288.011 153.055 285.733L111.327 261.924C107.272 259.611 104.769 255.301 104.769 250.633L104.769 203.281C104.769 198.613 107.272 194.303 111.327 191.99L153.055 168.182Z"
            fill="#FFE033" stroke="#FF9000" stroke-width="2" stroke-linecap="round" />
        <path
            d="M114.281 230.803C114.26 230.313 114.25 229.824 114.25 229.334C114.25 227.386 114.417 225.433 114.75 223.475C115.167 221.037 115.854 218.73 116.813 216.553C118.344 215.959 119.943 215.459 121.609 215.053C123.276 214.646 124.958 214.318 126.656 214.068C128.365 213.808 130.073 213.636 131.781 213.553C132.76 213.501 133.724 213.475 134.672 213.475C135.38 213.475 136.083 213.49 136.781 213.521C137.104 214.542 137.297 215.673 137.359 216.912C137.411 217.839 137.438 218.725 137.438 219.568C137.438 219.85 137.432 220.126 137.422 220.396C135.609 220.678 133.786 220.896 131.953 221.053C130.13 221.209 128.313 221.469 126.5 221.834C126.135 222.449 125.901 223.115 125.797 223.834C125.693 224.553 125.63 225.282 125.609 226.021C127.568 226.407 129.521 226.761 131.469 227.084C133.427 227.407 135.401 227.751 137.391 228.115C137.776 229.042 138.026 230.048 138.141 231.131C138.203 231.725 138.234 232.324 138.234 232.928C138.234 233.417 138.214 233.907 138.172 234.396C138.078 235.49 137.88 236.558 137.578 237.6C137.276 238.631 136.901 239.574 136.453 240.428C134.922 241.219 133.333 241.896 131.688 242.459C130.042 243.021 128.37 243.501 126.672 243.896C124.984 244.292 123.281 244.62 121.563 244.881C119.844 245.152 118.161 245.396 116.516 245.615C116.328 245.469 116.151 245.058 115.984 244.381C115.828 243.704 115.703 242.975 115.609 242.193C115.516 241.402 115.438 240.641 115.375 239.912C115.333 239.443 115.318 239.063 115.328 238.771C115.328 238.605 115.333 238.464 115.344 238.35C116.26 238.308 117.255 238.219 118.328 238.084C119.401 237.938 120.448 237.771 121.469 237.584C122.5 237.386 123.443 237.173 124.297 236.943C125.151 236.704 125.802 236.469 126.25 236.24C126.354 235.917 126.427 235.506 126.469 235.006C126.49 234.756 126.5 234.511 126.5 234.271C126.5 234.032 126.49 233.803 126.469 233.584C126.208 233.396 125.781 233.235 125.188 233.1C124.594 232.954 123.911 232.824 123.141 232.709C122.37 232.584 121.547 232.464 120.672 232.35C119.807 232.235 118.969 232.11 118.156 231.975C117.344 231.829 116.594 231.667 115.906 231.49C115.229 231.303 114.688 231.074 114.281 230.803ZM141.609 220.787C141.65 219.548 141.729 218.396 141.843 217.334C141.968 216.261 142.083 215.245 142.187 214.287C143.208 214.162 144.369 214.037 145.671 213.912C146.973 213.777 148.359 213.662 149.827 213.568C151.307 213.485 152.838 213.423 154.421 213.381C155.432 213.36 156.437 213.344 157.437 213.334C158.01 213.334 158.577 213.339 159.14 213.35C160.702 213.37 162.223 213.433 163.702 213.537C165.192 213.631 166.572 213.761 167.843 213.928C168.083 214.23 168.338 214.683 168.609 215.287C168.89 215.881 169.156 216.537 169.406 217.256C169.666 217.964 169.89 218.699 170.077 219.459C170.275 220.209 170.406 220.876 170.468 221.459C170.281 222.074 169.999 222.683 169.624 223.287C169.249 223.881 168.822 224.443 168.343 224.975C167.864 225.506 167.364 225.975 166.843 226.381C166.322 226.787 165.817 227.115 165.327 227.365C166.692 227.792 167.973 228.454 169.171 229.35C170.38 230.235 171.369 231.423 172.14 232.912C172.057 233.808 171.911 234.798 171.702 235.881C171.505 236.954 171.26 237.985 170.968 238.975C170.687 239.964 170.364 240.86 169.999 241.662C169.635 242.464 169.239 243.032 168.812 243.365C168.239 243.469 167.489 243.6 166.562 243.756C165.645 243.923 164.645 244.074 163.562 244.209C162.479 244.355 161.359 244.49 160.202 244.615C159.046 244.751 157.968 244.839 156.968 244.881C155.072 244.985 153.239 245.037 151.468 245.037C151.02 245.037 150.583 245.032 150.156 245.021C147.979 244.99 145.984 244.782 144.171 244.396C144.046 243.417 143.973 242.042 143.952 240.271C143.942 239.563 143.937 238.824 143.937 238.053C143.937 236.896 143.947 235.678 143.968 234.396C143.999 232.251 144.051 230.006 144.124 227.662C144.197 225.318 144.255 223.1 144.296 221.006C144.15 220.985 143.963 220.98 143.734 220.99C143.515 221.001 143.275 221.006 143.015 221.006C142.765 221.006 142.51 220.99 142.249 220.959C141.989 220.928 141.775 220.87 141.609 220.787ZM154.124 236.053C154.187 237.261 154.281 238.271 154.406 239.084C154.718 239.146 155.051 239.178 155.406 239.178C155.499 239.178 155.588 239.178 155.671 239.178C156.13 239.157 156.588 239.126 157.046 239.084C157.505 239.042 157.952 238.975 158.39 238.881C158.827 238.787 159.208 238.683 159.531 238.568C160.02 237.86 160.338 236.98 160.484 235.928C160.588 235.115 160.64 234.235 160.64 233.287C160.64 233.006 160.635 232.719 160.624 232.428C160.385 232.24 160.005 232.084 159.484 231.959C158.963 231.824 158.39 231.735 157.765 231.693C157.494 231.673 157.223 231.662 156.952 231.662L155.921 231.709C155.296 231.761 154.77 231.86 154.343 232.006C154.187 233.152 154.104 234.214 154.093 235.193C154.104 235.485 154.114 235.771 154.124 236.053ZM154.156 222.865C154.135 223.396 154.124 223.876 154.124 224.303C154.124 224.73 154.135 225.089 154.156 225.381C154.416 225.443 154.812 225.485 155.343 225.506C155.479 225.506 155.614 225.506 155.749 225.506C156.156 225.506 156.572 225.485 156.999 225.443C157.572 225.402 158.114 225.324 158.624 225.209C159.145 225.094 159.499 224.964 159.687 224.818C159.76 224.381 159.796 223.917 159.796 223.428C159.796 223.376 159.796 223.318 159.796 223.256C159.786 222.693 159.729 222.152 159.624 221.631C159.52 221.11 159.359 220.646 159.14 220.24C158.932 219.834 158.666 219.511 158.343 219.271C157.999 219.199 157.64 219.162 157.265 219.162C156.973 219.162 156.671 219.183 156.359 219.225C155.63 219.318 154.958 219.485 154.343 219.725C154.322 220.214 154.291 220.73 154.249 221.271C154.208 221.803 154.176 222.334 154.156 222.865ZM174.671 223.084C174.65 222.636 174.639 222.178 174.639 221.709C174.65 220.886 174.686 220.042 174.749 219.178C174.853 217.813 175.061 216.49 175.374 215.209C175.655 215.084 176.207 214.964 177.03 214.85C177.853 214.725 178.837 214.62 179.983 214.537C181.139 214.454 182.421 214.381 183.827 214.318C185.233 214.256 186.665 214.204 188.124 214.162C189.592 214.12 191.035 214.089 192.452 214.068C193.337 214.048 194.181 214.037 194.983 214.037C195.462 214.037 195.926 214.037 196.374 214.037C197.572 214.058 198.592 214.089 199.436 214.131C200.29 214.173 200.889 214.225 201.233 214.287C201.275 214.777 201.296 215.344 201.296 215.99C201.296 216.626 201.275 217.266 201.233 217.912C201.191 218.548 201.134 219.152 201.061 219.725C200.988 220.298 200.921 220.777 200.858 221.162C199.702 221.308 198.566 221.433 197.452 221.537C196.348 221.631 195.217 221.699 194.061 221.74C193.957 222.271 193.853 223.048 193.749 224.068C193.645 225.079 193.54 226.23 193.436 227.521C193.342 228.813 193.259 230.188 193.186 231.646C193.113 233.105 193.051 234.548 192.999 235.975C192.947 237.391 192.915 238.735 192.905 240.006C192.895 240.641 192.884 241.24 192.874 241.803C192.874 242.365 192.884 242.886 192.905 243.365C191.28 243.646 189.655 243.912 188.03 244.162C186.957 244.329 185.884 244.407 184.811 244.396C184.27 244.396 183.728 244.376 183.186 244.334C182.999 242.157 182.858 240.173 182.764 238.381C182.681 236.589 182.629 234.86 182.608 233.193C182.598 232.36 182.592 231.527 182.592 230.693C182.592 229.86 182.598 229.016 182.608 228.162C182.629 226.475 182.65 224.652 182.671 222.693C182.191 222.662 181.686 222.646 181.155 222.646C181.03 222.646 180.895 222.646 180.749 222.646C180.061 222.657 179.363 222.683 178.655 222.725C177.947 222.756 177.249 222.813 176.561 222.896C175.884 222.98 175.254 223.042 174.671 223.084Z"
            fill="#FF9429" />
    </g>
    <defs>
        <clipPath id="clip0_3419_2747">
            <rect width="670" height="320" fill="white" transform="translate(-1.52588e-05 0.904297)" />
        </clipPath>
    </defs>
</svg>