<svg viewBox="0 0 320 671" fill="none" xmlns="http://www.w3.org/2000/svg">
    <g clip-path="url(#clip0_3419_2960)">
        <rect width="320" height="670" rx="12" transform="matrix(-1 0 0 1 320 0.810547)" fill="#FFDB8D" />
        <mask id="mask0_3419_2960" style="mask-type:alpha" maskUnits="userSpaceOnUse" x="0" y="1" width="320"
            height="670">
            <mask id="path-2-inside-1_3419_2960" fill="white">
                <path
                    d="M320 13C320 6.37257 314.627 1 308 1H12C5.37259 1 0 6.37258 0 13V659C0 665.627 5.37259 671 12 671H308C314.627 671 320 665.627 320 659V13Z" />
            </mask>
            <path
                d="M320 13C320 6.37257 314.627 1 308 1H12C5.37259 1 0 6.37258 0 13V659C0 665.627 5.37259 671 12 671H308C314.627 671 320 665.627 320 659V13Z"
                fill="#FFDB8D" />
            <path
                d="M308 2H12V0H308V2ZM1 13V659H-1V13H1ZM12 670H308V672H12V670ZM319 659V13H321V659H319ZM308 670C314.075 670 319 665.075 319 659H321C321 666.18 315.18 672 308 672V670ZM1 659C1 665.075 5.92487 670 12 670V672C4.82031 672 -1 666.18 -1 659H1ZM12 2C5.92487 2 1 6.92487 1 13H-1C-1 5.8203 4.82031 0 12 0V2ZM308 0C315.18 0 321 5.82028 321 13H319C319 6.92485 314.075 2 308 2V0Z"
                fill="#FFB433" mask="url(#path-2-inside-1_3419_2960)" />
        </mask>
        <g mask="url(#mask0_3419_2960)">
            <path
                d="M262.071 142.537C265.089 107.757 256.256 101.193 238.88 102.289L237.232 102.732C238.432 100.622 239.632 98.5112 240.831 96.4009C243.534 86.7353 244.14 75.8454 238.154 66.7279L205.84 5.69151C198.51 -8.4279 182.188 -16.5543 167.357 -12.5666L165.709 -12.1236L54.8384 35.5643C43.7513 40.3331 37.3048 49.2176 36.6987 60.1074C35.6442 69.33 35.7895 76.4422 36.383 85.2217L20.2322 44.8688C15.3011 26.5287 -3.56459 15.5108 -21.6916 20.3846L-69.481 33.2337C-82.6643 36.7783 -93.1579 50.3266 -94.5154 64.9941C-95.1215 75.8839 -97.3755 87.2168 -97.2304 94.329C-100.671 88.103 -105.76 82.32 -109.65 74.4266C-118.628 60.7503 -134.501 54.2912 -149.332 58.2789C-150.98 58.722 -152.628 59.165 -152.628 59.165L-197.425 76.5729C-213.456 82.6709 -223.053 99.5538 -218.121 117.894L-212.149 146.681L-226.361 120.109C-233.691 105.99 -250.013 97.8634 -264.844 101.851L-266.492 102.294L-377.363 149.982C-388.45 154.751 -394.896 163.635 -395.502 174.525C-396.412 190.86 -395.673 206.752 -395.382 220.976L-430.809 108.93C-435.74 90.5899 -454.158 81.2393 -472.285 86.1131L-534.905 102.95C-548.089 106.494 -559.031 118.375 -560.388 133.043C-563.393 148.153 -565.054 168.266 -568.059 183.376C-574.493 172.592 -583.471 158.915 -589.457 149.798C-598.435 136.121 -612.212 130.886 -627.043 134.874C-628.691 135.317 -630.339 135.76 -630.339 135.76L-691.166 159.266C-707.197 165.364 -715.146 181.804 -712.312 198.92L-705.587 223.929C-667.913 390.365 -619.952 553.491 -577.84 718.774C-575.599 727.11 -570.061 734.561 -561.677 739.457C-553.292 744.354 -544.156 745.473 -535.916 743.258L-534.268 742.815L-477.488 723.973C-461.457 717.875 -451.86 700.992 -456.791 682.652L-463.067 659.31C-462.316 655.532 -463.212 652.198 -464.109 648.863C-459.02 654.646 -452.283 659.986 -445.546 665.326C-435.817 675.225 -424.439 684.68 -414.709 694.579C-405.428 702.81 -394.196 705.154 -382.66 702.052C-381.012 701.609 -379.365 701.166 -377.717 700.723L-324.377 675.655C-314.938 671.329 -306.844 662.002 -304.59 650.669C-300.833 631.781 -306.661 610.106 -313.095 599.321C-314.439 594.319 -317.432 589.761 -322.073 585.645C-338.988 568.739 -367.728 540.71 -388.532 515.911C-381.77 481.912 -371.857 439.915 -364.502 414.696C-364.502 414.696 -364.95 413.029 -363.75 410.918C-361.957 417.587 -356.868 423.37 -350.58 427.043L-301.862 601.665C-301.414 603.332 -300.517 606.666 -300.069 608.334L-292.897 635.01C-287.966 653.35 -269.1 664.368 -250.973 659.494C-250.973 659.494 -249.325 659.051 -247.677 658.608L-210.672 645.083C-194.641 638.985 -185.044 622.102 -189.526 605.429L-195.051 578.31C-195.499 576.642 -194.748 572.865 -195.196 571.198L-232.391 413.144C-227.144 406.37 -223.994 398.371 -222.939 389.149L-223.533 380.369C-223.084 382.037 -222.636 383.704 -222.188 385.371C-210.242 442.945 -178.427 580.991 -171.254 607.668C-166.323 626.008 -147.906 635.358 -131.427 630.928L-129.779 630.485L-95.6209 619.513C-80.7897 615.525 -71.1926 598.642 -73.5792 583.194C-74.621 572.747 -77.759 561.076 -79.249 548.962L-45.7226 588.219C-37.6409 598.56 -24.3124 602.128 -12.777 599.027C-11.1291 598.583 -11.1291 598.583 -9.48123 598.14L64.5297 571.09C80.5605 564.992 88.5097 548.552 84.0269 531.879L78.9506 506.427C78.5023 504.76 78.5023 504.76 78.054 503.092C84.0395 512.21 92.4243 517.107 101.56 518.226C96.0105 530.445 112.203 565.423 112.203 565.423C112.203 565.423 132.268 629.753 164.553 621.072L166.201 620.629C172.793 618.857 180.584 614.974 187.176 613.202C201.559 607.547 214.742 604.003 228.677 596.68C243.06 591.025 257.443 585.371 269.729 578.491C283.664 571.169 295.951 564.29 304.942 558.297C312.285 552.747 319.179 545.53 322.33 537.532C325.48 529.533 328.631 521.535 331.333 511.869C332.388 502.647 333.442 493.424 334.497 484.202C335.551 474.979 334.509 464.532 333.916 455.753C334.219 450.308 331.977 441.971 330.487 429.857C328.694 423.188 327.349 418.186 327.204 411.074C326.308 407.74 324.963 402.738 324.818 395.626C321.68 383.955 319.741 370.173 315.707 355.168C311.672 340.162 307.638 325.157 304.803 308.041C300.32 291.368 296.285 276.362 292.699 263.024C286.872 241.349 273.253 223.557 256.035 212.096C258.434 207.876 258.737 202.431 260.688 196.543L262.071 142.537ZM194.367 377.065L167.104 380.82L164.718 365.371L191.533 359.949L194.367 377.065Z"
                fill="#FFCA70" />
            <path
                d="M-18.6735 36.8173L-66.1122 49.0885C-72.6555 50.7811 -77.8127 57.5435 -79.2362 65.1496C-80.4473 79.9386 -82.158 105.714 -85.005 120.926C-85.7167 124.729 -86.8904 126.842 -86.4284 128.532C-88.0642 128.955 -87.6022 130.645 -89.238 131.068L-90.8739 131.491C-93.4338 128.534 -95.0696 128.958 -97.1674 127.691C-105.309 117.131 -117.859 96.8538 -124.827 84.1805C-128.773 76.1539 -136.702 72.7767 -144.881 74.8924L-146.517 75.3156L-190.934 92.2334C-198.651 96.0391 -203.346 104.491 -201.036 112.941L-165.996 266.729C-163.224 276.869 -162.549 285.741 -152.735 283.203L-118.844 272.627C-110.665 270.511 -114.149 264.174 -115.286 253.611L-127.011 191.504C-127.011 191.504 -128.86 184.744 -125.588 183.898C-123.952 183.475 -121.854 184.742 -121.392 186.431C-109.767 203.328 -88.3634 230.362 -77.6618 243.879C-72.5421 249.793 -66.7105 251.903 -60.1673 250.21C-53.624 248.518 -48.0048 243.445 -48.2171 236.263C-46.2942 217.67 -41.9863 182.176 -39.3516 159.781C-38.1778 157.668 -38.6398 155.978 -35.3682 155.132C-33.7324 154.709 -31.6346 155.976 -30.7105 159.355L-28.8624 166.115L-9.88156 222.727C-7.10935 232.867 -4.08739 237.514 4.0917 235.398L5.72749 234.975L44.9871 224.819C54.8021 222.28 52.4919 213.831 49.7196 203.691L2.30505 49.4853C-0.00512588 41.0356 -10.4944 34.7016 -18.6735 36.8173Z"
                fill="#FFDB8D" />
            <path
                d="M234.278 121.085L139.455 145.603C136.185 146.449 130.818 146.029 127.798 141.386C127.336 139.698 124.778 136.744 123.854 133.367C128.297 130.411 182.498 110.973 212.638 99.5641C221.985 95.3394 225.754 83.5184 221.349 73.8111L188.626 11.7704C184.682 3.75144 176.758 0.377365 168.583 2.49104C168.583 2.49104 168.583 2.49103 166.948 2.91376L55.4886 49.8113C50.5839 51.0795 48.2377 55.3017 47.9881 60.7894C45.7416 110.179 50.9957 148.591 73.7344 193.328L74.1961 195.016C77.2163 199.659 81.4096 202.19 86.776 202.61L223.146 176.388C223.146 176.388 223.146 176.388 224.781 175.965C231.32 174.274 236.475 167.518 236.263 160.342C236.545 154.134 242.63 118.925 234.278 121.085ZM109.577 68.3649C109.116 66.6765 110.289 64.5655 111.924 64.1427L140.428 53.1568C143.698 52.3114 147.891 54.8426 148.815 58.2193L154.605 72.9916C155.529 76.3683 154.818 80.1677 152.01 82.7015L120.697 96.2212C119.062 96.6439 116.965 95.3783 116.504 93.69L109.577 68.3649Z"
                fill="#FFDB8D" />
            <path
                d="M-7.54752 276.986L-48.3925 287.543C-56.5615 289.655 -59.6173 297.668 -58.944 306.524C-55.0407 327.186 -44.042 392.967 -41.7726 414.051C-41.3111 415.738 -42.0221 419.533 -43.6559 419.956L-45.2897 420.378C-47.3849 419.114 -47.3849 419.114 -49.4802 417.849C-57.6115 407.31 -102.421 339.432 -120.068 313.293C-123.547 306.969 -131.005 305.284 -137.541 306.974L-203.604 327.661C-211.773 329.772 -216.462 338.208 -214.155 346.641C-202.869 394.289 -169.261 542.716 -161.878 569.702C-159.571 578.135 -150.729 584.879 -142.56 582.768L-108.711 572.213C-102.176 570.524 -97.4865 562.088 -97.6984 554.919C-102.275 525.402 -111.216 473.536 -111.216 473.536C-111.216 473.536 -110.505 469.74 -108.871 469.318C-107.238 468.896 -104.681 471.847 -104.681 471.847L-40.3035 547.308C-35.6517 551.523 -29.8274 553.63 -24.926 552.363L-23.2922 551.941L50.0169 525.769C58.1859 523.658 60.7803 513.958 58.4732 505.524L8.5033 290.897C9.00237 279.932 0.62148 274.875 -7.54752 276.986Z"
                fill="#FFDB8D" />
            <path
                d="M204.373 218.563C186.429 223.199 162.669 225.731 138.199 232.052C95.7839 243.007 55.6721 262.38 53.2147 304.469C52.7155 315.412 56.1505 334.351 56.1119 346.977C57.7046 359.182 59.2974 371.387 61.3507 385.276C63.193 392.009 65.0353 398.743 66.8776 405.476C68.2594 410.526 69.6411 415.576 71.0229 420.627C74.2469 432.41 78.6417 442.089 82.576 450.085C96.4706 475.333 124.664 469.853 147.503 463.954C150.765 463.112 154.028 462.269 157.291 461.426C168.71 458.476 178.959 457.632 190.378 454.682C196.903 452.996 205.06 450.89 211.585 449.204C213.217 448.783 213.217 448.783 214.848 448.361C216.479 447.94 216.479 447.94 216.479 447.94L218.111 447.519L220.874 457.619C221.795 460.986 219.454 465.195 216.191 466.038C199.628 475.723 149.939 504.779 128.943 517.412C124.509 520.359 122.628 526.252 125.642 530.881L139.287 561.601C142.76 567.913 150.667 571.278 157.193 569.592C157.193 569.592 157.193 569.592 158.824 569.171C193.008 560.341 224.465 547.35 259.545 528.736C271.675 521.998 282.633 517.365 291.04 509.787C297.104 506.418 300.617 500.104 304.129 493.789C307.641 487.475 309.062 479.899 310.482 472.323C311.902 464.746 312.862 455.487 312.19 446.648C308.591 399.277 294.765 355.447 286.763 309.028C282.158 292.194 278.012 277.044 274.328 263.577C266.037 233.276 235.829 212.241 204.373 218.563ZM212.949 383.967C213.87 387.334 211.529 391.543 208.266 392.386L169.824 398.711C161.207 399.134 152.839 394.086 150.076 383.986L139.982 334.325C137.679 325.908 142.362 317.489 150.519 315.382L192.223 308.215C193.854 307.793 195.946 309.055 196.407 310.739L212.949 383.967Z"
                fill="#FFDB8D" />
            <path
                d="M195.596 59.0156L211.922 89.9785L166.322 162.038L173.64 190.186L143.803 173.86L135.922 140.645L195.596 59.0156Z"
                fill="#FFE3B1" />
            <path
                d="M263.151 89.9785L279.477 116.438L295.757 168.23L259.231 237.098C255.666 258.865 221.15 288.482 179.833 271.252L166.322 272.941L74.559 417.622C68.1787 427.38 48.3249 441.041 19.9517 417.622L147.181 247.608L164.07 243.254L219.24 229.03L225.756 214.956L247.388 168.23L258.085 133.179L263.151 89.9785Z"
                fill="#FFE3B1" />
            <path
                d="M135.922 140.645L195.596 59.0156L211.922 89.9785L166.322 162.038M135.922 140.645L143.803 173.86L173.64 190.186L166.322 162.038M135.922 140.645L166.322 162.038M295.757 168.23L279.477 116.438L263.151 89.9785L258.085 133.179M295.757 168.23L259.231 237.098M295.757 168.23L258.085 133.179M259.231 237.098C255.666 258.865 221.15 288.482 179.833 271.252M259.231 237.098L225.756 214.956M179.833 271.252L166.322 272.941M179.833 271.252L164.07 243.254M166.322 272.941L74.559 417.622C68.1787 427.38 48.3249 441.041 19.9517 417.622L147.181 247.608M166.322 272.941L147.181 247.608M147.181 247.608L164.07 243.254M164.07 243.254L219.24 229.03L225.756 214.956M225.756 214.956L247.388 168.23L258.085 133.179"
                stroke="#FF992A" stroke-width="2" stroke-linejoin="round" />
            <path
                d="M129.728 73.0931L196.157 59.582L136.777 143.124L144.365 174.426L161.254 183.434L204.039 180.619L262.587 91.6708L276.098 151.345L233.876 222.278L251.891 232.974C223.517 273.958 183.772 262.436 167.446 251.552L153.372 255.493L54.534 408.913C46.4931 421.395 30.1197 425.45 17.1832 418.164C3.11147 410.238 -1.37964 392.098 7.36887 378.523L105.521 226.219L92.7349 209.323C72.4126 182.469 72.7859 145.279 93.6432 118.838L129.728 73.0931Z"
                fill="#FFE033" />
            <path
                d="M233.876 222.278L251.891 232.974C223.517 273.958 183.772 262.436 167.446 251.552L153.372 255.493L54.534 408.913C46.4931 421.395 30.1197 425.45 17.1832 418.164V418.164C3.11147 410.238 -1.37964 392.098 7.36887 378.523L105.521 226.219L92.7349 209.323C72.4126 182.469 72.7859 145.279 93.6432 118.838L129.728 73.0931L196.157 59.582L136.777 143.124L144.365 174.426L161.254 183.434M233.876 222.278L276.098 151.345L262.587 91.6709L204.039 180.619L161.254 183.434M233.876 222.278L161.254 183.434"
                stroke="#FF992A" stroke-width="2" stroke-linejoin="round" />
            <path
                d="M133.669 181.179L123.536 139.638L164.069 81.5352L137.047 84.9129L108.064 129.018C101.525 138.969 95.898 149.81 95.3795 161.706C94.5642 180.413 99.8887 204.775 123.536 218.898L18.8081 383.024C14.1832 390.272 16.4187 399.906 23.763 404.376V404.376C30.7654 408.639 39.8816 406.641 44.4601 399.841L149.996 243.105M133.669 181.179L235.003 235.224C233.185 237.178 230.517 239.467 227.122 241.615M133.669 181.179L137.047 194.128L227.122 241.615M177.58 243.105C198.741 253.685 216.496 248.338 227.122 241.615"
                stroke="#FF992A" stroke-width="2" stroke-linejoin="round" />
            <path
                d="M235.003 235.224L133.67 181.18L137.048 194.128L227.122 241.616C230.518 239.467 233.185 237.179 235.003 235.224Z"
                fill="#FFE3B1" />
            <path
                d="M139.365 92.0156L108.498 140.374C102.668 149.913 94.1964 175.614 106.955 202.108C97.9526 189.932 85.6584 158.071 108.498 128.027L137.048 84.2988L164.058 81.7266L157.37 89.9578L139.365 92.0156Z"
                fill="#FFE3B1" />
            <path
                d="M139.365 92.0156L108.498 140.374C102.668 149.913 94.1964 175.614 106.955 202.108C97.9526 189.932 85.6584 158.071 108.498 128.027L137.048 84.2988M139.365 92.0156L157.37 89.9578L164.058 81.7266L137.048 84.2988M139.365 92.0156L137.048 84.2988M133.67 181.18L235.003 235.224C233.185 237.179 230.518 239.467 227.122 241.616L137.048 194.128L133.67 181.18Z"
                stroke="#FF992A" stroke-width="2" stroke-linejoin="round" />
        </g>
        <g clip-path="url(#clip1_3419_2960)">
            <path
                d="M263.548 424.629L245.798 416.693L244.882 416.284L245.045 415.563C247.152 406.262 246.753 397.036 243.886 388.128L243.646 387.382L244.463 387.229L262.027 383.931L248.605 359.219L231.041 362.517L230.224 362.67L229.685 361.98C223.226 353.718 214.442 346.037 203.541 339.149L202.699 338.617L203.042 337.972L209.686 325.453L179.1 311.852L172.201 324.434L171.889 325.005L171.042 324.747C160.472 321.529 147.972 319.87 134.826 319.969L133.959 319.976L133.568 319.256L125.745 304.852L95.8684 310.461L103.692 324.865L104.085 325.59L103.365 325.877C92.5235 330.204 83.9365 335.767 78.48 341.956L78.0389 342.456L77.2181 342.089L59.317 334.086L47.6098 355.538L65.5139 363.444L66.4354 363.851L66.2733 364.576C64.191 373.883 64.5346 383.119 67.2714 392.055L67.4968 392.791L66.6913 392.942L49.1267 396.24L62.5059 420.873L80.0705 417.575L80.875 417.424L81.417 418.1C88.026 426.336 96.8646 434.006 107.738 440.915L108.583 441.452L108.23 442.096L101.394 454.564L132.165 468.205L138.863 455.586L139.172 455.003L140.03 455.267C150.594 458.517 163.11 460.204 176.287 460.123L177.152 460.118L177.543 460.836L185.366 475.241L215.243 469.631L207.419 455.227L207.026 454.502L207.746 454.215C218.587 449.888 227.174 444.325 232.631 438.136L233.069 437.639L233.886 438L251.954 445.979L263.548 424.629ZM172.313 359.274L172.35 359.291L172.387 359.309C184.728 365.497 193.714 373.286 198.485 382.072C203.257 390.858 203.613 400.268 199.656 409.515L199.645 409.542L199.631 409.567C190.368 426.583 163.318 431.57 139.048 420.944L139.013 420.929L138.979 420.912C126.567 414.751 117.532 406.965 112.755 398.169C107.978 389.374 107.665 379.95 111.707 370.699L111.717 370.675L111.73 370.652C120.993 353.636 148.043 348.649 172.313 359.274Z"
                fill="#FFE3B1" stroke="#FF9429" stroke-width="2" />
            <path
                d="M272.779 406.945L255.028 399.009L254.113 398.6L254.276 397.879C256.383 388.578 255.984 379.352 253.117 370.444L252.877 369.698L253.693 369.545L271.258 366.247L257.836 341.535L240.272 344.833L239.455 344.987L238.915 344.297C232.457 336.034 223.673 328.354 212.772 321.465L211.93 320.933L212.272 320.289L218.917 307.769L188.33 294.169L181.432 306.751L181.119 307.321L180.273 307.064C169.703 303.846 157.203 302.186 144.056 302.285L143.19 302.292L142.799 301.572L134.976 287.168L105.099 292.778L112.923 307.182L113.316 307.906L112.596 308.194C101.754 312.52 93.1673 318.084 87.7108 324.272L87.2697 324.772L86.4489 324.405L68.5478 316.402L56.8406 337.854L74.7446 345.76L75.6662 346.167L75.5041 346.892C73.4217 356.2 73.7654 365.436 76.5022 374.371L76.7275 375.107L75.922 375.258L58.3575 378.556L71.7367 403.19L89.3012 399.892L90.1058 399.741L90.6477 400.416C97.2568 408.653 106.095 416.322 116.968 423.231L117.814 423.768L117.461 424.413L110.625 436.881L141.396 450.522L148.094 437.903L148.403 437.32L149.261 437.584C159.825 440.834 172.341 442.52 185.518 442.439L186.383 442.434L186.773 443.153L194.597 457.557L224.473 451.947L216.65 437.543L216.256 436.819L216.977 436.531C227.818 432.204 236.405 426.641 241.862 420.453L242.3 419.956L243.117 420.317L261.185 428.295L272.779 406.945ZM181.544 341.591L181.581 341.607L181.618 341.625C193.959 347.813 202.944 355.603 207.716 364.388C212.488 373.174 212.844 382.584 208.887 391.832L208.876 391.858L208.862 391.883C199.599 408.899 172.549 413.886 148.279 403.261L148.244 403.246L148.21 403.229C135.798 397.067 126.763 389.281 121.986 380.486C117.208 371.691 116.896 362.266 120.937 353.015L120.948 352.991L120.96 352.968C130.224 335.952 157.274 330.965 181.544 341.591Z"
                fill="#FFE033" stroke="#FF9429" stroke-width="2" />
            <path
                d="M222.734 452.78L217.039 467.856L188.481 473.219L195.352 457.921L222.734 452.78ZM262.498 382.598L257.209 383.591L254.795 370.735L270.603 367.767L262.498 382.598ZM99.1944 313.224L96.9564 309.527L104.288 293.57L110.686 306.185L99.1944 313.224ZM62.4436 419.726L49.0226 395.993L57.1486 380.325L70.4624 403.455L62.4436 419.726ZM132.198 467.356L102.725 453.839L110.397 437.993L139.87 451.51L132.198 467.356ZM243.366 422.032L259.808 429.03L252.748 444.748L234.376 437.489L243.366 422.032Z"
                fill="#FFE3B1" stroke="#FF9429" stroke-width="2" />
        </g>
    </g>
    <defs>
        <clipPath id="clip0_3419_2960">
            <rect width="320" height="670.189" fill="white" transform="translate(0 0.810547)" />
        </clipPath>
        <clipPath id="clip1_3419_2960">
            <rect width="320" height="320" fill="white" transform="translate(0 175.811)" />
        </clipPath>
    </defs>
</svg>