<svg width="200" height="139" viewBox="0 0 200 139" fill="none" xmlns="http://www.w3.org/2000/svg">
<g clip-path="url(#clip0_9648_16477)">
<path d="M113.321 127.882L115.544 112.063L90.3026 102.137L84.2729 107.668L91.4079 126.303L113.321 127.882Z" fill="#FFA725"/>
<path d="M166.364 129.894L164.719 117.782C164.26 114.406 164.51 110.973 165.454 107.7L187.598 117.386C191.811 124.551 177.206 135.643 176.918 135.603C176.631 135.562 169.762 131.78 166.364 129.894Z" fill="#FFA725" stroke="#563B00" stroke-width="0.6"/>
<path d="M178.355 134.962C169.721 134.763 165.669 127.758 165.373 124.536C154.169 151.622 141.527 138.796 133.585 128.67C132.165 126.585 128.602 121.677 125.707 118.718C122.088 115.019 117.937 115.162 115.784 115.402C113.631 115.643 108.879 122.457 101.418 118.225C95.4495 114.84 81.6572 97.8419 80.4644 95.3894C76.8362 91.4137 66.937 99.5389 58.09 111.255C43.6991 130.313 46.3734 181.765 45.9765 184.715L118.704 196.079L122.135 144.128L130.341 150.914C162.622 176.313 178.956 136.29 179.568 135.355C180.058 134.606 180.256 134.65 179.676 134.583L178.355 134.962Z" fill="#FFD900" stroke="#563B00" stroke-width="0.6"/>
<path fill-rule="evenodd" clip-rule="evenodd" d="M117.146 42.6727C117.499 42.3755 117.674 41.8607 117.556 41.3386C117.394 40.6254 116.745 40.1687 116.106 40.3186C115.466 40.4685 115.079 41.1683 115.241 41.8815C115.336 42.2991 115.598 42.6288 115.927 42.8002C115.987 43.8873 115.819 46.1617 114.695 47.7868L119.664 45.9186C118.964 45.5061 117.552 44.3122 117.146 42.6727Z" fill="#563B00"/>
<path fill-rule="evenodd" clip-rule="evenodd" d="M127.434 43.2032C127.102 42.8822 126.975 42.3387 127.153 41.8083C127.39 41.0998 128.08 40.6827 128.693 40.8767C129.307 41.0707 129.612 41.8023 129.375 42.5108C129.244 42.9026 128.974 43.2052 128.656 43.3647C128.483 44.445 128.415 46.7192 129.364 48.4179L124.609 46.1937C125.34 45.8384 126.842 44.7744 127.434 43.2032Z" fill="#563B00"/>
<path d="M121.584 56.3903C124.232 56.5127 126.673 56.0078 128.48 55.0773C130.279 54.151 131.506 52.7681 131.583 51.1175C131.659 49.4669 130.564 47.9766 128.858 46.8884C127.145 45.7951 124.761 45.0673 122.113 44.9449C119.465 44.8225 117.024 45.3274 115.217 46.2579C113.418 47.1842 112.191 48.5672 112.114 50.2177C112.038 51.8683 113.133 53.3587 114.839 54.4469C116.552 55.5401 118.936 56.2679 121.584 56.3903Z" fill="#FF9900" stroke="#563B00" stroke-width="0.6"/>
<mask id="path-7-outside-1_9648_16477" maskUnits="userSpaceOnUse" x="102.223" y="38.0932" width="39.5079" height="29.2246" fill="black">
<rect fill="white" x="102.223" y="38.0932" width="39.5079" height="29.2246"/>
<path fill-rule="evenodd" clip-rule="evenodd" d="M122.819 43.7426C123.721 43.5319 124.412 42.7688 124.461 41.8356C124.52 40.7083 123.618 39.7597 122.447 39.7168C121.275 39.6739 120.278 40.553 120.219 41.6802C120.17 42.6224 120.792 43.4397 121.682 43.7078C121.347 46.3908 120.084 51.1051 117.264 51.0258C114.424 50.9459 112.489 47.6056 111.846 46.1793L111.222 46.2701C111.779 47.8624 112.004 50.3361 110.705 50.0468C109.454 49.7683 107.694 47.02 107.137 45.816C107.266 45.7671 107.372 45.6901 107.448 45.5844C107.775 45.1255 107.392 44.2981 106.592 43.7362C105.792 43.1742 104.879 43.0907 104.552 43.5495C104.225 44.0084 104.608 44.8358 105.408 45.3978C105.649 45.567 105.9 45.6929 106.142 45.7736L105.328 45.8515C106.075 46.3419 107.697 48.4818 108.974 50.5759C110.251 52.6699 112.442 57.8228 111.064 58.9756C110.782 58.9436 110.181 59.0013 110.169 59.7809C110.154 60.7553 111.584 62.8851 118.456 64.4914C118.499 64.5014 118.547 64.5116 118.601 64.522L118.542 64.8952C119.57 65.1769 123.057 65.0584 123.955 64.9031C130.983 63.688 132.642 61.6451 132.735 60.6728C132.808 59.8949 132.215 59.8036 131.931 59.8197C130.684 58.593 133.435 53.5792 134.938 51.5634C136.441 49.5476 138.293 47.5054 139.092 47.0585L138.665 46.993C138.712 46.9685 138.759 46.9427 138.806 46.9154C139.662 46.4165 140.133 45.6289 139.857 45.1562C139.581 44.6836 138.664 44.7049 137.808 45.2038C136.952 45.7027 136.481 46.4903 136.757 46.9629C136.83 47.0882 136.948 47.1787 137.098 47.2349C136.275 48.5052 134.444 50.7483 133.271 50.9388C131.944 51.1542 132.44 48.7008 133.17 47.1446L132.895 47.0882C133.469 46.9651 134.098 46.4989 134.549 45.7993C135.244 44.7211 135.252 43.4969 134.566 43.0648C133.881 42.6328 132.762 43.1566 132.067 44.2348C131.372 45.3129 131.365 46.5372 132.05 46.9692C132.186 47.0548 132.338 47.1028 132.501 47.1166C131.655 48.5498 129.399 51.6242 126.624 51.5461C123.767 51.4657 123.044 46.5708 123.023 43.8983L122.827 43.8927L122.819 43.7426ZM112.133 46.0179C112.868 45.6341 112.994 44.4149 112.414 43.2948C111.833 42.1747 110.766 41.5779 110.03 41.9617C109.294 42.3456 109.168 43.5648 109.749 44.6848C110.329 45.8049 111.397 46.4018 112.133 46.0179Z"/>
</mask>
<path fill-rule="evenodd" clip-rule="evenodd" d="M122.819 43.7426C123.721 43.5319 124.412 42.7688 124.461 41.8356C124.52 40.7083 123.618 39.7597 122.447 39.7168C121.275 39.6739 120.278 40.553 120.219 41.6802C120.17 42.6224 120.792 43.4397 121.682 43.7078C121.347 46.3908 120.084 51.1051 117.264 51.0258C114.424 50.9459 112.489 47.6056 111.846 46.1793L111.222 46.2701C111.779 47.8624 112.004 50.3361 110.705 50.0468C109.454 49.7683 107.694 47.02 107.137 45.816C107.266 45.7671 107.372 45.6901 107.448 45.5844C107.775 45.1255 107.392 44.2981 106.592 43.7362C105.792 43.1742 104.879 43.0907 104.552 43.5495C104.225 44.0084 104.608 44.8358 105.408 45.3978C105.649 45.567 105.9 45.6929 106.142 45.7736L105.328 45.8515C106.075 46.3419 107.697 48.4818 108.974 50.5759C110.251 52.6699 112.442 57.8228 111.064 58.9756C110.782 58.9436 110.181 59.0013 110.169 59.7809C110.154 60.7553 111.584 62.8851 118.456 64.4914C118.499 64.5014 118.547 64.5116 118.601 64.522L118.542 64.8952C119.57 65.1769 123.057 65.0584 123.955 64.9031C130.983 63.688 132.642 61.6451 132.735 60.6728C132.808 59.8949 132.215 59.8036 131.931 59.8197C130.684 58.593 133.435 53.5792 134.938 51.5634C136.441 49.5476 138.293 47.5054 139.092 47.0585L138.665 46.993C138.712 46.9685 138.759 46.9427 138.806 46.9154C139.662 46.4165 140.133 45.6289 139.857 45.1562C139.581 44.6836 138.664 44.7049 137.808 45.2038C136.952 45.7027 136.481 46.4903 136.757 46.9629C136.83 47.0882 136.948 47.1787 137.098 47.2349C136.275 48.5052 134.444 50.7483 133.271 50.9388C131.944 51.1542 132.44 48.7008 133.17 47.1446L132.895 47.0882C133.469 46.9651 134.098 46.4989 134.549 45.7993C135.244 44.7211 135.252 43.4969 134.566 43.0648C133.881 42.6328 132.762 43.1566 132.067 44.2348C131.372 45.3129 131.365 46.5372 132.05 46.9692C132.186 47.0548 132.338 47.1028 132.501 47.1166C131.655 48.5498 129.399 51.6242 126.624 51.5461C123.767 51.4657 123.044 46.5708 123.023 43.8983L122.827 43.8927L122.819 43.7426ZM112.133 46.0179C112.868 45.6341 112.994 44.4149 112.414 43.2948C111.833 42.1747 110.766 41.5779 110.03 41.9617C109.294 42.3456 109.168 43.5648 109.749 44.6848C110.329 45.8049 111.397 46.4018 112.133 46.0179Z" fill="#FFD900"/>
<path d="M124.461 41.8356L123.861 41.8171L123.861 41.8171L124.461 41.8356ZM122.819 43.7426L122.694 43.1591L122.194 43.2759L122.219 43.7847L122.819 43.7426ZM122.447 39.7168L122.481 39.1178L122.447 39.7168ZM120.219 41.6802L120.819 41.6987L120.819 41.6987L120.219 41.6802ZM121.682 43.7078L122.278 43.7693L122.339 43.2761L121.866 43.1336L121.682 43.7078ZM117.264 51.0258L117.293 50.4266L117.264 51.0258ZM111.846 46.1793L112.394 45.9236L112.213 45.5219L111.772 45.5862L111.846 46.1793ZM111.222 46.2701L111.148 45.6769L110.412 45.7841L110.655 46.4783L111.222 46.2701ZM110.705 50.0468L110.562 50.632L110.562 50.632L110.705 50.0468ZM107.137 45.816L106.934 45.2561L106.319 45.4893L106.591 46.0767L107.137 45.816ZM107.448 45.5844L107.935 45.9249L107.935 45.9249L107.448 45.5844ZM106.592 43.7362L106.945 43.2436L106.592 43.7362ZM104.552 43.5495L104.065 43.209L104.065 43.209L104.552 43.5495ZM105.408 45.3978L105.76 44.9052L105.76 44.9052L105.408 45.3978ZM106.142 45.7736L106.187 46.3703L106.343 45.2046L106.142 45.7736ZM105.328 45.8515L105.284 45.2548L103.567 45.419L104.991 46.3543L105.328 45.8515ZM108.974 50.5759L109.489 50.2563L109.489 50.2563L108.974 50.5759ZM111.064 58.9756L110.984 59.5712L111.242 59.6005L111.444 59.4316L111.064 58.9756ZM110.169 59.7809L109.569 59.7844L110.169 59.7809ZM118.456 64.4914L118.307 65.0752L118.456 64.4914ZM118.601 64.522L119.195 64.6041L119.285 64.0402L118.727 63.9332L118.601 64.522ZM118.542 64.8952L117.949 64.813L117.865 65.3349L118.372 65.4735L118.542 64.8952ZM123.955 64.9031L124.046 65.4937L124.046 65.4937L123.955 64.9031ZM132.735 60.6728L132.137 60.6289L132.137 60.6289L132.735 60.6728ZM131.931 59.8197L131.505 60.2511L131.69 60.433L131.952 60.4182L131.931 59.8197ZM134.938 51.5634L134.459 51.2121L134.938 51.5634ZM139.092 47.0585L139.377 47.5798L140.898 46.7277L139.195 46.466L139.092 47.0585ZM138.665 46.993L138.397 46.4624L136.765 47.3094L138.562 47.5855L138.665 46.993ZM138.806 46.9154L139.101 47.4314L139.101 47.4314L138.806 46.9154ZM139.857 45.1562L139.337 45.466L139.337 45.466L139.857 45.1562ZM137.808 45.2038L138.102 45.7199L138.102 45.7199L137.808 45.2038ZM136.757 46.9629L136.236 47.2727L136.236 47.2727L136.757 46.9629ZM137.098 47.2349L137.6 47.553L138.005 46.9295L137.32 46.6731L137.098 47.2349ZM133.271 50.9388L133.355 51.5304L133.355 51.5304L133.271 50.9388ZM133.17 47.1446L133.713 47.3893L134.033 46.7072L133.303 46.5574L133.17 47.1446ZM132.895 47.0882L132.781 46.5022L132.762 47.6755L132.895 47.0882ZM134.549 45.7993L134.046 45.4826L134.046 45.4826L134.549 45.7993ZM134.566 43.0648L134.895 42.5561L134.895 42.5561L134.566 43.0648ZM132.067 44.2348L131.564 43.9181L131.564 43.9181L132.067 44.2348ZM132.05 46.9692L132.378 46.4605L132.378 46.4605L132.05 46.9692ZM132.501 47.1166L133.017 47.4127L133.498 46.5978L132.564 46.5192L132.501 47.1166ZM126.624 51.5461L126.654 50.9469L126.624 51.5461ZM123.023 43.8983L123.624 43.881L123.62 43.315L123.053 43.2991L123.023 43.8983ZM122.827 43.8927L122.227 43.9348L122.253 44.4766L122.797 44.4919L122.827 43.8927ZM112.414 43.2948L111.879 43.5791L112.414 43.2948ZM112.133 46.0179L111.863 45.4879L112.133 46.0179ZM109.749 44.6848L109.214 44.9692L109.749 44.6848ZM123.861 41.8171C123.828 42.4593 123.35 43.0059 122.694 43.1591L122.944 44.3261C124.092 44.058 124.997 43.0783 125.061 41.8541L123.861 41.8171ZM122.412 40.3159C123.275 40.3475 123.902 41.0403 123.861 41.8171L125.061 41.8541C125.138 40.3764 123.961 39.172 122.481 39.1178L122.412 40.3159ZM120.819 41.6987C120.86 40.925 121.551 40.2844 122.412 40.3159L122.481 39.1178C120.999 39.0635 119.697 40.181 119.62 41.6617L120.819 41.6987ZM121.866 43.1336C121.215 42.9374 120.785 42.3486 120.819 41.6987L119.62 41.6617C119.555 42.8961 120.369 43.942 121.497 44.2819L121.866 43.1336ZM117.234 51.625C119.041 51.6758 120.221 50.1863 120.947 48.6487C121.695 47.0646 122.106 45.1457 122.278 43.7693L121.086 43.6463C120.923 44.9529 120.535 46.7327 119.863 48.1566C119.169 49.6271 118.307 50.4551 117.293 50.4266L117.234 51.625ZM111.297 46.435C111.634 47.1819 112.308 48.4306 113.28 49.5128C114.244 50.5858 115.577 51.5783 117.234 51.625L117.293 50.4266C116.111 50.3933 115.057 49.6757 114.182 48.7021C113.316 47.7376 112.701 46.603 112.394 45.9236L111.297 46.435ZM111.296 46.8632L111.92 46.7724L111.772 45.5862L111.148 45.6769L111.296 46.8632ZM110.562 50.632C110.811 50.6874 111.07 50.6866 111.32 50.5949C111.572 50.5021 111.763 50.3347 111.9 50.1415C112.156 49.7804 112.239 49.3059 112.259 48.8794C112.3 48 112.085 46.9056 111.79 46.0619L110.655 46.4783C110.916 47.2269 111.092 48.1656 111.06 48.8488C111.043 49.2036 110.974 49.3928 110.924 49.4639C110.908 49.4868 110.908 49.4776 110.926 49.471C110.941 49.4654 110.924 49.4786 110.847 49.4617L110.562 50.632ZM106.591 46.0767C106.889 46.7207 107.491 47.745 108.18 48.6481C108.526 49.1007 108.905 49.538 109.29 49.8859C109.662 50.222 110.099 50.5288 110.562 50.632L110.847 49.4617C110.686 49.4256 110.433 49.2844 110.106 48.9892C109.792 48.7058 109.462 48.3286 109.141 47.9088C108.499 47.0671 107.942 46.1153 107.683 45.5552L106.591 46.0767ZM106.961 45.2439C106.962 45.2416 106.964 45.241 106.962 45.2424C106.959 45.2442 106.951 45.2496 106.934 45.2561L107.339 46.3758C107.565 46.2902 107.778 46.1443 107.935 45.9249L106.961 45.2439ZM106.239 44.2287C106.571 44.4618 106.792 44.7343 106.896 44.9598C107.009 45.2043 106.942 45.2702 106.961 45.2439L107.935 45.9249C108.28 45.4398 108.185 44.8625 107.988 44.438C107.783 43.9946 107.413 43.5724 106.945 43.2436L106.239 44.2287ZM105.039 43.8901C105.02 43.917 105.059 43.8324 105.327 43.857C105.576 43.8797 105.908 43.9956 106.239 44.2287L106.945 43.2436C106.477 42.9148 105.952 42.7079 105.462 42.6631C104.993 42.6202 104.411 42.7232 104.065 43.209L105.039 43.8901ZM105.76 44.9052C105.429 44.6721 105.208 44.3996 105.104 44.1741C104.99 43.9296 105.058 43.8637 105.039 43.8901L104.065 43.209C103.719 43.6942 103.815 44.2714 104.011 44.6959C104.217 45.1393 104.587 45.5615 105.055 45.8903L105.76 44.9052ZM106.343 45.2046C106.158 45.1429 105.957 45.0437 105.76 44.9052L105.055 45.8903C105.34 46.0904 105.642 46.2429 105.941 46.3426L106.343 45.2046ZM105.373 46.4482L106.187 46.3703L106.098 45.1769L105.284 45.2548L105.373 46.4482ZM109.489 50.2563C108.841 49.1929 108.104 48.1171 107.432 47.2414C107.096 46.8038 106.772 46.4109 106.48 46.0924C106.197 45.7829 105.916 45.5127 105.666 45.3487L104.991 46.3543C105.114 46.4355 105.316 46.6167 105.586 46.9117C105.849 47.1978 106.15 47.5628 106.473 47.9831C107.118 48.8236 107.831 49.8648 108.459 50.8954L109.489 50.2563ZM111.444 59.4316C112.026 58.9453 112.132 58.1412 112.099 57.4308C112.064 56.6789 111.862 55.8056 111.588 54.9375C111.038 53.1969 110.151 51.3423 109.489 50.2563L108.459 50.8954C109.074 51.9035 109.921 53.6723 110.442 55.3199C110.703 56.1458 110.871 56.9078 110.899 57.5118C110.929 58.1572 110.792 58.4294 110.684 58.5195L111.444 59.4316ZM110.77 59.7773C110.771 59.659 110.795 59.6101 110.8 59.5995C110.804 59.5924 110.805 59.593 110.808 59.5913C110.816 59.5866 110.837 59.5775 110.876 59.5722C110.914 59.5669 110.954 59.5678 110.984 59.5712L111.144 58.38C110.942 58.357 110.571 58.3559 110.223 58.5564C109.821 58.7886 109.577 59.2145 109.569 59.7844L110.77 59.7773ZM118.605 63.9076C115.208 63.1137 113.213 62.2023 112.083 61.4069C110.935 60.5986 110.766 59.9786 110.77 59.7773L109.569 59.7844C109.557 60.5576 110.096 61.4897 111.377 62.3915C112.676 63.3062 114.832 64.2629 118.307 65.0752L118.605 63.9076ZM118.727 63.9332C118.678 63.9239 118.638 63.9153 118.605 63.9076L118.307 65.0752C118.36 65.0874 118.416 65.0992 118.476 65.1107L118.727 63.9332ZM119.135 64.9774L119.195 64.6041L118.008 64.4398L117.949 64.813L119.135 64.9774ZM123.865 64.3125C123.468 64.3812 122.414 64.4498 121.303 64.4636C120.755 64.4704 120.209 64.4637 119.74 64.4386C119.258 64.4127 118.903 64.3692 118.712 64.3169L118.372 65.4735C118.695 65.5621 119.161 65.6094 119.65 65.6357C120.153 65.6627 120.728 65.6694 121.292 65.6624C122.407 65.6486 123.545 65.5803 124.046 65.4937L123.865 64.3125ZM132.137 60.6289C132.118 60.8318 131.879 61.4428 130.644 62.1851C129.429 62.9153 127.339 63.7119 123.865 64.3125L124.046 65.4937C127.6 64.8792 129.853 64.0467 131.248 63.2087C132.622 62.3827 133.26 61.4861 133.333 60.7167L132.137 60.6289ZM131.952 60.4182C131.982 60.4165 132.022 60.4179 132.059 60.4252C132.097 60.4326 132.117 60.4428 132.123 60.4471C132.124 60.4479 132.124 60.4459 132.126 60.4517C132.13 60.4612 132.148 60.5106 132.137 60.6289L133.333 60.7167C133.386 60.1484 133.191 59.7067 132.811 59.45C132.484 59.2291 132.113 59.2097 131.91 59.2212L131.952 60.4182ZM134.459 51.2121C133.68 52.2569 132.592 54.0554 131.853 55.7592C131.484 56.6089 131.187 57.4678 131.07 58.215C130.959 58.9195 130.975 59.7302 131.505 60.2511L132.357 59.3883C132.263 59.2959 132.155 59.0199 132.256 58.3763C132.351 57.7754 132.602 57.0248 132.953 56.2158C133.653 54.6021 134.693 52.8858 135.417 51.9147L134.459 51.2121ZM138.806 46.5372C138.54 46.6861 138.231 46.939 137.914 47.2315C137.589 47.5324 137.223 47.9056 136.84 48.3229C136.074 49.1578 135.222 50.1886 134.459 51.2121L135.417 51.9147C136.157 50.9223 136.982 49.9241 137.718 49.1223C138.086 48.7212 138.427 48.3741 138.72 48.1034C139.022 47.8243 139.244 47.6544 139.377 47.5798L138.806 46.5372ZM138.562 47.5855L138.988 47.651L139.195 46.466L138.769 46.4005L138.562 47.5855ZM138.512 46.3993C138.474 46.4216 138.435 46.4426 138.397 46.4624L138.933 47.5236C138.989 47.4945 139.045 47.4638 139.101 47.4314L138.512 46.3993ZM139.337 45.466C139.318 45.4335 139.38 45.4964 139.242 45.7271C139.115 45.9398 138.867 46.1923 138.512 46.3993L139.101 47.4314C139.602 47.1395 140.017 46.7488 140.27 46.3248C140.513 45.9189 140.672 45.3517 140.378 44.8465L139.337 45.466ZM138.102 45.7199C138.457 45.513 138.801 45.4208 139.051 45.415C139.324 45.4087 139.354 45.4958 139.337 45.466L140.378 44.8465C140.085 44.3441 139.518 44.2056 139.049 44.2164C138.558 44.2278 138.014 44.3958 137.513 44.6878L138.102 45.7199ZM137.278 46.6531C137.297 46.6857 137.234 46.6228 137.372 46.3921C137.499 46.1794 137.747 45.9269 138.102 45.7199L137.513 44.6878C137.012 44.9797 136.597 45.3704 136.344 45.7944C136.101 46.2003 135.942 46.7675 136.236 47.2727L137.278 46.6531ZM137.32 46.6731C137.294 46.6635 137.282 46.6549 137.277 46.6516C137.274 46.6487 137.275 46.6493 137.278 46.6531L136.236 47.2727C136.39 47.5354 136.626 47.7029 136.877 47.7967L137.32 46.6731ZM133.355 51.5304C133.791 51.4596 134.22 51.2155 134.597 50.9383C134.986 50.6524 135.378 50.2868 135.747 49.8997C136.483 49.1255 137.17 48.2164 137.6 47.553L136.596 46.9168C136.203 47.5237 135.562 48.3713 134.884 49.0838C134.545 49.4401 134.208 49.7503 133.898 49.9783C133.576 50.2149 133.337 50.3227 133.186 50.3472L133.355 51.5304ZM132.627 46.8999C132.241 47.7238 131.905 48.8021 131.85 49.6809C131.823 50.1066 131.854 50.5857 132.07 50.962C132.186 51.1638 132.359 51.3429 132.602 51.4503C132.842 51.5564 133.102 51.5714 133.355 51.5304L133.186 50.3472C133.108 50.3599 133.092 50.3454 133.108 50.3525C133.127 50.3609 133.128 50.3715 133.115 50.3493C133.074 50.2776 133.026 50.0864 133.048 49.7312C133.092 49.0481 133.369 48.1216 133.713 47.3893L132.627 46.8999ZM132.762 47.6755L133.037 47.7319L133.303 46.5574L133.028 46.5009L132.762 47.6755ZM134.046 45.4826C133.658 46.084 133.154 46.4222 132.781 46.5022L133.009 47.6741C133.783 47.5081 134.538 46.9139 135.052 46.116L134.046 45.4826ZM134.238 43.5736C134.352 43.6453 134.477 43.8274 134.475 44.1987C134.472 44.5624 134.34 45.0264 134.046 45.4826L135.052 46.116C135.453 45.494 135.672 44.8068 135.676 44.1809C135.68 43.5625 135.466 42.9164 134.895 42.5561L134.238 43.5736ZM132.57 44.5515C132.864 44.0953 133.234 43.7807 133.566 43.6252C133.905 43.4665 134.124 43.5019 134.238 43.5736L134.895 42.5561C134.323 42.1957 133.64 42.277 133.075 42.5417C132.503 42.8097 131.965 43.2961 131.564 43.9181L132.57 44.5515ZM132.378 46.4605C132.265 46.3887 132.139 46.2067 132.142 45.8354C132.144 45.4717 132.276 45.0076 132.57 44.5515L131.564 43.9181C131.163 44.5401 130.945 45.2272 130.941 45.8532C130.937 46.4716 131.15 47.1177 131.722 47.478L132.378 46.4605ZM132.564 46.5192C132.488 46.5128 132.428 46.4918 132.378 46.4605L131.722 47.478C131.943 47.6177 132.188 47.6929 132.438 47.7139L132.564 46.5192ZM126.595 52.1453C128.213 52.1909 129.621 51.3189 130.689 50.3343C131.764 49.3417 132.576 48.1606 133.017 47.4127L131.986 46.8204C131.581 47.5058 130.841 48.5785 129.883 49.4619C128.917 50.3533 127.81 50.9795 126.654 50.9469L126.595 52.1453ZM122.423 43.9156C122.433 45.2878 122.623 47.2498 123.192 48.9C123.743 50.4993 124.761 52.0937 126.595 52.1453L126.654 50.9469C125.63 50.9181 124.858 50.0249 124.328 48.4885C123.816 47.0031 123.634 45.1813 123.624 43.881L122.423 43.9156ZM122.797 44.4919L122.994 44.4975L123.053 43.2991L122.856 43.2935L122.797 44.4919ZM122.219 43.7847L122.227 43.9348L123.426 43.8507L123.419 43.7006L122.219 43.7847ZM111.879 43.5791C112.125 44.0529 112.207 44.5229 112.169 44.8836C112.132 45.2509 111.987 45.4234 111.863 45.4879L112.402 46.5479C113.014 46.2286 113.3 45.5995 113.364 44.9813C113.429 44.3565 113.283 43.6568 112.948 43.0105L111.879 43.5791ZM110.299 42.4918C110.424 42.4263 110.653 42.4069 110.978 42.5887C111.296 42.7668 111.633 43.1055 111.879 43.5791L112.948 43.0105C112.613 42.364 112.126 41.8443 111.582 41.5398C111.044 41.2392 110.371 41.1133 109.76 41.4317L110.299 42.4918ZM110.283 44.4005C110.038 43.9267 109.956 43.4568 109.993 43.0961C110.031 42.7287 110.175 42.5562 110.299 42.4918L109.76 41.4317C109.148 41.7511 108.862 42.3801 108.798 42.9983C108.734 43.6232 108.879 44.3229 109.214 44.9692L110.283 44.4005ZM111.863 45.4879C111.738 45.5534 111.51 45.5727 111.184 45.3909C110.866 45.2129 110.529 44.8741 110.283 44.4005L109.214 44.9692C109.549 45.6156 110.036 46.1354 110.58 46.4398C111.118 46.7405 111.791 46.8663 112.402 46.5479L111.863 45.4879Z" fill="#563B00" mask="url(#path-7-outside-1_9648_16477)"/>
<path d="M146.326 77.3879C144.902 65.5375 133.101 60.9558 127.379 60.1462C122.5 56.7788 116.8 55.8 110.987 56.2782C98.6488 57.2933 78.5708 74.0673 78.0995 92.3631C77.8782 100.953 82.0029 134.134 116.184 117.78C116.88 117.447 117.438 116.832 117.699 116.105L119.248 111.787L146.326 77.3879Z" fill="#FD8E02"/>
<path d="M127.379 60.1462C133.101 60.9558 144.902 65.5375 146.326 77.3879L119.248 111.787M127.379 60.1462C128.529 60.9672 131.272 63.282 133.042 65.9736M127.379 60.1462C122.5 56.7788 116.8 55.8 110.987 56.2782M119.248 111.787L117.699 116.105C117.438 116.832 116.88 117.447 116.184 117.78C82.0029 134.134 77.8782 100.953 78.0995 92.3631C78.5708 74.0673 98.6488 57.2933 110.987 56.2782M119.248 111.787C116.404 112.436 109.332 113.461 103.801 112.371M110.987 56.2782C105.167 57.2532 93.0685 61.7634 91.2367 72.0044C91.0344 73.2888 92.8603 70.9805 93.7985 69.6659C91.7536 73.3655 87.8049 81.6096 88.3696 84.9889C88.4152 86.0929 89.5333 83.9839 90.0866 82.7915C89.2615 85.1294 88.1861 90.3344 90.4851 92.4512" stroke="#563B00" stroke-width="0.6" stroke-linejoin="round"/>
<path d="M126.735 69.4618C120.273 61.6178 114.706 62.0131 112.623 63.3082C104.207 62.4218 101.42 65.3831 101.078 66.9745C96.9221 68.2944 96.7666 71.1398 97.2083 72.3976C93.7516 76.2405 93.1431 82.5427 93.271 85.2135C93.3402 88.9535 94.3914 92.6105 94.9083 93.9715C95.3466 98.1535 107.31 116.215 126.711 109.673C134.221 107.14 137.744 104.301 139.074 101.748C141.851 98.7907 142.83 94.7098 142.973 93.0391C147.436 89.8483 148.119 84.8796 147.751 82.275C150.183 79.3675 147.42 76.8302 145.734 75.925C144.189 70.417 138.254 69.4461 135.48 69.6491C131.637 66.1923 128.049 68.0839 126.735 69.4618Z" fill="#F2DAB3"/>
<path d="M112.623 63.3082C114.706 62.0131 120.273 61.6178 126.735 69.4618M112.623 63.3082C104.207 62.4218 101.42 65.3831 101.078 66.9745M112.623 63.3082C114.064 63.4437 117.637 64.2073 120.398 66.1776M128.102 71.2294C127.643 70.5983 127.187 70.01 126.735 69.4618M126.735 69.4618C128.049 68.0839 131.637 66.1923 135.48 69.6491M135.48 69.6491C138.254 69.4461 144.189 70.417 145.734 75.925M135.48 69.6491C134.279 69.7342 131.496 70.2283 129.976 71.5245M145.734 75.925C147.42 76.8302 150.183 79.3675 147.751 82.275M145.734 75.925C143.899 74.8134 139.4 72.6244 136.088 72.761M147.751 82.275C147.338 82.5756 146.094 81.9091 142.385 79.7849C137.103 76.7597 128.908 76.5662 127.515 80.1856M147.751 82.275C148.119 84.8796 147.436 89.8483 142.973 93.0391M138.027 95.2765C137.579 94.697 136.856 93.8839 135.918 92.9951M138.027 95.2765C140.043 94.7511 141.669 93.9709 142.973 93.0391M138.027 95.2765C139.418 96.6278 140.493 99.025 139.074 101.748M126.711 109.673C107.31 116.215 95.3466 98.1535 94.9083 93.9715M126.711 109.673C119.934 110.342 105.746 108.73 103.218 96.925M126.711 109.673C134.221 107.14 137.744 104.301 139.074 101.748M94.9083 93.9715C95.607 92.4363 97.9196 89.1261 101.58 88.167M94.9083 93.9715C94.3914 92.6105 93.3402 88.9535 93.271 85.2135M101.58 88.167C100.28 87.1396 97.512 84.4005 96.8462 81.6634M101.58 88.167C102.352 88.8409 104.615 89.7891 105.651 90.1789M96.8462 81.6634C96.0484 82.0862 94.2165 83.3881 93.271 85.2135M96.8462 81.6634C96.5878 80.9829 96.0961 79.4613 96.1972 78.8192M93.271 85.2135C93.1431 82.5427 93.7516 76.2405 97.2083 72.3976M97.2083 72.3976C96.7666 71.1398 96.9221 68.2944 101.078 66.9745M97.2083 72.3976C102.681 71.8883 114.304 73.1699 122.147 77.6952C122.539 78.2337 122.461 82.3016 121.206 86.8699M97.2083 72.3976C96.5764 76.4111 97.9539 82.2846 103.255 86.2371C107.918 89.7132 116.81 88.1885 121.206 86.8699M101.078 66.9745C105.143 66.7005 114.453 66.6674 119.174 68.7269M127.941 87.9303C131.161 89.0273 133.993 91.1707 135.918 92.9951M125.4 72.7233C125.735 73.6338 126.118 74.8382 126.49 76.248M146.639 82.3741C146.991 84.7859 145.339 90.2865 135.918 92.9951M121.206 86.8699C120.781 88.4174 120.369 89.8881 120.04 91.0735M133.37 72.6072C131.496 72.9023 127.496 74.0435 126.49 76.248M126.49 76.248C127.729 80.9477 128.844 87.9301 127.646 93.9163M127.646 93.9163C127.557 94.3632 127.455 94.8045 127.339 95.2389C126.593 96.4925 119.143 95.0453 119.354 93.7075C119.401 93.4077 119.666 92.4264 120.04 91.0735M127.646 93.9163C129.548 94.3986 133.129 96.4249 132.241 100.672C131.131 105.981 115.605 103.853 112.639 99.7795C109.483 95.4438 111.957 92.2687 120.04 91.0735M109.736 93.8384C109.239 94.6741 108.659 96.8495 110.316 98.8652M142.973 93.0391C142.83 94.7098 141.851 98.7907 139.074 101.748M126.07 92.8456L124.521 93.9727M122.381 93.6357L120.986 92.0451" stroke="#563B00" stroke-width="0.6" stroke-linejoin="round"/>
<path d="M127.594 80.0952C128.987 76.4758 137.182 76.6692 142.464 79.6945C144.43 80.8205 145.703 81.537 146.528 81.9168L146.718 82.2837C147.069 84.6954 145.418 90.196 135.997 92.9046C134.071 91.0802 131.24 88.9368 128.02 87.8399L127.594 80.0952Z" fill="white"/>
<path d="M118.275 74.2134C110.784 71.8903 101.661 71.9 97.2872 72.3071C96.6552 76.3206 98.0327 82.1942 103.334 86.1467C107.997 89.6228 116.889 88.0981 121.285 86.7795C121.72 85.1972 122.167 83.5347 122.55 82.015C123.468 78.3718 121.864 75.3263 118.275 74.2134Z" fill="white"/>
<path d="M127.594 80.0952C128.987 76.4758 137.182 76.6692 142.464 79.6945C144.43 80.8205 145.703 81.537 146.528 81.9168L146.718 82.2837C147.069 84.6954 145.418 90.196 135.997 92.9046C134.071 91.0802 131.24 88.9368 128.02 87.8399L127.594 80.0952Z" stroke="#563B00" stroke-width="0.6" stroke-linejoin="round"/>
<path d="M118.275 74.2134C110.784 71.8903 101.661 71.9 97.2872 72.3071C96.6552 76.3206 98.0327 82.1942 103.334 86.1467C107.997 89.6228 116.889 88.0981 121.285 86.7795C121.72 85.1972 122.167 83.5347 122.55 82.015C123.468 78.3718 121.864 75.3263 118.275 74.2134Z" stroke="#563B00" stroke-width="0.6" stroke-linejoin="round"/>
<path d="M127.717 95.0551C127.71 95.0818 127.699 95.1073 127.685 95.131C127.531 95.3886 127.24 95.5312 126.943 95.6153C126.634 95.7026 126.255 95.7451 125.842 95.7553C125.014 95.7757 123.997 95.6671 123.019 95.4783C122.041 95.2896 121.082 95.0169 120.373 94.7001C120.021 94.5426 119.713 94.3663 119.494 94.1713C119.284 93.9834 119.095 93.7198 119.146 93.3996C119.19 93.1147 119.409 92.2941 119.716 91.1797C115.948 91.7884 113.558 92.8393 112.444 94.1793C111.876 94.8629 111.637 95.6254 111.715 96.4693C111.794 97.3233 112.2 98.2838 112.97 99.3417C113.657 100.285 115.112 101.157 116.988 101.841C118.851 102.52 121.078 102.997 123.25 103.184C125.425 103.371 127.522 103.265 129.131 102.796C130.75 102.324 131.792 101.514 132.036 100.35C132.458 98.3309 131.821 96.8595 130.859 95.8256C129.988 94.8902 128.844 94.3092 127.963 94.0319C127.889 94.3764 127.807 94.7177 127.717 95.0551ZM93.6607 85.0234C93.7311 88.2014 94.513 91.3129 95.0491 92.9528C95.4731 92.2049 96.1312 91.2709 97.0081 90.3814C98.0444 89.3301 99.398 88.3292 101.046 87.7784C100.409 87.2262 99.5939 86.4247 98.8305 85.4842C97.9658 84.4189 97.1506 83.1544 96.7488 81.8559C95.8958 82.3852 94.4634 83.5209 93.6607 85.0234ZM140.028 99.9483C141.671 97.6232 142.43 94.9683 142.681 93.3967C141.562 94.112 140.238 94.7201 138.676 95.1721C139.674 96.317 140.411 98.0058 140.028 99.9483Z" fill="#9B5500" stroke="#563B00" stroke-width="0.6" stroke-linejoin="round"/>
<path d="M138.193 88.9959C142.079 89.3885 144.1 83.985 144.624 81.2341C139.029 76.3195 132.344 77.2429 129.426 78.4064C129.328 78.4399 129.233 78.4801 129.148 78.5231C129.236 78.4841 129.329 78.4451 129.426 78.4064C130.124 78.1685 131.025 78.2672 130.542 80.1137C129.841 86.3099 133.334 88.5051 138.193 88.9959Z" fill="#563B00"/>
<path d="M115.293 82.9226C118.829 79.9696 117.543 75.5992 116.458 73.7832C113.382 72.4214 106.201 72.1682 102.995 72.2118C100.701 74.5926 100.379 78.3807 102.591 81.7452C104.803 85.1098 110.873 86.6139 115.293 82.9226Z" fill="#563B00"/>
<path d="M138.193 88.9959C142.079 89.3885 144.1 83.985 144.624 81.2341C139.029 76.3195 132.344 77.2429 129.426 78.4064C129.328 78.4399 129.233 78.4801 129.148 78.5231C129.236 78.4841 129.329 78.4451 129.426 78.4064C130.124 78.1685 131.025 78.2672 130.542 80.1137C129.841 86.3099 133.334 88.5051 138.193 88.9959Z" stroke="#563B00" stroke-width="0.6" stroke-linejoin="round"/>
<path d="M115.293 82.9226C118.829 79.9696 117.543 75.5992 116.458 73.7832C113.382 72.4214 106.201 72.1682 102.995 72.2118C100.701 74.5926 100.379 78.3807 102.591 81.7452C104.803 85.1098 110.873 86.6139 115.293 82.9226Z" stroke="#563B00" stroke-width="0.6" stroke-linejoin="round"/>
<path d="M141.935 84.3751C142.823 80.1277 139.995 79.8651 138.469 80.2647C140.076 80.5177 139.962 82.9676 140.061 84.08C140.16 85.1924 141.062 86.4312 141.935 84.3751Z" fill="white"/>
<path d="M137.5 86.4188C136.918 86.0529 135.719 85.5351 135.584 86.3913C135.416 87.4616 138.051 88.1508 137.5 86.4188Z" fill="white"/>
<path d="M134.638 80.2099C134.887 81.5288 135.119 84.1244 134.048 83.9559C132.71 83.7452 132.765 79.915 134.638 80.2099Z" fill="white"/>
<path d="M114.922 76.5572C114.369 74.4959 112.279 74.77 111.303 75.1647C110.599 76.1507 112.697 76.7554 113.022 78.1775C113.346 79.5997 110.953 80.868 113.009 81.7402C115.066 82.6123 115.613 79.1339 114.922 76.5572Z" fill="white"/>
<path d="M104.883 79.3638C106.281 80.2419 106.45 76.9599 106.36 75.2091C106.327 74.8383 106.039 74.1166 105.149 74.1958C104.036 74.2947 103.137 78.2662 104.883 79.3638Z" fill="white"/>
<path d="M109.405 81.9951C110.207 82.1215 110.405 84.3464 108.082 83.4321C105.758 82.5178 107.658 80.8974 109.405 81.9951Z" fill="white"/>
<path d="M124.888 100.336C127.491 100.526 127.675 98.3066 126.336 98.0959C117.45 95.3259 116.916 98.4993 117.395 99.156C117.846 99.7755 121.635 100.098 124.888 100.336Z" fill="#563B00" stroke="#563B00" stroke-width="0.6" stroke-linejoin="round"/>
<path d="M120.726 102.422C121.616 102.343 122.119 100.539 122.259 99.6472C121.95 99.8726 121.195 100.138 120.654 99.3944C120.113 98.6511 119.208 98.7097 118.823 98.8319C118.443 99.5033 117.802 101.139 118.276 102.31C118.868 103.775 118.023 103.916 118.305 105.605C118.588 107.295 119.291 106.309 119.46 105.239C119.612 104.274 119.613 102.521 120.726 102.422Z" fill="white" stroke="#563B00" stroke-width="0.6" stroke-linejoin="round"/>
<path d="M196.271 91.7557C193.97 87.8617 183.506 81.5692 170.098 84.8361C167.601 88.6333 165.72 111.122 171.611 126.755L167.99 137.046L154.818 140.938C158.721 144.347 169.193 150.661 179.858 148.642C179.858 148.642 176.251 142.86 170.886 138.097C169.949 137.265 174.429 128.55 174.429 128.55C180.314 123.952 193.7 108.435 196.271 91.7557Z" fill="white"/>
<path d="M154.818 140.938L167.99 137.046L171.611 126.755C165.72 111.122 167.601 88.6333 170.098 84.8361C183.506 81.5692 193.97 87.8617 196.271 91.7557C193.7 108.435 180.314 123.952 174.429 128.55C174.429 128.55 169.949 137.265 170.886 138.097C176.251 142.86 179.858 148.642 179.858 148.642M154.818 140.938C158.721 144.347 169.193 150.661 179.858 148.642M154.818 140.938C163.589 142.894 175.166 146.889 179.858 148.642" stroke="#563B00" stroke-width="0.6"/>
<path d="M174.574 121.353C181.451 117.619 188.623 105.514 191.226 96.4848C182.167 90.6055 175.401 91.6441 172.653 93.5125C169.264 106.501 172.522 117.485 174.574 121.353Z" fill="#FABC09"/>
<ellipse cx="1.14524" cy="1.90874" rx="1.14524" ry="1.90874" transform="matrix(-0.471403 -0.881918 -0.881918 0.471403 183.817 103.561)" fill="white"/>
<ellipse cx="1.14524" cy="1.90874" rx="1.14524" ry="1.90874" transform="matrix(-0.471403 -0.881918 -0.881918 0.471403 179.9 112.709)" fill="white"/>
<ellipse cx="1.98899" cy="2.06003" rx="1.98899" ry="2.06003" transform="matrix(0.605085 -0.796161 -0.796161 -0.605085 176.899 108.459)" fill="white"/>
<path d="M178.474 111.277C178.939 101.363 192.535 97.9405 193.47 109.563C193.015 123.079 186.822 126.546 183.639 125.52C178.336 123.809 178.107 119.114 178.474 111.277Z" fill="#FFA725"/>
<path d="M172.453 109.335C173.189 105.279 170.911 102.417 167.547 102.763C167.235 102.923 164.751 104.204 165.608 108.774C166.465 113.345 171.101 116.792 172.453 109.335Z" fill="#FFA725"/>
<path d="M178.474 111.277C178.939 101.363 192.535 97.9405 193.47 109.563C193.015 123.079 186.822 126.546 183.639 125.52C178.336 123.809 178.107 119.114 178.474 111.277Z" stroke="#563B00" stroke-width="0.6"/>
<path d="M172.453 109.335C173.189 105.279 170.911 102.417 167.547 102.763C167.235 102.923 164.751 104.204 165.608 108.774C166.465 113.345 171.101 116.792 172.453 109.335Z" stroke="#563B00" stroke-width="0.6"/>
<path d="M47.4444 84.8071L49.478 77.8906L29.5448 73.0098L27.5107 79.9255L35.647 86.4335L47.4444 84.8071Z" fill="#46B1CF" stroke="#563B00" stroke-width="0.6"/>
<path d="M47.858 82.213C43.6284 85.2777 34.9675 83.2706 32.2181 78.9047C21.4495 61.8051 6.01164 67.0479 0.286224 75.1559C-6.8142 85.7038 -6.98579 88.3608 -7.49326 96.2183L-7.49662 96.2703C-10.4595 106.402 -15.4171 132.317 -11.5446 154.929L65.9041 156.302C65.9041 156.302 58.6621 118.538 60.1926 111.164C61.3018 105.82 60.6871 96.9943 61.5484 92.7992C62.9884 85.7861 53.145 78.3821 47.858 82.213Z" fill="#FF9429"/>
<path d="M22.2545 122.58C18.9486 123.839 10.7623 128.309 8.20085 138.801C7.20058 139.609 4.40128 140.245 1.20627 136.331C-1.38857 133.151 -8.4443 116.102 -7.49662 96.2703M22.2545 122.58C22.7089 123.25 23.3701 123.805 24.1643 124.263C24.9607 123.021 25.3956 121.79 23.6866 119.262C22.9253 118.544 22.0112 118.272 21.0185 118.319M22.2545 122.58C22.5662 122.373 23.3168 122.005 23.8255 122.185M10.8672 125.181C13.0794 122.595 17.5335 118.487 21.0185 118.319M21.0185 118.319C18.0795 114.96 13.5061 103.13 18.7243 82.686M51.4336 97.4051C48.5041 106.712 42.1435 119.538 45.0986 132.232M-7.49662 96.2703C-6.98652 88.3725 -6.82986 85.727 0.286224 75.1559C6.01164 67.0479 21.4495 61.8051 32.2181 78.9047C34.9675 83.2706 43.6284 85.2777 47.858 82.213C53.145 78.3821 62.9884 85.7861 61.5484 92.7992C60.6871 96.9943 61.3018 105.82 60.1926 111.164C58.6621 118.538 65.9041 156.302 65.9041 156.302L-11.5446 154.929C-15.4171 132.317 -10.4595 106.402 -7.49662 96.2703Z" stroke="#563B00" stroke-width="0.6"/>
<path d="M30.0297 9.96996C44.7283 8.1329 43.7683 22.4132 41.2642 28.7612C46.5113 28.1696 53.1806 28.9783 57.0497 29.719C60.0968 22.9272 65.427 20.1133 69.7858 20.5199C76.5912 21.1547 77.3661 28.4254 74.4232 31.758C72.0689 34.4242 70.9878 37.0077 70.7416 37.9661C71.733 39.0163 71.4762 39.7809 71.2238 40.0319C74.8512 42.3474 74.4146 45.0727 73.7429 46.146C78.1449 51.162 74.8888 54.5517 72.7105 55.6195C72.5886 56.8052 71.3385 57.6593 70.7287 57.9382L70.1644 60.6979C70.7446 60.5643 72.914 61.2601 72.5577 63.0031C72.2013 64.7461 70.8939 65.9768 67.4737 65.7467C69.1386 71.1716 64.0059 73.6127 61.2315 74.1551C55.7539 80.2986 46.5648 81.2445 42.6549 80.9494C25.9715 79.9594 16.3878 67.1046 15.4461 58.438C14.5043 49.7713 19.6979 36.6593 23.3226 30.2378C16.5031 20.8233 24.0591 10.4137 30.0297 9.96996Z" fill="#46B1CF"/>
<path d="M62.2964 73.8822C61.9187 74.0007 61.5587 74.0911 61.2315 74.1551C57.0152 78.8839 50.6 80.5333 46.086 80.9075C58.252 78.4309 65.1589 65.5646 68.8577 58.6745L68.8618 58.6668C69.0324 58.349 69.1962 58.0439 69.3533 57.7532C70.0203 58.1717 70.9649 57.7348 71.8286 57.1897C71.4429 57.5493 71.0152 57.8072 70.7287 57.9382L70.1644 60.6979C70.4788 60.6255 71.2599 60.7967 71.8528 61.246C71.0409 62.6804 70.0357 64.2026 68.9136 65.7521C68.4814 65.7829 68.0028 65.7823 67.4737 65.7467C67.6394 66.2867 67.7378 66.7971 67.7779 67.2791C66.0656 69.5242 64.1629 71.7851 62.2964 73.8822Z" fill="#2D8BAA"/>
<path d="M70.8572 37.5826C70.8077 37.7296 70.7693 37.8582 70.7416 37.9661C71.6638 38.9429 71.506 39.6727 71.2763 39.9719C71.2611 39.9743 71.2458 39.9758 71.2306 39.9765C65.9703 38.198 61.0856 38.9762 59.3007 39.5876C61.2482 36.9395 67.6606 36.9032 70.6234 37.2161C70.7076 37.3437 70.7855 37.4658 70.8572 37.5826Z" fill="#2D8BAA"/>
<path d="M56.4939 29.6157C56.6849 29.6502 56.8703 29.6846 57.0497 29.719C60.0968 22.9272 65.427 20.1133 69.7858 20.5199C71.2692 20.6583 72.4661 21.1119 73.4004 21.7714C67.3872 22.1711 62.581 27.3407 62.4311 31.4403L56.4939 29.6157Z" fill="#2D8BAA"/>
<path d="M38.4294 11.2947C38.5283 13.4005 37.2933 17.2364 35.0008 21.1452C34.8858 21.7075 31.0178 20.3308 24.801 26.3825C23.7087 28.3495 25.1235 30.5353 26.9239 30.3314C21.7 36.7814 14.023 54.4657 25.1061 73.6036L24.3489 73.6659C19.006 69.0637 15.9565 63.1356 15.4461 58.438C14.5043 49.7713 19.6979 36.6593 23.3226 30.2378C16.5031 20.8233 24.0591 10.4137 30.0297 9.96996C33.7624 9.50344 36.4852 10.0763 38.4294 11.2947Z" fill="#2D8BAA"/>
<path d="M33.3842 33.1169C36.3295 33.0357 44.251 34.4015 48.3356 37.3456C48.853 34.8152 41.0987 29.7733 33.3842 33.1169Z" fill="#2D8BAA"/>
<path d="M32.0069 52.752C47.2508 57.2748 63.2091 60.5964 70.1868 60.8514C71.0878 60.7427 72.2923 61.3893 72.5448 62.2123C73.4078 65.025 69.6399 65.9145 67.6888 65.906C69.2743 76.775 54.9866 75.0252 42.1683 71.8185C29.35 68.6117 24.5253 64.9891 22.8698 57.3278C21.5453 51.1988 28.4093 51.7235 32.0069 52.752Z" fill="#E03394"/>
<path d="M27.889 15.5891C33.2614 12.2353 36.9052 17.335 38.0556 20.304C34.6305 21.0097 28.8884 23.1162 26.4456 24.0813C25.0241 19.5727 26.8156 16.5413 27.889 15.5891Z" fill="#E03394"/>
<path d="M27.8021 61.8521C23.0578 55.2582 29.6675 55.5942 33.5654 56.5864C37.5937 62.0967 43.807 65.7104 46.41 66.8284C57.8355 69.3988 57.637 64.9255 56.1095 62.3675L62.7423 64.3095C65.3494 65.3113 64.5275 67.9942 63.7906 69.2105C59.2157 72.9618 33.7325 70.0946 27.8021 61.8521Z" fill="#870755"/>
<path d="M26.6705 24.4222C25.2099 22.9519 25.018 15.2974 30.1458 14.5879C35.2736 13.8785 37.8757 18.8046 37.9994 20.5874C33.5871 21.1498 24.7128 23.3775 24.5138 27.789C24.3147 32.2006 32.4248 29.6995 36.5047 27.8975" stroke="#563B00" stroke-width="0.6"/>
<path d="M33.0427 33.3396C38.5784 33.0069 49.687 34.1652 49.8358 41.4598M27.8041 47.4999C30.7181 50.439 43.5876 54.8278 47.0441 49.3834" stroke="#563B00" stroke-width="0.6" stroke-linecap="round"/>
<path d="M23.3226 30.2378C16.5031 20.8233 24.0591 10.4137 30.0297 9.96996C44.7283 8.1329 43.7683 22.4132 41.2642 28.7612C46.5113 28.1695 53.1806 28.9783 57.0497 29.719M23.3226 30.2378C19.6979 36.6593 14.5043 49.7713 15.4461 58.438C16.3878 67.1046 25.9715 79.9594 42.6549 80.9494C46.5648 81.2445 55.7539 80.2986 61.2315 74.1551M23.3226 30.2378C23.5642 30.6588 24.2046 31.5915 24.8333 31.9544M61.2315 74.1551C64.0059 73.6127 69.1386 71.1716 67.4737 65.7467M61.2315 74.1551C58.7031 75.0047 41.3734 72.8289 33.0222 69.071C24.671 65.3131 22.2411 58.9581 22.7648 54.9644C23.2885 50.9707 30.1527 51.7809 35.3502 53.5796C40.5478 55.3783 62.3631 60.4246 65.8519 60.5522C69.3408 60.6797 69.3154 60.7697 70.1644 60.6979M67.4737 65.7467C70.8939 65.9768 72.2013 64.7461 72.5577 63.0031C72.914 61.2601 70.7446 60.5643 70.1644 60.6979M67.4737 65.7467C66.6307 65.5021 65.4578 65.1648 64.1086 64.7809M70.1644 60.6979C70.2733 60.1653 70.5386 58.8678 70.7287 57.9382M70.7287 57.9382C71.3385 57.6593 72.5886 56.8052 72.7105 55.6195C74.8888 54.5517 78.1449 51.162 73.7429 46.146C74.4146 45.0727 74.8512 42.3474 71.2238 40.0319M70.7287 57.9382C68.3177 58.3531 61.9719 58.3267 55.8767 54.9014M71.2238 40.0319C71.4762 39.7809 71.733 39.0163 70.7416 37.9661M71.2238 40.0319C68.9597 39.1595 63.2137 37.9272 58.3423 39.9775M70.7416 37.9661C70.9878 37.0077 72.0689 34.4242 74.4232 31.758C77.3661 28.4254 76.5912 21.1547 69.7858 20.5199C65.427 20.1133 60.0968 22.9272 57.0497 29.719M70.7416 37.9661C69.1029 33.2909 60.9309 30.52 57.0497 29.719M64.1086 64.7809C67.5734 75.054 45.7758 69.9212 39.9289 68.4328C34.0821 66.9445 25.3213 62.517 26.0174 57.6798C26.2764 55.8806 29.3079 55.7829 33.3001 56.4437M64.1086 64.7809C61.6168 64.072 58.5233 63.2044 55.7939 62.4691M33.3001 56.4437C40.0405 57.5592 49.5194 60.8366 53.0148 61.7353C53.8626 61.9532 54.8043 62.2025 55.7939 62.4691M33.3001 56.4437C35.533 59.3708 41.562 65.6033 47.8139 67.1159C55.6288 69.0067 58.2281 64.8898 55.7939 62.4691" stroke="#563B00" stroke-width="0.6" stroke-linecap="round" stroke-linejoin="round"/>
<path d="M50.9047 46.0649C50.5079 47.6102 49.0253 48.7827 46.8269 49.3772C44.6385 49.9691 41.8054 49.965 38.8527 49.2069C35.9 48.4488 33.4154 47.0875 31.7828 45.5146C30.1427 43.9345 29.4083 42.1928 29.8051 40.6475C30.2019 39.1022 31.6845 37.9297 33.8829 37.3352C36.0713 36.7434 38.9044 36.7474 41.8571 37.5055C44.8098 38.2637 47.2944 39.625 48.927 41.1978C50.5671 42.7779 51.3015 44.5196 50.9047 46.0649Z" fill="white" stroke="#563B00" stroke-width="0.6"/>
<path d="M45.2847 44.1264C45.1469 45.0026 44.43 45.7525 43.2812 46.226C42.1382 46.6971 40.6149 46.87 38.9866 46.6139C37.3582 46.3578 35.9615 45.7257 35.0183 44.9265C34.0703 44.1232 33.6182 43.1895 33.756 42.3132C33.8938 41.437 34.6108 40.6871 35.7595 40.2136C36.9025 39.7425 38.4258 39.5696 40.0541 39.8257C41.6825 40.0818 43.0792 40.7139 44.0224 41.5131C44.9704 42.3164 45.4225 43.2501 45.2847 44.1264Z" fill="#563B00" stroke="#563B00" stroke-width="0.6"/>
<ellipse cx="41.8477" cy="43.0514" rx="1.62473" ry="1.07771" transform="rotate(8.93776 41.8477 43.0514)" fill="white"/>
<path d="M76.3869 51.918C75.9554 53.6275 74.4306 54.9276 72.2206 55.609C70.0159 56.2888 67.1765 56.3335 64.2307 55.5633C61.2849 54.7932 58.8183 53.3612 57.2086 51.6842C55.595 50.0031 54.8748 48.116 55.3064 46.4065C55.738 44.697 57.2628 43.3969 59.4728 42.7155C61.6774 42.0357 64.5169 41.991 67.4626 42.7612C70.4084 43.5313 72.8751 44.9633 74.4848 46.6403C76.0983 48.3214 76.8185 50.2084 76.3869 51.918Z" fill="white" stroke="#563B00" stroke-width="0.6"/>
<path d="M70.7804 49.9151C70.6228 50.8931 69.8753 51.7239 68.719 52.2555C67.5651 52.786 66.0372 52.9993 64.4122 52.7505C62.7872 52.5017 61.3999 51.842 60.4684 50.9921C59.5349 50.1405 59.0845 49.1263 59.2421 48.1483C59.3996 47.1702 60.1472 46.3395 61.3035 45.8079C62.4573 45.2774 63.9853 45.0641 65.6103 45.3129C67.2352 45.5617 68.6226 46.2214 69.5541 47.0712C70.4876 47.9229 70.9379 48.937 70.7804 49.9151Z" fill="#563B00" stroke="#563B00" stroke-width="0.6"/>
<ellipse cx="1.62504" cy="1.17318" rx="1.62504" ry="1.17318" transform="matrix(0.988479 0.15136 -0.159036 0.987273 65.9297 47.4023)" fill="white"/>
<mask id="mask0_9648_16477" style="mask-type:alpha" maskUnits="userSpaceOnUse" x="34" y="0" width="45" height="36">
<path d="M41.2875 28.9865C45.1725 18.76 41.2583 12.8338 39.1951 11.643L34.3306 9.11062L36.1414 0.254159L43.1807 0.924551L63.0291 0.369506L73.7704 10.511L78.8141 17.1808L74.0118 23.1189L65.1672 30.0246L64.2617 34.4528L62.0823 35.0372C56.5276 36.5265 50.6102 35.7751 45.6041 32.9447L41.2875 28.9865Z" fill="#D9D9D9"/>
</mask>
<g mask="url(#mask0_9648_16477)">
<path fill-rule="evenodd" clip-rule="evenodd" d="M51.8282 7.97916C52.3384 7.82773 52.7264 7.34287 52.7671 6.73062C52.8197 5.94041 52.2739 5.23724 51.5481 5.16004C50.8224 5.08284 50.1914 5.66084 50.1389 6.45105C50.1096 6.89137 50.2661 7.30468 50.536 7.59771C50.2658 8.7389 49.3712 11.0924 47.6718 12.402L53.4141 12.2279C52.8229 11.552 51.7478 9.82104 51.8282 7.97916Z" fill="#563B00"/>
<path fill-rule="evenodd" clip-rule="evenodd" d="M62.4251 11.8721C62.1877 11.4193 62.2233 10.826 62.5627 10.3555C63.0254 9.71408 63.8773 9.54354 64.4656 9.9746C65.0539 10.4057 65.1557 11.2751 64.693 11.9165C64.4181 12.2977 64.0056 12.5126 63.5926 12.5337C63.0725 13.5901 62.2702 15.9547 62.7199 18.0793L58.4931 14.0594C59.3788 13.9479 61.3239 13.3559 62.4251 11.8721Z" fill="#563B00"/>
<path d="M51.9125 23.6985C54.626 24.7116 57.3321 25.0023 59.5205 24.6393C61.6996 24.2779 63.4297 23.2524 64.057 21.5722C64.6843 19.892 64.0496 17.9835 62.6406 16.2825C61.2255 14.5742 58.991 13.0203 56.2775 12.0072C53.5641 10.9941 50.8579 10.7034 48.6696 11.0663C46.4905 11.4278 44.7604 12.4533 44.1331 14.1335C43.5058 15.8137 44.1404 17.7222 45.5495 19.4232C46.9646 21.1315 49.1991 22.6854 51.9125 23.6985Z" fill="#FF9900" stroke="#563B00" stroke-width="0.6"/>
<mask id="path-46-outside-2_9648_16477" maskUnits="userSpaceOnUse" x="29.9223" y="-2.14911" width="47.5682" height="43.9843" fill="black">
<rect fill="white" x="29.9223" y="-2.14911" width="47.5682" height="43.9843"/>
<path fill-rule="evenodd" clip-rule="evenodd" d="M57.4181 10.9744C58.434 11.0957 59.414 10.5447 59.7643 9.57517C60.1818 8.41957 59.5465 7.10709 58.3453 6.64367C57.1442 6.18025 55.8319 6.74137 55.4144 7.89697C55.0681 8.85559 55.4462 9.92215 56.2708 10.5224L56.206 10.6577L55.9373 10.5529C54.7835 13.2399 51.9825 17.8702 49.0821 16.7393C46.2528 15.636 45.2973 11.5468 45.0615 9.75438C45.2301 9.8135 45.4024 9.83339 45.5729 9.80792C46.4329 9.67948 46.9229 8.44613 46.6675 7.05315C46.412 5.66017 45.5078 4.63506 44.6478 4.7635C43.7879 4.89194 43.2978 6.12529 43.5532 7.51827C43.7258 8.45926 44.1944 9.23237 44.7455 9.59543L44.382 9.52299C44.4546 11.4023 43.9118 14.0873 42.6723 13.3073C41.5648 12.6103 40.6726 9.51598 40.3944 7.89809C40.5572 7.90238 40.7033 7.86326 40.8216 7.77563C41.2949 7.42517 41.1458 6.43148 40.4885 5.55617C39.8313 4.68087 38.9147 4.2554 38.4414 4.60586C37.9681 4.95632 38.1172 5.95001 38.7745 6.82532C38.8317 6.90149 38.8908 6.97427 38.9515 7.04341L38.4782 6.92416C39.0893 7.7135 40.0819 10.5592 40.735 13.2301C41.3881 15.9009 42.0217 22.125 40.2503 22.8331C39.9717 22.6962 39.3381 22.5368 39.0822 23.3526C38.7624 24.3724 39.5607 27.1368 46.0955 31.3437C46.9305 31.8813 50.3782 33.48 51.5296 33.6322L51.6122 33.2947C51.6954 33.3133 51.7689 33.3281 51.8314 33.3387C59.4068 34.634 61.7441 33.0923 62.1423 32.103C62.4608 31.3116 61.8821 30.9983 61.5858 30.9111C60.692 29.1636 65.0752 24.8959 67.2442 23.3254C69.4131 21.7549 71.948 20.2848 72.9048 20.1068L72.2096 19.7307C72.469 19.7496 72.7503 19.7327 73.0378 19.6748C74.0769 19.4653 74.8043 18.7985 74.6624 18.1855C74.5205 17.5725 73.563 17.2454 72.5239 17.4549C71.4847 17.6644 70.7574 18.3311 70.8993 18.9441C70.9306 19.0793 71.0015 19.2006 71.1043 19.3053C70.0336 20.284 67.1045 22.3071 65.7323 22.0577C64.3066 21.7984 65.5811 19.3987 66.8149 18.0289L66.2277 17.6727C64.9775 18.8384 61.6198 21.3866 58.7375 20.2627C55.8633 19.1419 56.6122 13.8143 57.4181 10.9744ZM66.858 14.5164C65.8017 15.3831 65.4225 16.6625 66.0111 17.374C66.5997 18.0855 67.9332 17.9597 68.9895 17.093C70.0458 16.2263 70.4249 14.947 69.8363 14.2355C69.2477 13.524 67.9143 13.6498 66.858 14.5164Z"/>
</mask>
<path fill-rule="evenodd" clip-rule="evenodd" d="M57.4181 10.9744C58.434 11.0957 59.414 10.5447 59.7643 9.57517C60.1818 8.41957 59.5465 7.10709 58.3453 6.64367C57.1442 6.18025 55.8319 6.74137 55.4144 7.89697C55.0681 8.85559 55.4462 9.92215 56.2708 10.5224L56.206 10.6577L55.9373 10.5529C54.7835 13.2399 51.9825 17.8702 49.0821 16.7393C46.2528 15.636 45.2973 11.5468 45.0615 9.75438C45.2301 9.8135 45.4024 9.83339 45.5729 9.80792C46.4329 9.67948 46.9229 8.44613 46.6675 7.05315C46.412 5.66017 45.5078 4.63506 44.6478 4.7635C43.7879 4.89194 43.2978 6.12529 43.5532 7.51827C43.7258 8.45926 44.1944 9.23237 44.7455 9.59543L44.382 9.52299C44.4546 11.4023 43.9118 14.0873 42.6723 13.3073C41.5648 12.6103 40.6726 9.51598 40.3944 7.89809C40.5572 7.90238 40.7033 7.86326 40.8216 7.77563C41.2949 7.42517 41.1458 6.43148 40.4885 5.55617C39.8313 4.68087 38.9147 4.2554 38.4414 4.60586C37.9681 4.95632 38.1172 5.95001 38.7745 6.82532C38.8317 6.90149 38.8908 6.97427 38.9515 7.04341L38.4782 6.92416C39.0893 7.7135 40.0819 10.5592 40.735 13.2301C41.3881 15.9009 42.0217 22.125 40.2503 22.8331C39.9717 22.6962 39.3381 22.5368 39.0822 23.3526C38.7624 24.3724 39.5607 27.1368 46.0955 31.3437C46.9305 31.8813 50.3782 33.48 51.5296 33.6322L51.6122 33.2947C51.6954 33.3133 51.7689 33.3281 51.8314 33.3387C59.4068 34.634 61.7441 33.0923 62.1423 32.103C62.4608 31.3116 61.8821 30.9983 61.5858 30.9111C60.692 29.1636 65.0752 24.8959 67.2442 23.3254C69.4131 21.7549 71.948 20.2848 72.9048 20.1068L72.2096 19.7307C72.469 19.7496 72.7503 19.7327 73.0378 19.6748C74.0769 19.4653 74.8043 18.7985 74.6624 18.1855C74.5205 17.5725 73.563 17.2454 72.5239 17.4549C71.4847 17.6644 70.7574 18.3311 70.8993 18.9441C70.9306 19.0793 71.0015 19.2006 71.1043 19.3053C70.0336 20.284 67.1045 22.3071 65.7323 22.0577C64.3066 21.7984 65.5811 19.3987 66.8149 18.0289L66.2277 17.6727C64.9775 18.8384 61.6198 21.3866 58.7375 20.2627C55.8633 19.1419 56.6122 13.8143 57.4181 10.9744ZM66.858 14.5164C65.8017 15.3831 65.4225 16.6625 66.0111 17.374C66.5997 18.0855 67.9332 17.9597 68.9895 17.093C70.0458 16.2263 70.4249 14.947 69.8363 14.2355C69.2477 13.524 67.9143 13.6498 66.858 14.5164Z" fill="#FFD900"/>
<path d="M59.7643 9.57517L60.3154 9.81415L60.3154 9.81415L59.7643 9.57517ZM57.4181 10.9744L57.4577 10.3663L56.9862 10.31L56.854 10.7757L57.4181 10.9744ZM58.3453 6.64367L58.5262 6.07074L58.3453 6.64367ZM55.4144 7.89697L55.9656 8.13596L55.9656 8.13596L55.4144 7.89697ZM56.2708 10.5224L56.799 10.8162L57.0262 10.3422L56.5918 10.026L56.2708 10.5224ZM56.206 10.6577L56.0231 11.2298L56.5099 11.4196L56.7342 10.9515L56.206 10.6577ZM55.9373 10.5529L56.1202 9.98075L55.613 9.78299L55.399 10.2813L55.9373 10.5529ZM49.0821 16.7393L48.8992 17.3114L49.0821 16.7393ZM45.0615 9.75438L45.225 9.17506L44.3559 8.87032L44.4794 9.80928L45.0615 9.75438ZM45.5729 9.80792L45.4629 9.20183L45.5729 9.80792ZM46.6675 7.05315L47.2444 6.96582L46.6675 7.05315ZM43.5532 7.51827L44.1302 7.43094L43.5532 7.51827ZM44.7455 9.59543L44.6615 10.1965L45.0425 9.08239L44.7455 9.59543ZM44.382 9.52299L44.4659 8.92188L43.7664 8.78248L43.7949 9.5188L44.382 9.52299ZM42.6723 13.3073L42.3862 13.8273L42.3862 13.8273L42.6723 13.3073ZM40.3944 7.89809L40.3816 7.2861L39.6941 7.26797L39.8162 7.97829L40.3944 7.89809ZM40.8216 7.77563L40.4665 7.27102L40.8216 7.77563ZM40.4885 5.55617L40.9448 5.19327L40.4885 5.55617ZM38.4414 4.60586L38.0863 4.10124L38.4414 4.60586ZM38.7745 6.82532L38.3182 7.18822L38.3182 7.18822L38.7745 6.82532ZM38.9515 7.04341L38.8391 7.6381L40.651 8.09466L39.3766 6.64213L38.9515 7.04341ZM38.4782 6.92416L38.5907 6.32948L36.9631 5.91937L38.0278 7.29467L38.4782 6.92416ZM40.735 13.2301L41.304 13.1054L40.735 13.2301ZM40.2503 22.8331L40.0205 23.3846L40.252 23.4984L40.483 23.4061L40.2503 22.8331ZM39.0822 23.3526L38.5228 23.138L39.0822 23.3526ZM46.0955 31.3437L45.804 31.8603L46.0955 31.3437ZM51.5296 33.6322L51.4828 34.2395L51.978 34.305L52.0993 33.8096L51.5296 33.6322ZM51.6122 33.2947L51.709 32.6963L51.1748 32.5772L51.0425 33.1174L51.6122 33.2947ZM51.8314 33.3387L51.8998 32.7348L51.8998 32.7348L51.8314 33.3387ZM62.1423 32.103L61.5988 31.844L62.1423 32.103ZM61.5858 30.9111L61.0701 31.1788L61.1958 31.4244L61.4509 31.4996L61.5858 30.9111ZM67.2442 23.3254L66.8938 22.8173L66.8938 22.8173L67.2442 23.3254ZM72.9048 20.1068L73.0343 20.7096L74.6975 20.4002L73.1559 19.5663L72.9048 20.1068ZM72.2096 19.7307L72.223 19.12L71.9585 20.2713L72.2096 19.7307ZM73.0378 19.6748L72.9002 19.0735L72.9002 19.0735L73.0378 19.6748ZM74.6624 18.1855L75.2332 18.0687L75.2332 18.0687L74.6624 18.1855ZM72.5239 17.4549L72.6615 18.0562L72.6615 18.0562L72.5239 17.4549ZM70.8993 18.9441L70.3284 19.0609L70.3284 19.0609L70.8993 18.9441ZM71.1043 19.3053L71.5034 19.7737L71.9678 19.3492L71.5048 18.8776L71.1043 19.3053ZM65.7323 22.0577L65.658 22.6606L65.658 22.6606L65.7323 22.0577ZM66.8149 18.0289L67.2521 18.4588L67.7522 17.9036L67.0923 17.5034L66.8149 18.0289ZM66.2277 17.6727L66.5051 17.1473L66.1323 16.9211L65.8246 17.208L66.2277 17.6727ZM58.7375 20.2627L58.9204 19.6905L58.7375 20.2627ZM66.0111 17.374L65.5738 17.7609L65.5738 17.7609L66.0111 17.374ZM66.858 14.5164L67.2347 15.0042L67.2347 15.0042L66.858 14.5164ZM69.8363 14.2355L70.2736 13.8485L70.2736 13.8485L69.8363 14.2355ZM59.2131 9.33618C58.962 10.0313 58.24 10.4597 57.4577 10.3663L57.3785 11.5826C58.628 11.7318 59.866 11.058 60.3154 9.81415L59.2131 9.33618ZM58.1645 7.2166C59.0745 7.56769 59.5055 8.52708 59.2131 9.33618L60.3154 9.81415C60.8581 8.31206 60.0186 6.6465 58.5262 6.07074L58.1645 7.2166ZM55.9656 8.13596C56.2655 7.30577 57.2396 6.8598 58.1645 7.2166L58.5262 6.07074C57.0487 5.5007 55.3984 6.17697 54.8633 7.65799L55.9656 8.13596ZM56.5918 10.026C55.9793 9.58016 55.7213 8.81199 55.9656 8.13596L54.8633 7.65799C54.4148 8.89918 54.913 10.2641 55.9498 11.0189L56.5918 10.026ZM56.7342 10.9515L56.799 10.8162L55.7426 10.2287L55.6778 10.3639L56.7342 10.9515ZM55.7544 11.1251L56.0231 11.2298L56.3889 10.0855L56.1202 9.98075L55.7544 11.1251ZM48.8992 17.3114C50.7163 18.02 52.3772 16.8796 53.6036 15.5059C54.8662 14.0915 55.8845 12.2009 56.4756 10.8245L55.399 10.2813C54.8363 11.5918 53.8772 13.3599 52.7258 14.6497C51.538 15.9802 50.3482 16.5895 49.2649 16.1671L48.8992 17.3114ZM44.4794 9.80928C44.6023 10.7432 44.9122 12.281 45.5692 13.743C46.2219 15.1957 47.2641 16.6738 48.8992 17.3114L49.2649 16.1671C48.0708 15.7014 47.2206 14.5833 46.6293 13.2675C46.0422 11.9609 45.7565 10.558 45.6436 9.69948L44.4794 9.80928ZM45.4629 9.20183C45.3904 9.21266 45.312 9.20554 45.225 9.17506L44.898 10.3337C45.1483 10.4215 45.4144 10.4541 45.6829 10.414L45.4629 9.20183ZM46.0905 7.14047C46.2 7.73741 46.1434 8.27205 45.994 8.64816C45.842 9.03064 45.6319 9.17659 45.4629 9.20183L45.6829 10.414C46.3739 10.3108 46.8388 9.77587 47.083 9.16131C47.3297 8.54039 47.3904 7.76186 47.2444 6.96582L46.0905 7.14047ZM44.7579 5.36958C44.9274 5.34427 45.1794 5.42175 45.4604 5.74037C45.7366 6.0535 45.9811 6.54356 46.0905 7.14047L47.2444 6.96582C47.0985 6.16975 46.7631 5.45077 46.3083 4.93521C45.8584 4.42514 45.2283 4.05429 44.5378 4.15741L44.7579 5.36958ZM44.1302 7.43094C44.0207 6.834 44.0773 6.29937 44.2267 5.92326C44.3787 5.54078 44.5888 5.39483 44.7579 5.36958L44.5378 4.15741C43.8469 4.2606 43.382 4.79555 43.1378 5.4101C42.8911 6.03102 42.8303 6.80956 42.9763 7.60559L44.1302 7.43094ZM45.0425 9.08239C44.6773 8.84178 44.2807 8.25166 44.1302 7.43094L42.9763 7.60559C43.1709 8.66685 43.7116 9.62297 44.4484 10.1085L45.0425 9.08239ZM44.298 10.1241L44.6615 10.1965L44.8294 8.99431L44.4659 8.92188L44.298 10.1241ZM42.3862 13.8273C42.6185 13.9735 42.8743 14.0627 43.1425 14.0578C43.4126 14.0529 43.6454 13.9535 43.8345 13.8088C44.191 13.5361 44.4197 13.0841 44.5727 12.6448C44.8865 11.7435 45.0074 10.5199 44.9691 9.52719L43.7949 9.5188C43.8292 10.4054 43.715 11.464 43.4657 12.18C43.3371 12.5494 43.2023 12.7398 43.1106 12.8099C43.092 12.8241 43.0798 12.8297 43.0743 12.8318C43.0695 12.8336 43.0676 12.8336 43.0667 12.8336C43.0656 12.8336 43.0582 12.8337 43.0422 12.8287C43.0255 12.8234 42.9978 12.812 42.9584 12.7872L42.3862 13.8273ZM39.8162 7.97829C39.9615 8.82318 40.264 10.0411 40.6759 11.146C40.8819 11.6985 41.1215 12.2398 41.3916 12.6978C41.654 13.1429 41.9815 13.5727 42.3862 13.8273L42.9584 12.7872C42.8093 12.6934 42.61 12.475 42.385 12.0933C42.1676 11.7246 41.9591 11.2604 41.7688 10.7501C41.3882 9.72913 41.1056 8.59089 40.9727 7.81788L39.8162 7.97829ZM40.4665 7.27102C40.4641 7.27278 40.4442 7.28775 40.3816 7.2861L40.4073 8.51007C40.6702 8.51701 40.9424 8.45374 41.1767 8.28025L40.4665 7.27102ZM40.0323 5.91908C40.3089 6.28746 40.4574 6.6547 40.4986 6.92928C40.5191 7.06538 40.5103 7.15835 40.4957 7.21231C40.4824 7.26106 40.4676 7.27021 40.4665 7.27102L41.1767 8.28025C41.6591 7.9231 41.7361 7.30702 41.6595 6.79616C41.5801 6.26746 41.3255 5.70019 40.9448 5.19327L40.0323 5.91908ZM38.7965 5.11047C38.7989 5.10871 38.8188 5.09375 38.8814 5.09539C38.9476 5.09713 39.0479 5.11811 39.1783 5.17865C39.4409 5.30055 39.7561 5.5513 40.0323 5.91908L40.9448 5.19327C40.5637 4.68574 40.092 4.2861 39.6137 4.06405C39.1554 3.8513 38.5597 3.7507 38.0863 4.10124L38.7965 5.11047ZM39.2307 6.46241C38.9541 6.09403 38.8056 5.7268 38.7644 5.45221C38.744 5.31611 38.7527 5.22314 38.7674 5.16918C38.7806 5.12043 38.7954 5.11128 38.7965 5.11047L38.0863 4.10124C37.6039 4.45839 37.5269 5.07448 37.6035 5.58533C37.6829 6.11403 37.9376 6.6813 38.3182 7.18822L39.2307 6.46241ZM39.3766 6.64213C39.3268 6.58537 39.278 6.5254 39.2307 6.46241L38.3182 7.18822C38.3853 7.27759 38.4549 7.36316 38.5264 7.44469L39.3766 6.64213ZM38.3658 7.51885L38.8391 7.6381L39.0639 6.44873L38.5907 6.32948L38.3658 7.51885ZM41.304 13.1054C40.9725 11.7501 40.5549 10.3496 40.1408 9.18326C39.9338 8.6003 39.7254 8.06925 39.5265 7.62826C39.333 7.19911 39.1307 6.81458 38.9287 6.55365L38.0278 7.29467C38.1313 7.42841 38.2822 7.69559 38.4671 8.10546C38.6466 8.5035 38.8417 8.9988 39.0409 9.55978C39.4391 10.6813 39.8443 12.0391 40.166 13.3547L41.304 13.1054ZM40.483 23.4061C41.1928 23.1223 41.5463 22.3488 41.7346 21.5883C41.9321 20.7908 41.9989 19.803 41.9894 18.7905C41.9703 16.7613 41.642 14.488 41.304 13.1054L40.166 13.3547C40.481 14.643 40.7961 16.8172 40.8143 18.7448C40.8234 19.7106 40.7573 20.5786 40.5958 21.2307C40.4251 21.9199 40.1935 22.1899 40.0176 22.2602L40.483 23.4061ZM39.6416 23.5672C39.6825 23.4366 39.7265 23.3828 39.7464 23.3633C39.764 23.3461 39.7779 23.3403 39.7944 23.337C39.816 23.3327 39.8501 23.332 39.8969 23.3418C39.9436 23.3516 39.9882 23.3688 40.0205 23.3846L40.4801 22.2816C40.283 22.1847 39.9181 22.0548 39.5211 22.1341C39.0691 22.2245 38.7045 22.5586 38.5228 23.138L39.6416 23.5672ZM46.387 30.8271C43.1543 28.746 41.3924 27.0535 40.4808 25.7985C39.5569 24.5264 39.5685 23.8002 39.6416 23.5672L38.5228 23.138C38.2761 23.9248 38.5269 25.0907 39.5559 26.5075C40.5973 27.9413 42.5019 29.7345 45.804 31.8603L46.387 30.8271ZM51.5764 33.025C51.3554 32.9958 50.9754 32.8869 50.4807 32.7085C49.9988 32.5347 49.4467 32.3092 48.8994 32.0697C47.7907 31.5844 46.7594 31.0669 46.387 30.8271L45.804 31.8603C46.2665 32.1581 47.3766 32.7087 48.4884 33.1953C49.0513 33.4416 49.6292 33.678 50.1437 33.8636C50.6454 34.0445 51.1281 34.1926 51.4828 34.2395L51.5764 33.025ZM51.0425 33.1174L50.9598 33.4549L52.0993 33.8096L52.182 33.4721L51.0425 33.1174ZM51.8998 32.7348C51.8496 32.7262 51.786 32.7135 51.709 32.6963L51.5154 33.8931C51.6048 33.913 51.6883 33.93 51.7631 33.9427L51.8998 32.7348ZM61.5988 31.844C61.5032 32.0813 61.0392 32.6472 59.5314 32.9782C58.0466 33.3043 55.648 33.3756 51.8998 32.7348L51.7631 33.9427C55.5903 34.5971 58.148 34.5451 59.8252 34.1769C61.4794 33.8136 62.3831 33.1139 62.6858 32.3621L61.5988 31.844ZM61.4509 31.4996C61.4862 31.51 61.5302 31.5275 61.5701 31.5512C61.6104 31.5752 61.6309 31.596 61.6392 31.607C61.6432 31.6123 61.6455 31.6153 61.6469 31.6296C61.6489 31.649 61.6503 31.7159 61.5988 31.844L62.6858 32.3621C62.9112 31.8019 62.8523 31.2798 62.55 30.879C62.2906 30.535 61.9259 30.3829 61.7207 30.3225L61.4509 31.4996ZM66.8938 22.8173C65.7745 23.6278 64.1033 25.1176 62.818 26.6348C62.1769 27.3916 61.6092 28.1813 61.259 28.917C60.9291 29.61 60.6982 30.4517 61.0701 31.1788L62.1015 30.6433C62.0265 30.4967 62.0083 30.1496 62.3167 29.5019C62.6047 28.8968 63.1008 28.1939 63.7149 27.469C64.94 26.0229 66.5449 24.5935 67.5946 23.8335L66.8938 22.8173ZM72.7753 19.504C72.466 19.5615 72.0773 19.711 71.6629 19.9023C71.2381 20.0983 70.749 20.3559 70.2279 20.6541C69.1853 21.2505 67.9929 22.0215 66.8938 22.8173L67.5945 23.8335C68.6643 23.0589 69.8239 22.3095 70.8302 21.7338C71.3335 21.4458 71.7932 21.2044 72.1805 21.0257C72.5783 20.8421 72.8652 20.7411 73.0343 20.7096L72.7753 19.504ZM71.9585 20.2713L72.6537 20.6474L73.1559 19.5663L72.4607 19.1902L71.9585 20.2713ZM72.9002 19.0735C72.6598 19.122 72.4293 19.135 72.223 19.12L72.1962 20.3414C72.5088 20.3642 72.8408 20.3435 73.1754 20.276L72.9002 19.0735ZM74.0915 18.3023C74.0917 18.3031 74.098 18.3244 74.0752 18.3782C74.0506 18.4362 73.9962 18.5193 73.8933 18.6136C73.6861 18.8035 73.3406 18.9847 72.9002 19.0735L73.1754 20.276C73.7741 20.1553 74.3118 19.8984 74.6926 19.5493C75.0578 19.2146 75.3771 18.6902 75.2332 18.0687L74.0915 18.3023ZM72.6615 18.0562C73.1018 17.9674 73.4971 17.9992 73.7706 18.0927C73.9064 18.1391 73.9934 18.1941 74.0421 18.238C74.0874 18.2788 74.0913 18.3013 74.0915 18.3023L75.2332 18.0687C75.0896 17.4482 74.5682 17.0947 74.0886 16.9309C73.5881 16.7599 72.9851 16.7329 72.3863 16.8536L72.6615 18.0562ZM71.4701 18.8274C71.4699 18.8265 71.4636 18.8052 71.4864 18.7515C71.511 18.6935 71.5655 18.6104 71.6683 18.5161C71.8755 18.3262 72.2211 18.1449 72.6615 18.0562L72.3863 16.8536C71.7875 16.9744 71.2498 17.2313 70.869 17.5803C70.5038 17.9151 70.1845 18.4394 70.3284 19.0609L71.4701 18.8274ZM71.5048 18.8776C71.4886 18.861 71.4802 18.8486 71.476 18.8413C71.4721 18.8345 71.4708 18.8302 71.4701 18.8274L70.3284 19.0609C70.3906 19.3294 70.5292 19.5553 70.7037 19.733L71.5048 18.8776ZM65.658 22.6606C66.1484 22.7498 66.7005 22.6306 67.2108 22.4516C67.7379 22.2667 68.298 21.9894 68.8337 21.6812C69.9028 21.0662 70.9358 20.2925 71.5034 19.7737L70.7052 18.8369C70.2021 19.2968 69.2352 20.024 68.2291 20.6028C67.7271 20.8916 67.2308 21.1345 66.7893 21.2893C66.331 21.4501 66.0023 21.4903 65.8067 21.4547L65.658 22.6606ZM66.3777 17.5989C65.7289 18.3192 65.0541 19.3236 64.7261 20.2181C64.5673 20.6512 64.4526 21.1562 64.5538 21.6202C64.6083 21.8695 64.7275 22.1156 64.9372 22.3124C65.1434 22.506 65.3956 22.6129 65.658 22.6606L65.8067 21.4547C65.7126 21.4376 65.6928 21.4128 65.7007 21.4202C65.7119 21.4308 65.7065 21.4362 65.6992 21.4027C65.677 21.301 65.6906 21.0719 65.8265 20.7014C66.0877 19.9888 66.6671 19.1084 67.2521 18.4588L66.3777 17.5989ZM65.9503 18.1981L66.5375 18.5543L67.0923 17.5034L66.5051 17.1473L65.9503 18.1981ZM58.5546 20.8348C60.2136 21.4817 61.9481 21.0537 63.3584 20.3857C64.7816 19.7116 65.98 18.7442 66.6308 18.1374L65.8246 17.208C65.2252 17.7669 64.1197 18.6565 62.8309 19.2669C61.5292 19.8835 60.1437 20.1675 58.9204 19.6905L58.5546 20.8348ZM56.854 10.7757C56.4415 12.2293 56.0358 14.341 56.1107 16.2593C56.1835 18.1238 56.7345 20.1251 58.5546 20.8348L58.9204 19.6905C57.8664 19.2795 57.3547 18.0566 57.2848 16.2672C57.2171 14.5314 57.5888 12.5594 57.9823 11.1732L56.854 10.7757ZM66.4484 16.987C66.3366 16.8519 66.2637 16.6009 66.3799 16.2088C66.4946 15.8217 66.7792 15.3779 67.2347 15.0042L66.4812 14.0287C65.8804 14.5216 65.4473 15.1508 65.2555 15.7979C65.0652 16.4401 65.097 17.1846 65.5738 17.7609L66.4484 16.987ZM68.6127 16.6052C68.1578 16.9785 67.6607 17.1763 67.2447 17.2156C66.8186 17.2558 66.5662 17.1294 66.4484 16.987L65.5738 17.7609C66.0446 18.33 66.7532 18.4965 67.4051 18.435C68.0671 18.3726 68.7648 18.0742 69.3662 17.5808L68.6127 16.6052ZM69.399 14.6224C69.5108 14.7576 69.5838 15.0085 69.4676 15.4006C69.3528 15.7877 69.0682 16.2316 68.6127 16.6052L69.3662 17.5808C69.967 17.0878 70.4001 16.4586 70.5919 15.8115C70.7822 15.1694 70.7504 14.4249 70.2736 13.8485L69.399 14.6224ZM67.2347 15.0042C67.6896 14.6309 68.1867 14.4331 68.6027 14.3939C69.0288 14.3537 69.2812 14.48 69.399 14.6224L70.2736 13.8485C69.8028 13.2794 69.0942 13.1129 68.4423 13.1744C67.7803 13.2369 67.0826 13.5353 66.4812 14.0287L67.2347 15.0042Z" fill="#563B00" mask="url(#path-46-outside-2_9648_16477)"/>
</g>
<path d="M73.9226 74.0785C78.3896 71.7805 91.9492 72.0605 102.617 83.0676C102.716 88.1144 91.1717 110.364 76.3818 121.57L73.6933 133.385L83.7696 144.84C78.0835 145.734 64.5042 145.469 55.6759 137.258C55.6759 137.258 62.4883 133.959 70.3497 132.659C71.7227 132.432 72.6707 121.588 72.6707 121.588C69.8615 113.783 66.4657 91.2756 73.9226 74.0785Z" fill="white"/>
<path d="M83.7696 144.84L73.6933 133.385L76.3818 121.57C91.1717 110.364 102.716 88.1144 102.617 83.0676C91.9492 72.0605 78.3896 71.7805 73.9226 74.0785C66.4657 91.2756 69.8615 113.783 72.6707 121.588C72.6707 121.588 71.7227 132.432 70.3497 132.659C62.4883 133.959 55.6759 137.258 55.6759 137.258M83.7696 144.84C78.0835 145.734 64.5042 145.469 55.6759 137.258M83.7696 144.84C74.3684 141.486 61.1233 138.388 55.6759 137.258" stroke="#563B00" stroke-width="0.6"/>
<path d="M76.7934 114.739C72.5403 107.159 72.9653 91.5376 75.8632 81.5099C87.8573 81.3466 93.6021 86.328 95.0784 89.7103C90.5758 103.924 81.0123 112.318 76.7934 114.739Z" fill="#FABC09"/>
<ellipse cx="80.7954" cy="93.7554" rx="1.27204" ry="2.12007" transform="rotate(-29.6715 80.7954 93.7554)" fill="white"/>
<ellipse cx="79.0585" cy="104.675" rx="1.27204" ry="2.12007" transform="rotate(-29.6715 79.0585 104.675)" fill="white"/>
<ellipse cx="84.3651" cy="102.837" rx="1.45955" ry="2.28811" transform="rotate(-81.8931 84.3651 102.837)" fill="white"/>
<path d="M24.2514 123.184C27.1208 125.026 33.5458 129.497 41.5991 120.191C51.6658 108.56 61.3854 100.319 69.3454 101.467L69.8915 106.683C76.2196 107.867 90.6342 109.016 84.3617 114.496C84.7916 115.853 84.459 119.043 79.6896 120.941C79.4907 123.796 75.6621 128.521 62.1818 125.687C61.4608 126.467 59.5703 127.576 56.691 127.473C49.6199 134.864 25.6754 144.184 8.07025 137.711C8.5819 133.86 18.264 121.614 24.2514 123.184Z" fill="#46B1CF"/>
<path d="M69.8915 106.683L69.3454 101.467C61.3854 100.319 51.6658 108.56 41.5991 120.191C33.5458 129.497 27.1208 125.026 24.2514 123.184C18.264 121.614 8.5819 133.86 8.07025 137.711C25.6754 144.184 49.6199 134.864 56.691 127.473M69.8915 106.683C76.2196 107.867 90.6342 109.016 84.3617 114.496M69.8915 106.683L64.9211 105.77M84.3617 114.496C84.7916 115.853 84.459 119.043 79.6896 120.941M84.3617 114.496C83.3486 114.31 80.7732 114.002 78.5765 114.257C75.8306 114.577 71.7117 115.056 65.6522 112.882M79.6896 120.941C79.4907 123.796 75.6621 128.521 62.1818 125.687M79.6896 120.941C75.7359 121.465 66.6612 121.718 61.9918 118.538M62.1818 125.687C61.5365 125.551 60.8692 125.398 60.179 125.227L62.1818 125.687ZM62.1818 125.687C61.4608 126.467 59.5703 127.576 56.691 127.473M52.8651 126.702C54.2848 127.206 55.5637 127.433 56.691 127.473" stroke="#563B00" stroke-width="0.6"/>
</g>
<defs>
<clipPath id="clip0_9648_16477">
<rect width="200" height="154" fill="white"/>
</clipPath>
</defs>
</svg>
