<svg width="200" height="139" viewBox="0 0 200 139" fill="none" xmlns="http://www.w3.org/2000/svg">
<g clip-path="url(#clip0_9648_16571)">
<path d="M85.0101 126.184L82.8203 110.605L107.679 100.83L113.617 106.276L106.591 124.629L85.0101 126.184Z" fill="#FFA725"/>
<path d="M32.7721 128.165L34.3926 116.237C34.8441 112.913 34.5976 109.531 33.6687 106.308L11.8606 115.847C7.71111 122.904 22.0947 133.828 22.3777 133.788C22.6607 133.748 29.4252 130.023 32.7721 128.165Z" fill="#FFA725" stroke="#563B00" stroke-width="0.6"/>
<path d="M20.9624 133.156C29.466 132.96 33.4558 126.062 33.7476 122.888C44.7817 149.563 57.2315 136.932 65.0537 126.959C66.4519 124.907 69.961 120.073 72.8119 117.159C76.3757 113.516 80.4637 113.656 82.584 113.893C84.7042 114.13 89.3849 120.841 96.7323 116.674C102.61 113.34 106.429 107.676 107.604 105.26C111.177 101.345 117.387 107.06 126.1 118.598C140.272 137.367 145.251 181.174 145.642 184.079L79.7082 193.346L76.3293 142.183L68.2479 148.866C36.4571 173.88 20.371 134.464 19.7681 133.543C19.2858 132.806 19.0907 132.849 19.6614 132.783L20.9624 133.156Z" fill="#FFD900" stroke="#563B00" stroke-width="0.6"/>
<path d="M70.6192 62.1089C68.6078 58.9399 63.8234 52.8575 60.7768 53.8794C57.7303 54.9013 59.3991 64.7022 60.6144 69.4749C54.7946 76.487 47.5584 93.2904 61.3611 107.841C62.4241 108.962 63.6119 110.069 64.9347 111.157C72.3452 116.206 95.6989 121.245 109.854 101.167C117.64 88.9195 109.152 72.2357 102.466 67.0469C105.52 58.7011 101.684 47.3892 95.8258 45.1151C92.9126 43.9843 89.7407 53.2621 86.8168 56.7255C85.114 58.7427 84.8248 59.259 78.5318 59.8637C75.2838 60.1758 72.4456 61.1971 70.6192 62.1089Z" fill="#F2DAB3"/>
<path d="M70.6192 62.1089C68.6078 58.9399 63.8234 52.8575 60.7768 53.8794C57.7303 54.9013 59.3991 64.7022 60.6144 69.4749M70.6192 62.1089C72.4456 61.1971 75.2838 60.1758 78.5318 59.8637C84.8248 59.259 85.114 58.7427 86.8168 56.7255C89.7407 53.2621 92.9126 43.9843 95.8258 45.1151C101.684 47.3892 105.52 58.7011 102.466 67.0469M70.6192 62.1089C69.8518 62.5891 68.2217 63.6553 67.8412 64.0782M60.6144 69.4749C54.7946 76.487 47.5584 93.2904 61.3611 107.841M60.6144 69.4749C61.4713 68.5757 63.5222 66.6421 64.8704 66.1021M64.9347 111.157C63.6119 110.069 62.4241 108.962 61.3611 107.841M64.9347 111.157L61.3611 107.841M64.9347 111.157C72.3452 116.206 95.6989 121.245 109.854 101.167C117.64 88.9195 109.152 72.2357 102.466 67.0469M102.466 67.0469L102.314 69.452M96.4632 51.0359C94.6631 52.5308 91.3549 56.6975 92.5238 61.4046M97.6037 57.9949C96.8272 57.9528 95.0245 58.0182 94.0264 58.6163M97.4141 61.0011C96.873 60.5642 95.5104 59.7305 94.3883 59.8914M99.4262 76.1764C100.302 76.3216 102.341 77.042 103.496 78.7612M104.633 82.7687C104.165 81.852 102.695 80.0515 100.563 80.1839M104.768 87.6513C104.505 86.4794 103.443 84.0119 101.301 83.5175" stroke="#563B00" stroke-width="0.6"/>
<mask id="mask0_9648_16571" style="mask-type:alpha" maskUnits="userSpaceOnUse" x="53" y="44" width="61" height="72">
<path d="M70.6177 62.107C68.6064 58.938 63.8219 52.8555 60.7754 53.8774C57.7288 54.8994 59.3976 64.7003 60.6129 69.473C54.7932 76.4851 47.5569 93.2884 61.3597 107.839C62.4227 108.96 63.6104 110.067 64.9332 111.155C72.3438 116.204 95.6974 121.243 109.853 101.165C117.638 88.9175 109.151 72.2337 102.465 67.045C105.518 58.6991 101.683 47.3873 95.8244 45.1132C92.9111 43.9823 89.7392 53.2601 86.8154 56.7236C85.1125 58.7407 84.8233 59.2571 78.5303 59.8617C75.2823 60.1738 72.4441 61.1951 70.6177 62.107Z" fill="#F2DAB3"/>
<path d="M70.6177 62.107C68.6064 58.938 63.8219 52.8555 60.7754 53.8774C57.7288 54.8994 59.3976 64.7003 60.6129 69.473M70.6177 62.107C72.4441 61.1951 75.2823 60.1738 78.5303 59.8617C84.8233 59.2571 85.1125 58.7407 86.8154 56.7236C89.7392 53.2601 92.9111 43.9823 95.8244 45.1132C101.683 47.3873 105.518 58.6991 102.465 67.045M70.6177 62.107C69.8503 62.5872 68.2202 63.6533 67.8398 64.0762M60.6129 69.473C54.7932 76.4851 47.5569 93.2884 61.3597 107.839M60.6129 69.473C61.4698 68.5737 63.5208 66.6402 64.869 66.1002M64.9332 111.155C63.6104 110.067 62.4227 108.96 61.3597 107.839M64.9332 111.155L61.3597 107.839M64.9332 111.155C72.3438 116.204 95.6974 121.243 109.853 101.165C117.638 88.9175 109.151 72.2337 102.465 67.045M102.465 67.045L102.313 69.45M96.4618 51.0339C94.6616 52.5289 91.3535 56.6956 92.5223 61.4027M97.6023 57.9929C96.8257 57.9509 95.023 58.0162 94.025 58.6144M97.4126 60.9992C96.8716 60.5622 95.5089 59.7285 94.3868 59.8895M99.4248 76.1744C100.3 76.3197 102.34 77.04 103.495 78.7592M104.632 82.7668C104.163 81.85 102.693 80.0496 100.562 80.1819M104.766 87.6494C104.503 86.4774 103.442 84.01 101.299 83.5156" stroke="black" stroke-width="0.6"/>
</mask>
<g mask="url(#mask0_9648_16571)">
<path d="M86.8942 90.8007C99.4279 84.4099 110.189 97.4438 110.053 106.274C116.43 100.528 115.155 88.4895 113.72 83.1886L101.421 75.8532L69.1977 79.8791L49.9774 87.1044C51.4224 93.9114 54.3653 106.684 54.5777 103.317C54.7901 99.9497 60.7204 98.7525 63.6589 98.5747L67.9669 95.384C75.8105 100.244 71.227 98.7892 86.8942 90.8007Z" fill="#FFF2E1"/>
<path d="M106.622 93.4685C111.419 92.7371 109.804 85.0861 108.397 81.352L115.944 85.9024L108.248 108.753L90.0281 90.1071C101.415 86.8761 100.625 94.3828 106.622 93.4685Z" fill="#F2DAB3"/>
</g>
<path d="M58.2175 87.2139C61.0177 84.9734 64.3123 82.3375 70.3067 82.32C71.7227 82.3159 73.3101 82.5852 75.0392 82.8785C78.5162 83.4684 82.5664 84.1556 86.9489 82.912C88.3909 82.7257 89.8816 81.9266 91.4836 81.0678C95.543 78.8918 100.317 76.333 106.82 82.391C111.753 86.9856 112.754 93.0708 111.162 99.112C116.678 87.1579 108.81 72.1448 102.53 67.2716C105.584 58.9257 101.748 47.6139 95.8898 45.3397C93.9975 44.6052 91.9961 48.2621 90.0245 51.8646C88.9606 53.8084 87.9055 55.7363 86.8808 56.9501C86.8389 56.9997 86.7979 57.0484 86.7577 57.0962C85.1601 58.9927 84.734 59.4985 78.5958 60.0883C75.3478 60.4004 72.5095 61.4217 70.6832 62.3335C68.6718 59.1646 63.8874 53.0821 60.8408 54.104C57.7942 55.1259 59.4631 64.9268 60.6783 69.6995C57.213 73.8749 53.2454 81.5218 53.5164 90.0975C55.1938 89.6331 56.6258 88.4874 58.2175 87.2139Z" fill="#FFA725"/>
<g filter="url(#filter0_f_9648_16571)">
<path d="M58.714 94.2462C59.3377 96.6046 61.4534 98.9068 63.6538 98.5771C64.8569 98.3968 65.2736 96.9365 68.0272 96.352C71.162 96.4466 73.1441 97.482 74.0134 97.6058C78.8658 97.8035 81.5459 92.7083 80.4224 88.4599C79.2989 84.2116 73.5286 82.0629 67.534 83.6607C61.5394 85.2585 57.5906 89.9978 58.714 94.2462Z" fill="white" fill-opacity="0.63"/>
</g>
<path d="M87.4826 69.3778C86.1248 67.5324 82.4401 64.9826 78.5635 69.5467M65.0401 72.5967C63.7478 71.7168 61.0535 70.8937 60.615 74.6397M83.0605 85.3947C81.5418 85.432 78.2142 86.1006 77.0534 88.477M87.0167 89.7833C86.1919 88.8364 83.4774 87.599 79.2177 90.2248M88.1538 93.7908C87.5094 92.9895 85.5568 91.6934 82.9017 92.9192M56.0516 90.8935C55.3474 90.3716 53.3628 89.6488 51.0579 90.9327M56.982 94.1724C55.6563 94.1549 52.65 94.3387 51.2301 95.214M58.0674 97.9977C57.2564 97.8342 55.349 97.8243 54.2075 99.093" stroke="#563B00" stroke-width="0.6"/>
<ellipse cx="4.79212" cy="3.61657" rx="4.79212" ry="3.61657" transform="matrix(-0.999987 -0.00515597 -0.0375323 0.999295 69.8677 85.5703)" fill="#563B00"/>
<path d="M65.7992 87.0167C64.8146 86.8015 62.6327 86.7482 61.7819 88.2569" stroke="#D8D8D8" stroke-width="0.6" stroke-linecap="round"/>
<path d="M80.1886 92.9012C78.5067 96.5277 75.9219 98.4421 72.4584 97.2598C69.3881 95.9883 67.6526 96.1585 66.4672 96.723M66.4672 96.723C64.2769 97.766 63.9643 100.155 60.579 97.2845C56.4049 93.7451 58.8584 89.506 60.6069 87.8289L62.9479 86.5251L63.8939 86.2567M66.4672 96.723C65.8255 96.6665 64.5568 95.7228 64.6148 92.3996M78.9994 99.7339C75.9057 101.858 68.6093 104.965 64.1734 100.398" stroke="#563B00" stroke-width="0.6"/>
<ellipse cx="0.802457" cy="0.757409" rx="0.802457" ry="0.757409" transform="matrix(-0.962021 0.272977 0.272977 0.962021 75.3975 90.7168)" fill="#563B00"/>
<ellipse cx="0.802457" cy="0.757409" rx="0.802457" ry="0.757409" transform="matrix(-0.962021 0.272977 0.272977 0.962021 70.7642 92.0332)" fill="#563B00"/>
<ellipse cx="0.802457" cy="0.757409" rx="0.802457" ry="0.757409" transform="matrix(-0.962021 0.272977 0.272977 0.962021 64.0293 94.7324)" fill="#563B00"/>
<ellipse cx="0.802457" cy="0.757409" rx="0.802457" ry="0.757409" transform="matrix(-0.962021 0.272977 0.272977 0.962021 61.9609 93.3516)" fill="#563B00"/>
<ellipse cx="0.802457" cy="0.757409" rx="0.802457" ry="0.757409" transform="matrix(-0.962021 0.272977 0.272977 0.962021 74.6826 94.0703)" fill="#563B00"/>
<path d="M80.427 79.0556C78.2629 77.308 78.8553 72.4158 84.68 72.7313C85.4565 72.7734 87.5508 73.2948 88.0676 75.1161C88.7475 77.512 83.9147 78.8532 83.0393 78.708" stroke="#563B00" stroke-width="0.6" stroke-linecap="round"/>
<path d="M84.781 78.2136C80.764 76.9915 82.4939 74.0731 83.861 72.7667C84.4469 72.1232 88.0965 73.73 88.1757 75.4789C88.239 76.8781 85.9389 77.8851 84.781 78.2136Z" fill="#563B00"/>
<path d="M61.1627 81.4581C59.3319 79.9796 59.8331 75.8408 64.7608 76.1077C65.4178 76.1433 67.1895 76.5844 67.6267 78.1252C68.202 80.1522 64.1133 81.2869 63.3728 81.164" stroke="#563B00" stroke-width="0.6" stroke-linecap="round"/>
<path d="M64.838 80.7492C61.4396 79.7153 62.9031 77.2463 64.0597 76.1411C64.5554 75.5967 67.6429 76.956 67.71 78.4357C67.7636 79.6194 65.8177 80.4713 64.838 80.7492Z" fill="#563B00"/>
<path d="M67.8439 64.1244C63.3157 54.7805 61.6213 54.9333 59.866 54.3817C62.6817 51.8112 68.631 58.3243 70.4287 62.21L67.8439 64.1244Z" fill="#EF8100"/>
<path d="M99.7015 66.8943C102.368 66.2952 102.924 59.8782 102.869 56.7446C103.944 60.5335 103.05 65.2224 102.469 67.0932C114.335 80.1022 113.604 91.883 111.756 96.1472C111.894 90.7543 110.433 87.0749 109.685 85.9093C108.767 75.6198 102.647 68.9453 99.7015 66.8943Z" fill="#EF8100"/>
<path d="M70.5909 62.1656C68.5795 58.9966 63.7951 52.9141 60.7485 53.936C57.7019 54.958 59.3708 64.7589 60.586 69.5315M70.5909 62.1656C72.4173 61.2537 75.2555 60.2324 78.5035 59.9203C84.7964 59.3156 85.0857 58.7993 86.7885 56.7822C89.7123 53.3187 92.8843 44.0409 95.7975 45.1717C101.656 47.4459 105.492 58.7577 102.438 67.1036M70.5909 62.1656C69.8234 62.6458 68.1934 63.7119 67.8129 64.1348M60.586 69.5315C54.7663 76.5437 47.53 93.347 61.3328 107.898M60.586 69.5315C61.443 68.6323 63.4939 66.6988 64.8421 66.1588M64.9064 111.214C63.5836 110.126 62.3958 109.018 61.3328 107.898M64.9064 111.214L61.3328 107.898M64.9064 111.214C72.3169 116.263 95.6705 121.301 109.826 101.224C117.611 88.9761 109.124 72.2923 102.438 67.1036M102.438 67.1036L102.286 69.5086M99.3979 76.233C100.273 76.3783 102.313 77.0986 103.468 78.8178M104.605 82.8254C104.136 81.9086 102.666 80.1082 100.535 80.2405M104.739 87.708C104.476 86.536 103.415 84.0686 101.272 83.5742" stroke="#563B00" stroke-width="0.6"/>
<ellipse cx="0.802457" cy="0.757409" rx="0.802457" ry="0.757409" transform="matrix(-0.962021 0.272977 0.272977 0.962021 86.0586 73.916)" fill="#DDDDDD"/>
<ellipse cx="0.802457" cy="0.757409" rx="0.802457" ry="0.757409" transform="matrix(-0.962021 0.272977 0.272977 0.962021 86.0586 73.916)" fill="#DDDDDD"/>
<ellipse cx="0.802457" cy="0.757409" rx="0.802457" ry="0.757409" transform="matrix(-0.962021 0.272977 0.272977 0.962021 66.2446 77.5703)" fill="#DDDDDD"/>
<ellipse cx="0.802457" cy="0.757409" rx="0.802457" ry="0.757409" transform="matrix(-0.962021 0.272977 0.272977 0.962021 66.2446 77.5703)" fill="#DDDDDD"/>
<path d="M98.7216 64.812C101.101 56.7361 97.6411 50.2253 95.6136 47.9794C93.9394 54.983 88.3542 59.1626 85.7283 59.4825C85.6636 59.4871 85.5997 59.4927 85.5366 59.4992C85.5986 59.4961 85.6625 59.4905 85.7283 59.4825C90.148 59.1664 98.1534 63.292 98.7216 64.812Z" fill="#EF8100"/>
<path d="M96.228 50.168C97.8815 51.7142 100.783 55.9731 99.1623 60.6388M94.4183 57.0832C95.1978 57.0642 96.9916 57.1829 97.9305 57.8098M94.3178 60.0907C94.9002 59.6704 96.3413 58.8784 97.4463 59.0724" stroke="#563B00" stroke-width="0.6"/>
<path fill-rule="evenodd" clip-rule="evenodd" d="M79.7342 46.6372C79.4219 46.457 79.2357 46.0809 79.2903 45.6642C79.3633 45.1071 79.839 44.6885 80.3529 44.7292C80.8668 44.7699 81.2242 45.2546 81.1512 45.8117C81.1104 46.1224 80.9444 46.3901 80.7163 46.559C80.7471 47.362 81.0536 49.0617 82.0893 50.1589L77.981 49.3177C78.5058 48.935 79.5344 47.8963 79.7342 46.6372Z" fill="#563B00"/>
<path fill-rule="evenodd" clip-rule="evenodd" d="M71.6211 48.0503C71.8576 47.7739 71.9145 47.3564 71.7329 46.9819C71.4893 46.4794 70.9086 46.2446 70.4359 46.4573C69.9632 46.6701 69.7776 47.2499 70.0212 47.7524C70.1576 48.0338 70.3998 48.2312 70.6695 48.3131C70.8933 49.0864 71.1363 50.7896 70.5055 52.1707L74.1241 49.9938C73.5074 49.8085 72.2078 49.1728 71.6211 48.0503Z" fill="#563B00"/>
<path d="M77.3616 57.4353C75.2713 57.7998 73.29 57.6717 71.7723 57.1554C70.2672 56.6434 69.1453 55.7187 68.9393 54.4423C68.7333 53.166 69.5035 51.9115 70.7655 50.9169C72.038 49.9141 73.8706 49.121 75.9609 48.7565C78.0511 48.3921 80.0325 48.5202 81.5501 49.0365C83.0553 49.5485 84.1772 50.4732 84.3832 51.7495C84.5891 53.0258 83.819 54.2804 82.557 55.275C81.2845 56.2777 79.4519 57.0709 77.3616 57.4353Z" fill="#FF9900" stroke="#563B00" stroke-width="0.6"/>
<mask id="path-34-outside-1_9648_16571" maskUnits="userSpaceOnUse" x="59.564" y="41.178" width="34.8496" height="26.2459" fill="black">
<rect fill="white" x="59.564" y="41.178" width="34.8496" height="26.2459"/>
<path fill-rule="evenodd" clip-rule="evenodd" d="M75.7686 47.9625C74.8388 48.1233 73.9759 47.5806 73.8412 46.7504C73.7065 45.9202 74.3511 45.117 75.2808 44.9562C76.2106 44.7955 77.0735 45.3382 77.2082 46.1684C77.3429 46.9985 76.6984 47.8018 75.7686 47.9625ZM68.0407 49.3066C68.676 50.0373 68.7768 50.9544 68.2658 51.3549C67.7549 51.7555 66.8256 51.4878 66.1903 50.757C65.555 50.0263 65.4542 49.1092 65.9652 48.7086C66.4761 48.3081 67.4054 48.5758 68.0407 49.3066ZM83.951 48.6189C83.3427 48.4135 83.1509 47.5124 83.5226 46.6061C83.8944 45.6998 84.6889 45.1316 85.2972 45.3369C85.9056 45.5423 86.0974 46.4435 85.7257 47.3497C85.3539 48.256 84.5594 48.8242 83.951 48.6189ZM87.6186 47.8107C87.325 47.5051 87.5643 46.8455 88.1532 46.3376C88.7421 45.8296 89.4576 45.6656 89.7513 45.9713C90.0449 46.2769 89.8056 46.9365 89.2167 47.4444C89.0303 47.6052 88.8312 47.7315 88.6369 47.8193L89.4748 47.7735C88.9149 48.2211 87.7792 49.9865 86.9164 51.6784C86.0536 53.3703 84.6908 57.4244 85.8805 58.1169C86.1035 58.0609 86.5888 58.0345 86.6574 58.6085C86.7429 59.3238 85.7665 61.0515 80.4325 63.0185L80.4782 63.1801C79.9728 63.3856 78.6733 63.5859 77.5993 63.7029C76.973 63.8156 76.4059 63.8897 76.0907 63.8739L76.0874 63.8062C70.4251 63.7075 68.9535 62.3973 68.8067 61.6929C68.6888 61.1273 69.1563 60.9919 69.385 60.9711C70.2898 59.9227 67.71 56.5384 66.3552 55.2233C65.0004 53.9081 63.364 52.6137 62.6919 52.3755L63.4227 52.1639C63.2618 52.1377 63.0945 52.0924 62.9278 52.0271C62.2122 51.7468 61.7795 51.2048 61.9614 50.8164C62.1433 50.428 62.8709 50.3404 63.5865 50.6207C64.3021 50.9009 64.7348 51.443 64.5529 51.8314C64.4876 51.9708 64.352 52.0714 64.1719 52.1303C64.8532 52.9387 66.6306 54.5647 67.6414 54.571C68.7188 54.5777 68.1364 52.8241 67.4346 51.7595L67.9145 51.5966C68.6577 52.5277 70.7382 54.6413 73.0033 54.2564C75.2825 53.8692 75.4904 50.174 75.3045 48.1993L75.3241 48.196L75.3216 48.1448L76.2148 47.9931C76.6677 49.9223 78.0409 53.3489 80.3201 52.9617C82.5852 52.5769 83.8801 49.8898 84.2868 48.7634L84.7925 48.7588C84.4676 49.9978 84.4751 51.8491 85.4921 51.4866C86.4682 51.1386 87.6635 48.922 88.0223 47.9643C87.8555 47.9603 87.7145 47.9105 87.6186 47.8107Z"/>
</mask>
<path fill-rule="evenodd" clip-rule="evenodd" d="M75.7686 47.9625C74.8388 48.1233 73.9759 47.5806 73.8412 46.7504C73.7065 45.9202 74.3511 45.117 75.2808 44.9562C76.2106 44.7955 77.0735 45.3382 77.2082 46.1684C77.3429 46.9985 76.6984 47.8018 75.7686 47.9625ZM68.0407 49.3066C68.676 50.0373 68.7768 50.9544 68.2658 51.3549C67.7549 51.7555 66.8256 51.4878 66.1903 50.757C65.555 50.0263 65.4542 49.1092 65.9652 48.7086C66.4761 48.3081 67.4054 48.5758 68.0407 49.3066ZM83.951 48.6189C83.3427 48.4135 83.1509 47.5124 83.5226 46.6061C83.8944 45.6998 84.6889 45.1316 85.2972 45.3369C85.9056 45.5423 86.0974 46.4435 85.7257 47.3497C85.3539 48.256 84.5594 48.8242 83.951 48.6189ZM87.6186 47.8107C87.325 47.5051 87.5643 46.8455 88.1532 46.3376C88.7421 45.8296 89.4576 45.6656 89.7513 45.9713C90.0449 46.2769 89.8056 46.9365 89.2167 47.4444C89.0303 47.6052 88.8312 47.7315 88.6369 47.8193L89.4748 47.7735C88.9149 48.2211 87.7792 49.9865 86.9164 51.6784C86.0536 53.3703 84.6908 57.4244 85.8805 58.1169C86.1035 58.0609 86.5888 58.0345 86.6574 58.6085C86.7429 59.3238 85.7665 61.0515 80.4325 63.0185L80.4782 63.1801C79.9728 63.3856 78.6733 63.5859 77.5993 63.7029C76.973 63.8156 76.4059 63.8897 76.0907 63.8739L76.0874 63.8062C70.4251 63.7075 68.9535 62.3973 68.8067 61.6929C68.6888 61.1273 69.1563 60.9919 69.385 60.9711C70.2898 59.9227 67.71 56.5384 66.3552 55.2233C65.0004 53.9081 63.364 52.6137 62.6919 52.3755L63.4227 52.1639C63.2618 52.1377 63.0945 52.0924 62.9278 52.0271C62.2122 51.7468 61.7795 51.2048 61.9614 50.8164C62.1433 50.428 62.8709 50.3404 63.5865 50.6207C64.3021 50.9009 64.7348 51.443 64.5529 51.8314C64.4876 51.9708 64.352 52.0714 64.1719 52.1303C64.8532 52.9387 66.6306 54.5647 67.6414 54.571C68.7188 54.5777 68.1364 52.8241 67.4346 51.7595L67.9145 51.5966C68.6577 52.5277 70.7382 54.6413 73.0033 54.2564C75.2825 53.8692 75.4904 50.174 75.3045 48.1993L75.3241 48.196L75.3216 48.1448L76.2148 47.9931C76.6677 49.9223 78.0409 53.3489 80.3201 52.9617C82.5852 52.5769 83.8801 49.8898 84.2868 48.7634L84.7925 48.7588C84.4676 49.9978 84.4751 51.8491 85.4921 51.4866C86.4682 51.1386 87.6635 48.922 88.0223 47.9643C87.8555 47.9603 87.7145 47.9105 87.6186 47.8107Z" fill="#FFD900"/>
<path d="M73.8412 46.7504L74.4321 46.646L74.4321 46.646L73.8412 46.7504ZM75.2808 44.9562L75.3748 45.5489L75.2808 44.9562ZM77.2082 46.1684L76.6174 46.2727L77.2082 46.1684ZM68.2658 51.3549L67.9014 50.8827L67.9014 50.8827L68.2658 51.3549ZM68.0407 49.3066L67.5875 49.7055L68.0407 49.3066ZM66.1903 50.757L65.7372 51.156L66.1903 50.757ZM65.9652 48.7086L66.3296 49.1809L66.3296 49.1809L65.9652 48.7086ZM83.5226 46.6061L84.0757 46.8289L84.0757 46.8289L83.5226 46.6061ZM83.951 48.6189L83.7537 49.1892L83.7537 49.1892L83.951 48.6189ZM85.2972 45.3369L85.0999 45.9073L85.2972 45.3369ZM85.7257 47.3497L85.1726 47.1269L85.7257 47.3497ZM87.6186 47.8107L87.1853 48.2313L87.1853 48.2313L87.6186 47.8107ZM89.7513 45.9713L90.1846 45.5507L90.1846 45.5507L89.7513 45.9713ZM89.2167 47.4444L88.8302 46.9903L88.8302 46.9903L89.2167 47.4444ZM88.6369 47.8193L88.6615 48.4198L88.3972 47.2715L88.6369 47.8193ZM89.4748 47.7735L89.4502 47.173L91.3084 47.0714L89.8438 48.2422L89.4748 47.7735ZM86.9164 51.6784L86.3843 51.4098L86.9164 51.6784ZM85.8805 58.1169L86.0183 58.7002L85.7832 58.7593L85.5753 58.6382L85.8805 58.1169ZM86.6574 58.6085L86.063 58.6879L86.063 58.6879L86.6574 58.6085ZM80.4325 63.0185L79.8564 63.1899L79.7036 62.6494L80.2327 62.4543L80.4325 63.0185ZM80.4782 63.1801L81.0542 63.0087L81.202 63.5315L80.6965 63.7371L80.4782 63.1801ZM77.5993 63.7029L77.5013 63.111L77.5218 63.1073L77.5425 63.1051L77.5993 63.7029ZM76.0907 63.8739L76.0529 64.4745L75.519 64.4476L75.4928 63.9113L76.0907 63.8739ZM76.0874 63.8062L76.1057 63.2049L76.6582 63.2145L76.6853 63.7688L76.0874 63.8062ZM68.8067 61.6929L68.2206 61.8235L68.8067 61.6929ZM69.385 60.9711L69.8351 61.3616L69.6743 61.5479L69.4311 61.57L69.385 60.9711ZM66.3552 55.2233L66.7741 54.7882L66.3552 55.2233ZM62.6919 52.3755L62.4861 52.9429L60.7291 52.3201L62.5332 51.7978L62.6919 52.3755ZM63.4227 52.1639L63.5261 51.5703L63.5814 52.7416L63.4227 52.1639ZM62.9278 52.0271L63.1516 51.4664L63.1516 51.4665L62.9278 52.0271ZM63.5865 50.6207L63.8103 50.06L63.8103 50.06L63.5865 50.6207ZM64.5529 51.8314L64.0118 51.5813L64.0118 51.5813L64.5529 51.8314ZM64.1719 52.1303L63.7129 52.5223L63.1366 51.8384L63.9937 51.5586L64.1719 52.1303ZM67.6414 54.571L67.6298 55.1723L67.6414 54.571ZM67.4346 51.7595L66.9342 52.0961L66.5038 51.4432L67.2498 51.19L67.4346 51.7595ZM67.9145 51.5966L67.7296 51.0272L68.125 50.893L68.3834 51.2166L67.9145 51.5966ZM73.0033 54.2564L73.0955 54.8494L73.0033 54.2564ZM75.3045 48.1993L74.7085 48.2638L74.6556 47.701L75.2123 47.6064L75.3045 48.1993ZM75.3241 48.196L75.922 48.1586L75.9484 48.6985L75.4163 48.7889L75.3241 48.196ZM75.3216 48.1448L74.7237 48.1822L74.6973 47.6423L75.2294 47.5519L75.3216 48.1448ZM76.2148 47.9931L76.1226 47.4001L76.6707 47.307L76.7976 47.8477L76.2148 47.9931ZM80.3201 52.9617L80.2279 52.3688L80.3201 52.9617ZM84.2868 48.7634L83.7243 48.565L83.8684 48.1659L84.2893 48.1621L84.2868 48.7634ZM84.7925 48.7588L84.795 48.1575L85.5691 48.1504L85.3713 48.9048L84.7925 48.7588ZM85.4921 51.4866L85.6857 52.053L85.6857 52.053L85.4921 51.4866ZM88.0223 47.9643L88.0445 47.3631L88.8769 47.383L88.5822 48.1696L88.0223 47.9643ZM74.4321 46.646C74.5038 47.0881 75.0051 47.4856 75.6747 47.3699L75.8626 48.5552C74.6725 48.7609 73.448 48.0731 73.2503 46.8548L74.4321 46.646ZM75.3748 45.5489C74.7062 45.6644 74.3608 46.2064 74.4321 46.646L73.2503 46.8548C73.0523 45.6341 73.9959 44.5695 75.1869 44.3636L75.3748 45.5489ZM76.6174 46.2727C76.5456 45.8307 76.0443 45.4331 75.3748 45.5489L75.1869 44.3636C76.3769 44.1579 77.6014 44.8457 77.7991 46.064L76.6174 46.2727ZM75.6747 47.3699C76.3432 47.2543 76.6887 46.7124 76.6174 46.2727L77.7991 46.064C77.9972 47.2847 77.0535 48.3493 75.8626 48.5552L75.6747 47.3699ZM67.9014 50.8827C67.9421 50.8508 68.0135 50.7597 67.9881 50.5284C67.9627 50.2978 67.8398 49.9956 67.5875 49.7055L68.4938 48.9076C68.8769 49.3482 69.122 49.87 69.1781 50.3808C69.2342 50.8908 69.1005 51.4586 68.6302 51.8272L67.9014 50.8827ZM66.6435 50.3581C66.895 50.6474 67.1919 50.8286 67.4467 50.902C67.7104 50.9779 67.8499 50.9231 67.9014 50.8827L68.6302 51.8272C68.1708 52.1874 67.5902 52.1989 67.1027 52.0585C66.6064 51.9155 66.121 51.5974 65.7372 51.156L66.6435 50.3581ZM66.3296 49.1809C66.2889 49.2128 66.2175 49.3038 66.243 49.5352C66.2683 49.7658 66.3913 50.068 66.6435 50.3581L65.7372 51.156C65.3541 50.7153 65.109 50.1936 65.0529 49.6828C64.9968 49.1728 65.1305 48.605 65.6008 48.2364L66.3296 49.1809ZM67.5875 49.7055C67.336 49.4162 67.0391 49.235 66.7843 49.1616C66.5206 49.0856 66.3811 49.1405 66.3296 49.1809L65.6008 48.2364C66.0603 47.8762 66.6408 47.8647 67.1283 48.0051C67.6246 48.1481 68.11 48.4662 68.4938 48.9076L67.5875 49.7055ZM84.0757 46.8289C83.9282 47.1884 83.9065 47.5156 83.9548 47.7422C84.0032 47.9695 84.0993 48.032 84.1484 48.0485L83.7537 49.1892C83.1944 49.0004 82.8905 48.5096 82.7838 48.0085C82.677 47.5065 82.7453 46.93 82.9696 46.3833L84.0757 46.8289ZM85.0999 45.9073C85.0381 45.8864 84.8891 45.8821 84.6641 46.043C84.4465 46.1987 84.2227 46.4703 84.0757 46.8289L82.9696 46.3833C83.1942 45.8356 83.5536 45.37 83.9783 45.0663C84.3956 44.7679 84.948 44.5821 85.4946 44.7666L85.0999 45.9073ZM85.1726 47.1269C85.3201 46.7674 85.3418 46.4402 85.2935 46.2136C85.2451 45.9863 85.149 45.9238 85.0999 45.9073L85.4946 44.7666C86.0539 44.9554 86.3578 45.4462 86.4645 45.9473C86.5713 46.4493 86.503 47.0258 86.2787 47.5725L85.1726 47.1269ZM84.1484 48.0485C84.2101 48.0694 84.3592 48.0737 84.5842 47.9128C84.8018 47.7571 85.0255 47.4855 85.1726 47.1269L86.2787 47.5725C86.0541 48.1202 85.6946 48.5858 85.27 48.8895C84.8527 49.1879 84.3003 49.3737 83.7537 49.1892L84.1484 48.0485ZM88.5397 46.7917C88.3068 46.9925 88.1708 47.2012 88.1171 47.3494C88.0565 47.5163 88.1322 47.4736 88.052 47.3901L87.1853 48.2313C86.8114 47.8422 86.8599 47.3169 86.9928 46.9506C87.1326 46.5656 87.4107 46.1906 87.7667 45.8835L88.5397 46.7917ZM89.3179 46.3919C89.3828 46.4594 89.394 46.3885 89.1888 46.4356C89.0105 46.4764 88.7716 46.5917 88.5397 46.7917L87.7667 45.8835C88.1238 45.5756 88.5371 45.3548 88.9371 45.2631C89.3104 45.1776 89.8261 45.1776 90.1846 45.5507L89.3179 46.3919ZM88.8302 46.9903C89.0631 46.7895 89.1991 46.5808 89.2528 46.4326C89.3134 46.2657 89.2377 46.3084 89.3179 46.3919L90.1846 45.5507C90.5585 45.9398 90.51 46.4651 90.3771 46.8314C90.2373 47.2164 89.9592 47.5914 89.6032 47.8985L88.8302 46.9903ZM88.3972 47.2715C88.5359 47.2088 88.6859 47.1148 88.8302 46.9903L89.6032 47.8985C89.3747 48.0955 89.1266 48.2542 88.8765 48.3672L88.3972 47.2715ZM89.4995 48.374L88.6615 48.4198L88.6122 47.2189L89.4502 47.173L89.4995 48.374ZM86.3843 51.4098C86.8249 50.5458 87.3353 49.6627 87.8096 48.9347C88.0467 48.5708 88.2783 48.2402 88.4907 47.9677C88.6962 47.7041 88.9079 47.4631 89.1059 47.3049L89.8438 48.2422C89.7618 48.3077 89.6216 48.4552 89.4297 48.7014C89.2447 48.9386 89.0335 49.2391 88.8088 49.584C88.3596 50.2735 87.8706 51.119 87.4484 51.9469L86.3843 51.4098ZM85.5753 58.6382C85.005 58.3063 84.8497 57.6451 84.8213 57.0957C84.7911 56.511 84.8902 55.8239 85.0454 55.1452C85.357 53.7821 85.9312 52.2983 86.3843 51.4098L87.4484 51.9469C87.0387 52.7503 86.5002 54.1395 86.2121 55.3996C86.0675 56.0325 85.9951 56.5944 86.017 57.0175C86.0407 57.476 86.1612 57.5813 86.1857 57.5956L85.5753 58.6382ZM86.063 58.6879C86.0594 58.6578 86.0544 58.6427 86.0528 58.6386C86.0515 58.6349 86.053 58.6402 86.0603 58.6499C86.0678 58.6598 86.0778 58.6695 86.0892 58.6777C86.1002 58.6855 86.1093 58.6896 86.1142 58.6914C86.1187 58.693 86.1191 58.6926 86.114 58.6919C86.109 58.6912 86.1006 58.6905 86.089 58.6907C86.0774 58.6909 86.0647 58.6919 86.0516 58.6938C86.0385 58.6957 86.027 58.6981 86.0183 58.7002L85.7426 57.5336C85.9075 57.4922 86.2216 57.4444 86.5395 57.5616C86.7099 57.6244 86.8815 57.7353 87.0165 57.9134C87.1502 58.0899 87.2245 58.3011 87.2518 58.529L86.063 58.6879ZM80.2327 62.4543C82.8655 61.4834 84.3695 60.59 85.1935 59.8877C86.0429 59.1637 86.069 58.7379 86.063 58.6879L87.2518 58.529C87.3313 59.1943 86.9119 59.99 85.961 60.8005C84.9847 61.6327 83.3335 62.5866 80.6322 63.5827L80.2327 62.4543ZM79.9022 63.3515L79.8564 63.1899L81.0085 62.8471L81.0542 63.0087L79.9022 63.3515ZM77.5425 63.1051C78.0703 63.0476 78.6509 62.9699 79.1579 62.8821C79.6833 62.7912 80.0748 62.6983 80.2598 62.6231L80.6965 63.7371C80.3761 63.8674 79.8652 63.9774 79.346 64.0673C78.8085 64.1603 78.2023 64.2413 77.656 64.3008L77.5425 63.1051ZM76.1285 63.2732C76.3655 63.2852 76.8678 63.225 77.5013 63.111L77.6973 64.2948C77.0782 64.4062 76.4462 64.4943 76.0529 64.4745L76.1285 63.2732ZM76.6853 63.7688L76.6886 63.8365L75.4928 63.9113L75.4895 63.8436L76.6853 63.7688ZM69.3927 61.5622C69.4036 61.6148 69.5679 62.0113 70.6023 62.4159C71.6055 62.8083 73.3109 63.1562 76.1057 63.2049L76.0691 64.4074C73.2017 64.3575 71.3401 64.001 70.1552 63.5375C69.0015 63.0862 68.3565 62.4754 68.2206 61.8235L69.3927 61.5622ZM69.4311 61.57C69.4222 61.5708 69.4105 61.5723 69.3976 61.5749C69.3846 61.5774 69.3724 61.5806 69.3615 61.5842C69.3506 61.5878 69.3432 61.5911 69.3391 61.5932C69.335 61.5954 69.3361 61.5953 69.3406 61.5916C69.3454 61.5877 69.3536 61.58 69.3623 61.5678C69.3714 61.5551 69.3783 61.5414 69.3826 61.5284C69.3868 61.5157 69.3867 61.5093 69.3866 61.5127C69.3864 61.5167 69.3864 61.5324 69.3927 61.5622L68.2206 61.8235C68.1739 61.5993 68.1766 61.3738 68.2477 61.1604C68.3195 60.9447 68.4482 60.7809 68.5911 60.6637C68.8569 60.4458 69.1707 60.3874 69.3389 60.3722L69.4311 61.57ZM66.7741 54.7882C67.4848 55.4781 68.4998 56.691 69.2281 57.8765C69.5906 58.4668 69.9029 59.0834 70.0603 59.6458C70.2076 60.1721 70.2737 60.8534 69.8351 61.3616L68.9349 60.5806C68.9487 60.5646 69.0317 60.4297 68.9074 59.9854C68.7932 59.5774 68.5455 59.0691 68.2069 58.5179C67.5327 57.4204 66.5804 56.2836 65.9363 55.6584L66.7741 54.7882ZM62.8977 51.8081C63.1339 51.8918 63.4098 52.0491 63.6878 52.2303C63.9751 52.4176 64.2991 52.6534 64.639 52.9191C65.319 53.4506 66.0826 54.1169 66.7741 54.7882L65.9363 55.6584C65.273 55.0145 64.541 54.3761 63.8961 53.872C63.5735 53.6199 63.2777 53.4053 63.0268 53.2418C62.7666 53.0722 62.5859 52.9783 62.4861 52.9429L62.8977 51.8081ZM63.5814 52.7416L62.8506 52.9532L62.5332 51.7978L63.2639 51.5862L63.5814 52.7416ZM63.1516 51.4665C63.2803 51.5168 63.4073 51.5509 63.5261 51.5703L63.3193 52.7576C63.1163 52.7245 62.9086 52.668 62.704 52.5878L63.1516 51.4665ZM62.5025 51.0665C62.5526 50.9596 62.4672 50.9448 62.577 51.0824C62.6744 51.2043 62.8684 51.3555 63.1516 51.4664L62.704 52.5878C62.2715 52.4184 61.8915 52.1585 61.6391 51.8422C61.3991 51.5416 61.1884 51.0615 61.4204 50.5663L62.5025 51.0665ZM63.3627 51.1813C63.0808 51.0709 62.8188 51.043 62.6374 51.0649C62.4285 51.09 62.4619 51.1532 62.5025 51.0665L61.4204 50.5663C61.6428 50.0912 62.131 49.9164 62.5103 49.8707C62.9171 49.8217 63.3767 49.8901 63.8103 50.06L63.3627 51.1813ZM64.0118 51.5813C63.9618 51.6882 64.0471 51.703 63.9373 51.5654C63.84 51.4435 63.6459 51.2922 63.3627 51.1813L63.8103 50.06C64.2428 50.2294 64.6228 50.4893 64.8753 50.8055C65.1152 51.1061 65.3259 51.5862 65.094 52.0815L64.0118 51.5813ZM63.9937 51.5586C64.0118 51.5526 64.0248 51.547 64.0333 51.5427C64.0417 51.5383 64.0449 51.5358 64.0442 51.5363C64.0434 51.5369 64.0387 51.5407 64.0322 51.5486C64.0256 51.5567 64.0182 51.5676 64.0118 51.5813L65.094 52.0815C64.9338 52.4234 64.6293 52.6108 64.3501 52.7019L63.9937 51.5586ZM67.6298 55.1723C67.2372 55.1699 66.837 55.0168 66.4881 54.8356C66.1269 54.6479 65.7581 54.3965 65.4135 54.1294C64.7259 53.5965 64.0811 52.9593 63.7129 52.5223L64.631 51.7382C64.944 52.1097 65.5285 52.6897 66.1527 53.1735C66.4639 53.4147 66.7716 53.6215 67.0491 53.7657C67.3391 53.9164 67.5402 53.9689 67.653 53.9696L67.6298 55.1723ZM67.9351 51.4229C68.3149 51.999 68.6782 52.7803 68.7951 53.4565C68.8514 53.7825 68.8693 54.1867 68.7015 54.5384C68.6108 54.7283 68.467 54.8992 68.263 55.0166C68.0637 55.1313 67.8442 55.1737 67.6298 55.1723L67.653 53.9696C67.708 53.97 67.7059 53.959 67.6782 53.9749C67.6459 53.9936 67.6278 54.0203 67.6231 54.0301C67.6218 54.0328 67.6332 54.0091 67.6366 53.9424C67.6399 53.8771 67.6346 53.7889 67.6154 53.6774C67.535 53.2124 67.2562 52.5846 66.9342 52.0961L67.9351 51.4229ZM68.0993 52.1661L67.6195 52.329L67.2498 51.19L67.7296 51.0272L68.0993 52.1661ZM73.0955 54.8494C71.7499 55.078 70.5082 54.5587 69.5529 53.9226C68.591 53.2821 67.8418 52.473 67.4455 51.9766L68.3834 51.2166C68.7305 51.6513 69.3931 52.3645 70.2235 52.9174C71.0605 53.4747 71.9916 53.8197 72.911 53.6635L73.0955 54.8494ZM75.9005 48.1349C75.9972 49.1619 75.9951 50.6554 75.6578 51.9664C75.3285 53.2463 74.6063 54.5927 73.0955 54.8494L72.911 53.6635C73.6795 53.533 74.2009 52.8381 74.4989 51.6799C74.7888 50.5528 74.7978 49.2114 74.7085 48.2638L75.9005 48.1349ZM75.4163 48.7889L75.3968 48.7923L75.2123 47.6064L75.2319 47.6031L75.4163 48.7889ZM75.9195 48.1074L75.922 48.1586L74.7262 48.2334L74.7237 48.1822L75.9195 48.1074ZM76.3071 48.586L75.4138 48.7377L75.2294 47.5519L76.1226 47.4001L76.3071 48.586ZM80.4124 53.5546C78.9057 53.8106 77.7985 52.7805 77.0806 51.6804C76.345 50.5531 75.8676 49.1418 75.6321 48.1384L76.7976 47.8477C77.0149 48.7735 77.4505 50.0402 78.0845 51.0117C78.7362 52.0105 79.4553 52.5 80.2279 52.3688L80.4124 53.5546ZM84.8492 48.9618C84.6322 49.563 84.1806 50.5775 83.4734 51.5029C82.7707 52.4225 81.7593 53.3258 80.4124 53.5546L80.2279 52.3688C81.146 52.2128 81.9146 51.5802 82.5273 50.7784C83.1355 49.9825 83.5347 49.0902 83.7243 48.565L84.8492 48.9618ZM84.79 49.3602L84.2843 49.3647L84.2893 48.1621L84.795 48.1575L84.79 49.3602ZM85.6857 52.053C85.4824 52.1255 85.2617 52.1576 85.0384 52.1153C84.8104 52.0721 84.6224 51.9594 84.4781 51.8116C84.2099 51.5371 84.0981 51.151 84.0475 50.8231C83.9427 50.1445 84.0376 49.2845 84.2138 48.6128L85.3713 48.9048C85.2225 49.4721 85.1587 50.1573 85.2307 50.6235C85.2479 50.7352 85.271 50.8206 85.2951 50.8817C85.3197 50.944 85.3386 50.9641 85.338 50.9635C85.3323 50.9576 85.3093 50.9397 85.275 50.9333C85.2455 50.9277 85.2476 50.9383 85.2985 50.9201L85.6857 52.053ZM88.5822 48.1696C88.3858 48.6938 87.9763 49.5269 87.4888 50.2779C87.2442 50.6547 86.97 51.0264 86.6819 51.3335C86.4039 51.6297 86.0658 51.9175 85.6857 52.053L85.2985 50.9201C85.4065 50.8816 85.5838 50.7619 85.8157 50.5147C86.0374 50.2783 86.2675 49.9708 86.4885 49.6303C86.9324 48.9465 87.3 48.1924 87.4624 47.759L88.5822 48.1696ZM88.052 47.3901C88.0428 47.3805 88.0334 47.3732 88.0252 47.3679C88.017 47.3627 88.0112 47.3602 88.0089 47.3594C88.005 47.3579 88.015 47.3624 88.0445 47.3631L88.0001 48.5655C87.7287 48.559 87.4198 48.4754 87.1853 48.2313L88.052 47.3901Z" fill="#563B00" mask="url(#path-34-outside-1_9648_16571)"/>
<path d="M3.56971 90.3979C5.87436 86.5865 16.2429 80.4953 29.414 83.8479C31.8344 87.6125 33.4595 109.778 27.5008 125.114L30.9624 135.284L43.8951 139.25C40.0172 142.568 29.6408 148.68 19.1586 146.584C19.1586 146.584 22.7689 140.926 28.1003 136.29C29.0315 135.481 24.7071 126.852 24.7071 126.852C18.9584 122.265 5.93253 106.849 3.56971 90.3979Z" fill="white"/>
<path d="M43.8951 139.25L30.9624 135.284L27.5008 125.114C33.4595 109.778 31.8344 87.6125 29.414 83.8479C16.2429 80.4953 5.87436 86.5865 3.56971 90.3979C5.93253 106.849 18.9584 122.265 24.7071 126.852C24.7071 126.852 29.0315 135.481 28.1003 136.29C22.7689 140.926 19.1586 146.584 19.1586 146.584M43.8951 139.25C40.0172 142.568 29.6408 148.68 19.1586 146.584M43.8951 139.25C35.2377 141.088 23.7968 144.905 19.1586 146.584" stroke="#563B00" stroke-width="0.6"/>
<path d="M24.6366 119.766C17.9022 116.02 10.962 104.027 8.48919 95.1083C17.4696 89.41 24.1226 90.5011 26.8094 92.3687C30.0163 105.194 26.6971 115.977 24.6366 119.766Z" fill="#FABC09"/>
<ellipse cx="17.9053" cy="102.06" rx="1.12787" ry="1.87978" transform="rotate(-61.2874 17.9053 102.06)" fill="white"/>
<ellipse cx="21.6695" cy="111.113" rx="1.12787" ry="1.87978" transform="rotate(-61.2874 21.6695 111.113)" fill="white"/>
<ellipse cx="23.0609" cy="105.44" rx="1.47909" ry="2.02878" transform="rotate(-113.509 23.0609 105.44)" fill="white"/>
<path d="M20.8983 109.802C20.5405 100.034 7.18676 96.5269 6.14799 107.963C6.46029 121.278 12.5241 124.755 15.6682 123.776C20.9084 122.145 21.1812 117.524 20.8983 109.802Z" fill="#FFA725"/>
<path d="M26.8473 107.951C26.164 103.949 28.4357 101.153 31.7458 101.528C32.0511 101.689 34.4844 102.975 33.5944 107.468C32.7043 111.96 28.1036 115.308 26.8473 107.951Z" fill="#FFA725"/>
<path d="M20.8983 109.802C20.5405 100.034 7.18676 96.5269 6.14799 107.963C6.46029 121.278 12.5241 124.755 15.6682 123.776C20.9084 122.145 21.1812 117.524 20.8983 109.802Z" stroke="#563B00" stroke-width="0.6"/>
<path d="M26.8473 107.951C26.164 103.949 28.4357 101.153 31.7458 101.528C32.0511 101.689 34.4844 102.975 33.5944 107.468C32.7043 111.96 28.1036 115.308 26.8473 107.951Z" stroke="#563B00" stroke-width="0.6"/>
<path d="M149.887 83.7649L147.884 76.9533L167.515 72.1465L169.518 78.9573L161.505 85.3666L149.887 83.7649Z" fill="#A56001" stroke="#563B00" stroke-width="0.6"/>
<path d="M149.48 81.2105C153.645 84.2287 162.174 82.2521 164.882 77.9524C175.487 61.1122 190.691 66.2754 196.33 74.2605C203.322 84.6483 203.491 87.265 203.991 95.0033L203.994 95.0546C206.912 105.032 211.795 130.554 207.981 152.823L131.707 154.175C131.707 154.175 138.839 116.984 137.332 109.722C136.24 104.459 136.845 95.7676 135.997 91.6361C134.579 84.7294 144.273 77.4377 149.48 81.2105Z" fill="#FF9429"/>
<path d="M174.695 120.965C177.95 122.205 186.012 126.607 188.535 136.94C189.52 137.735 192.277 138.362 195.423 134.507C197.979 131.376 204.928 114.585 203.994 95.0546M174.695 120.965C174.247 121.625 173.596 122.172 172.814 122.623C172.029 121.399 171.601 120.187 173.284 117.697C174.034 116.99 174.934 116.722 175.912 116.769M174.695 120.965C174.388 120.762 173.648 120.399 173.147 120.576M185.909 123.526C183.73 120.98 179.344 116.934 175.912 116.769M175.912 116.769C178.806 113.46 183.31 101.81 178.171 81.6763M145.958 96.1721C148.843 105.338 155.107 117.969 152.197 130.471M203.994 95.0546C203.492 87.2765 203.338 84.6712 196.33 74.2605C190.691 66.2754 175.487 61.1122 164.882 77.9524C162.174 82.2521 153.645 84.2287 149.48 81.2105C144.273 77.4377 134.579 84.7294 135.997 91.6361C136.845 95.7676 136.24 104.459 137.332 109.722C138.839 116.984 131.707 154.175 131.707 154.175L207.981 152.823C211.795 130.554 206.912 105.032 203.994 95.0546Z" stroke="#563B00" stroke-width="0.6"/>
<path fill-rule="evenodd" clip-rule="evenodd" d="M132.73 6.48028C133.047 6.12148 133.152 5.56763 132.958 5.04589C132.69 4.32486 131.953 3.93821 131.31 4.18229C130.668 4.42637 130.365 5.20875 130.633 5.92978C130.793 6.36177 131.122 6.67374 131.499 6.80194C131.708 7.94836 131.841 10.3227 130.925 12.1596L135.761 9.52014C134.988 9.18492 133.381 8.13312 132.73 6.48028Z" fill="#563B00"/>
<path fill-rule="evenodd" clip-rule="evenodd" d="M143.475 5.57771C143.089 5.28813 142.883 4.74455 142.992 4.17378C143.137 3.40687 143.795 2.88129 144.46 2.99985C145.125 3.11842 145.547 3.83623 145.401 4.60314C145.318 5.03745 145.072 5.39437 144.753 5.60073C144.732 6.76784 144.986 9.13375 146.187 10.7698L140.998 9.09042C141.697 8.61856 143.085 7.30119 143.475 5.57771Z" fill="#563B00"/>
<path d="M139.259 20.0998C142.024 19.8549 144.486 18.9881 146.23 17.7692C147.966 16.5557 149.042 14.951 148.89 13.2331C148.738 11.5153 147.396 10.1246 145.474 9.2351C143.543 8.34164 140.967 7.92093 138.202 8.16584C135.436 8.41075 132.974 9.27751 131.231 10.4964C129.494 11.7099 128.418 13.3147 128.57 15.0325C128.722 16.7503 130.064 18.141 131.986 19.0305C133.917 19.924 136.493 20.3447 139.259 20.0998Z" fill="#FF9900" stroke="#563B00" stroke-width="0.6"/>
<mask id="path-49-outside-2_9648_16571" maskUnits="userSpaceOnUse" x="118.21" y="-0.225667" width="41.1434" height="32.6874" fill="black">
<rect fill="white" x="118.21" y="-0.225667" width="41.1434" height="32.6874"/>
<path fill-rule="evenodd" clip-rule="evenodd" d="M138.959 6.73575C139.742 6.34126 140.25 5.50816 140.175 4.59826C140.078 3.40684 139.019 2.5349 137.809 2.65073C136.6 2.76656 135.699 3.82629 135.796 5.01771C135.874 5.96641 136.562 6.71253 137.449 6.91869C137.46 9.81579 136.804 14.8262 133.965 15.1161C131.095 15.4092 128.686 12.2057 127.815 10.766C127.871 10.74 127.925 10.709 127.976 10.673C128.685 10.173 128.645 8.88785 127.885 7.80252C127.125 6.7172 125.934 6.2427 125.224 6.7427C124.514 7.24271 124.555 8.52787 125.315 9.61319C125.862 10.3944 126.632 10.8591 127.286 10.8718L127.17 10.9053C127.955 12.5115 128.524 15.0924 127.164 14.961C125.865 14.8354 123.722 12.2135 122.973 11.0032C123.006 10.9662 123.034 10.9257 123.057 10.8818C123.331 10.3617 122.817 9.55572 121.908 9.0815C120.999 8.60728 120.04 8.64443 119.766 9.16448C119.491 9.68453 120.005 10.4906 120.914 10.9648C121.087 11.0548 121.261 11.1264 121.432 11.1798L121.121 11.2526C121.948 11.6703 123.891 13.7117 125.477 15.7511C127.063 17.7905 130 22.936 128.758 24.3373C128.467 24.3413 127.864 24.4827 127.959 25.3071C128.078 26.3377 129.824 28.3943 137.03 29.1696C137.147 29.1822 137.305 29.191 137.496 29.1961L137.489 29.4785C138.574 29.6381 142.102 29.0461 142.993 28.762C149.969 26.5384 151.374 24.16 151.334 23.1213C151.302 22.2904 150.687 22.2734 150.4 22.3285C148.963 21.2007 151.069 15.5403 152.319 13.2112C153.57 10.8822 155.172 8.47866 155.921 7.90005L155.761 7.89567C155.779 7.88211 155.797 7.8683 155.815 7.85426C156.634 7.21696 157.012 6.33167 156.659 5.87689C156.306 5.42212 155.356 5.57008 154.538 6.20737C153.719 6.84466 153.342 7.72995 153.694 8.18473C153.753 8.26013 153.828 8.31895 153.916 8.36173C153.251 9.81458 151.703 12.4177 150.539 12.7751C149.22 13.1802 149.387 10.5241 149.915 8.78381L149.89 8.78185C150.405 8.5295 150.908 7.99976 151.238 7.29616C151.807 6.08053 151.641 4.80626 150.868 4.45C150.095 4.09373 149.007 4.79039 148.438 6.00602C147.869 7.22165 148.035 8.49592 148.808 8.85218C148.928 8.9078 149.057 8.93776 149.19 8.94408C148.493 10.6112 146.641 14.0228 143.867 14.3061C140.952 14.6038 139.543 9.53398 139.154 6.71579L138.959 6.73575Z"/>
</mask>
<path fill-rule="evenodd" clip-rule="evenodd" d="M138.959 6.73575C139.742 6.34126 140.25 5.50816 140.175 4.59826C140.078 3.40684 139.019 2.5349 137.809 2.65073C136.6 2.76656 135.699 3.82629 135.796 5.01771C135.874 5.96641 136.562 6.71253 137.449 6.91869C137.46 9.81579 136.804 14.8262 133.965 15.1161C131.095 15.4092 128.686 12.2057 127.815 10.766C127.871 10.74 127.925 10.709 127.976 10.673C128.685 10.173 128.645 8.88785 127.885 7.80252C127.125 6.7172 125.934 6.2427 125.224 6.7427C124.514 7.24271 124.555 8.52787 125.315 9.61319C125.862 10.3944 126.632 10.8591 127.286 10.8718L127.17 10.9053C127.955 12.5115 128.524 15.0924 127.164 14.961C125.865 14.8354 123.722 12.2135 122.973 11.0032C123.006 10.9662 123.034 10.9257 123.057 10.8818C123.331 10.3617 122.817 9.55572 121.908 9.0815C120.999 8.60728 120.04 8.64443 119.766 9.16448C119.491 9.68453 120.005 10.4906 120.914 10.9648C121.087 11.0548 121.261 11.1264 121.432 11.1798L121.121 11.2526C121.948 11.6703 123.891 13.7117 125.477 15.7511C127.063 17.7905 130 22.936 128.758 24.3373C128.467 24.3413 127.864 24.4827 127.959 25.3071C128.078 26.3377 129.824 28.3943 137.03 29.1696C137.147 29.1822 137.305 29.191 137.496 29.1961L137.489 29.4785C138.574 29.6381 142.102 29.0461 142.993 28.762C149.969 26.5384 151.374 24.16 151.334 23.1213C151.302 22.2904 150.687 22.2734 150.4 22.3285C148.963 21.2007 151.069 15.5403 152.319 13.2112C153.57 10.8822 155.172 8.47866 155.921 7.90005L155.761 7.89567C155.779 7.88211 155.797 7.8683 155.815 7.85426C156.634 7.21696 157.012 6.33167 156.659 5.87689C156.306 5.42212 155.356 5.57008 154.538 6.20737C153.719 6.84466 153.342 7.72995 153.694 8.18473C153.753 8.26013 153.828 8.31895 153.916 8.36173C153.251 9.81458 151.703 12.4177 150.539 12.7751C149.22 13.1802 149.387 10.5241 149.915 8.78381L149.89 8.78185C150.405 8.5295 150.908 7.99976 151.238 7.29616C151.807 6.08053 151.641 4.80626 150.868 4.45C150.095 4.09373 149.007 4.79039 148.438 6.00602C147.869 7.22165 148.035 8.49592 148.808 8.85218C148.928 8.9078 149.057 8.93776 149.19 8.94408C148.493 10.6112 146.641 14.0228 143.867 14.3061C140.952 14.6038 139.543 9.53398 139.154 6.71579L138.959 6.73575Z" fill="#FFD900"/>
<path d="M140.175 4.59826L140.773 4.53928L140.773 4.53928L140.175 4.59826ZM138.959 6.73575L138.697 6.19971L139.01 7.33354L138.959 6.73575ZM137.809 2.65073L137.856 3.24889L137.809 2.65073ZM135.796 5.01771L136.393 4.95874L136.393 4.95874L135.796 5.01771ZM137.449 6.91869L138.048 6.90647L138.046 6.43842L137.593 6.33318L137.449 6.91869ZM133.965 15.1161L133.914 14.5183L133.965 15.1161ZM127.815 10.766L127.57 10.222L126.954 10.5095L127.302 11.084L127.815 10.766ZM127.976 10.673L128.315 11.1628L128.315 11.1628L127.976 10.673ZM127.885 7.80252L128.377 7.4518L128.377 7.4518L127.885 7.80252ZM125.224 6.7427L124.885 6.25288L125.224 6.7427ZM125.315 9.61319L124.822 9.96392L125.315 9.61319ZM127.286 10.8718L127.442 11.449L127.307 10.271L127.286 10.8718ZM127.17 10.9053L127.013 10.328L126.314 10.5295L126.631 11.1769L127.17 10.9053ZM127.164 14.961L127.096 15.5591L127.164 14.961ZM122.973 11.0032L122.526 10.6103L122.229 10.9489L122.463 11.3262L122.973 11.0032ZM123.057 10.8818L122.528 10.6076L123.057 10.8818ZM121.908 9.0815L121.625 9.61554L121.625 9.61555L121.908 9.0815ZM119.766 9.16448L119.237 8.89032L119.237 8.89032L119.766 9.16448ZM120.914 10.9648L120.631 11.4988L120.631 11.4988L120.914 10.9648ZM121.432 11.1798L121.559 11.7648L123.716 11.2597L121.619 10.6057L121.432 11.1798ZM121.121 11.2526L120.994 10.6675L119.375 11.0468L120.845 11.7901L121.121 11.2526ZM125.477 15.7511L125.952 15.3767L125.477 15.7511ZM128.758 24.3373L128.756 24.9381L129.023 24.9345L129.203 24.7324L128.758 24.3373ZM127.959 25.3071L127.364 25.3859L127.959 25.3071ZM137.03 29.1696L137.104 28.5722L137.104 28.5722L137.03 29.1696ZM137.496 29.1961L138.095 29.2001L138.108 28.6111L137.522 28.5954L137.496 29.1961ZM137.489 29.4785L136.89 29.4745L136.878 29.9973L137.393 30.073L137.489 29.4785ZM142.993 28.762L143.166 29.3344L142.993 28.762ZM151.334 23.1213L150.735 23.1545L150.735 23.1545L151.334 23.1213ZM150.4 22.3285L150.026 22.804L150.237 22.9697L150.503 22.9186L150.4 22.3285ZM152.319 13.2112L152.846 13.4893L152.319 13.2112ZM155.921 7.90005L156.282 8.37399L157.615 7.34491L155.948 7.29939L155.921 7.90005ZM155.761 7.89567L155.408 7.41592L154.025 8.44965L155.735 8.49634L155.761 7.89567ZM155.815 7.85426L155.453 7.38187L155.453 7.38188L155.815 7.85426ZM156.659 5.87689L157.134 5.50305L156.659 5.87689ZM154.538 6.20737L154.175 5.73498L154.175 5.73498L154.538 6.20737ZM153.694 8.18473L153.219 8.55857L153.219 8.55857L153.694 8.18473ZM153.916 8.36173L154.46 8.60479L154.703 8.07246L154.184 7.8202L153.916 8.36173ZM150.539 12.7751L150.706 13.3495L150.706 13.3495L150.539 12.7751ZM149.915 8.78381L150.487 8.95001L150.702 8.24261L149.971 8.18478L149.915 8.78381ZM149.89 8.78185L149.634 8.24272L147.661 9.20899L149.833 9.38088L149.89 8.78185ZM151.238 7.29616L150.696 7.04819L151.238 7.29616ZM150.868 4.45L150.611 4.99672L150.611 4.99672L150.868 4.45ZM148.438 6.00602L147.897 5.75804L147.897 5.75804L148.438 6.00602ZM148.808 8.85218L148.55 9.39891L148.55 9.39891L148.808 8.85218ZM149.19 8.94408L149.742 9.16861L150.07 8.38396L149.228 8.34387L149.19 8.94408ZM143.867 14.3061L143.918 14.9039L143.867 14.3061ZM139.154 6.71579L139.748 6.62385L139.67 6.06014L139.103 6.11801L139.154 6.71579ZM139.578 4.65723C139.632 5.30792 139.269 5.91143 138.697 6.19971L139.221 7.2718C140.215 6.77109 140.868 5.70841 140.773 4.53928L139.578 4.65723ZM137.856 3.24889C138.746 3.16372 139.509 3.80438 139.578 4.65723L140.773 4.53928C140.647 3.0093 139.291 1.90608 137.762 2.05257L137.856 3.24889ZM136.393 4.95874C136.324 4.10735 136.969 3.33393 137.856 3.24889L137.762 2.05257C136.231 2.19919 135.074 3.54524 135.199 5.07669L136.393 4.95874ZM137.593 6.33318C136.942 6.18199 136.449 5.63769 136.393 4.95874L135.199 5.07669C135.299 6.29512 136.181 7.24307 137.305 7.5042L137.593 6.33318ZM134.016 15.7138C135.836 15.528 136.821 13.8448 137.347 12.1667C137.89 10.4333 138.054 8.38785 138.048 6.90647L136.85 6.93091C136.855 8.34663 136.696 10.2549 136.204 11.8235C135.695 13.4472 134.933 14.4142 133.914 14.5183L134.016 15.7138ZM127.302 11.084C127.756 11.8342 128.611 13.0482 129.741 14.0448C130.859 15.032 132.338 15.8852 134.016 15.7138L133.914 14.5183C132.722 14.64 131.561 14.038 130.54 13.1369C129.53 12.2452 128.746 11.1375 128.329 10.4481L127.302 11.084ZM127.637 10.1832C127.616 10.1981 127.593 10.211 127.57 10.222L128.061 11.31C128.149 11.2689 128.234 11.2199 128.315 11.1628L127.637 10.1832ZM127.393 8.15325C127.717 8.61611 127.87 9.09911 127.883 9.48621C127.895 9.88019 127.767 10.0914 127.637 10.1832L128.315 11.1628C128.894 10.7546 129.101 10.0733 129.08 9.42831C129.06 8.77651 128.813 8.07426 128.377 7.4518L127.393 8.15325ZM125.563 7.23253C125.694 7.13993 125.939 7.09061 126.307 7.23709C126.667 7.38074 127.069 7.69046 127.393 8.15325L128.377 7.4518C127.941 6.82926 127.367 6.35907 126.765 6.11915C126.169 5.88204 125.463 5.84548 124.885 6.25288L125.563 7.23253ZM125.807 9.26247C125.483 8.7996 125.329 8.31661 125.317 7.9295C125.304 7.53553 125.432 7.32432 125.563 7.23253L124.885 6.25288C124.305 6.66109 124.099 7.34247 124.119 7.9874C124.14 8.63921 124.387 9.34146 124.822 9.96392L125.807 9.26247ZM127.307 10.271C126.902 10.2631 126.285 9.94582 125.807 9.26247L124.822 9.96392C125.438 10.8429 126.363 11.4551 127.264 11.4726L127.307 10.271ZM127.326 11.4825L127.442 11.449L127.129 10.2945L127.013 10.328L127.326 11.4825ZM127.096 15.5591C127.358 15.5844 127.623 15.5484 127.864 15.4182C128.106 15.2872 128.274 15.088 128.382 14.8732C128.585 14.471 128.606 13.9724 128.568 13.524C128.49 12.6002 128.123 11.4811 127.708 10.6336L126.631 11.1769C127.002 11.9357 127.312 12.9101 127.374 13.6455C127.406 14.0267 127.363 14.249 127.315 14.344C127.298 14.3778 127.293 14.3712 127.309 14.3624C127.324 14.3545 127.309 14.3704 127.231 14.3629L127.096 15.5591ZM122.463 11.3262C122.86 11.9686 123.609 12.9592 124.428 13.8099C124.838 14.2359 125.279 14.6405 125.713 14.9511C126.133 15.2508 126.614 15.5125 127.096 15.5591L127.231 14.3629C127.064 14.3467 126.79 14.2335 126.419 13.9685C126.064 13.7144 125.678 13.3643 125.297 12.9679C124.532 12.1736 123.835 11.2481 123.483 10.6801L122.463 11.3262ZM122.528 10.6076C122.528 10.608 122.528 10.6087 122.526 10.6103L123.42 11.396C123.483 11.3236 123.539 11.2434 123.585 11.1559L122.528 10.6076ZM121.625 9.61555C122.005 9.81411 122.277 10.0698 122.42 10.2943C122.491 10.4057 122.52 10.4928 122.529 10.5483C122.533 10.5748 122.532 10.5911 122.53 10.5987C122.53 10.6026 122.529 10.6048 122.529 10.6058C122.529 10.6068 122.528 10.6072 122.528 10.6076L123.585 11.1559C123.869 10.6185 123.693 10.044 123.432 9.63465C123.16 9.20753 122.72 8.82311 122.191 8.54745L121.625 9.61555ZM120.294 9.43865C120.294 9.43826 120.295 9.43783 120.295 9.43712C120.296 9.43638 120.297 9.43469 120.3 9.43215C120.305 9.42709 120.318 9.41718 120.342 9.40559C120.392 9.3813 120.48 9.3557 120.612 9.35058C120.878 9.34026 121.244 9.41696 121.625 9.61554L122.191 8.54745C121.663 8.27182 121.095 8.12998 120.586 8.1497C120.097 8.16861 119.521 8.35211 119.237 8.89032L120.294 9.43865ZM121.198 10.4307C120.817 10.2322 120.546 9.97647 120.402 9.75201C120.331 9.64062 120.302 9.5535 120.294 9.49798C120.29 9.47147 120.291 9.45522 120.292 9.44752C120.292 9.44366 120.293 9.44144 120.293 9.44046C120.294 9.43952 120.294 9.43903 120.294 9.43865L119.237 8.89032C118.953 9.42778 119.129 10.0022 119.39 10.4116C119.663 10.8387 120.103 11.2232 120.631 11.4988L121.198 10.4307ZM121.619 10.6057C121.482 10.563 121.34 10.5049 121.198 10.4307L120.631 11.4988C120.834 11.6047 121.041 11.6898 121.246 11.7538L121.619 10.6057ZM121.248 11.8376L121.559 11.7648L121.305 10.5947L120.994 10.6675L121.248 11.8376ZM125.952 15.3767C125.147 14.342 124.251 13.306 123.449 12.4725C123.047 12.056 122.665 11.6852 122.325 11.3888C121.995 11.1005 121.673 10.8541 121.398 10.7151L120.845 11.7901C120.983 11.8599 121.214 12.0253 121.53 12.301C121.837 12.5685 122.194 12.9139 122.58 13.3149C123.352 14.1164 124.221 15.1209 125.003 16.1255L125.952 15.3767ZM129.203 24.7324C129.713 24.1565 129.713 23.3165 129.582 22.5772C129.445 21.7955 129.122 20.9057 128.724 20.0276C127.928 18.2678 126.773 16.432 125.952 15.3767L125.003 16.1255C125.768 17.1096 126.874 18.8662 127.632 20.5394C128.012 21.3777 128.289 22.1645 128.402 22.8054C128.523 23.4887 128.423 23.8175 128.313 23.9422L129.203 24.7324ZM128.554 25.2284C128.539 25.0953 128.556 25.0305 128.564 25.0088C128.571 24.9911 128.576 24.9872 128.58 24.9836C128.589 24.9764 128.61 24.964 128.648 24.9534C128.686 24.9429 128.726 24.9385 128.756 24.9381L128.76 23.7365C128.549 23.7393 128.171 23.7886 127.847 24.0454C127.476 24.3391 127.297 24.8049 127.364 25.3859L128.554 25.2284ZM137.104 28.5722C133.543 28.189 131.389 27.4944 130.13 26.8055C128.855 26.1078 128.582 25.4689 128.554 25.2284L127.364 25.3859C127.455 26.176 128.114 27.0807 129.543 27.8627C130.989 28.6536 133.311 29.3749 136.957 29.7671L137.104 28.5722ZM137.522 28.5954C137.338 28.5905 137.197 28.5822 137.104 28.5722L136.957 29.7671C137.096 29.7821 137.273 29.7915 137.47 29.7968L137.522 28.5954ZM138.088 29.4825L138.095 29.2001L136.897 29.1921L136.89 29.4745L138.088 29.4825ZM142.82 28.1896C142.426 28.3152 141.364 28.5287 140.237 28.6919C139.682 28.7725 139.126 28.8385 138.646 28.8746C138.153 28.9119 137.786 28.9134 137.586 28.8839L137.393 30.073C137.735 30.1233 138.216 30.1108 138.716 30.073C139.231 30.0342 139.816 29.9644 140.39 29.8813C141.52 29.7175 142.668 29.4929 143.166 29.3344L142.82 28.1896ZM150.735 23.1545C150.745 23.3996 150.571 24.0879 149.419 25.0353C148.283 25.9701 146.267 27.0907 142.82 28.1896L143.166 29.3344C146.694 28.2096 148.869 27.0293 150.17 25.9593C151.455 24.9019 151.963 23.8816 151.933 23.0882L150.735 23.1545ZM150.503 22.9186C150.533 22.9128 150.573 22.9091 150.611 22.9117C150.65 22.9144 150.671 22.9223 150.679 22.9266C150.681 22.9279 150.685 22.9288 150.693 22.9427C150.703 22.9607 150.73 23.02 150.735 23.1545L151.933 23.0882C151.91 22.5032 151.662 22.076 151.246 21.8588C150.885 21.6699 150.503 21.6986 150.297 21.7384L150.503 22.9186ZM151.793 12.9332C151.147 14.1374 150.29 16.1778 149.774 18.0709C149.517 19.0154 149.335 19.9561 149.319 20.7532C149.303 21.5046 149.43 22.3362 150.026 22.804L150.774 21.853C150.651 21.7569 150.502 21.458 150.517 20.7582C150.53 20.1039 150.684 19.2725 150.93 18.3698C151.42 16.5684 152.242 14.6141 152.846 13.4893L151.793 12.9332ZM155.561 7.42611C155.313 7.61753 155.035 7.92417 154.754 8.27462C154.465 8.63491 154.145 9.07703 153.814 9.5682C153.151 10.5509 152.427 11.7519 151.793 12.9332L152.846 13.4893C153.462 12.3416 154.165 11.1762 154.803 10.2303C155.122 9.75711 155.421 9.34428 155.683 9.01839C155.952 8.68266 156.155 8.47188 156.282 8.37399L155.561 7.42611ZM155.735 8.49634L155.895 8.50072L155.948 7.29939L155.787 7.29501L155.735 8.49634ZM155.453 7.38188C155.438 7.39342 155.423 7.40477 155.408 7.41592L156.114 8.37543C156.135 8.35945 156.157 8.34318 156.178 8.32663L155.453 7.38188ZM156.184 6.25073C156.184 6.25082 156.184 6.25093 156.184 6.2514C156.184 6.25191 156.185 6.25352 156.186 6.2567C156.188 6.26303 156.192 6.27772 156.192 6.30346C156.192 6.35754 156.178 6.44686 156.126 6.56853C156.022 6.81376 155.796 7.11498 155.453 7.38187L156.178 8.32664C156.654 7.95624 157.026 7.49617 157.227 7.02573C157.419 6.57477 157.501 5.97626 157.134 5.50305L156.184 6.25073ZM154.9 6.67975C155.243 6.41293 155.591 6.26757 155.855 6.22634C155.987 6.20587 156.078 6.21394 156.132 6.22818C156.157 6.23497 156.171 6.24231 156.178 6.24618C156.181 6.24812 156.182 6.24945 156.183 6.24996C156.183 6.25045 156.184 6.25065 156.184 6.25073L157.134 5.50305C156.768 5.03132 156.172 4.96384 155.691 5.03887C155.188 5.11725 154.651 5.36451 154.175 5.73498L154.9 6.67975ZM154.169 7.81089C154.169 7.81081 154.169 7.81069 154.169 7.81022C154.169 7.80971 154.168 7.8081 154.167 7.80492C154.165 7.79859 154.162 7.7839 154.161 7.75816C154.161 7.70408 154.175 7.61476 154.227 7.49309C154.332 7.24787 154.557 6.94665 154.9 6.67975L154.175 5.73498C153.7 6.10538 153.327 6.56545 153.127 7.03589C152.934 7.48686 152.852 8.08536 153.219 8.55857L154.169 7.81089ZM154.184 7.8202C154.177 7.81648 154.173 7.81361 154.171 7.81241C154.17 7.81177 154.17 7.81137 154.17 7.81122C154.17 7.81107 154.17 7.81098 154.169 7.81089L153.219 8.55857C153.337 8.71089 153.485 8.82455 153.647 8.90326L154.184 7.8202ZM150.706 13.3495C151.139 13.2165 151.539 12.903 151.882 12.5626C152.236 12.2111 152.583 11.7754 152.903 11.3196C153.542 10.4081 154.114 9.36087 154.46 8.60479L153.372 8.11867C153.053 8.81544 152.518 9.79614 151.927 10.6387C151.631 11.0601 151.331 11.433 151.046 11.7155C150.751 12.0091 150.521 12.1551 150.372 12.2008L150.706 13.3495ZM149.342 8.61761C149.063 9.53484 148.873 10.7102 148.936 11.6352C148.967 12.0835 149.063 12.5721 149.327 12.9294C149.468 13.1208 149.665 13.2851 149.927 13.3658C150.186 13.4459 150.453 13.427 150.706 13.3495L150.372 12.2008C150.295 12.2246 150.279 12.2112 150.297 12.2168C150.317 12.223 150.315 12.2326 150.295 12.2047C150.235 12.1236 150.158 11.9154 150.132 11.5327C150.081 10.7959 150.238 9.77311 150.487 8.95001L149.342 8.61761ZM149.833 9.38088L149.858 9.38284L149.971 8.18478L149.947 8.18282L149.833 9.38088ZM150.696 7.04819C150.413 7.65257 149.999 8.06398 149.634 8.24272L150.145 9.32099C150.811 8.99502 151.403 8.34695 151.779 7.54414L150.696 7.04819ZM150.611 4.99672C150.751 5.0615 150.911 5.24515 150.962 5.638C151.012 6.02319 150.939 6.52956 150.696 7.04819L151.779 7.54414C152.106 6.84714 152.234 6.10856 152.15 5.46363C152.068 4.82638 151.758 4.19476 151.126 3.90327L150.611 4.99672ZM148.98 6.25399C149.223 5.73532 149.565 5.35357 149.893 5.14347C150.228 4.92936 150.471 4.93221 150.611 4.99672L151.126 3.90327C150.493 3.61152 149.806 3.78457 149.261 4.13362C148.709 4.48669 148.223 5.06108 147.897 5.75804L148.98 6.25399ZM149.065 8.30546C148.925 8.24068 148.765 8.05703 148.714 7.66418C148.664 7.27899 148.737 6.77262 148.98 6.25399L147.897 5.75804C147.571 6.45504 147.442 7.19362 147.526 7.83855C147.608 8.4758 147.918 9.10742 148.55 9.39891L149.065 8.30546ZM149.228 8.34387C149.167 8.34098 149.114 8.32777 149.065 8.30546L148.55 9.39891C148.743 9.48783 148.946 9.53453 149.151 9.5443L149.228 8.34387ZM143.918 14.9039C145.539 14.7384 146.829 13.6691 147.768 12.5204C148.715 11.3618 149.38 10.0339 149.742 9.16861L148.638 8.71955C148.302 9.52137 147.693 10.7329 146.847 11.7676C145.992 12.8123 144.97 13.5905 143.816 13.7083L143.918 14.9039ZM138.561 6.80774C138.76 8.25092 139.221 10.29 140.023 11.9488C140.798 13.5498 142.044 15.0952 143.918 14.9039L143.816 13.7083C142.774 13.8147 141.859 12.974 141.103 11.41C140.375 9.90381 139.938 7.99885 139.748 6.62385L138.561 6.80774ZM139.01 7.33354L139.205 7.31358L139.103 6.11801L138.908 6.13797L139.01 7.33354Z" fill="#563B00" mask="url(#path-49-outside-2_9648_16571)"/>
<path d="M178.158 43.8035C185.695 56.376 181.309 65.666 178.174 68.7393C173.007 74.0457 156.882 83.356 133.722 78.1467C129.888 78.2971 125.023 75.3185 123.07 73.8105C114.128 70.1776 113.371 65.1669 114.111 63.1157C112.336 60.3422 113.886 59.2966 114.882 59.1205L117.763 53.2857C114.457 52.5772 113.134 50.6736 112.886 49.8103C110.221 50.5619 109.027 47.7604 108.762 46.2657C106.113 44.9905 107.497 43.977 108.52 43.6297C107.441 41.8049 109.071 39.9924 110.022 39.3142C109.901 38.0088 111.096 37.2322 111.708 37.007C112.517 33.692 115.899 32.5706 117.489 32.4243C119.874 17.6222 132.582 20.8241 138.638 24.2753C148.586 9.94174 162.11 23.9297 166.938 31.9243C177.378 28.7248 180.162 39.9059 178.158 43.8035Z" fill="#A56001"/>
<mask id="mask1_9648_16571" style="mask-type:alpha" maskUnits="userSpaceOnUse" x="107" y="18" width="76" height="62">
<path d="M178.157 43.8035C185.694 56.376 181.308 65.666 178.173 68.7393C173.006 74.0457 156.881 83.356 133.721 78.1467C129.887 78.2971 125.022 75.3185 123.069 73.8105C114.127 70.1776 113.37 65.1669 114.11 63.1157C112.336 60.3422 113.885 59.2966 114.881 59.1205L117.762 53.2857C114.456 52.5772 113.133 50.6736 112.885 49.8103C110.22 50.5619 109.026 47.7604 108.762 46.2657C106.112 44.9905 107.496 43.977 108.519 43.6297C107.44 41.8049 109.07 39.9924 110.021 39.3142C109.9 38.0088 111.095 37.2322 111.707 37.007C112.516 33.692 115.898 32.5706 117.488 32.4243C119.873 17.6222 132.581 20.8241 138.637 24.2753C148.585 9.94174 162.109 23.9297 166.937 31.9243C177.377 28.7248 180.161 39.9059 178.157 43.8035Z" fill="#D9D9D9"/>
</mask>
<g mask="url(#mask1_9648_16571)">
<g opacity="0.47">
<path d="M153.776 28.5074C154.657 23.2315 151.013 19.5341 149.081 18.3449C157.015 15.4275 166.385 25.6382 170.078 31.1082C165.099 30.4728 164.537 35.2635 164.879 37.7383L159.795 38.2062C159.688 31.1074 155.738 28.7825 153.776 28.5074Z" fill="#7E3C02"/>
<path d="M170.068 49.5641C176.007 48.7441 177.858 45.0878 178.041 43.3622C195.154 62.9487 173.018 75.4256 159.81 79.2158C172.82 75.011 172.069 57.696 170.068 49.5641Z" fill="#7E3C02"/>
<path d="M172.673 37.021C170.72 35.6059 167.365 35.0489 169.569 44.1419L172.673 37.021Z" fill="#7E3C02"/>
<path d="M130.393 30.6592C134.014 28.4121 131.32 23.397 129.52 21.1704C131.097 20.4785 136.28 22.8267 138.674 24.0873C135.695 27.3689 135.979 29.4617 136.493 30.0979L134.923 31.6094L130.393 30.6592Z" fill="#7E3C02"/>
</g>
<path d="M119.333 33.0441L117.577 32.5222L111.227 30.3725C108.572 34.9458 103.342 44.2216 103.663 44.7389C103.984 45.2562 109.679 51.9318 112.487 55.2049C111.513 57.0033 109.801 61.6721 110.743 65.9599C111.684 70.2478 120.344 73.7342 124.556 74.9415C133.156 75.5737 143.525 73.6107 151.659 71.4188C158.588 69.5516 165.546 64.6119 164.693 57.4864C164.191 53.2919 162.042 50.0164 160.391 48.4041L159.611 39.932L159.379 37.4149C159.03 33.6135 157.231 29.8941 153.742 28.3455C145.032 24.4801 137.803 28.5669 134.922 31.6094C127.945 30.0643 121.622 31.922 119.333 33.0441Z" fill="#F2C584"/>
<path d="M134.922 31.6094C127.945 30.0643 121.622 31.922 119.333 33.0441L117.577 32.5222L111.227 30.3725C108.572 34.9458 103.342 44.2216 103.663 44.7389C103.984 45.2562 109.679 51.9318 112.487 55.2049C111.513 57.0033 109.801 61.6721 110.743 65.9599C111.684 70.2478 120.344 73.7342 124.556 74.9415C133.156 75.5737 143.525 73.6107 151.659 71.4188C158.588 69.5516 165.546 64.6119 164.693 57.4864C164.191 53.2919 162.042 50.0164 160.391 48.4041L159.611 39.932M134.922 31.6094C137.803 28.5669 145.032 24.4801 153.742 28.3455C157.231 29.8941 159.03 33.6135 159.379 37.4149L159.611 39.932M134.922 31.6094L133.754 33.7677M155.139 35.9006C149.004 32.3643 133.646 31.1118 132.001 37.0047C127.159 36.0833 116.344 34.7546 111.819 36.8114M159.611 39.932C151.318 35.227 132.267 32.469 131.51 39.1004M131.51 39.1004L131.604 40.1171M131.51 39.1004C128.593 38.3436 120.268 37.2642 110.312 39.0007M131.604 40.1171C131.221 40.5008 130.696 41.29 130.573 42.2625M131.604 40.1171C132.397 38.8771 143.893 36.252 148.825 37.8487C152.77 39.1261 153.245 41.3152 152.989 42.2501M152.989 42.2501L157.64 40.7968M152.989 42.2501C141.671 47.1289 135.647 47.1164 132.815 45.8459M132.815 45.8459C132.177 46.3501 131.341 47.6599 133.092 48.8658C133.865 49.3977 135.623 49.541 137.923 49.3665M132.815 45.8459C132.547 45.7258 132.308 45.5944 132.095 45.4549M153.301 45.639C148.179 47.6584 142.141 49.0467 137.923 49.3665M137.923 49.3665C139.508 50.5004 143.437 52.8351 146.469 53.1029M130.573 42.2625C130.495 42.8793 130.578 43.5698 130.961 44.2773C131.185 44.689 131.553 45.0986 132.095 45.4549M130.573 42.2625C128.214 40.6568 121.44 38.1133 113.21 40.7845C108.726 42.5642 107.773 44.8164 107.486 45.4124C108.508 46.3342 110.039 47.287 112.869 48.219M132.095 45.4549C130.856 46.8508 122.863 49.1236 117.04 48.976C115.577 48.9389 114.165 48.6456 112.869 48.219M112.869 48.219C112.472 49.8931 113.659 52.4004 119.467 53.065M131.508 52.4291C126.18 53.2764 122.281 53.387 119.467 53.065M119.467 53.065L119.604 54.55C118.629 55.0954 116.254 56.7721 114.556 59.1156M127.09 54.2027C126.433 54.491 125.009 55.3512 124.566 56.4856M133.841 56.9991C134.119 57.5431 134.619 58.7729 134.398 59.3401M129.743 57.0344C129.743 57.0344 128.512 58.5147 128.945 59.5002M159.164 53.6434C161.004 55.0689 163.663 59.4494 159.578 65.5668" stroke="#563B00" stroke-width="0.6" stroke-linecap="round" stroke-linejoin="round"/>
<path d="M144.36 37.5752C132.923 38.0808 130.539 40.8976 130.777 42.2427C128.598 40.8484 122.707 38.4743 116.571 40.1325C110.435 41.7907 107.938 44.1166 107.456 45.0722C108.976 47.0809 114.391 50.1073 123.821 48.3509C126.464 47.8584 130.197 47.0806 132.431 45.3622C133.416 45.9502 135.019 46.36 137.653 46.3945C142.854 46.4627 150.046 43.6591 152.992 42.2488C153.16 38.1323 147.307 37.4178 144.36 37.5752Z" fill="#F0F0F0"/>
<path d="M130.777 42.2427C130.539 40.8976 132.923 38.0808 144.36 37.5752C147.307 37.4178 153.16 38.1323 152.992 42.2488C150.046 43.6591 142.854 46.4627 137.653 46.3945C135.019 46.36 133.416 45.9502 132.431 45.3622M130.777 42.2427C128.598 40.8484 122.707 38.4743 116.571 40.1325C110.435 41.7907 107.938 44.1166 107.456 45.0722C108.976 47.0809 114.391 50.1073 123.821 48.3509C126.464 47.8584 130.197 47.0806 132.431 45.3622M130.777 42.2427C130.87 43.2508 130.985 44.4987 132.431 45.3622" stroke="#563B00" stroke-width="0.6"/>
<path d="M145.046 45.0297C147.683 43.9668 145.708 39.8424 144.392 37.913C143.909 37.1372 139.672 38.0056 137.614 38.5368C135.343 47.2897 141.751 46.3582 145.046 45.0297Z" fill="#563B00" stroke="#563B00" stroke-width="0.6"/>
<ellipse cx="0.858472" cy="1.05912" rx="0.858472" ry="1.05912" transform="matrix(-0.855062 0.518525 0.518525 0.855062 143.155 38.3672)" fill="#D9D9D9"/>
<path d="M123.56 47.8086C126.314 46.6609 124.232 42.1578 122.846 40.0497C122.339 39.2022 117.909 40.1315 115.757 40.7021C113.418 50.2324 120.118 49.2431 123.56 47.8086Z" fill="#563B00" stroke="#563B00" stroke-width="0.6"/>
<ellipse cx="0.930468" cy="1.14795" rx="0.930468" ry="1.14795" transform="matrix(-0.855062 0.518525 0.518525 0.855062 121.531 40.5371)" fill="#D9D9D9"/>
</g>
<path d="M178.174 68.7393C181.309 65.666 185.695 56.376 178.158 43.8035M178.174 68.7393C173.007 74.0457 156.882 83.356 133.722 78.1467C129.888 78.2971 125.023 75.3185 123.07 73.8105C114.128 70.1776 113.371 65.1669 114.111 63.1157C112.336 60.3422 113.886 59.2966 114.882 59.1205L117.763 53.2857C114.457 52.5772 113.134 50.6736 112.886 49.8103C110.221 50.5619 109.027 47.7604 108.762 46.2657C106.113 44.9905 107.497 43.977 108.52 43.6297C107.441 41.8049 109.071 39.9924 110.022 39.3142C109.901 38.0088 111.096 37.2322 111.708 37.007C112.517 33.692 115.899 32.5706 117.489 32.4243C119.874 17.6222 132.582 20.8241 138.638 24.2753M178.174 68.7393C159.585 79.0055 138.403 77.9482 130.136 76.1362M178.158 43.8035C180.162 39.9059 177.378 28.7248 166.938 31.9243M178.158 43.8035C177.382 45.5468 174.677 49.1394 170.068 49.5635M166.938 31.9243C162.11 23.9297 148.586 9.94174 138.638 24.2753M166.938 31.9243C166.097 32.1821 164.588 33.8393 165.282 38.406M138.638 24.2753C137.915 24.8932 136.35 27.0499 135.868 30.7329M172.981 36.6504C170.378 35.5969 166.127 35.7035 169.949 44.5589" stroke="#563B00" stroke-width="0.6"/>
<path d="M153.683 53.4648C151.484 53.0196 148.867 55.7662 147.344 57.9989C146.643 59.0257 146.013 60.1436 144.946 60.7807C143.002 61.9413 139.205 63.1753 131.449 64.3967C123.095 65.7123 120.511 64.378 119.37 63.116C118.423 62.0687 117.742 61.3233 117.211 60.7779C115.877 59.4048 113.05 58.8255 112.944 60.7375C112.895 61.6021 113.238 62.6206 113.578 63.3073C113.029 68.4842 118.825 72.0518 121.291 72.8502C123.757 73.6485 128.871 73.5196 130.227 73.3949C131.582 73.2701 146.442 69.7684 148.924 68.5984C152.527 66.8998 156.925 62.0029 157.294 59.2842C157.906 54.785 157.166 54.1696 153.683 53.4648Z" fill="#E43C39"/>
<path d="M113.578 63.3073C113.029 68.4842 118.825 72.0518 121.291 72.8502C123.757 73.6485 128.871 73.5196 130.227 73.3949C131.582 73.2701 146.442 69.7684 148.924 68.5984C152.527 66.8998 156.925 62.0029 157.294 59.2842C157.906 54.785 157.166 54.1696 153.683 53.4648C151.484 53.0196 148.867 55.7662 147.344 57.9989C146.643 59.0257 146.013 60.1436 144.946 60.7807C143.002 61.9413 139.205 63.1753 131.449 64.3967C123.095 65.7123 120.511 64.378 119.37 63.116C118.423 62.0687 117.742 61.3233 117.211 60.7779C115.877 59.4048 113.05 58.8255 112.944 60.7375C112.895 61.6021 113.238 62.6206 113.578 63.3073ZM113.578 63.3073C122.954 72.3554 133.581 68.9851 140.881 66.6045C146.72 64.7001 150.784 60.3389 152.087 58.3963" stroke="#563B00" stroke-width="0.6"/>
<path d="M123.811 73.1961C119.412 70.9329 106.058 71.2086 95.5517 82.0488C95.4542 87.019 106.823 108.931 121.389 119.967L124.037 131.602L114.113 142.884C119.713 143.764 133.086 143.503 141.781 135.417C141.781 135.417 135.072 132.168 127.33 130.888C125.977 130.664 125.044 119.985 125.044 119.985C127.81 112.299 131.155 90.1323 123.811 73.1961Z" fill="white"/>
<path d="M114.113 142.884L124.037 131.602L121.389 119.967C106.823 108.931 95.4542 87.019 95.5517 82.0488C106.058 71.2086 119.412 70.9329 123.811 73.1961C131.155 90.1323 127.81 112.299 125.044 119.985C125.044 119.985 125.977 130.664 127.33 130.888C135.072 132.168 141.781 135.417 141.781 135.417M114.113 142.884C119.713 143.764 133.086 143.503 141.781 135.417M114.113 142.884C123.372 139.581 136.416 136.53 141.781 135.417" stroke="#563B00" stroke-width="0.6"/>
<path d="M120.984 113.24C125.172 105.775 124.754 90.3902 121.9 80.5147C110.087 80.3538 104.43 85.2596 102.976 88.5906C107.41 102.589 116.829 110.856 120.984 113.24Z" fill="#FABC09"/>
<ellipse cx="1.25274" cy="2.08791" rx="1.25274" ry="2.08791" transform="matrix(-0.868878 -0.495026 -0.495026 0.868878 119.165 91.3809)" fill="white"/>
<ellipse cx="1.25274" cy="2.08791" rx="1.25274" ry="2.08791" transform="matrix(-0.868878 -0.495026 -0.495026 0.868878 120.875 102.135)" fill="white"/>
<ellipse cx="1.61096" cy="2.2534" rx="1.61096" ry="2.2534" transform="matrix(-0.141021 -0.990007 -0.990007 0.141021 113.916 93.6211)" fill="white"/>
<path d="M172.728 121.558C169.902 123.372 163.575 127.775 155.644 118.611C145.73 107.155 136.157 99.04 128.318 100.17L127.78 105.307C121.548 106.473 107.352 107.604 113.53 113.001C113.106 114.338 113.434 117.479 118.131 119.349C118.327 122.16 122.097 126.813 135.373 124.023C136.083 124.791 137.945 125.883 140.781 125.782C147.744 133.06 171.326 142.239 188.664 135.864C188.16 132.072 178.625 120.012 172.728 121.558Z" fill="#A56001"/>
<path d="M127.78 105.307L128.318 100.17C136.157 99.04 145.73 107.155 155.644 118.611C163.575 127.775 169.902 123.372 172.728 121.558C178.625 120.012 188.16 132.072 188.664 135.864C171.326 142.239 147.744 133.06 140.781 125.782M127.78 105.307C121.548 106.473 107.352 107.604 113.53 113.001M127.78 105.307L132.675 104.408M113.53 113.001C113.106 114.338 113.434 117.479 118.131 119.349M113.53 113.001C114.527 112.818 117.064 112.515 119.227 112.767C121.931 113.081 125.988 113.553 131.955 111.412M118.131 119.349C118.327 122.16 122.097 126.813 135.373 124.023M118.131 119.349C122.025 119.865 130.962 120.114 135.56 116.983M135.373 124.023C136.009 123.889 136.666 123.738 137.346 123.57L135.373 124.023ZM135.373 124.023C136.083 124.791 137.945 125.883 140.781 125.782M144.548 125.022C143.15 125.519 141.891 125.742 140.781 125.782" stroke="#563B00" stroke-width="0.6"/>
</g>
<defs>
<filter id="filter0_f_9648_16571" x="51.7637" y="76.3736" width="35.6723" height="28.9951" filterUnits="userSpaceOnUse" color-interpolation-filters="sRGB">
<feFlood flood-opacity="0" result="BackgroundImageFix"/>
<feBlend mode="normal" in="SourceGraphic" in2="BackgroundImageFix" result="shape"/>
<feGaussianBlur stdDeviation="3.37963" result="effect1_foregroundBlur_9648_16571"/>
</filter>
<clipPath id="clip0_9648_16571">
<rect width="200" height="154" fill="white"/>
</clipPath>
</defs>
</svg>
