<svg viewBox="0 0 250 251" fill="currentColor" xmlns="http://www.w3.org/2000/svg">
    <g opacity="0.54">
        <path
            d="M250 110.522C250 111.468 249.234 112.235 248.289 112.235C247.344 112.235 246.577 111.468 246.577 110.522C246.577 109.576 247.344 108.81 248.289 108.81C249.234 108.81 250 109.576 250 110.522Z" />
        <path
            d="M233.172 115.09C235.535 115.09 237.45 113.173 237.45 110.808C237.45 108.443 235.535 106.526 233.172 106.526C230.809 106.526 228.893 108.443 228.893 110.808C228.893 113.173 230.809 115.09 233.172 115.09Z" />
        <path
            d="M223.759 110.522C223.759 113.675 221.205 116.232 218.055 116.232C214.904 116.232 212.35 113.675 212.35 110.522C212.35 107.369 214.904 104.813 218.055 104.813C221.205 104.813 223.759 107.369 223.759 110.522Z" />
        <path
            d="M202.653 116.802C206.118 116.802 208.928 113.991 208.928 110.522C208.928 107.054 206.118 104.242 202.653 104.242C199.187 104.242 196.378 107.054 196.378 110.522C196.378 113.991 199.187 116.802 202.653 116.802Z" />
        <path
            d="M157.588 248.97C157.588 248.182 156.949 247.542 156.161 247.542C155.374 247.542 154.735 248.182 154.735 248.97C154.735 249.758 155.374 250.397 156.161 250.397C156.949 250.397 157.588 249.758 157.588 248.97Z" />
        <path
            d="M125.928 55.1434C125.832 55.1434 125.737 55.1413 125.643 55.1373C125.548 55.1413 125.453 55.1434 125.357 55.1434C121.734 55.1434 118.797 52.2039 118.797 48.5778C118.797 44.9518 121.734 42.0123 125.357 42.0123C125.453 42.0123 125.548 42.0143 125.643 42.0184C125.737 42.0143 125.832 42.0123 125.928 42.0123C129.551 42.0123 132.488 44.9518 132.488 48.5778C132.488 52.2039 129.551 55.1434 125.928 55.1434Z" />
        <path
            d="M94.5532 54.5725C91.2452 54.5725 88.5635 51.8886 88.5635 48.5778C88.5635 45.2671 91.2452 42.5832 94.5532 42.5832C97.8612 42.5832 100.543 45.2671 100.543 48.5778C100.543 51.8886 97.8612 54.5725 94.5532 54.5725Z" />
        <path
            d="M73.7319 48.8633C73.7319 52.0164 76.2858 54.5725 79.4363 54.5725C82.5868 54.5725 85.1408 52.0164 85.1408 48.8633C85.1408 45.7102 82.5868 43.1541 79.4363 43.1541C76.2858 43.1541 73.7319 45.7102 73.7319 48.8633Z" />
        <path
            d="M64.3195 54.5725C61.3265 54.5725 58.9002 52.1442 58.9002 49.1487C58.9002 46.1533 61.3265 43.725 64.3195 43.725C67.3124 43.725 69.7387 46.1533 69.7387 49.1488C69.7387 52.1442 67.3124 54.5725 64.3195 54.5725Z" />
        <path
            d="M44.0686 49.1487C44.0686 51.5136 45.9841 53.4306 48.347 53.4306C50.7098 53.4306 52.6253 51.5136 52.6253 49.1487C52.6253 46.7839 50.7098 44.8669 48.347 44.8669C45.9841 44.8669 44.0686 46.7839 44.0686 49.1487Z" />
        <path
            d="M30.9483 48.8633C30.9483 50.1245 31.9699 51.147 33.2301 51.147C34.4903 51.147 35.5119 50.1245 35.5119 48.8633C35.5119 47.6021 34.4903 46.5796 33.2301 46.5796C31.9699 46.5796 30.9483 47.6021 30.9483 48.8633Z" />
        <path
            d="M109.67 55.1434C106.204 55.1434 103.395 52.3317 103.395 48.8633C103.395 45.3949 106.204 42.5832 109.67 42.5832C113.136 42.5832 115.945 45.3949 115.945 48.8633C115.945 52.3317 113.136 55.1434 109.67 55.1434Z" />
        <path
            d="M46.3504 33.734C46.3504 35.1529 47.4997 36.3031 48.9174 36.3031C50.3351 36.3031 51.4844 35.1529 51.4844 33.734C51.4844 32.3151 50.3351 31.1649 48.9174 31.1649C47.4997 31.1649 46.3504 32.3151 46.3504 33.734Z" />
        <path
            d="M33.8006 35.1613C33.1704 35.1613 32.6597 34.6501 32.6597 34.0194C32.6597 33.3888 33.1704 32.8776 33.8006 32.8776C34.4307 32.8776 34.9415 33.3888 34.9415 34.0194C34.9415 34.6501 34.4307 35.1613 33.8006 35.1613Z" />
        <path
            d="M60.6116 34.0194C60.6116 36.2266 62.3994 38.0159 64.6047 38.0159C66.81 38.0159 68.5978 36.2266 68.5978 34.0194C68.5978 31.8123 66.81 30.023 64.6047 30.023C62.3994 30.023 60.6116 31.8123 60.6116 34.0194Z" />
        <path
            d="M79.1511 38.5868C76.4732 38.5868 74.3023 36.4141 74.3023 33.734C74.3023 31.0539 76.4732 28.8812 79.1511 28.8812C81.829 28.8812 83.9999 31.0539 83.9999 33.734C83.9999 36.4141 81.829 38.5868 79.1511 38.5868Z" />
        <path
            d="M89.1339 33.734C89.1339 36.7294 91.5602 39.1577 94.5532 39.1577C97.5461 39.1577 99.9724 36.7294 99.9724 33.734C99.9724 30.7386 97.5461 28.3103 94.5532 28.3103C91.5602 28.3103 89.1339 30.7386 89.1339 33.734Z" />
        <path
            d="M125.643 27.746C125.548 27.7416 125.453 27.7394 125.357 27.7394C122.049 27.7394 119.368 30.4232 119.368 33.734C119.368 37.0447 122.049 39.7286 125.357 39.7286C125.453 39.7286 125.548 39.7264 125.643 39.7219C125.737 39.7264 125.832 39.7286 125.928 39.7286C129.236 39.7286 131.917 37.0447 131.917 33.734C131.917 30.4232 129.236 27.7394 125.928 27.7394C125.832 27.7394 125.737 27.7416 125.643 27.746Z" />
        <path
            d="M103.966 33.4485C103.966 36.6016 106.52 39.1577 109.67 39.1577C112.821 39.1577 115.374 36.6016 115.374 33.4485C115.374 30.2954 112.821 27.7394 109.67 27.7394C106.52 27.7394 103.966 30.2954 103.966 33.4485Z" />
        <path
            d="M64.3195 20.3174C63.2168 20.3174 62.3229 19.4228 62.3229 18.3192C62.3229 17.2156 63.2168 16.321 64.3195 16.321C65.4221 16.321 66.316 17.2156 66.316 18.3192C66.316 19.4228 65.4221 20.3174 64.3195 20.3174Z" />
        <path
            d="M76.5841 18.0338C76.5841 19.6103 77.8611 20.8883 79.4363 20.8883C81.0116 20.8883 82.2886 19.6103 82.2886 18.0338C82.2886 16.4572 81.0116 15.1792 79.4363 15.1792C77.8611 15.1792 76.5841 16.4572 76.5841 18.0338Z" />
        <path
            d="M94.5532 22.0302C92.5054 22.0302 90.8453 20.3687 90.8453 18.3192C90.8453 16.2697 92.5054 14.6083 94.5532 14.6083C96.601 14.6083 98.2611 16.2697 98.2611 18.3192C98.2611 20.3687 96.601 22.0302 94.5532 22.0302Z" />
        <path
            d="M121.079 18.3192C121.079 20.684 122.994 22.6011 125.357 22.6011C125.453 22.6011 125.548 22.5979 125.643 22.5917C125.737 22.5979 125.832 22.6011 125.928 22.6011C128.291 22.6011 130.206 20.684 130.206 18.3192C130.206 15.9544 128.291 14.0373 125.928 14.0373C125.832 14.0373 125.737 14.0405 125.643 14.0467C125.548 14.0405 125.453 14.0373 125.357 14.0373C122.994 14.0373 121.079 15.9544 121.079 18.3192Z" />
        <path
            d="M109.385 22.6011C107.022 22.6011 105.106 20.684 105.106 18.3192C105.106 15.9544 107.022 14.0373 109.385 14.0373C111.748 14.0373 113.663 15.9544 113.663 18.3192C113.663 20.684 111.748 22.6011 109.385 22.6011Z" />
        <path
            d="M93.127 2.90445C93.127 3.69273 93.7655 4.33175 94.5532 4.33175C95.3408 4.33175 95.9793 3.69273 95.9793 2.90445C95.9793 2.11618 95.3408 1.47716 94.5532 1.47716C93.7655 1.47716 93.127 2.11618 93.127 2.90445Z" />
        <path
            d="M109.67 4.90266C108.725 4.90266 107.959 4.13584 107.959 3.18991C107.959 2.24399 108.725 1.47716 109.67 1.47716C110.615 1.47716 111.381 2.24399 111.381 3.18991C111.381 4.13584 110.615 4.90266 109.67 4.90266Z" />
        <path
            d="M123.361 2.90445C123.361 4.00804 124.255 4.90267 125.357 4.90267C125.454 4.90267 125.549 4.89577 125.643 4.88243C125.736 4.89577 125.831 4.90267 125.928 4.90267C127.03 4.90267 127.924 4.00804 127.924 2.90446C127.924 1.80087 127.03 0.906245 125.928 0.906245C125.831 0.906245 125.736 0.913145 125.643 0.926481C125.549 0.913145 125.454 0.906245 125.357 0.906245C124.255 0.906245 123.361 1.80087 123.361 2.90445Z" />
        <path
            d="M48.9174 215.571C47.4997 215.571 46.3504 216.721 46.3504 218.14C46.3504 219.559 47.4997 220.709 48.9174 220.709C50.3351 220.709 51.4844 219.559 51.4844 218.14C51.4844 216.721 50.3351 215.571 48.9174 215.571Z" />
        <path
            d="M32.6596 217.855C32.6596 217.224 33.1704 216.713 33.8005 216.713C34.4307 216.713 34.9414 217.224 34.9414 217.855C34.9414 218.485 34.4307 218.997 33.8005 218.997C33.1704 218.997 32.6596 218.485 32.6596 217.855Z" />
        <path
            d="M64.6047 213.858C62.3993 213.858 60.6116 215.648 60.6116 217.855C60.6116 220.062 62.3993 221.851 64.6047 221.851C66.81 221.851 68.5978 220.062 68.5978 217.855C68.5978 215.648 66.81 213.858 64.6047 213.858Z" />
        <path
            d="M74.3023 218.14C74.3023 215.46 76.4732 213.287 79.1511 213.287C81.829 213.287 83.9999 215.46 83.9999 218.14C83.9999 220.82 81.829 222.993 79.1511 222.993C76.4732 222.993 74.3023 220.82 74.3023 218.14Z" />
        <path
            d="M94.5532 212.717C91.5602 212.717 89.1339 215.145 89.1339 218.14C89.1339 221.136 91.5602 223.564 94.5532 223.564C97.5461 223.564 99.9724 221.136 99.9724 218.14C99.9724 215.145 97.5461 212.717 94.5532 212.717Z" />
        <path
            d="M125.643 212.152C125.737 212.148 125.832 212.146 125.928 212.146C129.236 212.146 131.917 214.83 131.917 218.14C131.917 221.451 129.236 224.135 125.928 224.135C125.832 224.135 125.737 224.133 125.643 224.128C125.548 224.133 125.453 224.135 125.357 224.135C122.049 224.135 119.368 221.451 119.368 218.14C119.368 214.83 122.049 212.146 125.357 212.146C125.453 212.146 125.548 212.148 125.643 212.152Z" />
        <path
            d="M109.67 212.717C106.52 212.717 103.966 215.273 103.966 218.426C103.966 221.579 106.52 224.135 109.67 224.135C112.821 224.135 115.374 221.579 115.374 218.426C115.374 215.273 112.821 212.717 109.67 212.717Z" />
        <path
            d="M62.3229 233.555C62.3229 232.451 63.2168 231.557 64.3195 231.557C65.4221 231.557 66.316 232.451 66.316 233.555C66.316 234.659 65.4221 235.553 64.3195 235.553C63.2168 235.553 62.3229 234.659 62.3229 233.555Z" />
        <path
            d="M79.4363 230.986C77.8611 230.986 76.5841 232.264 76.5841 233.84C76.5841 235.417 77.8611 236.695 79.4363 236.695C81.0116 236.695 82.2885 235.417 82.2885 233.84C82.2885 232.264 81.0116 230.986 79.4363 230.986Z" />
        <path
            d="M90.8453 233.555C90.8453 231.506 92.5053 229.844 94.5532 229.844C96.601 229.844 98.2611 231.506 98.2611 233.555C98.2611 235.605 96.601 237.266 94.5532 237.266C92.5053 237.266 90.8453 235.605 90.8453 233.555Z" />
        <path
            d="M125.357 229.273C122.994 229.273 121.079 231.19 121.079 233.555C121.079 235.92 122.994 237.837 125.357 237.837C125.453 237.837 125.548 237.834 125.643 237.828C125.737 237.834 125.832 237.837 125.928 237.837C128.291 237.837 130.206 235.92 130.206 233.555C130.206 231.19 128.291 229.273 125.928 229.273C125.832 229.273 125.737 229.276 125.643 229.283C125.548 229.276 125.453 229.273 125.357 229.273Z" />
        <path
            d="M105.106 233.555C105.106 231.19 107.022 229.273 109.385 229.273C111.748 229.273 113.663 231.19 113.663 233.555C113.663 235.92 111.748 237.837 109.385 237.837C107.022 237.837 105.106 235.92 105.106 233.555Z" />
        <path
            d="M94.5532 247.542C93.7655 247.542 93.127 248.182 93.127 248.97C93.127 249.758 93.7655 250.397 94.5532 250.397C95.3408 250.397 95.9793 249.758 95.9793 248.97C95.9793 248.182 95.3408 247.542 94.5532 247.542Z" />
        <path
            d="M107.959 248.684C107.959 247.738 108.725 246.972 109.67 246.972C110.615 246.972 111.381 247.738 111.381 248.684C111.381 249.63 110.615 250.397 109.67 250.397C108.725 250.397 107.959 249.63 107.959 248.684Z" />
        <path
            d="M125.357 246.972C124.255 246.972 123.361 247.866 123.361 248.97C123.361 250.073 124.255 250.968 125.357 250.968C126.46 250.968 127.354 250.073 127.354 248.97C127.354 247.866 126.46 246.972 125.357 246.972Z" />
        <path
            d="M141.045 246.972C141.99 246.972 142.756 247.738 142.756 248.684C142.756 249.63 141.99 250.397 141.045 250.397C140.099 250.397 139.333 249.63 139.333 248.684C139.333 247.738 140.099 246.972 141.045 246.972Z" />
        <path
            d="M48.6322 116.802C45.1666 116.802 42.3572 113.991 42.3572 110.522C42.3572 107.054 45.1666 104.242 48.6322 104.242C52.0977 104.242 54.9071 107.054 54.9071 110.522C54.9071 113.991 52.0977 116.802 48.6322 116.802Z" />
        <path
            d="M27.5256 110.522C27.5256 113.675 30.0796 116.232 33.2301 116.232C36.3806 116.232 38.9346 113.675 38.9346 110.522C38.9346 107.369 36.3806 104.813 33.2301 104.813C30.0796 104.813 27.5256 107.369 27.5256 110.522Z" />
        <path
            d="M18.1133 115.09C15.7504 115.09 13.8349 113.173 13.8349 110.808C13.8349 108.443 15.7504 106.526 18.1133 106.526C20.4761 106.526 22.3916 108.443 22.3916 110.808C22.3916 113.173 20.4761 115.09 18.1133 115.09Z" />
        <path
            d="M1.28506 110.522C1.28506 111.468 2.05125 112.235 2.99641 112.235C3.94155 112.235 4.70774 111.468 4.70774 110.522C4.70774 109.576 3.94155 108.81 2.99641 108.81C2.05125 108.81 1.28506 109.576 1.28506 110.522Z" />
        <path
            d="M125.643 117.373C121.862 117.373 118.797 114.306 118.797 110.522C118.797 106.739 121.862 103.671 125.643 103.671C129.423 103.671 132.488 106.739 132.488 110.522C132.488 114.306 129.423 117.373 125.643 117.373Z" />
        <path
            d="M103.395 110.522C103.395 114.306 106.46 117.373 110.24 117.373C114.021 117.373 117.086 114.306 117.086 110.522C117.086 106.739 114.021 103.671 110.24 103.671C106.46 103.671 103.395 106.739 103.395 110.522Z" />
        <path
            d="M94.8384 117.373C91.0578 117.373 87.993 114.306 87.993 110.522C87.993 106.739 91.0578 103.671 94.8384 103.671C98.619 103.671 101.684 106.739 101.684 110.522C101.684 114.306 98.619 117.373 94.8384 117.373Z" />
        <path
            d="M72.591 110.522C72.591 114.306 75.6557 117.373 79.4363 117.373C83.2169 117.373 86.2817 114.306 86.2817 110.522C86.2817 106.739 83.2169 103.671 79.4363 103.671C75.6557 103.671 72.591 106.739 72.591 110.522Z" />
        <path
            d="M64.3195 117.373C60.6964 117.373 57.7593 114.306 57.7593 110.522C57.7593 106.739 60.6964 103.671 64.3195 103.671C67.9425 103.671 70.8796 106.739 70.8796 110.522C70.8796 114.306 67.9425 117.373 64.3195 117.373Z" />
        <path
            d="M42.3572 95.1076C42.3572 98.576 45.1666 101.388 48.6322 101.388C52.0977 101.388 54.9071 98.576 54.9071 95.1076C54.9071 91.6392 52.0977 88.8275 48.6322 88.8275C45.1666 88.8275 42.3573 91.6392 42.3572 95.1076Z" />
        <path
            d="M33.5153 100.246C30.5224 100.246 28.0961 97.8176 28.0961 94.8221C28.0961 91.8267 30.5224 89.3984 33.5153 89.3984C36.5083 89.3984 38.9346 91.8267 38.9346 94.8221C38.9346 97.8176 36.5083 100.246 33.5153 100.246Z" />
        <path
            d="M14.4053 94.8221C14.4053 96.8716 16.0654 98.5331 18.1133 98.5331C20.1611 98.5331 21.8212 96.8716 21.8212 94.8221C21.8212 92.7726 20.1611 91.1112 18.1133 91.1112C16.0654 91.1112 14.4053 92.7726 14.4053 94.8221Z" />
        <path
            d="M3.28163 96.2494C2.49401 96.2494 1.85551 95.6104 1.85551 94.8221C1.85551 94.0339 2.49401 93.3948 3.28163 93.3948C4.06926 93.3948 4.70774 94.0339 4.70774 94.8221C4.70774 95.6104 4.06926 96.2494 3.28163 96.2494Z" />
        <path
            d="M118.797 95.1076C118.797 98.8913 121.862 101.959 125.643 101.959C129.423 101.959 132.488 98.8913 132.488 95.1076C132.488 91.3239 129.423 88.2566 125.643 88.2566C121.862 88.2566 118.797 91.3239 118.797 95.1076Z" />
        <path
            d="M110.24 101.959C106.46 101.959 103.395 98.8913 103.395 95.1076C103.395 91.3239 106.46 88.2566 110.24 88.2566C114.021 88.2566 117.086 91.3239 117.086 95.1076C117.086 98.8913 114.021 101.959 110.24 101.959Z" />
        <path
            d="M87.993 95.1076C87.993 98.8913 91.0578 101.959 94.8384 101.959C98.619 101.959 101.684 98.8913 101.684 95.1076C101.684 91.3239 98.619 88.2566 94.8384 88.2566C91.0578 88.2566 87.993 91.3239 87.993 95.1076Z" />
        <path
            d="M79.4363 101.959C75.6557 101.959 72.591 98.8913 72.591 95.1076C72.591 91.3239 75.6557 88.2566 79.4363 88.2566C83.2169 88.2566 86.2817 91.3239 86.2817 95.1076C86.2817 98.8913 83.2169 101.959 79.4363 101.959Z" />
        <path
            d="M57.7593 95.1076C57.7593 98.8913 60.6964 101.959 64.3195 101.959C67.9425 101.959 70.8796 98.8913 70.8796 95.1076C70.8796 91.3239 67.9425 88.2566 64.3195 88.2566C60.6964 88.2566 57.7593 91.3239 57.7593 95.1076Z" />
        <path
            d="M48.347 85.9729C45.0389 85.9729 42.3573 83.289 42.3573 79.9783C42.3573 76.6675 45.0389 73.9836 48.347 73.9836C51.655 73.9836 54.3367 76.6675 54.3367 79.9783C54.3367 83.289 51.655 85.9729 48.347 85.9729Z" />
        <path
            d="M28.6665 79.6928C28.6665 82.5306 30.9651 84.8311 33.8005 84.8311C36.636 84.8311 38.9346 82.5306 38.9346 79.6928C38.9346 76.855 36.636 74.5546 33.8005 74.5546C30.9651 74.5546 28.6665 76.855 28.6665 79.6928Z" />
        <path
            d="M17.828 82.5474C16.2528 82.5474 14.9758 81.2694 14.9758 79.6928C14.9758 78.1163 16.2528 76.8382 17.828 76.8382C19.4033 76.8382 20.6803 78.1163 20.6803 79.6928C20.6803 81.2694 19.4033 82.5474 17.828 82.5474Z" />
        <path
            d="M1.85551 79.9783C1.85551 80.7665 2.49402 81.4056 3.28163 81.4056C4.06926 81.4056 4.70774 80.7665 4.70774 79.9783C4.70774 79.19 4.06926 78.551 3.28163 78.551C2.49402 78.551 1.85551 79.19 1.85551 79.9783Z" />
        <path
            d="M125.643 86.5438C121.862 86.5438 118.797 83.4765 118.797 79.6928C118.797 75.9091 121.862 72.8418 125.643 72.8418C129.423 72.8418 132.488 75.9091 132.488 79.6928C132.488 83.4765 129.423 86.5438 125.643 86.5438Z" />
        <path
            d="M103.395 79.6928C103.395 83.4765 106.46 86.5438 110.24 86.5438C114.021 86.5438 117.086 83.4765 117.086 79.6928C117.086 75.9091 114.021 72.8418 110.24 72.8418C106.46 72.8418 103.395 75.9091 103.395 79.6928Z" />
        <path
            d="M94.8384 86.5438C91.0578 86.5438 87.993 83.4765 87.993 79.6928C87.993 75.9091 91.0578 72.8418 94.8384 72.8418C98.619 72.8418 101.684 75.9091 101.684 79.6928C101.684 83.4765 98.619 86.5438 94.8384 86.5438Z" />
        <path
            d="M72.591 79.6928C72.591 83.4765 75.6557 86.5438 79.4363 86.5438C83.2169 86.5438 86.2817 83.4765 86.2817 79.6928C86.2817 75.9091 83.2169 72.8418 79.4363 72.8418C75.6557 72.8418 72.591 75.9091 72.591 79.6928Z" />
        <path
            d="M64.3195 86.5438C60.6964 86.5438 57.7593 83.4765 57.7593 79.6928C57.7593 75.9091 60.6964 72.8418 64.3195 72.8418C67.9425 72.8418 70.8796 75.9091 70.8796 79.6928C70.8796 83.4765 67.9425 86.5438 64.3195 86.5438Z" />
        <path
            d="M43.4982 64.2781C43.4982 67.1158 45.7967 69.4163 48.6322 69.4163C51.4676 69.4163 53.7662 67.1158 53.7662 64.2781C53.7662 61.4403 51.4676 59.1398 48.6322 59.1398C45.7967 59.1398 43.4982 61.4403 43.4982 64.2781Z" />
        <path
            d="M33.8005 68.2745C31.5952 68.2745 29.8074 66.4852 29.8074 64.2781C29.8074 62.0709 31.5952 60.2816 33.8005 60.2816C36.0059 60.2816 37.7937 62.0709 37.7937 64.2781C37.7937 66.4852 36.0059 68.2745 33.8005 68.2745Z" />
        <path
            d="M16.1167 64.2781C16.1167 65.224 16.8829 65.9908 17.828 65.9908C18.7732 65.9908 19.5394 65.224 19.5394 64.2781C19.5394 63.3321 18.7732 62.5653 17.828 62.5653C16.8829 62.5653 16.1167 63.3321 16.1167 64.2781Z" />
        <path
            d="M64.3195 70.5581C61.0115 70.5581 58.3298 67.8743 58.3298 64.5635C58.3298 61.2528 61.0115 58.5689 64.3195 58.5689C67.6275 58.5689 70.3092 61.2528 70.3092 64.5635C70.3092 67.8743 67.6275 70.5581 64.3195 70.5581Z" />
        <path
            d="M73.1614 64.2781C73.1614 67.7465 75.9708 70.5581 79.4363 70.5581C82.9019 70.5581 85.7112 67.7465 85.7112 64.2781C85.7112 60.8097 82.9019 57.998 79.4363 57.998C75.9708 57.998 73.1614 60.8097 73.1614 64.2781Z" />
        <path
            d="M94.5532 71.1291C90.9301 71.1291 87.993 68.1896 87.993 64.5635C87.993 60.9375 90.9301 57.998 94.5532 57.998C98.1762 57.998 101.113 60.9375 101.113 64.5635C101.113 68.1896 98.1762 71.1291 94.5532 71.1291Z" />
        <path
            d="M118.797 64.2781C118.797 68.0618 121.862 71.1291 125.643 71.1291C129.423 71.1291 132.488 68.0618 132.488 64.2781C132.488 60.4944 129.423 57.4271 125.643 57.4271C121.862 57.4271 118.797 60.4944 118.797 64.2781Z" />
        <path
            d="M110.24 71.1291C106.46 71.1291 103.395 68.0618 103.395 64.2781C103.395 60.4944 106.46 57.4271 110.24 57.4271C114.021 57.4271 117.086 60.4944 117.086 64.2781C117.086 68.0618 114.021 71.1291 110.24 71.1291Z" />
        <path
            d="M42.3572 156.767C42.3572 153.298 45.1666 150.487 48.6322 150.487C52.0977 150.487 54.9071 153.298 54.9071 156.767C54.9071 160.235 52.0977 163.047 48.6322 163.047C45.1666 163.047 42.3572 160.235 42.3572 156.767Z" />
        <path
            d="M33.5153 151.628C30.5224 151.628 28.0961 154.057 28.0961 157.052C28.0961 160.048 30.5224 162.476 33.5153 162.476C36.5083 162.476 38.9346 160.048 38.9346 157.052C38.9346 154.057 36.5083 151.628 33.5153 151.628Z" />
        <path
            d="M14.4053 157.052C14.4053 155.003 16.0654 153.341 18.1133 153.341C20.1611 153.341 21.8212 155.003 21.8212 157.052C21.8212 159.102 20.1611 160.763 18.1133 160.763C16.0654 160.763 14.4053 159.102 14.4053 157.052Z" />
        <path
            d="M3.28162 155.625C2.49401 155.625 1.85551 156.264 1.85551 157.052C1.85551 157.84 2.49401 158.479 3.28162 158.479C4.06925 158.479 4.70774 157.84 4.70774 157.052C4.70774 156.264 4.06925 155.625 3.28162 155.625Z" />
        <path
            d="M118.797 156.767C118.797 152.983 121.862 149.916 125.643 149.916C129.423 149.916 132.488 152.983 132.488 156.767C132.488 160.55 129.423 163.618 125.643 163.618C121.862 163.618 118.797 160.55 118.797 156.767Z" />
        <path
            d="M110.24 149.916C106.46 149.916 103.395 152.983 103.395 156.767C103.395 160.55 106.46 163.618 110.24 163.618C114.021 163.618 117.086 160.55 117.086 156.767C117.086 152.983 114.021 149.916 110.24 149.916Z" />
        <path
            d="M87.993 156.767C87.993 152.983 91.0578 149.916 94.8384 149.916C98.619 149.916 101.684 152.983 101.684 156.767C101.684 160.55 98.619 163.618 94.8384 163.618C91.0578 163.618 87.993 160.55 87.993 156.767Z" />
        <path
            d="M79.4363 149.916C75.6557 149.916 72.591 152.983 72.591 156.767C72.591 160.55 75.6557 163.618 79.4363 163.618C83.2169 163.618 86.2817 160.55 86.2817 156.767C86.2817 152.983 83.2169 149.916 79.4363 149.916Z" />
        <path
            d="M57.7593 156.767C57.7593 152.983 60.6964 149.916 64.3195 149.916C67.9425 149.916 70.8796 152.983 70.8796 156.767C70.8796 160.55 67.9425 163.618 64.3195 163.618C60.6964 163.618 57.7593 160.55 57.7593 156.767Z" />
        <path
            d="M48.3469 165.901C45.0389 165.901 42.3572 168.585 42.3572 171.896C42.3572 175.207 45.0389 177.891 48.3469 177.891C51.655 177.891 54.3366 175.207 54.3366 171.896C54.3366 168.585 51.655 165.901 48.3469 165.901Z" />
        <path
            d="M28.6665 172.181C28.6665 169.344 30.9651 167.043 33.8005 167.043C36.636 167.043 38.9346 169.344 38.9346 172.181C38.9346 175.019 36.636 177.32 33.8005 177.32C30.9651 177.32 28.6665 175.019 28.6665 172.181Z" />
        <path
            d="M17.828 169.327C16.2528 169.327 14.9758 170.605 14.9758 172.181C14.9758 173.758 16.2528 175.036 17.828 175.036C19.4033 175.036 20.6803 173.758 20.6803 172.181C20.6803 170.605 19.4033 169.327 17.828 169.327Z" />
        <path
            d="M1.85551 171.896C1.85551 171.108 2.49401 170.469 3.28162 170.469C4.06925 170.469 4.70774 171.108 4.70774 171.896C4.70774 172.684 4.06925 173.323 3.28162 173.323C2.49401 173.323 1.85551 172.684 1.85551 171.896Z" />
        <path
            d="M125.643 165.33C121.862 165.33 118.797 168.398 118.797 172.181C118.797 175.965 121.862 179.032 125.643 179.032C129.423 179.032 132.488 175.965 132.488 172.181C132.488 168.398 129.423 165.33 125.643 165.33Z" />
        <path
            d="M103.395 172.181C103.395 168.398 106.46 165.33 110.24 165.33C114.021 165.33 117.086 168.398 117.086 172.181C117.086 175.965 114.021 179.032 110.24 179.032C106.46 179.032 103.395 175.965 103.395 172.181Z" />
        <path
            d="M94.8384 165.33C91.0578 165.33 87.993 168.398 87.993 172.181C87.993 175.965 91.0578 179.032 94.8384 179.032C98.619 179.032 101.684 175.965 101.684 172.181C101.684 168.398 98.619 165.33 94.8384 165.33Z" />
        <path
            d="M72.591 172.181C72.591 168.398 75.6557 165.33 79.4363 165.33C83.2169 165.33 86.2817 168.398 86.2817 172.181C86.2817 175.965 83.2169 179.032 79.4363 179.032C75.6557 179.032 72.5909 175.965 72.591 172.181Z" />
        <path
            d="M64.3195 165.33C60.6964 165.33 57.7593 168.398 57.7593 172.181C57.7593 175.965 60.6964 179.032 64.3195 179.032C67.9425 179.032 70.8796 175.965 70.8796 172.181C70.8796 168.398 67.9425 165.33 64.3195 165.33Z" />
        <path
            d="M43.4981 187.596C43.4981 184.758 45.7967 182.458 48.6322 182.458C51.4676 182.458 53.7662 184.758 53.7662 187.596C53.7662 190.434 51.4676 192.734 48.6322 192.734C45.7967 192.734 43.4981 190.434 43.4981 187.596Z" />
        <path
            d="M33.8005 183.6C31.5952 183.6 29.8074 185.389 29.8074 187.596C29.8074 189.803 31.5952 191.593 33.8005 191.593C36.0059 191.593 37.7937 189.803 37.7937 187.596C37.7937 185.389 36.0059 183.6 33.8005 183.6Z" />
        <path
            d="M16.1167 187.596C16.1167 186.65 16.8829 185.883 17.828 185.883C18.7732 185.883 19.5394 186.65 19.5394 187.596C19.5394 188.542 18.7732 189.309 17.828 189.309C16.8829 189.309 16.1167 188.542 16.1167 187.596Z" />
        <path
            d="M64.3195 181.316C61.0115 181.316 58.3298 184 58.3298 187.311C58.3298 190.621 61.0115 193.305 64.3195 193.305C67.6275 193.305 70.3092 190.621 70.3092 187.311C70.3092 184 67.6275 181.316 64.3195 181.316Z" />
        <path
            d="M73.1614 187.596C73.1614 184.128 75.9708 181.316 79.4363 181.316C82.9019 181.316 85.7112 184.128 85.7112 187.596C85.7112 191.065 82.9019 193.876 79.4363 193.876C75.9708 193.876 73.1614 191.065 73.1614 187.596Z" />
        <path
            d="M94.5532 180.745C90.9301 180.745 87.993 183.685 87.993 187.311C87.993 190.937 90.9301 193.876 94.5532 193.876C98.1762 193.876 101.113 190.937 101.113 187.311C101.113 183.685 98.1762 180.745 94.5532 180.745Z" />
        <path
            d="M118.797 187.596C118.797 183.812 121.862 180.745 125.643 180.745C129.423 180.745 132.488 183.812 132.488 187.596C132.488 191.38 129.423 194.447 125.643 194.447C121.862 194.447 118.797 191.38 118.797 187.596Z" />
        <path
            d="M110.24 180.745C106.46 180.745 103.395 183.812 103.395 187.596C103.395 191.38 106.46 194.447 110.24 194.447C114.021 194.447 117.086 191.38 117.086 187.596C117.086 183.812 114.021 180.745 110.24 180.745Z" />
        <path
            d="M44.0686 202.725C44.0686 200.361 45.9841 198.444 48.3469 198.444C50.7098 198.444 52.6253 200.361 52.6253 202.725C52.6253 205.09 50.7098 207.007 48.3469 207.007C45.9841 207.007 44.0686 205.09 44.0686 202.725Z" />
        <path
            d="M33.2301 200.727C31.9699 200.727 30.9483 201.75 30.9483 203.011C30.9483 204.272 31.9699 205.295 33.2301 205.295C34.4903 205.295 35.5119 204.272 35.5119 203.011C35.5119 201.75 34.4903 200.727 33.2301 200.727Z" />
        <path
            d="M58.9002 202.725C58.9002 199.73 61.3265 197.302 64.3195 197.302C67.3124 197.302 69.7387 199.73 69.7387 202.725C69.7387 205.721 67.3124 208.149 64.3195 208.149C61.3265 208.149 58.9002 205.721 58.9002 202.725Z" />
        <path
            d="M79.4363 197.302C76.2858 197.302 73.7318 199.858 73.7318 203.011C73.7318 206.164 76.2858 208.72 79.4363 208.72C82.5868 208.72 85.1408 206.164 85.1408 203.011C85.1408 199.858 82.5868 197.302 79.4363 197.302Z" />
        <path
            d="M88.5635 203.296C88.5635 199.986 91.2452 197.302 94.5532 197.302C97.8612 197.302 100.543 199.986 100.543 203.296C100.543 206.607 97.8612 209.291 94.5532 209.291C91.2452 209.291 88.5635 206.607 88.5635 203.296Z" />
        <path
            d="M125.928 196.731C125.832 196.731 125.737 196.733 125.643 196.737C125.6 196.735 125.557 196.734 125.514 196.733L125.482 196.732L125.455 196.732L125.419 196.731C125.398 196.731 125.378 196.731 125.357 196.731C121.734 196.731 118.797 199.67 118.797 203.296C118.797 206.922 121.734 209.862 125.357 209.862C125.453 209.862 125.548 209.86 125.643 209.856C125.737 209.86 125.832 209.862 125.928 209.862C129.551 209.862 132.488 206.922 132.488 203.296C132.488 199.67 129.551 196.731 125.928 196.731Z" />
        <path
            d="M103.395 203.011C103.395 199.543 106.204 196.731 109.67 196.731C113.136 196.731 115.945 199.543 115.945 203.011C115.945 206.479 113.136 209.291 109.67 209.291C106.204 209.291 103.395 206.479 103.395 203.011Z" />
        <path
            d="M48.6322 147.632C45.1666 147.632 42.3572 144.82 42.3572 141.352C42.3572 137.883 45.1666 135.072 48.6322 135.072C52.0977 135.072 54.9071 137.883 54.9071 141.352C54.9071 144.82 52.0977 147.632 48.6322 147.632Z" />
        <path
            d="M28.0961 141.066C28.0961 144.062 30.5224 146.49 33.5153 146.49C36.5083 146.49 38.9346 144.062 38.9346 141.066C38.9346 138.071 36.5083 135.643 33.5153 135.643C30.5224 135.643 28.0961 138.071 28.0961 141.066Z" />
        <path
            d="M18.1133 144.777C16.0654 144.777 14.4053 143.116 14.4053 141.066C14.4053 139.017 16.0654 137.355 18.1133 137.355C20.1611 137.355 21.8212 139.017 21.8212 141.066C21.8212 143.116 20.1611 144.777 18.1133 144.777Z" />
        <path
            d="M1.85551 141.066C1.85551 141.855 2.49401 142.494 3.28163 142.494C4.06925 142.494 4.70774 141.855 4.70774 141.066C4.70774 140.278 4.06925 139.639 3.28163 139.639C2.49401 139.639 1.85551 140.278 1.85551 141.066Z" />
        <path
            d="M125.643 148.203C121.862 148.203 118.797 145.136 118.797 141.352C118.797 137.568 121.862 134.501 125.643 134.501C129.423 134.501 132.488 137.568 132.488 141.352C132.488 145.136 129.423 148.203 125.643 148.203Z" />
        <path
            d="M103.395 141.352C103.395 145.136 106.46 148.203 110.24 148.203C114.021 148.203 117.086 145.136 117.086 141.352C117.086 137.568 114.021 134.501 110.24 134.501C106.46 134.501 103.395 137.568 103.395 141.352Z" />
        <path
            d="M94.8384 148.203C91.0578 148.203 87.993 145.136 87.993 141.352C87.993 137.568 91.0578 134.501 94.8384 134.501C98.619 134.501 101.684 137.568 101.684 141.352C101.684 145.136 98.619 148.203 94.8384 148.203Z" />
        <path
            d="M72.591 141.352C72.591 145.136 75.6557 148.203 79.4363 148.203C83.2169 148.203 86.2817 145.136 86.2817 141.352C86.2817 137.568 83.2169 134.501 79.4363 134.501C75.6557 134.501 72.591 137.568 72.591 141.352Z" />
        <path
            d="M64.3195 148.203C60.6964 148.203 57.7593 145.136 57.7593 141.352C57.7593 137.568 60.6964 134.501 64.3195 134.501C67.9425 134.501 70.8796 137.568 70.8796 141.352C70.8796 145.136 67.9425 148.203 64.3195 148.203Z" />
        <path
            d="M42.3572 125.937C42.3572 129.406 45.1666 132.217 48.6322 132.217C52.0977 132.217 54.9071 129.406 54.9071 125.937C54.9071 122.469 52.0977 119.657 48.6322 119.657C45.1666 119.657 42.3572 122.469 42.3572 125.937Z" />
        <path
            d="M33.2301 131.646C30.0796 131.646 27.5256 129.09 27.5256 125.937C27.5256 122.784 30.0796 120.228 33.2301 120.228C36.3806 120.228 38.9346 122.784 38.9346 125.937C38.9346 129.09 36.3806 131.646 33.2301 131.646Z" />
        <path
            d="M13.8349 126.223C13.8349 128.587 15.7504 130.504 18.1133 130.504C20.4761 130.504 22.3916 128.587 22.3916 126.223C22.3916 123.858 20.4761 121.941 18.1133 121.941C15.7504 121.941 13.8349 123.858 13.8349 126.223Z" />
        <path
            d="M2.99641 127.65C2.05125 127.65 1.28506 126.883 1.28506 125.937C1.28506 124.991 2.05125 124.224 2.99641 124.224C3.94155 124.224 4.70774 124.991 4.70774 125.937C4.70774 126.883 3.94155 127.65 2.99641 127.65Z" />
        <path
            d="M118.797 125.937C118.797 129.721 121.862 132.788 125.643 132.788C129.423 132.788 132.488 129.721 132.488 125.937C132.488 122.153 129.423 119.086 125.643 119.086C121.862 119.086 118.797 122.153 118.797 125.937Z" />
        <path
            d="M110.24 132.788C106.46 132.788 103.395 129.721 103.395 125.937C103.395 122.153 106.46 119.086 110.24 119.086C114.021 119.086 117.086 122.153 117.086 125.937C117.086 129.721 114.021 132.788 110.24 132.788Z" />
        <path
            d="M87.993 125.937C87.993 129.721 91.0578 132.788 94.8384 132.788C98.619 132.788 101.684 129.721 101.684 125.937C101.684 122.153 98.619 119.086 94.8384 119.086C91.0578 119.086 87.993 122.153 87.993 125.937Z" />
        <path
            d="M79.4363 132.788C75.6557 132.788 72.591 129.721 72.591 125.937C72.591 122.153 75.6557 119.086 79.4363 119.086C83.2169 119.086 86.2817 122.153 86.2817 125.937C86.2817 129.721 83.2169 132.788 79.4363 132.788Z" />
        <path
            d="M57.7593 125.937C57.7593 129.721 60.6964 132.788 64.3195 132.788C67.9425 132.788 70.8796 129.721 70.8796 125.937C70.8796 122.153 67.9425 119.086 64.3195 119.086C60.6964 119.086 57.7593 122.153 57.7593 125.937Z" />
        <path
            d="M147.89 110.522C147.89 114.306 144.825 117.373 141.045 117.373C137.264 117.373 134.199 114.306 134.199 110.522C134.199 106.739 137.264 103.671 141.045 103.671C144.825 103.671 147.89 106.739 147.89 110.522Z" />
        <path
            d="M156.447 117.373C160.227 117.373 163.292 114.306 163.292 110.522C163.292 106.739 160.227 103.671 156.447 103.671C152.666 103.671 149.601 106.739 149.601 110.522C149.601 114.306 152.666 117.373 156.447 117.373Z" />
        <path
            d="M178.694 110.522C178.694 114.306 175.629 117.373 171.849 117.373C168.068 117.373 165.003 114.306 165.003 110.522C165.003 106.739 168.068 103.671 171.849 103.671C175.629 103.671 178.694 106.739 178.694 110.522Z" />
        <path
            d="M186.966 117.373C190.589 117.373 193.526 114.306 193.526 110.522C193.526 106.739 190.589 103.671 186.966 103.671C183.343 103.671 180.405 106.739 180.405 110.522C180.405 114.306 183.343 117.373 186.966 117.373Z" />
        <path
            d="M208.928 95.1076C208.928 98.576 206.118 101.388 202.653 101.388C199.187 101.388 196.378 98.576 196.378 95.1076C196.378 91.6392 199.187 88.8275 202.653 88.8275C206.118 88.8275 208.928 91.6392 208.928 95.1076Z" />
        <path
            d="M217.77 100.246C220.763 100.246 223.189 97.8176 223.189 94.8221C223.189 91.8267 220.763 89.3984 217.77 89.3984C214.777 89.3984 212.35 91.8267 212.35 94.8221C212.35 97.8176 214.777 100.246 217.77 100.246Z" />
        <path
            d="M236.88 94.8221C236.88 96.8716 235.22 98.5331 233.172 98.5331C231.124 98.5331 229.464 96.8716 229.464 94.8221C229.464 92.7726 231.124 91.1112 233.172 91.1112C235.22 91.1112 236.88 92.7726 236.88 94.8221Z" />
        <path
            d="M248.003 96.2494C248.791 96.2494 249.43 95.6104 249.43 94.8221C249.43 94.0339 248.791 93.3948 248.003 93.3948C247.216 93.3948 246.577 94.0339 246.577 94.8221C246.577 95.6104 247.216 96.2494 248.003 96.2494Z" />
        <path
            d="M141.045 101.959C144.825 101.959 147.89 98.8913 147.89 95.1076C147.89 91.3239 144.825 88.2566 141.045 88.2566C137.264 88.2566 134.199 91.3239 134.199 95.1076C134.199 98.8913 137.264 101.959 141.045 101.959Z" />
        <path
            d="M163.292 95.1076C163.292 98.8913 160.227 101.959 156.447 101.959C152.666 101.959 149.601 98.8913 149.601 95.1076C149.601 91.3239 152.666 88.2566 156.447 88.2566C160.227 88.2566 163.292 91.3239 163.292 95.1076Z" />
        <path
            d="M171.849 101.959C175.629 101.959 178.694 98.8913 178.694 95.1076C178.694 91.3239 175.629 88.2566 171.849 88.2566C168.068 88.2566 165.003 91.3239 165.003 95.1076C165.003 98.8913 168.068 101.959 171.849 101.959Z" />
        <path
            d="M193.526 95.1076C193.526 98.8913 190.589 101.959 186.966 101.959C183.343 101.959 180.405 98.8913 180.405 95.1076C180.405 91.3239 183.343 88.2566 186.966 88.2566C190.589 88.2566 193.526 91.3239 193.526 95.1076Z" />
        <path
            d="M202.938 85.9729C206.246 85.9729 208.928 83.289 208.928 79.9783C208.928 76.6675 206.246 73.9837 202.938 73.9837C199.63 73.9837 196.948 76.6675 196.948 79.9783C196.948 83.289 199.63 85.9729 202.938 85.9729Z" />
        <path
            d="M222.619 79.6928C222.619 82.5306 220.32 84.8311 217.485 84.8311C214.649 84.8311 212.35 82.5306 212.35 79.6928C212.35 76.855 214.649 74.5546 217.485 74.5546C220.32 74.5546 222.619 76.855 222.619 79.6928Z" />
        <path
            d="M233.457 82.5474C235.032 82.5474 236.309 81.2694 236.309 79.6928C236.309 78.1163 235.032 76.8382 233.457 76.8382C231.882 76.8382 230.605 78.1163 230.605 79.6928C230.605 81.2694 231.882 82.5474 233.457 82.5474Z" />
        <path
            d="M249.43 79.9783C249.43 80.7666 248.791 81.4056 248.003 81.4056C247.216 81.4056 246.577 80.7666 246.577 79.9783C246.577 79.19 247.216 78.551 248.003 78.551C248.791 78.551 249.43 79.19 249.43 79.9783Z" />
        <path
            d="M147.89 79.6928C147.89 83.4765 144.825 86.5438 141.045 86.5438C137.264 86.5438 134.199 83.4765 134.199 79.6928C134.199 75.9091 137.264 72.8418 141.045 72.8418C144.825 72.8418 147.89 75.9091 147.89 79.6928Z" />
        <path
            d="M156.447 86.5438C160.227 86.5438 163.292 83.4765 163.292 79.6928C163.292 75.9091 160.227 72.8418 156.447 72.8418C152.666 72.8418 149.601 75.9091 149.601 79.6928C149.601 83.4765 152.666 86.5438 156.447 86.5438Z" />
        <path
            d="M178.694 79.6928C178.694 83.4765 175.629 86.5438 171.849 86.5438C168.068 86.5438 165.003 83.4765 165.003 79.6928C165.003 75.9091 168.068 72.8418 171.849 72.8418C175.629 72.8418 178.694 75.9091 178.694 79.6928Z" />
        <path
            d="M186.966 86.5438C190.589 86.5438 193.526 83.4765 193.526 79.6928C193.526 75.9091 190.589 72.8418 186.966 72.8418C183.343 72.8418 180.405 75.9091 180.405 79.6928C180.405 83.4765 183.343 86.5438 186.966 86.5438Z" />
        <path
            d="M207.787 64.2781C207.787 67.1158 205.488 69.4163 202.653 69.4163C199.817 69.4163 197.519 67.1158 197.519 64.2781C197.519 61.4403 199.817 59.1398 202.653 59.1398C205.488 59.1398 207.787 61.4403 207.787 64.2781Z" />
        <path
            d="M217.485 68.2745C219.69 68.2745 221.478 66.4852 221.478 64.2781C221.478 62.0709 219.69 60.2816 217.485 60.2816C215.279 60.2816 213.491 62.0709 213.491 64.2781C213.491 66.4852 215.279 68.2745 217.485 68.2745Z" />
        <path
            d="M235.168 64.2781C235.168 65.224 234.402 65.9908 233.457 65.9908C232.512 65.9908 231.746 65.224 231.746 64.2781C231.746 63.3321 232.512 62.5653 233.457 62.5653C234.402 62.5653 235.168 63.3321 235.168 64.2781Z" />
        <path
            d="M186.966 70.5581C190.274 70.5581 192.955 67.8743 192.955 64.5635C192.955 61.2528 190.274 58.5689 186.966 58.5689C183.658 58.5689 180.976 61.2528 180.976 64.5635C180.976 67.8743 183.658 70.5581 186.966 70.5581Z" />
        <path
            d="M178.124 64.2781C178.124 67.7465 175.314 70.5581 171.849 70.5581C168.383 70.5581 165.574 67.7465 165.574 64.2781C165.574 60.8097 168.383 57.998 171.849 57.998C175.314 57.998 178.124 60.8097 178.124 64.2781Z" />
        <path
            d="M156.732 71.1291C160.355 71.1291 163.292 68.1896 163.292 64.5635C163.292 60.9375 160.355 57.998 156.732 57.998C153.109 57.998 150.172 60.9375 150.172 64.5635C150.172 68.1896 153.109 71.1291 156.732 71.1291Z" />
        <path
            d="M141.045 71.1291C144.825 71.1291 147.89 68.0618 147.89 64.2781C147.89 60.4944 144.825 57.4271 141.045 57.4271C137.264 57.4271 134.199 60.4944 134.199 64.2781C134.199 68.0618 137.264 71.1291 141.045 71.1291Z" />
        <path
            d="M207.216 49.1488C207.216 51.5136 205.301 53.4306 202.938 53.4306C200.575 53.4306 198.66 51.5136 198.66 49.1488C198.66 46.7839 200.575 44.8669 202.938 44.8669C205.301 44.8669 207.216 46.7839 207.216 49.1488Z" />
        <path
            d="M218.055 51.147C219.315 51.147 220.337 50.1245 220.337 48.8633C220.337 47.6021 219.315 46.5796 218.055 46.5796C216.795 46.5796 215.773 47.6021 215.773 48.8633C215.773 50.1245 216.795 51.147 218.055 51.147Z" />
        <path
            d="M192.385 49.1488C192.385 52.1442 189.959 54.5725 186.966 54.5725C183.973 54.5725 181.546 52.1442 181.546 49.1488C181.546 46.1533 183.973 43.725 186.966 43.725C189.959 43.725 192.385 46.1533 192.385 49.1488Z" />
        <path
            d="M171.849 54.5725C174.999 54.5725 177.553 52.0164 177.553 48.8633C177.553 45.7102 174.999 43.1541 171.849 43.1541C168.698 43.1541 166.144 45.7102 166.144 48.8633C166.144 52.0164 168.698 54.5725 171.849 54.5725Z" />
        <path
            d="M162.722 48.5778C162.722 51.8886 160.04 54.5725 156.732 54.5725C153.424 54.5725 150.742 51.8886 150.742 48.5778C150.742 45.2671 153.424 42.5832 156.732 42.5832C160.04 42.5832 162.722 45.2671 162.722 48.5778Z" />
        <path
            d="M147.89 48.8633C147.89 52.3317 145.081 55.1434 141.615 55.1434C138.15 55.1434 135.34 52.3317 135.34 48.8633C135.34 45.3949 138.15 42.5832 141.615 42.5832C145.081 42.5832 147.89 45.3949 147.89 48.8633Z" />
        <path
            d="M202.368 36.3031C203.785 36.3031 204.935 35.1529 204.935 33.734C204.935 32.3151 203.785 31.1649 202.368 31.1649C200.95 31.1649 199.801 32.3151 199.801 33.734C199.801 35.1529 200.95 36.3031 202.368 36.3031Z" />
        <path
            d="M218.625 34.0194C218.625 34.6501 218.115 35.1613 217.485 35.1613C216.854 35.1613 216.344 34.6501 216.344 34.0194C216.344 33.3888 216.854 32.8776 217.485 32.8776C218.115 32.8776 218.625 33.3888 218.625 34.0194Z" />
        <path
            d="M186.68 38.0159C188.886 38.0159 190.674 36.2266 190.674 34.0194C190.674 31.8123 188.886 30.023 186.68 30.023C184.475 30.023 182.687 31.8123 182.687 34.0194C182.687 36.2266 184.475 38.0159 186.68 38.0159Z" />
        <path
            d="M176.983 33.734C176.983 36.4141 174.812 38.5868 172.134 38.5868C169.456 38.5868 167.285 36.4141 167.285 33.734C167.285 31.0539 169.456 28.8812 172.134 28.8812C174.812 28.8812 176.983 31.0539 176.983 33.734Z" />
        <path
            d="M156.732 39.1577C159.725 39.1577 162.151 36.7294 162.151 33.734C162.151 30.7386 159.725 28.3103 156.732 28.3103C153.739 28.3103 151.313 30.7386 151.313 33.734C151.313 36.7294 153.739 39.1577 156.732 39.1577Z" />
        <path
            d="M141.615 39.1577C144.766 39.1577 147.32 36.6016 147.32 33.4485C147.32 30.2954 144.766 27.7394 141.615 27.7394C138.465 27.7394 135.911 30.2954 135.911 33.4485C135.911 36.6016 138.465 39.1577 141.615 39.1577Z" />
        <path
            d="M188.962 18.3192C188.962 19.4228 188.068 20.3174 186.966 20.3174C185.863 20.3174 184.969 19.4228 184.969 18.3192C184.969 17.2156 185.863 16.321 186.966 16.321C188.068 16.321 188.962 17.2156 188.962 18.3192Z" />
        <path
            d="M171.849 20.8883C173.424 20.8884 174.701 19.6103 174.701 18.0338C174.701 16.4572 173.424 15.1792 171.849 15.1792C170.273 15.1792 168.997 16.4572 168.997 18.0338C168.997 19.6103 170.273 20.8883 171.849 20.8883Z" />
        <path
            d="M160.44 18.3192C160.44 20.3687 158.78 22.0302 156.732 22.0302C154.684 22.0302 153.024 20.3687 153.024 18.3192C153.024 16.2697 154.684 14.6083 156.732 14.6083C158.78 14.6083 160.44 16.2697 160.44 18.3192Z" />
        <path
            d="M146.179 18.3192C146.179 20.684 144.263 22.6011 141.9 22.6011C139.537 22.6011 137.622 20.684 137.622 18.3192C137.622 15.9544 139.537 14.0373 141.9 14.0373C144.263 14.0373 146.179 15.9544 146.179 18.3192Z" />
        <path
            d="M156.732 4.33175C157.52 4.33175 158.158 3.69273 158.158 2.90446C158.158 2.11618 157.52 1.47716 156.732 1.47716C155.944 1.47716 155.306 2.11618 155.306 2.90446C155.306 3.69273 155.944 4.33175 156.732 4.33175Z" />
        <path
            d="M143.326 3.18991C143.326 4.13584 142.56 4.90267 141.615 4.90267C140.67 4.90267 139.904 4.13584 139.904 3.18991C139.904 2.24399 140.67 1.47716 141.615 1.47716C142.56 1.47716 143.326 2.24399 143.326 3.18991Z" />
        <path
            d="M208.928 156.767C208.928 153.298 206.118 150.487 202.653 150.487C199.187 150.487 196.378 153.298 196.378 156.767C196.378 160.235 199.187 163.047 202.653 163.047C206.118 163.047 208.928 160.235 208.928 156.767Z" />
        <path
            d="M217.77 151.628C220.763 151.628 223.189 154.057 223.189 157.052C223.189 160.048 220.763 162.476 217.77 162.476C214.777 162.476 212.35 160.048 212.35 157.052C212.35 154.057 214.777 151.628 217.77 151.628Z" />
        <path
            d="M236.88 157.052C236.88 155.003 235.22 153.341 233.172 153.341C231.124 153.341 229.464 155.003 229.464 157.052C229.464 159.102 231.124 160.763 233.172 160.763C235.22 160.763 236.88 159.102 236.88 157.052Z" />
        <path
            d="M248.003 155.625C248.791 155.625 249.43 156.264 249.43 157.052C249.43 157.84 248.791 158.479 248.003 158.479C247.216 158.479 246.577 157.84 246.577 157.052C246.577 156.264 247.216 155.625 248.003 155.625Z" />
        <path
            d="M141.045 149.916C144.825 149.916 147.89 152.983 147.89 156.767C147.89 160.55 144.825 163.618 141.045 163.618C137.264 163.618 134.199 160.55 134.199 156.767C134.199 152.983 137.264 149.916 141.045 149.916Z" />
        <path
            d="M163.292 156.767C163.292 152.983 160.227 149.916 156.447 149.916C152.666 149.916 149.601 152.983 149.601 156.767C149.601 160.55 152.666 163.618 156.447 163.618C160.227 163.618 163.292 160.55 163.292 156.767Z" />
        <path
            d="M171.849 149.916C175.629 149.916 178.694 152.983 178.694 156.767C178.694 160.55 175.629 163.618 171.849 163.618C168.068 163.618 165.003 160.55 165.003 156.767C165.003 152.983 168.068 149.916 171.849 149.916Z" />
        <path
            d="M193.526 156.767C193.526 152.983 190.589 149.916 186.966 149.916C183.343 149.916 180.405 152.983 180.405 156.767C180.405 160.55 183.343 163.618 186.966 163.618C190.589 163.618 193.526 160.55 193.526 156.767Z" />
        <path
            d="M202.938 165.901C206.246 165.901 208.928 168.585 208.928 171.896C208.928 175.207 206.246 177.891 202.938 177.891C199.63 177.891 196.948 175.207 196.948 171.896C196.948 168.585 199.63 165.901 202.938 165.901Z" />
        <path
            d="M222.619 172.181C222.619 169.344 220.32 167.043 217.485 167.043C214.649 167.043 212.35 169.344 212.35 172.181C212.35 175.019 214.649 177.32 217.485 177.32C220.32 177.32 222.619 175.019 222.619 172.181Z" />
        <path
            d="M233.457 169.327C235.032 169.327 236.309 170.605 236.309 172.181C236.309 173.758 235.032 175.036 233.457 175.036C231.882 175.036 230.605 173.758 230.605 172.181C230.605 170.605 231.882 169.327 233.457 169.327Z" />
        <path
            d="M249.43 171.896C249.43 171.108 248.791 170.469 248.003 170.469C247.216 170.469 246.577 171.108 246.577 171.896C246.577 172.684 247.216 173.323 248.003 173.323C248.791 173.323 249.43 172.684 249.43 171.896Z" />
        <path
            d="M147.89 172.181C147.89 168.398 144.825 165.33 141.045 165.33C137.264 165.33 134.199 168.398 134.199 172.181C134.199 175.965 137.264 179.032 141.045 179.032C144.825 179.032 147.89 175.965 147.89 172.181Z" />
        <path
            d="M156.447 165.33C160.227 165.33 163.292 168.398 163.292 172.181C163.292 175.965 160.227 179.032 156.447 179.032C152.666 179.032 149.601 175.965 149.601 172.181C149.601 168.398 152.666 165.33 156.447 165.33Z" />
        <path
            d="M178.694 172.181C178.694 168.398 175.629 165.33 171.849 165.33C168.068 165.33 165.003 168.398 165.003 172.181C165.003 175.965 168.068 179.032 171.849 179.032C175.629 179.032 178.694 175.965 178.694 172.181Z" />
        <path
            d="M186.966 165.33C190.589 165.33 193.526 168.398 193.526 172.181C193.526 175.965 190.589 179.032 186.966 179.032C183.343 179.032 180.405 175.965 180.405 172.181C180.405 168.398 183.343 165.33 186.966 165.33Z" />
        <path
            d="M207.787 187.596C207.787 184.758 205.488 182.458 202.653 182.458C199.817 182.458 197.519 184.758 197.519 187.596C197.519 190.434 199.817 192.734 202.653 192.734C205.488 192.734 207.787 190.434 207.787 187.596Z" />
        <path
            d="M217.485 183.6C219.69 183.6 221.478 185.389 221.478 187.596C221.478 189.803 219.69 191.593 217.485 191.593C215.279 191.593 213.491 189.803 213.491 187.596C213.491 185.389 215.279 183.6 217.485 183.6Z" />
        <path
            d="M235.168 187.596C235.168 186.65 234.402 185.883 233.457 185.883C232.512 185.883 231.746 186.65 231.746 187.596C231.746 188.542 232.512 189.309 233.457 189.309C234.402 189.309 235.168 188.542 235.168 187.596Z" />
        <path
            d="M186.966 181.316C190.274 181.316 192.955 184 192.955 187.311C192.955 190.621 190.274 193.305 186.966 193.305C183.658 193.305 180.976 190.621 180.976 187.311C180.976 184 183.658 181.316 186.966 181.316Z" />
        <path
            d="M178.124 187.596C178.124 184.128 175.314 181.316 171.849 181.316C168.383 181.316 165.574 184.128 165.574 187.596C165.574 191.065 168.383 193.876 171.849 193.876C175.314 193.876 178.124 191.065 178.124 187.596Z" />
        <path
            d="M156.732 180.745C160.355 180.745 163.292 183.685 163.292 187.311C163.292 190.937 160.355 193.876 156.732 193.876C153.109 193.876 150.172 190.937 150.172 187.311C150.172 183.685 153.109 180.745 156.732 180.745Z" />
        <path
            d="M141.045 180.745C144.825 180.745 147.89 183.812 147.89 187.596C147.89 191.38 144.825 194.447 141.045 194.447C137.264 194.447 134.199 191.38 134.199 187.596C134.199 183.812 137.264 180.745 141.045 180.745Z" />
        <path
            d="M207.216 202.725C207.216 200.361 205.301 198.444 202.938 198.444C200.575 198.444 198.66 200.361 198.66 202.725C198.66 205.09 200.575 207.007 202.938 207.007C205.301 207.007 207.216 205.09 207.216 202.725Z" />
        <path
            d="M218.055 200.727C219.315 200.727 220.337 201.75 220.337 203.011C220.337 204.272 219.315 205.295 218.055 205.295C216.795 205.295 215.773 204.272 215.773 203.011C215.773 201.75 216.795 200.727 218.055 200.727Z" />
        <path
            d="M192.385 202.725C192.385 199.73 189.959 197.302 186.966 197.302C183.973 197.302 181.546 199.73 181.546 202.725C181.546 205.721 183.973 208.149 186.966 208.149C189.959 208.149 192.385 205.721 192.385 202.725Z" />
        <path
            d="M171.849 197.302C174.999 197.302 177.553 199.858 177.553 203.011C177.553 206.164 174.999 208.72 171.849 208.72C168.698 208.72 166.144 206.164 166.144 203.011C166.144 199.858 168.698 197.302 171.849 197.302Z" />
        <path
            d="M162.722 203.296C162.722 199.986 160.04 197.302 156.732 197.302C153.424 197.302 150.742 199.986 150.742 203.296C150.742 206.607 153.424 209.291 156.732 209.291C160.04 209.291 162.722 206.607 162.722 203.296Z" />
        <path
            d="M147.89 203.011C147.89 199.543 145.081 196.731 141.615 196.731C138.15 196.731 135.34 199.543 135.34 203.011C135.34 206.479 138.15 209.291 141.615 209.291C145.081 209.291 147.89 206.479 147.89 203.011Z" />
        <path
            d="M202.368 215.571C203.785 215.571 204.935 216.721 204.935 218.14C204.935 219.559 203.785 220.709 202.368 220.709C200.95 220.709 199.801 219.559 199.801 218.14C199.801 216.721 200.95 215.571 202.368 215.571Z" />
        <path
            d="M218.625 217.855C218.625 217.224 218.115 216.713 217.485 216.713C216.854 216.713 216.344 217.224 216.344 217.855C216.344 218.485 216.854 218.997 217.485 218.997C218.115 218.997 218.625 218.485 218.625 217.855Z" />
        <path
            d="M186.68 213.858C188.886 213.858 190.673 215.648 190.673 217.855C190.673 220.062 188.886 221.851 186.68 221.851C184.475 221.851 182.687 220.062 182.687 217.855C182.687 215.648 184.475 213.858 186.68 213.858Z" />
        <path
            d="M176.983 218.14C176.983 215.46 174.812 213.287 172.134 213.287C169.456 213.287 167.285 215.46 167.285 218.14C167.285 220.82 169.456 222.993 172.134 222.993C174.812 222.993 176.983 220.82 176.983 218.14Z" />
        <path
            d="M156.732 212.717C159.725 212.717 162.151 215.145 162.151 218.14C162.151 221.136 159.725 223.564 156.732 223.564C153.739 223.564 151.313 221.136 151.313 218.14C151.313 215.145 153.739 212.717 156.732 212.717Z" />
        <path
            d="M141.615 212.717C144.766 212.717 147.32 215.273 147.32 218.426C147.32 221.579 144.766 224.135 141.615 224.135C138.465 224.135 135.911 221.579 135.911 218.426C135.911 215.273 138.465 212.717 141.615 212.717Z" />
        <path
            d="M188.962 233.555C188.962 232.451 188.068 231.557 186.966 231.557C185.863 231.557 184.969 232.451 184.969 233.555C184.969 234.659 185.863 235.553 186.966 235.553C188.068 235.553 188.962 234.659 188.962 233.555Z" />
        <path
            d="M171.849 230.986C173.424 230.986 174.701 232.264 174.701 233.84C174.701 235.417 173.424 236.695 171.849 236.695C170.273 236.695 168.997 235.417 168.997 233.84C168.997 232.264 170.273 230.986 171.849 230.986Z" />
        <path
            d="M160.44 233.555C160.44 231.506 158.78 229.844 156.732 229.844C154.684 229.844 153.024 231.506 153.024 233.555C153.024 235.605 154.684 237.266 156.732 237.266C158.78 237.266 160.44 235.605 160.44 233.555Z" />
        <path
            d="M146.179 233.555C146.179 231.19 144.263 229.273 141.9 229.273C139.537 229.273 137.622 231.19 137.622 233.555C137.622 235.92 139.537 237.837 141.9 237.837C144.263 237.837 146.179 235.92 146.179 233.555Z" />
        <path
            d="M202.653 147.632C206.118 147.632 208.928 144.82 208.928 141.352C208.928 137.883 206.118 135.072 202.653 135.072C199.187 135.072 196.378 137.883 196.378 141.352C196.378 144.82 199.187 147.632 202.653 147.632Z" />
        <path
            d="M223.189 141.066C223.189 144.062 220.763 146.49 217.77 146.49C214.777 146.49 212.35 144.062 212.35 141.066C212.35 138.071 214.777 135.643 217.77 135.643C220.763 135.643 223.189 138.071 223.189 141.066Z" />
        <path
            d="M233.172 144.777C235.22 144.777 236.88 143.116 236.88 141.066C236.88 139.017 235.22 137.355 233.172 137.355C231.124 137.355 229.464 139.017 229.464 141.066C229.464 143.116 231.124 144.777 233.172 144.777Z" />
        <path
            d="M249.43 141.066C249.43 141.855 248.791 142.494 248.003 142.494C247.216 142.494 246.577 141.855 246.577 141.066C246.577 140.278 247.216 139.639 248.003 139.639C248.791 139.639 249.43 140.278 249.43 141.066Z" />
        <path
            d="M147.89 141.352C147.89 145.136 144.825 148.203 141.045 148.203C137.264 148.203 134.199 145.136 134.199 141.352C134.199 137.568 137.264 134.501 141.045 134.501C144.825 134.501 147.89 137.568 147.89 141.352Z" />
        <path
            d="M156.447 148.203C160.227 148.203 163.292 145.136 163.292 141.352C163.292 137.568 160.227 134.501 156.447 134.501C152.666 134.501 149.601 137.568 149.601 141.352C149.601 145.136 152.666 148.203 156.447 148.203Z" />
        <path
            d="M178.694 141.352C178.694 145.136 175.629 148.203 171.849 148.203C168.068 148.203 165.003 145.136 165.003 141.352C165.003 137.568 168.068 134.501 171.849 134.501C175.629 134.501 178.694 137.568 178.694 141.352Z" />
        <path
            d="M186.966 148.203C190.589 148.203 193.526 145.136 193.526 141.352C193.526 137.568 190.589 134.501 186.966 134.501C183.343 134.501 180.405 137.568 180.405 141.352C180.405 145.136 183.343 148.203 186.966 148.203Z" />
        <path
            d="M208.928 125.937C208.928 129.406 206.118 132.217 202.653 132.217C199.187 132.217 196.378 129.406 196.378 125.937C196.378 122.469 199.187 119.657 202.653 119.657C206.118 119.657 208.928 122.469 208.928 125.937Z" />
        <path
            d="M218.055 131.646C221.205 131.646 223.759 129.09 223.759 125.937C223.759 122.784 221.205 120.228 218.055 120.228C214.904 120.228 212.35 122.784 212.35 125.937C212.35 129.09 214.904 131.646 218.055 131.646Z" />
        <path
            d="M237.45 126.223C237.45 128.587 235.535 130.504 233.172 130.504C230.809 130.504 228.893 128.587 228.893 126.223C228.893 123.858 230.809 121.941 233.172 121.941C235.535 121.941 237.45 123.858 237.45 126.223Z" />
        <path
            d="M248.289 127.65C249.234 127.65 250 126.883 250 125.937C250 124.991 249.234 124.224 248.289 124.224C247.344 124.224 246.577 124.991 246.577 125.937C246.577 126.883 247.344 127.65 248.289 127.65Z" />
        <path
            d="M141.045 132.788C144.825 132.788 147.89 129.721 147.89 125.937C147.89 122.153 144.825 119.086 141.045 119.086C137.264 119.086 134.199 122.153 134.199 125.937C134.199 129.721 137.264 132.788 141.045 132.788Z" />
        <path
            d="M163.292 125.937C163.292 129.721 160.227 132.788 156.447 132.788C152.666 132.788 149.601 129.721 149.601 125.937C149.601 122.153 152.666 119.086 156.447 119.086C160.227 119.086 163.292 122.153 163.292 125.937Z" />
        <path
            d="M171.849 132.788C175.629 132.788 178.694 129.721 178.694 125.937C178.694 122.153 175.629 119.086 171.849 119.086C168.068 119.086 165.003 122.153 165.003 125.937C165.003 129.721 168.068 132.788 171.849 132.788Z" />
        <path
            d="M193.526 125.937C193.526 129.721 190.589 132.788 186.966 132.788C183.343 132.788 180.405 129.721 180.405 125.937C180.405 122.153 183.343 119.086 186.966 119.086C190.589 119.086 193.526 122.153 193.526 125.937Z" />
    </g>
</svg>