<svg width="127" height="106" viewBox="0 0 127 106" fill="none" xmlns="http://www.w3.org/2000/svg">
<path d="M18.3404 34.5709C40.7009 54.0854 30.0726 66.8432 21.9633 70.7828C16.5051 84.5739 28.7276 98.9612 33.7708 102.93C37.8054 106.105 48.1428 100.837 52.8072 97.8062C65.9481 105.444 80.7201 95.0588 87.305 87.7504C90.6525 88.4972 100.029 88.407 110.757 82.0712C126.671 72.1994 123.144 62.4716 119.391 58.8417C129.493 47.6568 122.453 38.6256 117.67 35.508C120.013 33.5194 122.503 20.728 115.108 16.03C95.36 2.65669 63.5747 25.1326 50.6594 38.09C44.2448 17.0731 25.2968 -3.57709 10.1786 2.93443C-5.17591 9.54771 2.24744 23.5499 18.3404 34.5709Z" fill="#FFEFD4"/>
<path d="M52.4263 45.807C52.047 43.2623 51.4479 40.6734 50.6594 38.09M50.6594 38.09C44.2448 17.0731 25.2968 -3.57709 10.1786 2.93443C-5.17592 9.54771 2.24744 23.5499 18.3404 34.5709C40.7009 54.0854 30.0726 66.8432 21.9633 70.7828C16.5051 84.5739 28.7276 98.9612 33.7708 102.93C37.8054 106.105 48.1428 100.837 52.8072 97.8062M50.6594 38.09C63.5747 25.1326 95.36 2.65669 115.108 16.03C122.503 20.728 120.013 33.5194 117.67 35.508C122.453 38.6256 129.493 47.6568 119.391 58.8417C123.144 62.4716 126.671 72.1994 110.757 82.0712C100.029 88.407 90.6525 88.4972 87.305 87.7504M87.305 87.7504C80.7201 95.0588 65.9481 105.444 52.8072 97.8062M87.305 87.7504C84.1723 87.1061 78.0054 83.6478 78.3995 74.9694M45.9906 91.8838C48.1739 94.5104 50.4646 96.4446 52.8072 97.8062M115.092 39.5374C104.743 49.915 83.0066 65.3681 67.6121 57.3971M85.4939 29.3424C70.6339 23.637 54.1092 36.3415 60.8286 50.0534C62.3445 53.147 65.6706 56.3918 67.6121 57.3971M85.4939 29.3424L91.4215 23.7499M85.4939 29.3424C82.9741 31.3194 76.8461 34.9087 74.4715 35.7076M67.6121 57.3971C67.6433 64.1683 70.3392 72.4818 78.3995 74.9694M117.863 60.2225C98.4082 74.4718 86.0116 77.3187 78.3995 74.9694" stroke="#FFAC4E" stroke-width="3" stroke-linecap="round"/>
</svg>
