<svg width="70" height="70" viewBox="0 0 70 70" fill="none" xmlns="http://www.w3.org/2000/svg">
<rect x="22.625" y="10.3304" width="33.1006" height="39.0386" rx="5" transform="rotate(12.1293 22.625 10.3304)" fill="#FFFF00" stroke="#563B00" stroke-width="2"/>
<rect x="15" y="38" width="31" height="17" rx="5" fill="#563B00" stroke="#563B00" stroke-width="2"/>
<rect x="15" y="15" width="31" height="37" rx="5" fill="#FFFF00" stroke="#563B00" stroke-width="2"/>
<path d="M33.2857 32.7143V27.2857C33.2857 26.6728 33.077 26.0842 32.6392 25.6465C32.2015 25.2087 31.613 25 31 25C30.387 25 29.7985 25.2087 29.3608 25.6465C28.923 26.0842 28.7143 26.6728 28.7143 27.2857V32.7143H23.2857C22.6728 32.7143 22.0842 32.923 21.6465 33.3608C21.2087 33.7985 21 34.387 21 35C21 35.613 21.2087 36.2015 21.6465 36.6392C22.0842 37.077 22.6728 37.2857 23.2857 37.2857H28.7143V42.7143C28.7143 43.3272 28.923 43.9158 29.3608 44.3535C29.7985 44.7913 30.387 45 31 45C31.613 45 32.2015 44.7913 32.6392 44.3535C33.077 43.9158 33.2857 43.3272 33.2857 42.7143V37.2857H38.7143C39.3272 37.2857 39.9158 37.077 40.3535 36.6392C40.7913 36.2015 41 35.613 41 35C41 34.387 40.7913 33.7985 40.3535 33.3608C39.9158 32.923 39.3272 32.7143 38.7143 32.7143H33.2857Z" fill="#563B00" stroke="#563B00" stroke-width="2"/>
<path d="M33.2857 30.7143V25.2857C33.2857 24.6728 33.077 24.0842 32.6392 23.6465C32.2015 23.2087 31.613 23 31 23C30.387 23 29.7985 23.2087 29.3608 23.6465C28.923 24.0842 28.7143 24.6728 28.7143 25.2857V30.7143H23.2857C22.6728 30.7143 22.0842 30.923 21.6465 31.3608C21.2087 31.7985 21 32.387 21 33C21 33.613 21.2087 34.2015 21.6465 34.6392C22.0842 35.077 22.6728 35.2857 23.2857 35.2857H28.7143V40.7143C28.7143 41.3272 28.923 41.9158 29.3608 42.3535C29.7985 42.7913 30.387 43 31 43C31.613 43 32.2015 42.7913 32.6392 42.3535C33.077 41.9158 33.2857 41.3272 33.2857 40.7143V35.2857H38.7143C39.3272 35.2857 39.9158 35.077 40.3535 34.6392C40.7913 34.2015 41 33.613 41 33C41 32.387 40.7913 31.7985 40.3535 31.3608C39.9158 30.923 39.3272 30.7143 38.7143 30.7143H33.2857Z" fill="white" stroke="#563B00" stroke-width="2"/>
</svg>
