<svg width="70" height="70" viewBox="0 0 70 70" fill="none" xmlns="http://www.w3.org/2000/svg">
<path d="M33 39.875L38.625 45.5L44.25 39.875" stroke="#563B00" stroke-width="1.8" stroke-linecap="round" stroke-linejoin="round"/>
<rect x="15" y="25" width="40" height="30" rx="3" fill="#563B00" stroke="#563B00" stroke-width="2"/>
<mask id="path-3-inside-1_13084_7740" fill="white">
<path fill-rule="evenodd" clip-rule="evenodd" d="M18.1758 14C15.9666 14 14.1758 15.7909 14.1758 18V23.8418V46.9997V47C14.1758 49.2091 15.9666 51 18.1758 51H33.4114C33.4282 51 33.4449 50.9999 33.4617 50.9997H51.9999C54.2091 50.9997 55.9999 49.2088 55.9999 46.9997V23.8418C55.9999 21.6327 54.2091 19.8418 51.9999 19.8418H37.4114V18C37.4114 15.7909 35.6206 14 33.4114 14H18.1758Z"/>
</mask>
<path fill-rule="evenodd" clip-rule="evenodd" d="M18.1758 14C15.9666 14 14.1758 15.7909 14.1758 18V23.8418V46.9997V47C14.1758 49.2091 15.9666 51 18.1758 51H33.4114C33.4282 51 33.4449 50.9999 33.4617 50.9997H51.9999C54.2091 50.9997 55.9999 49.2088 55.9999 46.9997V23.8418C55.9999 21.6327 54.2091 19.8418 51.9999 19.8418H37.4114V18C37.4114 15.7909 35.6206 14 33.4114 14H18.1758Z" fill="#FFFF00"/>
<path d="M33.4617 50.9997V48.9997H33.4493L33.437 48.9998L33.4617 50.9997ZM37.4114 19.8418H35.4114V21.8418H37.4114V19.8418ZM16.1758 18C16.1758 16.8954 17.0712 16 18.1758 16V12C14.8621 12 12.1758 14.6863 12.1758 18H16.1758ZM16.1758 23.8418V18H12.1758V23.8418H16.1758ZM16.1758 46.9997V23.8418H12.1758V46.9997H16.1758ZM16.1758 47V46.9997H12.1758V47H16.1758ZM18.1758 49C17.0712 49 16.1758 48.1046 16.1758 47H12.1758C12.1758 50.3137 14.8621 53 18.1758 53V49ZM33.4114 49H18.1758V53H33.4114V49ZM33.437 48.9998C33.4285 48.9999 33.42 49 33.4114 49V53C33.4364 53 33.4613 52.9998 33.4863 52.9995L33.437 48.9998ZM51.9999 48.9997H33.4617V52.9997H51.9999V48.9997ZM53.9999 46.9997C53.9999 48.1043 53.1045 48.9997 51.9999 48.9997V52.9997C55.3137 52.9997 57.9999 50.3134 57.9999 46.9997H53.9999ZM53.9999 23.8418V46.9997H57.9999V23.8418H53.9999ZM51.9999 21.8418C53.1045 21.8418 53.9999 22.7372 53.9999 23.8418H57.9999C57.9999 20.5281 55.3137 17.8418 51.9999 17.8418V21.8418ZM37.4114 21.8418H51.9999V17.8418H37.4114V21.8418ZM35.4114 18V19.8418H39.4114V18H35.4114ZM33.4114 16C34.516 16 35.4114 16.8954 35.4114 18H39.4114C39.4114 14.6863 36.7251 12 33.4114 12V16ZM18.1758 16H33.4114V12H18.1758V16Z" fill="#563B00" mask="url(#path-3-inside-1_13084_7740)"/>
<rect x="15" y="21" width="40" height="31" rx="3" fill="#FFFF00" stroke="#563B00" stroke-width="2"/>
<path d="M32.84 41.7455L32.84 29C32.84 27.8954 33.7354 27 34.84 27C35.9445 27 36.8399 27.8954 36.84 29L36.84 41.1179L39.6434 38.5301C40.4551 37.7808 41.7204 37.8315 42.4696 38.6431C43.2188 39.4547 43.1682 40.7201 42.3566 41.4693L35.8566 47.4693C35.0904 48.1765 33.9096 48.1765 33.1434 47.4693L26.6434 41.4693M32.84 41.7455L26.6434 41.4693M32.84 41.7455L29.3566 38.5301L28.8004 39.1326L29.3566 38.5301C28.5449 37.7808 27.2796 37.8315 26.5304 38.6431C25.7812 39.4547 25.8318 40.7201 26.6434 41.4693M32.84 41.7455L26.6434 41.4693" fill="#563B00" stroke="#563B00" stroke-width="2" stroke-linecap="round" stroke-linejoin="bevel"/>
<path d="M32.84 39.7455L32.84 27C32.84 25.8954 33.7354 25 34.84 25C35.9445 25 36.8399 25.8954 36.84 27L36.84 39.1179L39.6434 36.5301C40.4551 35.7808 41.7204 35.8315 42.4696 36.6431C43.2188 37.4547 43.1682 38.7201 42.3566 39.4693L35.8566 45.4693C35.0904 46.1765 33.9096 46.1765 33.1434 45.4693L26.6434 39.4693M32.84 39.7455L26.6434 39.4693M32.84 39.7455L29.3566 36.5301L28.8004 37.1326L29.3566 36.5301C28.5449 35.7808 27.2796 35.8315 26.5304 36.6431C25.7812 37.4547 25.8318 38.7201 26.6434 39.4693M32.84 39.7455L26.6434 39.4693" fill="white" stroke="#563B00" stroke-width="2" stroke-linecap="round" stroke-linejoin="bevel"/>
</svg>
