<svg width="70" height="70" viewBox="0 0 70 70" fill="none" xmlns="http://www.w3.org/2000/svg">
<rect x="14" y="29" width="42" height="27" rx="6" fill="#563B00"/>
<path d="M50 52H20C17.2386 52 15 49.7614 15 47V20C15 17.2386 17.2386 15 20 15H20.6585H40.122H42.8857C44.1488 15 45.3651 15.4781 46.2901 16.3381L53.4045 22.9523C54.422 23.8983 55 25.225 55 26.6142V47C55 49.7614 52.7614 52 50 52Z" fill="#FFFF00" stroke="#563B00" stroke-width="2"/>
<mask id="path-4-outside-1_13084_7735" maskUnits="userSpaceOnUse" x="18" y="32" width="33" height="13" fill="black">
<rect fill="white" x="18" y="32" width="33" height="13"/>
<path d="M23.108 43.036C21.8 43.036 20.168 42.664 20.168 41.32C20.168 40.564 20.552 40.18 21.464 40.18C22.028 40.18 22.76 40.348 23.216 40.348C23.732 40.348 23.972 40.168 23.972 39.916C23.972 39.604 23.684 39.484 22.748 39.268C21.056 38.92 20.396 38.32 20.396 37.12C20.396 34.9 22.772 34.168 24.416 34.168C25.88 34.168 26.84 34.684 26.84 35.656C26.84 36.412 26.372 36.928 25.376 36.928C24.848 36.928 24.008 36.784 23.516 36.784C22.976 36.784 22.712 36.928 22.712 37.228C22.712 37.492 22.904 37.66 23.912 37.936C25.916 38.452 26.576 39.22 26.576 40.396C26.576 41.968 25.172 43.036 23.108 43.036ZM33.0078 43.12C32.2878 43.12 32.0358 42.82 31.9878 42.136C31.5078 42.808 30.7278 43.156 29.6598 43.156C27.9678 43.156 27.1758 42.172 27.1758 40.996C27.1758 39.664 28.2318 38.812 29.8518 38.812C30.6558 38.812 31.2918 39.016 31.7838 39.376C31.6878 38.236 31.1838 37.792 30.3318 37.792C29.6478 37.792 28.9518 38.212 28.2678 38.212C27.6918 38.212 27.3558 37.864 27.3558 37.348C27.3558 36.304 28.8798 35.488 30.6438 35.488C32.1318 35.488 33.2958 36.076 33.7638 37.288C34.1238 38.212 34.2798 39.364 34.2798 40.66C34.2798 42.604 33.8958 43.12 33.0078 43.12ZM30.5718 41.464C31.1358 41.464 31.8198 41.212 31.8198 40.708C31.8198 40.252 31.2798 40.048 30.6798 40.048C29.9838 40.048 29.5518 40.36 29.5518 40.78C29.5518 41.2 29.9358 41.464 30.5718 41.464ZM35.9927 35.452C36.8087 35.452 37.1807 35.908 37.3967 36.916C37.6247 37.864 38.0447 39.64 38.3327 40.9H38.3807C38.6927 39.652 38.9807 38.044 39.0887 37.168C39.1967 36.076 39.5087 35.656 40.2167 35.656C41.0567 35.656 41.5487 36.172 41.5487 37.3C41.5487 38.452 41.2007 39.88 40.7087 40.936C40.0847 42.268 39.3167 43.084 38.1527 43.084C37.2647 43.084 36.6047 42.604 35.9567 41.392C35.2127 40.012 34.8047 38.332 34.8047 37.12C34.8047 36.016 35.1527 35.452 35.9927 35.452ZM45.8788 43.096C43.0108 43.096 41.9668 41.848 41.9668 39.784C41.9668 37.18 43.6948 35.656 46.0708 35.656C47.9428 35.656 48.7828 36.508 48.7828 37.744C48.7828 39.232 47.4868 40.156 45.6268 40.156C45.1228 40.156 44.6428 40.084 44.2348 39.952C44.3068 40.648 44.8708 40.912 45.8068 40.912C47.1508 40.912 47.7628 40.372 48.3868 40.372C48.7828 40.372 49.2748 40.66 49.2748 41.344C49.2748 42.328 48.0988 43.096 45.8788 43.096ZM45.1828 38.968C46.0468 38.968 46.7188 38.524 46.7188 37.936C46.7188 37.528 46.4188 37.24 45.8908 37.24C45.0388 37.24 44.3188 37.78 44.3188 38.38C44.3188 38.752 44.6308 38.968 45.1828 38.968Z"/>
</mask>
<path d="M23.108 43.036C21.8 43.036 20.168 42.664 20.168 41.32C20.168 40.564 20.552 40.18 21.464 40.18C22.028 40.18 22.76 40.348 23.216 40.348C23.732 40.348 23.972 40.168 23.972 39.916C23.972 39.604 23.684 39.484 22.748 39.268C21.056 38.92 20.396 38.32 20.396 37.12C20.396 34.9 22.772 34.168 24.416 34.168C25.88 34.168 26.84 34.684 26.84 35.656C26.84 36.412 26.372 36.928 25.376 36.928C24.848 36.928 24.008 36.784 23.516 36.784C22.976 36.784 22.712 36.928 22.712 37.228C22.712 37.492 22.904 37.66 23.912 37.936C25.916 38.452 26.576 39.22 26.576 40.396C26.576 41.968 25.172 43.036 23.108 43.036ZM33.0078 43.12C32.2878 43.12 32.0358 42.82 31.9878 42.136C31.5078 42.808 30.7278 43.156 29.6598 43.156C27.9678 43.156 27.1758 42.172 27.1758 40.996C27.1758 39.664 28.2318 38.812 29.8518 38.812C30.6558 38.812 31.2918 39.016 31.7838 39.376C31.6878 38.236 31.1838 37.792 30.3318 37.792C29.6478 37.792 28.9518 38.212 28.2678 38.212C27.6918 38.212 27.3558 37.864 27.3558 37.348C27.3558 36.304 28.8798 35.488 30.6438 35.488C32.1318 35.488 33.2958 36.076 33.7638 37.288C34.1238 38.212 34.2798 39.364 34.2798 40.66C34.2798 42.604 33.8958 43.12 33.0078 43.12ZM30.5718 41.464C31.1358 41.464 31.8198 41.212 31.8198 40.708C31.8198 40.252 31.2798 40.048 30.6798 40.048C29.9838 40.048 29.5518 40.36 29.5518 40.78C29.5518 41.2 29.9358 41.464 30.5718 41.464ZM35.9927 35.452C36.8087 35.452 37.1807 35.908 37.3967 36.916C37.6247 37.864 38.0447 39.64 38.3327 40.9H38.3807C38.6927 39.652 38.9807 38.044 39.0887 37.168C39.1967 36.076 39.5087 35.656 40.2167 35.656C41.0567 35.656 41.5487 36.172 41.5487 37.3C41.5487 38.452 41.2007 39.88 40.7087 40.936C40.0847 42.268 39.3167 43.084 38.1527 43.084C37.2647 43.084 36.6047 42.604 35.9567 41.392C35.2127 40.012 34.8047 38.332 34.8047 37.12C34.8047 36.016 35.1527 35.452 35.9927 35.452ZM45.8788 43.096C43.0108 43.096 41.9668 41.848 41.9668 39.784C41.9668 37.18 43.6948 35.656 46.0708 35.656C47.9428 35.656 48.7828 36.508 48.7828 37.744C48.7828 39.232 47.4868 40.156 45.6268 40.156C45.1228 40.156 44.6428 40.084 44.2348 39.952C44.3068 40.648 44.8708 40.912 45.8068 40.912C47.1508 40.912 47.7628 40.372 48.3868 40.372C48.7828 40.372 49.2748 40.66 49.2748 41.344C49.2748 42.328 48.0988 43.096 45.8788 43.096ZM45.1828 38.968C46.0468 38.968 46.7188 38.524 46.7188 37.936C46.7188 37.528 46.4188 37.24 45.8908 37.24C45.0388 37.24 44.3188 37.78 44.3188 38.38C44.3188 38.752 44.6308 38.968 45.1828 38.968Z" fill="#563B00"/>
<path d="M22.748 39.268L23.1078 37.709L23.0891 37.7047L23.0703 37.7008L22.748 39.268ZM23.912 37.936L23.4895 39.4792L23.5012 39.4824L23.513 39.4855L23.912 37.936ZM23.108 41.436C22.5621 41.436 22.0874 41.3523 21.8122 41.2266C21.6873 41.1696 21.6795 41.1381 21.7083 41.1752C21.7247 41.1965 21.743 41.2276 21.7556 41.2647C21.7681 41.3015 21.768 41.3235 21.768 41.32H18.568C18.568 42.8259 19.558 43.715 20.4828 44.1374C21.3506 44.5337 22.3459 44.636 23.108 44.636V41.436ZM21.768 41.32C21.768 41.2604 21.7763 41.2839 21.751 41.3557C21.7215 41.4392 21.6586 41.5522 21.549 41.6516C21.4437 41.7471 21.35 41.7805 21.3239 41.788C21.3048 41.7936 21.3418 41.78 21.464 41.78V38.58C20.8264 38.58 20.0314 38.7077 19.399 39.2814C18.7324 39.8861 18.568 40.6873 18.568 41.32H21.768ZM21.464 41.78C21.6199 41.78 21.8364 41.805 22.166 41.8496C22.4254 41.8846 22.8533 41.948 23.216 41.948V38.748C23.1227 38.748 22.9566 38.7274 22.595 38.6784C22.3036 38.639 21.8721 38.58 21.464 38.58V41.78ZM23.216 41.948C23.6228 41.948 24.1475 41.8832 24.6251 41.5897C25.1835 41.2466 25.572 40.6433 25.572 39.916H22.372C22.372 39.7164 22.4222 39.4928 22.5449 39.2827C22.6656 39.0761 22.8212 38.9423 22.9499 38.8633C23.1785 38.7228 23.3252 38.748 23.216 38.748V41.948ZM25.572 39.916C25.572 39.5704 25.4849 39.1638 25.216 38.7859C24.9699 38.4399 24.6586 38.2427 24.4356 38.1295C24.0411 37.9291 23.5357 37.8077 23.1078 37.709L22.3882 40.827C22.6137 40.8791 22.771 40.9187 22.884 40.9519C23.005 40.9873 23.0204 40.9998 22.9864 40.9825C22.9524 40.9653 22.7716 40.8701 22.6087 40.6411C22.4231 40.3802 22.372 40.1056 22.372 39.916H25.572ZM23.0703 37.7008C22.3102 37.5445 22.0689 37.3799 22.0159 37.3315C22.0083 37.3246 22.0096 37.3244 22.014 37.331C22.0186 37.3376 22.0203 37.3422 22.0196 37.3404C22.0178 37.3356 21.996 37.2761 21.996 37.12H18.796C18.796 38.0476 19.0697 38.9752 19.8591 39.6955C20.5591 40.3341 21.4938 40.6435 22.4257 40.8352L23.0703 37.7008ZM21.996 37.12C21.996 36.7089 22.1639 36.4423 22.5881 36.198C23.078 35.9158 23.7857 35.768 24.416 35.768V32.568C23.4023 32.568 22.1 32.7862 20.9909 33.425C19.8161 34.1017 18.796 35.3111 18.796 37.12H21.996ZM24.416 35.768C24.6912 35.768 24.9106 35.7925 25.0763 35.8281C25.2443 35.8642 25.331 35.906 25.3617 35.9242C25.388 35.9398 25.3469 35.9217 25.3012 35.8466C25.2513 35.7648 25.24 35.6877 25.24 35.656H28.44C28.44 34.5339 27.8375 33.6713 26.9923 33.1708C26.2272 32.7177 25.2992 32.568 24.416 32.568V35.768ZM25.24 35.656C25.24 35.6816 25.236 35.6566 25.2578 35.5998C25.2816 35.5378 25.3266 35.4643 25.3947 35.4012C25.538 35.2687 25.6114 35.328 25.376 35.328V38.528C26.1366 38.528 26.942 38.3293 27.5683 37.7498C28.2102 37.1557 28.44 36.3692 28.44 35.656H25.24ZM25.376 35.328C25.2153 35.328 24.9673 35.304 24.6022 35.265C24.3005 35.2328 23.8674 35.184 23.516 35.184V38.384C23.6566 38.384 23.8895 38.4072 24.2628 38.447C24.5727 38.48 25.0087 38.528 25.376 38.528V35.328ZM23.516 35.184C23.1594 35.184 22.6304 35.2218 22.1398 35.4919C21.8681 35.6415 21.5898 35.873 21.3873 36.213C21.184 36.5539 21.112 36.9118 21.112 37.228H24.312C24.312 37.3942 24.273 37.6216 24.1361 37.8512C23.9999 38.0797 23.8214 38.219 23.6832 38.2951C23.4596 38.4182 23.3326 38.384 23.516 38.384V35.184ZM21.112 37.228C21.112 37.5016 21.1654 37.8611 21.3798 38.2244C21.5829 38.5686 21.8566 38.7899 22.0818 38.9317C22.4788 39.1815 22.9908 39.3427 23.4895 39.4792L24.3345 36.3928C24.1053 36.33 23.9519 36.2813 23.851 36.2442C23.743 36.2045 23.7402 36.1944 23.7862 36.2233C23.8374 36.2556 24.0001 36.3682 24.1357 36.598C24.2826 36.8469 24.312 37.0864 24.312 37.228H21.112ZM23.513 39.4855C24.4113 39.7167 24.7595 39.9485 24.8808 40.0663C24.9268 40.1109 24.9386 40.1372 24.9457 40.156C24.9557 40.1823 24.976 40.2512 24.976 40.396H28.176C28.176 39.4654 27.8949 38.5328 27.1102 37.7707C26.4005 37.0815 25.4167 36.6713 24.311 36.3865L23.513 39.4855ZM24.976 40.396C24.976 40.6549 24.8808 40.8544 24.647 41.0323C24.3806 41.235 23.8801 41.436 23.108 41.436V44.636C24.3999 44.636 25.6334 44.303 26.585 43.5787C27.5692 42.8296 28.176 41.7091 28.176 40.396H24.976ZM31.9878 42.136L33.5839 42.024L33.2724 37.5849L30.6858 41.206L31.9878 42.136ZM31.7838 39.376L30.839 40.6672L33.6728 42.7408L33.3782 39.2417L31.7838 39.376ZM33.7638 37.288L32.2712 37.8643L32.273 37.8688L33.7638 37.288ZM33.0078 41.52C32.8294 41.52 33.1038 41.4771 33.3825 41.7585C33.5098 41.8869 33.5643 42.0132 33.5834 42.0703C33.5992 42.1174 33.5903 42.1149 33.5839 42.024L30.3917 42.248C30.424 42.7084 30.5396 43.4356 31.1091 44.0105C31.7058 44.6129 32.4662 44.72 33.0078 44.72V41.52ZM30.6858 41.206C30.5857 41.3462 30.3651 41.556 29.6598 41.556V44.756C31.0906 44.756 32.4299 44.2698 33.2898 43.066L30.6858 41.206ZM29.6598 41.556C29.1255 41.556 28.9369 41.4065 28.8912 41.3626C28.8451 41.3184 28.7758 41.2213 28.7758 40.996H25.5758C25.5758 41.9467 25.9025 42.9296 26.6754 43.6714C27.4487 44.4135 28.5021 44.756 29.6598 44.756V41.556ZM28.7758 40.996C28.7758 40.7913 28.8384 40.7088 28.916 40.6457C29.0269 40.5555 29.3074 40.412 29.8518 40.412V37.212C28.7762 37.212 27.7187 37.4945 26.8966 38.1633C26.0413 38.8592 25.5758 39.8687 25.5758 40.996H28.7758ZM29.8518 40.412C30.3749 40.412 30.6651 40.54 30.839 40.6672L32.7286 38.0848C31.9185 37.492 30.9367 37.212 29.8518 37.212V40.412ZM33.3782 39.2417C33.3148 38.4896 33.0972 37.6723 32.4929 37.0458C31.8535 36.3827 31.0361 36.192 30.3318 36.192V39.392C30.4099 39.392 30.4137 39.4026 30.3726 39.3881C30.3507 39.3804 30.32 39.3669 30.2851 39.3449C30.2499 39.3226 30.2174 39.2959 30.1897 39.2672C30.1323 39.2077 30.1231 39.1686 30.1341 39.1985C30.1469 39.2335 30.1741 39.3281 30.1895 39.5103L33.3782 39.2417ZM30.3318 36.192C29.7088 36.192 29.1296 36.3813 28.834 36.4713C28.4396 36.5913 28.3288 36.612 28.2678 36.612V39.812C28.8908 39.812 29.47 39.6227 29.7657 39.5327C30.16 39.4127 30.2708 39.392 30.3318 39.392V36.192ZM28.2678 36.612C28.3036 36.612 28.5076 36.6286 28.7105 36.8257C28.9166 37.0259 28.9558 37.2516 28.9558 37.348H25.7558C25.7558 37.9604 25.963 38.6181 26.4811 39.1213C26.996 39.6214 27.656 39.812 28.2678 39.812V36.612ZM28.9558 37.348C28.9558 37.6734 28.736 37.6361 29.1159 37.4248C29.4414 37.2438 29.9866 37.088 30.6438 37.088V33.888C29.537 33.888 28.4382 34.1402 27.5607 34.6282C26.7377 35.0859 25.7558 35.9786 25.7558 37.348H28.9558ZM30.6438 37.088C31.726 37.088 32.1218 37.4773 32.2712 37.8643L35.2564 36.7117C34.4698 34.6747 32.5376 33.888 30.6438 33.888V37.088ZM32.273 37.8688C32.5337 38.5381 32.6798 39.4711 32.6798 40.66H35.8798C35.8798 39.2569 35.7139 37.8859 35.2547 36.7072L32.273 37.8688ZM32.6798 40.66C32.6798 41.1013 32.6575 41.4088 32.6248 41.6194C32.5911 41.8369 32.5567 41.8805 32.5787 41.841C32.6172 41.7718 32.7156 41.6513 32.8777 41.5719C33.0113 41.5065 33.0869 41.52 33.0078 41.52V44.72C33.3728 44.72 33.8293 44.669 34.2846 44.4461C34.7686 44.2092 35.1294 43.8382 35.3749 43.397C35.8008 42.6317 35.8798 41.6415 35.8798 40.66H32.6798ZM30.5718 43.064C31.0556 43.064 31.6325 42.9622 32.1474 42.6935C32.6464 42.4332 33.4198 41.8099 33.4198 40.708H30.2198C30.2198 40.4445 30.3172 40.217 30.4375 40.0611C30.5434 39.9239 30.6447 39.8682 30.6672 39.8565C30.6944 39.8423 30.6942 39.8468 30.6616 39.854C30.6312 39.8607 30.5977 39.864 30.5718 39.864V43.064ZM33.4198 40.708C33.4198 39.7013 32.7689 39.0733 32.2066 38.7841C31.6898 38.5184 31.1252 38.448 30.6798 38.448V41.648C30.8344 41.648 30.8398 41.6796 30.7431 41.6299C30.6839 41.5994 30.5508 41.5184 30.4281 41.348C30.2929 41.1605 30.2198 40.9318 30.2198 40.708H33.4198ZM30.6798 38.448C30.1141 38.448 29.4951 38.572 28.9649 38.9268C28.4018 39.3037 27.9518 39.9511 27.9518 40.78H31.1518C31.1518 40.9589 31.1033 41.1381 31.0132 41.293C30.9261 41.4427 30.8208 41.5352 30.7447 41.5862C30.6045 41.68 30.5495 41.648 30.6798 41.648V38.448ZM27.9518 40.78C27.9518 41.5525 28.3381 42.2072 28.928 42.6055C29.4563 42.9623 30.0614 43.064 30.5718 43.064V39.864C30.4463 39.864 30.5413 39.8337 30.7187 39.9535C30.8172 40.02 30.9346 40.1305 31.0248 40.295C31.1163 40.462 31.1518 40.6339 31.1518 40.78H27.9518ZM37.3967 36.916L35.8322 37.2512L35.8364 37.2707L35.8411 37.2901L37.3967 36.916ZM38.3327 40.9L36.7729 41.2565L37.0572 42.5H38.3327V40.9ZM38.3807 40.9V42.5H39.63L39.9329 41.2881L38.3807 40.9ZM39.0887 37.168L40.6767 37.3638L40.6791 37.3447L40.681 37.3255L39.0887 37.168ZM40.7087 40.936L42.1576 41.6148L42.159 41.6117L40.7087 40.936ZM35.9567 41.392L37.3677 40.6376L37.3651 40.6327L35.9567 41.392ZM35.9927 37.052C36.0501 37.052 36.0245 37.0602 35.9545 37.0335C35.9192 37.02 35.8795 37.0001 35.8397 36.9731C35.8 36.9461 35.7684 36.9176 35.7452 36.8925C35.7001 36.8437 35.7017 36.8246 35.7273 36.885C35.7537 36.9476 35.7915 37.0611 35.8322 37.2512L38.9612 36.5808C38.8347 35.9906 38.6126 35.2799 38.0943 34.7195C37.4992 34.0762 36.7315 33.852 35.9927 33.852V37.052ZM35.8411 37.2901C36.0681 38.2341 36.4867 40.004 36.7729 41.2565L39.8925 40.5435C39.6028 39.276 39.1813 37.4939 38.9524 36.5419L35.8411 37.2901ZM38.3327 42.5H38.3807V39.3H38.3327V42.5ZM39.9329 41.2881C40.2605 39.9779 40.5606 38.3058 40.6767 37.3638L37.5007 36.9722C37.4009 37.7822 37.125 39.3261 36.8285 40.5119L39.9329 41.2881ZM40.681 37.3255C40.7022 37.1105 40.7288 36.9823 40.7486 36.9134C40.7686 36.8439 40.7688 36.8806 40.7106 36.9587C40.6797 37.0001 40.6357 37.0486 40.5767 37.0958C40.5174 37.1433 40.4541 37.1804 40.3921 37.2072C40.27 37.26 40.1932 37.256 40.2167 37.256V34.056C39.501 34.056 38.7034 34.2969 38.1449 35.0463C37.6919 35.654 37.5565 36.4037 37.4965 37.0105L40.681 37.3255ZM40.2167 37.256C40.2655 37.256 40.2444 37.2637 40.1827 37.2389C40.1513 37.2263 40.114 37.207 40.0752 37.1792C40.0362 37.1512 40.0025 37.1196 39.9753 37.0873C39.9196 37.0213 39.9125 36.9795 39.9205 37.0075C39.9296 37.0395 39.9487 37.1296 39.9487 37.3H43.1487C43.1487 36.5372 42.9868 35.6938 42.4202 35.0227C41.8128 34.3034 40.977 34.056 40.2167 34.056V37.256ZM39.9487 37.3C39.9487 38.1921 39.6636 39.3906 39.2584 40.2603L42.159 41.6117C42.7378 40.3694 43.1487 38.7119 43.1487 37.3H39.9487ZM39.2598 40.2572C38.9913 40.8304 38.7548 41.1491 38.5684 41.3153C38.4228 41.4451 38.312 41.484 38.1527 41.484V44.684C40.2929 44.684 41.4651 43.0929 42.1576 41.6148L39.2598 40.2572ZM38.1527 41.484C38.0332 41.484 37.9923 41.4638 37.9333 41.419C37.8319 41.3418 37.6365 41.1404 37.3677 40.6376L34.5457 42.1464C34.9249 42.8556 35.3836 43.5002 35.9962 43.9661C36.6512 44.4642 37.3842 44.684 38.1527 44.684V41.484ZM37.3651 40.6327C36.7372 39.4681 36.4047 38.0473 36.4047 37.12H33.2047C33.2047 38.6167 33.6882 40.5559 34.5484 42.1513L37.3651 40.6327ZM36.4047 37.12C36.4047 36.9219 36.4209 36.8008 36.4349 36.7371C36.4489 36.6736 36.4522 36.7058 36.4018 36.779C36.3755 36.8173 36.3377 36.8618 36.2869 36.9053C36.2358 36.9489 36.181 36.9833 36.1276 37.0081C36.0209 37.0577 35.9591 37.052 35.9927 37.052V33.852C35.1687 33.852 34.3195 34.1601 33.7657 34.965C33.2972 35.6456 33.2047 36.4597 33.2047 37.12H36.4047ZM44.2348 39.952L44.7274 38.4297L42.3906 37.6737L42.6433 40.1166L44.2348 39.952ZM45.8788 41.496C44.6376 41.496 44.1307 41.2206 43.9307 41.0366C43.7601 40.8796 43.5668 40.5621 43.5668 39.784H40.3668C40.3668 41.0699 40.6956 42.4084 41.764 43.3914C42.803 44.3474 44.2521 44.696 45.8788 44.696V41.496ZM43.5668 39.784C43.5668 38.8488 43.8678 38.2544 44.2413 37.8925C44.6234 37.5222 45.2257 37.256 46.0708 37.256V34.056C44.54 34.056 43.0903 34.5518 42.0143 35.5945C40.9298 36.6456 40.3668 38.1152 40.3668 39.784H43.5668ZM46.0708 37.256C46.7908 37.256 47.0525 37.4226 47.1087 37.4691C47.1205 37.4789 47.1828 37.5115 47.1828 37.744H50.3828C50.3828 36.7405 50.0252 35.7291 49.149 35.0039C48.3171 34.3154 47.2229 34.056 46.0708 34.056V37.256ZM47.1828 37.744C47.1828 37.9679 47.1094 38.1028 46.9429 38.2276C46.7344 38.3838 46.3118 38.556 45.6268 38.556V41.756C46.8019 41.756 47.9573 41.4661 48.8618 40.7884C49.8083 40.0792 50.3828 39.0081 50.3828 37.744H47.1828ZM45.6268 38.556C45.2676 38.556 44.9562 38.5037 44.7274 38.4297L43.7423 41.4743C44.3295 41.6643 44.9781 41.756 45.6268 41.756V38.556ZM42.6433 40.1166C42.7292 40.9469 43.1621 41.6576 43.9013 42.0812C44.5276 42.4401 45.236 42.512 45.8068 42.512V39.312C45.6433 39.312 45.5381 39.3001 45.478 39.2886C45.417 39.2768 45.4344 39.2716 45.4923 39.3048C45.5599 39.3435 45.6548 39.4193 45.7311 39.5398C45.8056 39.6575 45.8231 39.7556 45.8264 39.7874L42.6433 40.1166ZM45.8068 42.512C46.7157 42.512 47.3874 42.3242 47.8796 42.1576C48.1678 42.0601 48.2312 42.031 48.3759 41.9869C48.4758 41.9564 48.4583 41.972 48.3868 41.972V38.772C48.0034 38.772 47.6754 38.8551 47.4431 38.9259C47.2555 38.983 46.9649 39.0889 46.854 39.1264C46.5483 39.2298 46.242 39.312 45.8068 39.312V42.512ZM48.3868 41.972C48.2217 41.972 48.0484 41.9181 47.9005 41.7831C47.821 41.7105 47.7587 41.6222 47.7191 41.529C47.6798 41.4364 47.6748 41.3675 47.6748 41.344H50.8748C50.8748 40.5852 50.5861 39.902 50.0582 39.4199C49.5653 38.9699 48.948 38.772 48.3868 38.772V41.972ZM47.6748 41.344C47.6748 41.0905 47.8581 41.0659 47.637 41.1878C47.3858 41.3262 46.8341 41.496 45.8788 41.496V44.696C47.1436 44.696 48.2898 44.4818 49.1817 43.9902C50.1036 43.4821 50.8748 42.5815 50.8748 41.344H47.6748ZM45.1828 40.568C45.8712 40.568 46.5789 40.3938 47.164 40.0027C47.7549 39.6077 48.3188 38.903 48.3188 37.936H45.1188C45.1188 37.7664 45.1701 37.6165 45.2377 37.5068C45.3008 37.4042 45.365 37.3562 45.3857 37.3423C45.4188 37.3202 45.3584 37.368 45.1828 37.368V40.568ZM48.3188 37.936C48.3188 37.3169 48.078 36.6858 47.5546 36.2293C47.0519 35.7907 46.4367 35.64 45.8908 35.64V38.84C45.873 38.84 45.6718 38.8333 45.4511 38.6407C45.2097 38.4302 45.1188 38.1471 45.1188 37.936H48.3188ZM45.8908 35.64C45.1389 35.64 44.4116 35.8752 43.8395 36.2945C43.2866 36.6998 42.7188 37.4139 42.7188 38.38H45.9188C45.9188 38.5577 45.8643 38.6923 45.8175 38.7705C45.7729 38.845 45.7335 38.8738 45.7312 38.8755C45.7272 38.8784 45.7407 38.8681 45.7739 38.8575C45.8058 38.8473 45.846 38.84 45.8908 38.84V35.64ZM42.7188 38.38C42.7188 39.0835 43.0488 39.7295 43.6408 40.1343C44.1546 40.4856 44.7332 40.568 45.1828 40.568V37.368C45.0805 37.368 45.2271 37.3424 45.4469 37.4927C45.5696 37.5766 45.6999 37.707 45.7946 37.8885C45.8889 38.0691 45.9188 38.2446 45.9188 38.38H42.7188Z" fill="#563B00" mask="url(#path-4-outside-1_13084_7735)"/>
<mask id="path-6-outside-2_13084_7735" maskUnits="userSpaceOnUse" x="18" y="30" width="33" height="13" fill="black">
<rect fill="white" x="18" y="30" width="33" height="13"/>
<path d="M23.108 41.036C21.8 41.036 20.168 40.664 20.168 39.32C20.168 38.564 20.552 38.18 21.464 38.18C22.028 38.18 22.76 38.348 23.216 38.348C23.732 38.348 23.972 38.168 23.972 37.916C23.972 37.604 23.684 37.484 22.748 37.268C21.056 36.92 20.396 36.32 20.396 35.12C20.396 32.9 22.772 32.168 24.416 32.168C25.88 32.168 26.84 32.684 26.84 33.656C26.84 34.412 26.372 34.928 25.376 34.928C24.848 34.928 24.008 34.784 23.516 34.784C22.976 34.784 22.712 34.928 22.712 35.228C22.712 35.492 22.904 35.66 23.912 35.936C25.916 36.452 26.576 37.22 26.576 38.396C26.576 39.968 25.172 41.036 23.108 41.036ZM33.0078 41.12C32.2878 41.12 32.0358 40.82 31.9878 40.136C31.5078 40.808 30.7278 41.156 29.6598 41.156C27.9678 41.156 27.1758 40.172 27.1758 38.996C27.1758 37.664 28.2318 36.812 29.8518 36.812C30.6558 36.812 31.2918 37.016 31.7838 37.376C31.6878 36.236 31.1838 35.792 30.3318 35.792C29.6478 35.792 28.9518 36.212 28.2678 36.212C27.6918 36.212 27.3558 35.864 27.3558 35.348C27.3558 34.304 28.8798 33.488 30.6438 33.488C32.1318 33.488 33.2958 34.076 33.7638 35.288C34.1238 36.212 34.2798 37.364 34.2798 38.66C34.2798 40.604 33.8958 41.12 33.0078 41.12ZM30.5718 39.464C31.1358 39.464 31.8198 39.212 31.8198 38.708C31.8198 38.252 31.2798 38.048 30.6798 38.048C29.9838 38.048 29.5518 38.36 29.5518 38.78C29.5518 39.2 29.9358 39.464 30.5718 39.464ZM35.9927 33.452C36.8087 33.452 37.1807 33.908 37.3967 34.916C37.6247 35.864 38.0447 37.64 38.3327 38.9H38.3807C38.6927 37.652 38.9807 36.044 39.0887 35.168C39.1967 34.076 39.5087 33.656 40.2167 33.656C41.0567 33.656 41.5487 34.172 41.5487 35.3C41.5487 36.452 41.2007 37.88 40.7087 38.936C40.0847 40.268 39.3167 41.084 38.1527 41.084C37.2647 41.084 36.6047 40.604 35.9567 39.392C35.2127 38.012 34.8047 36.332 34.8047 35.12C34.8047 34.016 35.1527 33.452 35.9927 33.452ZM45.8788 41.096C43.0108 41.096 41.9668 39.848 41.9668 37.784C41.9668 35.18 43.6948 33.656 46.0708 33.656C47.9428 33.656 48.7828 34.508 48.7828 35.744C48.7828 37.232 47.4868 38.156 45.6268 38.156C45.1228 38.156 44.6428 38.084 44.2348 37.952C44.3068 38.648 44.8708 38.912 45.8068 38.912C47.1508 38.912 47.7628 38.372 48.3868 38.372C48.7828 38.372 49.2748 38.66 49.2748 39.344C49.2748 40.328 48.0988 41.096 45.8788 41.096ZM45.1828 36.968C46.0468 36.968 46.7188 36.524 46.7188 35.936C46.7188 35.528 46.4188 35.24 45.8908 35.24C45.0388 35.24 44.3188 35.78 44.3188 36.38C44.3188 36.752 44.6308 36.968 45.1828 36.968Z"/>
</mask>
<path d="M23.108 41.036C21.8 41.036 20.168 40.664 20.168 39.32C20.168 38.564 20.552 38.18 21.464 38.18C22.028 38.18 22.76 38.348 23.216 38.348C23.732 38.348 23.972 38.168 23.972 37.916C23.972 37.604 23.684 37.484 22.748 37.268C21.056 36.92 20.396 36.32 20.396 35.12C20.396 32.9 22.772 32.168 24.416 32.168C25.88 32.168 26.84 32.684 26.84 33.656C26.84 34.412 26.372 34.928 25.376 34.928C24.848 34.928 24.008 34.784 23.516 34.784C22.976 34.784 22.712 34.928 22.712 35.228C22.712 35.492 22.904 35.66 23.912 35.936C25.916 36.452 26.576 37.22 26.576 38.396C26.576 39.968 25.172 41.036 23.108 41.036ZM33.0078 41.12C32.2878 41.12 32.0358 40.82 31.9878 40.136C31.5078 40.808 30.7278 41.156 29.6598 41.156C27.9678 41.156 27.1758 40.172 27.1758 38.996C27.1758 37.664 28.2318 36.812 29.8518 36.812C30.6558 36.812 31.2918 37.016 31.7838 37.376C31.6878 36.236 31.1838 35.792 30.3318 35.792C29.6478 35.792 28.9518 36.212 28.2678 36.212C27.6918 36.212 27.3558 35.864 27.3558 35.348C27.3558 34.304 28.8798 33.488 30.6438 33.488C32.1318 33.488 33.2958 34.076 33.7638 35.288C34.1238 36.212 34.2798 37.364 34.2798 38.66C34.2798 40.604 33.8958 41.12 33.0078 41.12ZM30.5718 39.464C31.1358 39.464 31.8198 39.212 31.8198 38.708C31.8198 38.252 31.2798 38.048 30.6798 38.048C29.9838 38.048 29.5518 38.36 29.5518 38.78C29.5518 39.2 29.9358 39.464 30.5718 39.464ZM35.9927 33.452C36.8087 33.452 37.1807 33.908 37.3967 34.916C37.6247 35.864 38.0447 37.64 38.3327 38.9H38.3807C38.6927 37.652 38.9807 36.044 39.0887 35.168C39.1967 34.076 39.5087 33.656 40.2167 33.656C41.0567 33.656 41.5487 34.172 41.5487 35.3C41.5487 36.452 41.2007 37.88 40.7087 38.936C40.0847 40.268 39.3167 41.084 38.1527 41.084C37.2647 41.084 36.6047 40.604 35.9567 39.392C35.2127 38.012 34.8047 36.332 34.8047 35.12C34.8047 34.016 35.1527 33.452 35.9927 33.452ZM45.8788 41.096C43.0108 41.096 41.9668 39.848 41.9668 37.784C41.9668 35.18 43.6948 33.656 46.0708 33.656C47.9428 33.656 48.7828 34.508 48.7828 35.744C48.7828 37.232 47.4868 38.156 45.6268 38.156C45.1228 38.156 44.6428 38.084 44.2348 37.952C44.3068 38.648 44.8708 38.912 45.8068 38.912C47.1508 38.912 47.7628 38.372 48.3868 38.372C48.7828 38.372 49.2748 38.66 49.2748 39.344C49.2748 40.328 48.0988 41.096 45.8788 41.096ZM45.1828 36.968C46.0468 36.968 46.7188 36.524 46.7188 35.936C46.7188 35.528 46.4188 35.24 45.8908 35.24C45.0388 35.24 44.3188 35.78 44.3188 36.38C44.3188 36.752 44.6308 36.968 45.1828 36.968Z" fill="white"/>
<path d="M22.748 37.268L23.1078 35.709L23.0891 35.7047L23.0703 35.7008L22.748 37.268ZM23.912 35.936L23.4895 37.4792L23.5012 37.4824L23.513 37.4855L23.912 35.936ZM23.108 39.436C22.5621 39.436 22.0874 39.3523 21.8122 39.2266C21.6873 39.1696 21.6795 39.1381 21.7083 39.1752C21.7247 39.1965 21.743 39.2276 21.7556 39.2647C21.7681 39.3015 21.768 39.3235 21.768 39.32H18.568C18.568 40.8259 19.558 41.715 20.4828 42.1374C21.3506 42.5337 22.3459 42.636 23.108 42.636V39.436ZM21.768 39.32C21.768 39.2604 21.7763 39.2839 21.751 39.3557C21.7215 39.4392 21.6586 39.5522 21.549 39.6516C21.4437 39.7471 21.35 39.7805 21.3239 39.788C21.3048 39.7936 21.3418 39.78 21.464 39.78V36.58C20.8264 36.58 20.0314 36.7077 19.399 37.2814C18.7324 37.8861 18.568 38.6873 18.568 39.32H21.768ZM21.464 39.78C21.6199 39.78 21.8364 39.805 22.166 39.8496C22.4254 39.8846 22.8533 39.948 23.216 39.948V36.748C23.1227 36.748 22.9566 36.7274 22.595 36.6784C22.3036 36.639 21.8721 36.58 21.464 36.58V39.78ZM23.216 39.948C23.6228 39.948 24.1475 39.8832 24.6251 39.5897C25.1835 39.2466 25.572 38.6433 25.572 37.916H22.372C22.372 37.7164 22.4222 37.4928 22.5449 37.2827C22.6656 37.0761 22.8212 36.9423 22.9499 36.8633C23.1785 36.7228 23.3252 36.748 23.216 36.748V39.948ZM25.572 37.916C25.572 37.5704 25.4849 37.1638 25.216 36.7859C24.9699 36.4399 24.6586 36.2427 24.4356 36.1295C24.0411 35.9291 23.5357 35.8077 23.1078 35.709L22.3882 38.827C22.6137 38.8791 22.771 38.9187 22.884 38.9519C23.005 38.9873 23.0204 38.9998 22.9864 38.9825C22.9524 38.9653 22.7716 38.8701 22.6087 38.6411C22.4231 38.3802 22.372 38.1056 22.372 37.916H25.572ZM23.0703 35.7008C22.3102 35.5445 22.0689 35.3799 22.0159 35.3315C22.0083 35.3246 22.0096 35.3244 22.014 35.331C22.0186 35.3376 22.0203 35.3422 22.0196 35.3404C22.0178 35.3356 21.996 35.2761 21.996 35.12H18.796C18.796 36.0476 19.0697 36.9752 19.8591 37.6955C20.5591 38.3341 21.4938 38.6435 22.4257 38.8352L23.0703 35.7008ZM21.996 35.12C21.996 34.7089 22.1639 34.4423 22.5881 34.198C23.078 33.9158 23.7857 33.768 24.416 33.768V30.568C23.4023 30.568 22.1 30.7862 20.9909 31.425C19.8161 32.1017 18.796 33.3111 18.796 35.12H21.996ZM24.416 33.768C24.6912 33.768 24.9106 33.7925 25.0763 33.8281C25.2443 33.8642 25.331 33.906 25.3617 33.9242C25.388 33.9398 25.3469 33.9217 25.3012 33.8466C25.2513 33.7648 25.24 33.6877 25.24 33.656H28.44C28.44 32.5339 27.8375 31.6713 26.9923 31.1708C26.2272 30.7177 25.2992 30.568 24.416 30.568V33.768ZM25.24 33.656C25.24 33.6816 25.236 33.6566 25.2578 33.5998C25.2816 33.5378 25.3266 33.4643 25.3947 33.4012C25.538 33.2687 25.6114 33.328 25.376 33.328V36.528C26.1366 36.528 26.942 36.3293 27.5683 35.7498C28.2102 35.1557 28.44 34.3692 28.44 33.656H25.24ZM25.376 33.328C25.2153 33.328 24.9673 33.304 24.6022 33.265C24.3005 33.2328 23.8674 33.184 23.516 33.184V36.384C23.6566 36.384 23.8895 36.4072 24.2628 36.447C24.5727 36.48 25.0087 36.528 25.376 36.528V33.328ZM23.516 33.184C23.1594 33.184 22.6304 33.2218 22.1398 33.4919C21.8681 33.6415 21.5898 33.873 21.3873 34.213C21.184 34.5539 21.112 34.9118 21.112 35.228H24.312C24.312 35.3942 24.273 35.6216 24.1361 35.8512C23.9999 36.0797 23.8214 36.219 23.6832 36.2951C23.4596 36.4182 23.3326 36.384 23.516 36.384V33.184ZM21.112 35.228C21.112 35.5016 21.1654 35.8611 21.3798 36.2244C21.5829 36.5686 21.8566 36.7899 22.0818 36.9317C22.4788 37.1815 22.9908 37.3427 23.4895 37.4792L24.3345 34.3928C24.1053 34.33 23.9519 34.2813 23.851 34.2442C23.743 34.2045 23.7402 34.1944 23.7862 34.2233C23.8374 34.2556 24.0001 34.3682 24.1357 34.598C24.2826 34.8469 24.312 35.0864 24.312 35.228H21.112ZM23.513 37.4855C24.4113 37.7167 24.7595 37.9485 24.8808 38.0663C24.9268 38.1109 24.9386 38.1372 24.9457 38.156C24.9557 38.1823 24.976 38.2512 24.976 38.396H28.176C28.176 37.4654 27.8949 36.5328 27.1102 35.7707C26.4005 35.0815 25.4167 34.6713 24.311 34.3865L23.513 37.4855ZM24.976 38.396C24.976 38.6549 24.8808 38.8544 24.647 39.0323C24.3806 39.235 23.8801 39.436 23.108 39.436V42.636C24.3999 42.636 25.6334 42.303 26.585 41.5787C27.5692 40.8296 28.176 39.7091 28.176 38.396H24.976ZM31.9878 40.136L33.5839 40.024L33.2724 35.5849L30.6858 39.206L31.9878 40.136ZM31.7838 37.376L30.839 38.6672L33.6728 40.7408L33.3782 37.2417L31.7838 37.376ZM33.7638 35.288L32.2712 35.8643L32.273 35.8688L33.7638 35.288ZM33.0078 39.52C32.8294 39.52 33.1038 39.4771 33.3825 39.7585C33.5098 39.8869 33.5643 40.0132 33.5834 40.0703C33.5992 40.1174 33.5903 40.1149 33.5839 40.024L30.3917 40.248C30.424 40.7084 30.5396 41.4356 31.1091 42.0105C31.7058 42.6129 32.4662 42.72 33.0078 42.72V39.52ZM30.6858 39.206C30.5857 39.3462 30.3651 39.556 29.6598 39.556V42.756C31.0906 42.756 32.4299 42.2698 33.2898 41.066L30.6858 39.206ZM29.6598 39.556C29.1255 39.556 28.9369 39.4065 28.8912 39.3626C28.8451 39.3184 28.7758 39.2213 28.7758 38.996H25.5758C25.5758 39.9467 25.9025 40.9296 26.6754 41.6714C27.4487 42.4135 28.5021 42.756 29.6598 42.756V39.556ZM28.7758 38.996C28.7758 38.7913 28.8384 38.7088 28.916 38.6457C29.0269 38.5555 29.3074 38.412 29.8518 38.412V35.212C28.7762 35.212 27.7187 35.4945 26.8966 36.1633C26.0413 36.8592 25.5758 37.8687 25.5758 38.996H28.7758ZM29.8518 38.412C30.3749 38.412 30.6651 38.54 30.839 38.6672L32.7286 36.0848C31.9185 35.492 30.9367 35.212 29.8518 35.212V38.412ZM33.3782 37.2417C33.3148 36.4896 33.0972 35.6723 32.4929 35.0458C31.8535 34.3827 31.0361 34.192 30.3318 34.192V37.392C30.4099 37.392 30.4137 37.4026 30.3726 37.3881C30.3507 37.3804 30.32 37.3669 30.2851 37.3449C30.2499 37.3226 30.2174 37.2959 30.1897 37.2672C30.1323 37.2077 30.1231 37.1686 30.1341 37.1985C30.1469 37.2335 30.1741 37.3281 30.1895 37.5103L33.3782 37.2417ZM30.3318 34.192C29.7088 34.192 29.1296 34.3813 28.834 34.4713C28.4396 34.5913 28.3288 34.612 28.2678 34.612V37.812C28.8908 37.812 29.47 37.6227 29.7657 37.5327C30.16 37.4127 30.2708 37.392 30.3318 37.392V34.192ZM28.2678 34.612C28.3036 34.612 28.5076 34.6286 28.7105 34.8257C28.9166 35.0259 28.9558 35.2516 28.9558 35.348H25.7558C25.7558 35.9604 25.963 36.6181 26.4811 37.1213C26.996 37.6214 27.656 37.812 28.2678 37.812V34.612ZM28.9558 35.348C28.9558 35.6734 28.736 35.6361 29.1159 35.4248C29.4414 35.2438 29.9866 35.088 30.6438 35.088V31.888C29.537 31.888 28.4382 32.1402 27.5607 32.6282C26.7377 33.0859 25.7558 33.9786 25.7558 35.348H28.9558ZM30.6438 35.088C31.726 35.088 32.1218 35.4773 32.2712 35.8643L35.2564 34.7117C34.4698 32.6747 32.5376 31.888 30.6438 31.888V35.088ZM32.273 35.8688C32.5337 36.5381 32.6798 37.4711 32.6798 38.66H35.8798C35.8798 37.2569 35.7139 35.8859 35.2547 34.7072L32.273 35.8688ZM32.6798 38.66C32.6798 39.1013 32.6575 39.4088 32.6248 39.6194C32.5911 39.8369 32.5567 39.8805 32.5787 39.841C32.6172 39.7718 32.7156 39.6513 32.8777 39.5719C33.0113 39.5065 33.0869 39.52 33.0078 39.52V42.72C33.3728 42.72 33.8293 42.669 34.2846 42.4461C34.7686 42.2092 35.1294 41.8382 35.3749 41.397C35.8008 40.6317 35.8798 39.6415 35.8798 38.66H32.6798ZM30.5718 41.064C31.0556 41.064 31.6325 40.9622 32.1474 40.6935C32.6464 40.4332 33.4198 39.8099 33.4198 38.708H30.2198C30.2198 38.4445 30.3172 38.217 30.4375 38.0611C30.5434 37.9239 30.6447 37.8682 30.6672 37.8565C30.6944 37.8423 30.6942 37.8468 30.6616 37.854C30.6312 37.8607 30.5977 37.864 30.5718 37.864V41.064ZM33.4198 38.708C33.4198 37.7013 32.7689 37.0733 32.2066 36.7841C31.6898 36.5184 31.1252 36.448 30.6798 36.448V39.648C30.8344 39.648 30.8398 39.6796 30.7431 39.6299C30.6839 39.5994 30.5508 39.5184 30.4281 39.348C30.2929 39.1605 30.2198 38.9318 30.2198 38.708H33.4198ZM30.6798 36.448C30.1141 36.448 29.4951 36.572 28.9649 36.9268C28.4018 37.3037 27.9518 37.9511 27.9518 38.78H31.1518C31.1518 38.9589 31.1033 39.1381 31.0132 39.293C30.9261 39.4427 30.8208 39.5352 30.7447 39.5862C30.6045 39.68 30.5495 39.648 30.6798 39.648V36.448ZM27.9518 38.78C27.9518 39.5525 28.3381 40.2072 28.928 40.6055C29.4563 40.9623 30.0614 41.064 30.5718 41.064V37.864C30.4463 37.864 30.5413 37.8337 30.7187 37.9535C30.8172 38.02 30.9346 38.1305 31.0248 38.295C31.1163 38.462 31.1518 38.6339 31.1518 38.78H27.9518ZM37.3967 34.916L35.8322 35.2512L35.8364 35.2707L35.8411 35.2901L37.3967 34.916ZM38.3327 38.9L36.7729 39.2565L37.0572 40.5H38.3327V38.9ZM38.3807 38.9V40.5H39.63L39.9329 39.2881L38.3807 38.9ZM39.0887 35.168L40.6767 35.3638L40.6791 35.3447L40.681 35.3255L39.0887 35.168ZM40.7087 38.936L42.1576 39.6148L42.159 39.6117L40.7087 38.936ZM35.9567 39.392L37.3677 38.6376L37.3651 38.6327L35.9567 39.392ZM35.9927 35.052C36.0501 35.052 36.0245 35.0602 35.9545 35.0335C35.9192 35.02 35.8795 35.0001 35.8397 34.9731C35.8 34.9461 35.7684 34.9176 35.7452 34.8925C35.7001 34.8437 35.7017 34.8246 35.7273 34.885C35.7537 34.9476 35.7915 35.0611 35.8322 35.2512L38.9612 34.5808C38.8347 33.9906 38.6126 33.2799 38.0943 32.7195C37.4992 32.0762 36.7315 31.852 35.9927 31.852V35.052ZM35.8411 35.2901C36.0681 36.2341 36.4867 38.004 36.7729 39.2565L39.8925 38.5435C39.6028 37.276 39.1813 35.4939 38.9524 34.5419L35.8411 35.2901ZM38.3327 40.5H38.3807V37.3H38.3327V40.5ZM39.9329 39.2881C40.2605 37.9779 40.5606 36.3058 40.6767 35.3638L37.5007 34.9722C37.4009 35.7822 37.125 37.3261 36.8285 38.5119L39.9329 39.2881ZM40.681 35.3255C40.7022 35.1105 40.7288 34.9823 40.7486 34.9134C40.7686 34.8439 40.7688 34.8806 40.7106 34.9587C40.6797 35.0001 40.6357 35.0486 40.5767 35.0958C40.5174 35.1433 40.4541 35.1804 40.3921 35.2072C40.27 35.26 40.1932 35.256 40.2167 35.256V32.056C39.501 32.056 38.7034 32.2969 38.1449 33.0463C37.6919 33.654 37.5565 34.4037 37.4965 35.0105L40.681 35.3255ZM40.2167 35.256C40.2655 35.256 40.2444 35.2637 40.1827 35.2389C40.1513 35.2263 40.114 35.207 40.0752 35.1792C40.0362 35.1512 40.0025 35.1196 39.9753 35.0873C39.9196 35.0213 39.9125 34.9795 39.9205 35.0075C39.9296 35.0395 39.9487 35.1296 39.9487 35.3H43.1487C43.1487 34.5372 42.9868 33.6938 42.4202 33.0227C41.8128 32.3034 40.977 32.056 40.2167 32.056V35.256ZM39.9487 35.3C39.9487 36.1921 39.6636 37.3906 39.2584 38.2603L42.159 39.6117C42.7378 38.3694 43.1487 36.7119 43.1487 35.3H39.9487ZM39.2598 38.2572C38.9913 38.8304 38.7548 39.1491 38.5684 39.3153C38.4228 39.4451 38.312 39.484 38.1527 39.484V42.684C40.2929 42.684 41.4651 41.0929 42.1576 39.6148L39.2598 38.2572ZM38.1527 39.484C38.0332 39.484 37.9923 39.4638 37.9333 39.419C37.8319 39.3418 37.6365 39.1404 37.3677 38.6376L34.5457 40.1464C34.9249 40.8556 35.3836 41.5002 35.9962 41.9661C36.6512 42.4642 37.3842 42.684 38.1527 42.684V39.484ZM37.3651 38.6327C36.7372 37.4681 36.4047 36.0473 36.4047 35.12H33.2047C33.2047 36.6167 33.6882 38.5559 34.5484 40.1513L37.3651 38.6327ZM36.4047 35.12C36.4047 34.9219 36.4209 34.8008 36.4349 34.7371C36.4489 34.6736 36.4522 34.7058 36.4018 34.779C36.3755 34.8173 36.3377 34.8618 36.2869 34.9053C36.2358 34.9489 36.181 34.9833 36.1276 35.0081C36.0209 35.0577 35.9591 35.052 35.9927 35.052V31.852C35.1687 31.852 34.3195 32.1601 33.7657 32.965C33.2972 33.6456 33.2047 34.4597 33.2047 35.12H36.4047ZM44.2348 37.952L44.7274 36.4297L42.3906 35.6737L42.6433 38.1166L44.2348 37.952ZM45.8788 39.496C44.6376 39.496 44.1307 39.2206 43.9307 39.0366C43.7601 38.8796 43.5668 38.5621 43.5668 37.784H40.3668C40.3668 39.0699 40.6956 40.4084 41.764 41.3914C42.803 42.3474 44.2521 42.696 45.8788 42.696V39.496ZM43.5668 37.784C43.5668 36.8488 43.8678 36.2544 44.2413 35.8925C44.6234 35.5222 45.2257 35.256 46.0708 35.256V32.056C44.54 32.056 43.0903 32.5518 42.0143 33.5945C40.9298 34.6456 40.3668 36.1152 40.3668 37.784H43.5668ZM46.0708 35.256C46.7908 35.256 47.0525 35.4226 47.1087 35.4691C47.1205 35.4789 47.1828 35.5115 47.1828 35.744H50.3828C50.3828 34.7405 50.0252 33.7291 49.149 33.0039C48.3171 32.3154 47.2229 32.056 46.0708 32.056V35.256ZM47.1828 35.744C47.1828 35.9679 47.1094 36.1028 46.9429 36.2276C46.7344 36.3838 46.3118 36.556 45.6268 36.556V39.756C46.8019 39.756 47.9573 39.4661 48.8618 38.7884C49.8083 38.0792 50.3828 37.0081 50.3828 35.744H47.1828ZM45.6268 36.556C45.2676 36.556 44.9562 36.5037 44.7274 36.4297L43.7423 39.4743C44.3295 39.6643 44.9781 39.756 45.6268 39.756V36.556ZM42.6433 38.1166C42.7292 38.9469 43.1621 39.6576 43.9013 40.0812C44.5276 40.4401 45.236 40.512 45.8068 40.512V37.312C45.6433 37.312 45.5381 37.3001 45.478 37.2886C45.417 37.2768 45.4344 37.2716 45.4923 37.3048C45.5599 37.3435 45.6548 37.4193 45.7311 37.5398C45.8056 37.6575 45.8231 37.7556 45.8264 37.7874L42.6433 38.1166ZM45.8068 40.512C46.7157 40.512 47.3874 40.3242 47.8796 40.1576C48.1678 40.0601 48.2312 40.031 48.3759 39.9869C48.4758 39.9564 48.4583 39.972 48.3868 39.972V36.772C48.0034 36.772 47.6754 36.8551 47.4431 36.9259C47.2555 36.983 46.9649 37.0889 46.854 37.1264C46.5483 37.2298 46.242 37.312 45.8068 37.312V40.512ZM48.3868 39.972C48.2217 39.972 48.0484 39.9181 47.9005 39.7831C47.821 39.7105 47.7587 39.6222 47.7191 39.529C47.6798 39.4364 47.6748 39.3675 47.6748 39.344H50.8748C50.8748 38.5852 50.5861 37.902 50.0582 37.4199C49.5653 36.9699 48.948 36.772 48.3868 36.772V39.972ZM47.6748 39.344C47.6748 39.0905 47.8581 39.0659 47.637 39.1878C47.3858 39.3262 46.8341 39.496 45.8788 39.496V42.696C47.1436 42.696 48.2898 42.4818 49.1817 41.9902C50.1036 41.4821 50.8748 40.5815 50.8748 39.344H47.6748ZM45.1828 38.568C45.8712 38.568 46.5789 38.3938 47.164 38.0027C47.7549 37.6077 48.3188 36.903 48.3188 35.936H45.1188C45.1188 35.7664 45.1701 35.6165 45.2377 35.5068C45.3008 35.4042 45.365 35.3562 45.3857 35.3423C45.4188 35.3202 45.3584 35.368 45.1828 35.368V38.568ZM48.3188 35.936C48.3188 35.3169 48.078 34.6858 47.5546 34.2293C47.0519 33.7907 46.4367 33.64 45.8908 33.64V36.84C45.873 36.84 45.6718 36.8333 45.4511 36.6407C45.2097 36.4302 45.1188 36.1471 45.1188 35.936H48.3188ZM45.8908 33.64C45.1389 33.64 44.4116 33.8752 43.8395 34.2945C43.2866 34.6998 42.7188 35.4139 42.7188 36.38H45.9188C45.9188 36.5577 45.8643 36.6923 45.8175 36.7705C45.7729 36.845 45.7335 36.8738 45.7312 36.8755C45.7272 36.8784 45.7407 36.8681 45.7739 36.8575C45.8058 36.8473 45.846 36.84 45.8908 36.84V33.64ZM42.7188 36.38C42.7188 37.0835 43.0488 37.7295 43.6408 38.1343C44.1546 38.4856 44.7332 38.568 45.1828 38.568V35.368C45.0805 35.368 45.2271 35.3424 45.4469 35.4927C45.5696 35.5766 45.6999 35.707 45.7946 35.8885C45.8889 36.0691 45.9188 36.2446 45.9188 36.38H42.7188Z" fill="#563B00" mask="url(#path-6-outside-2_13084_7735)"/>
</svg>
