<svg width="70" height="70" viewBox="0 0 70 70" fill="none" xmlns="http://www.w3.org/2000/svg">
<path fill-rule="evenodd" clip-rule="evenodd" d="M48.0414 15.8684L66.788 32.1274C67.1712 32.4593 67.4762 32.8679 67.6845 33.3241C67.8928 33.7802 68 34.2745 68 34.7736C68 35.2728 67.8928 35.767 67.6845 36.2232C67.4762 36.6794 67.1712 37.0879 66.788 37.4199L48.0415 53.6788C47.5293 54.1231 46.8965 54.4137 46.2176 54.5114C45.5385 54.6092 44.8465 54.5091 44.2252 54.2251C43.6043 53.9413 43.0828 53.487 42.7194 52.9209C42.3564 52.3552 42.1651 51.7001 42.1652 51.0333V45.0562H34.4359C29.8237 45.0562 23.9707 46.3161 18.9253 48.6376C13.8109 50.9908 11.7698 51.5051 8.6746 55.1042C8.10985 55.7609 7.35127 57.0048 6.47434 57C5.59742 56.9951 4.82171 56.4389 4.54762 55.6183C3.73265 53.1785 2.99653 52.0223 3.00001 49.0573C3.00013 48.9543 3.0083 48.8514 3.02442 48.7496C4.50195 39.4255 9.25507 33.2742 15.4806 29.5127C21.6269 25.7991 29.0707 24.4911 35.9389 24.4911H42.1652V18.514C42.1652 17.5922 42.5309 16.7018 43.1917 16.0405C43.8535 15.3783 44.7578 15.0002 45.7077 15M48.0414 15.8684C47.3984 15.3112 46.5691 14.9998 45.7077 15L48.0414 15.8684Z" fill="#563B00"/>
<path d="M46.4894 14.6143L46.4898 14.6147L64.866 30.794C64.866 30.794 64.8661 30.7941 64.8661 30.7941C64.8662 30.7942 64.8663 30.7942 64.8664 30.7943C65.1339 31.0297 65.3473 31.3198 65.4932 31.6442C65.6392 31.9688 65.7145 32.3207 65.7145 32.6764C65.7145 33.0321 65.6392 33.3841 65.4932 33.7086C65.3472 34.0332 65.1337 34.3234 64.866 34.5588L46.4899 50.7381C46.4898 50.7381 46.4898 50.7382 46.4898 50.7382C46.132 51.0532 45.6908 51.2586 45.2183 51.3276C44.7456 51.3967 44.2638 51.3261 43.8309 51.1252L44.2518 50.2181L43.8308 51.1252C43.398 50.9243 43.0336 50.6024 42.7791 50.2L43.6243 49.6656L42.7791 50.2C42.5248 49.7978 42.3905 49.3314 42.3906 48.8561C42.3906 48.856 42.3906 48.8559 42.3906 48.8557V41.9084H33.8141C29.6349 41.9084 24.4881 42.9387 19.8152 44.8534C15.1251 46.7752 11.0521 49.53 8.86812 52.8788C8.37065 53.6416 7.50402 53.9369 6.767 53.8858C6.02051 53.834 5.14874 53.3938 4.88111 52.4092C4.395 50.6209 3.99795 48.6734 4.00001 46.891C4.00007 46.8397 4.00407 46.7885 4.01197 46.7379C5.41483 37.7507 9.90287 31.8842 15.7566 28.2938C21.5715 24.7271 28.6664 23.4444 35.2875 23.4444H42.3906V16.4967C42.3906 15.8396 42.6475 15.2063 43.1095 14.7369C43.572 14.267 44.2026 14.0001 44.8635 14L46.4894 14.6143ZM46.4894 14.6143C46.0403 14.2193 45.4633 13.9998 44.864 14L46.4894 14.6143Z" fill="#FFFF00" stroke="#563B00" stroke-width="2" stroke-linejoin="round"/>
<mask id="path-3-outside-1_13084_7750" maskUnits="userSpaceOnUse" x="11" y="19" width="40" height="29" fill="black">
<rect fill="white" x="11" y="19" width="40" height="29"/>
<path d="M16.108 31.036C14.8 31.036 13.168 30.664 13.168 29.32C13.168 28.564 13.552 28.18 14.464 28.18C15.028 28.18 15.76 28.348 16.216 28.348C16.732 28.348 16.972 28.168 16.972 27.916C16.972 27.604 16.684 27.484 15.748 27.268C14.056 26.92 13.396 26.32 13.396 25.12C13.396 22.9 15.772 22.168 17.416 22.168C18.88 22.168 19.84 22.684 19.84 23.656C19.84 24.412 19.372 24.928 18.376 24.928C17.848 24.928 17.008 24.784 16.516 24.784C15.976 24.784 15.712 24.928 15.712 25.228C15.712 25.492 15.904 25.66 16.912 25.936C18.916 26.452 19.576 27.22 19.576 28.396C19.576 29.968 18.172 31.036 16.108 31.036ZM22.1078 21.496C22.8998 21.496 23.1638 21.976 23.1638 22.9C23.1638 23.524 23.0798 24.388 22.9478 25.06C23.4518 24.328 24.2198 23.836 25.0478 23.836C25.8998 23.836 26.5718 24.244 27.0038 25.108C27.3638 25.84 27.5318 26.944 27.5318 27.856C27.5318 30.088 26.8958 30.88 25.9718 30.88C25.2278 30.88 24.8438 30.388 24.8438 29.44C24.8438 28.708 24.9758 27.892 24.9758 27.244C24.9758 26.452 24.6878 26.056 24.2198 26.056C23.6438 26.056 23.2478 26.632 23.2478 27.592C23.2478 28.18 23.3798 28.78 23.3798 29.536C23.3798 30.664 22.8518 31.108 22.1438 31.108C21.4118 31.108 20.9198 30.868 20.7038 29.476C20.5118 28.312 20.3678 26.152 20.3678 24.88C20.3678 22.528 20.9798 21.496 22.1078 21.496ZM33.8945 31.12C33.1745 31.12 32.9225 30.82 32.8745 30.136C32.3945 30.808 31.6145 31.156 30.5465 31.156C28.8545 31.156 28.0625 30.172 28.0625 28.996C28.0625 27.664 29.1185 26.812 30.7385 26.812C31.5425 26.812 32.1785 27.016 32.6705 27.376C32.5745 26.236 32.0705 25.792 31.2185 25.792C30.5345 25.792 29.8385 26.212 29.1545 26.212C28.5785 26.212 28.2425 25.864 28.2425 25.348C28.2425 24.304 29.7665 23.488 31.5305 23.488C33.0185 23.488 34.1825 24.076 34.6505 25.288C35.0105 26.212 35.1665 27.364 35.1665 28.66C35.1665 30.604 34.7825 31.12 33.8945 31.12ZM31.4585 29.464C32.0225 29.464 32.7065 29.212 32.7065 28.708C32.7065 28.252 32.1665 28.048 31.5665 28.048C30.8705 28.048 30.4385 28.36 30.4385 28.78C30.4385 29.2 30.8225 29.464 31.4585 29.464ZM35.8834 25.924C35.8834 24.148 36.3274 23.416 37.0834 23.416C37.8034 23.416 38.1034 24.172 38.1514 24.892C38.4394 24.1 38.9794 23.464 39.7234 23.464C40.7434 23.464 41.2114 24.376 41.2114 25.576C41.2114 27.184 40.6954 27.736 39.9274 27.736C39.3394 27.736 39.0634 27.4 39.1234 26.62C39.1594 25.972 39.0514 25.768 38.8474 25.768C38.5834 25.768 38.4274 26.128 38.4274 26.644C38.4274 27.292 38.8114 28.744 38.8114 29.692C38.8114 30.652 38.3554 31.024 37.5874 31.024C36.8314 31.024 36.3754 30.652 36.1954 29.74C36.0274 28.828 35.8834 27.052 35.8834 25.924ZM45.4999 31.096C42.6319 31.096 41.5879 29.848 41.5879 27.784C41.5879 25.18 43.3159 23.656 45.6919 23.656C47.5639 23.656 48.4039 24.508 48.4039 25.744C48.4039 27.232 47.1079 28.156 45.2479 28.156C44.7439 28.156 44.2639 28.084 43.8559 27.952C43.9279 28.648 44.4919 28.912 45.4279 28.912C46.7719 28.912 47.3839 28.372 48.0079 28.372C48.4039 28.372 48.8959 28.66 48.8959 29.344C48.8959 30.328 47.7199 31.096 45.4999 31.096ZM44.8039 26.968C45.6679 26.968 46.3399 26.524 46.3399 25.936C46.3399 25.528 46.0399 25.24 45.5119 25.24C44.6599 25.24 43.9399 25.78 43.9399 26.38C43.9399 26.752 44.2519 26.968 44.8039 26.968ZM19.1823 37.18C20.3343 37.18 21.1023 37.288 21.6183 37.492C22.3503 37.792 22.5543 38.284 22.5543 38.908C22.5543 39.748 22.0743 40.312 21.1263 40.312C20.7063 40.312 20.2503 40.24 19.7703 40.108C20.2263 41.416 20.5023 43.228 20.5023 44.152C20.5023 45.4 20.0463 46.084 18.9183 46.084C17.8983 46.084 17.3943 45.496 17.3943 44.296C17.3943 43.168 17.8143 41.332 18.3063 40.132C17.8743 40.264 17.2983 40.36 16.9263 40.36C15.8943 40.36 15.5103 39.904 15.5103 39.136C15.5103 38.464 15.8223 37.948 16.5183 37.6C17.1063 37.312 17.9463 37.18 19.1823 37.18ZM25.8955 46.036C23.7955 46.036 22.4395 44.692 22.4395 42.508C22.4395 40.24 23.8195 38.704 25.9315 38.704C28.1635 38.704 29.6155 40.192 29.6155 42.388C29.6155 44.644 28.1515 46.036 25.8955 46.036ZM26.0635 43.78C26.7835 43.78 27.2515 43.18 27.2515 42.244C27.2515 41.308 26.7835 40.708 26.0635 40.708C25.3315 40.708 24.8755 41.308 24.8755 42.244C24.8755 43.18 25.3315 43.78 26.0635 43.78Z"/>
</mask>
<path d="M16.108 31.036C14.8 31.036 13.168 30.664 13.168 29.32C13.168 28.564 13.552 28.18 14.464 28.18C15.028 28.18 15.76 28.348 16.216 28.348C16.732 28.348 16.972 28.168 16.972 27.916C16.972 27.604 16.684 27.484 15.748 27.268C14.056 26.92 13.396 26.32 13.396 25.12C13.396 22.9 15.772 22.168 17.416 22.168C18.88 22.168 19.84 22.684 19.84 23.656C19.84 24.412 19.372 24.928 18.376 24.928C17.848 24.928 17.008 24.784 16.516 24.784C15.976 24.784 15.712 24.928 15.712 25.228C15.712 25.492 15.904 25.66 16.912 25.936C18.916 26.452 19.576 27.22 19.576 28.396C19.576 29.968 18.172 31.036 16.108 31.036ZM22.1078 21.496C22.8998 21.496 23.1638 21.976 23.1638 22.9C23.1638 23.524 23.0798 24.388 22.9478 25.06C23.4518 24.328 24.2198 23.836 25.0478 23.836C25.8998 23.836 26.5718 24.244 27.0038 25.108C27.3638 25.84 27.5318 26.944 27.5318 27.856C27.5318 30.088 26.8958 30.88 25.9718 30.88C25.2278 30.88 24.8438 30.388 24.8438 29.44C24.8438 28.708 24.9758 27.892 24.9758 27.244C24.9758 26.452 24.6878 26.056 24.2198 26.056C23.6438 26.056 23.2478 26.632 23.2478 27.592C23.2478 28.18 23.3798 28.78 23.3798 29.536C23.3798 30.664 22.8518 31.108 22.1438 31.108C21.4118 31.108 20.9198 30.868 20.7038 29.476C20.5118 28.312 20.3678 26.152 20.3678 24.88C20.3678 22.528 20.9798 21.496 22.1078 21.496ZM33.8945 31.12C33.1745 31.12 32.9225 30.82 32.8745 30.136C32.3945 30.808 31.6145 31.156 30.5465 31.156C28.8545 31.156 28.0625 30.172 28.0625 28.996C28.0625 27.664 29.1185 26.812 30.7385 26.812C31.5425 26.812 32.1785 27.016 32.6705 27.376C32.5745 26.236 32.0705 25.792 31.2185 25.792C30.5345 25.792 29.8385 26.212 29.1545 26.212C28.5785 26.212 28.2425 25.864 28.2425 25.348C28.2425 24.304 29.7665 23.488 31.5305 23.488C33.0185 23.488 34.1825 24.076 34.6505 25.288C35.0105 26.212 35.1665 27.364 35.1665 28.66C35.1665 30.604 34.7825 31.12 33.8945 31.12ZM31.4585 29.464C32.0225 29.464 32.7065 29.212 32.7065 28.708C32.7065 28.252 32.1665 28.048 31.5665 28.048C30.8705 28.048 30.4385 28.36 30.4385 28.78C30.4385 29.2 30.8225 29.464 31.4585 29.464ZM35.8834 25.924C35.8834 24.148 36.3274 23.416 37.0834 23.416C37.8034 23.416 38.1034 24.172 38.1514 24.892C38.4394 24.1 38.9794 23.464 39.7234 23.464C40.7434 23.464 41.2114 24.376 41.2114 25.576C41.2114 27.184 40.6954 27.736 39.9274 27.736C39.3394 27.736 39.0634 27.4 39.1234 26.62C39.1594 25.972 39.0514 25.768 38.8474 25.768C38.5834 25.768 38.4274 26.128 38.4274 26.644C38.4274 27.292 38.8114 28.744 38.8114 29.692C38.8114 30.652 38.3554 31.024 37.5874 31.024C36.8314 31.024 36.3754 30.652 36.1954 29.74C36.0274 28.828 35.8834 27.052 35.8834 25.924ZM45.4999 31.096C42.6319 31.096 41.5879 29.848 41.5879 27.784C41.5879 25.18 43.3159 23.656 45.6919 23.656C47.5639 23.656 48.4039 24.508 48.4039 25.744C48.4039 27.232 47.1079 28.156 45.2479 28.156C44.7439 28.156 44.2639 28.084 43.8559 27.952C43.9279 28.648 44.4919 28.912 45.4279 28.912C46.7719 28.912 47.3839 28.372 48.0079 28.372C48.4039 28.372 48.8959 28.66 48.8959 29.344C48.8959 30.328 47.7199 31.096 45.4999 31.096ZM44.8039 26.968C45.6679 26.968 46.3399 26.524 46.3399 25.936C46.3399 25.528 46.0399 25.24 45.5119 25.24C44.6599 25.24 43.9399 25.78 43.9399 26.38C43.9399 26.752 44.2519 26.968 44.8039 26.968ZM19.1823 37.18C20.3343 37.18 21.1023 37.288 21.6183 37.492C22.3503 37.792 22.5543 38.284 22.5543 38.908C22.5543 39.748 22.0743 40.312 21.1263 40.312C20.7063 40.312 20.2503 40.24 19.7703 40.108C20.2263 41.416 20.5023 43.228 20.5023 44.152C20.5023 45.4 20.0463 46.084 18.9183 46.084C17.8983 46.084 17.3943 45.496 17.3943 44.296C17.3943 43.168 17.8143 41.332 18.3063 40.132C17.8743 40.264 17.2983 40.36 16.9263 40.36C15.8943 40.36 15.5103 39.904 15.5103 39.136C15.5103 38.464 15.8223 37.948 16.5183 37.6C17.1063 37.312 17.9463 37.18 19.1823 37.18ZM25.8955 46.036C23.7955 46.036 22.4395 44.692 22.4395 42.508C22.4395 40.24 23.8195 38.704 25.9315 38.704C28.1635 38.704 29.6155 40.192 29.6155 42.388C29.6155 44.644 28.1515 46.036 25.8955 46.036ZM26.0635 43.78C26.7835 43.78 27.2515 43.18 27.2515 42.244C27.2515 41.308 26.7835 40.708 26.0635 40.708C25.3315 40.708 24.8755 41.308 24.8755 42.244C24.8755 43.18 25.3315 43.78 26.0635 43.78Z" fill="#563B00"/>
<path d="M15.748 27.268L16.1078 25.709L16.0891 25.7047L16.0703 25.7008L15.748 27.268ZM16.912 25.936L16.4895 27.4792L16.5012 27.4824L16.513 27.4855L16.912 25.936ZM16.108 29.436C15.5621 29.436 15.0874 29.3523 14.8122 29.2266C14.6873 29.1696 14.6795 29.1381 14.7083 29.1752C14.7247 29.1965 14.743 29.2276 14.7556 29.2647C14.7681 29.3015 14.768 29.3235 14.768 29.32H11.568C11.568 30.8259 12.558 31.715 13.4828 32.1374C14.3506 32.5337 15.3459 32.636 16.108 32.636V29.436ZM14.768 29.32C14.768 29.2604 14.7763 29.2839 14.751 29.3557C14.7215 29.4392 14.6586 29.5522 14.549 29.6516C14.4437 29.7471 14.35 29.7805 14.3239 29.788C14.3048 29.7936 14.3418 29.78 14.464 29.78V26.58C13.8264 26.58 13.0314 26.7077 12.399 27.2814C11.7324 27.8861 11.568 28.6873 11.568 29.32H14.768ZM14.464 29.78C14.6199 29.78 14.8364 29.805 15.166 29.8496C15.4254 29.8846 15.8533 29.948 16.216 29.948V26.748C16.1227 26.748 15.9566 26.7274 15.595 26.6784C15.3036 26.639 14.8721 26.58 14.464 26.58V29.78ZM16.216 29.948C16.6228 29.948 17.1475 29.8832 17.6251 29.5897C18.1835 29.2466 18.572 28.6433 18.572 27.916H15.372C15.372 27.7164 15.4222 27.4928 15.5449 27.2827C15.6656 27.0761 15.8212 26.9423 15.9499 26.8633C16.1785 26.7228 16.3252 26.748 16.216 26.748V29.948ZM18.572 27.916C18.572 27.5704 18.4849 27.1638 18.216 26.7859C17.9699 26.4399 17.6586 26.2427 17.4356 26.1295C17.0411 25.9291 16.5357 25.8077 16.1078 25.709L15.3882 28.827C15.6137 28.8791 15.771 28.9187 15.884 28.9519C16.005 28.9873 16.0204 28.9998 15.9864 28.9825C15.9524 28.9653 15.7716 28.8701 15.6087 28.6411C15.4231 28.3802 15.372 28.1056 15.372 27.916H18.572ZM16.0703 25.7008C15.3102 25.5445 15.0689 25.3799 15.0159 25.3315C15.0083 25.3246 15.0096 25.3244 15.014 25.331C15.0186 25.3376 15.0203 25.3422 15.0196 25.3404C15.0178 25.3356 14.996 25.2761 14.996 25.12H11.796C11.796 26.0476 12.0697 26.9752 12.8591 27.6955C13.5591 28.3341 14.4938 28.6435 15.4257 28.8352L16.0703 25.7008ZM14.996 25.12C14.996 24.7089 15.1639 24.4423 15.5881 24.198C16.078 23.9158 16.7857 23.768 17.416 23.768V20.568C16.4023 20.568 15.1 20.7862 13.9909 21.425C12.8161 22.1017 11.796 23.3111 11.796 25.12H14.996ZM17.416 23.768C17.6912 23.768 17.9106 23.7925 18.0763 23.8281C18.2443 23.8642 18.331 23.906 18.3617 23.9242C18.388 23.9398 18.3469 23.9217 18.3012 23.8466C18.2513 23.7648 18.24 23.6877 18.24 23.656H21.44C21.44 22.5339 20.8375 21.6713 19.9923 21.1708C19.2272 20.7177 18.2992 20.568 17.416 20.568V23.768ZM18.24 23.656C18.24 23.6816 18.236 23.6566 18.2578 23.5998C18.2816 23.5378 18.3266 23.4643 18.3947 23.4012C18.538 23.2687 18.6114 23.328 18.376 23.328V26.528C19.1366 26.528 19.942 26.3293 20.5683 25.7498C21.2102 25.1557 21.44 24.3692 21.44 23.656H18.24ZM18.376 23.328C18.2153 23.328 17.9673 23.304 17.6022 23.265C17.3005 23.2328 16.8674 23.184 16.516 23.184V26.384C16.6566 26.384 16.8895 26.4072 17.2628 26.447C17.5727 26.48 18.0087 26.528 18.376 26.528V23.328ZM16.516 23.184C16.1594 23.184 15.6304 23.2218 15.1398 23.4919C14.8681 23.6415 14.5898 23.873 14.3873 24.213C14.184 24.5539 14.112 24.9118 14.112 25.228H17.312C17.312 25.3942 17.273 25.6216 17.1361 25.8512C16.9999 26.0797 16.8214 26.219 16.6832 26.2951C16.4596 26.4182 16.3326 26.384 16.516 26.384V23.184ZM14.112 25.228C14.112 25.5016 14.1654 25.8611 14.3798 26.2244C14.5829 26.5686 14.8566 26.7899 15.0818 26.9317C15.4788 27.1815 15.9908 27.3427 16.4895 27.4792L17.3345 24.3928C17.1053 24.33 16.9519 24.2813 16.851 24.2442C16.743 24.2045 16.7402 24.1944 16.7862 24.2233C16.8374 24.2556 17.0001 24.3682 17.1357 24.598C17.2826 24.8469 17.312 25.0864 17.312 25.228H14.112ZM16.513 27.4855C17.4113 27.7167 17.7595 27.9485 17.8808 28.0663C17.9268 28.1109 17.9386 28.1372 17.9457 28.156C17.9557 28.1823 17.976 28.2512 17.976 28.396H21.176C21.176 27.4654 20.8949 26.5328 20.1102 25.7707C19.4005 25.0815 18.4167 24.6713 17.311 24.3865L16.513 27.4855ZM17.976 28.396C17.976 28.6549 17.8808 28.8544 17.647 29.0323C17.3806 29.235 16.8801 29.436 16.108 29.436V32.636C17.3999 32.636 18.6334 32.303 19.585 31.5787C20.5692 30.8296 21.176 29.7091 21.176 28.396H17.976ZM22.9478 25.06L21.3778 24.7516L24.2656 25.9674L22.9478 25.06ZM27.0038 25.108L28.4396 24.4019L28.4349 24.3925L27.0038 25.108ZM20.7038 29.476L22.2849 29.2307L22.2837 29.2231L22.2825 29.2156L20.7038 29.476ZM22.1078 23.096C22.1503 23.096 22.0845 23.1032 21.9667 23.0518C21.8316 22.9928 21.7076 22.8912 21.6224 22.7696C21.5483 22.6639 21.5388 22.5935 21.545 22.623C21.5515 22.6534 21.5638 22.7376 21.5638 22.9H24.7638C24.7638 22.3579 24.7014 21.5874 24.2432 20.9334C23.6909 20.1452 22.8512 19.896 22.1078 19.896V23.096ZM21.5638 22.9C21.5638 23.4164 21.4907 24.1772 21.3778 24.7516L24.5178 25.3684C24.669 24.5988 24.7638 23.6316 24.7638 22.9H21.5638ZM24.2656 25.9674C24.5506 25.5535 24.8725 25.436 25.0478 25.436V22.236C23.5672 22.236 22.3531 23.1024 21.63 24.1526L24.2656 25.9674ZM25.0478 25.436C25.2094 25.436 25.2828 25.4714 25.3215 25.4961C25.3643 25.5234 25.4614 25.601 25.5727 25.8235L28.4349 24.3925C28.1142 23.751 27.6593 23.1926 27.0451 22.7999C26.4268 22.4046 25.7382 22.236 25.0478 22.236V25.436ZM25.5681 25.8141C25.7771 26.2391 25.9318 27.0682 25.9318 27.856H29.1318C29.1318 26.8198 28.9506 25.4409 28.4396 24.4019L25.5681 25.8141ZM25.9318 27.856C25.9318 28.8737 25.7774 29.2926 25.7115 29.407C25.6931 29.4391 25.7164 29.387 25.8071 29.3347C25.8482 29.3111 25.8885 29.2961 25.9222 29.2879C25.9546 29.2799 25.973 29.28 25.9718 29.28V32.48C27.0014 32.48 27.9226 31.9804 28.4851 31.003C28.9683 30.1634 29.1318 29.0703 29.1318 27.856H25.9318ZM25.9718 29.28C25.9607 29.28 26.0209 29.2782 26.1179 29.3202C26.223 29.3658 26.3194 29.4407 26.3888 29.5294C26.4526 29.6109 26.4653 29.6674 26.4619 29.6545C26.4579 29.6392 26.4438 29.5737 26.4438 29.44H23.2438C23.2438 30.0905 23.3693 30.8633 23.8688 31.5016C24.4231 32.2099 25.2181 32.48 25.9718 32.48V29.28ZM26.4438 29.44C26.4438 29.1552 26.4698 28.8371 26.5037 28.4502C26.5347 28.0966 26.5758 27.653 26.5758 27.244H23.3758C23.3758 27.483 23.3509 27.7714 23.3159 28.1708C23.2838 28.5369 23.2438 28.9928 23.2438 29.44H26.4438ZM26.5758 27.244C26.5758 26.6934 26.4823 26.0385 26.1092 25.4725C25.6773 24.8171 24.9819 24.456 24.2198 24.456V27.656C24.1063 27.656 23.9481 27.6304 23.7824 27.542C23.6159 27.4532 23.5035 27.3338 23.4374 27.2335C23.3253 27.0635 23.3758 27.0026 23.3758 27.244H26.5758ZM24.2198 24.456C23.317 24.456 22.5992 24.9391 22.1749 25.5942C21.7828 26.1996 21.6478 26.9188 21.6478 27.592H24.8478C24.8478 27.3052 24.9109 27.2564 24.8607 27.3338C24.83 27.3812 24.7596 27.468 24.6319 27.5426C24.4991 27.6202 24.3523 27.656 24.2198 27.656V24.456ZM21.6478 27.592C21.6478 27.9868 21.6923 28.3762 21.7224 28.6662C21.755 28.9807 21.7798 29.2479 21.7798 29.536H24.9798C24.9798 29.0681 24.9386 28.6573 24.9053 28.3358C24.8694 27.9898 24.8478 27.7852 24.8478 27.592H21.6478ZM21.7798 29.536C21.7798 29.8752 21.6985 29.8338 21.8232 29.6914C21.8866 29.619 21.9672 29.5649 22.0446 29.5342C22.1153 29.5061 22.1556 29.508 22.1438 29.508V32.708C22.8418 32.708 23.6375 32.4774 24.2314 31.7986C24.7971 31.1522 24.9798 30.3248 24.9798 29.536H21.7798ZM22.1438 29.508C22.0373 29.508 22.0366 29.4977 22.0864 29.5122C22.1158 29.5207 22.1592 29.5367 22.209 29.5648C22.2597 29.5934 22.3055 29.628 22.3437 29.6649C22.4206 29.7394 22.4269 29.7845 22.4011 29.7203C22.3731 29.6509 22.3271 29.5024 22.2849 29.2307L19.1227 29.7213C19.247 30.522 19.4943 31.3598 20.1169 31.9631C20.8044 32.6292 21.6269 32.708 22.1438 32.708V29.508ZM22.2825 29.2156C22.1082 28.159 21.9678 26.0894 21.9678 24.88H18.7678C18.7678 26.2146 18.9154 28.465 19.1251 29.7364L22.2825 29.2156ZM21.9678 24.88C21.9678 23.7881 22.1192 23.2605 22.227 23.0581C22.2672 22.9826 22.2697 23.0127 22.2013 23.055C22.129 23.0997 22.0783 23.096 22.1078 23.096V19.896C21.5733 19.896 21.0231 20.0213 20.5189 20.333C20.0185 20.6423 19.6564 21.0774 19.4026 21.5539C18.9224 22.4555 18.7678 23.6199 18.7678 24.88H21.9678ZM32.8745 30.136L34.4706 30.024L34.1591 25.5849L31.5726 29.206L32.8745 30.136ZM32.6705 27.376L31.7257 28.6672L34.5595 30.7408L34.2649 27.2417L32.6705 27.376ZM34.6505 25.288L33.1579 25.8643L33.1597 25.8688L34.6505 25.288ZM33.8945 29.52C33.7161 29.52 33.9905 29.4771 34.2692 29.7585C34.3965 29.8869 34.451 30.0132 34.4701 30.0703C34.4859 30.1174 34.477 30.1149 34.4706 30.024L31.2785 30.248C31.3108 30.7084 31.4263 31.4356 31.9959 32.0105C32.5925 32.6129 33.3529 32.72 33.8945 32.72V29.52ZM31.5726 29.206C31.4724 29.3462 31.2518 29.556 30.5465 29.556V32.756C31.9773 32.756 33.3166 32.2698 34.1765 31.066L31.5726 29.206ZM30.5465 29.556C30.0122 29.556 29.8236 29.4065 29.7779 29.3626C29.7318 29.3184 29.6625 29.2213 29.6625 28.996H26.4625C26.4625 29.9467 26.7892 30.9296 27.5622 31.6714C28.3354 32.4135 29.3888 32.756 30.5465 32.756V29.556ZM29.6625 28.996C29.6625 28.7913 29.7251 28.7088 29.8027 28.6457C29.9136 28.5555 30.1941 28.412 30.7385 28.412V25.212C29.6629 25.212 28.6055 25.4945 27.7833 26.1633C26.928 26.8592 26.4625 27.8687 26.4625 28.996H29.6625ZM30.7385 28.412C31.2616 28.412 31.5518 28.54 31.7257 28.6672L33.6153 26.0848C32.8052 25.492 31.8234 25.212 30.7385 25.212V28.412ZM34.2649 27.2417C34.2015 26.4896 33.9839 25.6723 33.3797 25.0458C32.7402 24.3827 31.9229 24.192 31.2185 24.192V27.392C31.2966 27.392 31.3004 27.4026 31.2593 27.3881C31.2375 27.3804 31.2067 27.3669 31.1718 27.3449C31.1366 27.3226 31.1041 27.2959 31.0764 27.2672C31.019 27.2077 31.0098 27.1686 31.0208 27.1985C31.0337 27.2335 31.0608 27.3281 31.0762 27.5103L34.2649 27.2417ZM31.2185 24.192C30.5955 24.192 30.0164 24.3813 29.7207 24.4713C29.3264 24.5913 29.2155 24.612 29.1545 24.612V27.812C29.7775 27.812 30.3567 27.6227 30.6524 27.5327C31.0467 27.4127 31.1575 27.392 31.2185 27.392V24.192ZM29.1545 24.612C29.1903 24.612 29.3943 24.6286 29.5972 24.8257C29.8034 25.0259 29.8425 25.2516 29.8425 25.348H26.6425C26.6425 25.9604 26.8497 26.6181 27.3678 27.1213C27.8828 27.6214 28.5427 27.812 29.1545 27.812V24.612ZM29.8425 25.348C29.8425 25.6734 29.6227 25.6361 30.0027 25.4248C30.3281 25.2438 30.8733 25.088 31.5305 25.088V21.888C30.4237 21.888 29.325 22.1402 28.4474 22.6282C27.6244 23.0859 26.6425 23.9786 26.6425 25.348H29.8425ZM31.5305 25.088C32.6127 25.088 33.0085 25.4773 33.1579 25.8643L36.1431 24.7117C35.3566 22.6747 33.4244 21.888 31.5305 21.888V25.088ZM33.1597 25.8688C33.4205 26.5381 33.5665 27.4711 33.5665 28.66H36.7665C36.7665 27.2569 36.6006 25.8859 36.1414 24.7072L33.1597 25.8688ZM33.5665 28.66C33.5665 29.1013 33.5442 29.4088 33.5115 29.6194C33.4778 29.8369 33.4434 29.8805 33.4654 29.841C33.5039 29.7718 33.6023 29.6513 33.7645 29.5719C33.898 29.5065 33.9736 29.52 33.8945 29.52V32.72C34.2595 32.72 34.716 32.669 35.1714 32.4461C35.6553 32.2092 36.0161 31.8382 36.2617 31.397C36.6875 30.6317 36.7665 29.6415 36.7665 28.66H33.5665ZM31.4585 31.064C31.9423 31.064 32.5192 30.9622 33.0341 30.6935C33.5331 30.4332 34.3065 29.8099 34.3065 28.708H31.1065C31.1065 28.4445 31.2039 28.217 31.3242 28.0611C31.4301 27.9239 31.5315 27.8682 31.5539 27.8565C31.5811 27.8423 31.5809 27.8468 31.5483 27.854C31.5179 27.8607 31.4845 27.864 31.4585 27.864V31.064ZM34.3065 28.708C34.3065 27.7013 33.6556 27.0733 33.0933 26.7841C32.5766 26.5184 32.012 26.448 31.5665 26.448V29.648C31.7211 29.648 31.7265 29.6796 31.6298 29.6299C31.5706 29.5994 31.4376 29.5184 31.3148 29.348C31.1796 29.1605 31.1065 28.9318 31.1065 28.708H34.3065ZM31.5665 26.448C31.0009 26.448 30.3818 26.572 29.8517 26.9268C29.2885 27.3037 28.8385 27.9511 28.8385 28.78H32.0385C32.0385 28.9589 31.99 29.1381 31.8999 29.293C31.8128 29.4427 31.7076 29.5352 31.6314 29.5862C31.4912 29.68 31.4362 29.648 31.5665 29.648V26.448ZM28.8385 28.78C28.8385 29.5525 29.2248 30.2072 29.8147 30.6055C30.3431 30.9623 30.9481 31.064 31.4585 31.064V27.864C31.333 27.864 31.428 27.8337 31.6054 27.9535C31.704 28.02 31.8214 28.1305 31.9115 28.295C32.0031 28.462 32.0385 28.6339 32.0385 28.78H28.8385ZM38.1514 24.892L36.555 24.9984L39.6551 25.4388L38.1514 24.892ZM39.1234 26.62L40.7187 26.7427L40.72 26.7257L40.721 26.7088L39.1234 26.62ZM36.1954 29.74L34.6219 30.0299L34.6238 30.0398L34.6257 30.0498L36.1954 29.74ZM37.4834 25.924C37.4834 25.5422 37.5076 25.2558 37.5426 25.0477C37.5782 24.8353 37.6185 24.7443 37.6268 24.728C37.6312 24.7192 37.5861 24.8103 37.4504 24.8987C37.3066 24.9924 37.1642 25.016 37.0834 25.016V21.816C36.6246 21.816 36.1432 21.9311 35.7036 22.2175C35.272 22.4987 34.9741 22.8838 34.7731 23.28C34.3956 24.0241 34.2834 24.956 34.2834 25.924H37.4834ZM37.0834 25.016C36.9678 25.016 36.8244 24.9811 36.6934 24.8984C36.5739 24.8231 36.5191 24.7427 36.5053 24.7201C36.4926 24.6994 36.5039 24.7115 36.5201 24.7718C36.5355 24.8294 36.5489 24.907 36.555 24.9984L39.7479 24.7856C39.7141 24.2784 39.5882 23.6264 39.2336 23.0479C38.8419 22.4089 38.1224 21.816 37.0834 21.816V25.016ZM39.6551 25.4388C39.6963 25.3254 39.7416 25.2317 39.7854 25.1588C39.8296 25.0853 39.8656 25.044 39.8847 25.0253C39.903 25.0074 39.8971 25.0186 39.8619 25.0344C39.8225 25.0522 39.7722 25.064 39.7234 25.064V21.864C37.9335 21.864 37.0045 23.3641 36.6478 24.3452L39.6551 25.4388ZM39.7234 25.064C39.7325 25.064 39.6808 25.0638 39.6082 25.0233C39.5757 25.0053 39.5499 24.985 39.5314 24.9671C39.5134 24.9498 39.5061 24.9383 39.5065 24.939C39.5091 24.943 39.5377 24.9907 39.5649 25.1061C39.5917 25.2201 39.6114 25.3767 39.6114 25.576H42.8114C42.8114 24.804 42.6666 23.9326 42.1934 23.201C41.6668 22.3868 40.7992 21.864 39.7234 21.864V25.064ZM39.6114 25.576C39.6114 25.8979 39.5851 26.1149 39.5553 26.2522C39.5253 26.3902 39.4996 26.4114 39.5243 26.3742C39.5572 26.3247 39.6307 26.2455 39.7462 26.1888C39.8529 26.1363 39.9282 26.136 39.9274 26.136V29.336C40.7588 29.336 41.6231 28.9987 42.1905 28.1438C42.6741 27.4152 42.8114 26.4958 42.8114 25.576H39.6114ZM39.9274 26.136C39.9292 26.136 39.9504 26.1361 39.9869 26.1422C40.0238 26.1484 40.0796 26.1614 40.1471 26.1888C40.2957 26.2491 40.4495 26.3586 40.5662 26.5156C40.675 26.6619 40.7059 26.7874 40.7134 26.8269C40.72 26.8622 40.711 26.8427 40.7187 26.7427L37.5282 26.4973C37.4872 27.0296 37.5206 27.7827 37.9986 28.4254C38.5404 29.1537 39.3337 29.336 39.9274 29.336V26.136ZM40.721 26.7088C40.7408 26.3525 40.7451 25.8608 40.5791 25.4042C40.4854 25.1464 40.3043 24.8072 39.9536 24.539C39.585 24.2572 39.1792 24.168 38.8474 24.168V27.368C38.6176 27.368 38.3018 27.3043 38.0098 27.081C37.7355 26.8713 37.6175 26.6236 37.5718 26.4978C37.5279 26.3773 37.5266 26.3056 37.5286 26.3329C37.5301 26.3524 37.5325 26.4132 37.5259 26.5312L40.721 26.7088ZM38.8474 24.168C37.8352 24.168 37.2927 24.8979 37.0882 25.3367C36.8814 25.7804 36.8274 26.2568 36.8274 26.644H40.0274C40.0274 26.5152 40.0515 26.5536 39.9887 26.6883C39.9542 26.7623 39.8658 26.9235 39.676 27.0768C39.4652 27.2472 39.1749 27.368 38.8474 27.368V24.168ZM36.8274 26.644C36.8274 27.1429 36.9623 27.856 37.0422 28.3247C37.1428 28.9137 37.2114 29.3775 37.2114 29.692H40.4114C40.4114 29.0585 40.2881 28.3222 40.1966 27.7863C40.0846 27.13 40.0274 26.7931 40.0274 26.644H36.8274ZM37.2114 29.692C37.2114 29.9466 37.1496 29.796 37.3481 29.5947C37.4419 29.4995 37.5402 29.4517 37.6001 29.4319C37.6509 29.415 37.6559 29.424 37.5874 29.424V32.624C38.2062 32.624 39.0031 32.474 39.6268 31.8413C40.2453 31.214 40.4114 30.3974 40.4114 29.692H37.2114ZM37.5874 29.424C37.527 29.424 37.5285 29.4163 37.5687 29.4293C37.5896 29.436 37.6181 29.4475 37.6507 29.466C37.6835 29.4845 37.715 29.5071 37.7432 29.5324C37.8021 29.5852 37.8222 29.6272 37.8195 29.6217C37.8147 29.6118 37.7901 29.5564 37.7652 29.4302L34.6257 30.0498C34.7534 30.6966 35.0237 31.3923 35.6077 31.9156C36.2153 32.4601 36.9434 32.624 37.5874 32.624V29.424ZM37.769 29.4501C37.6221 28.6531 37.4834 26.9767 37.4834 25.924H34.2834C34.2834 27.1273 34.4327 29.0029 34.6219 30.0299L37.769 29.4501ZM43.8559 27.952L44.3484 26.4297L42.0117 25.6737L42.2644 28.1166L43.8559 27.952ZM45.4999 29.496C44.2587 29.496 43.7518 29.2206 43.5518 29.0366C43.3812 28.8796 43.1879 28.5621 43.1879 27.784H39.9879C39.9879 29.0699 40.3167 30.4084 41.3851 31.3914C42.4241 32.3474 43.8732 32.696 45.4999 32.696V29.496ZM43.1879 27.784C43.1879 26.8488 43.4889 26.2544 43.8624 25.8925C44.2445 25.5222 44.8468 25.256 45.6919 25.256V22.056C44.1611 22.056 42.7114 22.5518 41.6354 23.5945C40.5509 24.6456 39.9879 26.1152 39.9879 27.784H43.1879ZM45.6919 25.256C46.4118 25.256 46.6736 25.4226 46.7297 25.4691C46.7416 25.4789 46.8039 25.5115 46.8039 25.744H50.0039C50.0039 24.7405 49.6463 23.7291 48.7701 23.0039C47.9382 22.3154 46.844 22.056 45.6919 22.056V25.256ZM46.8039 25.744C46.8039 25.9679 46.7305 26.1028 46.564 26.2276C46.3554 26.3838 45.9329 26.556 45.2479 26.556V29.756C46.423 29.756 47.5784 29.4661 48.4829 28.7884C49.4294 28.0792 50.0039 27.0081 50.0039 25.744H46.8039ZM45.2479 26.556C44.8887 26.556 44.5773 26.5037 44.3484 26.4297L43.3634 29.4743C43.9506 29.6643 44.5992 29.756 45.2479 29.756V26.556ZM42.2644 28.1166C42.3503 28.9469 42.7832 29.6576 43.5224 30.0812C44.1487 30.4401 44.8571 30.512 45.4279 30.512V27.312C45.2644 27.312 45.1592 27.3001 45.0991 27.2886C45.0381 27.2768 45.0555 27.2716 45.1134 27.3048C45.181 27.3435 45.2759 27.4193 45.3522 27.5398C45.4267 27.6575 45.4442 27.7556 45.4474 27.7874L42.2644 28.1166ZM45.4279 30.512C46.3368 30.512 47.0085 30.3242 47.5007 30.1576C47.7889 30.0601 47.8523 30.031 47.997 29.9869C48.0969 29.9564 48.0794 29.972 48.0079 29.972V26.772C47.6245 26.772 47.2964 26.8551 47.0642 26.9259C46.8766 26.983 46.586 27.0889 46.4751 27.1264C46.1694 27.2298 45.8631 27.312 45.4279 27.312V30.512ZM48.0079 29.972C47.8428 29.972 47.6695 29.9181 47.5216 29.7831C47.4421 29.7105 47.3798 29.6222 47.3402 29.529C47.3008 29.4364 47.2959 29.3675 47.2959 29.344H50.4959C50.4959 28.5852 50.2072 27.902 49.6793 27.4199C49.1863 26.9699 48.5691 26.772 48.0079 26.772V29.972ZM47.2959 29.344C47.2959 29.0905 47.4792 29.0659 47.2581 29.1878C47.0069 29.3262 46.4552 29.496 45.4999 29.496V32.696C46.7647 32.696 47.9109 32.4818 48.8028 31.9902C49.7247 31.4821 50.4959 30.5815 50.4959 29.344H47.2959ZM44.8039 28.568C45.4923 28.568 46.2 28.3938 46.7851 28.0027C47.3759 27.6077 47.9399 26.903 47.9399 25.936H44.7399C44.7399 25.7664 44.7912 25.6165 44.8588 25.5068C44.9219 25.4042 44.9861 25.3562 45.0067 25.3423C45.0398 25.3202 44.9795 25.368 44.8039 25.368V28.568ZM47.9399 25.936C47.9399 25.3169 47.6991 24.6858 47.1757 24.2293C46.6729 23.7907 46.0578 23.64 45.5119 23.64V26.84C45.4941 26.84 45.2929 26.8333 45.0721 26.6407C44.8308 26.4302 44.7399 26.1471 44.7399 25.936H47.9399ZM45.5119 23.64C44.76 23.64 44.0327 23.8752 43.4605 24.2945C42.9077 24.6998 42.3399 25.4139 42.3399 26.38H45.5399C45.5399 26.5577 45.4854 26.6923 45.4386 26.7705C45.394 26.845 45.3546 26.8738 45.3523 26.8755C45.3483 26.8784 45.3618 26.8681 45.395 26.8575C45.4269 26.8473 45.4671 26.84 45.5119 26.84V23.64ZM42.3399 26.38C42.3399 27.0835 42.6699 27.7295 43.2619 28.1343C43.7757 28.4856 44.3543 28.568 44.8039 28.568V25.368C44.7016 25.368 44.8482 25.3424 45.0679 25.4927C45.1907 25.5766 45.321 25.707 45.4157 25.8885C45.51 26.0691 45.5399 26.2446 45.5399 26.38H42.3399ZM21.6183 37.492L22.2251 36.0115L22.2159 36.0077L22.2066 36.0041L21.6183 37.492ZM19.7703 40.108L20.1946 38.5653L17.2564 37.7573L18.2595 40.6347L19.7703 40.108ZM18.3063 40.132L19.7867 40.739L21.0674 37.6153L17.8388 38.6018L18.3063 40.132ZM16.5183 37.6L15.8145 36.1631L15.8028 36.1689L16.5183 37.6ZM19.1823 38.78C20.2777 38.78 20.8005 38.8892 21.0301 38.9799L22.2066 36.0041C21.4042 35.6868 20.391 35.58 19.1823 35.58V38.78ZM21.0116 38.9725C21.0774 38.9995 21.0886 39.0133 21.0713 38.9994C21.0626 38.9924 21.0487 38.98 21.0327 38.9616C21.0165 38.9432 21.001 38.922 20.9873 38.8992C20.9588 38.8514 20.9498 38.8159 20.9486 38.8103C20.9482 38.8086 20.9543 38.8364 20.9543 38.908H24.1543C24.1543 38.4334 24.0787 37.8342 23.7344 37.2578C23.3774 36.6604 22.8375 36.2625 22.2251 36.0115L21.0116 38.9725ZM20.9543 38.908C20.9543 38.9678 20.9456 38.9782 20.9543 38.9535C20.9642 38.925 20.991 38.8692 21.0471 38.8113C21.1041 38.7524 21.1618 38.7221 21.194 38.7102C21.2216 38.7 21.2063 38.712 21.1263 38.712V41.912C21.9211 41.912 22.7347 41.6678 23.3446 41.0387C23.9455 40.4189 24.1543 39.6255 24.1543 38.908H20.9543ZM21.1263 38.712C20.8839 38.712 20.5738 38.6696 20.1946 38.5653L19.3461 41.6507C19.9269 41.8104 20.5288 41.912 21.1263 41.912V38.712ZM18.2595 40.6347C18.6585 41.779 18.9023 43.4132 18.9023 44.152H22.1023C22.1023 43.0428 21.7942 41.053 21.2812 39.5813L18.2595 40.6347ZM18.9023 44.152C18.9023 44.3727 18.8815 44.5117 18.862 44.5895C18.8431 44.6642 18.8335 44.651 18.8716 44.6021C18.8908 44.5775 18.9168 44.5509 18.9486 44.5268C18.9802 44.5028 19.0087 44.488 19.0281 44.48C19.0648 44.4647 19.0427 44.484 18.9183 44.484V47.684C19.8226 47.684 20.7539 47.3921 21.3951 46.5699C21.9718 45.8303 22.1023 44.9191 22.1023 44.152H18.9023ZM18.9183 44.484C18.8131 44.484 18.7943 44.4684 18.8279 44.4814C18.8458 44.4884 18.8736 44.5016 18.9056 44.524C18.9379 44.5466 18.967 44.5733 18.9908 44.6013C19.04 44.6589 19.0412 44.6906 19.0289 44.647C19.0153 44.5988 18.9943 44.4895 18.9943 44.296H15.7943C15.7943 45.0804 15.9531 45.9714 16.5569 46.6787C17.2032 47.436 18.0968 47.684 18.9183 47.684V44.484ZM18.9943 44.296C18.9943 43.425 19.3528 41.7974 19.7867 40.739L16.8259 39.525C16.2759 40.8666 15.7943 42.911 15.7943 44.296H18.9943ZM17.8388 38.6018C17.5238 38.6981 17.1075 38.76 16.9263 38.76V41.96C17.4892 41.96 18.2249 41.8299 18.7739 41.6622L17.8388 38.6018ZM16.9263 38.76C16.7801 38.76 16.7259 38.7431 16.7327 38.7452C16.7468 38.7495 16.8287 38.7782 16.9231 38.8663C17.0204 38.9572 17.0744 39.0583 17.0986 39.1284C17.1191 39.1877 17.1103 39.2005 17.1103 39.136H13.9103C13.9103 39.7686 14.0712 40.5818 14.7396 41.2057C15.3838 41.8069 16.2122 41.96 16.9263 41.96V38.76ZM17.1103 39.136C17.1103 39.092 17.1154 39.0758 17.1144 39.0793C17.113 39.0845 17.1081 39.0979 17.099 39.1121C17.0901 39.1259 17.087 39.1254 17.1021 39.1126C17.1186 39.0986 17.1581 39.069 17.2339 39.0311L15.8028 36.1689C15.2561 36.4423 14.76 36.8333 14.4077 37.3809C14.0516 37.9345 13.9103 38.5428 13.9103 39.136H17.1103ZM17.2221 39.0369C17.4723 38.9144 18.0098 38.78 19.1823 38.78V35.58C17.8829 35.58 16.7404 35.7096 15.8146 36.1631L17.2221 39.0369ZM25.8955 44.436C25.1928 44.436 24.767 44.2184 24.5184 43.9667C24.2682 43.7134 24.0395 43.2654 24.0395 42.508H20.8395C20.8395 43.9346 21.2888 45.2506 22.2416 46.2153C23.196 47.1816 24.4982 47.636 25.8955 47.636V44.436ZM24.0395 42.508C24.0395 41.6957 24.2834 41.1541 24.5755 40.8339C24.8547 40.5278 25.2843 40.304 25.9315 40.304V37.104C24.4667 37.104 23.1503 37.6482 22.2115 38.6771C21.2856 39.6919 20.8395 41.0523 20.8395 42.508H24.0395ZM25.9315 40.304C26.6828 40.304 27.1743 40.547 27.4752 40.8499C27.7778 41.1546 28.0155 41.6492 28.0155 42.388H31.2155C31.2155 40.9308 30.7272 39.5834 29.7458 38.5951C28.7627 37.605 27.4122 37.104 25.9315 37.104V40.304ZM28.0155 42.388C28.0155 43.1608 27.7732 43.6318 27.4862 43.9108C27.1936 44.1953 26.6934 44.436 25.8955 44.436V47.636C27.3536 47.636 28.7134 47.1807 29.7168 46.2052C30.7258 45.2242 31.2155 43.8712 31.2155 42.388H28.0155ZM26.0635 45.38C26.9149 45.38 27.68 45.0038 28.192 44.3433C28.6737 43.7219 28.8515 42.9605 28.8515 42.244H25.6515C25.6515 42.4635 25.5953 42.4701 25.663 42.3827C25.7002 42.3347 25.7627 42.2769 25.8507 42.2339C25.9389 42.1908 26.017 42.18 26.0635 42.18V45.38ZM28.8515 42.244C28.8515 41.5275 28.6737 40.7661 28.192 40.1447C27.68 39.4842 26.9149 39.108 26.0635 39.108V42.308C26.017 42.308 25.9389 42.2971 25.8507 42.2541C25.7627 42.2111 25.7002 42.1533 25.663 42.1053C25.5953 42.0179 25.6515 42.0245 25.6515 42.244H28.8515ZM26.0635 39.108C25.212 39.108 24.4421 39.4799 23.9271 40.1491C23.4459 40.7743 23.2755 41.5366 23.2755 42.244H26.4755C26.4755 42.0154 26.5331 42.0097 26.4629 42.1009C26.4239 42.1516 26.359 42.2114 26.269 42.2552C26.1794 42.2987 26.1031 42.308 26.0635 42.308V39.108ZM23.2755 42.244C23.2755 42.9514 23.4459 43.7137 23.9271 44.3389C24.4421 45.0081 25.212 45.38 26.0635 45.38V42.18C26.1031 42.18 26.1794 42.1892 26.269 42.2328C26.359 42.2766 26.4239 42.3364 26.4629 42.3871C26.5331 42.4783 26.4755 42.4726 26.4755 42.244H23.2755Z" fill="#563B00" mask="url(#path-3-outside-1_13084_7750)"/>
<path d="M40.5763 34.827L37.8495 31.3796C37.6598 31.1399 37.3709 31 37.0652 31H32C31.6174 31 31.2683 31.2184 31.1008 31.5624C30.9334 31.9065 30.977 32.3159 31.2131 32.617L36.7118 39.6296L31.5563 45.3292C31.2911 45.6224 31.2235 46.0443 31.3839 46.4057C31.5443 46.7671 31.9026 47 32.298 47H34.7114C34.9909 47 35.2577 46.883 35.4471 46.6773L39.1475 42.6577L42.2359 46.6152C42.4254 46.858 42.7162 47 43.0242 47H48C48.382 47 48.7306 46.7824 48.8984 46.4392C49.0662 46.096 49.0238 45.6873 48.7892 45.3858L43.0183 37.9707L47.8176 32.6713C48.083 32.3781 48.1508 31.9561 47.9905 31.5946C47.8301 31.2331 47.4718 31 47.0764 31H44.514C44.2331 31 43.9652 31.1181 43.7757 31.3255L40.5763 34.827Z" fill="#563B00" stroke="#563B00" stroke-width="2" stroke-linejoin="round"/>
<mask id="path-6-outside-2_13084_7750" maskUnits="userSpaceOnUse" x="11" y="17" width="40" height="29" fill="black">
<rect fill="white" x="11" y="17" width="40" height="29"/>
<path d="M16.108 29.036C14.8 29.036 13.168 28.664 13.168 27.32C13.168 26.564 13.552 26.18 14.464 26.18C15.028 26.18 15.76 26.348 16.216 26.348C16.732 26.348 16.972 26.168 16.972 25.916C16.972 25.604 16.684 25.484 15.748 25.268C14.056 24.92 13.396 24.32 13.396 23.12C13.396 20.9 15.772 20.168 17.416 20.168C18.88 20.168 19.84 20.684 19.84 21.656C19.84 22.412 19.372 22.928 18.376 22.928C17.848 22.928 17.008 22.784 16.516 22.784C15.976 22.784 15.712 22.928 15.712 23.228C15.712 23.492 15.904 23.66 16.912 23.936C18.916 24.452 19.576 25.22 19.576 26.396C19.576 27.968 18.172 29.036 16.108 29.036ZM22.1078 19.496C22.8998 19.496 23.1638 19.976 23.1638 20.9C23.1638 21.524 23.0798 22.388 22.9478 23.06C23.4518 22.328 24.2198 21.836 25.0478 21.836C25.8998 21.836 26.5718 22.244 27.0038 23.108C27.3638 23.84 27.5318 24.944 27.5318 25.856C27.5318 28.088 26.8958 28.88 25.9718 28.88C25.2278 28.88 24.8438 28.388 24.8438 27.44C24.8438 26.708 24.9758 25.892 24.9758 25.244C24.9758 24.452 24.6878 24.056 24.2198 24.056C23.6438 24.056 23.2478 24.632 23.2478 25.592C23.2478 26.18 23.3798 26.78 23.3798 27.536C23.3798 28.664 22.8518 29.108 22.1438 29.108C21.4118 29.108 20.9198 28.868 20.7038 27.476C20.5118 26.312 20.3678 24.152 20.3678 22.88C20.3678 20.528 20.9798 19.496 22.1078 19.496ZM33.8945 29.12C33.1745 29.12 32.9225 28.82 32.8745 28.136C32.3945 28.808 31.6145 29.156 30.5465 29.156C28.8545 29.156 28.0625 28.172 28.0625 26.996C28.0625 25.664 29.1185 24.812 30.7385 24.812C31.5425 24.812 32.1785 25.016 32.6705 25.376C32.5745 24.236 32.0705 23.792 31.2185 23.792C30.5345 23.792 29.8385 24.212 29.1545 24.212C28.5785 24.212 28.2425 23.864 28.2425 23.348C28.2425 22.304 29.7665 21.488 31.5305 21.488C33.0185 21.488 34.1825 22.076 34.6505 23.288C35.0105 24.212 35.1665 25.364 35.1665 26.66C35.1665 28.604 34.7825 29.12 33.8945 29.12ZM31.4585 27.464C32.0225 27.464 32.7065 27.212 32.7065 26.708C32.7065 26.252 32.1665 26.048 31.5665 26.048C30.8705 26.048 30.4385 26.36 30.4385 26.78C30.4385 27.2 30.8225 27.464 31.4585 27.464ZM35.8834 23.924C35.8834 22.148 36.3274 21.416 37.0834 21.416C37.8034 21.416 38.1034 22.172 38.1514 22.892C38.4394 22.1 38.9794 21.464 39.7234 21.464C40.7434 21.464 41.2114 22.376 41.2114 23.576C41.2114 25.184 40.6954 25.736 39.9274 25.736C39.3394 25.736 39.0634 25.4 39.1234 24.62C39.1594 23.972 39.0514 23.768 38.8474 23.768C38.5834 23.768 38.4274 24.128 38.4274 24.644C38.4274 25.292 38.8114 26.744 38.8114 27.692C38.8114 28.652 38.3554 29.024 37.5874 29.024C36.8314 29.024 36.3754 28.652 36.1954 27.74C36.0274 26.828 35.8834 25.052 35.8834 23.924ZM45.4999 29.096C42.6319 29.096 41.5879 27.848 41.5879 25.784C41.5879 23.18 43.3159 21.656 45.6919 21.656C47.5639 21.656 48.4039 22.508 48.4039 23.744C48.4039 25.232 47.1079 26.156 45.2479 26.156C44.7439 26.156 44.2639 26.084 43.8559 25.952C43.9279 26.648 44.4919 26.912 45.4279 26.912C46.7719 26.912 47.3839 26.372 48.0079 26.372C48.4039 26.372 48.8959 26.66 48.8959 27.344C48.8959 28.328 47.7199 29.096 45.4999 29.096ZM44.8039 24.968C45.6679 24.968 46.3399 24.524 46.3399 23.936C46.3399 23.528 46.0399 23.24 45.5119 23.24C44.6599 23.24 43.9399 23.78 43.9399 24.38C43.9399 24.752 44.2519 24.968 44.8039 24.968ZM19.1823 35.18C20.3343 35.18 21.1023 35.288 21.6183 35.492C22.3503 35.792 22.5543 36.284 22.5543 36.908C22.5543 37.748 22.0743 38.312 21.1263 38.312C20.7063 38.312 20.2503 38.24 19.7703 38.108C20.2263 39.416 20.5023 41.228 20.5023 42.152C20.5023 43.4 20.0463 44.084 18.9183 44.084C17.8983 44.084 17.3943 43.496 17.3943 42.296C17.3943 41.168 17.8143 39.332 18.3063 38.132C17.8743 38.264 17.2983 38.36 16.9263 38.36C15.8943 38.36 15.5103 37.904 15.5103 37.136C15.5103 36.464 15.8223 35.948 16.5183 35.6C17.1063 35.312 17.9463 35.18 19.1823 35.18ZM25.8955 44.036C23.7955 44.036 22.4395 42.692 22.4395 40.508C22.4395 38.24 23.8195 36.704 25.9315 36.704C28.1635 36.704 29.6155 38.192 29.6155 40.388C29.6155 42.644 28.1515 44.036 25.8955 44.036ZM26.0635 41.78C26.7835 41.78 27.2515 41.18 27.2515 40.244C27.2515 39.308 26.7835 38.708 26.0635 38.708C25.3315 38.708 24.8755 39.308 24.8755 40.244C24.8755 41.18 25.3315 41.78 26.0635 41.78Z"/>
</mask>
<path d="M16.108 29.036C14.8 29.036 13.168 28.664 13.168 27.32C13.168 26.564 13.552 26.18 14.464 26.18C15.028 26.18 15.76 26.348 16.216 26.348C16.732 26.348 16.972 26.168 16.972 25.916C16.972 25.604 16.684 25.484 15.748 25.268C14.056 24.92 13.396 24.32 13.396 23.12C13.396 20.9 15.772 20.168 17.416 20.168C18.88 20.168 19.84 20.684 19.84 21.656C19.84 22.412 19.372 22.928 18.376 22.928C17.848 22.928 17.008 22.784 16.516 22.784C15.976 22.784 15.712 22.928 15.712 23.228C15.712 23.492 15.904 23.66 16.912 23.936C18.916 24.452 19.576 25.22 19.576 26.396C19.576 27.968 18.172 29.036 16.108 29.036ZM22.1078 19.496C22.8998 19.496 23.1638 19.976 23.1638 20.9C23.1638 21.524 23.0798 22.388 22.9478 23.06C23.4518 22.328 24.2198 21.836 25.0478 21.836C25.8998 21.836 26.5718 22.244 27.0038 23.108C27.3638 23.84 27.5318 24.944 27.5318 25.856C27.5318 28.088 26.8958 28.88 25.9718 28.88C25.2278 28.88 24.8438 28.388 24.8438 27.44C24.8438 26.708 24.9758 25.892 24.9758 25.244C24.9758 24.452 24.6878 24.056 24.2198 24.056C23.6438 24.056 23.2478 24.632 23.2478 25.592C23.2478 26.18 23.3798 26.78 23.3798 27.536C23.3798 28.664 22.8518 29.108 22.1438 29.108C21.4118 29.108 20.9198 28.868 20.7038 27.476C20.5118 26.312 20.3678 24.152 20.3678 22.88C20.3678 20.528 20.9798 19.496 22.1078 19.496ZM33.8945 29.12C33.1745 29.12 32.9225 28.82 32.8745 28.136C32.3945 28.808 31.6145 29.156 30.5465 29.156C28.8545 29.156 28.0625 28.172 28.0625 26.996C28.0625 25.664 29.1185 24.812 30.7385 24.812C31.5425 24.812 32.1785 25.016 32.6705 25.376C32.5745 24.236 32.0705 23.792 31.2185 23.792C30.5345 23.792 29.8385 24.212 29.1545 24.212C28.5785 24.212 28.2425 23.864 28.2425 23.348C28.2425 22.304 29.7665 21.488 31.5305 21.488C33.0185 21.488 34.1825 22.076 34.6505 23.288C35.0105 24.212 35.1665 25.364 35.1665 26.66C35.1665 28.604 34.7825 29.12 33.8945 29.12ZM31.4585 27.464C32.0225 27.464 32.7065 27.212 32.7065 26.708C32.7065 26.252 32.1665 26.048 31.5665 26.048C30.8705 26.048 30.4385 26.36 30.4385 26.78C30.4385 27.2 30.8225 27.464 31.4585 27.464ZM35.8834 23.924C35.8834 22.148 36.3274 21.416 37.0834 21.416C37.8034 21.416 38.1034 22.172 38.1514 22.892C38.4394 22.1 38.9794 21.464 39.7234 21.464C40.7434 21.464 41.2114 22.376 41.2114 23.576C41.2114 25.184 40.6954 25.736 39.9274 25.736C39.3394 25.736 39.0634 25.4 39.1234 24.62C39.1594 23.972 39.0514 23.768 38.8474 23.768C38.5834 23.768 38.4274 24.128 38.4274 24.644C38.4274 25.292 38.8114 26.744 38.8114 27.692C38.8114 28.652 38.3554 29.024 37.5874 29.024C36.8314 29.024 36.3754 28.652 36.1954 27.74C36.0274 26.828 35.8834 25.052 35.8834 23.924ZM45.4999 29.096C42.6319 29.096 41.5879 27.848 41.5879 25.784C41.5879 23.18 43.3159 21.656 45.6919 21.656C47.5639 21.656 48.4039 22.508 48.4039 23.744C48.4039 25.232 47.1079 26.156 45.2479 26.156C44.7439 26.156 44.2639 26.084 43.8559 25.952C43.9279 26.648 44.4919 26.912 45.4279 26.912C46.7719 26.912 47.3839 26.372 48.0079 26.372C48.4039 26.372 48.8959 26.66 48.8959 27.344C48.8959 28.328 47.7199 29.096 45.4999 29.096ZM44.8039 24.968C45.6679 24.968 46.3399 24.524 46.3399 23.936C46.3399 23.528 46.0399 23.24 45.5119 23.24C44.6599 23.24 43.9399 23.78 43.9399 24.38C43.9399 24.752 44.2519 24.968 44.8039 24.968ZM19.1823 35.18C20.3343 35.18 21.1023 35.288 21.6183 35.492C22.3503 35.792 22.5543 36.284 22.5543 36.908C22.5543 37.748 22.0743 38.312 21.1263 38.312C20.7063 38.312 20.2503 38.24 19.7703 38.108C20.2263 39.416 20.5023 41.228 20.5023 42.152C20.5023 43.4 20.0463 44.084 18.9183 44.084C17.8983 44.084 17.3943 43.496 17.3943 42.296C17.3943 41.168 17.8143 39.332 18.3063 38.132C17.8743 38.264 17.2983 38.36 16.9263 38.36C15.8943 38.36 15.5103 37.904 15.5103 37.136C15.5103 36.464 15.8223 35.948 16.5183 35.6C17.1063 35.312 17.9463 35.18 19.1823 35.18ZM25.8955 44.036C23.7955 44.036 22.4395 42.692 22.4395 40.508C22.4395 38.24 23.8195 36.704 25.9315 36.704C28.1635 36.704 29.6155 38.192 29.6155 40.388C29.6155 42.644 28.1515 44.036 25.8955 44.036ZM26.0635 41.78C26.7835 41.78 27.2515 41.18 27.2515 40.244C27.2515 39.308 26.7835 38.708 26.0635 38.708C25.3315 38.708 24.8755 39.308 24.8755 40.244C24.8755 41.18 25.3315 41.78 26.0635 41.78Z" fill="white"/>
<path d="M15.748 25.268L16.1078 23.709L16.0891 23.7047L16.0703 23.7008L15.748 25.268ZM16.912 23.936L16.4895 25.4792L16.5012 25.4824L16.513 25.4855L16.912 23.936ZM16.108 27.436C15.5621 27.436 15.0874 27.3523 14.8122 27.2266C14.6873 27.1696 14.6795 27.1381 14.7083 27.1752C14.7247 27.1965 14.743 27.2276 14.7556 27.2647C14.7681 27.3015 14.768 27.3235 14.768 27.32H11.568C11.568 28.8259 12.558 29.715 13.4828 30.1374C14.3506 30.5337 15.3459 30.636 16.108 30.636V27.436ZM14.768 27.32C14.768 27.2604 14.7763 27.2839 14.751 27.3557C14.7215 27.4392 14.6586 27.5522 14.549 27.6516C14.4437 27.7471 14.35 27.7805 14.3239 27.788C14.3048 27.7936 14.3418 27.78 14.464 27.78V24.58C13.8264 24.58 13.0314 24.7077 12.399 25.2814C11.7324 25.8861 11.568 26.6873 11.568 27.32H14.768ZM14.464 27.78C14.6199 27.78 14.8364 27.805 15.166 27.8496C15.4254 27.8846 15.8533 27.948 16.216 27.948V24.748C16.1227 24.748 15.9566 24.7274 15.595 24.6784C15.3036 24.639 14.8721 24.58 14.464 24.58V27.78ZM16.216 27.948C16.6228 27.948 17.1475 27.8832 17.6251 27.5897C18.1835 27.2466 18.572 26.6433 18.572 25.916H15.372C15.372 25.7164 15.4222 25.4928 15.5449 25.2827C15.6656 25.0761 15.8212 24.9423 15.9499 24.8633C16.1785 24.7228 16.3252 24.748 16.216 24.748V27.948ZM18.572 25.916C18.572 25.5704 18.4849 25.1638 18.216 24.7859C17.9699 24.4399 17.6586 24.2427 17.4356 24.1295C17.0411 23.9291 16.5357 23.8077 16.1078 23.709L15.3882 26.827C15.6137 26.8791 15.771 26.9187 15.884 26.9519C16.005 26.9873 16.0204 26.9998 15.9864 26.9825C15.9524 26.9653 15.7716 26.8701 15.6087 26.6411C15.4231 26.3802 15.372 26.1056 15.372 25.916H18.572ZM16.0703 23.7008C15.3102 23.5445 15.0689 23.3799 15.0159 23.3315C15.0083 23.3246 15.0096 23.3244 15.014 23.331C15.0186 23.3376 15.0203 23.3422 15.0196 23.3404C15.0178 23.3356 14.996 23.2761 14.996 23.12H11.796C11.796 24.0476 12.0697 24.9752 12.8591 25.6955C13.5591 26.3341 14.4938 26.6435 15.4257 26.8352L16.0703 23.7008ZM14.996 23.12C14.996 22.7089 15.1639 22.4423 15.5881 22.198C16.078 21.9158 16.7857 21.768 17.416 21.768V18.568C16.4023 18.568 15.1 18.7862 13.9909 19.425C12.8161 20.1017 11.796 21.3111 11.796 23.12H14.996ZM17.416 21.768C17.6912 21.768 17.9106 21.7925 18.0763 21.8281C18.2443 21.8642 18.331 21.906 18.3617 21.9242C18.388 21.9398 18.3469 21.9217 18.3012 21.8466C18.2513 21.7648 18.24 21.6877 18.24 21.656H21.44C21.44 20.5339 20.8375 19.6713 19.9923 19.1708C19.2272 18.7177 18.2992 18.568 17.416 18.568V21.768ZM18.24 21.656C18.24 21.6816 18.236 21.6566 18.2578 21.5998C18.2816 21.5378 18.3266 21.4643 18.3947 21.4012C18.538 21.2687 18.6114 21.328 18.376 21.328V24.528C19.1366 24.528 19.942 24.3293 20.5683 23.7498C21.2102 23.1557 21.44 22.3692 21.44 21.656H18.24ZM18.376 21.328C18.2153 21.328 17.9673 21.304 17.6022 21.265C17.3005 21.2328 16.8674 21.184 16.516 21.184V24.384C16.6566 24.384 16.8895 24.4072 17.2628 24.447C17.5727 24.48 18.0087 24.528 18.376 24.528V21.328ZM16.516 21.184C16.1594 21.184 15.6304 21.2218 15.1398 21.4919C14.8681 21.6415 14.5898 21.873 14.3873 22.213C14.184 22.5539 14.112 22.9118 14.112 23.228H17.312C17.312 23.3942 17.273 23.6216 17.1361 23.8512C16.9999 24.0797 16.8214 24.219 16.6832 24.2951C16.4596 24.4182 16.3326 24.384 16.516 24.384V21.184ZM14.112 23.228C14.112 23.5016 14.1654 23.8611 14.3798 24.2244C14.5829 24.5686 14.8566 24.7899 15.0818 24.9317C15.4788 25.1815 15.9908 25.3427 16.4895 25.4792L17.3345 22.3928C17.1053 22.33 16.9519 22.2813 16.851 22.2442C16.743 22.2045 16.7402 22.1944 16.7862 22.2233C16.8374 22.2556 17.0001 22.3682 17.1357 22.598C17.2826 22.8469 17.312 23.0864 17.312 23.228H14.112ZM16.513 25.4855C17.4113 25.7167 17.7595 25.9485 17.8808 26.0663C17.9268 26.1109 17.9386 26.1372 17.9457 26.156C17.9557 26.1823 17.976 26.2512 17.976 26.396H21.176C21.176 25.4654 20.8949 24.5328 20.1102 23.7707C19.4005 23.0815 18.4167 22.6713 17.311 22.3865L16.513 25.4855ZM17.976 26.396C17.976 26.6549 17.8808 26.8544 17.647 27.0323C17.3806 27.235 16.8801 27.436 16.108 27.436V30.636C17.3999 30.636 18.6334 30.303 19.585 29.5787C20.5692 28.8296 21.176 27.7091 21.176 26.396H17.976ZM22.9478 23.06L21.3778 22.7516L24.2656 23.9674L22.9478 23.06ZM27.0038 23.108L28.4396 22.4019L28.4349 22.3925L27.0038 23.108ZM20.7038 27.476L22.2849 27.2307L22.2837 27.2231L22.2825 27.2156L20.7038 27.476ZM22.1078 21.096C22.1503 21.096 22.0845 21.1032 21.9667 21.0518C21.8316 20.9928 21.7076 20.8912 21.6224 20.7696C21.5483 20.6639 21.5388 20.5935 21.545 20.623C21.5515 20.6534 21.5638 20.7376 21.5638 20.9H24.7638C24.7638 20.3579 24.7014 19.5874 24.2432 18.9334C23.6909 18.1452 22.8512 17.896 22.1078 17.896V21.096ZM21.5638 20.9C21.5638 21.4164 21.4907 22.1772 21.3778 22.7516L24.5178 23.3684C24.669 22.5988 24.7638 21.6316 24.7638 20.9H21.5638ZM24.2656 23.9674C24.5506 23.5535 24.8725 23.436 25.0478 23.436V20.236C23.5672 20.236 22.3531 21.1024 21.63 22.1526L24.2656 23.9674ZM25.0478 23.436C25.2094 23.436 25.2828 23.4714 25.3215 23.4961C25.3643 23.5234 25.4614 23.601 25.5727 23.8235L28.4349 22.3925C28.1142 21.751 27.6593 21.1926 27.0451 20.7999C26.4268 20.4046 25.7382 20.236 25.0478 20.236V23.436ZM25.5681 23.8141C25.7771 24.2391 25.9318 25.0682 25.9318 25.856H29.1318C29.1318 24.8198 28.9506 23.4409 28.4396 22.4019L25.5681 23.8141ZM25.9318 25.856C25.9318 26.8737 25.7774 27.2926 25.7115 27.407C25.6931 27.4391 25.7164 27.387 25.8071 27.3347C25.8482 27.3111 25.8885 27.2961 25.9222 27.2879C25.9546 27.2799 25.973 27.28 25.9718 27.28V30.48C27.0014 30.48 27.9226 29.9804 28.4851 29.003C28.9683 28.1634 29.1318 27.0703 29.1318 25.856H25.9318ZM25.9718 27.28C25.9607 27.28 26.0209 27.2782 26.1179 27.3202C26.223 27.3658 26.3194 27.4407 26.3888 27.5294C26.4526 27.6109 26.4653 27.6674 26.4619 27.6545C26.4579 27.6392 26.4438 27.5737 26.4438 27.44H23.2438C23.2438 28.0905 23.3693 28.8633 23.8688 29.5016C24.4231 30.2099 25.2181 30.48 25.9718 30.48V27.28ZM26.4438 27.44C26.4438 27.1552 26.4698 26.8371 26.5037 26.4502C26.5347 26.0966 26.5758 25.653 26.5758 25.244H23.3758C23.3758 25.483 23.3509 25.7714 23.3159 26.1708C23.2838 26.5369 23.2438 26.9928 23.2438 27.44H26.4438ZM26.5758 25.244C26.5758 24.6934 26.4823 24.0385 26.1092 23.4725C25.6773 22.8171 24.9819 22.456 24.2198 22.456V25.656C24.1063 25.656 23.9481 25.6304 23.7824 25.542C23.6159 25.4532 23.5035 25.3338 23.4374 25.2335C23.3253 25.0635 23.3758 25.0026 23.3758 25.244H26.5758ZM24.2198 22.456C23.317 22.456 22.5992 22.9391 22.1749 23.5942C21.7828 24.1996 21.6478 24.9188 21.6478 25.592H24.8478C24.8478 25.3052 24.9109 25.2564 24.8607 25.3338C24.83 25.3812 24.7596 25.468 24.6319 25.5426C24.4991 25.6202 24.3523 25.656 24.2198 25.656V22.456ZM21.6478 25.592C21.6478 25.9868 21.6923 26.3762 21.7224 26.6662C21.755 26.9807 21.7798 27.2479 21.7798 27.536H24.9798C24.9798 27.0681 24.9386 26.6573 24.9053 26.3358C24.8694 25.9898 24.8478 25.7852 24.8478 25.592H21.6478ZM21.7798 27.536C21.7798 27.8752 21.6985 27.8338 21.8232 27.6914C21.8866 27.619 21.9672 27.5649 22.0446 27.5342C22.1153 27.5061 22.1556 27.508 22.1438 27.508V30.708C22.8418 30.708 23.6375 30.4774 24.2314 29.7986C24.7971 29.1522 24.9798 28.3248 24.9798 27.536H21.7798ZM22.1438 27.508C22.0373 27.508 22.0366 27.4977 22.0864 27.5122C22.1158 27.5207 22.1592 27.5367 22.209 27.5648C22.2597 27.5934 22.3055 27.628 22.3437 27.6649C22.4206 27.7394 22.4269 27.7845 22.4011 27.7203C22.3731 27.6509 22.3271 27.5024 22.2849 27.2307L19.1227 27.7213C19.247 28.522 19.4943 29.3598 20.1169 29.9631C20.8044 30.6292 21.6269 30.708 22.1438 30.708V27.508ZM22.2825 27.2156C22.1082 26.159 21.9678 24.0894 21.9678 22.88H18.7678C18.7678 24.2146 18.9154 26.465 19.1251 27.7364L22.2825 27.2156ZM21.9678 22.88C21.9678 21.7881 22.1192 21.2605 22.227 21.0581C22.2672 20.9826 22.2697 21.0127 22.2013 21.055C22.129 21.0997 22.0783 21.096 22.1078 21.096V17.896C21.5733 17.896 21.0231 18.0213 20.5189 18.333C20.0185 18.6423 19.6564 19.0774 19.4026 19.5539C18.9224 20.4555 18.7678 21.6199 18.7678 22.88H21.9678ZM32.8745 28.136L34.4706 28.024L34.1591 23.5849L31.5726 27.206L32.8745 28.136ZM32.6705 25.376L31.7257 26.6672L34.5595 28.7408L34.2649 25.2417L32.6705 25.376ZM34.6505 23.288L33.1579 23.8643L33.1597 23.8688L34.6505 23.288ZM33.8945 27.52C33.7161 27.52 33.9905 27.4771 34.2692 27.7585C34.3965 27.8869 34.451 28.0132 34.4701 28.0703C34.4859 28.1174 34.477 28.1149 34.4706 28.024L31.2785 28.248C31.3108 28.7084 31.4263 29.4356 31.9959 30.0105C32.5925 30.6129 33.3529 30.72 33.8945 30.72V27.52ZM31.5726 27.206C31.4724 27.3462 31.2518 27.556 30.5465 27.556V30.756C31.9773 30.756 33.3166 30.2698 34.1765 29.066L31.5726 27.206ZM30.5465 27.556C30.0122 27.556 29.8236 27.4065 29.7779 27.3626C29.7318 27.3184 29.6625 27.2213 29.6625 26.996H26.4625C26.4625 27.9467 26.7892 28.9296 27.5622 29.6714C28.3354 30.4135 29.3888 30.756 30.5465 30.756V27.556ZM29.6625 26.996C29.6625 26.7913 29.7251 26.7088 29.8027 26.6457C29.9136 26.5555 30.1941 26.412 30.7385 26.412V23.212C29.6629 23.212 28.6055 23.4945 27.7833 24.1633C26.928 24.8592 26.4625 25.8687 26.4625 26.996H29.6625ZM30.7385 26.412C31.2616 26.412 31.5518 26.54 31.7257 26.6672L33.6153 24.0848C32.8052 23.492 31.8234 23.212 30.7385 23.212V26.412ZM34.2649 25.2417C34.2015 24.4896 33.9839 23.6723 33.3797 23.0458C32.7402 22.3827 31.9229 22.192 31.2185 22.192V25.392C31.2966 25.392 31.3004 25.4026 31.2593 25.3881C31.2375 25.3804 31.2067 25.3669 31.1718 25.3449C31.1366 25.3226 31.1041 25.2959 31.0764 25.2672C31.019 25.2077 31.0098 25.1686 31.0208 25.1985C31.0337 25.2335 31.0608 25.3281 31.0762 25.5103L34.2649 25.2417ZM31.2185 22.192C30.5955 22.192 30.0164 22.3813 29.7207 22.4713C29.3264 22.5913 29.2155 22.612 29.1545 22.612V25.812C29.7775 25.812 30.3567 25.6227 30.6524 25.5327C31.0467 25.4127 31.1575 25.392 31.2185 25.392V22.192ZM29.1545 22.612C29.1903 22.612 29.3943 22.6286 29.5972 22.8257C29.8034 23.0259 29.8425 23.2516 29.8425 23.348H26.6425C26.6425 23.9604 26.8497 24.6181 27.3678 25.1213C27.8828 25.6214 28.5427 25.812 29.1545 25.812V22.612ZM29.8425 23.348C29.8425 23.6734 29.6227 23.6361 30.0027 23.4248C30.3281 23.2438 30.8733 23.088 31.5305 23.088V19.888C30.4237 19.888 29.325 20.1402 28.4474 20.6282C27.6244 21.0859 26.6425 21.9786 26.6425 23.348H29.8425ZM31.5305 23.088C32.6127 23.088 33.0085 23.4773 33.1579 23.8643L36.1431 22.7117C35.3566 20.6747 33.4244 19.888 31.5305 19.888V23.088ZM33.1597 23.8688C33.4205 24.5381 33.5665 25.4711 33.5665 26.66H36.7665C36.7665 25.2569 36.6006 23.8859 36.1414 22.7072L33.1597 23.8688ZM33.5665 26.66C33.5665 27.1013 33.5442 27.4088 33.5115 27.6194C33.4778 27.8369 33.4434 27.8805 33.4654 27.841C33.5039 27.7718 33.6023 27.6513 33.7645 27.5719C33.898 27.5065 33.9736 27.52 33.8945 27.52V30.72C34.2595 30.72 34.716 30.669 35.1714 30.4461C35.6553 30.2092 36.0161 29.8382 36.2617 29.397C36.6875 28.6317 36.7665 27.6415 36.7665 26.66H33.5665ZM31.4585 29.064C31.9423 29.064 32.5192 28.9622 33.0341 28.6935C33.5331 28.4332 34.3065 27.8099 34.3065 26.708H31.1065C31.1065 26.4445 31.2039 26.217 31.3242 26.0611C31.4301 25.9239 31.5315 25.8682 31.5539 25.8565C31.5811 25.8423 31.5809 25.8468 31.5483 25.854C31.5179 25.8607 31.4845 25.864 31.4585 25.864V29.064ZM34.3065 26.708C34.3065 25.7013 33.6556 25.0733 33.0933 24.7841C32.5766 24.5184 32.012 24.448 31.5665 24.448V27.648C31.7211 27.648 31.7265 27.6796 31.6298 27.6299C31.5706 27.5994 31.4376 27.5184 31.3148 27.348C31.1796 27.1605 31.1065 26.9318 31.1065 26.708H34.3065ZM31.5665 24.448C31.0009 24.448 30.3818 24.572 29.8517 24.9268C29.2885 25.3037 28.8385 25.9511 28.8385 26.78H32.0385C32.0385 26.9589 31.99 27.1381 31.8999 27.293C31.8128 27.4427 31.7076 27.5352 31.6314 27.5862C31.4912 27.68 31.4362 27.648 31.5665 27.648V24.448ZM28.8385 26.78C28.8385 27.5525 29.2248 28.2072 29.8147 28.6055C30.3431 28.9623 30.9481 29.064 31.4585 29.064V25.864C31.333 25.864 31.428 25.8337 31.6054 25.9535C31.704 26.02 31.8214 26.1305 31.9115 26.295C32.0031 26.462 32.0385 26.6339 32.0385 26.78H28.8385ZM38.1514 22.892L36.555 22.9984L39.6551 23.4388L38.1514 22.892ZM39.1234 24.62L40.7187 24.7427L40.72 24.7257L40.721 24.7088L39.1234 24.62ZM36.1954 27.74L34.6219 28.0299L34.6238 28.0398L34.6257 28.0498L36.1954 27.74ZM37.4834 23.924C37.4834 23.5422 37.5076 23.2558 37.5426 23.0477C37.5782 22.8353 37.6185 22.7443 37.6268 22.728C37.6312 22.7192 37.5861 22.8103 37.4504 22.8987C37.3066 22.9924 37.1642 23.016 37.0834 23.016V19.816C36.6246 19.816 36.1432 19.9311 35.7036 20.2175C35.272 20.4987 34.9741 20.8838 34.7731 21.28C34.3956 22.0241 34.2834 22.956 34.2834 23.924H37.4834ZM37.0834 23.016C36.9678 23.016 36.8244 22.9811 36.6934 22.8984C36.5739 22.8231 36.5191 22.7427 36.5053 22.7201C36.4926 22.6994 36.5039 22.7115 36.5201 22.7718C36.5355 22.8294 36.5489 22.907 36.555 22.9984L39.7479 22.7856C39.7141 22.2784 39.5882 21.6264 39.2336 21.0479C38.8419 20.4089 38.1224 19.816 37.0834 19.816V23.016ZM39.6551 23.4388C39.6963 23.3254 39.7416 23.2317 39.7854 23.1588C39.8296 23.0853 39.8656 23.044 39.8847 23.0253C39.903 23.0074 39.8971 23.0186 39.8619 23.0344C39.8225 23.0522 39.7722 23.064 39.7234 23.064V19.864C37.9335 19.864 37.0045 21.3641 36.6478 22.3452L39.6551 23.4388ZM39.7234 23.064C39.7325 23.064 39.6808 23.0638 39.6082 23.0233C39.5757 23.0053 39.5499 22.985 39.5314 22.9671C39.5134 22.9498 39.5061 22.9383 39.5065 22.939C39.5091 22.943 39.5377 22.9907 39.5649 23.1061C39.5917 23.2201 39.6114 23.3767 39.6114 23.576H42.8114C42.8114 22.804 42.6666 21.9326 42.1934 21.201C41.6668 20.3868 40.7992 19.864 39.7234 19.864V23.064ZM39.6114 23.576C39.6114 23.8979 39.5851 24.1149 39.5553 24.2522C39.5253 24.3902 39.4996 24.4114 39.5243 24.3742C39.5572 24.3247 39.6307 24.2455 39.7462 24.1888C39.8529 24.1363 39.9282 24.136 39.9274 24.136V27.336C40.7588 27.336 41.6231 26.9987 42.1905 26.1438C42.6741 25.4152 42.8114 24.4958 42.8114 23.576H39.6114ZM39.9274 24.136C39.9292 24.136 39.9504 24.1361 39.9869 24.1422C40.0238 24.1484 40.0796 24.1614 40.1471 24.1888C40.2957 24.2491 40.4495 24.3586 40.5662 24.5156C40.675 24.6619 40.7059 24.7874 40.7134 24.8269C40.72 24.8622 40.711 24.8427 40.7187 24.7427L37.5282 24.4973C37.4872 25.0296 37.5206 25.7827 37.9986 26.4254C38.5404 27.1537 39.3337 27.336 39.9274 27.336V24.136ZM40.721 24.7088C40.7408 24.3525 40.7451 23.8608 40.5791 23.4042C40.4854 23.1464 40.3043 22.8072 39.9536 22.539C39.585 22.2572 39.1792 22.168 38.8474 22.168V25.368C38.6176 25.368 38.3018 25.3043 38.0098 25.081C37.7355 24.8713 37.6175 24.6236 37.5718 24.4978C37.5279 24.3773 37.5266 24.3056 37.5286 24.3329C37.5301 24.3524 37.5325 24.4132 37.5259 24.5312L40.721 24.7088ZM38.8474 22.168C37.8352 22.168 37.2927 22.8979 37.0882 23.3367C36.8814 23.7804 36.8274 24.2568 36.8274 24.644H40.0274C40.0274 24.5152 40.0515 24.5536 39.9887 24.6883C39.9542 24.7623 39.8658 24.9235 39.676 25.0768C39.4652 25.2472 39.1749 25.368 38.8474 25.368V22.168ZM36.8274 24.644C36.8274 25.1429 36.9623 25.856 37.0422 26.3247C37.1428 26.9137 37.2114 27.3775 37.2114 27.692H40.4114C40.4114 27.0585 40.2881 26.3222 40.1966 25.7863C40.0846 25.13 40.0274 24.7931 40.0274 24.644H36.8274ZM37.2114 27.692C37.2114 27.9466 37.1496 27.796 37.3481 27.5947C37.4419 27.4995 37.5402 27.4517 37.6001 27.4319C37.6509 27.415 37.6559 27.424 37.5874 27.424V30.624C38.2062 30.624 39.0031 30.474 39.6268 29.8413C40.2453 29.214 40.4114 28.3974 40.4114 27.692H37.2114ZM37.5874 27.424C37.527 27.424 37.5285 27.4163 37.5687 27.4293C37.5896 27.436 37.6181 27.4475 37.6507 27.466C37.6835 27.4845 37.715 27.5071 37.7432 27.5324C37.8021 27.5852 37.8222 27.6272 37.8195 27.6217C37.8147 27.6118 37.7901 27.5564 37.7652 27.4302L34.6257 28.0498C34.7534 28.6966 35.0237 29.3923 35.6077 29.9156C36.2153 30.4601 36.9434 30.624 37.5874 30.624V27.424ZM37.769 27.4501C37.6221 26.6531 37.4834 24.9767 37.4834 23.924H34.2834C34.2834 25.1273 34.4327 27.0029 34.6219 28.0299L37.769 27.4501ZM43.8559 25.952L44.3484 24.4297L42.0117 23.6737L42.2644 26.1166L43.8559 25.952ZM45.4999 27.496C44.2587 27.496 43.7518 27.2206 43.5518 27.0366C43.3812 26.8796 43.1879 26.5621 43.1879 25.784H39.9879C39.9879 27.0699 40.3167 28.4084 41.3851 29.3914C42.4241 30.3474 43.8732 30.696 45.4999 30.696V27.496ZM43.1879 25.784C43.1879 24.8488 43.4889 24.2544 43.8624 23.8925C44.2445 23.5222 44.8468 23.256 45.6919 23.256V20.056C44.1611 20.056 42.7114 20.5518 41.6354 21.5945C40.5509 22.6456 39.9879 24.1152 39.9879 25.784H43.1879ZM45.6919 23.256C46.4118 23.256 46.6736 23.4226 46.7297 23.4691C46.7416 23.4789 46.8039 23.5115 46.8039 23.744H50.0039C50.0039 22.7405 49.6463 21.7291 48.7701 21.0039C47.9382 20.3154 46.844 20.056 45.6919 20.056V23.256ZM46.8039 23.744C46.8039 23.9679 46.7305 24.1028 46.564 24.2276C46.3554 24.3838 45.9329 24.556 45.2479 24.556V27.756C46.423 27.756 47.5784 27.4661 48.4829 26.7884C49.4294 26.0792 50.0039 25.0081 50.0039 23.744H46.8039ZM45.2479 24.556C44.8887 24.556 44.5773 24.5037 44.3484 24.4297L43.3634 27.4743C43.9506 27.6643 44.5992 27.756 45.2479 27.756V24.556ZM42.2644 26.1166C42.3503 26.9469 42.7832 27.6576 43.5224 28.0812C44.1487 28.4401 44.8571 28.512 45.4279 28.512V25.312C45.2644 25.312 45.1592 25.3001 45.0991 25.2886C45.0381 25.2768 45.0555 25.2716 45.1134 25.3048C45.181 25.3435 45.2759 25.4193 45.3522 25.5398C45.4267 25.6575 45.4442 25.7556 45.4474 25.7874L42.2644 26.1166ZM45.4279 28.512C46.3368 28.512 47.0085 28.3242 47.5007 28.1576C47.7889 28.0601 47.8523 28.031 47.997 27.9869C48.0969 27.9564 48.0794 27.972 48.0079 27.972V24.772C47.6245 24.772 47.2964 24.8551 47.0642 24.9259C46.8766 24.983 46.586 25.0889 46.4751 25.1264C46.1694 25.2298 45.8631 25.312 45.4279 25.312V28.512ZM48.0079 27.972C47.8428 27.972 47.6695 27.9181 47.5216 27.7831C47.4421 27.7105 47.3798 27.6222 47.3402 27.529C47.3008 27.4364 47.2959 27.3675 47.2959 27.344H50.4959C50.4959 26.5852 50.2072 25.902 49.6793 25.4199C49.1863 24.9699 48.5691 24.772 48.0079 24.772V27.972ZM47.2959 27.344C47.2959 27.0905 47.4792 27.0659 47.2581 27.1878C47.0069 27.3262 46.4552 27.496 45.4999 27.496V30.696C46.7647 30.696 47.9109 30.4818 48.8028 29.9902C49.7247 29.4821 50.4959 28.5815 50.4959 27.344H47.2959ZM44.8039 26.568C45.4923 26.568 46.2 26.3938 46.7851 26.0027C47.3759 25.6077 47.9399 24.903 47.9399 23.936H44.7399C44.7399 23.7664 44.7912 23.6165 44.8588 23.5068C44.9219 23.4042 44.9861 23.3562 45.0067 23.3423C45.0398 23.3202 44.9795 23.368 44.8039 23.368V26.568ZM47.9399 23.936C47.9399 23.3169 47.6991 22.6858 47.1757 22.2293C46.6729 21.7907 46.0578 21.64 45.5119 21.64V24.84C45.4941 24.84 45.2929 24.8333 45.0721 24.6407C44.8308 24.4302 44.7399 24.1471 44.7399 23.936H47.9399ZM45.5119 21.64C44.76 21.64 44.0327 21.8752 43.4605 22.2945C42.9077 22.6998 42.3399 23.4139 42.3399 24.38H45.5399C45.5399 24.5577 45.4854 24.6923 45.4386 24.7705C45.394 24.845 45.3546 24.8738 45.3523 24.8755C45.3483 24.8784 45.3618 24.8681 45.395 24.8575C45.4269 24.8473 45.4671 24.84 45.5119 24.84V21.64ZM42.3399 24.38C42.3399 25.0835 42.6699 25.7295 43.2619 26.1343C43.7757 26.4856 44.3543 26.568 44.8039 26.568V23.368C44.7016 23.368 44.8482 23.3424 45.0679 23.4927C45.1907 23.5766 45.321 23.707 45.4157 23.8885C45.51 24.0691 45.5399 24.2446 45.5399 24.38H42.3399ZM21.6183 35.492L22.2251 34.0115L22.2159 34.0077L22.2066 34.0041L21.6183 35.492ZM19.7703 38.108L20.1946 36.5653L17.2564 35.7573L18.2595 38.6347L19.7703 38.108ZM18.3063 38.132L19.7867 38.739L21.0674 35.6153L17.8388 36.6018L18.3063 38.132ZM16.5183 35.6L15.8145 34.1631L15.8028 34.1689L16.5183 35.6ZM19.1823 36.78C20.2777 36.78 20.8005 36.8892 21.0301 36.9799L22.2066 34.0041C21.4042 33.6868 20.391 33.58 19.1823 33.58V36.78ZM21.0116 36.9725C21.0774 36.9995 21.0886 37.0133 21.0713 36.9994C21.0626 36.9924 21.0487 36.98 21.0327 36.9616C21.0165 36.9432 21.001 36.922 20.9873 36.8992C20.9588 36.8514 20.9498 36.8159 20.9486 36.8103C20.9482 36.8086 20.9543 36.8364 20.9543 36.908H24.1543C24.1543 36.4334 24.0787 35.8342 23.7344 35.2578C23.3774 34.6604 22.8375 34.2625 22.2251 34.0115L21.0116 36.9725ZM20.9543 36.908C20.9543 36.9678 20.9456 36.9782 20.9543 36.9535C20.9642 36.925 20.991 36.8692 21.0471 36.8113C21.1041 36.7524 21.1618 36.7221 21.194 36.7102C21.2216 36.7 21.2063 36.712 21.1263 36.712V39.912C21.9211 39.912 22.7347 39.6678 23.3446 39.0387C23.9455 38.4189 24.1543 37.6255 24.1543 36.908H20.9543ZM21.1263 36.712C20.8839 36.712 20.5738 36.6696 20.1946 36.5653L19.3461 39.6507C19.9269 39.8104 20.5288 39.912 21.1263 39.912V36.712ZM18.2595 38.6347C18.6585 39.779 18.9023 41.4132 18.9023 42.152H22.1023C22.1023 41.0428 21.7942 39.053 21.2812 37.5813L18.2595 38.6347ZM18.9023 42.152C18.9023 42.3727 18.8815 42.5117 18.862 42.5895C18.8431 42.6642 18.8335 42.651 18.8716 42.6021C18.8908 42.5775 18.9168 42.5509 18.9486 42.5268C18.9802 42.5028 19.0087 42.488 19.0281 42.48C19.0648 42.4647 19.0427 42.484 18.9183 42.484V45.684C19.8226 45.684 20.7539 45.3921 21.3951 44.5699C21.9718 43.8303 22.1023 42.9191 22.1023 42.152H18.9023ZM18.9183 42.484C18.8131 42.484 18.7943 42.4684 18.8279 42.4814C18.8458 42.4884 18.8736 42.5016 18.9056 42.524C18.9379 42.5466 18.967 42.5733 18.9908 42.6013C19.04 42.6589 19.0412 42.6906 19.0289 42.647C19.0153 42.5988 18.9943 42.4895 18.9943 42.296H15.7943C15.7943 43.0804 15.9531 43.9714 16.5569 44.6787C17.2032 45.436 18.0968 45.684 18.9183 45.684V42.484ZM18.9943 42.296C18.9943 41.425 19.3528 39.7974 19.7867 38.739L16.8259 37.525C16.2759 38.8666 15.7943 40.911 15.7943 42.296H18.9943ZM17.8388 36.6018C17.5238 36.6981 17.1075 36.76 16.9263 36.76V39.96C17.4892 39.96 18.2249 39.8299 18.7739 39.6622L17.8388 36.6018ZM16.9263 36.76C16.7801 36.76 16.7259 36.7431 16.7327 36.7452C16.7468 36.7495 16.8287 36.7782 16.9231 36.8663C17.0204 36.9572 17.0744 37.0583 17.0986 37.1284C17.1191 37.1877 17.1103 37.2005 17.1103 37.136H13.9103C13.9103 37.7686 14.0712 38.5818 14.7396 39.2057C15.3838 39.8069 16.2122 39.96 16.9263 39.96V36.76ZM17.1103 37.136C17.1103 37.092 17.1154 37.0758 17.1144 37.0793C17.113 37.0845 17.1081 37.0979 17.099 37.1121C17.0901 37.1259 17.087 37.1254 17.1021 37.1126C17.1186 37.0986 17.1581 37.069 17.2339 37.0311L15.8028 34.1689C15.2561 34.4423 14.76 34.8333 14.4077 35.3809C14.0516 35.9345 13.9103 36.5428 13.9103 37.136H17.1103ZM17.2221 37.0369C17.4723 36.9144 18.0098 36.78 19.1823 36.78V33.58C17.8829 33.58 16.7404 33.7096 15.8146 34.1631L17.2221 37.0369ZM25.8955 42.436C25.1928 42.436 24.767 42.2184 24.5184 41.9667C24.2682 41.7134 24.0395 41.2654 24.0395 40.508H20.8395C20.8395 41.9346 21.2888 43.2506 22.2416 44.2153C23.196 45.1816 24.4982 45.636 25.8955 45.636V42.436ZM24.0395 40.508C24.0395 39.6957 24.2834 39.1541 24.5755 38.8339C24.8547 38.5278 25.2843 38.304 25.9315 38.304V35.104C24.4667 35.104 23.1503 35.6482 22.2115 36.6771C21.2856 37.6919 20.8395 39.0523 20.8395 40.508H24.0395ZM25.9315 38.304C26.6828 38.304 27.1743 38.547 27.4752 38.8499C27.7778 39.1546 28.0155 39.6492 28.0155 40.388H31.2155C31.2155 38.9308 30.7272 37.5834 29.7458 36.5951C28.7627 35.605 27.4122 35.104 25.9315 35.104V38.304ZM28.0155 40.388C28.0155 41.1608 27.7732 41.6318 27.4862 41.9108C27.1936 42.1953 26.6934 42.436 25.8955 42.436V45.636C27.3536 45.636 28.7134 45.1807 29.7168 44.2052C30.7258 43.2242 31.2155 41.8712 31.2155 40.388H28.0155ZM26.0635 43.38C26.9149 43.38 27.68 43.0038 28.192 42.3433C28.6737 41.7219 28.8515 40.9605 28.8515 40.244H25.6515C25.6515 40.4635 25.5953 40.4701 25.663 40.3827C25.7002 40.3347 25.7627 40.2769 25.8507 40.2339C25.9389 40.1908 26.017 40.18 26.0635 40.18V43.38ZM28.8515 40.244C28.8515 39.5275 28.6737 38.7661 28.192 38.1447C27.68 37.4842 26.9149 37.108 26.0635 37.108V40.308C26.017 40.308 25.9389 40.2971 25.8507 40.2541C25.7627 40.2111 25.7002 40.1533 25.663 40.1053C25.5953 40.0179 25.6515 40.0245 25.6515 40.244H28.8515ZM26.0635 37.108C25.212 37.108 24.4421 37.4799 23.9271 38.1491C23.4459 38.7743 23.2755 39.5366 23.2755 40.244H26.4755C26.4755 40.0154 26.5331 40.0097 26.4629 40.1009C26.4239 40.1516 26.359 40.2114 26.269 40.2552C26.1794 40.2987 26.1031 40.308 26.0635 40.308V37.108ZM23.2755 40.244C23.2755 40.9514 23.4459 41.7137 23.9271 42.3389C24.4421 43.0081 25.212 43.38 26.0635 43.38V40.18C26.1031 40.18 26.1794 40.1892 26.269 40.2328C26.359 40.2766 26.4239 40.3364 26.4629 40.3871C26.5331 40.4783 26.4755 40.4726 26.4755 40.244H23.2755Z" fill="#563B00" mask="url(#path-6-outside-2_13084_7750)"/>
<path d="M40.5763 32.827L37.8495 29.3796C37.6598 29.1399 37.3709 29 37.0652 29H32C31.6174 29 31.2683 29.2184 31.1008 29.5624C30.9334 29.9065 30.977 30.3159 31.2131 30.617L36.7118 37.6296L31.5563 43.3292C31.2911 43.6224 31.2235 44.0443 31.3839 44.4057C31.5443 44.7671 31.9026 45 32.298 45H34.7114C34.9909 45 35.2577 44.883 35.4471 44.6773L39.1475 40.6577L42.2359 44.6152C42.4254 44.858 42.7162 45 43.0242 45H48C48.382 45 48.7306 44.7824 48.8984 44.4392C49.0662 44.096 49.0238 43.6873 48.7892 43.3858L43.0183 35.9707L47.8176 30.6713C48.083 30.3781 48.1508 29.9561 47.9905 29.5946C47.8301 29.2331 47.4718 29 47.0764 29H44.514C44.2331 29 43.9652 29.1181 43.7757 29.3255L40.5763 32.827Z" fill="white" stroke="#563B00" stroke-width="2" stroke-linejoin="round"/>
</svg>
