<svg width="100" height="100" viewBox="0 0 100 100" fill="none" xmlns="http://www.w3.org/2000/svg">
<mask id="mask0_1376_2444" style="mask-type:alpha" maskUnits="userSpaceOnUse" x="0" y="0" width="100" height="100">
<rect x="0.5" y="0.5" width="99" height="99" rx="11.5" fill="white" stroke="black"/>
</mask>
<g mask="url(#mask0_1376_2444)">
<rect width="100" height="100" rx="12" fill="#FFA725"/>
<path d="M84.8265 67.7981C79.5717 72.372 71.4343 67.2685 68.3932 63.6688L72.4624 51.745C79.1947 54.9711 89.8537 63.4222 84.8265 67.7981Z" fill="#FFE3B1"/>
<path d="M73.4923 62.4333L75.9785 59.724M75.2507 63.2537C75.6015 62.8234 76.4839 61.9963 77.207 62.1301M68.3932 63.6688C71.4343 67.2685 79.5717 72.372 84.8265 67.7981C89.8537 63.4222 79.1947 54.9711 72.4624 51.745L68.3932 63.6688Z" stroke="#563B00" stroke-linecap="round" stroke-linejoin="round"/>
<path d="M95.2687 32.2419C96.8308 33.804 96.8308 36.3366 95.2687 37.8987L45.3007 87.8667C43.7386 89.4288 41.206 89.4288 39.6439 87.8667L18.1122 66.335C16.5501 64.7729 16.5501 62.2403 18.1122 60.6782L68.0802 10.7102C69.6423 9.1481 72.175 9.1481 73.7371 10.7102L95.2687 32.2419Z" fill="white"/>
<path d="M21.7862 60.7945L66.646 16.6572M94 35.0703L42.4723 86.598M68.0802 10.7102L18.1122 60.6782C16.5501 62.2403 16.5501 64.7729 18.1122 66.335L39.6439 87.8667C41.206 89.4288 43.7386 89.4288 45.3007 87.8667L95.2687 37.8987C96.8308 36.3366 96.8308 33.804 95.2687 32.2419L73.7371 10.7102C72.175 9.1481 69.6423 9.1481 68.0802 10.7102Z" stroke="#563B00" stroke-width="0.787391"/>
<g style="mix-blend-mode:multiply">
<path d="M23 76C34.2 74.4 40 54.3333 42.5 45.5L45 38.5L73 10.5C71.6193 9.11929 69.3807 9.11929 68 10.5L42 36.5L15.5 63L23 76Z" fill="#FFE52F"/>
</g>
<path d="M81.4958 39.3676C81.0521 39.8271 79.9333 40.9488 79.3457 41.447C78.9894 41.7423 78.5191 41.7144 78.2244 41.3943C76.0475 38.8302 72.6537 34.878 70.8849 32.9212C70.1833 32.0661 69.3879 32.0438 68.8199 32.6319C67.6839 33.8082 67.1082 36.0228 67.1512 37.4495C67.2348 38.0986 66.6085 38.4528 66.0939 37.9558C65.4316 37.2807 63.2236 35.0064 62.4865 34.188C62.1912 33.8318 62.2388 33.4515 62.5044 33.1397C63.8324 31.5806 66.7083 28.6392 68.4122 26.8748C69.9387 25.2942 72.956 22.1697 74.4494 20.7704C74.7695 20.4757 75.1663 20.4326 75.4965 20.7159C76.3578 21.4056 78.763 23.5862 79.4063 24.2075C79.9386 24.686 79.5881 25.3065 78.9365 25.2456C77.5091 25.2525 75.5296 25.7207 74.2517 27.044C73.6837 27.6321 73.7337 28.4263 74.6128 29.0976C76.5933 30.7616 80.6983 34.0509 83.3184 36.1194C83.6663 36.3844 83.6929 36.8718 83.4102 37.2381C82.9506 37.8243 81.9041 38.9449 81.4958 39.3676Z" fill="#FFA725"/>
<path d="M67.3944 54.1183C65.655 55.9195 62.0139 59.5427 60.8755 60.5745C60.5554 60.8692 60.0496 60.878 59.7187 60.5585C55.4915 56.4762 50.9791 51.5858 48.4358 48.7391C48.1595 48.4367 48.1525 48.0393 48.4182 47.7275C50.3313 45.5257 52.567 43.1738 54.5549 41.1153C58.6904 36.8329 61.6125 35.499 63.432 37.2561C64.8289 38.6051 64.641 41.3007 62.4717 44.3562C62.1554 44.8677 62.4679 45.1694 62.9325 44.8722C66.6939 41.9335 69.69 41.7366 71.2523 43.2453C73.8438 45.7479 70.9442 50.4424 67.3944 54.1183ZM57.6777 48.1803C60.3693 45.0253 60.9183 43.3533 60.1648 42.6256C59.5215 42.0044 58.4268 42.4391 56.8472 44.0749C56.3147 44.6263 55.5692 45.3982 55.18 45.8748C54.7369 46.3704 54.6729 46.8413 55.0417 47.2686C55.4099 47.6597 55.8694 48.1034 56.2731 48.4578C56.7314 48.8292 57.2175 48.7304 57.6777 48.1803ZM62.7828 52.8616C63.3159 52.3463 64.2394 51.4267 64.7719 50.8754C66.3161 49.2764 66.7403 47.6969 65.8948 46.8804C64.8472 45.8687 62.6635 47.0633 59.5695 49.9362C58.9458 50.4349 58.9743 51.0307 59.4528 51.5283C59.9496 52.0437 60.4643 52.5406 61.015 53.037C61.5841 53.5511 62.178 53.4142 62.7828 52.8616Z" fill="#FFA725"/>
<path d="M52.635 69.4032C50.8246 71.2778 47.4739 73.9383 45.1305 75.2983C44.8262 75.4662 44.4637 75.4003 44.188 75.1341C43.141 74.1585 42.0205 73.1119 40.9729 72.1002C40.4399 71.5855 40.7714 70.9112 41.4217 70.8998C44.1827 70.689 46.7765 69.1801 48.8354 67.0481C50.5215 65.3021 50.9856 63.9388 50.2321 63.211C48.1368 61.1877 40.8646 71.0722 36.4903 66.8479C33.9907 64.434 35.4996 60.8119 39.2624 56.9154C40.9485 55.1694 43.3535 53.194 45.3584 52.111C45.681 51.9608 46.0252 52.009 46.2641 52.2397C47.1444 52.9833 48.2085 53.9043 49.0527 54.6485C49.6218 55.1626 49.3625 55.8357 48.749 55.8826C46.6776 56.262 44.5656 57.4192 43.0918 58.9086C41.5831 60.4708 40.6005 62.1504 41.3357 62.8603C43.3758 64.8305 50.9821 54.4161 55.5402 58.8178C57.9485 61.1791 56.877 65.0105 52.635 69.4032Z" fill="#FFA725"/>
<path d="M-19.5 42.957C-4.27964 38.2114 27.6733 29.7938 34.4528 30.8988C38.0012 31.4772 47.8209 34.052 54.8728 37.9333C58.6831 40.0305 61.6853 42.5092 62.4534 45.2604C62.7563 46.3451 62.7119 47.4722 62.2328 48.635C59.7685 54.6165 51.149 51.9286 45.8778 49.3589C43.6187 48.2576 38.5687 46.8518 36.1815 51.776C34.9274 55.5649 30.2661 63.6151 21.654 65.5047C20.5202 65.8838 20.5766 67.309 21.9529 68.9118C23.0539 70.194 28.9641 76.0572 31.7816 78.8284C32.2272 77.6479 40.8377 78.8948 48.8643 84.0502C46.985 82.4093 43.6603 77.7859 43.8724 75.4044C44.1375 72.4276 48.557 68.6805 53.3205 72.2451C52.5374 69.2749 53.0701 63.7055 61.4656 65.1892C67.4954 66.8864 70.499 70.2143 69.7319 72.9464C68.9648 75.6785 64.9853 79.4848 60.4051 77.0967C58.1466 75.8714 56.5798 74.6624 56.0787 74.211C57.8527 75.9559 60.8191 80.094 58.4929 82.6873C57.2293 83.935 54.8321 85.5618 52.4432 85.3291C53.5685 86.8095 54.4349 89.9031 48.8981 90.4342C41.977 91.0981 32.0016 85.7691 30.9468 82.6147C27.3857 82.0175 15.6116 83.1214 -2.99584 92.3141L-19.5 42.957Z" fill="#FFE3B1"/>
<path d="M36.1815 51.776C38.5687 46.8518 43.6187 48.2576 45.8778 49.3589C51.149 51.9286 59.7685 54.6165 62.2328 48.635C62.7119 47.4722 62.7563 46.3451 62.4534 45.2604M36.1815 51.776C34.9274 55.5649 30.2661 63.6151 21.654 65.5047M36.1815 51.776C36.9665 49.7256 38.9145 45.4983 40.4261 44.9929M21.654 65.5047C20.5202 65.8838 20.5766 67.309 21.9529 68.9118C23.0539 70.194 28.9641 76.0572 31.7816 78.8284M21.654 65.5047C20.269 65.8865 18.4352 65.7219 17.6914 65.5919M31.7816 78.8284C32.2272 77.6479 40.8377 78.8948 48.8643 84.0502C46.985 82.4093 43.6603 77.7859 43.8724 75.4044C44.1375 72.4276 48.557 68.6805 53.3205 72.2451C52.5374 69.2749 53.0701 63.7055 61.4656 65.1892C67.4954 66.8864 70.499 70.2143 69.7319 72.9464C68.9648 75.6785 64.9853 79.4848 60.4051 77.0967C58.1466 75.8714 56.5798 74.6624 56.0787 74.211C57.8527 75.9559 60.8191 80.094 58.4929 82.6873C57.2293 83.935 54.8321 85.5618 52.4432 85.3291C53.5685 86.8095 54.4349 89.9031 48.8981 90.4342C41.977 91.0981 32.0016 85.7691 30.9468 82.6147M31.7816 78.8284C30.0669 79.7319 30.5106 81.7291 30.9468 82.6147M30.9468 82.6147C27.3857 82.0175 15.6116 83.1214 -2.99584 92.3141L-19.5 42.957C-4.27964 38.2114 27.6733 29.7938 34.4528 30.8988C38.0012 31.4772 47.8209 34.052 54.8728 37.9333M54.8728 37.9333C58.6831 40.0305 61.6853 42.5092 62.4534 45.2604M54.8728 37.9333C54.4517 39.8486 55.3783 43.9953 62.4534 45.2604M32.2018 83.2265C31.5737 82.1858 31.2133 80.0189 34.7965 79.677M45.3135 76.5729C45.6764 75.145 47.2568 72.4573 50.675 73.1297M54.5219 70.8119C54.6329 69.4682 55.5345 66.6774 58.2532 66.2634M18.498 68.0041C19.7549 68.2027 22.9276 70.3188 25.5628 77.1945M1.31104 58.0723C3.52403 60.083 8.90555 64.1974 12.7276 64.5698M43.7679 84.5165L42.6257 86.7552L44.7043 86.0601L43.1841 88.4251M51.5154 81.9259C51.6028 81.1402 52.256 79.4915 54.1693 79.1818M53.0214 82.6601C53.2753 82.1626 53.9719 81.1045 54.7277 80.8518M64.4438 74.0958C64.8443 73.618 65.053 72.9018 65.7073 72.8481M65.5042 76.0105C65.2502 75.339 65.4005 73.7759 68.0341 72.8953" stroke="#563B00" stroke-linecap="round" stroke-linejoin="round"/>
</g>
</svg>
