<svg width="100" height="100" viewBox="0 0 100 100" fill="none" xmlns="http://www.w3.org/2000/svg">
<mask id="mask0_1376_2466" style="mask-type:alpha" maskUnits="userSpaceOnUse" x="0" y="0" width="100" height="100">
<rect width="100" height="100" rx="12" fill="white"/>
</mask>
<g mask="url(#mask0_1376_2466)">
<rect width="100" height="100" rx="12" fill="#FFA725"/>
<path d="M24.0018 87.8373C13.282 83.5494 1.86734 86.0507 -2.5 87.8373L-0.901466 63.2679L66.7687 62.0667L88.023 51.5091C89.1148 51.2113 91.8941 50.9731 94.2762 52.4024C96.6584 53.8317 96.0629 55.7772 95.4673 56.5712L51.9925 90.2196C48.8956 93.0782 43.9526 92.9988 41.8682 92.6018C36.3098 91.2122 24.9547 88.3138 24.0018 87.8373Z" fill="#FFE3B1" stroke="#563B00"/>
<path d="M33.2329 79.4992C33.7292 78.9037 34.7813 77.4744 35.0195 76.5215" stroke="#563B00"/>
<path d="M94.5754 55.6777C93.285 56.3725 90.4066 58.0599 91.002 59.8466" stroke="#563B00"/>
<path d="M37.4027 76.225C37.4027 76.8205 37.2836 78.0712 36.8071 78.3094M73.4332 70.8651L74.6243 72.9495M75.2199 70.2695L75.8154 71.4606" stroke="#563B00"/>
<path d="M55.7585 9.88869L52.7941 8.4366C51.7702 7.93508 50.5693 8.65392 50.5276 9.79323L50.4408 12.1653C50.4242 12.6181 50.6035 13.0562 50.9329 13.3674L58.3697 20.3953C58.6597 20.6694 59.0431 20.8232 59.4422 20.8255L69.4771 20.8834C70.4049 20.8888 71.1362 20.0949 71.0549 19.1706L70.8863 17.2548C70.8427 16.7591 70.5673 16.3131 70.1435 16.0521L59.7526 9.65143C59.3622 9.41095 58.8864 9.35257 58.4494 9.49152L56.9285 9.97519C56.5419 10.0981 56.1228 10.0671 55.7585 9.88869Z" fill="#FFE52F" stroke="#563B00" stroke-width="0.787391"/>
<path d="M73.8098 22.5499L67.8013 19.4779C67.2945 19.2189 66.6875 19.2533 66.2134 19.5681L24.9238 46.9807C23.9708 47.6134 23.9891 49.019 24.9582 49.6268L26.2505 50.4374C26.6684 50.6994 26.9393 51.1421 26.9825 51.6334L27.2415 54.576C27.2809 55.0237 27.5097 55.4333 27.8704 55.7016L31.4128 58.3364L37.828 62.8751C38.2287 63.1586 38.7385 63.239 39.207 63.0927L41.4003 62.4077C41.8505 62.2671 42.34 62.3357 42.7343 62.5946L45.8905 64.6676C46.2907 64.9305 46.7887 64.997 47.2438 64.8484L60.1009 60.6504C60.7487 60.4389 61.1869 59.8348 61.1869 59.1533L61.1868 57.3715C61.1868 56.6974 61.6158 56.0981 62.2539 55.8808L67.4659 54.1057C68.1143 53.8849 68.5456 53.2702 68.5327 52.5852L68.5041 51.077C68.491 50.3858 68.9303 49.7669 69.5871 49.5511L71.2717 48.9976C71.9549 48.7732 72.3993 48.1144 72.3515 47.3969L71.9739 41.7277C71.929 41.0535 72.3192 40.4258 72.9437 40.1677L74.3641 39.5807C74.9783 39.3268 75.367 38.7148 75.3357 38.0509L74.666 23.8777C74.6393 23.3136 74.3127 22.8069 73.8098 22.5499Z" fill="#FFE52F" stroke="#563B00" stroke-width="0.787391"/>
<mask id="mask1_1376_2466" style="mask-type:alpha" maskUnits="userSpaceOnUse" x="23" y="18" width="53" height="48">
<path d="M73.8132 22.5499L67.8047 19.4779C67.298 19.2189 66.6909 19.2533 66.2168 19.5681L24.9272 46.9807C23.9743 47.6134 23.9925 49.019 24.9616 49.6268L26.2539 50.4374C26.6718 50.6994 26.9427 51.1421 26.9859 51.6334L27.2449 54.576C27.2843 55.0237 27.5131 55.4333 27.8738 55.7016L31.4162 58.3364L37.8314 62.8751C38.2321 63.1586 38.742 63.239 39.2104 63.0927L41.4037 62.4077C41.8539 62.2671 42.3435 62.3357 42.7377 62.5946L45.8939 64.6676C46.2941 64.9305 46.7921 64.997 47.2472 64.8484L60.1043 60.6504C60.7521 60.4389 61.1904 59.8348 61.1903 59.1533L61.1902 57.3715C61.1902 56.6974 61.6192 56.0981 62.2573 55.8808L67.4693 54.1057C68.1177 53.8849 68.549 53.2702 68.5361 52.5852L68.5075 51.077C68.4945 50.3858 68.9337 49.7669 69.5905 49.5511L71.2751 48.9976C71.9583 48.7732 72.4027 48.1144 72.3549 47.3969L71.9773 41.7277C71.9324 41.0535 72.3226 40.4258 72.9471 40.1677L74.3676 39.5807C74.9817 39.3268 75.3705 38.7148 75.3391 38.0509L74.6694 23.8777C74.6428 23.3136 74.3161 22.8069 73.8132 22.5499Z" fill="url(#paint0_linear_1376_2466)" stroke="url(#paint1_linear_1376_2466)" stroke-width="0.787391"/>
</mask>
<g mask="url(#mask1_1376_2466)">
<path d="M58.7273 58.5833L53.8942 55.3848C53.6054 55.1937 53.2616 55.1031 52.9161 55.1271L43.4011 55.7869C43.0364 55.8122 42.6742 55.7098 42.3768 55.4973L28.8502 45.8345C28.5261 45.603 28.1263 45.5028 27.7313 45.5543L21.226 46.402C19.9298 46.5709 19.3918 48.1543 20.3168 49.0779L38.4003 67.1349C38.8223 67.5563 39.446 67.7032 40.0117 67.5143L58.3569 61.3903C59.6019 60.9747 59.8219 59.3077 58.7273 58.5833Z" fill="#563B00"/>
<path d="M61.7119 56.6485L55.6247 52.5158C54.64 51.8474 54.7242 50.3703 55.7784 49.818L58.9641 48.1491C59.4824 47.8776 60.1085 47.9158 60.5899 48.2483L66.8556 52.576C67.8703 53.2769 67.7222 54.8193 66.5926 55.3142L63.2284 56.788C62.7325 57.0053 62.1598 56.9526 61.7119 56.6485Z" fill="#563B00"/>
<path d="M68.7272 50.6875L62.3261 46.3418C61.4608 45.7543 61.398 44.5021 62.2002 43.831L62.766 43.3577C63.3091 42.9034 64.0887 42.8674 64.6714 43.2699L71.1016 47.7112C72.0294 48.3521 72.0027 49.7319 71.0507 50.3364L70.4559 50.7141C69.9259 51.0506 69.2466 51.0402 68.7272 50.6875Z" fill="#563B00"/>
<path d="M71.9821 40.8946L65.1369 36.4588C64.3376 35.9408 64.1775 34.8372 64.7967 34.1134L65.1067 33.7511C65.6273 33.1427 66.5216 33.0217 67.1851 33.4701L74.0679 38.1215C75.1036 38.8214 74.9502 40.391 73.7986 40.8771L73.4509 41.0238C72.9701 41.2268 72.42 41.1784 71.9821 40.8946Z" fill="#563B00"/>
</g>
<path d="M49.6783 7.35524L37.6102 11.3438C36.8754 11.5866 36.426 12.3273 36.5499 13.0912L36.7251 14.1714C36.8492 14.9363 36.3984 15.6778 35.6622 15.9197L30.3576 17.6624C29.6042 17.9099 29.1523 18.679 29.303 19.4576L29.4698 20.3199C29.6134 21.0621 29.2093 21.8017 28.5071 22.0817L26.2458 22.9835C25.5679 23.2539 25.1645 23.9548 25.2714 24.6768L26.0388 29.8624C26.1491 30.6072 25.7168 31.3257 25.0072 31.5773L22.7906 32.363C22.1286 32.5977 21.702 33.2425 21.7449 33.9436L22.5374 46.8875C22.6023 47.9473 23.6814 48.6384 24.674 48.2613C25.6698 47.8829 26.7516 48.5797 26.8111 49.6433L27.0501 53.911C27.1005 54.8099 28.0189 55.3934 28.854 55.057C29.6227 54.7474 30.4827 55.2177 30.6369 56.032L30.7683 56.726C30.9457 57.6628 31.9082 58.2283 32.8128 57.9273L36.319 56.7608C37.2706 56.4441 38.2718 57.0859 38.3815 58.0828L38.421 58.4419C38.5293 59.4264 39.5087 60.0677 40.4544 59.7733L52.97 55.8776C53.619 55.6755 54.0651 55.08 54.0765 54.4004L54.1107 52.364C54.1218 51.6998 54.5487 51.1139 55.1776 50.8998L60.2765 49.1632C60.9863 48.9215 61.4273 48.2127 61.3304 47.469L61.2027 46.4897C61.1121 45.7945 61.4921 45.1231 62.1348 44.8428L64.3747 43.8659C65.0115 43.5882 65.3911 42.926 65.3089 42.2361L64.6891 37.0346C64.6013 36.2974 65.0403 35.5989 65.7427 35.3584L67.6441 34.7073C68.3205 34.4757 68.756 33.8173 68.7046 33.1041L67.7926 20.4616C67.7222 19.4854 66.7358 18.849 65.8174 19.1872C64.8839 19.531 63.8855 18.8683 63.8398 17.8746L63.629 13.2883C63.5866 12.3673 62.6474 11.7639 61.7922 12.1084C61.035 12.4134 60.1836 11.9753 59.9915 11.182L59.7638 10.2418C59.5469 9.34611 58.6106 8.82726 57.7361 9.11821L53.9207 10.3877C53.0462 10.6786 52.1099 10.1598 51.8929 9.26404L51.703 8.47985C51.4864 7.58534 50.5522 7.06643 49.6783 7.35524Z" fill="white" stroke="#563B00" stroke-width="0.787391"/>
<path d="M31.387 30.3431L33.9963 25.8095C34.0159 25.7754 34.0483 25.7504 34.0864 25.7399L54.3505 20.1644C55.1182 19.9532 55.7553 20.7657 55.3603 21.4521L52.751 25.9858C52.7314 26.0198 52.699 26.0448 52.6609 26.0553L32.3968 31.6308C31.6291 31.842 30.992 31.0295 31.387 30.3431Z" fill="url(#paint2_linear_1376_2466)"/>
<path d="M58.0388 31.1873L53.4776 28.6266C53.4433 28.6073 53.4027 28.6024 53.3646 28.6129L33.1005 34.1884C32.3328 34.3996 32.201 35.4237 32.8916 35.8114L37.4528 38.3721C37.4871 38.3913 37.5277 38.3962 37.5658 38.3858L57.8299 32.8103C58.5976 32.5991 58.7294 31.575 58.0388 31.1873Z" fill="url(#paint3_linear_1376_2466)"/>
<path d="M35.5701 45.5465L38.1794 41.0129C38.199 40.9789 38.2314 40.9538 38.2695 40.9434L58.5336 35.3679C59.3013 35.1567 59.9384 35.9692 59.5434 36.6556L56.9341 41.1892C56.9145 41.2233 56.882 41.2483 56.844 41.2588L36.5799 46.8342C35.8122 47.0455 35.1751 46.2329 35.5701 45.5465Z" fill="url(#paint4_linear_1376_2466)"/>
<path d="M33.2332 58.6555C14.1757 49.6032 2.46328 58.2585 -1.01074 63.7176L-1.01074 82.4774L27.8732 79.4996C34.4242 75.033 54.6728 73.2464 63.3082 72.6509C71.9436 72.0553 72.2414 67.5887 71.0503 63.7176C69.8592 59.8466 60.6283 57.7622 49.6107 59.5488C40.8849 60.9638 35.9131 59.5488 33.2332 58.6555Z" fill="#FFE3B1"/>
<path d="M-1.01074 63.7176C2.46328 58.2585 14.1757 49.6032 33.2332 58.6555C35.9131 59.5488 40.8849 60.9638 49.6107 59.5488C60.6283 57.7622 69.8592 59.8466 71.0503 63.7176C72.2414 67.5887 71.9437 72.0553 63.3082 72.6509C54.6728 73.2464 34.4242 75.033 27.8732 79.4996" stroke="#563B00"/>
<path d="M48.7158 66.1002L49.3114 71.1623M51.3958 64.6113C51.495 66.5965 51.7531 70.7455 51.9913 71.4601M53.4802 65.5046L54.0757 71.1623" stroke="#563B00"/>
<path d="M66.8843 62.2285C64.8992 61.9307 60.8098 62.0498 60.3333 64.9084C59.7378 68.4817 60.0356 70.8638 62.4178 71.4594" stroke="#563B00"/>
</g>
<defs>
<linearGradient id="paint0_linear_1376_2466" x1="57.7564" y1="16.1753" x2="42.6193" y2="64.6222" gradientUnits="userSpaceOnUse">
<stop stop-color="#013328"/>
<stop offset="1" stop-color="#0B1B2A"/>
</linearGradient>
<linearGradient id="paint1_linear_1376_2466" x1="77.2193" y1="22.2564" x2="35.1478" y2="9.11166" gradientUnits="userSpaceOnUse">
<stop stop-color="#11ED95"/>
<stop offset="1" stop-color="#00DBFF"/>
</linearGradient>
<linearGradient id="paint2_linear_1376_2466" x1="35.3185" y1="45.6255" x2="57.1423" y2="19.3963" gradientUnits="userSpaceOnUse">
<stop stop-color="#CB47E7"/>
<stop offset="1" stop-color="#14F4B2"/>
</linearGradient>
<linearGradient id="paint3_linear_1376_2466" x1="35.3185" y1="45.6255" x2="57.1423" y2="19.3963" gradientUnits="userSpaceOnUse">
<stop stop-color="#CB47E7"/>
<stop offset="1" stop-color="#14F4B2"/>
</linearGradient>
<linearGradient id="paint4_linear_1376_2466" x1="35.3185" y1="45.6255" x2="57.1423" y2="19.3963" gradientUnits="userSpaceOnUse">
<stop stop-color="#CB47E7"/>
<stop offset="1" stop-color="#14F4B2"/>
</linearGradient>
</defs>
</svg>
