<svg viewBox="0 0 478 357" fill="none" xmlns="http://www.w3.org/2000/svg">
    <path fill-rule="evenodd" clip-rule="evenodd"
        d="M132.557 133.57C144.734 148.66 161.232 162.383 180.551 162.383C213.662 162.383 225.668 103.325 228.074 68.8869C219.484 64.7269 213.558 55.9141 213.558 45.7148C213.558 31.5087 225.054 19.9923 239.234 19.9923C253.414 19.9923 264.91 31.5087 264.91 45.7148C264.91 55.7346 259.191 64.4162 250.845 68.6629C253.215 103.068 265.2 162.383 298.384 162.383C317.703 162.383 334.2 148.66 346.377 133.57C349.256 130.004 351.893 126.36 354.268 122.804C358.548 116.397 361.98 110.272 364.449 105.383C363.605 105.118 362.791 104.763 362.014 104.314C361.627 104.09 361.255 103.846 360.899 103.584C359.577 102.609 358.472 101.376 357.586 99.9368C356.577 98.2968 355.853 96.3887 355.418 94.2885C354.012 87.5065 355.617 78.7215 360.358 70.4952C368.202 56.8837 381.662 49.9562 390.42 55.0222C399.179 60.0881 399.92 75.2292 392.076 88.8406C391.363 90.0766 390.605 91.2575 389.807 92.3793C384.928 99.2455 378.604 103.898 372.605 105.425C372.193 106.557 371.792 107.721 371.405 108.908C368.017 119.306 365.711 131.512 366.344 140.36C366.92 148.418 369.934 153.691 376.786 152.277C377.277 152.176 377.776 152.042 378.283 151.875C379.489 151.479 380.738 150.903 382.017 150.172C395.718 142.34 412.981 116.653 420.493 102.401C420.28 102.153 420.083 101.889 419.904 101.611C418.952 100.129 418.593 98.3665 418.758 96.4543C419.235 90.9285 424.09 84.1499 431.668 79.2627C441.869 72.6844 453.14 72.0242 456.844 77.7882C460.548 83.5522 455.281 93.5577 445.08 100.136C444.674 100.398 444.265 100.651 443.855 100.895C443.005 101.4 442.151 101.865 441.296 102.288C439.197 103.992 436.69 106.448 433.897 109.493C423.493 120.836 409.109 140.356 396.96 159.627C395.531 161.894 394.005 164.45 392.421 167.238C375.71 196.652 352.46 251.887 366.699 265.732C370.062 265.426 377.153 266.375 376.786 276.297C375.126 321.213 279.468 336.364 242.493 336.988C204.223 337.634 103.866 322.745 102.148 276.297C101.782 266.375 108.873 265.426 112.235 265.732C126.474 251.887 103.225 196.652 86.5132 167.238C84.9291 164.45 83.4037 161.894 81.9746 159.627C69.5666 139.945 54.8268 120.004 44.3773 108.779C42.3159 106.564 40.4216 104.689 38.745 103.222C37.7003 102.783 36.65 102.282 35.6029 101.72C34.7042 101.237 33.8078 100.709 32.9196 100.136C22.719 93.5577 17.4522 83.5522 21.1559 77.7882C24.8596 72.0242 36.1312 72.6844 46.3318 79.2627C53.3763 83.8057 58.0678 89.9832 59.0767 95.2694C59.5287 97.6377 59.2415 99.8271 58.0956 101.611C58.0831 101.63 58.0706 101.649 58.058 101.668C65.3522 115.754 82.9779 142.204 96.9174 150.172C98.1968 150.903 99.4451 151.479 100.652 151.875C101.158 152.042 101.657 152.176 102.148 152.278C109.001 153.691 112.014 148.418 112.591 140.36C113.23 131.423 110.871 119.061 107.427 108.596C107.098 107.596 106.759 106.613 106.412 105.652C100.458 104.479 94.0791 100.132 89.0443 93.5211C87.937 92.0672 86.8947 90.5038 85.9362 88.8406C78.0919 75.2292 78.8331 60.0881 87.5916 55.0222C96.3502 49.9562 109.809 56.8837 117.654 70.4952C121.991 78.0213 123.703 86.015 122.887 92.5147C122.487 95.7031 121.478 98.5319 119.872 100.77C118.919 102.097 117.756 103.216 116.386 104.08C116.258 104.16 116.129 104.238 115.998 104.314M60.8236 65.0363C61.9072 55.3392 66.4417 44.1702 77.6136 37.7083C89.844 30.6342 102.974 33.2823 112.085 37.9719C121.416 42.7744 129.385 50.8663 134.936 60.499C140.487 70.1317 143.498 81.0917 142.984 91.5882C142.731 96.7513 141.521 102.54 138.819 107.918C142.788 114.274 147.727 121.12 153.395 127.099C163.225 137.466 172.486 142.39 180.551 142.39C182.184 142.39 184.224 141.89 187.209 138.774C190.517 135.32 194.019 129.525 197.241 121.27C202.318 108.259 205.489 92.3146 207.153 78.2208C198.799 69.9458 193.602 58.4478 193.602 45.7148C193.602 20.4672 214.032 0 239.234 0C264.436 0 284.866 20.4672 284.866 45.7148C284.866 58.2343 279.84 69.5605 271.732 77.8019C273.377 91.9544 276.548 108.04 281.653 121.166C284.877 129.453 288.386 135.279 291.705 138.753C294.702 141.889 296.749 142.39 298.384 142.39C306.407 142.39 315.617 137.519 325.406 127.24C330.889 121.481 335.696 114.902 339.61 108.723C336.614 103.121 335.293 97.0097 335.028 91.5882C334.514 81.0917 337.524 70.1317 343.076 60.499C348.627 50.8663 356.596 42.7744 365.927 37.9719C375.038 33.2823 388.168 30.6342 400.398 37.7083C411.567 44.1684 416.102 55.3329 417.187 65.0281C418.382 64.1219 419.611 63.2622 420.867 62.4522C428.31 57.6518 436.949 54.4413 445.528 53.9388C453.402 53.4776 466.152 55.3377 473.624 66.9669C481.096 78.596 477.508 90.9928 473.828 97.9824C469.82 105.598 463.326 112.146 455.882 116.946C454.807 117.64 453.717 118.294 452.617 118.907C449.359 121.921 443.885 128.072 436.983 137.028C429.467 146.779 421.22 158.584 413.833 170.303C406.37 182.139 395.574 203.51 388.633 223.409C385.142 233.417 382.995 242.022 382.396 248.331C382.361 248.702 382.332 249.051 382.309 249.38C382.953 249.74 383.597 250.133 384.238 250.563C393.314 256.646 397.111 266.689 396.728 277.037C396.023 296.128 385.188 310.414 372.679 320.323C360.307 330.123 344.568 337.147 329.123 342.241C298.148 352.457 262.951 356.638 242.829 356.977C221.764 357.333 184.96 353.527 152.645 343.38C136.515 338.315 120.114 331.249 107.233 321.297C94.2204 311.244 82.9313 296.654 82.2061 277.037C81.8235 266.689 85.6205 256.646 94.6966 250.563C95.3374 250.133 95.9812 249.74 96.6252 249.38C96.602 249.051 96.5733 248.702 96.5382 248.331C95.9399 242.022 93.7928 233.417 90.3017 223.409C83.3603 203.51 72.5641 182.139 65.102 170.303C51.4297 148.615 35.9077 128.325 27.4779 120.019C25.6606 119.101 23.8691 118.076 22.118 116.947C14.6742 112.146 8.18029 105.598 4.17177 97.9825C0.492449 90.9928 -3.0964 78.596 4.37596 66.9669C11.8483 55.3377 24.5979 53.4776 32.4722 53.9388C41.0509 54.4413 49.6897 57.6518 57.1335 62.4522C58.3932 63.2646 59.6257 64.1271 60.8236 65.0363ZM124.438 122.462C120.184 116.058 116.782 109.955 114.347 105.107L124.438 122.462ZM132.557 133.57C129.586 129.889 126.873 126.126 124.438 122.462L132.557 133.57ZM128.049 127.669C140.51 144.877 158.731 162.383 180.551 162.383C213.662 162.383 225.668 103.325 228.074 68.8869C219.484 64.7269 213.558 55.9141 213.558 45.7148C213.558 31.5087 225.054 19.9923 239.234 19.9923C253.414 19.9923 264.91 31.5087 264.91 45.7148C264.91 55.7346 259.191 64.4162 250.845 68.6629C253.215 103.068 265.2 162.383 298.384 162.383C320.204 162.383 338.424 144.877 350.886 127.669C352.901 124.886 354.765 122.111 356.47 119.42C359.738 114.259 362.419 109.403 364.449 105.383C363.605 105.118 362.791 104.763 362.014 104.314C361.627 104.09 361.255 103.846 360.899 103.584C359.585 102.615 358.484 101.39 357.601 99.9608C353.317 93.0282 354.142 81.2814 360.358 70.4952C368.202 56.8837 381.662 49.9562 390.42 55.0222C399.179 60.0881 399.92 75.2292 392.076 88.8406C390.609 91.3848 388.947 93.6955 387.156 95.738C382.751 100.761 377.566 104.162 372.605 105.425C372.193 106.557 371.792 107.721 371.405 108.908C368.837 116.788 366.891 125.707 366.375 133.416C365.589 145.141 368.112 154.067 376.786 152.277C379.494 151.719 382.45 150.145 385.521 147.85C398.537 138.124 413.609 115.461 420.493 102.401C420.28 102.153 420.083 101.889 419.904 101.611C419.848 101.523 419.794 101.435 419.742 101.345C416.362 95.5436 421.622 85.7412 431.668 79.2627C441.869 72.6844 453.14 72.0242 456.844 77.7882C460.548 83.5522 455.281 93.5577 445.08 100.136C443.83 100.943 442.563 101.66 441.296 102.288C439.731 103.558 437.941 105.245 435.975 107.282C435.302 107.979 434.609 108.717 433.897 109.493C423.653 120.662 409.55 139.759 397.521 158.739C397.334 159.035 397.146 159.331 396.96 159.627C380.454 185.809 351.11 250.574 366.699 265.732C370.062 265.426 377.153 266.375 376.786 276.297C375.126 321.213 279.468 336.364 242.493 336.988C204.223 337.634 103.866 322.745 102.148 276.297C101.782 266.375 108.873 265.426 112.235 265.732C127.824 250.574 98.4804 185.809 81.9746 159.627C81.7883 159.331 81.6016 159.036 81.4142 158.74C69.1251 139.348 54.6698 119.835 44.3773 108.779C43.9105 108.277 43.4525 107.793 43.0034 107.327C41.4693 105.736 40.0419 104.357 38.745 103.222C36.8037 102.406 34.8426 101.376 32.9196 100.136C22.719 93.5577 17.4522 83.5522 21.1559 77.7882C24.8596 72.0242 36.1312 72.6844 46.3318 79.2627C56.0053 85.5011 61.2419 94.8216 58.5987 100.684C58.4546 101.003 58.287 101.313 58.0956 101.611C58.0831 101.63 58.0706 101.649 58.058 101.668C64.7527 114.596 80.1507 137.94 93.4138 147.85C96.4847 150.145 99.4409 151.719 102.148 152.278C110.823 154.067 113.346 145.141 112.56 133.416C112.037 125.605 110.045 116.552 107.427 108.596C107.098 107.596 106.759 106.613 106.412 105.652C101.863 104.756 97.067 102.007 92.8113 97.812C90.2711 95.3081 87.9234 92.2888 85.9362 88.8406C78.0919 75.2292 78.8331 60.0881 87.5916 55.0222C96.3502 49.9562 109.809 56.8837 117.654 70.4952C123.581 80.781 124.607 91.9403 120.974 98.9654C120.645 99.602 120.277 100.205 119.872 100.77C118.919 102.097 117.756 103.216 116.386 104.08C116.258 104.16 116.129 104.238 115.998 104.314C115.465 104.622 114.913 104.886 114.347 105.107C116.35 109.094 119.007 113.931 122.254 119.085C124.015 121.881 125.951 124.771 128.049 127.669ZM134.205 108.035C138.476 115.112 144.011 123.007 150.501 129.853C160.63 140.536 170.872 146.389 180.551 146.389C183.513 146.389 186.537 145.25 190.089 141.542C193.899 137.565 197.637 131.237 200.958 122.726C206.438 108.682 209.725 91.4818 211.345 76.6893C202.913 69.0651 197.594 58.0209 197.594 45.7148C197.594 22.6755 216.237 3.99847 239.234 3.99847C262.232 3.99847 280.875 22.6755 280.875 45.7148C280.875 57.8131 275.732 68.6926 267.548 76.3004C269.148 91.1363 272.431 108.467 277.935 122.618C281.257 131.16 285.002 137.519 288.823 141.517C292.385 145.246 295.417 146.389 298.384 146.389C308.014 146.389 318.203 140.596 328.294 130C334.611 123.365 340.032 115.725 344.272 108.789C340.804 103.333 339.291 97.046 339.014 91.3923C338.543 81.7711 341.307 71.5655 346.532 62.4982C351.758 53.4309 359.198 45.9305 367.751 41.5285C376.128 37.2168 387.743 35.0052 398.403 41.1711C409.063 47.337 412.958 58.5196 413.42 67.9435C413.515 69.8848 413.478 71.8499 413.316 73.8247C416.174 70.8114 419.469 68.1087 423.027 65.8143C430.002 61.3161 437.987 58.3858 445.761 57.9305C452.971 57.5082 463.92 59.2514 470.268 69.1311C476.616 79.0109 473.667 89.7167 470.298 96.1173C466.665 103.018 460.697 109.086 453.722 113.584C452.589 114.315 451.44 114.998 450.281 115.631C446.733 118.831 440.941 125.35 433.824 134.584C426.228 144.439 417.91 156.348 410.458 168.167C402.838 180.255 391.909 201.899 384.865 222.09C381.327 232.232 379.065 241.183 378.423 247.953C378.273 249.539 378.228 250.811 378.239 251.819C379.496 252.366 380.765 253.046 382.019 253.886C389.709 259.04 393.083 267.618 392.74 276.889C392.093 294.407 382.167 307.71 370.204 317.187C358.351 326.576 343.105 333.42 327.875 338.444C297.346 348.512 262.557 352.645 242.762 352.979C222.083 353.328 185.708 349.571 153.839 339.564C137.926 334.568 122.025 327.676 109.671 318.131C97.2109 308.505 86.8608 294.905 86.1947 276.889C85.852 267.618 89.2258 259.04 96.9161 253.886C98.1694 253.046 99.4388 252.366 100.696 251.819C100.707 250.811 100.662 249.539 100.512 247.953C99.8697 241.184 97.6076 232.232 94.0696 222.09C87.0264 201.899 76.097 180.255 68.4767 168.167C54.58 146.124 38.5672 125.166 29.8106 116.715C27.9364 115.795 26.086 114.75 24.2785 113.584C17.3034 109.086 11.3349 103.018 7.70232 96.1173C4.3331 89.7167 1.38387 79.0109 7.73212 69.1311C14.0804 59.2514 25.0288 57.5082 32.2394 57.9305C40.0136 58.3858 47.9983 61.3161 54.9733 65.8143C58.5363 68.1121 61.8367 70.8195 64.6972 73.8383C64.5342 71.8589 64.4972 69.8892 64.5924 67.9435C65.0537 58.5196 68.9492 47.337 79.6094 41.1711C90.2696 35.0052 101.884 37.2168 110.261 41.5285C118.814 45.9305 126.254 53.4309 131.48 62.4982C136.705 71.5655 139.469 81.7711 138.998 91.3923C138.734 96.7871 137.344 102.758 134.205 108.035ZM122.761 119.885C135.041 139.136 155.406 162.383 180.551 162.383C213.662 162.383 225.668 103.325 228.074 68.8869C219.484 64.7269 213.558 55.9141 213.558 45.7148C213.558 31.5087 225.054 19.9923 239.234 19.9923C253.414 19.9923 264.91 31.5087 264.91 45.7148C264.91 55.7346 259.191 64.4162 250.845 68.6629C253.215 103.068 265.2 162.383 298.384 162.383C323.529 162.383 343.894 139.136 356.174 119.885C357.017 118.564 357.822 117.261 358.588 115.985C360.912 112.114 362.876 108.497 364.449 105.383C363.605 105.118 362.791 104.763 362.014 104.314C361.627 104.09 361.255 103.846 360.899 103.584C360.808 103.516 360.717 103.448 360.628 103.377C353.199 97.5692 352.95 83.3501 360.358 70.4952C368.202 56.8837 381.662 49.9562 390.42 55.0222C399.179 60.0881 399.92 75.2292 392.076 88.8406C388.623 94.8316 384.083 99.5276 379.334 102.476C377.107 103.859 374.833 104.858 372.605 105.425C372.193 106.557 371.792 107.721 371.405 108.908C369.8 113.833 368.439 119.164 367.517 124.351C364.719 140.089 365.973 154.508 376.786 152.277C383.973 150.795 392.914 142.154 401.093 131.889C404.214 127.972 407.224 123.819 409.983 119.737C414.264 113.404 417.941 107.243 420.493 102.401C420.28 102.153 420.083 101.889 419.904 101.611C416.201 95.8465 421.468 85.8411 431.668 79.2627C441.869 72.6844 453.14 72.0242 456.844 77.7882C460.548 83.5522 455.281 93.5577 445.08 100.136C443.83 100.943 442.563 101.66 441.296 102.288C436.03 106.562 428.201 115.571 419.709 126.741C416.75 130.633 413.71 134.788 410.671 139.096C406.004 145.709 401.337 152.684 396.96 159.627C380.454 185.809 351.11 250.574 366.699 265.732C370.062 265.426 377.153 266.375 376.786 276.297C375.126 321.213 279.468 336.364 242.493 336.988C204.223 337.634 103.866 322.745 102.148 276.297C101.782 266.375 108.873 265.426 112.235 265.732C127.824 250.574 98.4804 185.809 81.9746 159.627C77.5978 152.684 72.9309 145.709 68.2644 139.096C65.2246 134.788 62.1851 130.634 59.2261 126.742C51.3097 116.329 43.9697 107.794 38.745 103.222C36.8037 102.406 34.8426 101.376 32.9196 100.136C22.719 93.5577 17.4522 83.5522 21.1559 77.7882C24.8596 72.0242 36.1312 72.6844 46.3318 79.2627C56.5325 85.8411 61.7993 95.8465 58.0956 101.611C58.0831 101.63 58.0706 101.649 58.058 101.668C60.618 106.612 64.4506 113.078 68.9497 119.734C71.7111 123.819 74.7236 127.976 77.8471 131.895C86.0248 142.157 94.9632 150.796 102.148 152.278C112.962 154.508 114.215 140.089 111.418 124.351C110.477 119.054 109.076 113.607 107.427 108.596C107.098 107.596 106.759 106.613 106.412 105.652C104.306 105.237 102.148 104.425 100.014 103.257C94.7875 100.394 89.7115 95.3915 85.9362 88.8406C78.0919 75.2292 78.8331 60.0881 87.5916 55.0222C96.3502 49.9562 109.809 56.8837 117.654 70.4952C124.817 82.9247 124.821 96.6297 118.098 102.774C117.569 103.257 116.998 103.694 116.386 104.08C116.258 104.16 116.129 104.238 115.998 104.314C115.465 104.622 114.913 104.886 114.347 105.107C115.899 108.197 117.844 111.797 120.152 115.659C120.976 117.038 121.846 118.451 122.761 119.885ZM129.498 107.925C134.034 115.717 140.201 124.794 147.608 132.606C158.035 143.605 169.259 150.387 180.551 150.387C184.842 150.387 188.849 148.611 192.968 144.311C197.281 139.809 201.254 132.948 204.675 124.182C210.586 109.034 213.977 90.4879 215.533 75.0203C207.035 68.1139 201.585 57.5592 201.585 45.7148C201.585 24.8838 218.441 7.99694 239.234 7.99694C260.027 7.99694 276.883 24.8838 276.883 45.7148C276.883 57.3578 271.616 67.7551 263.366 74.6648C264.902 90.1603 268.286 108.823 274.216 124.07C277.638 132.868 281.617 139.759 285.939 144.282C290.068 148.604 294.085 150.387 298.384 150.387C309.62 150.387 320.789 143.673 331.182 132.76C338.433 125.144 344.505 116.304 349.033 108.615C345.034 103.485 343.289 97.0931 343.001 91.1965C342.573 82.4506 345.089 72.9993 349.989 64.4975C354.888 55.9956 361.8 49.0865 369.575 45.085C377.218 41.1512 387.317 39.3762 396.407 44.6339C405.497 49.8915 409.012 59.5414 409.433 68.1393C409.861 76.8852 407.345 86.3364 402.445 94.8383C397.507 103.406 390.349 110.604 382.167 114.602C379.747 122.564 378.177 131.146 378.214 137.492C378.215 137.786 378.22 138.067 378.229 138.333C378.919 137.823 379.699 137.202 380.568 136.449C383.927 133.537 387.646 129.504 391.435 124.781C397.485 117.238 403.147 108.649 407.181 101.703C405.854 95.5342 407.711 89.4586 409.981 85.1466C413.238 78.9599 418.681 73.3724 425.187 69.1764C431.694 64.9805 439.024 62.3303 445.994 61.9221C452.541 61.5387 461.688 63.1651 466.912 71.2954C472.136 79.4257 469.827 88.4407 466.768 94.2522C463.511 100.439 458.068 106.026 451.562 110.222C450.382 110.983 449.185 111.687 447.978 112.332C444.116 115.727 437.989 122.637 430.665 132.14C422.988 142.1 414.598 154.112 407.084 166.032C399.305 178.37 388.243 200.288 381.098 220.771C377.513 231.047 375.135 240.345 374.45 247.575C374.133 250.921 374.234 253.187 374.44 254.672C376.197 255.21 378.022 256.018 379.799 257.209C386.104 261.435 389.055 268.548 388.752 276.741C388.162 292.687 379.145 305.006 367.728 314.05C356.394 323.029 341.642 329.693 326.627 334.646C296.544 344.567 262.163 348.653 242.694 348.982C222.401 349.324 186.456 345.616 155.032 335.749C139.337 330.821 123.936 324.103 112.108 314.965C100.201 305.766 90.79 293.156 90.1831 276.741C89.8802 268.548 92.8309 261.435 99.1355 257.209C100.913 256.018 102.738 255.21 104.494 254.672C104.7 253.187 104.802 250.921 104.485 247.575C103.799 240.345 101.422 231.048 97.8373 220.771C90.6923 200.288 79.6296 178.371 71.8512 166.032C57.7252 143.625 41.202 121.972 32.1073 113.385C30.1902 112.474 28.2922 111.418 26.4387 110.222C19.9324 106.026 14.4893 100.439 11.2326 94.2522C8.17352 88.4407 5.8639 79.4257 11.088 71.2954C16.3122 63.1651 25.4595 61.5387 32.0064 61.9221C38.9761 62.3303 46.3066 64.9805 52.8129 69.1764C59.3193 73.3724 64.7624 78.9599 68.0191 85.1466C70.1371 89.1704 71.8959 94.7299 71.0435 100.468C75.0254 107.466 80.8605 116.442 87.156 124.351C90.9974 129.176 94.7858 133.32 98.2151 136.317C99.1453 137.13 99.9759 137.794 100.706 138.333C100.714 138.091 100.719 137.838 100.721 137.573C100.77 131.362 99.2662 122.971 96.9205 115.109C88.2595 111.216 80.6883 103.725 75.5669 94.8383C70.6673 86.3364 68.1507 76.8852 68.5788 68.1393C68.9996 59.5414 72.515 49.8915 81.6049 44.6339C90.6949 39.3762 100.794 41.1512 108.437 45.085C116.212 49.0865 123.124 55.9955 128.023 64.4975C132.923 72.9994 135.439 82.4506 135.011 91.1965C134.736 96.8317 133.13 102.919 129.498 107.925ZM118.132 112.188C129.49 132.249 151.923 162.383 180.551 162.383C213.662 162.383 225.668 103.325 228.074 68.8869C219.484 64.7269 213.558 55.9141 213.558 45.7148C213.558 31.5087 225.054 19.9923 239.234 19.9923C253.414 19.9923 264.91 31.5087 264.91 45.7148C264.91 55.7346 259.191 64.4162 250.845 68.6629C253.215 103.068 265.2 162.383 298.384 162.383C326.863 162.383 349.21 132.562 360.624 112.502C361.739 110.543 362.749 108.677 363.651 106.94C363.927 106.409 364.193 105.889 364.449 105.383C364.362 105.355 364.276 105.327 364.191 105.299C363.439 105.045 362.711 104.717 362.014 104.314C361.627 104.09 361.255 103.846 360.899 103.584C353.206 97.9126 352.86 83.5051 360.358 70.4952C368.202 56.8837 381.662 49.9562 390.42 55.0222C399.179 60.0881 399.92 75.2292 392.076 88.8406C387.219 97.2671 380.211 103.132 373.499 105.175C373.2 105.266 372.902 105.35 372.605 105.425C372.193 106.557 371.792 107.721 371.405 108.908C371.286 109.274 371.168 109.643 371.051 110.014C364.844 129.742 362.674 155.188 376.786 152.277C390.97 149.352 411.985 118.542 420.493 102.401C420.28 102.153 420.083 101.889 419.904 101.611C416.201 95.8465 421.468 85.8411 431.668 79.2627C441.869 72.6844 453.14 72.0242 456.844 77.7882C460.548 83.5522 455.281 93.5577 445.08 100.136C443.83 100.943 442.563 101.66 441.296 102.288C431.378 110.337 412.37 135.182 396.96 159.627C380.454 185.809 351.11 250.574 366.699 265.732C370.062 265.426 377.153 266.375 376.786 276.297C375.126 321.213 279.468 336.364 242.493 336.988C204.223 337.634 103.866 322.745 102.148 276.297C101.782 266.375 108.873 265.426 112.235 265.732C127.824 250.574 98.4804 185.809 81.9746 159.627C67.1189 136.062 48.9206 112.126 38.745 103.222C36.8037 102.406 34.8426 101.376 32.9196 100.136C22.719 93.5577 17.4522 83.5522 21.1559 77.7882C24.8596 72.0242 36.1312 72.6844 46.3318 79.2627C56.5325 85.8411 61.7993 95.8465 58.0956 101.611C58.0831 101.63 58.0706 101.649 58.058 101.668C66.3028 117.59 87.7472 149.307 102.148 152.278C116.26 155.188 114.09 129.742 107.884 110.014C107.734 109.538 107.581 109.065 107.427 108.596C107.098 107.596 106.759 106.613 106.412 105.652C106.14 105.599 105.868 105.539 105.595 105.472C98.5616 103.756 91.0539 97.7208 85.9362 88.8406C78.0919 75.2292 78.8331 60.0881 87.5916 55.0222C96.3502 49.9562 109.809 56.8837 117.654 70.4952C125.381 83.903 124.777 98.795 116.386 104.08C116.258 104.16 116.129 104.238 115.998 104.314C115.557 104.569 115.103 104.794 114.639 104.989C114.542 105.03 114.445 105.069 114.347 105.107C114.645 105.7 114.957 106.312 115.284 106.94C116.137 108.584 117.088 110.343 118.132 112.188ZM124.667 107.516C128.855 103.015 130.736 96.9082 131.025 91.0006C131.41 83.1301 129.141 74.4332 124.567 66.4967C119.993 58.5602 113.61 52.2426 106.613 48.6416C99.7048 45.0857 91.1202 43.7472 83.6005 48.0966C76.0808 52.4461 72.9455 60.5633 72.5651 68.3351C72.1799 76.2057 74.4495 84.9026 79.0233 92.8391C84.1761 101.78 91.8149 108.925 100.182 112.137C102.924 120.767 104.769 130.39 104.712 137.605C104.682 141.29 104.155 143.43 103.714 144.436C102.163 144.099 99.4158 142.673 95.5911 139.33C91.9168 136.118 87.9618 131.776 84.0355 126.844C77.2136 118.274 70.9303 108.497 66.8452 101.149C68.0294 96.1126 66.5676 90.9612 64.4886 87.0117C61.6079 81.5392 56.6903 76.4322 50.6526 72.5385C44.6149 68.6448 37.9385 66.2749 31.7735 65.9138C25.8902 65.5692 18.544 67.0788 14.444 73.4597C10.3439 79.8405 12.0139 87.1646 14.763 92.387C17.6437 97.8595 22.5613 102.967 28.599 106.86C30.4874 108.078 32.4205 109.136 34.3649 110.028C43.8089 118.739 60.8644 141.117 75.2257 163.897C83.1622 176.486 94.3581 198.677 101.605 219.452C105.237 229.863 107.729 239.506 108.458 247.197C108.976 252.655 108.503 256.021 107.815 257.981C105.768 258.341 103.505 259.091 101.355 260.533C96.436 263.829 93.9085 269.477 94.1715 276.593C94.7192 291.407 103.191 303.027 114.545 311.798C125.847 320.53 140.748 327.073 156.226 331.934C187.205 341.661 222.72 345.32 242.627 344.984C261.768 344.661 295.742 340.622 325.379 330.848C340.18 325.966 354.437 319.482 365.253 310.914C376.124 302.302 384.232 290.967 384.763 276.593C385.026 269.477 382.499 263.829 377.58 260.532C375.429 259.091 373.167 258.341 371.12 257.981C370.432 256.021 369.959 252.655 370.477 247.197C371.206 239.506 373.698 229.863 377.33 219.452C384.577 198.677 395.772 176.486 403.709 163.897C411.287 151.876 419.749 139.761 427.506 129.697C435.032 119.932 441.51 112.607 445.712 109.009C446.954 108.361 448.186 107.644 449.401 106.86C455.439 102.967 460.357 97.8595 463.237 92.387C465.986 87.1646 467.656 79.8405 463.556 73.4597C459.456 67.0788 452.11 65.5692 446.227 65.9138C440.062 66.2749 433.385 68.6448 427.348 72.5385C421.31 76.4322 416.392 81.5392 413.512 87.0117C411.279 91.2536 409.758 96.8821 411.462 102.266C407.296 109.611 401.155 119.047 394.546 127.286C390.672 132.115 386.785 136.348 383.18 139.473C379.431 142.722 376.742 144.106 375.221 144.435C374.773 143.416 374.244 141.245 374.222 137.515C374.181 130.183 376.087 120.401 378.891 111.705C386.818 108.323 394.032 101.439 398.989 92.8391C403.562 84.9026 405.832 76.2057 405.447 68.3351C405.066 60.5633 401.931 52.4461 394.411 48.0966C386.892 43.7472 378.307 45.0857 371.399 48.6416C364.402 52.2426 358.019 58.5602 353.445 66.4967C348.871 74.4332 346.602 83.1301 346.987 91.0006C347.289 97.1762 349.331 103.57 353.93 108.118C349.17 116.541 342.393 126.778 334.069 135.52C323.375 146.75 311.227 154.386 298.384 154.386C292.752 154.386 287.751 151.961 283.056 147.047C278.232 141.999 274.019 134.575 270.497 125.521C264.108 109.095 260.636 88.9929 259.187 72.8714C267.49 66.7387 272.892 56.8639 272.892 45.7148C272.892 27.0921 257.823 11.9954 239.234 11.9954C220.645 11.9954 205.576 27.0921 205.576 45.7148C205.576 57.0585 211.168 67.0826 219.719 73.1893C218.249 89.2983 214.768 109.3 208.392 125.638C204.872 134.66 200.663 142.053 195.848 147.08C191.162 151.971 186.171 154.386 180.551 154.386C167.645 154.386 155.441 146.674 144.714 135.36C136.258 126.442 129.41 115.995 124.667 107.516ZM58.058 101.668C66.3028 117.59 87.7472 149.307 102.148 152.278C117.327 155.408 113.669 125.732 106.412 105.652C99.1483 104.221 91.2527 98.0658 85.9362 88.8406C78.0919 75.2292 78.8331 60.0881 87.5916 55.0222C96.3502 49.9562 109.809 56.8837 117.654 70.4952C125.381 83.903 124.777 98.795 116.386 104.08C116.258 104.16 116.129 104.238 115.998 104.314C115.465 104.622 114.913 104.886 114.347 105.107C114.912 106.231 115.529 107.423 116.196 108.671C126.802 128.498 150.193 162.383 180.551 162.383C213.662 162.383 225.668 103.325 228.074 68.8869C219.484 64.7269 213.558 55.9141 213.558 45.7148C213.558 31.5087 225.054 19.9923 239.234 19.9923C253.414 19.9923 264.91 31.5087 264.91 45.7148C264.91 55.7346 259.191 64.4162 250.845 68.6629C253.215 103.068 265.2 162.383 298.384 162.383C328.59 162.383 351.898 128.836 362.579 108.969C363.253 107.715 363.877 106.516 364.449 105.383C363.605 105.118 362.791 104.763 362.014 104.314C361.627 104.09 361.255 103.846 360.899 103.584C353.206 97.9126 352.86 83.5051 360.358 70.4952C368.202 56.8837 381.662 49.9562 390.42 55.0222C399.179 60.0881 399.92 75.2292 392.076 88.8406C387.003 97.6418 379.584 103.648 372.605 105.425C365.293 125.507 361.55 155.42 376.786 152.277C390.97 149.352 411.985 118.542 420.493 102.401C420.28 102.153 420.083 101.889 419.904 101.611C416.201 95.8465 421.468 85.8411 431.668 79.2627C441.869 72.6844 453.14 72.0242 456.844 77.7882C460.548 83.5522 455.281 93.5577 445.08 100.136C443.83 100.943 442.563 101.66 441.296 102.288C431.378 110.337 412.37 135.182 396.96 159.627C380.454 185.809 351.11 250.574 366.699 265.732C370.062 265.426 377.153 266.375 376.786 276.297C375.126 321.213 279.468 336.364 242.493 336.988C204.223 337.634 103.866 322.745 102.148 276.297C101.782 266.375 108.873 265.426 112.235 265.732C127.824 250.574 98.4804 185.809 81.9746 159.627C67.1189 136.062 48.9206 112.126 38.745 103.222C36.8037 102.406 34.8426 101.376 32.9196 100.136C22.719 93.5577 17.4522 83.5522 21.1559 77.7882C24.8596 72.0242 36.1312 72.6844 46.3318 79.2627C56.5325 85.8411 61.7993 95.8465 58.0956 101.611C58.0831 101.63 58.0706 101.649 58.058 101.668ZM62.5398 101.601C64.0819 97.4545 63.0266 92.8061 60.9582 88.8769C58.4535 84.1185 54.0612 79.4921 48.4922 75.9006C42.9232 72.3092 36.901 70.2194 31.5405 69.9054C26.3209 69.5997 20.7759 70.9925 17.7999 75.6239C14.824 80.2554 15.8544 85.8886 18.2933 90.5219C20.7981 95.2802 25.1903 99.9067 30.7593 103.498C32.6711 104.731 34.6257 105.781 36.5792 106.642C46.3837 115.459 63.9963 138.597 78.6001 161.762C86.6949 174.602 98.024 197.066 105.373 218.133C109.051 228.678 111.658 238.667 112.431 246.818C113.123 254.108 112.255 258.961 110.412 261.707C108.381 261.807 105.862 262.322 103.574 263.856C100.041 266.224 97.9367 270.407 98.16 276.445C98.6484 289.658 106.182 300.288 116.983 308.632C127.757 316.957 142.159 323.326 157.42 328.118C187.953 337.705 223.039 341.315 242.56 340.986C261.374 340.668 294.94 336.677 324.13 327.05C338.717 322.239 352.48 315.934 362.777 307.777C373.103 299.598 380.301 289.246 380.775 276.445C380.998 270.406 378.894 266.224 375.361 263.856C373.072 262.322 370.554 261.807 368.523 261.707C366.68 258.961 365.812 254.108 366.503 246.818C367.276 238.667 369.883 228.678 373.562 218.132C380.911 197.066 392.24 174.602 400.335 161.762C407.976 149.64 416.509 137.422 424.347 127.253C432.071 117.232 438.916 109.47 443.484 105.662C444.746 105.019 446.002 104.297 447.241 103.498C452.81 99.9067 457.202 95.2802 459.707 90.5219C462.146 85.8886 463.176 80.2554 460.2 75.6239C457.224 70.9925 451.679 69.5997 446.46 69.9054C441.099 70.2194 435.077 72.3092 429.508 75.9006C423.939 79.4921 419.547 84.1185 417.042 88.8769C414.812 93.1131 413.759 98.1853 415.87 102.563C411.613 110.296 404.919 120.737 397.657 129.791C393.697 134.727 389.642 139.158 385.791 142.496C381.849 145.913 378.511 147.84 375.981 148.361C374.679 148.63 373.91 148.483 373.459 148.296C373.018 148.113 372.54 147.751 372.057 146.98C370.982 145.266 370.257 142.115 370.231 137.538C370.183 129.13 372.482 118.053 375.696 108.661C383.246 106.004 390.538 99.5061 395.532 90.8399C399.78 83.4687 401.803 75.5262 401.46 68.531C401.12 61.5851 398.365 55.0006 392.416 51.5594C386.466 48.1182 379.397 49.0201 373.222 52.1981C367.004 55.3986 361.15 61.1248 356.902 68.4959C352.654 75.867 350.631 83.8095 350.973 90.8048C351.294 97.351 353.759 103.576 359.022 107.152C354.13 116.241 346.568 128.187 336.957 138.279C325.961 149.827 312.833 158.384 298.384 158.384C291.42 158.384 285.434 155.318 280.173 149.812C274.847 144.239 270.399 136.282 266.778 126.973C259.89 109.263 256.348 87.5857 255.013 70.887C263.35 65.6313 268.901 56.3254 268.901 45.7148C268.901 29.3004 255.619 15.9939 239.234 15.9939C222.849 15.9939 209.567 29.3004 209.567 45.7148C209.567 56.5127 215.315 65.9592 223.899 71.1617C222.545 87.863 218.991 109.459 212.11 127.093C208.489 136.372 204.044 144.298 198.727 149.848C193.475 155.331 187.5 158.384 180.551 158.384C166.031 158.384 152.846 149.743 141.82 138.114C132.114 127.877 124.512 115.768 119.656 106.674C124.461 103.038 126.732 97.0682 127.038 90.8048C127.381 83.8095 125.358 75.867 121.11 68.4959C116.862 61.1248 111.008 55.3986 104.789 52.1981C98.6151 49.0201 91.5456 48.1182 85.5961 51.5594C79.6466 55.0006 76.8915 61.5851 76.5515 68.531C76.2091 75.5262 78.2318 83.4687 82.4798 90.8399C87.6893 99.8794 95.4238 106.592 103.355 109.002C106.522 118.362 108.769 129.322 108.703 137.637C108.667 142.184 107.937 145.304 106.867 146.998C106.386 147.759 105.91 148.117 105.47 148.298C105.019 148.484 104.251 148.629 102.953 148.361C100.382 147.831 96.98 145.85 92.9672 142.343C89.0478 138.917 84.9261 134.375 80.915 129.337C73.4824 120 66.6864 109.281 62.5398 101.601Z"
        fill="#FFCC74" fill-opacity="0.5" />
    <path
        d="M250.844 68.6682C259.188 64.4217 264.906 55.7405 264.906 45.7212C264.906 31.5158 253.412 20 239.234 20C225.055 20 213.562 31.5158 213.562 45.7212C213.562 55.92 219.486 64.7324 228.075 68.8921C225.67 103.329 213.666 162.383 180.559 162.383C148.295 162.383 123.902 124.103 114.364 105.111C114.93 104.89 115.481 104.626 116.015 104.317C124.772 99.2514 125.513 84.1111 117.67 70.5003C109.827 56.8896 96.3692 49.9624 87.6118 55.0281C78.8545 60.0938 78.1134 75.2341 85.9566 88.8449C91.2724 98.0696 99.167 104.224 106.429 105.656C113.686 125.734 117.344 155.409 102.167 152.279C87.7674 149.309 66.3258 117.593 58.0822 101.672C58.0948 101.653 58.1073 101.634 58.1197 101.614C61.8229 95.8505 56.5568 85.8455 46.3576 79.2675C36.1583 72.6894 24.8881 72.0293 21.185 77.793C17.4818 83.5568 22.7479 93.5617 32.9471 100.14C34.8699 101.38 36.8307 102.41 38.7717 103.226C48.946 112.129 67.1419 136.064 81.9956 159.628C98.4992 185.808 127.839 250.571 112.252 265.728C108.89 265.422 101.8 266.371 102.167 276.292C103.884 322.738 204.228 337.626 242.492 336.98C279.462 336.356 375.107 321.205 376.768 276.292C377.135 266.371 370.044 265.421 366.682 265.728C351.095 250.571 380.435 185.808 396.939 159.628C412.347 135.184 431.352 110.341 441.269 102.292C442.535 101.664 443.802 100.946 445.053 100.14C455.252 93.5617 460.518 83.5568 456.815 77.793C453.112 72.0293 441.842 72.6894 431.642 79.2675C421.443 85.8455 416.177 95.8505 419.88 101.614C420.059 101.893 420.256 102.156 420.469 102.405C411.962 118.545 390.949 149.353 376.768 152.279C361.533 155.421 365.276 125.509 372.587 105.429C379.565 103.652 386.984 97.6457 392.055 88.8449C399.898 75.2341 399.157 60.0938 390.4 55.0281C381.643 49.9624 368.185 56.8896 360.342 70.5003C352.499 84.1111 353.24 99.2514 361.997 104.317C362.774 104.767 363.588 105.122 364.432 105.386C354.798 124.47 330.484 162.383 298.376 162.383C265.197 162.383 253.213 103.072 250.844 68.6682Z"
        fill="#FFCA70" stroke="#FFDFA9" stroke-width="3" />
    <path
        d="M205.515 82.097C206.191 80.9091 207.696 80.4845 208.893 81.144L241.645 99.1811C243.368 100.13 245.468 100.086 247.15 99.0663L283.22 77.1941C284.57 76.3751 286.333 76.9983 286.868 78.4842L299.073 112.353C299.792 114.348 301.594 115.753 303.705 115.962L340.875 119.645C342.414 119.798 343.447 121.297 343.041 122.789L333.292 158.658C332.742 160.68 333.389 162.838 334.96 164.224L362.168 188.231C363.266 189.199 363.3 190.899 362.243 191.911L331.164 221.675C329.819 222.963 329.218 224.844 329.565 226.674L336.275 262.003C336.55 263.447 335.524 264.816 334.061 264.957L293.825 268.86C291.878 269.049 290.177 270.258 289.36 272.035L272.147 309.44C271.529 310.782 269.887 311.299 268.612 310.552L234.283 290.443C232.54 289.422 230.378 289.439 228.651 290.486L192.849 312.195C191.457 313.039 189.643 312.349 189.164 310.793L178.961 277.658C178.309 275.541 176.451 274.021 174.247 273.803L137.107 270.122C135.59 269.972 134.56 268.511 134.928 267.032L143.627 232.026C144.122 230.035 143.467 227.933 141.928 226.576L114.666 202.52C113.57 201.554 113.533 199.859 114.585 198.845L144.452 170.063C145.789 168.775 146.385 166.9 146.039 165.077L139.319 129.694C139.046 128.26 140.056 126.898 141.507 126.742L179.822 122.615C181.579 122.426 183.138 121.404 184.013 119.868L205.515 82.097Z"
        fill="#FFEFD4" stroke="#563B00" stroke-width="3" />
    <path
        d="M312.472 130.309C314.244 125.451 313.231 124.172 310.701 123.661H310.448C310.701 123.405 310.954 123.149 311.207 122.894C311.966 121.615 312.472 120.081 311.966 118.547L309.688 108.575C309.182 106.273 307.158 104.484 304.88 104.484H304.627L286.913 107.041C285.142 107.296 283.876 108.319 283.37 109.853C282.864 111.132 282.611 112.154 282.358 113.433L281.599 107.041C281.599 104.228 279.321 101.927 276.538 101.927H269.199C267.175 101.927 265.15 103.461 264.391 105.506C263.885 107.041 263.126 108.575 262.873 109.597C262.62 108.575 262.113 107.552 261.86 106.273C261.101 103.972 259.077 102.438 256.799 102.438C256.546 102.438 256.293 102.438 256.293 102.438L249.207 103.205C246.677 103.461 244.652 105.506 244.652 108.319L244.399 112.666L243.387 108.319C242.881 106.018 240.856 104.228 238.579 104.228H238.326L220.612 106.785C218.84 107.041 217.575 108.063 217.069 109.597C216.31 111.899 215.804 114.2 215.298 116.246L214.538 98.8582C214.538 96.0456 212.261 94 209.477 94H199.861C197.836 94 195.812 95.2785 195.053 97.3241C194.041 99.3696 193.028 102.182 192.016 104.228C191.51 102.438 190.751 100.137 190.245 98.6025C189.486 96.3013 187.714 95.0228 185.437 95.0228C185.184 95.0228 184.93 95.0228 184.93 95.0228L175.314 96.0456C172.784 96.3013 171.012 98.3468 170.759 100.904V104.739C169.746 129.992 170.333 155.167 170 180.425C170 181.704 170.506 182.982 171.518 184.005C172.531 185.028 173.796 185.539 175.061 185.539H175.314L184.171 185.028C186.702 184.772 188.726 182.727 188.726 179.914V176.334C188.979 175.823 188.979 175.311 188.979 174.8C189.486 175.823 190.245 176.846 191.004 177.868C192.016 179.658 193.281 181.448 194.294 183.238C195.306 184.772 196.824 185.539 198.596 185.539C198.849 185.539 199.102 185.539 199.355 185.539L207.959 184.005C209.477 183.749 210.996 182.727 211.755 181.192C213.02 178.635 213.02 175.311 212.514 173.522C212.514 172.754 212.261 171.987 211.755 171.22C209.983 168.152 206.947 163.038 204.922 158.691C207.2 154.089 210.236 148.463 212.261 145.139C212.261 145.139 212.261 144.884 212.514 144.628C212.514 145.651 213.02 146.673 213.779 147.441L214.032 174.289C214.032 174.544 214.032 175.056 214.032 175.311V179.403C214.032 182.215 216.31 184.516 219.093 184.516C219.093 184.516 219.346 184.516 219.6 184.516L225.42 184.005C227.95 183.749 229.975 181.704 229.975 179.147L230.228 175.056C230.228 174.8 230.481 174.289 230.481 174.033L231.24 149.997C232.252 149.23 233.012 148.208 233.518 146.929L233.771 145.651C233.771 145.906 233.771 146.162 233.771 146.418C233.265 155.111 232.506 176.078 232.506 180.17C232.506 182.982 234.783 185.028 237.314 185.028H237.567L242.881 184.772C245.158 184.772 247.183 182.727 247.436 180.425C247.689 178.891 247.689 177.101 247.942 175.311L251.232 182.215C251.991 184.005 253.762 185.028 255.534 185.028C255.787 185.028 255.787 185.028 256.04 185.028L267.681 184.005C270.211 183.749 271.983 181.704 271.983 179.147L272.236 175.311C272.236 175.056 272.236 175.056 272.236 174.8C272.742 176.334 273.754 177.357 275.019 177.868C273.754 179.403 274.726 185.028 274.726 185.028C274.726 185.028 275.123 195 280.081 195H280.334C281.346 195 282.611 194.744 283.623 194.744C285.901 194.489 287.925 194.489 290.203 193.977C292.48 193.722 294.758 193.466 296.782 192.954C299.06 192.443 301.084 191.932 302.603 191.42C303.868 190.909 305.133 190.142 305.893 189.119C306.652 188.096 307.411 187.073 308.17 185.795C308.676 184.516 309.182 183.238 309.688 181.959C310.195 180.681 310.448 179.147 310.701 177.868C310.954 177.101 310.954 175.823 311.207 174.033C311.207 173.01 311.207 172.243 311.46 171.22C311.46 170.709 311.46 169.942 311.713 168.919C311.713 167.129 311.966 165.084 311.966 162.782C311.966 160.481 311.966 158.18 312.219 155.623C312.219 153.066 312.219 150.765 312.219 148.719C312.219 145.395 310.954 142.327 308.929 140.025C309.435 139.514 309.688 138.747 310.195 137.98L312.472 130.309ZM293.746 161.248L289.697 160.737L289.95 158.435L293.999 158.691L293.746 161.248Z"
        fill="#563B00" />
    <path
        d="M208.968 96.8164H199.352C198.34 96.8164 197.327 97.5835 197.074 98.6063C196.315 101.163 194.544 105.51 193.278 108.067C193.025 108.578 192.772 108.834 192.519 109.09C192.519 109.09 192.266 109.09 192.013 109.09C191.76 109.09 191.76 109.09 191.507 109.09C191.254 108.834 191.001 108.578 191.001 108.323C189.989 106.021 188.723 101.93 187.964 99.3734C187.458 98.3506 186.446 97.5835 185.434 97.5835H185.181L175.564 98.6063C174.299 98.862 173.287 99.8848 173.287 101.163L172.275 129.29C172.275 130.824 173.287 131.847 174.805 131.847H178.854C180.119 131.847 181.132 130.824 181.385 129.546L182.397 118.039C182.397 118.039 182.397 117.016 182.903 117.016C183.156 117.016 183.409 117.272 183.662 117.783C184.928 121.108 187.458 126.989 188.723 129.546C189.23 130.568 189.989 131.08 191.001 131.08H191.76C192.772 131.08 193.785 130.568 194.038 129.546C195.303 126.733 197.833 120.596 199.352 117.016C199.605 116.505 199.858 116.249 200.111 116.249C200.364 116.249 200.617 116.505 200.87 117.016V118.295L201.629 129.29C201.629 130.568 202.895 131.591 204.16 131.591C204.16 131.591 204.16 131.591 204.413 131.591L210.486 131.335C211.752 131.335 213.017 130.057 212.764 128.778L211.499 99.3734C211.499 97.8392 210.486 96.8164 208.968 96.8164Z"
        fill="white" />
    <path
        d="M243.131 125.964H228.453C227.947 125.964 227.188 125.709 226.935 124.942C226.935 124.686 226.682 124.175 226.682 123.663C227.441 123.408 236.045 122.64 240.853 122.129C242.372 121.873 243.384 120.339 243.131 118.805L240.853 108.833C240.6 107.81 239.588 107.043 238.576 107.043C238.576 107.043 238.576 107.043 238.323 107.043L220.355 109.6C219.596 109.6 219.09 110.111 218.837 110.878C216.56 117.782 215.8 123.408 217.319 130.567V130.823C217.572 131.59 218.078 132.101 218.837 132.357L239.588 133.635C239.588 133.635 239.588 133.635 239.841 133.635C240.853 133.635 241.865 132.868 242.118 131.845L243.637 127.243C244.143 126.476 243.637 125.964 243.131 125.964ZM227.188 113.947C227.188 113.691 227.441 113.435 227.694 113.435L232.249 112.924C232.755 112.924 233.261 113.435 233.261 113.947L233.514 116.248C233.514 116.759 233.261 117.271 232.755 117.527L227.694 118.294C227.441 118.294 227.188 118.038 227.188 117.782V113.947Z"
        fill="white" />
    <path
        d="M276.535 104.488H269.196C268.184 104.488 267.172 105.255 266.666 106.278C265.907 108.324 264.641 111.903 263.629 113.949C263.376 114.46 263.123 114.716 263.123 114.972C262.87 114.972 262.87 115.228 262.617 115.228H262.364C262.111 114.716 261.858 114.716 261.605 114.46C260.845 112.671 259.833 109.347 259.327 107.301C259.074 106.022 258.062 105.255 256.796 105.255H256.543L249.458 106.022C248.192 106.278 247.18 107.301 247.18 108.579L246.168 131.592C246.168 133.126 245.915 134.405 247.433 134.405L252.748 134.149C254.013 134.149 253.76 133.126 254.013 131.592L254.772 122.387C254.772 122.387 254.772 121.364 255.278 121.364C255.531 121.364 255.784 121.62 255.784 121.876C256.796 124.688 258.821 129.291 259.833 131.592C260.339 132.615 261.098 133.126 262.111 133.126C263.123 133.126 264.135 132.615 264.388 131.592C265.4 129.035 267.425 124.177 268.69 121.109C268.943 120.853 268.943 120.597 269.449 120.597C269.702 120.597 269.955 120.853 269.955 121.364V122.387L270.462 131.081C270.462 132.615 270.715 133.382 271.98 133.382H272.233H278.306C279.825 133.382 279.825 132.103 279.825 130.569L279.066 107.045C279.066 105.767 277.8 104.488 276.535 104.488Z"
        fill="white" />
    <path
        d="M309.432 125.966H294.755C294.249 125.966 293.489 125.711 293.236 124.943C293.236 124.688 292.983 124.176 292.983 123.665C293.743 123.409 302.347 122.642 307.155 122.131C308.673 121.875 309.685 120.341 309.432 118.807L307.155 108.835C306.902 107.556 305.889 106.789 304.624 106.789C304.624 106.789 304.624 106.789 304.371 106.789L286.404 109.346C285.645 109.346 285.139 109.857 284.885 110.625C282.608 117.528 281.849 123.154 283.367 130.313V130.569C283.62 131.336 284.126 131.847 284.885 132.103L305.636 133.381C305.636 133.381 305.636 133.381 305.889 133.381C306.902 133.381 307.914 132.614 308.167 131.592C308.453 130.724 310.725 125.966 309.432 125.966ZM293.489 113.949C293.489 113.693 293.743 113.437 293.996 113.437L298.551 112.926C299.057 112.926 299.563 113.437 299.563 113.949L299.816 116.25C299.816 116.761 299.563 117.273 299.057 117.528L293.996 118.295C293.743 118.295 293.489 118.04 293.489 117.784V113.949Z"
        fill="white" />
    <path
        d="M208.727 134.907L200.123 133.629C199.87 133.629 199.87 133.629 199.617 133.629C198.858 133.629 197.846 134.14 197.593 134.907C195.315 138.487 190.001 147.692 189.242 148.459C188.989 148.715 188.989 148.715 188.736 148.971C188.23 149.738 187.723 150.249 187.47 150.249C187.47 150.249 187.47 150.249 187.217 150.249C186.964 150.249 186.964 149.226 187.217 148.971V148.715L186.964 137.209C186.964 135.93 185.952 134.652 184.434 134.652H175.324C174.058 134.652 172.793 135.674 172.793 137.209L173.046 175.307C173.046 176.842 174.058 177.864 175.577 177.864C175.577 177.864 175.577 177.864 175.83 177.864L184.687 177.353C185.952 177.353 186.964 176.074 186.964 174.796V163.801C186.964 163.034 187.217 162.523 187.723 162.523C187.976 162.523 188.23 162.778 188.483 163.034C188.989 163.801 191.266 167.381 193.797 171.728C194.809 173.518 196.074 175.307 197.087 177.097C197.593 177.864 198.352 178.376 199.111 178.376C199.364 178.376 199.364 178.376 199.617 178.376L208.221 176.842C209.993 176.586 210.752 174.54 209.993 173.006C207.462 168.659 203.413 161.244 201.389 156.642C203.666 151.783 208.221 143.601 210.499 139.254C211.511 137.209 210.499 135.163 208.727 134.907Z"
        fill="#FFEA05" />
    <path
        d="M217.869 131.229C217.868 127.24 215.21 128.57 215.21 128.57C215.21 128.57 214.324 133.445 215.21 135.218C220.972 136.105 233.153 137.894 233.825 136.548C235.153 133.888 234.427 131.833 233.824 131.229C233.22 130.625 231.164 131.229 231.165 133.888C231.166 136.548 226.924 134.899 227.176 133.888C228.506 128.57 225.847 127.24 224.518 127.24C223.188 127.24 221.855 128.57 221.857 131.229C221.858 133.108 220.086 133.888 219.199 133.888C218.756 133.888 217.869 133.357 217.869 131.229Z"
        fill="#563B00" />
    <path
        d="M233.023 132.351C231.845 132.351 231.758 133.816 231.758 134.652C230.746 135.675 229.481 136.442 228.468 136.442C228.215 136.442 228.215 136.442 227.962 136.442C226.191 135.931 225.432 134.397 224.925 131.84C225.608 131.15 226.31 128.771 224.672 128.771C223.536 128.771 222.924 131.096 223.66 131.84C222.901 133.63 221.636 135.164 219.864 135.164C219.864 135.164 219.864 135.164 219.611 135.164C218.599 135.164 217.334 133.885 216.575 132.351C217.082 131.838 216.947 129.794 216.068 129.794C215.562 129.794 215.056 130.306 215.056 131.073C215.056 131.84 215.309 132.351 215.815 132.607L215.562 138.744C215.562 140.022 216.321 141.301 217.587 141.301L228.468 142.835H228.721C229.734 142.835 230.746 142.068 230.999 140.789L232.517 134.908C233.739 134.908 233.825 132.558 233.023 132.351Z"
        fill="#FFEA05" />
    <path
        d="M226.447 145.392L219.361 144.369H219.108C217.59 144.369 216.577 145.648 216.577 146.926L216.83 174.286C216.83 175.82 218.096 176.843 219.361 176.843H219.614L225.434 176.331C226.7 176.331 227.712 175.053 227.712 173.774L228.471 147.949C228.724 146.926 227.712 145.648 226.447 145.392Z"
        fill="#FFEA05" />
    <path
        d="M268.946 139.256H262.619C261.354 139.256 260.595 140.278 260.342 141.557C260.089 144.625 259.077 154.342 258.57 157.41C258.57 157.666 258.317 158.177 258.064 158.177H257.811C257.558 157.921 257.558 157.921 257.305 157.666C256.546 155.876 252.75 144.625 251.232 140.278C250.979 139.256 249.966 138.744 248.954 138.744L238.579 139.256C237.314 139.256 236.301 140.278 236.301 141.557C236.048 148.716 235.036 170.962 235.036 175.053C235.036 176.331 236.048 177.61 237.314 177.61L242.628 177.354C243.64 177.354 244.652 176.331 244.905 175.309C245.411 170.962 246.171 163.291 246.171 163.291C246.171 163.291 246.424 162.78 246.677 162.78C246.93 162.78 247.183 163.291 247.183 163.291L253.509 176.331C254.015 177.099 254.775 177.61 255.534 177.61H255.787L267.428 176.587C268.693 176.587 269.452 175.309 269.452 174.03L270.717 141.812C271.223 140.278 270.211 139.256 268.946 139.256Z"
        fill="#FFEA05" />
    <path
        d="M301.339 139.002C298.556 139.002 295.013 138.49 291.217 138.49C284.637 138.49 278.058 139.769 276.033 145.65C275.527 147.184 275.274 149.997 274.768 151.786C274.515 153.576 274.262 155.366 274.009 157.412C274.009 158.435 274.009 159.457 274.009 160.48C274.009 161.247 274.009 162.014 274.009 162.781C274.009 164.571 274.262 166.105 274.515 167.384C275.527 171.475 279.829 171.731 283.372 171.731C283.878 171.731 284.384 171.731 284.89 171.731C286.662 171.731 288.18 171.986 289.952 171.986C290.964 171.986 292.229 171.986 293.241 171.986C293.494 171.986 293.494 171.986 293.747 171.986C294.001 171.986 294.001 171.986 294.001 171.986H294.254V173.521C294.254 174.032 293.747 174.543 293.241 174.543C290.458 175.31 282.107 177.612 278.564 178.635C277.805 178.89 277.299 179.657 277.552 180.424L278.311 185.283C278.564 186.305 279.576 187.073 280.588 187.073C280.588 187.073 280.588 187.073 280.841 187.073C286.144 187.073 291.217 186.382 297.037 185.027C299.062 184.516 300.833 184.26 302.351 183.493C303.364 183.237 304.123 182.47 304.882 181.703C305.641 180.936 306.147 179.913 306.653 178.89C307.16 177.867 307.666 176.589 307.919 175.31C309.275 168.458 309.009 161.733 309.69 154.855C309.69 152.298 309.69 149.997 309.69 147.951C309.69 143.348 306.147 139.257 301.339 139.002ZM296.025 162.781C296.025 163.293 295.519 163.804 295.013 163.804L289.192 163.293C287.927 163.037 286.915 162.014 286.915 160.48L287.421 153.065C287.421 151.786 288.433 150.764 289.699 150.764L296.025 151.275C296.278 151.275 296.531 151.531 296.531 151.786L296.025 162.781Z"
        fill="#FFEA05" />
</svg>