<svg width="100" height="100" viewBox="0 0 100 100" fill="none" xmlns="http://www.w3.org/2000/svg">
<mask id="mask0_1376_2497" style="mask-type:alpha" maskUnits="userSpaceOnUse" x="0" y="0" width="100" height="100">
<rect width="100" height="100" rx="12" fill="#FFA725"/>
</mask>
<g mask="url(#mask0_1376_2497)">
<rect width="100" height="100" rx="12" fill="#FFA725"/>
<path d="M0.308058 77.8066L20.7469 72.6709C24.9423 74.4765 34.0942 78.9447 42.4829 87.0822C46.4153 90.8961 60.9728 101.281 60.5634 93.5642C60.0041 89.4885 54.1941 83.9503 51.3591 81.6906C60.478 86.1791 70.9133 92.7725 75.501 90.2045C81.1009 87.0699 74.8837 81.7225 71.5873 80.1575C73.4451 80.928 77.8842 81.9266 80.7777 79.757C87.2647 72.496 65.5916 67.0963 51.1813 60.7833C44.2424 57.7435 43.3205 56.223 46.1426 54.934C64.1797 59.1127 66.5412 52.7649 65.4672 49.0687L36.5768 41.3276C21.1686 37.1989 15.9056 44.5143 15.2001 48.6881L1.31588 52.7391C-3.30295 52.7583 -2.14271 59.0036 -1.80213 65.9507C-1.44934 73.1467 -1.56567 78.1225 0.308058 77.8066Z" fill="#FFE3B1"/>
<path d="M20.7469 72.6709L0.308061 77.8066C-1.56567 78.1225 -1.44934 73.1467 -1.80213 65.9507C-2.1427 59.0036 -3.30295 52.7583 1.31588 52.7391L15.2001 48.6881C15.9056 44.5143 21.1686 37.1989 36.5768 41.3276C51.985 45.4562 62.2572 48.2086 65.4672 49.0687C66.5412 52.7649 64.1797 59.1127 46.1426 54.9341C43.3205 56.223 44.2424 57.7435 51.1813 60.7833C65.5916 67.0963 87.2647 72.496 80.7777 79.757C77.8842 81.9266 73.4451 80.928 71.5873 80.1575M20.7469 72.6709L14.9688 71.1227M20.7469 72.6709C24.9423 74.4765 34.0942 78.9447 42.4829 87.0822C46.4153 90.8961 60.9728 101.281 60.5634 93.5642C60.0041 89.4885 54.1941 83.9503 51.3591 81.6906C60.478 86.1791 70.9133 92.7725 75.501 90.2045C81.1009 87.0699 74.8837 81.7225 71.5873 80.1575M71.5873 80.1575L49.8042 69.0036M50.2035 81.381L42.571 74.4267M37.1544 74.6113C40.4142 74.2585 47.6715 72.0323 50.6222 65.9507M33.4519 69.9392C31.1598 63.5988 23.6808 51.8603 12.1017 55.6291M25.2699 52.7391C26.8846 53.7037 31.1209 55.5671 35.8458 53.2519" stroke="#563B00"/>
<path d="M25.3491 66.0708V27.5078L54.9619 36.5815V74.8924L25.3491 66.0708Z" fill="#FFE52F" stroke="#563B00"/>
<path d="M85.5 66.0708V27.5078L54.9619 36.5815V74.8924L85.5 66.0708Z" fill="#FFE52F" stroke="#563B00"/>
<path d="M54.9434 36.9845L25.3491 27.5598L54.9434 20.6152L85.5 27.5598L54.9434 36.9845Z" fill="white" stroke="#563B00" stroke-linejoin="round"/>
<path d="M44.1452 32.861L73.4695 24.3423L64.5761 22.3379L36.4536 30.8566V68.9401L44.1452 71.4456V32.861Z" fill="#FFA725" stroke="#563B00"/>
<mask id="path-9-outside-1_1376_2497" maskUnits="userSpaceOnUse" x="32.4346" y="10" width="51" height="21" fill="black">
<rect fill="white" x="32.4346" y="10" width="51" height="21"/>
<path fill-rule="evenodd" clip-rule="evenodd" d="M57.5015 28.3561C63.3471 25.7236 72.5366 15.9472 66.2179 12.2927C61.6992 9.67918 53.9587 25.331 54.5057 29.0026C55.5996 25.8959 62.7356 14.2509 64.4859 15.6818C66.9373 17.6861 59.9349 25.5669 56.2705 28.3547C56.1513 28.3498 56.0324 28.3435 55.9137 28.3358C56.0238 28.3475 56.1363 28.3588 56.2509 28.3695C55.9099 28.6281 55.5982 28.8421 55.3262 29.0026C55.9005 28.9506 56.5688 28.7567 57.2934 28.4474C64.2384 28.8435 77.0713 27.2615 82.219 17.9443L77.4173 19.503V15C74.283 21.6627 65.5978 28.051 57.5015 28.3561ZM51.6309 29.0027C46.0884 28.5325 38.802 22.4573 44.7271 18.5655C49.2972 15.5637 53.0894 25.3356 52.506 29.0027C51.3392 25.8997 48.4415 20.5213 46.5746 21.9506C44.7076 23.3798 48.2276 27.1221 51.6309 29.0027ZM36.3156 22.0033L33.4346 20.791C36.7415 28.5499 45.3346 29.4121 49.2178 28.8732C44.107 29.3043 38.3199 24.0239 36.3156 18.501V22.0033Z"/>
</mask>
<path fill-rule="evenodd" clip-rule="evenodd" d="M57.5015 28.3561C63.3471 25.7236 72.5366 15.9472 66.2179 12.2927C61.6992 9.67918 53.9587 25.331 54.5057 29.0026C55.5996 25.8959 62.7356 14.2509 64.4859 15.6818C66.9373 17.6861 59.9349 25.5669 56.2705 28.3547C56.1513 28.3498 56.0324 28.3435 55.9137 28.3358C56.0238 28.3475 56.1363 28.3588 56.2509 28.3695C55.9099 28.6281 55.5982 28.8421 55.3262 29.0026C55.9005 28.9506 56.5688 28.7567 57.2934 28.4474C64.2384 28.8435 77.0713 27.2615 82.219 17.9443L77.4173 19.503V15C74.283 21.6627 65.5978 28.051 57.5015 28.3561ZM51.6309 29.0027C46.0884 28.5325 38.802 22.4573 44.7271 18.5655C49.2972 15.5637 53.0894 25.3356 52.506 29.0027C51.3392 25.8997 48.4415 20.5213 46.5746 21.9506C44.7076 23.3798 48.2276 27.1221 51.6309 29.0027ZM36.3156 22.0033L33.4346 20.791C36.7415 28.5499 45.3346 29.4121 49.2178 28.8732C44.107 29.3043 38.3199 24.0239 36.3156 18.501V22.0033Z" fill="#FFA725"/>
<path d="M66.2179 12.2927L66.7186 11.427V11.427L66.2179 12.2927ZM57.5015 28.3561L57.0908 27.4443C56.6546 27.6408 56.4186 28.1187 56.5279 28.5845C56.6371 29.0503 57.061 29.3734 57.5391 29.3554L57.5015 28.3561ZM54.5057 29.0026L53.5166 29.15C53.5843 29.6045 53.953 29.9543 54.4105 29.9981C54.8679 30.0418 55.2963 29.7682 55.4489 29.3348L54.5057 29.0026ZM64.4859 15.6818L63.8529 16.456V16.456L64.4859 15.6818ZM56.2705 28.3547L56.2294 29.3538C56.462 29.3634 56.6907 29.2915 56.8759 29.1505L56.2705 28.3547ZM55.9137 28.3358L55.9786 27.3379C55.4356 27.3025 54.964 27.7079 54.9174 28.2501C54.8707 28.7922 55.2662 29.2722 55.8073 29.3301L55.9137 28.3358ZM56.2509 28.3695L56.8551 29.1664C57.1837 28.9172 57.3256 28.4919 57.2125 28.0953C57.0995 27.6987 56.7545 27.4122 56.3439 27.3739L56.2509 28.3695ZM55.3262 29.0026L54.8179 28.1414C54.4152 28.3791 54.2309 28.8642 54.3744 29.3093C54.5178 29.7545 54.9506 30.0407 55.4164 29.9985L55.3262 29.0026ZM57.2934 28.4474L57.3504 27.449C57.1965 27.4402 57.0426 27.4672 56.9009 27.5277L57.2934 28.4474ZM82.219 17.9443L83.0943 18.4279C83.2929 18.0685 83.2516 17.6244 82.9903 17.3078C82.729 16.9911 82.3008 16.8664 81.9103 16.9931L82.219 17.9443ZM77.4173 19.503H76.4173C76.4173 19.823 76.5705 20.1238 76.8294 20.3119C77.0883 20.5001 77.4216 20.5529 77.726 20.4541L77.4173 19.503ZM77.4173 15H78.4173C78.4173 14.5317 78.0923 14.1262 77.6354 14.0241C77.1784 13.922 76.7117 14.1506 76.5124 14.5743L77.4173 15ZM44.7271 18.5655L44.1781 17.7297L44.7271 18.5655ZM51.6309 29.0027L51.5463 29.9991C52.0166 30.039 52.4507 29.7447 52.5877 29.2931C52.7248 28.8416 52.5276 28.3556 52.1145 28.1274L51.6309 29.0027ZM52.506 29.0027L51.57 29.3547C51.7297 29.7794 52.1554 30.0433 52.6068 29.9976C53.0583 29.9518 53.4223 29.6079 53.4936 29.1598L52.506 29.0027ZM33.4346 20.791L33.8224 19.8692C33.447 19.7112 33.0132 19.7968 32.7258 20.0855C32.4385 20.3742 32.3549 20.8083 32.5146 21.183L33.4346 20.791ZM36.3156 22.0033L35.9278 22.925C36.2365 23.0549 36.5898 23.0216 36.8689 22.8363C37.1479 22.651 37.3156 22.3383 37.3156 22.0033H36.3156ZM49.2178 28.8732L49.3552 29.8637C49.8919 29.7893 50.2717 29.3009 50.2116 28.7625C50.1516 28.224 49.6736 27.8312 49.1337 27.8768L49.2178 28.8732ZM36.3156 18.501L37.2557 18.1599C37.09 17.7035 36.6206 17.432 36.1425 17.5161C35.6643 17.6002 35.3156 18.0155 35.3156 18.501H36.3156ZM65.7173 13.1583C66.3748 13.5386 66.7801 13.9676 67.021 14.4059C67.2619 14.8441 67.3701 15.3491 67.3447 15.9305C67.2924 17.128 66.6734 18.5882 65.5994 20.138C63.4571 23.2295 59.8364 26.2079 57.0908 27.4443L57.9121 29.2679C61.0121 27.8718 64.909 24.6457 67.2432 21.2772C68.4075 19.5971 69.2665 17.7634 69.3428 16.0178C69.3817 15.1276 69.2168 14.2486 68.7736 13.4424C68.3305 12.6363 67.6407 11.9603 66.7186 11.427L65.7173 13.1583ZM55.4948 28.8553C55.4535 28.5782 55.4832 28.0749 55.6438 27.3355C55.7992 26.6199 56.0587 25.7641 56.4073 24.8224C57.1045 22.9395 58.1347 20.7766 59.3193 18.8059C60.5117 16.8222 61.8205 15.1005 63.0547 14.0446C64.3487 12.9375 65.1844 12.8501 65.7173 13.1583L66.7186 11.427C64.9921 10.4285 63.1658 11.3175 61.7545 12.5249C60.2836 13.7833 58.8443 15.714 57.6051 17.7755C56.3581 19.8501 55.2733 22.1253 54.5318 24.128C54.1611 25.1292 53.8702 26.0781 53.6894 26.9111C53.5136 27.7202 53.4211 28.5091 53.5166 29.15L55.4948 28.8553ZM65.1188 14.9077C64.4237 14.3394 63.6156 14.5832 63.1421 14.8266C62.6368 15.0864 62.1221 15.5246 61.6322 16.0181C60.6361 17.0215 59.5056 18.4987 58.4249 20.0751C56.2749 23.211 54.1549 26.9879 53.5624 28.6705L55.4489 29.3348C55.9504 27.9106 57.9453 24.3116 60.0744 21.206C61.1332 19.6617 62.1832 18.3018 63.0516 17.4272C63.4939 16.9816 63.8324 16.7206 64.0566 16.6053C64.3127 16.4736 64.1104 16.6666 63.8529 16.456L65.1188 14.9077ZM56.8759 29.1505C58.7897 27.6946 61.5217 24.958 63.4753 22.3195C64.4479 21.0058 65.2781 19.6497 65.6965 18.4431C66.0893 17.3102 66.2608 15.8413 65.1188 14.9077L63.8529 16.456C63.9367 16.5245 64.1521 16.7923 63.8069 17.7879C63.4873 18.7097 62.7975 19.8738 61.8679 21.1294C60.017 23.6292 57.4157 26.2269 55.665 27.5588L56.8759 29.1505ZM55.8488 29.3336C55.9755 29.3419 56.1024 29.3486 56.2294 29.3538L56.3115 27.3555C56.2002 27.3509 56.0893 27.3451 55.9786 27.3379L55.8488 29.3336ZM56.3439 27.3739C56.2337 27.3636 56.1257 27.3527 56.0201 27.3414L55.8073 29.3301C55.922 29.3424 56.0389 29.3541 56.1578 29.3652L56.3439 27.3739ZM55.8344 29.8638C56.1499 29.6777 56.4946 29.4397 56.8551 29.1664L55.6467 27.5727C55.3252 27.8165 55.0465 28.0065 54.8179 28.1414L55.8344 29.8638ZM56.9009 27.5277C56.2315 27.8134 55.6696 27.9674 55.236 28.0067L55.4164 29.9985C56.1314 29.9338 56.906 29.7001 57.686 29.3671L56.9009 27.5277ZM81.3438 17.4607C78.9365 21.8178 74.7032 24.4207 70.1254 25.8859C65.5483 27.3509 60.7311 27.6418 57.3504 27.449L57.2365 29.4458C60.8007 29.6491 65.8724 29.3471 70.735 27.7907C75.5968 26.2346 80.3539 23.388 83.0943 18.4279L81.3438 17.4607ZM77.726 20.4541L82.5278 18.8954L81.9103 16.9931L77.1085 18.5518L77.726 20.4541ZM76.4173 15V19.503H78.4173V15H76.4173ZM57.5391 29.3554C61.8238 29.194 66.2 27.4313 69.8883 24.8851C73.5755 22.3397 76.6643 18.9499 78.3222 15.4257L76.5124 14.5743C75.036 17.7128 72.2151 20.8486 68.752 23.2392C65.29 25.6292 61.2754 27.2132 57.4638 27.3568L57.5391 29.3554ZM44.1781 17.7297C42.5134 18.8231 41.6146 20.1891 41.5283 21.7157C41.4448 23.1948 42.1408 24.5793 43.1202 25.719C45.067 27.9844 48.5174 29.7422 51.5463 29.9991L51.7154 28.0063C49.2018 27.793 46.2378 26.2781 44.6371 24.4155C43.8427 23.4911 43.4817 22.5977 43.5252 21.8285C43.5659 21.1067 43.9782 20.2538 45.2761 19.4014L44.1781 17.7297ZM53.4936 29.1598C53.6698 28.052 53.5089 26.6033 53.1497 25.161C52.7853 23.6979 52.1913 22.1388 51.4169 20.7864C50.6537 19.4534 49.6572 18.2195 48.4394 17.5408C47.8169 17.1938 47.1213 16.9841 46.3735 17.002C45.6228 17.02 44.8844 17.2657 44.1781 17.7297L45.2761 19.4014C45.7122 19.1149 46.0921 19.0093 46.4213 19.0015C46.7533 18.9935 47.0992 19.0834 47.4657 19.2877C48.2261 19.7116 48.9982 20.587 49.6813 21.7802C50.3533 22.9538 50.8836 24.3376 51.209 25.6443C51.5396 26.9718 51.6339 28.1198 51.5184 28.8456L53.4936 29.1598ZM47.1824 22.7446C47.2294 22.7086 47.242 22.7132 47.2549 22.714C47.2933 22.7164 47.4012 22.7378 47.5878 22.8567C47.9755 23.1035 48.4591 23.6122 48.9876 24.3561C50.027 25.8196 51.0067 27.8567 51.57 29.3547L53.442 28.6507C52.8385 27.0457 51.7859 24.8422 50.6181 23.198C50.0429 22.3881 49.3791 21.6262 48.662 21.1696C48.2962 20.9367 47.8623 20.7482 47.3803 20.7179C46.8729 20.6861 46.3865 20.8352 45.9667 21.1565L47.1824 22.7446ZM52.1145 28.1274C50.508 27.2397 48.8859 25.9145 47.9093 24.6853C47.4136 24.0613 47.1519 23.5462 47.0775 23.1877C47.0428 23.0205 47.0573 22.9279 47.0708 22.8847C47.0809 22.8523 47.1018 22.8063 47.1824 22.7446L45.9667 21.1565C45.5806 21.4521 45.3031 21.8357 45.1616 22.2888C45.0236 22.7312 45.0334 23.1802 45.1193 23.5942C45.2861 24.3982 45.7672 25.2041 46.3434 25.9294C47.5109 27.3988 49.3504 28.8851 51.1472 29.8779L52.1145 28.1274ZM33.0467 21.7127L35.9278 22.925L36.7035 21.0816L33.8224 19.8692L33.0467 21.7127ZM49.0803 27.8827C47.2771 28.1329 44.3263 28.0587 41.4546 27.005C38.6072 25.9602 35.8773 23.9717 34.3545 20.3989L32.5146 21.183C34.2988 25.3692 37.5189 27.6913 40.7656 28.8826C43.988 30.065 47.2753 30.1523 49.3552 29.8637L49.0803 27.8827ZM35.3756 18.8421C36.4423 21.7816 38.499 24.6256 40.9597 26.6865C43.4058 28.7352 46.384 30.1158 49.3018 29.8697L49.1337 27.8768C46.9408 28.0617 44.47 27.0177 42.2438 25.1532C40.0322 23.3009 38.1931 20.7432 37.2557 18.1599L35.3756 18.8421ZM37.3156 22.0033V18.501H35.3156V22.0033H37.3156Z" fill="#563B00" mask="url(#path-9-outside-1_1376_2497)"/>
<path d="M68.0072 57.066C66.9515 58.7753 65.0819 59.9914 62.9843 59.9822C59.7213 59.9679 57.1683 57.2632 57.1821 53.8352C57.1959 50.4072 59.7705 47.7251 63.0335 47.7394C64.1989 47.7445 65.2462 48.1164 66.06 48.6097L70.7426 43.3658C70.2794 42.6292 70.0493 41.8936 70.0532 40.9142C70.0621 38.7105 71.9346 36.7598 74.1487 36.7696C76.3629 36.7793 78.2196 38.7463 78.2103 41.0725C78.2009 43.3986 76.3285 45.3492 74.1143 45.3395C73.5316 45.337 73.066 45.2125 72.6008 44.9656L67.8012 50.3314C68.4964 51.3139 68.8411 52.5397 68.8357 53.8864L68.8323 54.7434L74.3055 55.7469C75.0092 54.6481 76.294 53.9192 77.6925 53.9253C79.9067 53.9351 81.7634 55.9021 81.754 58.2282C81.7447 60.5544 79.7557 62.5045 77.5415 62.4948C75.3273 62.485 73.4706 60.518 73.4799 58.1919L73.4804 58.0694L68.0072 57.066Z" fill="#FFA725"/>
</g>
</svg>
