<svg width="25" height="25" viewBox="0 0 25 25" fill="none" xmlns="http://www.w3.org/2000/svg">
<path d="M18.1562 16.8793V9.49235C18.1562 8.0381 16.9771 6.8597 15.5245 6.8597H9.76538H8.10098H6.84158H6.14933C4.69508 6.8597 3.51758 8.03795 3.51758 9.49235V18.8685C3.51758 20.3211 4.69508 21.5 6.14933 21.5H15.5246C16.9789 21.5 18.1564 20.3211 18.1564 18.8685V18.1404H18.1769V16.874C18.1697 16.874 18.1648 16.8776 18.1562 16.8793ZM15.9833 16.478V17.4764C15.9833 17.4967 15.9778 17.5184 15.9778 17.5389C15.9443 18.5316 15.1325 19.3273 14.1325 19.3273H7.53968C6.51788 19.3273 5.69033 18.4984 5.69033 17.4764V10.8826C5.69033 9.8927 6.46988 9.08975 7.44848 9.0404C7.47878 9.0389 7.50938 9.0317 7.53968 9.0317H8.51063H14.1325C15.1558 9.0317 15.9833 9.8615 15.9833 10.8826V16.478ZM21.4799 13.5196V6.13265C21.4799 4.6784 20.3008 3.5 18.8482 3.5H13.0891H11.4247H10.1653H9.47303C8.01878 3.5 6.84128 4.67825 6.84128 6.13265V6.2375H9.53843C9.85463 5.9138 10.289 5.705 10.7723 5.6807C10.8025 5.6792 10.8331 5.672 10.8634 5.672H11.8343H17.4562C18.4795 5.672 19.307 6.5018 19.307 7.52285V13.1181V14.1165C19.307 14.1368 19.3015 14.1586 19.3015 14.1791C19.2809 14.7865 18.9685 15.319 18.5005 15.6416V18.1402H18.8482C20.3024 18.1402 21.4799 16.9613 21.4799 15.5087V14.7806H21.5005V13.5141C21.4934 13.5143 21.4885 13.5177 21.4799 13.5196Z" fill="#563B00"/>
</svg>
