<svg width="100" height="100" viewBox="0 0 100 100" fill="none" xmlns="http://www.w3.org/2000/svg">
<mask id="mask0_3818_2398" style="mask-type:alpha" maskUnits="userSpaceOnUse" x="0" y="0" width="100" height="100">
<rect width="100" height="100" rx="12" fill="white"/>
</mask>
<g mask="url(#mask0_3818_2398)">
<rect width="100" height="100" rx="12" fill="#FFA725"/>
<path d="M24.0018 87.8373C13.282 83.5494 1.86734 86.0507 -2.5 87.8373L-0.901466 63.2679L66.7687 62.0667L88.023 51.5091C89.1148 51.2113 91.8941 50.9731 94.2762 52.4024C96.6584 53.8317 96.0629 55.7772 95.4673 56.5712L51.9925 90.2196C48.8956 93.0782 43.9526 92.9988 41.8682 92.6018C36.3098 91.2122 24.9547 88.3138 24.0018 87.8373Z" fill="#FFE3B1" stroke="#563B00"/>
<path d="M33.2324 79.4992C33.7287 78.9037 34.7808 77.4744 35.0191 76.5215" stroke="#563B00"/>
<path d="M94.5754 55.6777C93.285 56.3725 90.4066 58.0599 91.002 59.8466" stroke="#563B00"/>
<path d="M37.4022 76.225C37.4022 76.8205 37.2831 78.0712 36.8066 78.3094M73.4327 70.8651L74.6238 72.9495M75.2194 70.2695L75.8149 71.4606" stroke="#563B00"/>
<path d="M55.758 9.88869L52.7936 8.4366C51.7697 7.93508 50.5688 8.65392 50.5271 9.79323L50.4403 12.1653C50.4237 12.6181 50.603 13.0562 50.9324 13.3674L58.3692 20.3953C58.6592 20.6694 59.0426 20.8232 59.4417 20.8255L69.4766 20.8834C70.4044 20.8888 71.1357 20.0949 71.0544 19.1706L70.8858 17.2548C70.8422 16.7591 70.5668 16.3131 70.143 16.0521L59.7521 9.65143C59.3617 9.41095 58.8859 9.35257 58.4489 9.49152L56.928 9.97519C56.5414 10.0981 56.1223 10.0671 55.758 9.88869Z" fill="#FFE52F" stroke="#563B00" stroke-width="0.787391"/>
<path d="M73.8098 22.5499L67.8013 19.4779C67.2945 19.2189 66.6875 19.2533 66.2134 19.5681L24.9238 46.9807C23.9708 47.6134 23.9891 49.019 24.9582 49.6268L26.2505 50.4374C26.6684 50.6994 26.9393 51.1421 26.9825 51.6334L27.2415 54.576C27.2809 55.0237 27.5097 55.4333 27.8704 55.7016L31.4128 58.3364L37.828 62.8751C38.2287 63.1586 38.7385 63.239 39.207 63.0927L41.4003 62.4077C41.8505 62.2671 42.34 62.3357 42.7343 62.5946L45.8905 64.6676C46.2907 64.9305 46.7887 64.997 47.2438 64.8484L60.1009 60.6504C60.7487 60.4389 61.1869 59.8348 61.1869 59.1533L61.1868 57.3715C61.1868 56.6974 61.6158 56.0981 62.2539 55.8808L67.4659 54.1057C68.1143 53.8849 68.5456 53.2702 68.5327 52.5852L68.5041 51.077C68.491 50.3858 68.9303 49.7669 69.5871 49.5511L71.2717 48.9976C71.9549 48.7732 72.3993 48.1144 72.3515 47.3969L71.9739 41.7277C71.929 41.0535 72.3192 40.4258 72.9437 40.1677L74.3641 39.5807C74.9783 39.3268 75.367 38.7148 75.3357 38.0509L74.666 23.8777C74.6393 23.3136 74.3127 22.8069 73.8098 22.5499Z" fill="#FFE52F" stroke="#563B00" stroke-width="0.787391"/>
<mask id="mask1_3818_2398" style="mask-type:alpha" maskUnits="userSpaceOnUse" x="23" y="18" width="53" height="48">
<path d="M73.8137 22.5499L67.8052 19.4779C67.2984 19.2189 66.6914 19.2533 66.2173 19.5681L24.9277 46.9807C23.9747 47.6134 23.993 49.019 24.9621 49.6268L26.2544 50.4374C26.6723 50.6994 26.9432 51.1421 26.9864 51.6334L27.2454 54.576C27.2848 55.0237 27.5136 55.4333 27.8743 55.7016L31.4167 58.3364L37.8319 62.8751C38.2326 63.1586 38.7424 63.239 39.2109 63.0927L41.4042 62.4077C41.8544 62.2671 42.3439 62.3357 42.7382 62.5946L45.8944 64.6676C46.2946 64.9305 46.7926 64.997 47.2477 64.8484L60.1048 60.6504C60.7526 60.4389 61.1908 59.8348 61.1908 59.1533L61.1907 57.3715C61.1907 56.6974 61.6197 56.0981 62.2578 55.8808L67.4698 54.1057C68.1182 53.8849 68.5495 53.2702 68.5366 52.5852L68.508 51.077C68.4949 50.3858 68.9342 49.7669 69.591 49.5511L71.2756 48.9976C71.9588 48.7732 72.4032 48.1144 72.3554 47.3969L71.9778 41.7277C71.9329 41.0535 72.3231 40.4258 72.9476 40.1677L74.368 39.5807C74.9822 39.3268 75.3709 38.7148 75.3396 38.0509L74.6699 23.8777C74.6432 23.3136 74.3166 22.8069 73.8137 22.5499Z" fill="url(#paint0_linear_3818_2398)" stroke="url(#paint1_linear_3818_2398)" stroke-width="0.787391"/>
</mask>
<g mask="url(#mask1_3818_2398)">
<path d="M58.7268 58.5833L53.8937 55.3848C53.6049 55.1937 53.2611 55.1031 52.9156 55.1271L43.4006 55.7869C43.0359 55.8122 42.6738 55.7098 42.3763 55.4973L28.8497 45.8345C28.5256 45.603 28.1258 45.5028 27.7308 45.5543L21.2255 46.402C19.9293 46.5709 19.3913 48.1543 20.3163 49.0779L38.3998 67.1349C38.8218 67.5563 39.4456 67.7032 40.0112 67.5143L58.3564 61.3903C59.6014 60.9747 59.8214 59.3077 58.7268 58.5833Z" fill="#563B00"/>
<path d="M61.7114 56.6485L55.6242 52.5158C54.6395 51.8474 54.7237 50.3703 55.7779 49.818L58.9636 48.1491C59.4819 47.8776 60.108 47.9158 60.5894 48.2483L66.8551 52.576C67.8698 53.2769 67.7217 54.8193 66.5921 55.3142L63.2279 56.788C62.732 57.0053 62.1593 56.9526 61.7114 56.6485Z" fill="#563B00"/>
<path d="M68.7267 50.6875L62.3256 46.3418C61.4603 45.7543 61.3975 44.5021 62.1997 43.831L62.7655 43.3577C63.3086 42.9034 64.0882 42.8674 64.6709 43.2699L71.1011 47.7112C72.029 48.3521 72.0022 49.7319 71.0502 50.3364L70.4554 50.7141C69.9254 51.0506 69.2462 51.0402 68.7267 50.6875Z" fill="#563B00"/>
<path d="M71.9816 40.8946L65.1364 36.4588C64.3371 35.9408 64.177 34.8372 64.7962 34.1134L65.1062 33.7511C65.6268 33.1427 66.5211 33.0217 67.1846 33.4701L74.0674 38.1215C75.1031 38.8214 74.9497 40.391 73.7981 40.8771L73.4504 41.0238C72.9696 41.2268 72.4196 41.1784 71.9816 40.8946Z" fill="#563B00"/>
</g>
<path d="M49.6788 7.35524L37.6107 11.3438C36.8759 11.5866 36.4265 12.3273 36.5504 13.0912L36.7256 14.1714C36.8497 14.9363 36.3989 15.6778 35.6627 15.9197L30.3581 17.6624C29.6046 17.9099 29.1528 18.679 29.3035 19.4576L29.4703 20.3199C29.6139 21.0621 29.2098 21.8017 28.5076 22.0817L26.2463 22.9835C25.5683 23.2539 25.165 23.9548 25.2719 24.6768L26.0393 29.8624C26.1495 30.6072 25.7173 31.3257 25.0077 31.5773L22.7911 32.363C22.129 32.5977 21.7025 33.2425 21.7454 33.9436L22.5379 46.8875C22.6028 47.9473 23.6819 48.6384 24.6745 48.2613C25.6703 47.8829 26.7521 48.5797 26.8116 49.6433L27.0506 53.911C27.1009 54.8099 28.0194 55.3934 28.8545 55.057C29.6232 54.7474 30.4832 55.2177 30.6374 56.032L30.7688 56.726C30.9462 57.6628 31.9086 58.2283 32.8133 57.9273L36.3195 56.7608C37.2711 56.4441 38.2723 57.0859 38.382 58.0828L38.4215 58.4419C38.5298 59.4264 39.5092 60.0677 40.4549 59.7733L52.9705 55.8776C53.6195 55.6755 54.0656 55.08 54.077 54.4004L54.1112 52.364C54.1223 51.6998 54.5492 51.1139 55.178 50.8998L60.277 49.1632C60.9868 48.9215 61.4277 48.2127 61.3308 47.469L61.2032 46.4897C61.1126 45.7945 61.4926 45.1231 62.1353 44.8428L64.3752 43.8659C65.012 43.5882 65.3915 42.926 65.3094 42.2361L64.6896 37.0346C64.6018 36.2974 65.0408 35.5989 65.7431 35.3584L67.6446 34.7073C68.321 34.4757 68.7565 33.8173 68.7051 33.1041L67.7931 20.4616C67.7227 19.4854 66.7363 18.849 65.8179 19.1872C64.8844 19.531 63.886 18.8683 63.8403 17.8746L63.6295 13.2883C63.5871 12.3673 62.6479 11.7639 61.7927 12.1084C61.0355 12.4134 60.1841 11.9753 59.992 11.182L59.7643 10.2418C59.5474 9.34611 58.6111 8.82726 57.7366 9.11821L53.9211 10.3877C53.0467 10.6786 52.1103 10.1598 51.8934 9.26404L51.7035 8.47985C51.4869 7.58534 50.5527 7.06643 49.6788 7.35524Z" fill="white" stroke="#563B00" stroke-width="0.787391"/>
<path d="M31.388 30.3431L33.9973 25.8095C34.0169 25.7754 34.0493 25.7504 34.0874 25.7399L54.3515 20.1644C55.1192 19.9532 55.7563 20.7657 55.3612 21.4521L52.7519 25.9858C52.7323 26.0198 52.6999 26.0448 52.6618 26.0553L32.3977 31.6308C31.6301 31.842 30.9929 31.0295 31.388 30.3431Z" fill="url(#paint2_linear_3818_2398)"/>
<path d="M58.0398 31.1873L53.4785 28.6266C53.4443 28.6073 53.4036 28.6024 53.3655 28.6129L33.1014 34.1884C32.3338 34.3996 32.202 35.4237 32.8926 35.8114L37.4538 38.3721C37.4881 38.3913 37.5287 38.3962 37.5668 38.3858L57.8309 32.8103C58.5986 32.5991 58.7304 31.575 58.0398 31.1873Z" fill="url(#paint3_linear_3818_2398)"/>
<path d="M35.5711 45.5465L38.1804 41.0129C38.2 40.9789 38.2324 40.9538 38.2705 40.9434L58.5346 35.3679C59.3023 35.1567 59.9394 35.9692 59.5443 36.6556L56.935 41.1892C56.9154 41.2233 56.883 41.2483 56.8449 41.2588L36.5808 46.8342C35.8132 47.0455 35.176 46.2329 35.5711 45.5465Z" fill="url(#paint4_linear_3818_2398)"/>
<path d="M33.2341 58.6555C14.1767 49.6032 2.46425 58.2585 -1.00977 63.7176L-1.00977 82.4774L27.8742 79.4996C34.4252 75.033 54.6738 73.2464 63.3092 72.6509C71.9446 72.0553 72.2424 67.5887 71.0513 63.7176C69.8602 59.8466 60.6293 57.7622 49.6116 59.5488C40.8858 60.9638 35.9141 59.5488 33.2341 58.6555Z" fill="#FFE3B1"/>
<path d="M-1.00977 63.7176C2.46425 58.2585 14.1767 49.6032 33.2341 58.6555C35.9141 59.5488 40.8858 60.9638 49.6117 59.5488C60.6293 57.7622 69.8602 59.8466 71.0513 63.7176C72.2424 67.5887 71.9446 72.0553 63.3092 72.6509C54.6738 73.2464 34.4252 75.033 27.8742 79.4996" stroke="#563B00"/>
<path d="M48.7168 66.1002L49.3123 71.1623M51.3968 64.6113C51.496 66.5965 51.7541 70.7455 51.9923 71.4601M53.4812 65.5046L54.0767 71.1623" stroke="#563B00"/>
<path d="M66.8834 62.2285C64.8982 61.9307 60.8088 62.0498 60.3324 64.9084C59.7368 68.4817 60.0346 70.8638 62.4168 71.4594" stroke="#563B00"/>
</g>
<defs>
<linearGradient id="paint0_linear_3818_2398" x1="57.7569" y1="16.1753" x2="42.6198" y2="64.6222" gradientUnits="userSpaceOnUse">
<stop stop-color="#013328"/>
<stop offset="1" stop-color="#0B1B2A"/>
</linearGradient>
<linearGradient id="paint1_linear_3818_2398" x1="77.2198" y1="22.2564" x2="35.1483" y2="9.11166" gradientUnits="userSpaceOnUse">
<stop stop-color="#11ED95"/>
<stop offset="1" stop-color="#00DBFF"/>
</linearGradient>
<linearGradient id="paint2_linear_3818_2398" x1="35.3195" y1="45.6255" x2="57.1433" y2="19.3963" gradientUnits="userSpaceOnUse">
<stop stop-color="#CB47E7"/>
<stop offset="1" stop-color="#14F4B2"/>
</linearGradient>
<linearGradient id="paint3_linear_3818_2398" x1="35.3195" y1="45.6255" x2="57.1433" y2="19.3963" gradientUnits="userSpaceOnUse">
<stop stop-color="#CB47E7"/>
<stop offset="1" stop-color="#14F4B2"/>
</linearGradient>
<linearGradient id="paint4_linear_3818_2398" x1="35.3195" y1="45.6255" x2="57.1433" y2="19.3963" gradientUnits="userSpaceOnUse">
<stop stop-color="#CB47E7"/>
<stop offset="1" stop-color="#14F4B2"/>
</linearGradient>
</defs>
</svg>
