<svg width="100" height="100" viewBox="0 0 100 100" fill="none" xmlns="http://www.w3.org/2000/svg">
<mask id="mask0_3818_2420" style="mask-type:alpha" maskUnits="userSpaceOnUse" x="0" y="0" width="100" height="100">
<rect width="100" height="100" rx="12" fill="white"/>
</mask>
<g mask="url(#mask0_3818_2420)">
<rect width="100" height="100" rx="12" fill="#FFA725"/>
<path d="M87.623 65.2841L96.5006 101.27C88.4457 118.948 74.8751 107.059 70.8962 101.27L69.266 71.8777L87.623 65.2841Z" fill="#FFD998" stroke="#563B00"/>
<path d="M14.6922 71.3242L4.43848 96.3218C7.64345 113.87 19.1279 109.901 24.4696 105.723L30.717 81.5085L14.6922 71.3242Z" fill="#FFD998" stroke="#563B00"/>
<path d="M-0.978806 53.9416C-1.10653 60.6899 7.85954 61.6844 12.3585 61.3381C10.5395 93.0731 20.8797 92.4172 26.2772 88.1225C30.0553 94.5894 34.601 93.5303 36.4016 92.1924C44.4943 94.9986 45.2484 87.8476 44.6139 83.9213C50.9887 87.2022 57.2719 73.9729 37.6279 59.2854C22.5063 47.9792 -0.819146 45.5061 -0.978806 53.9416Z" fill="#FFD998"/>
<path d="M44.6139 83.9213C50.9887 87.2022 57.2719 73.9729 37.6279 59.2854C22.5063 47.9792 -0.819148 45.5061 -0.978804 53.9416C-1.10653 60.6899 7.85954 61.6844 12.3585 61.3381C10.5395 93.0731 20.8797 92.4172 26.2772 88.1225M44.6139 83.9213C45.2484 87.8476 44.4943 94.9986 36.4016 92.1924M44.6139 83.9213C44.4066 82.8936 43.5246 80.339 41.6543 78.3421M36.4016 92.1924C34.601 93.5303 30.0553 94.5894 26.2772 88.1225M36.4016 92.1924C37.9048 90.2028 38.8736 84.5667 32.4178 75.946M26.2772 88.1225C27.5874 86.0421 28.6266 79.9926 22.302 72.4382M43.0276 74.1057C41.1901 73.0079 36.7205 71.4985 33.542 74.2431M37.7046 64.3442C36.0268 67.4606 30.5684 71.5314 22.1571 62.8828" stroke="#563B00"/>
<path d="M100.686 54.9416C100.814 61.6899 91.8475 62.6844 87.3485 62.3381C89.1676 94.0731 78.8273 93.4172 73.4298 89.1225C69.6517 95.5894 65.106 94.5303 63.3054 93.1924C55.2128 95.9986 54.4586 88.8476 55.0931 84.9213C48.7183 88.2022 42.4352 74.9729 62.0791 60.2854C77.2008 48.9792 100.526 46.5061 100.686 54.9416Z" fill="#FFD998"/>
<path d="M55.0931 84.9213C48.7183 88.2022 42.4352 74.9729 62.0791 60.2854C77.2008 48.9792 100.526 46.5061 100.686 54.9416C100.814 61.6899 91.8475 62.6844 87.3485 62.3381C89.1676 94.0731 78.8273 93.4172 73.4298 89.1225M55.0931 84.9213C54.4586 88.8476 55.2128 95.9986 63.3054 93.1924M55.0931 84.9213C55.3004 83.8936 56.1825 81.339 58.0528 79.3421M63.3054 93.1924C65.106 94.5303 69.6517 95.5894 73.4298 89.1225M63.3054 93.1924C61.8022 91.2028 60.8335 85.5667 67.2892 76.946M73.4298 89.1225C72.1196 87.0421 71.0805 80.9926 77.4051 73.4382M56.6794 75.1057C58.5169 74.0079 62.9866 72.4985 66.165 75.2431M62.0025 65.3442C63.6803 68.4606 69.1387 72.5314 77.5499 63.8828" stroke="#563B00"/>
<circle cx="50.0992" cy="40.0817" r="29.0586" fill="#563B00" stroke="#563B00" stroke-width="0.8"/>
<circle cx="50.1031" cy="37.2496" r="29.0586" fill="url(#paint0_linear_3818_2420)" stroke="#563B00" stroke-width="0.8"/>
<path d="M51.3781 25.527C52.3497 25.0447 53.0155 24.0589 53.0155 22.921C53.0155 21.3078 51.6772 20 50.0263 20C48.3753 20 47.037 21.3078 47.037 22.921C47.037 24.0792 47.7269 25.08 48.7269 25.5524C48.4468 29.4632 47.0491 36.1697 43.1942 36.1697C39.4375 36.1697 36.5972 31.8224 35.4866 29.6656C35.5525 29.6405 35.6167 29.6105 35.6788 29.5754C36.6985 29.0002 36.7848 27.2808 35.8715 25.7351C34.9583 24.1894 33.3913 23.4027 32.3716 23.978C31.3519 24.5532 31.2657 26.2726 32.1789 27.8183C32.7979 28.866 33.7171 29.5649 34.5627 29.7275C35.4077 32.0077 35.8336 35.3777 34.0664 35.0222C32.3897 34.6849 29.8931 31.0831 28.9333 29.2751C28.9347 29.2729 28.9362 29.2707 28.9376 29.2685C29.3688 28.6139 28.7556 27.4777 27.5681 26.7307C26.3805 25.9837 25.0682 25.9087 24.637 26.5632C24.2058 27.2178 24.819 28.354 26.0066 29.101C26.2304 29.2419 26.4588 29.3588 26.6848 29.4515C27.8694 30.4626 29.9881 33.1808 31.7177 35.8568C33.6393 38.83 37.0556 46.1847 35.2407 47.906C34.8493 47.8712 34.0237 47.979 34.0664 49.1057C34.2663 54.3803 45.9502 56.0711 50.4056 55.9977C54.7104 55.9269 65.8472 54.2063 66.0405 49.1057C66.0832 47.979 65.2576 47.8712 64.8661 47.906C63.0512 46.1847 66.4675 38.8299 68.3892 35.8568C70.1833 33.0809 72.3962 30.2595 73.5508 29.3454C73.6984 29.2741 73.8459 29.1926 73.9915 29.101C75.1791 28.354 75.7922 27.2178 75.3611 26.5632C74.9299 25.9087 73.6176 25.9837 72.43 26.7307C71.2424 27.4777 70.6292 28.6139 71.0604 29.2685C71.0813 29.3001 71.1042 29.3301 71.129 29.3583C70.1384 31.1913 67.6917 34.69 66.0405 35.0222C64.2666 35.3791 64.7024 31.9821 65.5537 29.7017C66.3662 29.4999 67.23 28.8178 67.8205 27.8183C68.7338 26.2726 68.6475 24.5532 67.6278 23.978C66.6081 23.4027 65.0411 24.1894 64.1279 25.7351C63.2146 27.2808 63.3009 29.0002 64.3206 29.5754C64.4111 29.6265 64.5059 29.6668 64.6041 29.6968C63.4823 31.8641 60.6513 36.1697 56.9126 36.1697C53.0494 36.1697 51.6539 29.434 51.3781 25.527Z" fill="#FFE52F"/>
<path d="M73.2499 43.1576C73.4412 43.0471 73.6859 43.1127 73.7963 43.304L75.5963 46.4217C75.7068 46.613 75.6412 46.8577 75.4499 46.9681C75.2586 47.0786 75.0139 47.013 74.9035 46.8217L73.3035 44.0504L70.5322 45.6504C70.3409 45.7609 70.0963 45.6953 69.9858 45.504C69.8753 45.3127 69.9409 45.0681 70.1322 44.9576L73.2499 43.1576ZM43.9499 60.2092C56.631 63.6071 69.6656 56.0816 73.0635 43.4005L73.8363 43.6075C70.324 56.7154 56.8507 64.4942 43.7429 60.982L43.9499 60.2092ZM56.2548 14.2869C43.5737 10.889 30.539 18.4145 27.1412 31.0956L26.3684 30.8886C29.8807 17.7807 43.3539 10.0019 56.4618 13.5141L56.2548 14.2869ZM27.1412 31.0956C23.7433 43.7767 31.2688 56.8113 43.9499 60.2092L43.7429 60.982C30.635 57.4697 22.8562 43.9964 26.3684 30.8886L27.1412 31.0956ZM69.5759 23.6144C66.483 19.1917 61.8757 15.793 56.2548 14.2869L56.4618 13.5141C62.2713 15.0708 67.0347 18.5848 70.2314 23.1559L69.5759 23.6144Z" fill="#563B00"/>
<path d="M55.1983 46.6907C51.0561 46.6907 48.3525 43.5671 48.3525 38.525C48.3525 33.2616 51.1553 29.6953 55.4463 29.6953C59.7125 29.6953 62.5153 33.0649 62.5153 38.0085C62.5153 43.3703 59.6381 46.6907 55.1983 46.6907ZM55.5207 43.6408C57.5546 43.6408 58.894 41.8208 58.894 38.0331C58.894 34.4914 57.5546 32.8189 55.5207 32.8189C53.4869 32.8189 52.1475 34.4914 52.1475 38.0331C52.1475 41.8208 53.4869 43.6408 55.5207 43.6408Z" fill="#563B00"/>
<path d="M42.6004 29.6953C43.1884 29.6953 43.5412 30.0096 43.847 30.8557C44.3174 32.137 44.5761 34.4095 44.5761 37.6249C44.5761 40.6226 44.1527 43.983 43.6118 45.4094C43.2589 46.328 42.9297 46.6907 42.3416 46.6907C41.7536 46.6907 41.4008 46.2072 41.1891 45.1434C40.9539 44.0072 40.8598 42.3874 40.8598 40.6468C40.8598 38.2776 41.2832 35.4249 41.9183 33.2733C40.9774 34.2887 39.8014 34.8689 38.8135 34.8689C38.2726 34.8689 37.9668 34.5788 37.9668 34.0469C37.9668 32.0645 40.46 29.6953 42.6004 29.6953Z" fill="#563B00"/>
</g>
<defs>
<linearGradient id="paint0_linear_3818_2420" x1="50.1031" y1="7.79102" x2="50.1031" y2="66.7082" gradientUnits="userSpaceOnUse">
<stop stop-color="#FFF5EA"/>
<stop offset="1" stop-color="#FAF6F1"/>
</linearGradient>
</defs>
</svg>
