<svg width="100" height="100" viewBox="0 0 100 100" fill="none" xmlns="http://www.w3.org/2000/svg">
<mask id="mask0_3818_2456" style="mask-type:alpha" maskUnits="userSpaceOnUse" x="0" y="0" width="100" height="100">
<rect width="100" height="100" rx="12" fill="white"/>
</mask>
<g mask="url(#mask0_3818_2456)">
<rect width="100" height="100" rx="12" fill="#FFA725"/>
<path d="M77.4982 87.8373C88.218 83.5494 99.6327 86.0507 104 87.8373L102.401 63.2679L34.7313 62.0667L13.477 51.5091C12.3852 51.2113 9.60594 50.9731 7.22376 52.4024C4.84158 53.8317 5.43712 55.7772 6.03267 56.5712L49.5075 90.2196C52.6044 93.0782 57.5474 92.9988 59.6318 92.6018C65.1902 91.2122 76.5453 88.3138 77.4982 87.8373Z" fill="#FFE3B1" stroke="#563B00"/>
<path d="M68.2676 79.4992C67.7713 78.9037 66.7192 77.4744 66.4809 76.5215" stroke="#563B00"/>
<path d="M6.92463 55.6777C8.21498 56.3725 11.0934 58.0599 10.498 59.8466" stroke="#563B00"/>
<path d="M64.0978 76.225C64.0978 76.8205 64.2169 78.0712 64.6934 78.3094M28.0673 70.8651L26.8762 72.9495M26.2806 70.2695L25.6851 71.4606" stroke="#563B00"/>
<path d="M45.742 9.88869L48.7064 8.4366C49.7303 7.93508 50.9312 8.65392 50.9729 9.79323L51.0597 12.1653C51.0763 12.6181 50.897 13.0562 50.5676 13.3674L43.1308 20.3953C42.8408 20.6694 42.4574 20.8232 42.0583 20.8255L32.0234 20.8834C31.0956 20.8888 30.3643 20.0949 30.4456 19.1706L30.6142 17.2548C30.6578 16.7591 30.9332 16.3131 31.357 16.0521L41.7479 9.65143C42.1383 9.41095 42.6141 9.35257 43.0511 9.49152L44.572 9.97519C44.9586 10.0981 45.3777 10.0671 45.742 9.88869Z" fill="#FFE52F" stroke="#563B00" stroke-width="0.787391"/>
<path d="M27.6902 22.5499L33.6987 19.4779C34.2055 19.2189 34.8125 19.2533 35.2866 19.5681L76.5762 46.9807C77.5292 47.6134 77.5109 49.019 76.5418 49.6268L75.2495 50.4374C74.8316 50.6994 74.5607 51.1421 74.5175 51.6334L74.2585 54.576C74.2191 55.0237 73.9903 55.4333 73.6296 55.7016L70.0872 58.3364L63.672 62.8751C63.2713 63.1586 62.7615 63.239 62.293 63.0927L60.0997 62.4077C59.6495 62.2671 59.16 62.3357 58.7657 62.5946L55.6095 64.6676C55.2093 64.9305 54.7113 64.997 54.2562 64.8484L41.3991 60.6504C40.7513 60.4389 40.3131 59.8348 40.3131 59.1533L40.3132 57.3715C40.3132 56.6974 39.8842 56.0981 39.2461 55.8808L34.0341 54.1057C33.3857 53.8849 32.9544 53.2702 32.9673 52.5852L32.9959 51.077C33.009 50.3858 32.5697 49.7669 31.9129 49.5511L30.2283 48.9976C29.5451 48.7732 29.1007 48.1144 29.1485 47.3969L29.5261 41.7277C29.571 41.0535 29.1808 40.4258 28.5563 40.1677L27.1359 39.5807C26.5217 39.3268 26.133 38.7148 26.1643 38.0509L26.834 23.8777C26.8607 23.3136 27.1873 22.8069 27.6902 22.5499Z" fill="#FFE52F" stroke="#563B00" stroke-width="0.787391"/>
<mask id="mask1_3818_2456" style="mask-type:alpha" maskUnits="userSpaceOnUse" x="25" y="18" width="53" height="48">
<path d="M27.6863 22.5499L33.6948 19.4779C34.2016 19.2189 34.8086 19.2533 35.2827 19.5681L76.5723 46.9807C77.5253 47.6134 77.507 49.019 76.5379 49.6268L75.2456 50.4374C74.8277 50.6994 74.5568 51.1421 74.5136 51.6334L74.2546 54.576C74.2152 55.0237 73.9864 55.4333 73.6257 55.7016L70.0833 58.3364L63.6681 62.8751C63.2674 63.1586 62.7576 63.239 62.2891 63.0927L60.0958 62.4077C59.6456 62.2671 59.1561 62.3357 58.7618 62.5946L55.6056 64.6676C55.2054 64.9305 54.7074 64.997 54.2523 64.8484L41.3952 60.6504C40.7474 60.4389 40.3092 59.8348 40.3092 59.1533L40.3093 57.3715C40.3093 56.6974 39.8803 56.0981 39.2422 55.8808L34.0302 54.1057C33.3818 53.8849 32.9505 53.2702 32.9634 52.5852L32.992 51.077C33.0051 50.3858 32.5658 49.7669 31.909 49.5511L30.2244 48.9976C29.5412 48.7732 29.0968 48.1144 29.1446 47.3969L29.5222 41.7277C29.5671 41.0535 29.1769 40.4258 28.5524 40.1677L27.132 39.5807C26.5178 39.3268 26.1291 38.7148 26.1604 38.0509L26.8301 23.8777C26.8568 23.3136 27.1834 22.8069 27.6863 22.5499Z" fill="url(#paint0_linear_3818_2456)" stroke="url(#paint1_linear_3818_2456)" stroke-width="0.787391"/>
</mask>
<g mask="url(#mask1_3818_2456)">
<path d="M42.7732 58.5833L47.6063 55.3848C47.8951 55.1937 48.2389 55.1031 48.5844 55.1271L58.0994 55.7869C58.4641 55.8122 58.8262 55.7098 59.1237 55.4973L72.6503 45.8345C72.9744 45.603 73.3742 45.5028 73.7692 45.5543L80.2745 46.402C81.5707 46.5709 82.1087 48.1543 81.1837 49.0779L63.1002 67.1349C62.6782 67.5563 62.0544 67.7032 61.4888 67.5143L43.1436 61.3903C41.8986 60.9747 41.6786 59.3077 42.7732 58.5833Z" fill="#563B00"/>
<path d="M39.7886 56.6485L45.8758 52.5158C46.8605 51.8474 46.7763 50.3703 45.7221 49.818L42.5364 48.1491C42.0181 47.8776 41.392 47.9158 40.9106 48.2483L34.6449 52.576C33.6302 53.2769 33.7783 54.8193 34.9079 55.3142L38.2721 56.788C38.768 57.0053 39.3407 56.9526 39.7886 56.6485Z" fill="#563B00"/>
<path d="M32.7733 50.6875L39.1744 46.3418C40.0397 45.7543 40.1025 44.5021 39.3003 43.831L38.7345 43.3577C38.1914 42.9034 37.4118 42.8674 36.8291 43.2699L30.3989 47.7112C29.471 48.3521 29.4978 49.7319 30.4498 50.3364L31.0446 50.7141C31.5746 51.0506 32.2538 51.0402 32.7733 50.6875Z" fill="#563B00"/>
<path d="M29.5184 40.8946L36.3636 36.4588C37.1629 35.9408 37.323 34.8372 36.7038 34.1134L36.3938 33.7511C35.8732 33.1427 34.9789 33.0217 34.3154 33.4701L27.4326 38.1215C26.3969 38.8214 26.5503 40.391 27.7019 40.8771L28.0496 41.0238C28.5304 41.2268 29.0804 41.1784 29.5184 40.8946Z" fill="#563B00"/>
</g>
<path d="M51.8212 7.35524L63.8893 11.3438C64.6241 11.5866 65.0735 12.3273 64.9496 13.0912L64.7744 14.1714C64.6503 14.9363 65.1011 15.6778 65.8373 15.9197L71.1419 17.6624C71.8954 17.9099 72.3472 18.679 72.1965 19.4576L72.0297 20.3199C71.8861 21.0621 72.2902 21.8017 72.9924 22.0817L75.2537 22.9835C75.9317 23.2539 76.335 23.9548 76.2281 24.6768L75.4607 29.8624C75.3505 30.6072 75.7827 31.3257 76.4923 31.5773L78.7089 32.363C79.371 32.5977 79.7975 33.2425 79.7546 33.9436L78.9621 46.8875C78.8972 47.9473 77.8181 48.6384 76.8255 48.2613C75.8297 47.8829 74.7479 48.5797 74.6884 49.6433L74.4494 53.911C74.3991 54.8099 73.4806 55.3934 72.6455 55.057C71.8768 54.7474 71.0168 55.2177 70.8626 56.032L70.7312 56.726C70.5538 57.6628 69.5914 58.2283 68.6867 57.9273L65.1805 56.7608C64.2289 56.4441 63.2277 57.0859 63.118 58.0828L63.0785 58.4419C62.9702 59.4264 61.9908 60.0677 61.0451 59.7733L48.5295 55.8776C47.8805 55.6755 47.4344 55.08 47.423 54.4004L47.3888 52.364C47.3777 51.6998 46.9508 51.1139 46.322 50.8998L41.223 49.1632C40.5132 48.9215 40.0723 48.2127 40.1692 47.469L40.2968 46.4897C40.3874 45.7945 40.0074 45.1231 39.3647 44.8428L37.1248 43.8659C36.488 43.5882 36.1085 42.926 36.1906 42.2361L36.8104 37.0346C36.8982 36.2974 36.4592 35.5989 35.7569 35.3584L33.8554 34.7073C33.179 34.4757 32.7435 33.8173 32.7949 33.1041L33.7069 20.4616C33.7773 19.4854 34.7637 18.849 35.6821 19.1872C36.6156 19.531 37.614 18.8683 37.6597 17.8746L37.8705 13.2883C37.9129 12.3673 38.8521 11.7639 39.7073 12.1084C40.4645 12.4134 41.3159 11.9753 41.508 11.182L41.7357 10.2418C41.9526 9.34611 42.8889 8.82726 43.7634 9.11821L47.5789 10.3877C48.4533 10.6786 49.3897 10.1598 49.6066 9.26404L49.7965 8.47985C50.0131 7.58534 50.9473 7.06643 51.8212 7.35524Z" fill="white" stroke="#563B00" stroke-width="0.787391"/>
<path d="M68.2659 58.6555C87.3233 49.6032 99.0357 58.2585 102.51 63.7176L102.51 82.4774L73.6258 79.4996C67.0748 75.033 46.8262 73.2464 38.1908 72.6509C29.5554 72.0553 29.2576 67.5887 30.4487 63.7176C31.6398 59.8466 40.8707 57.7622 51.8884 59.5488C60.6142 60.9638 65.5859 59.5488 68.2659 58.6555Z" fill="#FFE3B1"/>
<path d="M102.51 63.7176C99.0357 58.2585 87.3233 49.6032 68.2659 58.6555C65.5859 59.5488 60.6142 60.9638 51.8883 59.5488C40.8707 57.7622 31.6398 59.8466 30.4487 63.7176C29.2576 67.5887 29.5554 72.0553 38.1908 72.6509C46.8262 73.2464 67.0748 75.033 73.6258 79.4996" stroke="#563B00"/>
<path d="M52.7832 66.1002L52.1877 71.1623M50.1032 64.6113C50.004 66.5965 49.7459 70.7455 49.5077 71.4601M48.0188 65.5046L47.4233 71.1623" stroke="#563B00"/>
<path d="M34.6166 62.2285C36.6018 61.9307 40.6912 62.0498 41.1676 64.9084C41.7632 68.4817 41.4654 70.8638 39.0832 71.4594" stroke="#563B00"/>
<path d="M46.6146 31.1296C46.8081 30.4159 47.2671 29.9065 47.7949 29.4542C47.849 29.405 47.879 29.358 47.8875 29.2876C47.9679 28.812 47.9134 28.3294 47.8778 27.8515C47.8249 27.2042 47.6656 26.5791 47.4521 25.9588C47.4314 25.8973 47.4031 25.8682 47.3395 25.8486C46.7254 25.6756 46.4236 25.2088 46.2445 24.617C46.1782 24.4014 46.136 24.1836 46.1538 23.9605C46.1946 23.3301 46.7069 22.9425 47.3142 23.0655C47.7221 23.1556 48.04 23.3868 48.2988 23.7181C48.4406 23.908 48.5764 24.0985 48.6685 24.3245C48.8105 24.6916 48.7764 25.0175 48.5697 25.3272C48.387 25.5904 48.3578 25.555 48.601 25.8624C49.0669 26.4602 49.6529 26.9142 50.305 27.2737C50.5223 27.3936 50.75 27.4999 50.9665 27.6134C51.0189 27.6404 51.067 27.6361 51.1245 27.612C51.7169 27.4071 52.3264 27.2387 52.9524 27.1448C53.2091 27.1092 53.4607 27.036 53.7269 27.0249C53.7749 27.0206 53.7852 27.007 53.7895 26.9497C53.8175 26.5357 53.8026 26.1192 53.7267 25.7019C53.7017 25.5648 53.6998 25.4194 53.6499 25.2783C53.631 25.2293 53.6086 25.1997 53.564 25.1847C53.0022 24.95 52.6455 24.5261 52.4673 23.9406C52.2357 23.189 52.2823 22.4695 52.6597 21.8091C52.8655 21.4489 53.1813 21.2244 53.5943 21.1748C53.8992 21.1349 54.21 21.0945 54.5295 21.2052C55.0415 21.3874 55.3741 21.7691 55.6038 22.2423C55.91 22.8733 56.0307 23.5272 55.8234 24.1851C55.7086 24.5436 55.5062 24.8402 55.1929 25.0391C55.1483 25.0684 55.1277 25.0956 55.1294 25.1524C55.1495 25.5178 55.1927 25.8747 55.2788 26.2342C55.3228 26.4202 55.3787 26.6051 55.4407 26.7894C55.4605 26.8447 55.4691 26.8629 55.5292 26.8575C56.4351 26.8082 57.3385 26.8287 58.2421 26.9822C58.2919 26.9904 58.3408 26.9924 58.3846 26.9568C58.8875 26.5447 59.3955 26.1258 59.7772 25.5853C59.9651 25.3153 60.1194 25.0229 60.2549 24.726C60.32 24.5809 60.2925 24.4694 60.167 24.354C59.9934 24.1986 59.8422 24.0285 59.7724 23.7879C59.7225 23.6024 59.7043 23.4268 59.7402 23.2464C59.8437 22.718 60.0348 22.2515 60.494 21.9636C60.87 21.7337 61.2615 21.7051 61.6525 21.9803C61.875 22.1377 62.0341 22.364 62.0892 22.6313C62.215 23.1898 62.1863 23.7304 61.8689 24.2082C61.7686 24.3628 61.6321 24.4763 61.4724 24.5539C61.3754 24.6005 61.3463 24.6538 61.3378 24.7685C61.3013 25.3858 61.3259 26.004 61.4414 26.6203C61.5311 27.0934 61.6277 27.5722 61.8178 28.0237C61.8531 28.1028 61.8969 28.1559 61.9691 28.1937C62.463 28.4661 62.9322 28.7787 63.2992 29.2333C63.3946 29.3514 63.4797 29.4831 63.5837 29.6194C63.7115 29.3991 63.8333 29.1793 63.9551 28.9595C64.1977 28.5137 64.3871 28.0346 64.5319 27.5406C64.5533 27.4754 64.5481 27.4378 64.4923 27.3859C64.2284 27.1499 64.0762 26.8406 63.9815 26.5073C63.7757 25.766 63.9958 25.1133 64.2925 24.4854C64.4297 24.201 64.5728 23.9159 64.7762 23.6699C65.1374 23.2451 65.5898 23.0401 66.148 23.1168C66.6006 23.1777 66.946 23.4317 67.1344 23.8706C67.2428 24.1268 67.2765 24.415 67.2965 24.6917C67.333 25.2202 67.2509 25.7276 67.0667 26.1999C66.807 26.8751 66.4012 27.4178 65.7213 27.6938C65.6638 27.7179 65.6561 27.7503 65.6493 27.7889C65.5629 28.2207 65.5143 28.6619 65.5215 29.1107C65.5332 29.7237 65.7268 30.2888 65.9857 30.8417C66.0038 30.8844 66.0279 30.9266 66.0571 30.9619C66.2015 31.1706 66.284 31.1949 66.4848 31.063C66.7912 30.8583 67.0478 30.6012 67.2966 30.3321C67.5549 30.0431 67.8062 29.7484 68.0361 29.4304C68.5714 28.6799 69.0199 27.8738 69.3687 27.007C69.3919 26.9543 69.4064 26.9277 69.3343 26.8898C69.1762 26.8027 69.0807 26.5517 69.1166 26.3269C69.1678 25.9931 69.366 25.7539 69.5788 25.5323C70.1117 24.9845 70.7382 24.5867 71.4585 24.3388C71.656 24.2705 71.8466 24.2408 72.0545 24.3805C72.2418 24.503 72.2703 24.665 72.2721 24.8548C72.2681 25.178 72.1361 25.4557 71.9894 25.7156C71.7896 26.0753 71.5348 26.3893 71.2182 26.6518C70.9015 26.9144 70.6811 27.2569 70.489 27.6286C70.1177 28.3328 69.7327 29.0255 69.3477 29.7183C68.924 30.4841 68.5734 31.2941 68.2418 32.1087C67.8269 33.1143 67.4258 34.1314 67.1269 35.1836C66.8658 36.1122 66.6243 37.0517 66.559 38.0324C66.5182 38.6184 66.5315 39.1996 66.6608 39.7831C66.7401 40.1369 66.8417 40.476 67.0017 40.7972C67.0429 40.8758 67.067 40.9179 67.1709 40.877C67.5014 40.7588 67.8743 40.9914 67.9836 41.3425C68.0998 41.6992 68.0177 42.0294 67.8899 42.3384C67.6019 43.0288 67.1361 43.5769 66.6006 44.0615C65.4747 45.0737 64.1614 45.7861 62.7664 46.3476C62.017 46.6488 61.2486 46.901 60.4759 47.122C60.002 47.2593 59.5092 47.3477 59.0266 47.4668C58.2436 47.657 57.4373 47.6784 56.6447 47.7556C56.3682 47.7803 56.0848 47.755 55.8032 47.7422C55.4914 47.7321 55.1771 47.7032 54.8654 47.6931C54.3939 47.6719 53.9302 47.6184 53.4587 47.5529C52.5964 47.4337 51.7384 47.3015 50.8907 47.0671C49.6822 46.732 48.4994 46.3186 47.4082 45.6438C46.8292 45.2841 46.2964 44.8632 45.8726 44.306C45.7162 44.0985 45.5812 43.87 45.5277 43.6152C45.4252 43.1369 45.6721 42.6781 46.2184 42.7559C46.2991 42.7676 46.299 42.7233 46.311 42.6779C46.377 42.4505 46.3854 42.2029 46.3895 41.9683C46.4003 41.5178 46.339 41.0739 46.2356 40.6337C46.0547 39.8965 45.757 39.1951 45.4138 38.5168C44.6381 36.9972 43.6615 35.6095 42.6522 34.25C41.9645 33.324 41.2236 32.4533 40.4329 31.6187C40.0058 31.1694 39.6061 30.6987 39.1901 30.2421C38.9452 29.9665 38.6599 29.7515 38.3369 29.5714C37.7862 29.2851 37.3179 28.8902 36.9757 28.351C36.8828 28.2074 36.82 28.0611 36.7967 27.8923C36.7518 27.6114 37.0058 27.3355 37.2763 27.3556C37.9299 27.4175 38.5586 27.6082 39.1565 27.9282C39.5242 28.1233 39.8876 28.3313 40.1653 28.6674C40.3621 28.903 40.4121 29.1771 40.3041 29.4083C40.2998 29.4213 40.2964 29.4406 40.2852 29.4479C40.1161 29.5453 40.2502 29.6347 40.3164 29.7174C40.9551 30.5529 41.6633 31.3188 42.477 31.9678C42.9908 32.384 43.515 32.7866 44.1223 33.0425C44.4066 33.1627 44.4934 33.1296 44.5661 32.8193C44.656 32.4567 44.6712 32.0819 44.6666 31.6961C44.6497 31.0013 44.3924 30.3723 44.094 29.7532C44.0527 29.6746 44.0123 29.6466 43.9307 29.6286C43.0933 29.4249 42.5115 28.8692 42.0738 28.1233C41.9139 27.8464 41.7711 27.5616 41.691 27.2459C41.6014 26.9058 41.4818 26.5683 41.5356 26.209C41.6065 25.7089 41.984 25.27 42.4906 25.1931C43.1449 25.084 43.6689 25.3537 44.1304 25.8315C44.5146 26.234 44.8824 26.6505 45.1173 27.1613C45.3934 27.7507 45.4565 28.3401 45.2097 28.9319C45.2054 28.9449 45.2011 28.958 45.1908 28.9715C45.0132 29.1393 45.1078 29.2955 45.217 29.4693C45.5747 30.0324 46.0087 30.5317 46.4642 31.0101C46.5123 31.0501 46.5399 31.1173 46.6146 31.1296ZM62.0425 36.4356C62.0253 36.3992 62.0244 36.3929 62.0244 36.3929C62.0304 36.3924 62.0304 36.3924 62.0364 36.3919C62.0545 36.3903 62.0716 36.3824 62.0897 36.3808C63.9362 35.5637 65.6417 34.5187 67.1451 33.1563C67.2421 33.0653 67.3201 32.9697 67.3759 32.8445C68.2263 30.9833 69.1703 29.1834 70.3412 27.5278C70.5248 27.2709 70.6877 26.9968 70.9186 26.7736C71.1863 26.5091 71.4402 26.2332 71.6538 25.9292C71.8323 25.679 71.9772 25.4066 72.0379 25.0973C72.1072 24.7176 71.906 24.495 71.5342 24.5346C71.4922 24.5383 71.4449 24.5489 71.4037 24.5589C70.7632 24.7237 70.2122 25.0515 69.7471 25.5172C69.5704 25.6913 69.4082 25.883 69.3268 26.1308C69.2411 26.3917 69.3521 26.6667 69.5711 26.7104C69.6837 26.732 69.6725 26.7836 69.6468 26.8619C69.4574 27.3409 69.2809 27.8252 69.0657 28.2938C68.5968 29.3043 68.011 30.2176 67.1932 30.949C66.9769 31.1456 66.7392 31.3188 66.4688 31.4316C66.3538 31.4798 66.231 31.4718 66.1338 31.3855C65.9731 31.2353 65.8279 31.0647 65.7204 30.8591C65.6301 30.6899 65.5982 30.5028 65.5482 30.3174C65.4345 29.8908 65.3638 29.4666 65.3463 29.0314C65.3236 28.5586 65.3816 28.0977 65.4834 27.6454C65.5202 27.4712 65.5587 27.3095 65.7863 27.3272C65.8172 27.3307 65.849 27.2963 65.8833 27.2805C66.6601 26.825 67.0211 26.09 67.1028 25.1838C67.1369 24.8136 67.1271 24.4347 67.0092 24.0654C66.8938 23.7149 66.605 23.3419 66.1241 23.3405C65.8931 23.3422 65.6759 23.3996 65.469 23.4877C65.0098 23.687 64.7301 24.0855 64.5098 24.5166C64.2637 24.9818 64.1421 25.5117 64.1512 26.0616C64.1602 26.6116 64.3623 27.062 64.9095 27.2789C64.9937 27.3157 64.9808 27.3549 64.9654 27.4195C64.8618 27.7706 64.7711 28.1269 64.6348 28.4619C64.1437 29.6643 63.4206 30.6848 62.5213 31.5754C62.1412 31.9513 61.755 32.3276 61.2795 32.5853C60.561 32.9787 59.8346 33.0057 59.0897 32.5468C58.5845 32.2375 58.142 31.8529 57.762 31.3931C56.9945 30.4615 56.3668 29.4414 55.8567 28.3475C55.5272 27.6363 55.2733 26.8994 55.1061 26.1293C55.0363 25.8001 54.9974 25.4744 54.9457 25.1435C54.9224 25.019 54.9558 24.9527 55.0511 24.8935C55.336 24.7098 55.5445 24.4569 55.6318 24.1199C55.8322 23.3234 55.6289 22.6009 55.1072 21.9512C54.7926 21.5679 54.3957 21.3375 53.9113 21.3554C53.397 21.3761 53.0486 21.6731 52.8188 22.1241C52.5641 22.6153 52.5147 23.1388 52.6285 23.6983C52.7458 24.2829 53.0389 24.7315 53.5836 24.974C53.7459 25.0481 53.8233 25.1235 53.85 25.3174C53.964 26.0542 53.992 26.786 53.9402 27.5123C53.8603 28.6082 53.6224 29.6613 53.2634 30.6746C52.9627 31.5371 52.5949 32.3549 51.9814 33.0238C51.5902 33.4513 51.1293 33.7267 50.5479 33.747C50.0877 33.7628 49.6453 33.6441 49.2209 33.4351C48.5354 33.0976 47.8884 32.6869 47.2801 32.2032C46.2361 31.385 45.35 30.4323 44.6956 29.2627C44.6397 29.1664 44.6336 29.1226 44.728 29.0572C44.9829 28.8762 45.1373 28.6282 45.1577 28.2908C45.1703 28.0302 45.1238 27.7811 45.03 27.5426C44.8235 27.0166 44.5663 26.5205 44.1401 26.1218C43.6992 25.7054 43.2198 25.4065 42.6041 25.4425C42.2237 25.4638 41.9396 25.6538 41.8257 26.0185C41.7623 26.2204 41.7436 26.4373 41.7858 26.6551C41.8384 26.9036 41.8781 27.1469 41.9659 27.386C42.2852 28.288 42.8508 28.9465 43.7407 29.2657C43.7982 29.2859 43.854 29.2936 43.9141 29.2882C43.9803 29.2823 44.0635 29.2685 44.1194 29.3648C44.4462 29.9243 44.6794 30.5112 44.7915 31.1469C44.851 31.4897 44.8676 31.8301 44.8911 32.1762C44.9154 32.5728 44.8478 32.9207 44.6429 33.2429C44.5425 33.3974 44.4584 33.4493 44.2703 33.4091C43.9757 33.3468 43.6965 33.2198 43.4319 33.0662C42.5711 32.5608 41.8295 31.9054 41.1702 31.1413C40.7207 30.6181 40.3278 30.0645 39.9281 29.5052C39.8902 29.4516 39.8653 29.4032 39.952 29.3701C40.0911 29.3197 40.1416 29.2012 40.1398 29.0558C40.1336 28.7905 39.9694 28.6152 39.7898 28.4604C39.3705 28.1117 38.8937 27.8758 38.3861 27.7249C38.1129 27.6417 37.8321 27.5908 37.5504 27.578C37.1657 27.5681 37.0318 27.7003 37.0587 28.0271C37.0691 28.1464 37.1259 28.249 37.1886 28.351C37.4388 28.7528 37.7894 29.0443 38.1615 29.3149C38.4184 29.5008 38.695 29.6534 38.9425 29.8591C39.3833 30.2312 39.819 30.6101 40.2332 31.0099C41.4802 32.2404 42.662 33.5275 43.7468 34.9055C43.8353 35.0179 43.9281 35.1172 44.0544 35.1946C45.1198 35.8147 46.2296 36.3169 47.3755 36.7272C48.1821 37.016 49.0075 37.2651 49.8364 37.4505C49.8802 37.4593 49.9334 37.4482 49.9618 37.5216C48.0792 37.2847 46.2678 36.7693 44.5273 35.9309C44.5256 35.9627 44.5334 35.9747 44.5402 35.9804C45.2108 37.003 45.9038 38.0109 46.3486 39.1612C46.5087 39.5711 46.6516 39.9888 46.7532 40.4165C46.9721 41.3844 46.9651 42.3473 46.7855 43.2939C46.7625 43.4352 46.7892 43.5405 46.9009 43.6444C47.1312 43.8581 47.3666 44.0649 47.6287 44.2441C48.518 44.8673 49.4673 45.3522 50.4551 45.764C50.7068 45.8681 50.9482 45.9858 51.2128 46.0508C51.4584 46.1111 51.7015 46.197 51.9497 46.2761C51.9008 46.2741 51.851 46.2659 51.8072 46.2572C50.3256 45.9275 48.9168 45.376 47.6272 44.4974C47.3514 44.3068 47.0807 44.1095 46.8401 43.8651C46.755 43.7777 46.6871 43.6825 46.6818 43.5564C46.6774 43.3922 46.6044 43.3038 46.436 43.2745C46.2677 43.2452 46.1724 43.3044 46.1339 43.4661C46.0903 43.6789 46.1771 43.8674 46.2958 44.0213C46.4668 44.2466 46.6491 44.4645 46.8682 44.6412C47.608 45.2398 48.4104 45.7188 49.2737 46.0658C50.0726 46.3869 50.8998 46.6041 51.726 46.8152C52.6597 47.0546 53.6053 47.2486 54.562 47.3467C54.9819 47.3914 55.3976 47.4049 55.8158 47.4372C56.3379 47.4728 56.8635 47.4892 57.3822 47.4555C57.9369 47.4186 58.4735 47.2946 59.0032 47.165C59.4102 47.0717 59.8163 46.9721 60.2138 46.8542C61.1608 46.5734 62.0767 46.2003 62.9678 45.7788C63.87 45.3501 64.7722 44.9213 65.5566 44.3004C66.2809 43.7292 66.9545 43.0993 67.3703 42.2329C67.4844 42.0011 67.5434 41.768 67.3929 41.5155C67.3285 41.401 67.2142 41.3669 67.0751 41.4173C66.9653 41.4588 66.8417 41.5331 66.8838 41.6623C66.957 41.8837 66.8687 42.0372 66.7614 42.186C66.3746 42.7333 65.9095 43.199 65.3963 43.6247C64.8067 44.1142 64.1716 44.5381 63.4892 44.884C63.1647 45.0459 62.8471 45.2136 62.4986 45.3333C62.872 45.1734 63.2273 44.9707 63.5672 44.7441C64.0753 44.4138 64.574 44.059 65.0357 43.657C65.6553 43.1205 66.2611 42.5726 66.7105 41.8614C66.78 41.7476 66.7782 41.6464 66.7249 41.5246C66.472 40.9711 66.2422 40.4093 66.1173 39.8127C65.8854 38.7066 65.9301 37.6202 66.1465 36.5436C66.3158 35.6992 66.6003 34.8952 66.8719 34.0859C66.8839 34.0406 66.9208 33.9993 66.8855 33.9201C65.4248 35.0635 63.8042 35.8857 62.0425 36.4356ZM50.5933 33.5467C50.7916 33.529 51.002 33.5102 51.1625 33.3945C51.444 33.1858 51.71 32.9531 51.946 32.6788C52.4547 32.0889 52.7711 31.3833 53.0341 30.6445C53.3991 29.6307 53.631 28.5781 53.7487 27.4914C53.7632 27.3762 53.7306 27.3601 53.6361 27.3812C53.3098 27.442 52.9844 27.5091 52.653 27.5767C51.8605 27.7424 51.0904 27.9822 50.3461 28.2766C49.3426 28.6765 48.4095 29.1903 47.6338 29.9623C47.2863 30.3099 46.9672 30.6866 46.764 31.1542C46.7229 31.2528 46.7427 31.308 46.814 31.3839C47.4869 32.0265 48.2044 32.5954 48.9742 33.1027C49.4811 33.4245 50.0085 33.5863 50.5933 33.5467ZM60.2113 32.6935C60.7669 32.6185 61.1583 32.5012 61.4793 32.2256C61.8389 31.9213 62.1615 31.5696 62.4635 31.2008C62.8023 30.7907 63.1197 30.3572 63.4165 29.9065C63.4765 29.8125 63.5091 29.74 63.4086 29.6287C63.2788 29.482 63.149 29.3354 63.0038 29.2091C62.2278 28.5251 61.3352 28.0985 60.3809 27.7976C58.962 27.3483 57.5252 27.2109 56.0739 27.1886C55.9339 27.1885 55.7905 27.1633 55.6488 27.195C55.5896 27.2066 55.5553 27.2223 55.6017 27.2942C55.6172 27.3181 55.6223 27.3556 55.6387 27.3858C56.0887 28.5294 56.6743 29.5975 57.3904 30.597C57.8951 31.2989 58.4726 31.912 59.214 32.3458C59.5714 32.5544 59.9228 32.7636 60.2113 32.6935Z" fill="#563B00"/>
<mask id="path-17-outside-1_3818_2456" maskUnits="userSpaceOnUse" x="35.2177" y="18.7326" width="40.6838" height="31.0303" fill="black">
<rect fill="white" x="35.2177" y="18.7326" width="40.6838" height="31.0303"/>
<path d="M62.039 36.4342C63.8007 35.8842 65.4153 35.0626 66.8829 33.9249C66.9182 34.0041 66.8813 34.0453 66.8693 34.0907C66.5977 34.9 66.3132 35.704 66.1439 36.5484C65.9274 37.6249 65.8768 38.712 66.1146 39.8175C66.2396 40.4141 66.4693 40.9759 66.7222 41.5294C66.7756 41.6512 66.7782 41.7586 66.7079 41.8662C66.2645 42.5768 65.6526 43.1253 65.0331 43.6617C64.5714 44.0638 64.0727 44.4186 63.5646 44.7489C63.2239 44.9692 62.8685 45.1719 62.4959 45.3381C62.8385 45.2189 63.163 45.057 63.4866 44.8888C64.169 44.5429 64.8041 44.119 65.3937 43.6295C65.9009 43.2044 66.3728 42.7444 66.7588 42.1908C66.8652 42.0357 66.9484 41.889 66.8812 41.6671C66.839 41.5379 66.9626 41.4636 67.0725 41.4221C67.2116 41.3717 67.3198 41.4063 67.3903 41.5203C67.5348 41.7733 67.4757 42.0064 67.3677 42.2377C66.9519 43.1041 66.2783 43.734 65.554 44.3052C64.7635 44.9266 63.8613 45.3554 62.9652 45.7836C62.075 46.2114 61.1581 46.5782 60.2112 46.859C59.8137 46.9769 59.4076 47.0764 59.0006 47.1698C58.464 47.2937 57.9282 47.4239 57.3795 47.4603C56.8609 47.494 56.3362 47.4839 55.8132 47.442C55.395 47.4097 54.9793 47.3962 54.5594 47.3515C53.6027 47.2534 52.663 47.0588 51.7234 46.82C50.8971 46.6089 50.07 46.3917 49.2711 46.0706C48.4018 45.7241 47.6054 45.2446 46.8655 44.646C46.6464 44.4693 46.4642 44.2514 46.2931 44.0261C46.1737 43.8659 46.0868 43.6774 46.1313 43.4709C46.1698 43.3092 46.2651 43.25 46.4334 43.2793C46.6017 43.3085 46.6748 43.397 46.6792 43.5612C46.6845 43.6873 46.7532 43.7888 46.8375 43.8699C47.0781 44.1142 47.3488 44.3116 47.6246 44.5022C48.9151 45.3871 50.323 45.9323 51.8045 46.262C51.8483 46.2707 51.8982 46.2789 51.9471 46.2809C51.6989 46.2018 51.4566 46.1221 51.2101 46.0555C50.9456 45.9906 50.7042 45.8729 50.4525 45.7687C49.4707 45.3564 48.5145 44.8658 47.6261 44.2488C47.37 44.0692 47.1286 43.8628 46.8983 43.6492C46.7865 43.5452 46.759 43.4338 46.7829 43.2987C46.9616 42.3458 46.9695 41.3892 46.7506 40.4213C46.655 39.993 46.5061 39.5759 46.346 39.166C45.9012 38.0157 45.2082 37.0078 44.5376 35.9852C44.5299 35.9732 44.523 35.9675 44.5247 35.9357C46.2643 36.7678 48.0706 37.29 49.9592 37.5264C49.9299 37.4467 49.8715 37.4646 49.8337 37.4553C48.9989 37.2704 48.1795 37.0208 47.3729 36.732C46.227 36.3217 45.1171 35.8195 44.0518 35.1993C43.9255 35.122 43.8327 35.0227 43.7442 34.9103C42.6533 33.5328 41.4707 32.2395 40.2306 31.0146C39.8215 30.6081 39.3798 30.2297 38.9399 29.8639C38.6984 29.6576 38.4158 29.5056 38.1589 29.3197C37.7868 29.0491 37.4362 28.7576 37.186 28.3558C37.1233 28.2538 37.0656 28.145 37.0561 28.0319C37.0292 27.7051 37.1631 27.5729 37.5478 27.5828C37.8286 27.5894 38.1103 27.6465 38.3835 27.7297C38.8911 27.8805 39.3679 28.1165 39.7872 28.4652C39.9728 28.6195 40.137 28.7947 40.1372 29.0606C40.1399 29.2123 40.0953 29.3302 39.9494 29.3749C39.8627 29.408 39.8876 29.4564 39.9254 29.51C40.3252 30.0693 40.7189 30.6292 41.1676 31.1461C41.8268 31.9102 42.5693 32.5718 43.4293 33.071C43.6939 33.2246 43.9731 33.3516 44.2677 33.4139C44.4558 33.454 44.5399 33.4022 44.6402 33.2477C44.8452 32.9255 44.9128 32.5776 44.8884 32.181C44.871 31.8344 44.8484 31.4945 44.7889 31.1517C44.6776 30.5223 44.4436 29.9291 44.1168 29.3696C44.0609 29.2733 43.9776 29.2871 43.9115 29.293C43.8514 29.2984 43.7956 29.2907 43.738 29.2705C42.8413 28.9455 42.2826 28.2928 41.9633 27.3908C41.8755 27.1517 41.8349 26.9021 41.7832 26.6599C41.741 26.4421 41.7537 26.2257 41.8231 26.0233C41.9422 25.6518 42.2271 25.4681 42.6015 25.4473C43.2112 25.4118 43.6906 25.7108 44.1375 26.1266C44.5577 26.5259 44.8148 27.022 45.0274 27.5474C45.1212 27.7859 45.1686 28.0412 45.155 28.2956C45.1407 28.6324 44.9872 28.8867 44.7254 29.062C44.631 29.1274 44.6371 29.1712 44.6929 29.2675C45.3482 30.4433 46.2343 31.396 47.2775 32.208C47.885 32.6855 48.5319 33.0961 49.2183 33.4399C49.6427 33.6489 50.0859 33.7738 50.5453 33.7518C51.1327 33.7309 51.5927 33.4493 51.9788 33.0286C52.5923 32.3597 52.9601 31.5419 53.2608 30.6794C53.619 29.6599 53.8569 28.6068 53.9376 27.5171C53.9885 26.7845 53.9605 26.0527 53.8474 25.3222C53.8155 25.1351 53.7433 25.0529 53.5809 24.9788C53.0363 24.7363 52.7423 24.2815 52.6259 23.7031C52.5121 23.1436 52.5666 22.6133 52.8162 22.1289C53.0468 21.6841 53.3884 21.3814 53.9087 21.3602C54.393 21.3422 54.79 21.5726 55.1046 21.956C55.6263 22.6057 55.8356 23.3277 55.6292 24.1247C55.5428 24.468 55.3343 24.7208 55.0485 24.8983C54.9532 24.9575 54.9258 25.0232 54.943 25.1483C54.9948 25.4792 55.0337 25.8049 55.1035 26.1341C55.2699 26.8979 55.5238 27.6348 55.8541 28.3523C56.3642 29.4462 56.9858 30.4668 57.7594 31.3979C58.1393 31.8577 58.5828 32.2485 59.0871 32.5516C59.8319 33.0105 60.5644 32.983 61.2769 32.5901C61.7524 32.3324 62.1385 31.956 62.5187 31.5802C63.4179 30.6896 64.1462 29.6623 64.6322 28.4667C64.7684 28.1317 64.8652 27.7749 64.9628 27.4243C64.9782 27.3596 64.9911 27.3205 64.9069 27.2837C64.3597 27.0667 64.1576 26.6164 64.1485 26.0664C64.1395 25.5165 64.2619 24.9928 64.5071 24.5214C64.7284 24.0965 65.008 23.698 65.4664 23.4925C65.6733 23.4044 65.8896 23.3407 66.1215 23.3453C66.6024 23.3466 66.8921 23.7259 67.0066 24.0702C67.1245 24.4394 67.1342 24.8184 67.1002 25.1886C67.0245 26.0943 66.6575 26.8297 65.8807 27.2853C65.8524 27.3005 65.8146 27.3355 65.7837 27.332C65.5561 27.3143 65.5228 27.4692 65.4808 27.6502C65.379 28.1025 65.3209 28.5634 65.3436 29.0362C65.3612 29.4714 65.4319 29.8955 65.5456 30.3222C65.5955 30.5076 65.6266 30.6884 65.7178 30.8639C65.8244 31.0632 65.9697 31.2338 66.1312 31.3903C66.2292 31.4828 66.3511 31.4846 66.4662 31.4363C66.7426 31.323 66.9743 31.1504 67.1906 30.9538C68.0075 30.2161 68.5933 29.3028 69.0631 28.2986C69.2783 27.8299 69.4548 27.3457 69.6442 26.8667C69.6759 26.7879 69.6871 26.7362 69.5685 26.7152C69.3555 26.6709 69.2445 26.396 69.3242 26.1356C69.4056 25.8878 69.5677 25.6961 69.7445 25.522C70.2096 25.0563 70.7606 24.7285 71.4011 24.5637C71.4423 24.5537 71.4895 24.5431 71.5316 24.5394C71.9034 24.4998 72.1105 24.7218 72.0353 25.1021C71.9754 25.4176 71.8296 25.6838 71.6512 25.934C71.4325 26.2447 71.1845 26.5201 70.9159 26.7783C70.6851 27.0015 70.5222 27.2757 70.3386 27.5326C69.1677 29.1882 68.2245 30.9943 67.3732 32.8492C67.3175 32.9745 67.2395 33.0701 67.1425 33.1611C65.639 34.5235 63.9336 35.5685 62.0871 36.3856C62.0699 36.3934 62.0519 36.395 62.0338 36.3967C62.0278 36.3972 62.0278 36.3972 62.0218 36.3977C62.0209 36.3915 62.0218 36.3977 62.039 36.4342ZM56.9948 46.3489C57.4345 46.3159 57.7324 46.2703 58.0217 46.2064C59.5397 45.8745 60.689 45.0755 61.2279 43.5144C61.3932 43.0375 61.4358 42.5526 61.3238 42.0498C61.173 41.3986 60.8291 40.8913 60.2174 40.6041C59.8206 40.418 59.4083 40.3852 58.9911 40.4478C58.6029 40.5015 58.2518 40.6468 57.9016 40.7984C57.5574 40.9494 57.214 41.1067 56.8328 41.1661C56.0883 41.2833 55.3369 41.2618 54.588 41.0819C53.6131 40.8525 52.8235 40.3343 52.2518 39.4548C52.1434 39.2873 52.0231 39.1208 51.9036 38.9605C51.3913 38.291 50.6484 38.1548 49.9986 38.6054C49.4991 38.9539 49.211 39.467 49.0371 40.0586C48.9069 40.4818 48.9073 40.9249 48.9265 41.3726C48.9632 42.1669 49.2051 42.905 49.7114 43.5307C50.3939 44.375 51.2377 45.0212 52.1895 45.4806C53.7865 46.2494 55.4449 46.4494 56.9948 46.3489ZM53.7247 38.5762C53.674 38.6061 53.6268 38.5723 53.5838 38.5698C53.5349 38.5679 53.4851 38.5597 53.4361 38.5577C53.3391 38.56 53.2335 38.5885 53.2362 38.6959C53.2362 38.7845 53.3333 38.8264 53.4209 38.8439C53.4458 38.848 53.4776 38.8579 53.5025 38.862C54.1251 38.9203 54.5556 39.2616 54.8197 39.8521C54.8464 39.913 54.873 39.9739 54.8997 40.0348C54.9161 40.065 54.9453 40.1004 54.9865 40.0904C55.0277 40.0803 55.0285 40.0423 55.0285 39.998C55.0241 39.8781 54.9897 39.7609 54.9449 39.6573C54.9114 39.5906 54.9234 39.5453 54.9585 39.4915C55.0503 39.363 55.0837 39.2081 55.0604 39.0393C54.9118 37.9637 54.7642 36.8944 54.6096 35.8194C54.5975 35.7319 54.6155 35.6859 54.6825 35.642C54.7949 35.5749 54.8841 35.472 54.927 35.3416C54.9432 35.2832 54.9457 35.2133 54.8856 35.1744C54.8315 35.1349 54.8109 35.2064 54.7783 35.2346C54.5689 35.3926 54.356 35.5255 54.07 35.4815C53.7145 35.4183 53.4945 35.1911 53.3457 34.8625C53.2476 34.6371 53.2397 34.4036 53.2489 34.1622C53.2531 34.0605 53.2213 33.9621 53.1045 33.9535C52.9937 33.9444 52.9629 34.0295 52.9518 34.1254C52.9109 34.6228 53.0221 35.075 53.3959 35.4468C53.438 35.4873 53.4544 35.5175 53.4261 35.577C53.3532 35.7101 53.349 35.8561 53.3706 36.0124C53.4587 36.6502 53.5459 37.2818 53.634 37.9196C53.6642 38.1385 53.6945 38.3574 53.7247 38.5762ZM58.2628 38.1707C58.2559 38.1206 58.2481 38.0644 58.2412 38.0143C58.1281 37.1952 58.0149 36.376 57.9018 35.5568C57.85 35.1816 57.5398 34.9182 57.1911 34.9493C56.8365 34.981 56.5997 35.2934 56.6524 35.6748C56.7984 36.7316 56.9435 37.7821 57.0894 38.8389C57.1032 38.939 57.1188 39.0515 57.1884 39.1149C57.356 39.2709 57.399 39.4506 57.3743 39.6681C57.3649 39.7322 57.3564 39.8469 57.4552 39.8571C57.541 39.8621 57.5255 39.7495 57.534 39.6791C57.5964 39.2051 57.7927 38.8204 58.1772 38.5645C58.3223 38.4692 58.488 38.4354 58.6434 38.3709C58.718 38.3389 58.8022 38.287 58.7772 38.1943C58.7471 38.1084 58.6517 38.0789 58.5693 38.099C58.474 38.1138 58.3753 38.1479 58.2628 38.1707ZM55.9764 33.2917C55.9877 33.373 56.0178 33.4589 56.1286 33.468C56.2325 33.4714 56.2642 33.3926 56.2701 33.3034C56.2761 33.2586 56.2752 33.208 56.2812 33.1632C56.3171 32.8941 56.5118 32.6741 56.7617 32.6328C57.0115 32.5915 57.2495 32.7285 57.3948 32.9877C57.4353 33.0601 57.4637 33.1335 57.5041 33.2058C57.5522 33.2902 57.6201 33.3411 57.712 33.3012C57.7918 33.2624 57.8046 33.179 57.7753 33.0993C57.716 32.9337 57.6343 32.7827 57.5251 32.6532C57.2647 32.3536 56.8782 32.2426 56.5494 32.3733C56.1854 32.5134 55.9409 32.9024 55.9764 33.2917ZM52.0356 46.3046C52.0227 46.2994 52.0158 46.2937 52.0038 46.2948C51.9926 46.3021 51.9935 46.3084 52.0055 46.3073C52.0184 46.3125 52.0296 46.3052 52.0356 46.3046ZM62.4402 45.3748C62.4393 45.3685 62.4384 45.3623 62.4384 45.3623C62.4324 45.3628 62.4204 45.3639 62.4144 45.3644C62.4024 45.3655 62.4032 45.3717 62.4161 45.3769C62.423 45.3826 62.4341 45.3753 62.4402 45.3748Z"/>
</mask>
<path d="M62.039 36.4342C63.8007 35.8842 65.4153 35.0626 66.8829 33.9249C66.9182 34.0041 66.8813 34.0453 66.8693 34.0907C66.5977 34.9 66.3132 35.704 66.1439 36.5484C65.9274 37.6249 65.8768 38.712 66.1146 39.8175C66.2396 40.4141 66.4693 40.9759 66.7222 41.5294C66.7756 41.6512 66.7782 41.7586 66.7079 41.8662C66.2645 42.5768 65.6526 43.1253 65.0331 43.6617C64.5714 44.0638 64.0727 44.4186 63.5646 44.7489C63.2239 44.9692 62.8685 45.1719 62.4959 45.3381C62.8385 45.2189 63.163 45.057 63.4866 44.8888C64.169 44.5429 64.8041 44.119 65.3937 43.6295C65.9009 43.2044 66.3728 42.7444 66.7588 42.1908C66.8652 42.0357 66.9484 41.889 66.8812 41.6671C66.839 41.5379 66.9626 41.4636 67.0725 41.4221C67.2116 41.3717 67.3198 41.4063 67.3903 41.5203C67.5348 41.7733 67.4757 42.0064 67.3677 42.2377C66.9519 43.1041 66.2783 43.734 65.554 44.3052C64.7635 44.9266 63.8613 45.3554 62.9652 45.7836C62.075 46.2114 61.1581 46.5782 60.2112 46.859C59.8137 46.9769 59.4076 47.0764 59.0006 47.1698C58.464 47.2937 57.9282 47.4239 57.3795 47.4603C56.8609 47.494 56.3362 47.4839 55.8132 47.442C55.395 47.4097 54.9793 47.3962 54.5594 47.3515C53.6027 47.2534 52.663 47.0588 51.7234 46.82C50.8971 46.6089 50.07 46.3917 49.2711 46.0706C48.4018 45.7241 47.6054 45.2446 46.8655 44.646C46.6464 44.4693 46.4642 44.2514 46.2931 44.0261C46.1737 43.8659 46.0868 43.6774 46.1313 43.4709C46.1698 43.3092 46.2651 43.25 46.4334 43.2793C46.6017 43.3085 46.6748 43.397 46.6792 43.5612C46.6845 43.6873 46.7532 43.7888 46.8375 43.8699C47.0781 44.1142 47.3488 44.3116 47.6246 44.5022C48.9151 45.3871 50.323 45.9323 51.8045 46.262C51.8483 46.2707 51.8982 46.2789 51.9471 46.2809C51.6989 46.2018 51.4566 46.1221 51.2101 46.0555C50.9456 45.9906 50.7042 45.8729 50.4525 45.7687C49.4707 45.3564 48.5145 44.8658 47.6261 44.2488C47.37 44.0692 47.1286 43.8628 46.8983 43.6492C46.7865 43.5452 46.759 43.4338 46.7829 43.2987C46.9616 42.3458 46.9695 41.3892 46.7506 40.4213C46.655 39.993 46.5061 39.5759 46.346 39.166C45.9012 38.0157 45.2082 37.0078 44.5376 35.9852C44.5299 35.9732 44.523 35.9675 44.5247 35.9357C46.2643 36.7678 48.0706 37.29 49.9592 37.5264C49.9299 37.4467 49.8715 37.4646 49.8337 37.4553C48.9989 37.2704 48.1795 37.0208 47.3729 36.732C46.227 36.3217 45.1171 35.8195 44.0518 35.1993C43.9255 35.122 43.8327 35.0227 43.7442 34.9103C42.6533 33.5328 41.4707 32.2395 40.2306 31.0146C39.8215 30.6081 39.3798 30.2297 38.9399 29.8639C38.6984 29.6576 38.4158 29.5056 38.1589 29.3197C37.7868 29.0491 37.4362 28.7576 37.186 28.3558C37.1233 28.2538 37.0656 28.145 37.0561 28.0319C37.0292 27.7051 37.1631 27.5729 37.5478 27.5828C37.8286 27.5894 38.1103 27.6465 38.3835 27.7297C38.8911 27.8805 39.3679 28.1165 39.7872 28.4652C39.9728 28.6195 40.137 28.7947 40.1372 29.0606C40.1399 29.2123 40.0953 29.3302 39.9494 29.3749C39.8627 29.408 39.8876 29.4564 39.9254 29.51C40.3252 30.0693 40.7189 30.6292 41.1676 31.1461C41.8268 31.9102 42.5693 32.5718 43.4293 33.071C43.6939 33.2246 43.9731 33.3516 44.2677 33.4139C44.4558 33.454 44.5399 33.4022 44.6402 33.2477C44.8452 32.9255 44.9128 32.5776 44.8884 32.181C44.871 31.8344 44.8484 31.4945 44.7889 31.1517C44.6776 30.5223 44.4436 29.9291 44.1168 29.3696C44.0609 29.2733 43.9776 29.2871 43.9115 29.293C43.8514 29.2984 43.7956 29.2907 43.738 29.2705C42.8413 28.9455 42.2826 28.2928 41.9633 27.3908C41.8755 27.1517 41.8349 26.9021 41.7832 26.6599C41.741 26.4421 41.7537 26.2257 41.8231 26.0233C41.9422 25.6518 42.2271 25.4681 42.6015 25.4473C43.2112 25.4118 43.6906 25.7108 44.1375 26.1266C44.5577 26.5259 44.8148 27.022 45.0274 27.5474C45.1212 27.7859 45.1686 28.0412 45.155 28.2956C45.1407 28.6324 44.9872 28.8867 44.7254 29.062C44.631 29.1274 44.6371 29.1712 44.6929 29.2675C45.3482 30.4433 46.2343 31.396 47.2775 32.208C47.885 32.6855 48.5319 33.0961 49.2183 33.4399C49.6427 33.6489 50.0859 33.7738 50.5453 33.7518C51.1327 33.7309 51.5927 33.4493 51.9788 33.0286C52.5923 32.3597 52.9601 31.5419 53.2608 30.6794C53.619 29.6599 53.8569 28.6068 53.9376 27.5171C53.9885 26.7845 53.9605 26.0527 53.8474 25.3222C53.8155 25.1351 53.7433 25.0529 53.5809 24.9788C53.0363 24.7363 52.7423 24.2815 52.6259 23.7031C52.5121 23.1436 52.5666 22.6133 52.8162 22.1289C53.0468 21.6841 53.3884 21.3814 53.9087 21.3602C54.393 21.3422 54.79 21.5726 55.1046 21.956C55.6263 22.6057 55.8356 23.3277 55.6292 24.1247C55.5428 24.468 55.3343 24.7208 55.0485 24.8983C54.9532 24.9575 54.9258 25.0232 54.943 25.1483C54.9948 25.4792 55.0337 25.8049 55.1035 26.1341C55.2699 26.8979 55.5238 27.6348 55.8541 28.3523C56.3642 29.4462 56.9858 30.4668 57.7594 31.3979C58.1393 31.8577 58.5828 32.2485 59.0871 32.5516C59.8319 33.0105 60.5644 32.983 61.2769 32.5901C61.7524 32.3324 62.1385 31.956 62.5187 31.5802C63.4179 30.6896 64.1462 29.6623 64.6322 28.4667C64.7684 28.1317 64.8652 27.7749 64.9628 27.4243C64.9782 27.3596 64.9911 27.3205 64.9069 27.2837C64.3597 27.0667 64.1576 26.6164 64.1485 26.0664C64.1395 25.5165 64.2619 24.9928 64.5071 24.5214C64.7284 24.0965 65.008 23.698 65.4664 23.4925C65.6733 23.4044 65.8896 23.3407 66.1215 23.3453C66.6024 23.3466 66.8921 23.7259 67.0066 24.0702C67.1245 24.4394 67.1342 24.8184 67.1002 25.1886C67.0245 26.0943 66.6575 26.8297 65.8807 27.2853C65.8524 27.3005 65.8146 27.3355 65.7837 27.332C65.5561 27.3143 65.5228 27.4692 65.4808 27.6502C65.379 28.1025 65.3209 28.5634 65.3436 29.0362C65.3612 29.4714 65.4319 29.8955 65.5456 30.3222C65.5955 30.5076 65.6266 30.6884 65.7178 30.8639C65.8244 31.0632 65.9697 31.2338 66.1312 31.3903C66.2292 31.4828 66.3511 31.4846 66.4662 31.4363C66.7426 31.323 66.9743 31.1504 67.1906 30.9538C68.0075 30.2161 68.5933 29.3028 69.0631 28.2986C69.2783 27.8299 69.4548 27.3457 69.6442 26.8667C69.6759 26.7879 69.6871 26.7362 69.5685 26.7152C69.3555 26.6709 69.2445 26.396 69.3242 26.1356C69.4056 25.8878 69.5677 25.6961 69.7445 25.522C70.2096 25.0563 70.7606 24.7285 71.4011 24.5637C71.4423 24.5537 71.4895 24.5431 71.5316 24.5394C71.9034 24.4998 72.1105 24.7218 72.0353 25.1021C71.9754 25.4176 71.8296 25.6838 71.6512 25.934C71.4325 26.2447 71.1845 26.5201 70.9159 26.7783C70.6851 27.0015 70.5222 27.2757 70.3386 27.5326C69.1677 29.1882 68.2245 30.9943 67.3732 32.8492C67.3175 32.9745 67.2395 33.0701 67.1425 33.1611C65.639 34.5235 63.9336 35.5685 62.0871 36.3856C62.0699 36.3934 62.0519 36.395 62.0338 36.3967C62.0278 36.3972 62.0278 36.3972 62.0218 36.3977C62.0209 36.3915 62.0218 36.3977 62.039 36.4342ZM56.9948 46.3489C57.4345 46.3159 57.7324 46.2703 58.0217 46.2064C59.5397 45.8745 60.689 45.0755 61.2279 43.5144C61.3932 43.0375 61.4358 42.5526 61.3238 42.0498C61.173 41.3986 60.8291 40.8913 60.2174 40.6041C59.8206 40.418 59.4083 40.3852 58.9911 40.4478C58.6029 40.5015 58.2518 40.6468 57.9016 40.7984C57.5574 40.9494 57.214 41.1067 56.8328 41.1661C56.0883 41.2833 55.3369 41.2618 54.588 41.0819C53.6131 40.8525 52.8235 40.3343 52.2518 39.4548C52.1434 39.2873 52.0231 39.1208 51.9036 38.9605C51.3913 38.291 50.6484 38.1548 49.9986 38.6054C49.4991 38.9539 49.211 39.467 49.0371 40.0586C48.9069 40.4818 48.9073 40.9249 48.9265 41.3726C48.9632 42.1669 49.2051 42.905 49.7114 43.5307C50.3939 44.375 51.2377 45.0212 52.1895 45.4806C53.7865 46.2494 55.4449 46.4494 56.9948 46.3489ZM53.7247 38.5762C53.674 38.6061 53.6268 38.5723 53.5838 38.5698C53.5349 38.5679 53.4851 38.5597 53.4361 38.5577C53.3391 38.56 53.2335 38.5885 53.2362 38.6959C53.2362 38.7845 53.3333 38.8264 53.4209 38.8439C53.4458 38.848 53.4776 38.8579 53.5025 38.862C54.1251 38.9203 54.5556 39.2616 54.8197 39.8521C54.8464 39.913 54.873 39.9739 54.8997 40.0348C54.9161 40.065 54.9453 40.1004 54.9865 40.0904C55.0277 40.0803 55.0285 40.0423 55.0285 39.998C55.0241 39.8781 54.9897 39.7609 54.9449 39.6573C54.9114 39.5906 54.9234 39.5453 54.9585 39.4915C55.0503 39.363 55.0837 39.2081 55.0604 39.0393C54.9118 37.9637 54.7642 36.8944 54.6096 35.8194C54.5975 35.7319 54.6155 35.6859 54.6825 35.642C54.7949 35.5749 54.8841 35.472 54.927 35.3416C54.9432 35.2832 54.9457 35.2133 54.8856 35.1744C54.8315 35.1349 54.8109 35.2064 54.7783 35.2346C54.5689 35.3926 54.356 35.5255 54.07 35.4815C53.7145 35.4183 53.4945 35.1911 53.3457 34.8625C53.2476 34.6371 53.2397 34.4036 53.2489 34.1622C53.2531 34.0605 53.2213 33.9621 53.1045 33.9535C52.9937 33.9444 52.9629 34.0295 52.9518 34.1254C52.9109 34.6228 53.0221 35.075 53.3959 35.4468C53.438 35.4873 53.4544 35.5175 53.4261 35.577C53.3532 35.7101 53.349 35.8561 53.3706 36.0124C53.4587 36.6502 53.5459 37.2818 53.634 37.9196C53.6642 38.1385 53.6945 38.3574 53.7247 38.5762ZM58.2628 38.1707C58.2559 38.1206 58.2481 38.0644 58.2412 38.0143C58.1281 37.1952 58.0149 36.376 57.9018 35.5568C57.85 35.1816 57.5398 34.9182 57.1911 34.9493C56.8365 34.981 56.5997 35.2934 56.6524 35.6748C56.7984 36.7316 56.9435 37.7821 57.0894 38.8389C57.1032 38.939 57.1188 39.0515 57.1884 39.1149C57.356 39.2709 57.399 39.4506 57.3743 39.6681C57.3649 39.7322 57.3564 39.8469 57.4552 39.8571C57.541 39.8621 57.5255 39.7495 57.534 39.6791C57.5964 39.2051 57.7927 38.8204 58.1772 38.5645C58.3223 38.4692 58.488 38.4354 58.6434 38.3709C58.718 38.3389 58.8022 38.287 58.7772 38.1943C58.7471 38.1084 58.6517 38.0789 58.5693 38.099C58.474 38.1138 58.3753 38.1479 58.2628 38.1707ZM55.9764 33.2917C55.9877 33.373 56.0178 33.4589 56.1286 33.468C56.2325 33.4714 56.2642 33.3926 56.2701 33.3034C56.2761 33.2586 56.2752 33.208 56.2812 33.1632C56.3171 32.8941 56.5118 32.6741 56.7617 32.6328C57.0115 32.5915 57.2495 32.7285 57.3948 32.9877C57.4353 33.0601 57.4637 33.1335 57.5041 33.2058C57.5522 33.2902 57.6201 33.3411 57.712 33.3012C57.7918 33.2624 57.8046 33.179 57.7753 33.0993C57.716 32.9337 57.6343 32.7827 57.5251 32.6532C57.2647 32.3536 56.8782 32.2426 56.5494 32.3733C56.1854 32.5134 55.9409 32.9024 55.9764 33.2917ZM52.0356 46.3046C52.0227 46.2994 52.0158 46.2937 52.0038 46.2948C51.9926 46.3021 51.9935 46.3084 52.0055 46.3073C52.0184 46.3125 52.0296 46.3052 52.0356 46.3046ZM62.4402 45.3748C62.4393 45.3685 62.4384 45.3623 62.4384 45.3623C62.4324 45.3628 62.4204 45.3639 62.4144 45.3644C62.4024 45.3655 62.4032 45.3717 62.4161 45.3769C62.423 45.3826 62.4341 45.3753 62.4402 45.3748Z" fill="#FFE033"/>
<path d="M62.039 36.4342C63.8007 35.8842 65.4153 35.0626 66.8829 33.9249C66.9182 34.0041 66.8813 34.0453 66.8693 34.0907C66.5977 34.9 66.3132 35.704 66.1439 36.5484C65.9274 37.6249 65.8768 38.712 66.1146 39.8175C66.2396 40.4141 66.4693 40.9759 66.7222 41.5294C66.7756 41.6512 66.7782 41.7586 66.7079 41.8662C66.2645 42.5768 65.6526 43.1253 65.0331 43.6617C64.5714 44.0638 64.0727 44.4186 63.5646 44.7489C63.2239 44.9692 62.8685 45.1719 62.4959 45.3381C62.8385 45.2189 63.163 45.057 63.4866 44.8888C64.169 44.5429 64.8041 44.119 65.3937 43.6295C65.9009 43.2044 66.3728 42.7444 66.7588 42.1908C66.8652 42.0357 66.9484 41.889 66.8812 41.6671C66.839 41.5379 66.9626 41.4636 67.0725 41.4221C67.2116 41.3717 67.3198 41.4063 67.3903 41.5203C67.5348 41.7733 67.4757 42.0064 67.3677 42.2377C66.9519 43.1041 66.2783 43.734 65.554 44.3052C64.7635 44.9266 63.8613 45.3554 62.9652 45.7836C62.075 46.2114 61.1581 46.5782 60.2112 46.859C59.8137 46.9769 59.4076 47.0764 59.0006 47.1698C58.464 47.2937 57.9282 47.4239 57.3795 47.4603C56.8609 47.494 56.3362 47.4839 55.8132 47.442C55.395 47.4097 54.9793 47.3962 54.5594 47.3515C53.6027 47.2534 52.663 47.0588 51.7234 46.82C50.8971 46.6089 50.07 46.3917 49.2711 46.0706C48.4018 45.7241 47.6054 45.2446 46.8655 44.646C46.6464 44.4693 46.4642 44.2514 46.2931 44.0261C46.1737 43.8659 46.0868 43.6774 46.1313 43.4709C46.1698 43.3092 46.2651 43.25 46.4334 43.2793C46.6017 43.3085 46.6748 43.397 46.6792 43.5612C46.6845 43.6873 46.7532 43.7888 46.8375 43.8699C47.0781 44.1142 47.3488 44.3116 47.6246 44.5022C48.9151 45.3871 50.323 45.9323 51.8045 46.262C51.8483 46.2707 51.8982 46.2789 51.9471 46.2809C51.6989 46.2018 51.4566 46.1221 51.2101 46.0555C50.9456 45.9906 50.7042 45.8729 50.4525 45.7687C49.4707 45.3564 48.5145 44.8658 47.6261 44.2488C47.37 44.0692 47.1286 43.8628 46.8983 43.6492C46.7865 43.5452 46.759 43.4338 46.7829 43.2987C46.9616 42.3458 46.9695 41.3892 46.7506 40.4213C46.655 39.993 46.5061 39.5759 46.346 39.166C45.9012 38.0157 45.2082 37.0078 44.5376 35.9852C44.5299 35.9732 44.523 35.9675 44.5247 35.9357C46.2643 36.7678 48.0706 37.29 49.9592 37.5264C49.9299 37.4467 49.8715 37.4646 49.8337 37.4553C48.9989 37.2704 48.1795 37.0208 47.3729 36.732C46.227 36.3217 45.1171 35.8195 44.0518 35.1993C43.9255 35.122 43.8327 35.0227 43.7442 34.9103C42.6533 33.5328 41.4707 32.2395 40.2306 31.0146C39.8215 30.6081 39.3798 30.2297 38.9399 29.8639C38.6984 29.6576 38.4158 29.5056 38.1589 29.3197C37.7868 29.0491 37.4362 28.7576 37.186 28.3558C37.1233 28.2538 37.0656 28.145 37.0561 28.0319C37.0292 27.7051 37.1631 27.5729 37.5478 27.5828C37.8286 27.5894 38.1103 27.6465 38.3835 27.7297C38.8911 27.8805 39.3679 28.1165 39.7872 28.4652C39.9728 28.6195 40.137 28.7947 40.1372 29.0606C40.1399 29.2123 40.0953 29.3302 39.9494 29.3749C39.8627 29.408 39.8876 29.4564 39.9254 29.51C40.3252 30.0693 40.7189 30.6292 41.1676 31.1461C41.8268 31.9102 42.5693 32.5718 43.4293 33.071C43.6939 33.2246 43.9731 33.3516 44.2677 33.4139C44.4558 33.454 44.5399 33.4022 44.6402 33.2477C44.8452 32.9255 44.9128 32.5776 44.8884 32.181C44.871 31.8344 44.8484 31.4945 44.7889 31.1517C44.6776 30.5223 44.4436 29.9291 44.1168 29.3696C44.0609 29.2733 43.9776 29.2871 43.9115 29.293C43.8514 29.2984 43.7956 29.2907 43.738 29.2705C42.8413 28.9455 42.2826 28.2928 41.9633 27.3908C41.8755 27.1517 41.8349 26.9021 41.7832 26.6599C41.741 26.4421 41.7537 26.2257 41.8231 26.0233C41.9422 25.6518 42.2271 25.4681 42.6015 25.4473C43.2112 25.4118 43.6906 25.7108 44.1375 26.1266C44.5577 26.5259 44.8148 27.022 45.0274 27.5474C45.1212 27.7859 45.1686 28.0412 45.155 28.2956C45.1407 28.6324 44.9872 28.8867 44.7254 29.062C44.631 29.1274 44.6371 29.1712 44.6929 29.2675C45.3482 30.4433 46.2343 31.396 47.2775 32.208C47.885 32.6855 48.5319 33.0961 49.2183 33.4399C49.6427 33.6489 50.0859 33.7738 50.5453 33.7518C51.1327 33.7309 51.5927 33.4493 51.9788 33.0286C52.5923 32.3597 52.9601 31.5419 53.2608 30.6794C53.619 29.6599 53.8569 28.6068 53.9376 27.5171C53.9885 26.7845 53.9605 26.0527 53.8474 25.3222C53.8155 25.1351 53.7433 25.0529 53.5809 24.9788C53.0363 24.7363 52.7423 24.2815 52.6259 23.7031C52.5121 23.1436 52.5666 22.6133 52.8162 22.1289C53.0468 21.6841 53.3884 21.3814 53.9087 21.3602C54.393 21.3422 54.79 21.5726 55.1046 21.956C55.6263 22.6057 55.8356 23.3277 55.6292 24.1247C55.5428 24.468 55.3343 24.7208 55.0485 24.8983C54.9532 24.9575 54.9258 25.0232 54.943 25.1483C54.9948 25.4792 55.0337 25.8049 55.1035 26.1341C55.2699 26.8979 55.5238 27.6348 55.8541 28.3523C56.3642 29.4462 56.9858 30.4668 57.7594 31.3979C58.1393 31.8577 58.5828 32.2485 59.0871 32.5516C59.8319 33.0105 60.5644 32.983 61.2769 32.5901C61.7524 32.3324 62.1385 31.956 62.5187 31.5802C63.4179 30.6896 64.1462 29.6623 64.6322 28.4667C64.7684 28.1317 64.8652 27.7749 64.9628 27.4243C64.9782 27.3596 64.9911 27.3205 64.9069 27.2837C64.3597 27.0667 64.1576 26.6164 64.1485 26.0664C64.1395 25.5165 64.2619 24.9928 64.5071 24.5214C64.7284 24.0965 65.008 23.698 65.4664 23.4925C65.6733 23.4044 65.8896 23.3407 66.1215 23.3453C66.6024 23.3466 66.8921 23.7259 67.0066 24.0702C67.1245 24.4394 67.1342 24.8184 67.1002 25.1886C67.0245 26.0943 66.6575 26.8297 65.8807 27.2853C65.8524 27.3005 65.8146 27.3355 65.7837 27.332C65.5561 27.3143 65.5228 27.4692 65.4808 27.6502C65.379 28.1025 65.3209 28.5634 65.3436 29.0362C65.3612 29.4714 65.4319 29.8955 65.5456 30.3222C65.5955 30.5076 65.6266 30.6884 65.7178 30.8639C65.8244 31.0632 65.9697 31.2338 66.1312 31.3903C66.2292 31.4828 66.3511 31.4846 66.4662 31.4363C66.7426 31.323 66.9743 31.1504 67.1906 30.9538C68.0075 30.2161 68.5933 29.3028 69.0631 28.2986C69.2783 27.8299 69.4548 27.3457 69.6442 26.8667C69.6759 26.7879 69.6871 26.7362 69.5685 26.7152C69.3555 26.6709 69.2445 26.396 69.3242 26.1356C69.4056 25.8878 69.5677 25.6961 69.7445 25.522C70.2096 25.0563 70.7606 24.7285 71.4011 24.5637C71.4423 24.5537 71.4895 24.5431 71.5316 24.5394C71.9034 24.4998 72.1105 24.7218 72.0353 25.1021C71.9754 25.4176 71.8296 25.6838 71.6512 25.934C71.4325 26.2447 71.1845 26.5201 70.9159 26.7783C70.6851 27.0015 70.5222 27.2757 70.3386 27.5326C69.1677 29.1882 68.2245 30.9943 67.3732 32.8492C67.3175 32.9745 67.2395 33.0701 67.1425 33.1611C65.639 34.5235 63.9336 35.5685 62.0871 36.3856C62.0699 36.3934 62.0519 36.395 62.0338 36.3967C62.0278 36.3972 62.0278 36.3972 62.0218 36.3977C62.0209 36.3915 62.0218 36.3977 62.039 36.4342ZM56.9948 46.3489C57.4345 46.3159 57.7324 46.2703 58.0217 46.2064C59.5397 45.8745 60.689 45.0755 61.2279 43.5144C61.3932 43.0375 61.4358 42.5526 61.3238 42.0498C61.173 41.3986 60.8291 40.8913 60.2174 40.6041C59.8206 40.418 59.4083 40.3852 58.9911 40.4478C58.6029 40.5015 58.2518 40.6468 57.9016 40.7984C57.5574 40.9494 57.214 41.1067 56.8328 41.1661C56.0883 41.2833 55.3369 41.2618 54.588 41.0819C53.6131 40.8525 52.8235 40.3343 52.2518 39.4548C52.1434 39.2873 52.0231 39.1208 51.9036 38.9605C51.3913 38.291 50.6484 38.1548 49.9986 38.6054C49.4991 38.9539 49.211 39.467 49.0371 40.0586C48.9069 40.4818 48.9073 40.9249 48.9265 41.3726C48.9632 42.1669 49.2051 42.905 49.7114 43.5307C50.3939 44.375 51.2377 45.0212 52.1895 45.4806C53.7865 46.2494 55.4449 46.4494 56.9948 46.3489ZM53.7247 38.5762C53.674 38.6061 53.6268 38.5723 53.5838 38.5698C53.5349 38.5679 53.4851 38.5597 53.4361 38.5577C53.3391 38.56 53.2335 38.5885 53.2362 38.6959C53.2362 38.7845 53.3333 38.8264 53.4209 38.8439C53.4458 38.848 53.4776 38.8579 53.5025 38.862C54.1251 38.9203 54.5556 39.2616 54.8197 39.8521C54.8464 39.913 54.873 39.9739 54.8997 40.0348C54.9161 40.065 54.9453 40.1004 54.9865 40.0904C55.0277 40.0803 55.0285 40.0423 55.0285 39.998C55.0241 39.8781 54.9897 39.7609 54.9449 39.6573C54.9114 39.5906 54.9234 39.5453 54.9585 39.4915C55.0503 39.363 55.0837 39.2081 55.0604 39.0393C54.9118 37.9637 54.7642 36.8944 54.6096 35.8194C54.5975 35.7319 54.6155 35.6859 54.6825 35.642C54.7949 35.5749 54.8841 35.472 54.927 35.3416C54.9432 35.2832 54.9457 35.2133 54.8856 35.1744C54.8315 35.1349 54.8109 35.2064 54.7783 35.2346C54.5689 35.3926 54.356 35.5255 54.07 35.4815C53.7145 35.4183 53.4945 35.1911 53.3457 34.8625C53.2476 34.6371 53.2397 34.4036 53.2489 34.1622C53.2531 34.0605 53.2213 33.9621 53.1045 33.9535C52.9937 33.9444 52.9629 34.0295 52.9518 34.1254C52.9109 34.6228 53.0221 35.075 53.3959 35.4468C53.438 35.4873 53.4544 35.5175 53.4261 35.577C53.3532 35.7101 53.349 35.8561 53.3706 36.0124C53.4587 36.6502 53.5459 37.2818 53.634 37.9196C53.6642 38.1385 53.6945 38.3574 53.7247 38.5762ZM58.2628 38.1707C58.2559 38.1206 58.2481 38.0644 58.2412 38.0143C58.1281 37.1952 58.0149 36.376 57.9018 35.5568C57.85 35.1816 57.5398 34.9182 57.1911 34.9493C56.8365 34.981 56.5997 35.2934 56.6524 35.6748C56.7984 36.7316 56.9435 37.7821 57.0894 38.8389C57.1032 38.939 57.1188 39.0515 57.1884 39.1149C57.356 39.2709 57.399 39.4506 57.3743 39.6681C57.3649 39.7322 57.3564 39.8469 57.4552 39.8571C57.541 39.8621 57.5255 39.7495 57.534 39.6791C57.5964 39.2051 57.7927 38.8204 58.1772 38.5645C58.3223 38.4692 58.488 38.4354 58.6434 38.3709C58.718 38.3389 58.8022 38.287 58.7772 38.1943C58.7471 38.1084 58.6517 38.0789 58.5693 38.099C58.474 38.1138 58.3753 38.1479 58.2628 38.1707ZM55.9764 33.2917C55.9877 33.373 56.0178 33.4589 56.1286 33.468C56.2325 33.4714 56.2642 33.3926 56.2701 33.3034C56.2761 33.2586 56.2752 33.208 56.2812 33.1632C56.3171 32.8941 56.5118 32.6741 56.7617 32.6328C57.0115 32.5915 57.2495 32.7285 57.3948 32.9877C57.4353 33.0601 57.4637 33.1335 57.5041 33.2058C57.5522 33.2902 57.6201 33.3411 57.712 33.3012C57.7918 33.2624 57.8046 33.179 57.7753 33.0993C57.716 32.9337 57.6343 32.7827 57.5251 32.6532C57.2647 32.3536 56.8782 32.2426 56.5494 32.3733C56.1854 32.5134 55.9409 32.9024 55.9764 33.2917ZM52.0356 46.3046C52.0227 46.2994 52.0158 46.2937 52.0038 46.2948C51.9926 46.3021 51.9935 46.3084 52.0055 46.3073C52.0184 46.3125 52.0296 46.3052 52.0356 46.3046ZM62.4402 45.3748C62.4393 45.3685 62.4384 45.3623 62.4384 45.3623C62.4324 45.3628 62.4204 45.3639 62.4144 45.3644C62.4024 45.3655 62.4032 45.3717 62.4161 45.3769C62.423 45.3826 62.4341 45.3753 62.4402 45.3748Z" stroke="#563B00" stroke-width="1.2" mask="url(#path-17-outside-1_3818_2456)"/>
<path d="M50.5959 33.5452C50.018 33.5905 49.4846 33.4293 48.9811 33.0881C48.2113 32.5808 47.4938 32.0119 46.8209 31.3694C46.7444 31.3003 46.7237 31.2388 46.7709 31.1396C46.9741 30.672 47.2932 30.2953 47.6407 29.9478C48.4164 29.1758 49.3495 28.6619 50.353 28.262C51.1033 27.9671 51.8674 27.7279 52.6599 27.5621C52.9853 27.4951 53.3107 27.428 53.643 27.3666C53.7383 27.3518 53.7701 27.3616 53.7556 27.4769C53.6379 28.5635 53.406 29.6161 53.041 30.6299C52.7779 31.3688 52.4616 32.0744 51.9528 32.6643C51.7169 32.9386 51.4509 33.1712 51.1694 33.38C51.0046 33.5087 50.7942 33.5275 50.5959 33.5452Z" fill="#DE5D4F" stroke="#563B00" stroke-width="0.6"/>
<path d="M60.209 32.6942C59.9865 32.714 59.5683 32.5488 59.2118 32.3465C58.4652 31.9194 57.8928 31.2996 57.3882 30.5977C56.6721 29.5982 56.0864 28.5301 55.6364 27.3865C55.6261 27.3558 55.6209 27.3182 55.5994 27.2948C55.553 27.223 55.5813 27.2078 55.6466 27.1957C55.7882 27.164 55.9317 27.1892 56.0716 27.1893C57.5229 27.2116 58.9605 27.3553 60.3787 27.7983C61.333 28.0992 62.2255 28.5258 63.0015 29.2098C63.1467 29.3361 63.2765 29.4827 63.4063 29.6294C63.5068 29.7407 63.4743 29.8132 63.4142 29.9072C63.1235 30.3573 62.8061 30.7908 62.4612 31.2015C62.1592 31.5703 61.8357 31.9157 61.477 32.2263C61.1561 32.5019 60.4966 32.7088 60.209 32.6942Z" fill="#DE5D4F" stroke="#563B00" stroke-width="0.6"/>
<path d="M56.9992 46.3498C55.4483 46.4441 53.7908 46.2504 52.1938 45.4816C51.2351 45.0165 50.3974 44.3697 49.7157 43.5317C49.2094 42.9059 48.9676 42.1679 48.9309 41.3736C48.9116 40.9258 48.9121 40.489 49.0415 40.0596C49.2214 39.4675 49.5035 38.9548 50.003 38.6064C50.6527 38.1558 51.3965 38.2982 51.9079 38.9615C52.0334 39.1212 52.1478 39.2883 52.2561 39.4558C52.827 40.329 53.6174 40.8535 54.5923 41.0828C55.3473 41.2623 56.0927 41.2843 56.8371 41.1671C57.2183 41.1077 57.5608 40.9442 57.9059 40.7994C58.2562 40.6478 58.6133 40.5019 58.9954 40.4488C59.4127 40.3862 59.8249 40.419 60.2218 40.6051C60.8334 40.8922 61.1765 41.3933 61.3281 42.0508C61.447 42.5593 61.4036 43.0379 61.2322 43.5154C60.6873 45.077 59.5432 45.8693 58.0261 46.2074C57.7367 46.2713 57.4388 46.3169 56.9992 46.3498ZM53.9752 42.6066C54.0731 42.6106 54.1263 42.5552 54.164 42.4758C54.3235 42.1767 54.4375 41.8563 54.5188 41.5199C54.541 41.4166 54.5238 41.3802 54.4165 41.3518C53.7783 41.1809 53.1752 40.912 52.6819 40.4243C52.6184 40.3603 52.5918 40.388 52.5557 40.4356C52.3155 40.7229 52.1097 41.0388 51.9639 41.3937C51.8859 41.5779 51.9126 41.6832 52.0708 41.8146C52.4231 42.1186 52.8225 42.3235 53.2494 42.4626C53.4797 42.5433 53.7236 42.5911 53.9752 42.6066ZM57.3057 42.9737C57.82 42.9087 58.3042 42.7135 58.735 42.3965C58.8509 42.3102 58.892 42.2115 58.8404 42.0579C58.7242 41.7011 58.5084 41.4165 58.2686 41.1341C58.1895 41.0462 58.1337 41.0386 58.0358 41.079C57.5783 41.2908 57.1113 41.4781 56.5935 41.518C56.5153 41.525 56.5283 41.5745 56.5352 41.6245C56.5552 41.9456 56.6104 42.2572 56.7077 42.565C56.8497 43.0208 56.757 43.0101 57.3057 42.9737Z" fill="#563B00"/>
<path d="M53.7274 38.5752C53.6971 38.3564 53.6669 38.1375 53.6367 37.9186C53.5486 37.2808 53.4614 36.6492 53.3733 36.0114C53.3517 35.8551 53.3559 35.7091 53.4288 35.576C53.4571 35.5165 53.4416 35.4926 53.3986 35.4458C53.0308 35.0735 52.9196 34.6213 52.9545 34.1244C52.9595 34.029 52.9964 33.9434 53.1072 33.9525C53.23 33.9605 53.255 34.0533 53.2516 34.1612C53.2415 34.3963 53.2503 34.6361 53.3483 34.8615C53.4912 35.1906 53.718 35.4235 54.0727 35.4805C54.3536 35.5313 54.5716 35.3916 54.781 35.2336C54.8145 35.2116 54.835 35.1401 54.8883 35.1734C54.9484 35.2123 54.9459 35.2822 54.9297 35.3406C54.8868 35.471 54.8036 35.5734 54.6851 35.641C54.6122 35.6855 54.6002 35.7309 54.6123 35.8184C54.7668 36.8934 54.9145 37.9627 55.0631 39.0382C55.0864 39.2071 55.0522 39.3557 54.9612 39.4905C54.9261 39.5443 54.9132 39.5834 54.9476 39.6563C54.9992 39.7656 55.0268 39.8771 55.0312 39.997C55.0304 40.035 55.0364 40.0788 54.9892 40.0894C54.948 40.0994 54.9187 40.064 54.9024 40.0338C54.8697 39.9734 54.8491 39.912 54.8224 39.8511C54.5583 39.2606 54.1278 38.9193 53.5052 38.861C53.4803 38.8569 53.4494 38.8533 53.4236 38.8429C53.342 38.8249 53.2389 38.7835 53.2388 38.6949C53.2422 38.5869 53.3478 38.5585 53.4388 38.5567C53.4869 38.5524 53.5376 38.5669 53.5865 38.5688C53.6346 38.5645 53.6759 38.5988 53.7274 38.5752Z" fill="#563B00"/>
<path d="M58.2671 38.1751C58.3727 38.1467 58.4723 38.1188 58.5728 38.0971C58.6621 38.0828 58.7565 38.106 58.7806 38.1925C58.8125 38.2909 58.7275 38.3365 58.6468 38.369C58.4914 38.4336 58.3197 38.4679 58.1807 38.5626C57.7902 38.8191 57.5938 39.2038 57.5375 39.6773C57.529 39.7477 57.5445 39.8602 57.4586 39.8553C57.3607 39.8513 57.3744 39.7298 57.3778 39.6662C57.4034 39.4551 57.3663 39.2748 57.1918 39.1131C57.1222 39.0497 57.1067 38.9372 57.0929 38.8371C56.9469 37.7803 56.8018 36.7298 56.6559 35.673C56.6032 35.2916 56.84 34.9792 57.1946 34.9475C57.5432 34.9163 57.8534 35.1798 57.9053 35.555C58.0184 36.3742 58.1315 37.1933 58.2447 38.0125C58.2533 38.075 58.2602 38.1251 58.2671 38.1751Z" fill="#563B00"/>
<path d="M55.9809 33.2967C55.9454 32.9074 56.1899 32.5184 56.541 32.373C56.8698 32.2424 57.2623 32.3529 57.5167 32.653C57.6328 32.7882 57.7084 32.9397 57.767 33.0991C57.7971 33.185 57.7894 33.2617 57.7036 33.301C57.6117 33.3409 57.5447 33.2962 57.4957 33.2056C57.4553 33.1333 57.4269 33.0598 57.3864 32.9875C57.2403 32.722 57.0031 32.5913 56.7533 32.6326C56.5094 32.6734 56.3078 32.8877 56.2728 33.163C56.2668 33.2078 56.2677 33.2584 56.2618 33.3032C56.2558 33.3924 56.2241 33.4712 56.1202 33.4678C56.0232 33.4702 55.9922 33.378 55.9809 33.2967Z" fill="#563B00"/>
<path d="M52.0423 46.3049C52.0361 46.3055 52.0245 46.3131 52.0183 46.3137C52.0059 46.3148 52.0041 46.3018 52.0165 46.3007C52.0218 46.2936 52.0289 46.2996 52.0423 46.3049Z" fill="#563B00"/>
<path d="M62.4432 45.3771C62.437 45.3777 62.4254 45.3853 62.4183 45.3793C62.405 45.3739 62.4041 45.3675 62.4165 45.3664C62.4228 45.3658 62.4352 45.3647 62.4414 45.3641C62.4423 45.3706 62.4432 45.3771 62.4432 45.3771Z" fill="#563B00"/>
<path d="M53.9735 42.606C53.7279 42.59 53.4849 42.5484 53.2426 42.4688C52.8157 42.3297 52.4163 42.1248 52.0639 41.8208C51.9058 41.6893 51.8851 41.5835 51.9571 41.3999C52.1028 41.045 52.3087 40.7291 52.5489 40.4417C52.591 40.3937 52.6115 40.3665 52.6751 40.4305C53.1684 40.9181 53.7706 41.1808 54.4097 41.3579C54.517 41.3863 54.5342 41.4228 54.512 41.526C54.4367 41.8619 54.3167 42.1829 54.1572 42.482C54.1186 42.5551 54.0654 42.6105 53.9735 42.606Z" fill="#FDFDFD"/>
<path d="M57.3059 42.9695C56.7572 43.0059 56.8499 43.0166 56.7087 42.5671C56.6115 42.2593 56.5563 41.9477 56.5363 41.6266C56.5354 41.5761 56.5164 41.5271 56.5946 41.5201C57.1115 41.4739 57.5785 41.2866 58.0369 41.0811C58.1339 41.0344 58.1966 41.0478 58.2697 41.1362C58.5086 41.4124 58.7252 41.7032 58.8415 42.06C58.8931 42.2136 58.852 42.3123 58.7361 42.3986C58.3044 42.7094 57.8262 42.904 57.3059 42.9695Z" fill="#FDFDFD"/>
</g>
<defs>
<linearGradient id="paint0_linear_3818_2456" x1="43.7431" y1="16.1753" x2="58.8802" y2="64.6222" gradientUnits="userSpaceOnUse">
<stop stop-color="#013328"/>
<stop offset="1" stop-color="#0B1B2A"/>
</linearGradient>
<linearGradient id="paint1_linear_3818_2456" x1="24.2802" y1="22.2564" x2="66.3517" y2="9.11166" gradientUnits="userSpaceOnUse">
<stop stop-color="#11ED95"/>
<stop offset="1" stop-color="#00DBFF"/>
</linearGradient>
</defs>
</svg>
