<svg width="190" height="253" viewBox="0 0 190 253" fill="none" xmlns="http://www.w3.org/2000/svg">
<g clip-path="url(#clip0_3943_3658)">
<path fill-rule="evenodd" clip-rule="evenodd" d="M-6.91521 221.143L-6.91521 222.286L-23.901 222.286L-23.901 240L-24.9968 240L-24.9968 221.143L-6.91521 221.143ZM21.5828 198.858L21.5828 200.001L4.59707 200.001L4.59707 217.715L3.50121 217.715L3.50121 198.858L21.5828 198.858ZM51.1688 177.143L51.1688 178.286L34.183 178.286L34.183 196L33.0872 196L33.0872 177.143L51.1688 177.143ZM51.7176 154.286L51.7176 156.572L35.2798 156.572L35.2798 173.714L33.088 173.714L33.088 154.286L51.7176 154.286ZM52.2625 133.714L52.2625 130.286L33.085 130.286L33.085 150.285L36.3726 150.285L36.3726 133.714L52.2625 133.714ZM52.8113 105.143L52.8113 109.715L37.4694 109.715L37.4694 125.714L33.0859 125.714L33.0859 105.143L52.8113 105.143ZM53.909 86.8597L53.909 80.0028L33.0877 80.0028L33.0877 101.716L39.6629 101.716L39.6629 86.8597L53.909 86.8597ZM55.0028 53.7235L55.0028 62.8661L41.8525 62.8661L41.8525 76.58L33.0856 76.58L33.0856 53.7235L55.0028 53.7235ZM41.8536 50.2918L33.0867 50.2918L33.0867 27.4353L55.0039 27.4353L55.0039 36.5779L41.8536 36.5779L41.8536 50.2918ZM22.1278 179.429L22.1278 177.143L3.49821 177.143L3.49821 196.571L5.68992 196.571L5.68992 179.429L22.1278 179.429ZM22.6707 154.286L22.6707 157.714L6.78081 157.714L6.78081 174.285L3.49325 174.285L3.49325 154.286L22.6707 154.286ZM23.2215 134.853L23.2215 130.282L3.4961 130.282L3.4961 150.853L7.87952 150.853L7.87952 134.853L23.2215 134.853ZM24.3211 105.145L24.3211 112.002L10.075 112.002L10.075 126.859L3.49985 126.859L3.49986 105.145L24.3211 105.145ZM24.866 88.0025L24.866 80.0028L3.49685 80.0028L3.49685 102.288L11.1678 102.288L11.1678 88.0025L24.866 88.0025ZM25.4129 53.7176L25.4129 62.8602L12.2626 62.8602L12.2626 76.5741L3.49579 76.5741L3.4958 53.7176L25.4129 53.7176ZM26.5106 38.8588L26.5106 27.4305L3.49759 27.4305L3.49759 51.4298L14.4562 51.4298L14.4562 38.8588L26.5106 38.8588ZM56.1004 0.00667518L56.1004 11.4349L44.046 11.4349L44.046 24.006L33.0874 24.006L33.0874 0.00667317L56.1004 0.00667518ZM14.4574 24.0047L3.49885 24.0047L3.49885 0.00538884L26.5118 0.00539086L26.5118 11.4336L14.4574 11.4336L14.4574 24.0047ZM-6.36639 201.146L-6.36639 198.86L-24.9959 198.86L-24.9959 218.288L-22.8042 218.288L-22.8042 201.146L-6.36639 201.146ZM-5.81561 177.143L-5.81561 180.572L-21.7055 180.572L-21.7055 197.143L-24.9931 197.143L-24.9931 177.143L-5.81561 177.143ZM-5.27459 158.857L-5.27459 154.286L-25 154.286L-25 174.857L-20.6166 174.857L-20.6166 158.857L-5.27459 158.857ZM-4.17303 130.286L-4.17303 137.143L-18.4192 137.143L-18.4192 152L-24.9943 152L-24.9943 130.286L-4.17303 130.286ZM-3.62615 113.143L-3.62615 105.143L-24.9953 105.143L-24.9953 127.428L-17.3244 127.428L-17.3243 113.143L-3.62615 113.143ZM-3.07732 80.0028L-3.07732 89.1454L-16.2276 89.1454L-16.2276 102.859L-24.9944 102.859L-24.9944 80.0028L-3.07732 80.0028ZM-1.98358 65.1459L-1.98357 53.7176L-24.9965 53.7176L-24.9965 77.7169L-14.038 77.7169L-14.038 65.1459L-1.98358 65.1459ZM-24.9933 51.9989L-12.9389 51.9989L-12.9389 39.9992L-1.43244 39.9992L-1.43244 27.4281L-24.9933 27.4281L-24.9933 51.9989ZM-1.43475 12.5699L-1.43475 -0.00114235L-24.9956 -0.00114441L-24.9956 24.5696L-12.9412 24.5696L-12.9412 12.5699L-1.43475 12.5699ZM154.725 79.4285L155.821 79.4285L155.821 61.7148L172.807 61.7148L172.807 60.5719L154.725 60.5719L154.725 79.4285ZM135.003 80.0028L132.811 80.0028L132.811 60.5747L151.441 60.5747L151.441 62.8604L135.003 62.8604L135.003 80.0028ZM109.796 80.5692L113.083 80.5692L113.083 63.9982L128.973 63.9982L128.973 60.5697L109.796 60.5697L109.796 80.5692ZM90.0737 81.1453L85.6903 81.1453L85.6903 60.5745L105.416 60.5745L105.416 65.1458L90.0737 65.1458L90.0737 81.1453ZM61.577 82.286L68.1521 82.286L68.1521 67.4293L82.3982 67.4293L82.3982 60.5723L61.577 60.5723L61.577 82.286ZM176.647 48.577L175.552 48.577L175.552 29.7204L193.633 29.7204L193.633 30.8632L176.647 30.8632L176.647 48.577ZM156.917 49.1473L156.917 32.0049L173.355 32.0049L173.355 29.7193L154.725 29.7193L154.725 49.1473L156.917 49.1473ZM136.099 49.7157L132.811 49.7157L132.811 29.7162L151.989 29.7162L151.989 33.1447L136.099 33.1447L136.099 49.7157ZM109.796 50.2879L114.179 50.2879L114.179 34.2884L129.521 34.2884L129.521 29.7171L109.796 29.7171L109.796 50.2879ZM92.2654 51.4266L85.6903 51.4266L85.6903 29.7129L106.512 29.7129L106.512 36.5699L92.2654 36.5699L92.2654 51.4266ZM61.5809 51.9989L69.2519 51.9989L69.2519 37.7136L82.9501 37.7136L82.9501 29.7138L61.5809 29.7138L61.5809 51.9989ZM198.017 18.8582L196.921 18.8582L196.921 0.00162157L215.002 0.00162315L215.002 1.14445L198.017 1.14444L198.017 18.8582ZM175.55 19.4285L177.741 19.4285L177.741 2.28617L194.179 2.28617L194.179 0.000522701L175.55 0.000521073L175.55 19.4285ZM158.013 20.0067L154.725 20.0067L154.725 0.00723312L173.903 0.0072348L173.903 3.43572L158.013 3.43572L158.013 20.0067ZM132.813 20.5711L137.197 20.5711L137.197 4.57158L152.539 4.57158L152.539 0.00027492L132.813 0.000273196L132.813 20.5711ZM116.371 6.86088L116.371 21.7176L109.796 21.7176L109.796 0.00393329L130.617 0.00393511L130.617 6.86088L116.371 6.86088ZM85.6864 22.2879L93.3573 22.2879L93.3573 8.0026L107.056 8.00261L107.056 0.00283442L85.6864 0.00283255L85.6864 22.2879ZM70.3477 22.8563L61.5809 22.8563L61.5809 -0.000206054L83.498 -0.000204138L83.498 9.14239L70.3477 9.14239L70.3477 22.8563Z" fill="#FFB433"/>
</g>
<defs>
<clipPath id="clip0_3943_3658">
<rect width="190" height="253" fill="white" transform="matrix(-1 0 0 -1 190 253)"/>
</clipPath>
</defs>
</svg>
