<svg width="662" height="452" viewBox="0 0 662 452" fill="none" xmlns="http://www.w3.org/2000/svg">
<g clip-path="url(#clip0_3875_2053)">
<path d="M519.729 150.777L512.907 169.726C505.604 166.681 489.297 161.114 482.498 163.203C478.434 149.992 459.25 124.886 415.025 130.14C404.344 121.895 377.678 106.142 356.458 109.09C352.981 94.8321 335.391 65.766 292.841 63.5658C285.127 54.0792 268.704 34.3706 264.723 31.4292C260.742 28.4878 229.033 20.9096 213.675 17.4881L200.224 23.3543C190.914 24.7187 172.191 30.1805 171.783 41.1122C171.814 42.1925 172.871 44.3899 176.85 44.5369C175.193 49.7215 176.221 58.1828 193.583 50.5512C192.483 53.6077 192.461 57.6721 202.349 58.2045L221.157 54.4518C225.708 56.9377 235.855 58.899 245.721 51.3208C259.722 73.5576 288.241 118.343 290.311 119.591C292.9 121.151 323.044 138.909 345.845 142.068C356.324 155.817 385.709 180.396 425.191 178.898C426.867 189.477 426.801 217.198 415.056 250.03C408.683 249.752 396.595 251.201 390.015 258.025C386.717 257.049 380.11 252.325 380.072 241.233C380.023 227.368 363.703 179.959 337.105 162.846C334.316 161.843 320.966 123.685 283.686 122.245C260.076 121.334 250.684 156.753 252.823 174.727C247.675 194.277 242.937 247.336 265.172 303.165C261.714 304.02 253.664 306.079 249.132 307.471C239.911 306.255 219.085 306.24 209.557 315.908C190.787 311.469 154.43 304.906 127.482 321.658C117.623 326.297 111.198 328.394 88.5736 317.745C86.2675 314.818 74.7838 307.753 69.6087 310.929C63.14 314.898 51.25 318.178 33.8221 301.843C31.4344 299.726 25.1735 296.469 19.2312 300.376C14.6352 299.143 4.96151 298.016 3.03536 303.367C0.627681 310.055 1.88387 336.313 25.4675 346.049C35.7308 349.737 51.012 346.837 57.3697 344.926C62.0738 347.197 70.7423 349.909 77.5984 348.231C107.068 362.033 174.532 385.902 208.635 370.967C216.041 368.593 225.477 364.431 229.269 362.647C232.935 363.545 241.874 364.03 248.298 358.786C287.054 377.121 373.726 408.65 410.361 388.079C422.075 392.289 451.484 393.543 475.41 364.879C480.512 365.874 494.997 364.366 512.127 350.38C518.88 350.29 534.254 348.765 541.73 343.396C540.913 346.249 540.889 352.031 547.332 352.333C545.69 355.729 544.319 362.454 551.975 362.184C552.593 365.134 555.641 370.552 562.886 368.624C563.809 371.893 567.801 378.069 576.386 376.623C584.97 375.176 604.604 364.734 613.348 359.694C615.801 356.38 619.931 347.709 616.823 339.542C612.938 329.334 602.849 311.86 600.462 309.743C605.452 307.55 616.268 296.289 619.616 268.79C631.213 252.91 647.408 216.439 619.419 197.592L604.916 192.379C600.884 187.248 588.037 176.973 568.905 176.919L571.044 165.728L519.729 150.777Z" fill="#FFDFA9"/>
<path d="M519.729 150.777L512.907 169.726C505.604 166.681 489.297 161.114 482.498 163.203C478.434 149.992 459.25 124.886 415.025 130.14C404.344 121.895 377.678 106.142 356.458 109.09C352.981 94.8321 335.391 65.766 292.841 63.5658C285.127 54.0792 268.704 34.3706 264.723 31.4292C261.432 28.997 239.181 23.3944 222.893 19.5932C216.906 18.1959 210.638 18.8129 205.001 21.271L200.224 23.3543C190.914 24.7187 171.56 33.3473 171.783 41.1122C171.814 42.1925 172.871 44.3899 176.85 44.537M176.85 44.537C175.193 49.7215 177.215 57.0356 194.577 49.404M176.85 44.537L195.996 35.7566C200.98 36.7204 211.718 38.3587 214.804 37.2022M194.577 49.404C194.242 50.3362 193.941 51.6718 193.966 53.0931C194.114 61.488 206.742 59.0719 214.741 56.5082L221.157 54.4518C225.708 56.9377 235.855 58.899 245.721 51.3209M194.577 49.404L217.698 44.3235L226.379 37.2022M245.721 51.3209C248.028 49.5486 250.32 47.2546 252.522 44.3235L245.721 51.3209ZM245.721 51.3209C259.722 73.5576 288.241 118.343 290.311 119.591C292.9 121.151 323.044 138.909 345.845 142.068C356.324 155.817 385.709 180.396 425.191 178.898M425.191 178.898C429.236 178.745 433.388 178.317 437.636 177.577L425.191 178.898ZM425.191 178.898C426.867 189.477 426.801 217.198 415.056 250.03M415.056 250.03C413.76 253.651 412.323 257.334 410.73 261.064L415.056 250.03ZM415.056 250.03C408.683 249.752 396.595 251.201 390.015 258.025M390.015 258.025C388.364 259.737 387.059 261.788 386.28 264.236L390.015 258.025ZM390.015 258.025C386.717 257.049 380.11 252.325 380.072 241.233C380.023 227.368 363.703 179.959 337.105 162.846C334.317 161.844 320.966 123.684 283.686 122.245C260.076 121.334 250.684 156.753 252.823 174.727C247.675 194.277 242.937 247.336 265.172 303.165M308.349 165.729C308.603 170.856 308.113 182.135 304.116 186.238C312.983 197.188 325.159 208.278 308.041 266.329C307.289 268.879 306.568 273.694 305.855 279.391M301.717 311.894C303.176 304.175 304.502 290.196 305.855 279.391M301.717 311.894C325.72 305.414 344.394 307.09 350.73 308.738M301.717 311.894C289.832 306.993 262.676 299.247 249.132 307.471C239.911 306.255 219.086 306.24 209.557 315.908C190.787 311.469 154.43 304.906 127.482 321.658C117.623 326.297 111.198 328.394 88.5737 317.745C86.2676 314.818 74.7838 307.753 69.6088 310.929C63.1401 314.898 51.25 318.178 33.8221 301.843C31.4344 299.726 25.1735 296.469 19.2313 300.376C14.6352 299.143 4.96151 298.016 3.03537 303.367C0.627687 310.055 1.88385 336.313 25.4675 346.049C35.7308 349.737 51.0121 346.837 57.3698 344.926C62.0739 347.197 70.7423 349.909 77.5985 348.231M305.855 279.391C307.821 286.182 312.913 301.441 317.556 308.145M77.5985 348.231C80.65 347.485 83.3426 345.868 85.1669 342.957L77.5985 348.231ZM77.5985 348.231C107.068 362.033 174.532 385.902 208.635 370.967C216.041 368.593 225.477 364.431 229.269 362.647C232.935 363.545 241.874 364.03 248.298 358.786C287.054 377.121 373.726 408.65 410.361 388.079C422.075 392.289 451.484 393.543 475.41 364.879M475.41 364.879C480.512 365.874 494.997 364.366 512.127 350.38C518.88 350.29 534.254 348.765 541.73 343.396M475.41 364.879C453.953 341.373 428.73 332.591 418.8 331.139M541.73 343.396C540.913 346.249 540.889 352.031 547.332 352.333M541.73 343.396C543.169 342.149 545.859 340.193 549.492 338.136M547.332 352.333C545.69 355.729 544.319 362.454 551.975 362.184M547.332 352.333L566.853 343.396M551.975 362.184C552.593 365.134 555.641 370.552 562.886 368.624M551.975 362.184L571.044 352.333M562.886 368.624C563.809 371.893 567.801 378.069 576.386 376.623C584.97 375.176 604.604 364.734 613.348 359.694C615.801 356.38 619.931 347.709 616.823 339.542C612.938 329.334 602.849 311.86 600.462 309.743C605.452 307.55 616.268 296.289 619.616 268.79C631.213 252.91 647.408 216.439 619.419 197.592C611.387 194.705 606.404 192.914 604.916 192.379C600.884 187.248 588.037 176.973 568.905 176.919M562.886 368.624L578.91 362.647M568.905 176.919L571.044 165.728M568.905 176.919C568.382 181.424 569.65 190.435 578.91 190.435M433.75 146.585C437.608 149.484 445.131 158.17 444.359 169.726M441.948 215.01C442.27 224.764 448.603 245.649 471.366 251.149M519.729 266.329C530.673 278.866 553.643 291.243 574.087 280.94M608.327 253.559C602.926 255.486 596.914 258.308 593.86 261.064C587.98 271.052 581.186 277.363 574.087 280.94M574.087 280.94C572.074 288.839 564.924 309.743 554.085 321.658M380.072 315.908C386.792 317.045 401.245 321.684 405.297 331.139M425.191 279.391C428.044 279.91 433.75 282.891 433.75 290.662C436.161 290.777 442.72 292.882 449.664 300.376M464.132 290.662C466.983 287.078 473.328 282.958 482.498 283.553M507.535 294.999C497.795 287.081 489.356 283.999 482.498 283.553M252.522 321.658C248.298 331.139 244.029 344.082 258.69 352.333M88.5736 327.765C91.3461 331.139 92.118 334.728 88.5736 336.439M380.072 266.329C380.004 272.994 376.468 287.193 362.858 290.662M566.853 331.139C560.005 332.849 554.017 335.572 549.492 338.136M549.492 338.136C539.847 339.493 539.686 332.109 539.847 329.211L565.406 318.128C576.915 319.832 581.803 318.128 606.398 331.139M571.044 209.227C573.505 207.3 580.839 203.059 590.484 201.517M486.316 174.727C490.817 177.577 500.784 184.709 504.642 190.435M482.498 283.553C484.85 279.832 492.572 272.292 504.642 271.901" stroke="#FFA408" stroke-width="2" stroke-linecap="round" stroke-linejoin="round"/>
<path d="M519.724 67.5924C522.133 64.4386 525.44 62.7592 528.969 61.4827C529.337 61.3381 529.581 61.1612 529.766 60.8313C531.132 58.6427 531.845 56.1797 532.642 53.7731C533.698 50.5052 534.183 47.1563 534.391 43.7346C534.414 43.3965 534.333 43.2032 534.059 42.9936C531.375 41.0504 530.834 38.2238 531.154 35.0035C531.265 33.8281 531.499 32.685 532.042 31.6228C533.527 28.605 536.849 27.618 539.6 29.3036C541.433 30.473 542.534 32.1729 543.138 34.2589C543.453 35.4428 543.736 36.6186 543.731 37.8907C543.686 39.9438 542.854 41.4808 541.201 42.6305C539.762 43.5952 539.69 43.3697 540.266 45.3107C541.353 49.0718 543.325 52.3428 545.816 55.268C546.647 56.2431 547.556 57.1699 548.394 58.1128C548.599 58.3385 548.845 58.4031 549.178 58.3874C552.524 58.4391 555.88 58.7001 559.165 59.3557C560.507 59.6388 561.899 59.7288 563.238 60.1489C563.484 60.2135 563.562 60.1653 563.7 59.8917C564.682 57.912 565.456 55.8436 565.93 53.6621C566.086 52.9457 566.373 52.2294 566.413 51.4484C566.419 51.1747 566.369 50.9895 566.179 50.8363C563.88 48.6842 562.979 45.9699 563.29 42.7818C563.676 38.684 565.371 35.2397 568.581 32.6746C570.332 31.2754 572.35 30.738 574.493 31.2313C576.081 31.5791 577.7 31.9351 579.054 33.0476C581.213 34.8533 582.08 37.3179 582.252 40.0476C582.481 43.6871 581.747 47.1082 579.383 49.9641C578.085 51.5167 576.481 52.6101 574.527 53.0268C574.247 53.0909 574.09 53.1873 573.983 53.469C573.338 55.2961 572.825 57.1232 572.519 59.0392C572.358 60.0293 572.258 61.0357 572.189 62.0501C572.174 62.356 572.18 62.4607 572.488 62.5416C577.066 63.915 581.49 65.6264 585.644 67.9897C585.873 68.1188 586.111 68.2157 586.4 68.1193C589.725 66.9955 593.089 65.8476 596.076 63.878C597.555 62.8892 598.913 61.7312 600.187 60.5167C600.804 59.9215 600.895 59.3258 600.51 58.5363C599.968 57.4649 599.567 56.3615 599.712 55.0573C599.842 54.059 600.11 53.1656 600.655 52.3449C602.242 49.9391 604.137 47.9926 606.993 47.3997C609.319 46.9431 611.313 47.5007 612.685 49.5472C613.465 50.7155 613.79 52.1087 613.519 53.5174C613.004 56.4799 611.761 59.0792 609.219 60.856C608.409 61.4349 607.503 61.748 606.556 61.8436C605.981 61.8994 605.729 62.1085 605.453 62.6557C604.016 65.6172 602.879 68.6917 602.195 71.9197C601.675 74.399 601.178 76.9186 601.199 79.4709C601.212 79.9218 601.321 80.2601 601.6 80.5744C603.487 82.7905 605.17 85.1594 606.059 88.0427C606.29 88.7917 606.443 89.589 606.679 90.4427C607.759 89.5903 608.809 88.7299 609.858 87.8694C611.965 86.1164 613.877 84.1054 615.598 81.9413C615.837 81.6598 615.888 81.4666 615.717 81.1122C614.894 79.4849 614.771 77.6974 614.981 75.894C615.473 71.8929 617.89 69.0854 620.635 66.5359C621.892 65.3858 623.18 64.2438 624.686 63.4C627.337 61.9614 629.99 61.7629 632.593 63.1343C634.707 64.2395 635.897 66.1006 635.935 68.5885C635.949 70.0378 635.529 71.5108 635.064 72.9033C634.169 75.5593 632.73 77.9009 630.858 79.8877C628.199 82.7352 625.089 84.6724 621.166 84.8134C620.833 84.8291 620.729 84.9739 620.616 85.151C619.31 87.1142 618.172 89.1903 617.294 91.4036C616.103 94.4297 615.91 97.5455 616.064 100.718C616.066 100.959 616.1 101.209 616.172 101.435C616.461 102.715 616.819 102.981 618.081 102.693C620.012 102.236 621.804 101.432 623.581 100.557C625.446 99.6003 627.289 98.6038 629.073 97.4542C633.247 94.729 637.105 91.5768 640.594 87.9491C640.815 87.7319 640.942 87.6274 640.662 87.3131C640.058 86.604 640.097 85.203 640.732 84.165C641.665 82.6201 643.132 81.8003 644.635 81.0934C648.384 79.3581 652.291 78.5247 656.356 78.5932C657.471 78.6105 658.474 78.8047 659.217 79.8603C659.894 80.7949 659.705 81.6401 659.328 82.5737C658.65 84.1511 657.432 85.2771 656.177 86.2903C654.457 87.6976 652.559 88.7826 650.459 89.5051C648.359 90.2276 646.572 91.514 644.866 92.9937C641.597 95.7842 638.283 98.4942 634.97 101.204C631.316 104.204 627.934 107.55 624.636 110.952C620.538 115.143 616.485 119.414 612.865 124.04C609.684 128.127 606.578 132.302 604.258 136.994C602.863 139.794 601.746 142.668 601.197 145.759C600.869 147.635 600.68 149.478 600.817 151.338C600.861 151.797 600.894 152.047 601.491 152.031C603.366 152.041 604.735 153.846 604.561 155.762C604.409 157.719 603.331 159.191 602.07 160.478C599.241 163.349 595.822 165.206 592.189 166.627C584.563 169.582 576.62 170.734 568.582 170.999C564.264 171.14 559.952 171.007 555.683 170.712C553.061 170.541 550.444 170.095 547.817 169.819C543.559 169.355 539.529 168.023 535.455 166.988C534.038 166.616 532.688 165.987 531.322 165.422C529.802 164.816 528.307 164.114 526.786 163.509C524.499 162.565 522.316 161.475 520.118 160.314C516.099 158.192 512.127 156.014 508.413 153.353C503.122 149.556 498.117 145.42 494.097 140.167C491.967 137.371 490.19 134.357 489.23 130.87C488.879 129.574 488.677 128.213 488.931 126.868C489.398 124.341 491.553 122.531 494.095 123.886C494.47 124.088 494.56 123.871 494.712 123.67C495.501 122.672 496.046 121.473 496.544 120.33C497.515 118.141 498.116 115.855 498.501 113.513C499.107 109.576 499.064 105.607 498.748 101.669C498.008 92.8358 496.005 84.2911 493.784 75.8267C492.27 70.0603 490.38 64.4707 488.171 58.9692C486.974 56.0051 485.957 52.9847 484.83 50.0045C484.181 48.2164 483.208 46.6534 481.978 45.1948C479.839 42.8094 478.328 40.0382 477.734 36.7847C477.568 35.915 477.555 35.0857 477.784 34.2164C478.134 32.7594 479.951 31.8595 481.247 32.4405C484.352 33.9091 487.071 35.965 489.375 38.6002C490.796 40.2119 492.169 41.88 492.857 44.0224C493.35 45.5285 493.039 46.9614 492.035 47.9024C491.987 47.9587 491.931 48.0472 491.861 48.0632C490.827 48.2393 491.307 48.9161 491.466 49.4396C492.922 54.6746 494.863 59.6926 497.565 64.325C499.257 67.2816 501.028 70.19 503.51 72.5275C504.67 73.6237 505.166 73.6161 506.158 72.2242C507.34 70.6071 508.178 68.7964 508.941 66.897C510.272 63.4604 510.281 59.9177 510.066 56.3507C510.022 55.8917 509.88 55.6822 509.513 55.4483C505.788 52.9566 504.044 49.1948 503.399 44.7578C503.172 43.115 503.046 41.4643 503.293 39.7738C503.542 37.9463 503.638 36.0785 504.636 34.4128C506.004 32.0874 508.764 30.6087 511.425 31.1348C514.881 31.7663 516.922 34.0228 518.231 37.1884C519.31 39.8465 520.281 42.5447 520.402 45.4675C520.566 48.8493 519.679 51.8516 517.254 54.3129C517.206 54.3692 517.158 54.4255 517.08 54.4738C515.86 54.9798 516.01 55.9139 516.195 56.9608C516.817 60.3592 517.946 63.5809 519.224 66.7384C519.38 67.0204 519.38 67.3988 519.724 67.5924ZM585.183 121.113C585.172 120.904 585.181 120.872 585.181 120.872C585.212 120.88 585.212 120.88 585.242 120.888C585.335 120.912 585.436 120.904 585.528 120.928C596.319 120.215 606.877 118.132 617.083 114.133C617.747 113.86 618.328 113.53 618.858 113.015C626.851 105.407 635.182 98.2656 644.341 92.2363C645.771 91.3038 647.135 90.2505 648.73 89.5677C650.592 88.7484 652.409 87.8484 654.084 86.739C655.475 85.8306 656.746 84.753 657.676 83.345C658.791 81.607 658.25 80.1572 656.332 79.6882C656.116 79.6316 655.861 79.5992 655.637 79.5748C652.136 79.2411 648.744 79.8657 645.497 81.3197C644.269 81.8579 643.077 82.5088 642.17 83.5787C641.216 84.705 641.205 86.2509 642.198 86.8557C642.71 87.1622 642.55 87.3956 642.264 87.7334C640.352 89.7443 638.494 91.8036 636.476 93.7178C632.101 97.8357 627.346 101.269 621.814 103.397C620.345 103.975 618.817 104.4 617.251 104.471C616.584 104.503 615.993 104.244 615.689 103.648C615.2 102.625 614.83 101.53 614.717 100.33C614.615 99.3396 614.838 98.3656 614.969 97.3674C615.275 95.073 615.789 92.8674 616.589 90.7024C617.439 88.3442 618.664 86.1876 620.088 84.152C620.625 83.3635 621.145 82.6394 622.234 83.1317C622.379 83.2043 622.606 83.0918 622.808 83.0759C627.575 82.2273 630.856 79.2677 633.105 74.9705C634.027 73.2162 634.75 71.341 634.919 69.3202C635.063 67.396 634.394 65.0524 632.02 64.1884C630.875 63.7847 629.684 63.6788 628.482 63.742C625.806 63.9003 623.613 65.3554 621.646 67.0764C619.482 68.918 617.802 71.2995 616.727 74.0118C615.652 76.724 615.735 79.2925 617.998 81.3319C618.339 81.6623 618.196 81.8313 617.988 82.1209C616.761 83.6575 615.587 85.2424 614.231 86.642C609.356 91.6612 603.703 95.3752 597.445 98.1385C594.801 99.3033 592.126 100.46 589.251 100.876C584.898 101.523 581.252 100.36 578.504 96.7827C576.637 94.3653 575.233 91.6908 574.291 88.7591C572.393 82.8232 571.367 76.703 571.073 70.4306C570.892 66.3563 571.138 62.2906 571.879 58.2173C572.204 56.4785 572.675 54.8123 573.093 53.0978C573.231 52.4457 573.531 52.1803 574.123 52.0602C575.905 51.6675 577.451 50.7995 578.568 49.303C581.18 45.755 581.647 41.8505 580.39 37.7349C579.616 35.2945 578.123 33.4572 575.692 32.6818C573.108 31.866 570.781 32.701 568.727 34.5024C566.468 36.4566 565.158 38.9351 564.581 41.8814C563.97 44.9564 564.506 47.6784 566.705 49.8384C567.356 50.4913 567.585 50.9988 567.323 51.9969C566.386 55.8123 565.035 59.4502 563.3 62.9186C560.674 68.1494 557.354 72.8884 553.516 77.2162C550.274 80.9085 546.791 84.2624 542.396 86.448C539.592 87.8461 536.753 88.3746 533.838 87.4376C531.531 86.6945 529.586 85.3238 527.913 83.5427C525.212 80.6656 522.85 77.4989 520.828 74.0427C517.333 68.1696 514.892 61.9192 514.039 55.0182C513.958 54.4464 514.018 54.2211 514.617 54.0687C516.246 53.6356 517.514 52.6948 518.302 51.0773C518.895 49.8219 519.172 48.5178 519.194 47.1813C519.244 44.2345 518.983 41.3437 517.687 38.629C516.356 35.8016 514.595 33.481 511.478 32.5599C509.554 31.9863 507.763 32.4112 506.458 33.996C505.733 34.8729 505.199 35.9029 504.964 37.046C504.718 38.3582 504.419 39.6219 504.366 40.9504C504.108 45.9421 505.563 50.1786 509.312 53.3306C509.556 53.5321 509.816 53.6693 510.124 53.7501C510.463 53.839 510.903 53.92 510.983 54.4917C511.459 57.8175 511.417 61.1105 510.677 64.4269C510.273 66.214 509.662 67.9122 509.073 69.6507C508.386 71.6388 507.344 73.2238 505.675 74.4379C504.864 75.0168 504.343 75.1209 503.495 74.5887C502.165 73.758 501.044 72.6377 500.048 71.4129C496.822 67.3999 494.491 62.8645 492.788 57.9433C491.631 54.5766 490.816 51.162 489.979 47.707C489.901 47.3768 489.876 47.095 490.372 47.0875C491.162 47.0883 491.653 46.5976 491.94 45.8813C492.45 44.5695 491.995 43.4176 491.422 42.3381C490.06 39.881 488.183 37.8743 485.981 36.2296C484.8 35.3346 483.515 34.5845 482.149 34.0195C480.268 33.2849 479.337 33.6946 478.804 35.3446C478.613 35.9483 478.684 36.5522 478.787 37.1642C479.206 39.5801 480.345 41.6344 481.634 43.6244C482.525 44.9941 483.582 46.2351 484.386 47.6852C485.808 50.2953 487.19 52.9296 488.424 55.6281C492.082 63.8846 495.303 72.3017 497.86 80.9919C498.069 81.7007 498.326 82.3531 498.793 82.9574C502.796 87.8971 507.26 92.338 512.089 96.3928C515.488 99.2465 519.061 101.939 522.78 104.326C522.979 104.447 523.265 104.488 523.256 104.899C514.432 100.381 506.527 94.6239 499.631 87.4108C499.558 87.5637 499.572 87.6361 499.594 87.6764C500.827 93.8854 502.2 100.062 502.057 106.495C502.014 108.79 501.87 111.093 501.502 113.371C500.613 118.507 498.618 123.215 495.803 127.536C495.401 128.187 495.319 128.751 495.66 129.46C496.363 130.918 497.106 132.352 498.036 133.697C501.164 138.338 504.869 142.408 508.913 146.188C509.946 147.147 510.899 148.155 512.075 148.945C513.166 149.679 514.193 150.533 515.259 151.364C515.021 151.267 514.791 151.138 514.593 151.017C507.94 146.759 502.099 141.544 497.513 134.937C496.538 133.51 495.602 132.06 494.91 130.433C494.667 129.853 494.525 129.265 494.756 128.638C495.069 127.825 494.887 127.261 494.115 126.817C493.342 126.374 492.751 126.494 492.231 127.218C491.582 128.183 491.628 129.262 491.901 130.229C492.288 131.638 492.745 133.032 493.469 134.288C495.907 138.542 498.898 142.321 502.459 145.562C505.754 148.56 509.401 151.1 513.055 153.608C517.183 156.446 521.462 159.083 525.992 161.27C527.977 162.238 530.004 163.045 532.005 163.949C534.514 165.055 537.079 166.072 539.711 166.831C542.528 167.639 545.433 167.989 548.315 168.297C550.517 168.565 552.727 168.801 554.932 168.932C560.185 169.244 565.472 169.048 570.735 168.57C576.068 168.076 581.4 167.582 586.542 165.937C591.285 164.428 595.897 162.541 599.717 159.034C600.752 158.101 601.519 157.064 601.289 155.558C601.203 154.881 600.708 154.51 599.918 154.51C599.29 154.517 598.528 154.661 598.473 155.37C598.384 156.585 597.635 157.18 596.802 157.719C593.776 159.713 590.529 161.167 587.125 162.339C583.214 163.687 579.212 164.633 575.134 165.112C573.201 165.328 571.289 165.583 569.322 165.549C571.494 165.431 573.663 165.071 575.805 164.565C578.989 163.852 582.176 163.002 585.277 161.854C589.432 160.328 593.542 158.722 597.211 156.037C597.787 155.602 597.984 155.103 597.968 154.411C597.845 151.247 597.853 148.082 598.45 144.935C599.556 139.099 601.988 133.852 605.25 128.96C607.806 125.122 610.849 121.687 613.839 118.204C613.991 118.002 614.257 117.866 614.244 117.415C604.696 120.416 595.011 121.558 585.183 121.113ZM534.47 86.5365C535.486 86.8032 536.565 87.0861 537.593 86.8054C539.41 86.2839 541.199 85.6174 542.923 84.6933C546.639 82.7083 549.639 79.8129 552.444 76.6595C556.312 72.3398 559.602 67.5928 562.396 62.4749C562.702 61.9358 562.573 61.7987 562.064 61.7338C560.327 61.4502 558.582 61.1989 556.806 60.9394C552.551 60.3393 548.256 60.1416 543.978 60.258C538.203 60.4293 532.545 61.285 527.139 63.6869C524.713 64.7714 522.369 66.0492 520.412 67.9795C520.008 68.3898 519.994 68.6957 520.192 69.1951C522.21 73.545 524.598 77.6134 527.371 81.4729C529.221 83.9547 531.499 85.688 534.47 86.5365ZM583.75 99.5014C586.649 100.124 588.823 100.247 590.971 99.4685C593.368 98.6175 595.678 97.4685 597.922 96.1986C600.432 94.7922 602.884 93.2327 605.268 91.5523C605.756 91.1986 606.065 90.901 605.794 90.1761C605.451 89.2256 605.108 88.2752 604.648 87.3971C602.204 82.6604 598.661 78.9772 594.556 75.8007C588.457 71.0683 581.635 67.8327 574.506 65.1362C573.814 64.8859 573.157 64.5068 572.392 64.4094C572.075 64.3608 571.874 64.3767 571.957 64.8115C571.985 64.9565 571.934 65.1497 571.953 65.3268C571.849 71.7357 572.57 78.0166 574.075 84.1937C575.14 88.5345 576.747 92.5699 579.528 96.0188C580.87 97.6788 582.182 99.3307 583.75 99.5014Z" fill="#FFA408"/>
<mask id="path-4-outside-1_3875_2053" maskUnits="userSpaceOnUse" x="447.93" y="5.68469" width="220.382" height="187.491" fill="black">
<rect fill="white" x="447.93" y="5.68469" width="220.382" height="187.491"/>
<path d="M585.188 121.112C595.016 121.557 604.67 120.407 614.241 117.446C614.254 117.897 613.988 118.034 613.836 118.235C610.846 121.718 607.803 125.153 605.246 128.991C601.985 133.883 599.521 139.122 598.446 144.966C597.85 148.114 597.841 151.278 597.965 154.442C597.98 155.135 597.775 155.666 597.208 156.068C593.569 158.761 589.428 160.359 585.273 161.885C582.173 163.033 578.985 163.883 575.801 164.597C573.668 165.07 571.499 165.43 569.319 165.58C571.255 165.607 573.189 165.391 575.131 165.144C579.208 164.665 583.211 163.719 587.122 162.37C590.494 161.19 593.764 159.776 596.799 157.75C597.64 157.179 598.35 156.608 598.47 155.401C598.524 154.692 599.287 154.548 599.914 154.541C600.705 154.542 601.169 154.904 601.285 155.589C601.485 157.087 600.718 158.125 599.713 159.066C595.894 162.572 591.281 164.46 586.538 165.968C581.366 167.606 576.033 168.099 570.731 168.601C565.46 169.111 560.181 169.275 554.929 168.963C552.724 168.832 550.514 168.597 548.312 168.329C545.407 167.98 542.494 167.663 539.707 166.863C537.075 166.103 534.502 165.118 532.002 163.98C530 163.077 527.973 162.269 525.988 161.301C521.459 159.115 517.21 156.485 513.052 153.639C509.397 151.131 505.751 148.591 502.456 145.593C498.864 142.344 495.904 138.573 493.465 134.32C492.742 133.063 492.285 131.669 491.898 130.26C491.633 129.261 491.587 128.182 492.228 127.249C492.748 126.525 493.339 126.405 494.111 126.848C494.884 127.292 495.065 127.856 494.753 128.669C494.522 129.297 494.655 129.917 494.906 130.464C495.598 132.091 496.534 133.542 497.51 134.968C502.087 141.607 507.937 146.79 514.589 151.048C514.788 151.169 515.017 151.298 515.255 151.395C514.189 150.564 513.154 149.742 512.071 148.976C510.896 148.186 509.942 147.179 508.91 146.219C504.896 142.447 501.169 138.337 498.033 133.728C497.133 132.391 496.36 130.949 495.656 129.491C495.316 128.782 495.406 128.186 495.8 127.567C498.623 123.214 500.609 118.538 501.498 113.402C501.897 111.132 502.011 108.821 502.054 106.527C502.197 100.094 500.824 93.9166 499.591 87.7076C499.577 87.6352 499.554 87.5949 499.627 87.442C506.532 94.6229 514.398 100.404 523.252 104.93C523.27 104.487 522.945 104.471 522.777 104.358C519.027 101.963 515.484 99.2778 512.085 96.4241C507.256 92.3692 502.793 87.9283 498.789 82.9886C498.322 82.3843 498.066 81.7319 497.857 81.0231C495.269 72.3249 492.056 63.8756 488.42 55.6593C487.226 52.9367 485.813 50.2944 484.383 47.7164C483.609 46.2744 482.521 45.0253 481.63 43.6557C480.342 41.6656 479.202 39.6113 478.784 37.1955C478.681 36.5834 478.618 35.9473 478.801 35.3758C479.333 33.7258 480.264 33.3162 482.146 34.0508C483.52 34.5836 484.797 35.3659 485.977 36.2608C488.18 37.9055 490.056 39.9123 491.419 42.3694C492.022 43.4569 492.477 44.6088 491.937 45.9126C491.641 46.661 491.181 47.1598 490.368 47.1187C489.872 47.1262 489.897 47.4081 489.975 47.7382C490.812 51.1932 491.619 54.6401 492.784 57.9746C494.487 62.8958 496.81 67.4633 500.045 71.4441C501.04 72.6689 502.162 73.7892 503.491 74.6199C504.339 75.1522 504.861 75.048 505.671 74.4691C507.34 73.2551 508.383 71.67 509.07 69.682C509.689 67.9515 510.269 66.2452 510.673 64.4582C511.405 61.1739 511.455 57.8487 510.979 54.5229C510.899 53.9512 510.459 53.8702 510.121 53.7813C509.812 53.7005 509.552 53.5634 509.309 53.3618C505.538 50.1696 504.105 45.9733 504.363 40.9816C504.416 39.6532 504.723 38.3572 504.961 37.0772C505.196 35.9342 505.699 34.896 506.454 34.0273C507.799 32.4183 509.582 32.0256 511.475 32.5912C514.561 33.5041 516.322 35.8248 517.684 38.6603C518.948 41.3669 519.209 44.2576 519.19 47.2125C519.168 48.549 518.883 49.8853 518.298 51.1085C517.542 52.7341 516.265 53.7071 514.614 54.0999C514.014 54.2523 513.955 54.4777 514.035 55.0494C514.88 61.9826 517.321 68.2331 520.824 74.074C522.855 77.4979 525.217 80.6646 527.91 83.5739C529.582 85.355 531.519 86.7579 533.834 87.4688C536.78 88.4139 539.628 87.8532 542.393 86.4792C546.787 84.2937 550.27 80.9397 553.513 77.2474C557.359 72.8874 560.679 68.1485 563.296 62.9499C565.04 59.4492 566.391 55.8114 567.319 52.0281C567.542 51.0541 567.353 50.5225 566.701 49.8697C564.503 47.7096 563.975 44.9555 564.577 41.9126C565.154 38.9664 566.503 36.4637 568.723 34.5336C570.769 32.7644 573.073 31.8891 575.689 32.713C578.119 33.4885 579.612 35.3257 580.387 37.7661C581.643 41.8817 581.208 45.7943 578.565 49.3343C577.439 50.8629 575.893 51.7309 574.119 52.0914C573.528 52.2116 573.258 52.485 573.089 53.129C572.671 54.8435 572.201 56.5097 571.875 58.2485C571.143 62.2896 570.897 66.3554 571.069 70.4618C571.364 76.7342 572.359 82.8463 574.287 88.7903C575.229 91.722 576.625 94.4287 578.501 96.8139C581.249 100.392 584.926 101.563 589.247 100.907C592.122 100.491 594.797 99.3345 597.442 98.1698C603.7 95.4064 609.391 91.6683 614.228 86.6732C615.583 85.2737 616.788 83.6968 617.984 82.1521C618.192 81.8625 618.335 81.6936 617.994 81.3631C615.731 79.3238 615.649 76.7552 616.724 74.043C617.799 71.3307 619.47 68.9814 621.642 67.1076C623.601 65.4188 625.794 63.9637 628.479 63.7732C629.681 63.71 630.88 63.7837 632.017 64.2197C634.391 65.0836 635.051 67.4595 634.916 69.3514C634.747 71.3722 634.024 73.2474 633.101 75.0017C630.883 79.307 627.572 82.2585 622.805 83.1071C622.634 83.1311 622.376 83.2355 622.23 83.1629C621.141 82.6706 620.661 83.3706 620.085 84.1833C618.661 86.2188 617.436 88.3754 616.585 90.7336C615.786 92.8986 615.272 95.1042 614.965 97.3986C614.835 98.3968 614.62 99.3387 614.714 100.361C614.835 101.529 615.205 102.624 615.686 103.679C615.981 104.308 616.581 104.534 617.247 104.502C618.845 104.44 620.342 104.006 621.811 103.428C627.351 101.268 632.106 97.8348 636.473 93.7491C638.491 91.8349 640.349 89.7756 642.261 87.7646C642.578 87.4349 642.738 87.2015 642.195 86.887C641.232 86.2902 641.243 84.7443 642.167 83.61C643.074 82.54 644.266 81.8891 645.494 81.3509C648.741 79.8969 652.132 79.2723 655.634 79.606C655.858 79.6304 656.113 79.6629 656.328 79.7194C658.247 80.1884 658.819 81.6463 657.672 83.3762C656.734 84.8165 655.471 85.8619 654.08 86.7703C652.366 87.9038 650.58 88.8118 648.727 89.5989C647.131 90.2817 645.768 91.335 644.337 92.2675C635.179 98.2968 626.839 105.47 618.855 113.047C618.324 113.561 617.744 113.891 617.079 114.164C606.874 118.163 596.316 120.246 585.525 120.959C585.424 120.967 585.331 120.943 585.239 120.919C585.208 120.911 585.208 120.911 585.177 120.903C585.186 120.871 585.177 120.903 585.188 121.112ZM540.068 160.728C542.309 161.35 543.874 161.658 545.435 161.86C553.614 162.94 560.922 161.071 566.764 154.378C568.552 152.335 569.75 150.033 570.22 147.369C570.8 143.907 570.133 140.807 567.694 138.308C566.111 136.688 564.14 135.793 561.95 135.356C559.923 134.927 557.891 135.013 555.851 135.132C553.842 135.259 551.824 135.418 549.819 135.029C545.901 134.276 542.23 132.831 538.894 130.614C534.542 127.751 531.694 123.803 530.659 118.472C530.464 117.457 530.208 116.426 529.944 115.428C528.775 111.232 525.38 109.24 521.251 110.29C518.072 111.108 515.603 113.11 513.539 115.701C512.034 117.543 511.134 119.716 510.317 121.946C508.881 125.905 508.574 129.955 509.803 133.926C511.458 139.282 514.313 143.954 518.083 147.903C524.412 154.52 532.202 158.457 540.068 160.728ZM539.728 116.79C539.417 116.846 539.252 116.597 539.045 116.508C538.807 116.411 538.578 116.282 538.34 116.185C537.855 116.024 537.275 115.975 537.07 116.506C536.89 116.94 537.284 117.319 537.682 117.561C537.796 117.626 537.933 117.731 538.048 117.795C541.007 119.191 542.44 121.632 542.544 124.998C542.551 125.344 542.559 125.69 542.567 126.036C542.586 126.214 542.659 126.439 542.883 126.463C543.107 126.488 543.189 126.303 543.279 126.085C543.501 125.49 543.569 124.854 543.559 124.266C543.529 123.88 543.681 123.678 543.964 123.477C544.679 123.011 545.16 122.311 545.388 121.442C546.844 115.904 548.291 110.398 549.715 104.852C549.834 104.401 550.016 104.208 550.437 104.112C551.129 103.984 551.78 103.638 552.257 103.075C552.456 102.818 552.611 102.48 552.393 102.182C552.206 101.892 551.959 102.205 551.74 102.286C550.383 102.687 549.06 102.959 547.736 102.233C546.107 101.29 545.482 99.7834 545.416 97.9073C545.39 96.6271 545.826 95.4682 546.363 94.3012C546.591 93.8103 546.634 93.2709 546.074 93.0208C545.545 92.7787 545.219 93.1407 544.969 93.5913C543.755 95.9572 543.383 98.3723 544.475 100.861C544.6 101.135 544.619 101.312 544.358 101.554C543.727 102.076 543.409 102.784 543.198 103.589C542.335 106.874 541.48 110.126 540.617 113.41C540.321 114.537 540.024 115.663 539.728 116.79ZM562.986 122.893C563.054 122.635 563.13 122.346 563.198 122.088C564.306 117.87 565.415 113.652 566.524 109.434C567.031 107.503 566.034 105.658 564.248 105.189C562.43 104.712 560.624 105.821 560.108 107.785C558.677 113.227 557.256 118.636 555.826 124.077C555.69 124.592 555.538 125.172 555.753 125.607C556.264 126.67 556.111 127.628 555.546 128.65C555.369 128.948 555.093 129.495 555.561 129.721C555.975 129.899 556.128 129.319 556.313 128.989C557.586 126.776 559.34 125.24 561.762 124.671C562.673 124.463 563.561 124.592 564.46 124.553C564.894 124.529 565.416 124.425 565.481 123.926C565.507 123.451 565.096 123.137 564.648 123.088C564.146 122.991 563.589 122.982 562.986 122.893ZM561.618 94.8965C561.508 95.3151 561.482 95.7901 562.011 96.0322C562.518 96.234 562.835 95.9042 563.046 95.4777C563.167 95.2685 563.265 95.019 563.386 94.8097C564.111 93.5544 565.522 92.8232 566.841 93.0661C568.16 93.309 569.058 94.4049 569.248 95.9349C569.301 96.3617 569.292 96.7723 569.344 97.1991C569.41 97.6983 569.642 98.0689 570.178 98.0373C570.651 97.9894 570.884 97.6032 570.902 97.1604C570.946 96.2426 570.849 95.3568 570.573 94.5272C569.896 92.5942 568.211 91.3606 566.32 91.415C564.235 91.4531 562.235 92.9245 561.618 94.8965ZM515.644 151.669C515.591 151.621 515.569 151.58 515.507 151.564C515.437 151.58 515.429 151.612 515.49 151.629C515.543 151.677 515.614 151.661 515.644 151.669ZM568.969 165.661C568.977 165.628 568.986 165.596 568.986 165.596C568.955 165.588 568.893 165.572 568.862 165.564C568.801 165.548 568.792 165.58 568.845 165.628C568.868 165.669 568.938 165.652 568.969 165.661Z"/>
</mask>
<path d="M585.188 121.112C595.016 121.557 604.67 120.407 614.241 117.446C614.254 117.897 613.988 118.034 613.836 118.235C610.846 121.718 607.803 125.153 605.246 128.991C601.985 133.883 599.521 139.122 598.446 144.966C597.85 148.114 597.841 151.278 597.965 154.442C597.98 155.135 597.775 155.666 597.208 156.068C593.569 158.761 589.428 160.359 585.273 161.885C582.173 163.033 578.985 163.883 575.801 164.597C573.668 165.07 571.499 165.43 569.319 165.58C571.255 165.607 573.189 165.391 575.131 165.144C579.208 164.665 583.211 163.719 587.122 162.37C590.494 161.19 593.764 159.776 596.799 157.75C597.64 157.179 598.35 156.608 598.47 155.401C598.524 154.692 599.287 154.548 599.914 154.541C600.705 154.542 601.169 154.904 601.285 155.589C601.485 157.087 600.718 158.125 599.713 159.066C595.894 162.572 591.281 164.46 586.538 165.968C581.366 167.606 576.033 168.099 570.731 168.601C565.46 169.111 560.181 169.275 554.929 168.963C552.724 168.832 550.514 168.597 548.312 168.329C545.407 167.98 542.494 167.663 539.707 166.863C537.075 166.103 534.502 165.118 532.002 163.98C530 163.077 527.973 162.269 525.988 161.301C521.459 159.115 517.21 156.485 513.052 153.639C509.397 151.131 505.751 148.591 502.456 145.593C498.864 142.344 495.904 138.573 493.465 134.32C492.742 133.063 492.285 131.669 491.898 130.26C491.633 129.261 491.587 128.182 492.228 127.249C492.748 126.525 493.339 126.405 494.111 126.848C494.884 127.292 495.065 127.856 494.753 128.669C494.522 129.297 494.655 129.917 494.906 130.464C495.598 132.091 496.534 133.542 497.51 134.968C502.087 141.607 507.937 146.79 514.589 151.048C514.788 151.169 515.017 151.298 515.255 151.395C514.189 150.564 513.154 149.742 512.071 148.976C510.896 148.186 509.942 147.179 508.91 146.219C504.896 142.447 501.169 138.337 498.033 133.728C497.133 132.391 496.36 130.949 495.656 129.491C495.316 128.782 495.406 128.186 495.8 127.567C498.623 123.214 500.609 118.538 501.498 113.402C501.897 111.132 502.011 108.821 502.054 106.527C502.197 100.094 500.824 93.9166 499.591 87.7076C499.577 87.6352 499.554 87.5949 499.627 87.442C506.532 94.6229 514.398 100.404 523.252 104.93C523.27 104.487 522.945 104.471 522.777 104.358C519.027 101.963 515.484 99.2778 512.085 96.4241C507.256 92.3692 502.793 87.9283 498.789 82.9886C498.322 82.3843 498.066 81.7319 497.857 81.0231C495.269 72.3249 492.056 63.8756 488.42 55.6593C487.226 52.9367 485.813 50.2944 484.383 47.7164C483.609 46.2744 482.521 45.0253 481.63 43.6557C480.342 41.6656 479.202 39.6113 478.784 37.1955C478.681 36.5834 478.618 35.9473 478.801 35.3758C479.333 33.7258 480.264 33.3162 482.146 34.0508C483.52 34.5836 484.797 35.3659 485.977 36.2608C488.18 37.9055 490.056 39.9123 491.419 42.3694C492.022 43.4569 492.477 44.6088 491.937 45.9126C491.641 46.661 491.181 47.1598 490.368 47.1187C489.872 47.1262 489.897 47.4081 489.975 47.7382C490.812 51.1932 491.619 54.6401 492.784 57.9746C494.487 62.8958 496.81 67.4633 500.045 71.4441C501.04 72.6689 502.162 73.7892 503.491 74.6199C504.339 75.1522 504.861 75.048 505.671 74.4691C507.34 73.2551 508.383 71.67 509.07 69.682C509.689 67.9515 510.269 66.2452 510.673 64.4582C511.405 61.1739 511.455 57.8487 510.979 54.5229C510.899 53.9512 510.459 53.8702 510.121 53.7813C509.812 53.7005 509.552 53.5634 509.309 53.3618C505.538 50.1696 504.105 45.9733 504.363 40.9816C504.416 39.6532 504.723 38.3572 504.961 37.0772C505.196 35.9342 505.699 34.896 506.454 34.0273C507.799 32.4183 509.582 32.0256 511.475 32.5912C514.561 33.5041 516.322 35.8248 517.684 38.6603C518.948 41.3669 519.209 44.2576 519.19 47.2125C519.168 48.549 518.883 49.8853 518.298 51.1085C517.542 52.7341 516.265 53.7071 514.614 54.0999C514.014 54.2523 513.955 54.4777 514.035 55.0494C514.88 61.9826 517.321 68.2331 520.824 74.074C522.855 77.4979 525.217 80.6646 527.91 83.5739C529.582 85.355 531.519 86.7579 533.834 87.4688C536.78 88.4139 539.628 87.8532 542.393 86.4792C546.787 84.2937 550.27 80.9397 553.513 77.2474C557.359 72.8874 560.679 68.1485 563.296 62.9499C565.04 59.4492 566.391 55.8114 567.319 52.0281C567.542 51.0541 567.353 50.5225 566.701 49.8697C564.503 47.7096 563.975 44.9555 564.577 41.9126C565.154 38.9664 566.503 36.4637 568.723 34.5336C570.769 32.7644 573.073 31.8891 575.689 32.713C578.119 33.4885 579.612 35.3257 580.387 37.7661C581.643 41.8817 581.208 45.7943 578.565 49.3343C577.439 50.8629 575.893 51.7309 574.119 52.0914C573.528 52.2116 573.258 52.485 573.089 53.129C572.671 54.8435 572.201 56.5097 571.875 58.2485C571.143 62.2896 570.897 66.3554 571.069 70.4618C571.364 76.7342 572.359 82.8463 574.287 88.7903C575.229 91.722 576.625 94.4287 578.501 96.8139C581.249 100.392 584.926 101.563 589.247 100.907C592.122 100.491 594.797 99.3345 597.442 98.1698C603.7 95.4064 609.391 91.6683 614.228 86.6732C615.583 85.2737 616.788 83.6968 617.984 82.1521C618.192 81.8625 618.335 81.6936 617.994 81.3631C615.731 79.3238 615.649 76.7552 616.724 74.043C617.799 71.3307 619.47 68.9814 621.642 67.1076C623.601 65.4188 625.794 63.9637 628.479 63.7732C629.681 63.71 630.88 63.7837 632.017 64.2197C634.391 65.0836 635.051 67.4595 634.916 69.3514C634.747 71.3722 634.024 73.2474 633.101 75.0017C630.883 79.307 627.572 82.2585 622.805 83.1071C622.634 83.1311 622.376 83.2355 622.23 83.1629C621.141 82.6706 620.661 83.3706 620.085 84.1833C618.661 86.2188 617.436 88.3754 616.585 90.7336C615.786 92.8986 615.272 95.1042 614.965 97.3986C614.835 98.3968 614.62 99.3387 614.714 100.361C614.835 101.529 615.205 102.624 615.686 103.679C615.981 104.308 616.581 104.534 617.247 104.502C618.845 104.44 620.342 104.006 621.811 103.428C627.351 101.268 632.106 97.8348 636.473 93.7491C638.491 91.8349 640.349 89.7756 642.261 87.7646C642.578 87.4349 642.738 87.2015 642.195 86.887C641.232 86.2902 641.243 84.7443 642.167 83.61C643.074 82.54 644.266 81.8891 645.494 81.3509C648.741 79.8969 652.132 79.2723 655.634 79.606C655.858 79.6304 656.113 79.6629 656.328 79.7194C658.247 80.1884 658.819 81.6463 657.672 83.3762C656.734 84.8165 655.471 85.8619 654.08 86.7703C652.366 87.9038 650.58 88.8118 648.727 89.5989C647.131 90.2817 645.768 91.335 644.337 92.2675C635.179 98.2968 626.839 105.47 618.855 113.047C618.324 113.561 617.744 113.891 617.079 114.164C606.874 118.163 596.316 120.246 585.525 120.959C585.424 120.967 585.331 120.943 585.239 120.919C585.208 120.911 585.208 120.911 585.177 120.903C585.186 120.871 585.177 120.903 585.188 121.112ZM540.068 160.728C542.309 161.35 543.874 161.658 545.435 161.86C553.614 162.94 560.922 161.071 566.764 154.378C568.552 152.335 569.75 150.033 570.22 147.369C570.8 143.907 570.133 140.807 567.694 138.308C566.111 136.688 564.14 135.793 561.95 135.356C559.923 134.927 557.891 135.013 555.851 135.132C553.842 135.259 551.824 135.418 549.819 135.029C545.901 134.276 542.23 132.831 538.894 130.614C534.542 127.751 531.694 123.803 530.659 118.472C530.464 117.457 530.208 116.426 529.944 115.428C528.775 111.232 525.38 109.24 521.251 110.29C518.072 111.108 515.603 113.11 513.539 115.701C512.034 117.543 511.134 119.716 510.317 121.946C508.881 125.905 508.574 129.955 509.803 133.926C511.458 139.282 514.313 143.954 518.083 147.903C524.412 154.52 532.202 158.457 540.068 160.728ZM539.728 116.79C539.417 116.846 539.252 116.597 539.045 116.508C538.807 116.411 538.578 116.282 538.34 116.185C537.855 116.024 537.275 115.975 537.07 116.506C536.89 116.94 537.284 117.319 537.682 117.561C537.796 117.626 537.933 117.731 538.048 117.795C541.007 119.191 542.44 121.632 542.544 124.998C542.551 125.344 542.559 125.69 542.567 126.036C542.586 126.214 542.659 126.439 542.883 126.463C543.107 126.488 543.189 126.303 543.279 126.085C543.501 125.49 543.569 124.854 543.559 124.266C543.529 123.88 543.681 123.678 543.964 123.477C544.679 123.011 545.16 122.311 545.388 121.442C546.844 115.904 548.291 110.398 549.715 104.852C549.834 104.401 550.016 104.208 550.437 104.112C551.129 103.984 551.78 103.638 552.257 103.075C552.456 102.818 552.611 102.48 552.393 102.182C552.206 101.892 551.959 102.205 551.74 102.286C550.383 102.687 549.06 102.959 547.736 102.233C546.107 101.29 545.482 99.7834 545.416 97.9073C545.39 96.6271 545.826 95.4682 546.363 94.3012C546.591 93.8103 546.634 93.2709 546.074 93.0208C545.545 92.7787 545.219 93.1407 544.969 93.5913C543.755 95.9572 543.383 98.3723 544.475 100.861C544.6 101.135 544.619 101.312 544.358 101.554C543.727 102.076 543.409 102.784 543.198 103.589C542.335 106.874 541.48 110.126 540.617 113.41C540.321 114.537 540.024 115.663 539.728 116.79ZM562.986 122.893C563.054 122.635 563.13 122.346 563.198 122.088C564.306 117.87 565.415 113.652 566.524 109.434C567.031 107.503 566.034 105.658 564.248 105.189C562.43 104.712 560.624 105.821 560.108 107.785C558.677 113.227 557.256 118.636 555.826 124.077C555.69 124.592 555.538 125.172 555.753 125.607C556.264 126.67 556.111 127.628 555.546 128.65C555.369 128.948 555.093 129.495 555.561 129.721C555.975 129.899 556.128 129.319 556.313 128.989C557.586 126.776 559.34 125.24 561.762 124.671C562.673 124.463 563.561 124.592 564.46 124.553C564.894 124.529 565.416 124.425 565.481 123.926C565.507 123.451 565.096 123.137 564.648 123.088C564.146 122.991 563.589 122.982 562.986 122.893ZM561.618 94.8965C561.508 95.3151 561.482 95.7901 562.011 96.0322C562.518 96.234 562.835 95.9042 563.046 95.4777C563.167 95.2685 563.265 95.019 563.386 94.8097C564.111 93.5544 565.522 92.8232 566.841 93.0661C568.16 93.309 569.058 94.4049 569.248 95.9349C569.301 96.3617 569.292 96.7723 569.344 97.1991C569.41 97.6983 569.642 98.0689 570.178 98.0373C570.651 97.9894 570.884 97.6032 570.902 97.1604C570.946 96.2426 570.849 95.3568 570.573 94.5272C569.896 92.5942 568.211 91.3606 566.32 91.415C564.235 91.4531 562.235 92.9245 561.618 94.8965ZM515.644 151.669C515.591 151.621 515.569 151.58 515.507 151.564C515.437 151.58 515.429 151.612 515.49 151.629C515.543 151.677 515.614 151.661 515.644 151.669ZM568.969 165.661C568.977 165.628 568.986 165.596 568.986 165.596C568.955 165.588 568.893 165.572 568.862 165.564C568.801 165.548 568.792 165.58 568.845 165.628C568.868 165.669 568.938 165.652 568.969 165.661Z" fill="#FFDFA9"/>
<path d="M585.188 121.112C595.016 121.557 604.67 120.407 614.241 117.446C614.254 117.897 613.988 118.034 613.836 118.235C610.846 121.718 607.803 125.153 605.246 128.991C601.985 133.883 599.521 139.122 598.446 144.966C597.85 148.114 597.841 151.278 597.965 154.442C597.98 155.135 597.775 155.666 597.208 156.068C593.569 158.761 589.428 160.359 585.273 161.885C582.173 163.033 578.985 163.883 575.801 164.597C573.668 165.07 571.499 165.43 569.319 165.58C571.255 165.607 573.189 165.391 575.131 165.144C579.208 164.665 583.211 163.719 587.122 162.37C590.494 161.19 593.764 159.776 596.799 157.75C597.64 157.179 598.35 156.608 598.47 155.401C598.524 154.692 599.287 154.548 599.914 154.541C600.705 154.542 601.169 154.904 601.285 155.589C601.485 157.087 600.718 158.125 599.713 159.066C595.894 162.572 591.281 164.46 586.538 165.968C581.366 167.606 576.033 168.099 570.731 168.601C565.46 169.111 560.181 169.275 554.929 168.963C552.724 168.832 550.514 168.597 548.312 168.329C545.407 167.98 542.494 167.663 539.707 166.863C537.075 166.103 534.502 165.118 532.002 163.98C530 163.077 527.973 162.269 525.988 161.301C521.459 159.115 517.21 156.485 513.052 153.639C509.397 151.131 505.751 148.591 502.456 145.593C498.864 142.344 495.904 138.573 493.465 134.32C492.742 133.063 492.285 131.669 491.898 130.26C491.633 129.261 491.587 128.182 492.228 127.249C492.748 126.525 493.339 126.405 494.111 126.848C494.884 127.292 495.065 127.856 494.753 128.669C494.522 129.297 494.655 129.917 494.906 130.464C495.598 132.091 496.534 133.542 497.51 134.968C502.087 141.607 507.937 146.79 514.589 151.048C514.788 151.169 515.017 151.298 515.255 151.395C514.189 150.564 513.154 149.742 512.071 148.976C510.896 148.186 509.942 147.179 508.91 146.219C504.896 142.447 501.169 138.337 498.033 133.728C497.133 132.391 496.36 130.949 495.656 129.491C495.316 128.782 495.406 128.186 495.8 127.567C498.623 123.214 500.609 118.538 501.498 113.402C501.897 111.132 502.011 108.821 502.054 106.527C502.197 100.094 500.824 93.9166 499.591 87.7076C499.577 87.6352 499.554 87.5949 499.627 87.442C506.532 94.6229 514.398 100.404 523.252 104.93C523.27 104.487 522.945 104.471 522.777 104.358C519.027 101.963 515.484 99.2778 512.085 96.4241C507.256 92.3692 502.793 87.9283 498.789 82.9886C498.322 82.3843 498.066 81.7319 497.857 81.0231C495.269 72.3249 492.056 63.8756 488.42 55.6593C487.226 52.9367 485.813 50.2944 484.383 47.7164C483.609 46.2744 482.521 45.0253 481.63 43.6557C480.342 41.6656 479.202 39.6113 478.784 37.1955C478.681 36.5834 478.618 35.9473 478.801 35.3758C479.333 33.7258 480.264 33.3162 482.146 34.0508C483.52 34.5836 484.797 35.3659 485.977 36.2608C488.18 37.9055 490.056 39.9123 491.419 42.3694C492.022 43.4569 492.477 44.6088 491.937 45.9126C491.641 46.661 491.181 47.1598 490.368 47.1187C489.872 47.1262 489.897 47.4081 489.975 47.7382C490.812 51.1932 491.619 54.6401 492.784 57.9746C494.487 62.8958 496.81 67.4633 500.045 71.4441C501.04 72.6689 502.162 73.7892 503.491 74.6199C504.339 75.1522 504.861 75.048 505.671 74.4691C507.34 73.2551 508.383 71.67 509.07 69.682C509.689 67.9515 510.269 66.2452 510.673 64.4582C511.405 61.1739 511.455 57.8487 510.979 54.5229C510.899 53.9512 510.459 53.8702 510.121 53.7813C509.812 53.7005 509.552 53.5634 509.309 53.3618C505.538 50.1696 504.105 45.9733 504.363 40.9816C504.416 39.6532 504.723 38.3572 504.961 37.0772C505.196 35.9342 505.699 34.896 506.454 34.0273C507.799 32.4183 509.582 32.0256 511.475 32.5912C514.561 33.5041 516.322 35.8248 517.684 38.6603C518.948 41.3669 519.209 44.2576 519.19 47.2125C519.168 48.549 518.883 49.8853 518.298 51.1085C517.542 52.7341 516.265 53.7071 514.614 54.0999C514.014 54.2523 513.955 54.4777 514.035 55.0494C514.88 61.9826 517.321 68.2331 520.824 74.074C522.855 77.4979 525.217 80.6646 527.91 83.5739C529.582 85.355 531.519 86.7579 533.834 87.4688C536.78 88.4139 539.628 87.8532 542.393 86.4792C546.787 84.2937 550.27 80.9397 553.513 77.2474C557.359 72.8874 560.679 68.1485 563.296 62.9499C565.04 59.4492 566.391 55.8114 567.319 52.0281C567.542 51.0541 567.353 50.5225 566.701 49.8697C564.503 47.7096 563.975 44.9555 564.577 41.9126C565.154 38.9664 566.503 36.4637 568.723 34.5336C570.769 32.7644 573.073 31.8891 575.689 32.713C578.119 33.4885 579.612 35.3257 580.387 37.7661C581.643 41.8817 581.208 45.7943 578.565 49.3343C577.439 50.8629 575.893 51.7309 574.119 52.0914C573.528 52.2116 573.258 52.485 573.089 53.129C572.671 54.8435 572.201 56.5097 571.875 58.2485C571.143 62.2896 570.897 66.3554 571.069 70.4618C571.364 76.7342 572.359 82.8463 574.287 88.7903C575.229 91.722 576.625 94.4287 578.501 96.8139C581.249 100.392 584.926 101.563 589.247 100.907C592.122 100.491 594.797 99.3345 597.442 98.1698C603.7 95.4064 609.391 91.6683 614.228 86.6732C615.583 85.2737 616.788 83.6968 617.984 82.1521C618.192 81.8625 618.335 81.6936 617.994 81.3631C615.731 79.3238 615.649 76.7552 616.724 74.043C617.799 71.3307 619.47 68.9814 621.642 67.1076C623.601 65.4188 625.794 63.9637 628.479 63.7732C629.681 63.71 630.88 63.7837 632.017 64.2197C634.391 65.0836 635.051 67.4595 634.916 69.3514C634.747 71.3722 634.024 73.2474 633.101 75.0017C630.883 79.307 627.572 82.2585 622.805 83.1071C622.634 83.1311 622.376 83.2355 622.23 83.1629C621.141 82.6706 620.661 83.3706 620.085 84.1833C618.661 86.2188 617.436 88.3754 616.585 90.7336C615.786 92.8986 615.272 95.1042 614.965 97.3986C614.835 98.3968 614.62 99.3387 614.714 100.361C614.835 101.529 615.205 102.624 615.686 103.679C615.981 104.308 616.581 104.534 617.247 104.502C618.845 104.44 620.342 104.006 621.811 103.428C627.351 101.268 632.106 97.8348 636.473 93.7491C638.491 91.8349 640.349 89.7756 642.261 87.7646C642.578 87.4349 642.738 87.2015 642.195 86.887C641.232 86.2902 641.243 84.7443 642.167 83.61C643.074 82.54 644.266 81.8891 645.494 81.3509C648.741 79.8969 652.132 79.2723 655.634 79.606C655.858 79.6304 656.113 79.6629 656.328 79.7194C658.247 80.1884 658.819 81.6463 657.672 83.3762C656.734 84.8165 655.471 85.8619 654.08 86.7703C652.366 87.9038 650.58 88.8118 648.727 89.5989C647.131 90.2817 645.768 91.335 644.337 92.2675C635.179 98.2968 626.839 105.47 618.855 113.047C618.324 113.561 617.744 113.891 617.079 114.164C606.874 118.163 596.316 120.246 585.525 120.959C585.424 120.967 585.331 120.943 585.239 120.919C585.208 120.911 585.208 120.911 585.177 120.903C585.186 120.871 585.177 120.903 585.188 121.112ZM540.068 160.728C542.309 161.35 543.874 161.658 545.435 161.86C553.614 162.94 560.922 161.071 566.764 154.378C568.552 152.335 569.75 150.033 570.22 147.369C570.8 143.907 570.133 140.807 567.694 138.308C566.111 136.688 564.14 135.793 561.95 135.356C559.923 134.927 557.891 135.013 555.851 135.132C553.842 135.259 551.824 135.418 549.819 135.029C545.901 134.276 542.23 132.831 538.894 130.614C534.542 127.751 531.694 123.803 530.659 118.472C530.464 117.457 530.208 116.426 529.944 115.428C528.775 111.232 525.38 109.24 521.251 110.29C518.072 111.108 515.603 113.11 513.539 115.701C512.034 117.543 511.134 119.716 510.317 121.946C508.881 125.905 508.574 129.955 509.803 133.926C511.458 139.282 514.313 143.954 518.083 147.903C524.412 154.52 532.202 158.457 540.068 160.728ZM539.728 116.79C539.417 116.846 539.252 116.597 539.045 116.508C538.807 116.411 538.578 116.282 538.34 116.185C537.855 116.024 537.275 115.975 537.07 116.506C536.89 116.94 537.284 117.319 537.682 117.561C537.796 117.626 537.933 117.731 538.048 117.795C541.007 119.191 542.44 121.632 542.544 124.998C542.551 125.344 542.559 125.69 542.567 126.036C542.586 126.214 542.659 126.439 542.883 126.463C543.107 126.488 543.189 126.303 543.279 126.085C543.501 125.49 543.569 124.854 543.559 124.266C543.529 123.88 543.681 123.678 543.964 123.477C544.679 123.011 545.16 122.311 545.388 121.442C546.844 115.904 548.291 110.398 549.715 104.852C549.834 104.401 550.016 104.208 550.437 104.112C551.129 103.984 551.78 103.638 552.257 103.075C552.456 102.818 552.611 102.48 552.393 102.182C552.206 101.892 551.959 102.205 551.74 102.286C550.383 102.687 549.06 102.959 547.736 102.233C546.107 101.29 545.482 99.7834 545.416 97.9073C545.39 96.6271 545.826 95.4682 546.363 94.3012C546.591 93.8103 546.634 93.2709 546.074 93.0208C545.545 92.7787 545.219 93.1407 544.969 93.5913C543.755 95.9572 543.383 98.3723 544.475 100.861C544.6 101.135 544.619 101.312 544.358 101.554C543.727 102.076 543.409 102.784 543.198 103.589C542.335 106.874 541.48 110.126 540.617 113.41C540.321 114.537 540.024 115.663 539.728 116.79ZM562.986 122.893C563.054 122.635 563.13 122.346 563.198 122.088C564.306 117.87 565.415 113.652 566.524 109.434C567.031 107.503 566.034 105.658 564.248 105.189C562.43 104.712 560.624 105.821 560.108 107.785C558.677 113.227 557.256 118.636 555.826 124.077C555.69 124.592 555.538 125.172 555.753 125.607C556.264 126.67 556.111 127.628 555.546 128.65C555.369 128.948 555.093 129.495 555.561 129.721C555.975 129.899 556.128 129.319 556.313 128.989C557.586 126.776 559.34 125.24 561.762 124.671C562.673 124.463 563.561 124.592 564.46 124.553C564.894 124.529 565.416 124.425 565.481 123.926C565.507 123.451 565.096 123.137 564.648 123.088C564.146 122.991 563.589 122.982 562.986 122.893ZM561.618 94.8965C561.508 95.3151 561.482 95.7901 562.011 96.0322C562.518 96.234 562.835 95.9042 563.046 95.4777C563.167 95.2685 563.265 95.019 563.386 94.8097C564.111 93.5544 565.522 92.8232 566.841 93.0661C568.16 93.309 569.058 94.4049 569.248 95.9349C569.301 96.3617 569.292 96.7723 569.344 97.1991C569.41 97.6983 569.642 98.0689 570.178 98.0373C570.651 97.9894 570.884 97.6032 570.902 97.1604C570.946 96.2426 570.849 95.3568 570.573 94.5272C569.896 92.5942 568.211 91.3606 566.32 91.415C564.235 91.4531 562.235 92.9245 561.618 94.8965ZM515.644 151.669C515.591 151.621 515.569 151.58 515.507 151.564C515.437 151.58 515.429 151.612 515.49 151.629C515.543 151.677 515.614 151.661 515.644 151.669ZM568.969 165.661C568.977 165.628 568.986 165.596 568.986 165.596C568.955 165.588 568.893 165.572 568.862 165.564C568.801 165.548 568.792 165.58 568.845 165.628C568.868 165.669 568.938 165.652 568.969 165.661Z" stroke="#FFA408" stroke-width="4" mask="url(#path-4-outside-1_3875_2053)"/>
<path d="M534.476 86.5377C531.527 85.7296 529.218 83.9881 527.424 81.4178C524.651 77.5583 522.263 73.4899 520.245 69.14C520.008 68.6647 520.031 68.3266 520.466 67.9245C522.422 65.9941 524.767 64.7163 527.192 63.6318C532.598 61.23 538.256 60.3742 544.031 60.203C548.341 60.0947 552.605 60.2842 556.859 60.8843C558.604 61.1357 560.35 61.3871 562.117 61.6788C562.618 61.7759 562.755 61.8807 562.449 62.4198C559.655 67.5377 556.366 72.2848 552.497 76.6045C549.693 79.7578 546.693 82.6533 542.977 84.6382C541.252 85.5624 539.463 86.2288 537.647 86.7503C536.57 87.0874 535.492 86.8045 534.476 86.5377Z" fill="#FFDFA9" stroke="#FFA408" stroke-width="2"/>
<path d="M583.743 99.4994C582.603 99.2002 580.872 97.6446 579.522 96.0168C576.701 92.5921 575.133 88.5325 574.068 84.1917C572.563 78.0146 571.843 71.7337 571.946 65.3249C571.958 65.1558 572.009 64.9626 571.95 64.8096C571.867 64.3747 572.038 64.3507 572.385 64.4074C573.15 64.5048 573.808 64.8839 574.499 65.1342C581.628 67.8307 588.442 71.0985 594.55 75.7988C598.654 78.9752 602.198 82.6584 604.641 87.3952C605.102 88.2732 605.445 89.2237 605.787 90.1741C606.058 90.899 605.749 91.1966 605.261 91.5504C602.907 93.2388 600.456 94.7983 597.915 96.1966C595.671 97.4665 593.369 98.5833 590.964 99.4665C588.816 100.245 585.135 100.084 583.743 99.4994Z" fill="#FFDFA9" stroke="#FFA408" stroke-width="2"/>
<path d="M540.071 160.73C532.213 158.427 524.414 154.522 518.085 147.905C514.293 143.916 511.468 139.251 509.805 133.928C508.577 129.957 508.883 125.907 510.319 121.947C511.136 119.718 512.028 117.577 513.541 115.703C515.636 113.12 518.074 111.11 521.253 110.292C525.382 109.241 528.768 111.266 529.946 115.43C530.241 116.436 530.467 117.459 530.661 118.474C531.705 123.773 534.545 127.753 538.896 130.616C542.263 132.841 545.903 134.278 549.821 135.031C551.827 135.42 553.853 135.229 555.853 135.134C557.893 135.015 559.955 134.937 561.952 135.358C564.143 135.795 566.113 136.69 567.696 138.31C570.135 140.809 570.811 143.877 570.222 147.371C569.774 150.076 568.585 152.345 566.766 154.38C560.893 161.065 553.625 162.909 545.437 161.862C543.877 161.659 542.311 161.352 540.071 160.73ZM532.744 136.986C533.22 137.18 533.595 137.003 533.943 136.682C535.341 135.499 536.556 134.132 537.643 132.627C537.963 132.161 537.953 131.951 537.48 131.621C534.673 129.645 532.24 127.252 530.794 123.981C530.61 123.554 530.422 123.643 530.147 123.811C528.375 124.792 526.714 125.974 525.271 127.454C524.511 128.218 524.428 128.781 524.942 129.708C526.065 131.827 527.622 133.543 529.449 134.986C530.423 135.792 531.531 136.462 532.744 136.986ZM548.459 144.724C551.134 145.322 553.925 145.229 556.7 144.442C557.448 144.226 557.852 143.815 557.91 142.97C558.062 141.014 557.575 139.234 556.964 137.422C556.752 136.85 556.492 136.713 555.926 136.736C553.233 136.959 550.543 137.045 547.903 136.317C547.502 136.212 547.465 136.478 547.397 136.736C546.843 138.345 546.481 139.971 546.335 141.654C546.11 144.142 545.673 143.924 548.459 144.724Z" fill="#FFA408"/>
<path d="M539.721 116.789C540.017 115.662 540.313 114.535 540.61 113.408C541.473 110.124 542.327 106.872 543.19 103.588C543.402 102.783 543.72 102.075 544.351 101.552C544.612 101.311 544.584 101.166 544.467 100.86C543.407 98.3787 543.778 95.9636 544.962 93.5896C545.181 93.1309 545.538 92.777 546.067 93.0191C546.658 93.2773 546.592 93.7765 546.356 94.2996C545.827 95.4343 545.382 96.6255 545.408 97.9057C545.444 99.7737 546.091 101.32 547.729 102.232C549.014 102.982 550.376 102.685 551.733 102.284C551.943 102.236 552.19 101.922 552.386 102.18C552.604 102.478 552.449 102.816 552.25 103.074C551.772 103.637 551.152 103.99 550.429 104.11C549.978 104.199 549.826 104.4 549.708 104.85C548.283 110.396 546.836 115.902 545.381 121.44C545.152 122.31 544.681 122.977 543.957 123.476C543.673 123.677 543.53 123.846 543.552 124.264C543.584 124.892 543.494 125.488 543.271 126.084C543.19 126.269 543.131 126.494 542.876 126.462C542.652 126.437 542.579 126.212 542.56 126.035C542.521 125.68 542.544 125.342 542.536 124.996C542.433 121.63 541 119.189 538.041 117.793C537.926 117.729 537.781 117.656 537.674 117.56C537.308 117.326 536.883 116.939 537.063 116.504C537.299 115.981 537.879 116.03 538.332 116.183C538.579 116.248 538.8 116.409 539.038 116.506C539.284 116.571 539.418 116.813 539.721 116.789Z" fill="#FFA408"/>
<path d="M562.98 122.89C563.56 122.938 564.109 122.979 564.649 123.052C565.12 123.141 565.54 123.424 565.483 123.89C565.44 124.43 564.927 124.502 564.462 124.517C563.562 124.557 562.644 124.419 561.763 124.635C559.311 125.197 557.557 126.733 556.315 128.954C556.129 129.284 555.977 129.863 555.563 129.686C555.087 129.492 555.401 128.92 555.548 128.615C556.104 127.625 556.288 126.675 555.755 125.571C555.54 125.136 555.692 124.557 555.827 124.042C557.258 118.6 558.679 113.191 560.109 107.75C560.625 105.786 562.432 104.677 564.249 105.153C566.036 105.622 567.033 107.467 566.525 109.399C565.417 113.617 564.308 117.835 563.2 122.052C563.115 122.374 563.047 122.632 562.98 122.89Z" fill="#FFA408"/>
<path d="M561.616 94.8999C562.233 92.9279 564.233 91.4565 566.265 91.37C568.156 91.3156 569.871 92.5572 570.518 94.4822C570.816 95.3521 570.882 96.2298 570.847 97.1154C570.821 97.5904 570.627 97.9525 570.122 97.9923C569.587 98.0239 569.347 97.6855 569.289 97.1541C569.236 96.7273 569.246 96.3167 569.193 95.8899C569.011 94.3277 568.105 93.264 566.786 93.0211C565.497 92.7863 564.064 93.4772 563.331 94.7647C563.21 94.974 563.112 95.2234 562.991 95.4327C562.78 95.8592 562.463 96.189 561.956 95.9872C561.471 95.8256 561.506 95.3184 561.616 94.8999Z" fill="#FFA408"/>
<path d="M515.655 151.674C515.623 151.666 515.552 151.682 515.52 151.674C515.457 151.658 515.475 151.592 515.538 151.608C515.578 151.583 515.601 151.625 515.655 151.674Z" fill="#FFA408"/>
<path d="M568.958 165.664C568.927 165.656 568.855 165.672 568.833 165.631C568.778 165.582 568.787 165.549 568.85 165.565C568.881 165.573 568.944 165.59 568.976 165.598C568.967 165.631 568.958 165.664 568.958 165.664Z" fill="#FFA408"/>
<path d="M532.728 136.986C531.546 136.47 530.429 135.833 529.394 135.01C527.567 133.567 526.009 131.851 524.887 129.732C524.373 128.806 524.486 128.25 525.216 127.478C526.659 125.998 528.319 124.816 530.092 123.836C530.397 123.675 530.555 123.579 530.739 124.005C532.184 127.276 534.626 129.637 537.424 131.645C537.897 131.976 537.908 132.185 537.588 132.652C536.532 134.164 535.285 135.524 533.888 136.706C533.548 136.995 533.173 137.172 532.728 136.986Z" fill="#FDDFAC"/>
<path d="M548.453 144.722C545.666 143.922 546.103 144.14 546.32 141.685C546.466 140.002 546.828 138.376 547.382 136.766C547.481 136.517 547.487 136.243 547.888 136.348C550.537 137.043 553.227 136.958 555.911 136.767C556.486 136.711 556.768 136.889 556.949 137.453C557.568 139.233 558.047 141.045 557.895 143.001C557.837 143.846 557.433 144.257 556.685 144.473C553.918 145.227 551.158 145.329 548.453 144.722Z" fill="#FDDFAC"/>
</g>
<defs>
<clipPath id="clip0_3875_2053">
<rect width="662" height="452" fill="white" transform="matrix(-1 0 0 1 662 0)"/>
</clipPath>
</defs>
</svg>
