<svg width="190" height="253" viewBox="0 0 190 253" fill="none" xmlns="http://www.w3.org/2000/svg">
<g clip-path="url(#clip0_3943_3722)">
<path fill-rule="evenodd" clip-rule="evenodd" d="M196.915 31.8566L196.915 30.7138L213.901 30.7138L213.901 13L214.997 13L214.997 31.8566L196.915 31.8566ZM168.417 54.1418L168.417 52.9989L185.403 52.9989L185.403 35.2852L186.499 35.2852L186.499 54.1418L168.417 54.1418ZM138.831 75.8566L138.831 74.7138L155.817 74.7138L155.817 57L156.913 57L156.913 75.8566L138.831 75.8566ZM138.282 98.714L138.282 96.4284L154.72 96.4284L154.72 79.286L156.912 79.286L156.912 98.714L138.282 98.714ZM137.737 119.286L137.737 122.714L156.915 122.714L156.915 102.715L153.627 102.715L153.627 119.286L137.737 119.286ZM137.189 147.857L137.189 143.285L152.531 143.285L152.531 127.286L156.914 127.286L156.914 147.857L137.189 147.857ZM136.091 166.14L136.091 172.997L156.912 172.997L156.912 151.284L150.337 151.284L150.337 166.14L136.091 166.14ZM134.997 199.277L134.997 190.134L148.148 190.134L148.148 176.42L156.914 176.42L156.914 199.277L134.997 199.277ZM148.146 202.708L156.913 202.708L156.913 225.565L134.996 225.565L134.996 216.422L148.146 216.422L148.146 202.708ZM167.872 73.571L167.872 75.8566L186.502 75.8566L186.502 56.4286L184.31 56.4286L184.31 73.571L167.872 73.571ZM167.329 98.714L167.329 95.2856L183.219 95.2856L183.219 78.7146L186.507 78.7146L186.507 98.714L167.329 98.714ZM166.778 118.147L166.778 122.718L186.504 122.718L186.504 102.147L182.12 102.147L182.12 118.147L166.778 118.147ZM165.679 147.855L165.679 140.998L179.925 140.998L179.925 126.141L186.5 126.141L186.5 147.855L165.679 147.855ZM165.134 164.997L165.134 172.997L186.503 172.997L186.503 150.712L178.832 150.712L178.832 164.997L165.134 164.997ZM164.587 199.282L164.587 190.14L177.737 190.14L177.737 176.426L186.504 176.426L186.504 199.282L164.587 199.282ZM163.489 214.141L163.489 225.569L186.502 225.57L186.502 201.57L175.544 201.57L175.544 214.141L163.489 214.141ZM133.9 252.993L133.9 241.565L145.954 241.565L145.954 228.994L156.913 228.994L156.913 252.993L133.9 252.993ZM175.543 228.995L186.501 228.995L186.501 252.995L163.488 252.995L163.488 241.566L175.543 241.566L175.543 228.995ZM196.366 51.8542L196.366 54.1398L214.996 54.1398L214.996 34.7118L212.804 34.7118L212.804 51.8542L196.366 51.8542ZM195.816 75.8566L195.816 72.4281L211.706 72.4281L211.706 55.8572L214.993 55.8572L214.993 75.8566L195.816 75.8566ZM195.275 94.1427L195.275 98.714L215 98.714L215 78.1432L210.617 78.1432L210.617 94.1427L195.275 94.1427ZM194.173 122.714L194.173 115.857L208.419 115.857L208.419 101L214.994 101L214.994 122.714L194.173 122.714ZM193.626 139.857L193.626 147.857L214.995 147.857L214.995 125.572L207.324 125.572L207.324 139.857L193.626 139.857ZM193.077 172.997L193.077 163.855L206.228 163.855L206.228 150.141L214.994 150.141L214.994 172.997L193.077 172.997ZM191.984 187.854L191.984 199.282L214.997 199.282L214.997 175.283L204.038 175.283L204.038 187.854L191.984 187.854ZM214.993 201.001L202.939 201.001L202.939 213.001L191.432 213.001L191.432 225.572L214.993 225.572L214.993 201.001ZM191.435 240.43L191.435 253.001L214.996 253.001L214.996 228.43L202.941 228.43L202.941 240.43L191.435 240.43ZM35.2746 173.571L34.1787 173.571L34.1787 191.285L17.193 191.285L17.193 192.428L35.2746 192.428L35.2746 173.571ZM54.9969 172.997L57.1886 172.997L57.1886 192.425L38.5591 192.425L38.5591 190.14L54.9969 190.14L54.9969 172.997ZM80.2043 172.431L76.9167 172.431L76.9167 189.002L61.0268 189.002L61.0268 192.43L80.2043 192.43L80.2043 172.431ZM99.9263 171.855L104.31 171.855L104.31 192.426L84.5843 192.426L84.5843 187.854L99.9263 187.854L99.9263 171.855ZM128.423 170.714L121.848 170.714L121.848 185.571L107.602 185.571L107.602 192.428L128.423 192.428L128.423 170.714ZM13.3526 204.423L14.4484 204.423L14.4484 223.28L-3.63321 223.28L-3.63321 222.137L13.3526 222.137L13.3526 204.423ZM33.0829 203.853L33.0829 220.995L16.645 220.995L16.645 223.281L35.2746 223.281L35.2746 203.853L33.0829 203.853ZM53.9011 203.284L57.1886 203.284L57.1886 223.284L38.0112 223.284L38.0112 219.855L53.9011 219.855L53.9011 203.284ZM80.2043 202.712L75.8208 202.712L75.8208 218.712L60.4789 218.712L60.4789 223.283L80.2043 223.283L80.2043 202.712ZM97.7346 201.573L104.31 201.573L104.31 223.287L83.4885 223.287L83.4885 216.43L97.7346 216.43L97.7346 201.573ZM128.419 201.001L120.748 201.001L120.748 215.286L107.05 215.286L107.05 223.286L128.419 223.286L128.419 201.001ZM-8.01659 234.142L-6.92073 234.142L-6.92074 252.998L-25.0024 252.998L-25.0024 251.856L-8.01659 251.856L-8.01659 234.142ZM14.4504 233.571L12.2586 233.571L12.2586 250.714L-4.17919 250.714L-4.17919 252.999L14.4504 252.999L14.4504 233.571ZM31.987 232.993L35.2746 232.993L35.2746 252.993L16.0971 252.993L16.0971 249.564L31.987 249.564L31.987 232.993ZM57.1867 232.429L52.8033 232.429L52.8033 248.428L37.4613 248.428L37.4613 253L57.1867 253L57.1867 232.429ZM73.6291 246.139L73.6291 231.282L80.2043 231.282L80.2043 252.996L59.383 252.996L59.383 246.139L73.6291 246.139ZM104.314 230.712L96.6427 230.712L96.6427 244.997L82.9445 244.997L82.9445 252.997L104.314 252.997L104.314 230.712ZM119.652 230.144L128.419 230.144L128.419 253L106.502 253L106.502 243.858L119.652 243.858L119.652 230.144Z" fill="#FFB433"/>
</g>
<defs>
<clipPath id="clip0_3943_3722">
<rect width="190" height="253" fill="white"/>
</clipPath>
</defs>
</svg>
