<svg width="60" height="40" viewBox="0 0 60 40" fill="none" xmlns="http://www.w3.org/2000/svg">
<path fill-rule="evenodd" clip-rule="evenodd" d="M14.0355 33.9678C20.0772 40.9476 37.9309 42.2252 45.706 35.124C46.4375 34.5754 47.0876 33.9437 47.5726 33.1574C47.7424 32.8801 47.8846 32.5874 47.9349 32.2719C48.0637 31.865 47.969 31.5714 47.7694 31.3664C47.5585 31.0638 47.1817 30.8841 46.7975 30.968C46.7307 30.9615 46.6662 30.9584 46.6054 30.9583C46.5767 30.9324 46.5592 30.8898 46.5379 30.8359C46.3608 30.3553 46.277 29.8565 46.2303 29.3396C46.1558 28.4872 46.2583 27.6529 46.4447 26.8186C46.7523 25.4221 47.3209 24.1072 47.9174 22.8104C48.5979 21.3413 49.4274 19.9358 50.2756 18.5483C50.4319 18.29 50.5897 18.0321 50.7499 17.7755C52.1917 15.7713 53.7257 13.9388 55 12.4992C57.0002 10.9992 59 9.39198 58 7.99923C57.3117 7.04057 55.4364 7.46898 54 8.49923C52.5753 9.52109 52.0225 10.799 52.6844 11.7604C50.6876 14.9122 48.0563 16.7777 47.4998 16.4994C46.5542 16.0266 46.9998 12.9992 47.6838 12.156C48.4617 11.8106 49.217 11.1538 49.775 10.2592C50.9215 8.42073 50.8002 6.27436 49.504 5.46509C48.2077 4.65582 46.6464 5.48418 45.4998 7.32261C44.4445 9.01476 44.4431 10.8006 45.4631 11.7278C45.1811 12.2968 44.8532 12.8452 44.4741 13.3573C44.1301 13.757 43.8122 14.0019 43.6842 13.8545C42.9451 13.0041 42.1363 12.3049 41.2592 11.7269C41.0971 11.1012 41.0546 10.4545 41.02 9.81546C40.9734 8.91769 41.0666 8.02899 41.253 7.14936C41.2903 6.98613 41.3462 6.91358 41.5047 6.85917C41.7656 6.76849 41.9987 6.62339 42.1851 6.41482C42.7723 5.77097 42.9308 5.00016 42.8562 4.184C42.8282 3.79407 42.6325 3.44947 42.3249 3.19555C41.7843 2.7512 41.1784 2.74214 40.5539 3.02325C39.7896 3.37692 39.3981 4.02077 39.1278 4.76438C39.0346 5.01829 39.0253 5.27221 39.0626 5.54426C39.1185 5.89793 39.3143 6.16091 39.5473 6.40575C39.7151 6.58712 39.7337 6.75035 39.6032 6.94986C39.3329 7.35793 39.0346 7.75694 38.6898 8.11967C38.0575 8.77576 37.2881 9.2761 36.5125 9.75484C35.0489 9.3973 33.4667 9.16994 31.7694 9.0002C31.7192 8.74963 31.6792 8.52584 31.6476 8.32381C31.6223 8.01978 31.6179 7.71823 31.6291 7.41561C32.6983 6.83888 33.4243 5.46109 33.3717 3.88014C33.3034 1.82597 32.1055 0.44305 30.5 0.499726C28.8945 0.556402 27.4893 2.03122 27.5577 4.08538C27.6052 5.51391 28.2759 6.73212 29.2201 7.32261C29.2104 7.7295 29.1508 8.24211 28.9993 8.99943C27.3766 9.1617 25.8593 9.37662 24.4502 9.70759C24.4272 9.69395 24.4041 9.68031 24.3811 9.66665C24.1937 9.55562 24.0051 9.44387 23.823 9.32577C22.9002 8.72726 22.0986 8.00179 21.5114 7.08588C21.2362 6.66399 21.2371 6.66311 21.4806 6.41432C21.5093 6.38504 21.5413 6.35232 21.5766 6.31507C21.9588 5.89793 22.08 5.43544 21.9402 4.89134C21.8469 4.55581 21.6792 4.26562 21.5021 3.97543C21.1758 3.4676 20.7378 3.0958 20.1319 2.91443C19.2278 2.66052 18.3609 3.15021 18.1652 4.04798C18.0906 4.36537 18.1093 4.68276 18.1652 5.00016C18.3143 5.87072 18.6778 6.57805 19.582 6.90451C19.6752 6.94079 19.7125 6.98613 19.7311 7.07681C19.9268 7.99272 20.0387 8.90862 19.9828 9.84266C19.9771 9.92623 19.9719 10.0099 19.9666 10.0937C19.9363 10.5791 19.9057 11.0668 19.7942 11.5442C18.8067 12.1559 17.9028 12.912 17.0845 13.8537L17.0307 13.8001C16.6023 13.3726 15.889 12.3901 15.4998 11.4992C16.5559 10.5816 16.7549 9.04019 15.6873 7.32824C14.5407 5.48982 12.5605 4.65552 11.2643 5.46479C9.96804 6.27405 9.84671 8.42043 10.9933 10.2589C11.5514 11.1538 12.7211 11.8107 13.4993 12.156C14.0166 13.1707 14.4447 16.0267 13.4993 16.4994C12.9428 16.7777 9.99675 14.6511 7.99997 11.4992C8.66119 10.5378 8.42439 9.52089 6.99997 8.49923C5.56358 7.46898 3.74155 7.20046 3.05323 8.15913C2.49983 8.92967 3.06358 10.469 4.49997 11.4992C4.75487 11.6821 5.73429 12.3779 5.99983 12.4992C7.50543 14.2002 9.34153 16.4495 10.9514 18.8823C12.0895 20.7851 13.1607 22.7272 13.9522 24.8055C14.3343 25.8211 14.6419 26.864 14.7631 27.9431C14.8283 28.587 14.8283 29.2308 14.7165 29.8747C14.6606 30.2102 14.5953 30.5639 14.4462 30.8813C14.4431 30.8883 14.4402 30.8954 14.4374 30.9023C14.4264 30.9292 14.4162 30.9543 14.3963 30.9701C14.2537 30.9367 14.0849 30.9239 13.9148 30.9535C13.3266 31.0056 13.0012 31.5392 13.048 32.1236C13.076 32.4954 13.2345 32.84 13.4302 33.1574C13.6108 33.4472 13.814 33.716 14.0355 33.9678Z" fill="#563B00"/>
<path d="M39.8642 23.9534C42.6791 23.3911 45.3262 22.4208 47.8149 20.9789C47.8522 21.0968 47.7869 21.1512 47.7589 21.2147C47.1717 22.3392 46.5659 23.4546 46.1278 24.6426C45.5685 26.157 45.261 27.7077 45.3914 29.3218C45.4567 30.1924 45.6897 31.0267 45.96 31.8519C46.0159 32.0333 45.9973 32.1874 45.8668 32.3325C45.0373 33.2938 43.984 34.0011 42.9214 34.6903C42.1291 35.2072 41.2903 35.6516 40.4421 36.0596C39.8735 36.3317 39.2863 36.5765 38.6804 36.767C39.2303 36.64 39.7616 36.4496 40.2929 36.2501C41.4114 35.842 42.474 35.316 43.4807 34.6903C44.3475 34.1462 45.1677 33.5477 45.8761 32.8041C46.0719 32.5955 46.2303 32.396 46.1744 32.0696C46.1371 31.8791 46.3422 31.7884 46.5193 31.7431C46.743 31.6887 46.9014 31.7522 46.9853 31.9245C47.1531 32.3053 47.0133 32.6318 46.7989 32.9492C45.9787 34.1371 44.8135 34.9533 43.5832 35.6788C42.241 36.4677 40.7683 36.9665 39.3049 37.4652C37.8509 37.964 36.3688 38.3721 34.8589 38.6532C34.225 38.7711 33.5819 38.8618 32.9388 38.9434C32.0906 39.0522 31.2424 39.1701 30.3942 39.152C29.5926 39.1338 28.791 39.0522 27.9987 38.9252C27.3649 38.8255 26.7311 38.7529 26.0972 38.6351C24.6525 38.3721 23.2544 37.9731 21.8656 37.5106C20.6445 37.1025 19.4235 36.6854 18.2677 36.1231C17.0094 35.5155 15.8909 34.7266 14.8842 33.7744C14.586 33.4933 14.3529 33.1578 14.1386 32.8132C13.9894 32.5683 13.8962 32.2872 14.0081 31.997C14.1013 31.7703 14.2597 31.6978 14.5114 31.7612C14.7631 31.8247 14.8563 31.9607 14.8283 32.1965C14.8097 32.3779 14.8936 32.532 15.0054 32.659C15.3223 33.0399 15.6952 33.3573 16.0773 33.6656C17.8669 35.0984 19.9082 36.0596 22.1079 36.7216C22.1732 36.7398 22.2477 36.7579 22.3223 36.767C21.9588 36.6219 21.6046 36.4768 21.2411 36.3498C20.8496 36.2229 20.5047 36.0234 20.1412 35.842C18.7244 35.1256 17.3636 34.3004 16.1332 33.3029C15.779 33.0127 15.4528 32.6862 15.1452 32.3507C14.9961 32.1874 14.9774 32.0242 15.0427 31.8338C15.5181 30.4917 15.7324 29.1223 15.6019 27.7077C15.546 27.082 15.4062 26.4653 15.2477 25.8577C14.8097 24.1529 13.9615 22.6203 13.1506 21.0696C13.1412 21.0515 13.1319 21.0424 13.1412 20.9971C15.6299 22.4118 18.2864 23.3911 21.1292 23.9715C21.1013 23.8536 21.008 23.8718 20.9521 23.8536C19.7124 23.4818 18.5101 23.0193 17.3356 22.5024C15.6672 21.7679 14.0733 20.9064 12.5727 19.8817C12.3956 19.7547 12.2744 19.6006 12.1625 19.4283C10.7831 17.3153 9.24511 15.3112 7.60464 13.3978C7.06403 12.763 6.46749 12.1645 5.87095 11.5841C5.54472 11.2577 5.14393 11.0037 4.78973 10.7045C4.27709 10.2692 3.80172 9.80673 3.50345 9.19915C3.42889 9.04498 3.36364 8.88175 3.37296 8.71852C3.40092 8.24697 3.63395 8.07467 4.22116 8.13815C4.64992 8.18349 5.06936 8.30138 5.47016 8.45554C6.21583 8.73666 6.89625 9.13567 7.46482 9.68884C7.71649 9.93368 7.93087 10.2057 7.87494 10.5866C7.84698 10.8042 7.75377 10.9675 7.52075 11.0128C7.38094 11.0491 7.4089 11.1216 7.4555 11.2033C7.94951 12.0557 8.43419 12.9081 9.01209 13.7061C9.86029 14.885 10.8576 15.9279 12.0693 16.7531C12.4422 17.007 12.843 17.2246 13.281 17.3516C13.5607 17.4332 13.7005 17.3697 13.8869 17.1612C14.2691 16.7259 14.4462 16.2362 14.4928 15.6649C14.5394 15.1661 14.5766 14.6764 14.558 14.1777C14.5207 13.2618 14.2877 12.3821 13.9055 11.5388C13.8403 11.3937 13.7098 11.4028 13.6073 11.4028C13.5141 11.4028 13.4302 11.3846 13.3463 11.3483C12.0414 10.768 11.3237 9.76138 11.0254 8.42833C10.9415 8.07467 10.9322 7.71193 10.9042 7.35827C10.8856 7.04087 10.9508 6.73255 11.1 6.45143C11.3609 5.93453 11.8363 5.70783 12.4142 5.72596C13.3556 5.75317 14.0267 6.24286 14.6233 6.89578C15.1825 7.5215 15.4715 8.2651 15.6858 9.04498C15.779 9.39865 15.7977 9.77045 15.7231 10.1332C15.6299 10.6138 15.341 10.9584 14.9029 11.176C14.7444 11.2577 14.7444 11.3211 14.8097 11.4662C15.5647 13.2346 16.7204 14.7127 18.1465 16.0095C18.9761 16.7712 19.8802 17.4423 20.8589 18.0227C21.4648 18.3763 22.1172 18.6121 22.8256 18.6393C23.7297 18.6847 24.4941 18.3401 25.1745 17.7869C26.2557 16.9073 26.992 15.7828 27.6352 14.5858C28.3995 13.1711 28.9867 11.6929 29.3409 10.1423C29.5739 9.09939 29.6858 8.04746 29.6671 6.98646C29.6578 6.71441 29.5646 6.58746 29.3316 6.4605C28.5486 6.04335 28.1944 5.35416 28.1385 4.5108C28.0826 3.69465 28.2783 2.94197 28.763 2.27998C29.2104 1.6724 29.7976 1.28246 30.5992 1.31874C31.3449 1.35501 31.9041 1.73588 32.3049 2.32533C32.9667 3.32285 33.1345 4.38384 32.6498 5.49925C32.4448 5.97988 32.0719 6.31541 31.5966 6.53305C31.4381 6.60559 31.3822 6.69628 31.3822 6.87764C31.3915 7.35827 31.3822 7.82982 31.4195 8.31045C31.5127 9.42585 31.7457 10.5141 32.0999 11.5841C32.6498 13.2164 33.3862 14.7581 34.3742 16.1909C34.8589 16.8982 35.4554 17.5148 36.1638 18.0136C37.2077 18.7663 38.3355 18.8207 39.51 18.3491C40.2929 18.0408 40.964 17.5511 41.6258 17.0614C43.1917 15.9007 44.5246 14.5223 45.5219 12.8718C45.8016 12.4093 46.0253 11.9106 46.249 11.4209C46.2863 11.3302 46.3142 11.2758 46.193 11.2123C45.4008 10.8315 45.1864 10.1604 45.2889 9.37144C45.3914 8.5825 45.6897 7.84796 46.1651 7.20411C46.5938 6.62373 47.1065 6.0887 47.8522 5.85292C48.1877 5.75317 48.5326 5.68969 48.8868 5.72596C49.6231 5.78944 49.9866 6.36982 50.0892 6.87764C50.1917 7.42175 50.1264 7.96585 49.996 8.49181C49.6884 9.77952 48.9707 10.7861 47.6844 11.3393C47.6378 11.3574 47.5725 11.4028 47.5259 11.3937C47.1811 11.3393 47.0972 11.5569 46.9946 11.8108C46.743 12.4456 46.5566 13.0985 46.4913 13.7787C46.4261 14.4044 46.4447 15.021 46.5286 15.6468C46.5659 15.9188 46.5752 16.1818 46.6777 16.4448C46.7989 16.744 46.9853 17.007 47.1997 17.2519C47.3302 17.3969 47.5166 17.4151 47.703 17.3607C48.1504 17.2337 48.5419 17.0161 48.9147 16.7622C50.3222 15.81 51.4127 14.5767 52.3448 13.1983C52.7736 12.5544 53.1464 11.8834 53.5379 11.2214C53.6031 11.1126 53.6311 11.04 53.454 10.9947C53.1371 10.904 53.0252 10.4959 53.2023 10.1332C53.3794 9.78859 53.6684 9.53467 53.976 9.30797C54.7869 8.70039 55.7003 8.30138 56.7163 8.14722C56.7816 8.13815 56.8561 8.12908 56.9214 8.12908C57.4993 8.12001 57.7696 8.46461 57.5738 8.99964C57.4154 9.44399 57.1357 9.80673 56.8095 10.1423C56.4087 10.5594 55.9706 10.9221 55.5046 11.2577C55.1038 11.5479 54.7962 11.9197 54.4607 12.2643C52.3169 14.486 50.49 16.9526 48.7936 19.5008C48.6817 19.6731 48.5419 19.8001 48.3741 19.918C45.7829 21.6772 42.9494 22.9559 39.9481 23.8899C39.9201 23.899 39.8921 23.899 39.8642 23.899C39.8549 23.899 39.8548 23.899 39.8455 23.899C39.8455 23.8899 39.8455 23.899 39.8642 23.9534ZM30.04 37.5106C30.7204 37.5196 31.1864 37.4924 31.6432 37.438C34.0386 37.1569 35.968 36.1594 37.1238 33.9921C37.478 33.3301 37.6458 32.6409 37.5806 31.9063C37.4873 30.9541 37.0679 30.1833 36.1917 29.6936C35.6232 29.3763 34.9987 29.2765 34.3462 29.3128C33.7404 29.34 33.1718 29.5032 32.6032 29.6755C32.044 29.8478 31.4847 30.0292 30.8882 30.0655C29.7231 30.138 28.5766 30.011 27.4674 29.6574C26.0227 29.204 24.9228 28.3606 24.2331 27.0275C24.1026 26.7736 23.9534 26.5197 23.8043 26.2749C23.1612 25.2502 22.052 24.96 20.9614 25.5222C20.1226 25.9575 19.5726 26.6557 19.1812 27.481C18.8922 28.0704 18.799 28.7052 18.7338 29.3491C18.6219 30.4917 18.8363 31.5799 19.4794 32.5411C20.3463 33.8379 21.5021 34.8717 22.8629 35.6516C25.1465 36.9574 27.6445 37.4562 30.04 37.5106ZM26.6751 25.9575C26.5913 25.9938 26.526 25.9393 26.4608 25.9303C26.3862 25.9212 26.3116 25.9031 26.2371 25.894C26.0879 25.8849 25.9201 25.9121 25.9015 26.0663C25.8829 26.1933 26.0227 26.2658 26.1532 26.3021C26.1905 26.3111 26.2371 26.3293 26.2743 26.3384C27.2157 26.5016 27.803 27.0457 28.0826 27.9253C28.1106 28.016 28.1385 28.1067 28.1665 28.1974C28.1851 28.2427 28.2224 28.2971 28.2876 28.2881C28.3529 28.279 28.3622 28.2246 28.3715 28.1611C28.3902 27.9888 28.3622 27.8165 28.3156 27.6623C28.2783 27.5626 28.3063 27.4991 28.3715 27.4266C28.5393 27.2543 28.6232 27.0366 28.6232 26.7918C28.6232 25.232 28.6232 23.6813 28.6139 22.1216C28.6139 21.9946 28.6512 21.9311 28.763 21.8767C28.9494 21.7951 29.1079 21.6591 29.2011 21.4777C29.2384 21.3961 29.257 21.2963 29.1731 21.2329C29.0986 21.1694 29.052 21.2691 28.996 21.3054C28.6418 21.5049 28.2876 21.6681 27.8589 21.5684C27.3276 21.4324 27.0387 21.0787 26.8802 20.589C26.7777 20.2535 26.815 19.9179 26.8802 19.5734C26.9082 19.4283 26.8802 19.2832 26.7031 19.256C26.5353 19.2288 26.4701 19.3466 26.4328 19.4827C26.265 20.19 26.3396 20.852 26.8336 21.4324C26.8895 21.4958 26.9082 21.5412 26.8522 21.6228C26.7124 21.8042 26.6751 22.0127 26.6751 22.2395C26.6751 23.1644 26.6751 24.0803 26.6751 25.0053C26.6751 25.3227 26.6751 25.6401 26.6751 25.9575ZM33.7124 25.9575C33.7124 25.8849 33.7124 25.8033 33.7124 25.7308C33.7124 24.5428 33.7124 23.3549 33.7124 22.1669C33.7124 21.6228 33.293 21.2057 32.7523 21.2057C32.2024 21.2057 31.7737 21.6228 31.7737 22.176C31.7737 23.7085 31.7737 25.232 31.7737 26.7646C31.7737 26.9097 31.7737 27.0729 31.8669 27.1726C32.0906 27.4175 32.1185 27.6805 32.0346 27.9888C32.0067 28.0795 31.9694 28.2427 32.1185 28.2699C32.249 28.2881 32.249 28.1248 32.277 28.0251C32.4727 27.354 32.8549 26.828 33.498 26.5107C33.7404 26.3928 34.0013 26.3656 34.253 26.293C34.3742 26.2567 34.514 26.1933 34.4953 26.0572C34.4674 25.9303 34.3276 25.8759 34.1971 25.894C34.0479 25.9031 33.8895 25.9393 33.7124 25.9575ZM31.2424 18.6756C31.2424 18.7935 31.2703 18.9204 31.4381 18.9476C31.5966 18.9658 31.6618 18.857 31.6898 18.73C31.7084 18.6665 31.7177 18.594 31.7364 18.5305C31.8482 18.1496 32.1931 17.8594 32.5846 17.8322C32.976 17.805 33.3116 18.0317 33.4794 18.4217C33.526 18.5305 33.5539 18.6393 33.6005 18.7481C33.6565 18.8751 33.7497 18.9567 33.8988 18.9114C34.0293 18.866 34.0666 18.7481 34.0386 18.6302C33.9827 18.3854 33.8895 18.1587 33.7497 17.9592C33.4141 17.4967 32.8456 17.2881 32.3143 17.4332C31.727 17.5874 31.2703 18.1133 31.2424 18.6756ZM22.4528 36.8123C22.4341 36.8032 22.4248 36.7942 22.4062 36.7942C22.3875 36.8032 22.3875 36.8123 22.4062 36.8123C22.4248 36.8214 22.4435 36.8123 22.4528 36.8123ZM38.5872 36.8123C38.5872 36.8032 38.5872 36.7942 38.5872 36.7942C38.5779 36.7942 38.5592 36.7942 38.5499 36.7942C38.5313 36.7942 38.5313 36.8032 38.5499 36.8123C38.5592 36.8214 38.5779 36.8123 38.5872 36.8123Z" fill="#FFE52F"/>
<path d="M17.6148 14.7493C17.5123 14.6404 17.4936 14.5498 17.5868 14.4137C17.9969 13.7699 18.5655 13.2711 19.1714 12.8177C20.5229 11.8111 22.0608 11.1945 23.6827 10.7501C24.8944 10.4237 26.1154 10.1788 27.3644 10.0428C27.8771 9.98837 28.3897 9.93396 28.9117 9.88862C29.0608 9.87955 29.1074 9.89769 29.0608 10.0609C28.6507 11.6025 28.0728 13.0807 27.2992 14.4863C24 19.5 21.5 19 17.6148 14.7493Z" fill="#DE5D4F"/>
<path d="M31.9675 10.1702C31.9581 10.1248 31.9581 10.0704 31.9302 10.0341C31.8742 9.92531 31.9209 9.90717 32.0234 9.8981C32.2471 9.8709 32.4615 9.92531 32.6758 9.94345C34.8942 10.1611 37.066 10.551 39.1445 11.3672C40.5427 11.9203 41.8196 12.6458 42.8636 13.725C43.0593 13.9245 43.2271 14.1512 43.3948 14.3779C43.5253 14.5502 43.4601 14.6499 43.3482 14.7769C42.8076 15.3845 42.2297 15.9648 41.6146 16.5089C36.5 21.5 33.3806 14.3779 31.9675 10.1702Z" fill="#DE5D4F"/>
<path d="M30.0405 37.511C27.6451 37.4475 25.1471 36.9579 22.8635 35.652C21.4933 34.8631 20.3468 33.8293 19.48 32.5416C18.8368 31.5803 18.6225 30.4921 18.7343 29.3495C18.7996 28.7056 18.8928 28.0799 19.1817 27.4814C19.5825 26.6562 20.1231 25.9579 20.962 25.5226C22.0525 24.9604 23.1617 25.2597 23.8049 26.2753C23.9633 26.5202 24.1031 26.7741 24.2336 27.028C24.9234 28.352 26.0232 29.2044 27.468 29.6578C28.5865 30.0115 29.7236 30.1384 30.8887 30.0659C31.4853 30.0296 32.0445 29.8392 32.6038 29.676C33.1723 29.5037 33.7502 29.3404 34.3468 29.3132C34.9992 29.277 35.6237 29.3767 36.1923 29.6941C37.0685 30.1838 37.4879 30.9455 37.5811 31.9068C37.6557 32.6504 37.4879 33.3305 37.1244 33.9925C35.9593 36.1598 34.0392 37.1483 31.6437 37.4385C31.187 37.4929 30.721 37.5201 30.0405 37.511ZM26.2003 31.7617C26.3495 31.7798 26.4427 31.7073 26.5172 31.5985C26.8248 31.1904 27.0672 30.746 27.2629 30.2745C27.3188 30.1294 27.3002 30.075 27.1417 30.0206C26.2003 29.6941 25.3335 29.2316 24.681 28.4699C24.5971 28.3701 24.5505 28.4064 24.4853 28.4699C24.0565 28.8507 23.6744 29.277 23.3761 29.7666C23.2177 30.0206 23.2363 30.1747 23.4507 30.3833C23.926 30.8639 24.4946 31.2085 25.1191 31.4624C25.4547 31.6075 25.8182 31.7073 26.2003 31.7617ZM31.2243 32.7139C32.0259 32.6867 32.8088 32.469 33.5359 32.07C33.7316 31.9612 33.8155 31.8252 33.7689 31.5985C33.6664 31.0725 33.396 30.6372 33.0885 30.2019C32.9859 30.0659 32.902 30.0478 32.7436 30.0931C31.9979 30.3379 31.2429 30.5465 30.4413 30.5375C30.3202 30.5375 30.3295 30.61 30.3295 30.6825C30.2922 31.145 30.3108 31.5985 30.3947 32.0519C30.5159 32.7229 30.3761 32.6957 31.2243 32.7139Z" fill="#563B00"/>
<path d="M26.6746 25.9574C26.6746 25.64 26.6746 25.3226 26.6746 25.0052C26.6746 24.0803 26.6746 23.1644 26.6746 22.2394C26.6746 22.0127 26.7119 21.8041 26.8517 21.6227C26.9077 21.5411 26.889 21.5048 26.8331 21.4323C26.3484 20.8519 26.2738 20.1899 26.4323 19.4826C26.4603 19.3466 26.5348 19.2287 26.7026 19.2559C26.889 19.2831 26.9077 19.4191 26.8797 19.5733C26.8144 19.9088 26.7772 20.2534 26.8797 20.5889C27.0288 21.0786 27.3271 21.4414 27.8584 21.5683C28.2778 21.6771 28.6413 21.5048 28.9955 21.3053C29.0515 21.2781 29.0981 21.1784 29.1726 21.2328C29.2565 21.2963 29.2379 21.396 29.2006 21.4776C29.1074 21.659 28.9582 21.795 28.7625 21.8766C28.6413 21.9311 28.6134 21.9945 28.6134 22.1215C28.6227 23.6813 28.6227 25.2319 28.6227 26.7917C28.6227 27.0365 28.5388 27.2451 28.371 27.4265C28.3058 27.499 28.2778 27.5534 28.3151 27.6623C28.371 27.8255 28.3897 27.9887 28.371 28.161C28.3617 28.2154 28.3617 28.2789 28.2871 28.288C28.2219 28.297 28.1846 28.2426 28.166 28.1973C28.1287 28.1066 28.1101 28.0159 28.0821 27.9252C27.8025 27.0456 27.2152 26.5015 26.2738 26.3383C26.2366 26.3292 26.1899 26.3201 26.1527 26.302C26.0315 26.2657 25.8824 26.1932 25.901 26.0662C25.929 25.9121 26.0967 25.8849 26.2366 25.8939C26.3111 25.8939 26.3857 25.9211 26.4603 25.9302C26.5348 25.9302 26.5907 25.9846 26.6746 25.9574Z" fill="#563B00"/>
<path d="M33.7132 25.9562C33.8809 25.929 34.0394 25.9018 34.1978 25.8837C34.3377 25.8746 34.4775 25.9199 34.4961 26.0469C34.5241 26.192 34.3843 26.2464 34.2538 26.2827C34.0021 26.3552 33.7318 26.3824 33.4988 26.5003C32.8463 26.8177 32.4642 27.3437 32.2777 28.0147C32.2498 28.1145 32.2498 28.2777 32.1193 28.2596C31.9702 28.2414 32.0168 28.0691 32.0354 27.9784C32.1193 27.6792 32.1006 27.4162 31.8676 27.1623C31.7744 27.0625 31.7744 26.8993 31.7744 26.7542C31.7744 25.2217 31.7744 23.6982 31.7744 22.1656C31.7744 21.6125 32.2032 21.1953 32.7531 21.1953C33.2937 21.1953 33.7132 21.6125 33.7132 22.1566C33.7132 23.3445 33.7132 24.5325 33.7132 25.7204C33.7132 25.8111 33.7132 25.8837 33.7132 25.9562Z" fill="#563B00"/>
<path d="M31.2402 18.6759C31.2682 18.1136 31.7249 17.5877 32.2935 17.4245C32.8248 17.2794 33.4027 17.4879 33.7289 17.9504C33.878 18.159 33.9619 18.3857 34.0179 18.6215C34.0458 18.7484 34.0179 18.8573 33.878 18.9026C33.7289 18.9479 33.6357 18.8754 33.5798 18.7394C33.5332 18.6305 33.5052 18.5217 33.4586 18.4129C33.2908 18.0139 32.9553 17.7963 32.5638 17.8235C32.1816 17.8507 31.8274 18.1318 31.7156 18.5217C31.697 18.5852 31.6876 18.6577 31.669 18.7212C31.641 18.8482 31.5758 18.957 31.4173 18.9389C31.2682 18.9298 31.2402 18.7938 31.2402 18.6759Z" fill="#563B00"/>
<path d="M22.4521 36.8118C22.4427 36.8118 22.4239 36.821 22.4145 36.821C22.3957 36.821 22.3957 36.8026 22.4145 36.8026C22.4239 36.7935 22.4333 36.8026 22.4521 36.8118Z" fill="#563B00"/>
<path d="M38.5869 36.8113C38.5775 36.8113 38.5587 36.8205 38.5493 36.8113C38.5305 36.8021 38.5305 36.793 38.5493 36.793C38.5587 36.793 38.5775 36.793 38.5869 36.793C38.5869 36.8021 38.5869 36.8113 38.5869 36.8113Z" fill="#563B00"/>
<path d="M26.2 31.7607C25.8272 31.7063 25.4637 31.6156 25.1095 31.4705C24.485 31.2166 23.9164 30.872 23.4411 30.3914C23.2267 30.1828 23.2173 30.0287 23.3665 29.7747C23.6648 29.285 24.0469 28.8588 24.4757 28.478C24.5502 28.4145 24.5875 28.3782 24.6714 28.478C25.3239 29.2397 26.1907 29.6931 27.1321 30.0287C27.2906 30.0831 27.3092 30.1375 27.2533 30.2826C27.0669 30.7541 26.8152 31.1985 26.5076 31.6066C26.433 31.7063 26.3398 31.7789 26.2 31.7607Z" fill="#FDFDFD"/>
<path d="M31.2217 32.7141C30.3735 32.696 30.5133 32.7232 30.3921 32.0612C30.3083 31.6078 30.2896 31.1544 30.3269 30.6919C30.3362 30.6193 30.3176 30.5468 30.4388 30.5468C31.2403 30.5468 31.9953 30.3382 32.741 30.1024C32.8995 30.048 32.9927 30.0752 33.0859 30.2113C33.3935 30.6375 33.6638 31.0818 33.7663 31.6078C33.8129 31.8345 33.729 31.9705 33.5333 32.0793C32.8063 32.4693 32.0326 32.6869 31.2217 32.7141Z" fill="#FDFDFD"/>
</svg>
