<svg viewBox="0 0 300 300" fill="none" xmlns="http://www.w3.org/2000/svg">
<g clip-path="url(#clip0_3220_3874)">
<path fill-rule="evenodd" clip-rule="evenodd" d="M95.2075 221.43L95.2075 222.858L73.9752 222.858L73.9752 245.001L72.6054 245.001L72.6054 221.43L95.2075 221.43Z" fill="#FFE1AD"/>
<path fill-rule="evenodd" clip-rule="evenodd" d="M95.8937 192.859L95.8937 195.716L75.3463 195.716L75.3463 217.145L72.6067 217.145L72.6067 192.859L95.8937 192.859Z" fill="#FFE1AD"/>
<path fill-rule="evenodd" clip-rule="evenodd" d="M96.5777 162.857L96.5777 167.143L76.7152 167.143L76.7152 187.857L72.6057 187.857L72.6057 162.857L96.5777 162.857Z" fill="#FFE1AD"/>
<path fill-rule="evenodd" clip-rule="evenodd" d="M97.2605 131.43L97.2605 137.144L78.083 137.144L78.083 157.143L72.6037 157.143L72.6037 131.43L97.2605 131.43Z" fill="#FFE1AD"/>
<path fill-rule="evenodd" clip-rule="evenodd" d="M98.633 100.004L98.633 108.575L80.8252 108.575L80.8252 127.146L72.6063 127.146L72.6063 100.004L98.633 100.004Z" fill="#FFE1AD"/>
<path fill-rule="evenodd" clip-rule="evenodd" d="M100.001 67.1523L100.001 78.5807L83.563 78.5807L83.563 95.7231L72.6044 95.7231L72.6044 67.1523L100.001 67.1523Z" fill="#FFE1AD"/>
<path fill-rule="evenodd" clip-rule="evenodd" d="M72.605 62.8652L83.5636 62.8652L83.5636 45.7228L100.002 45.7228L100.002 34.2945L72.605 34.2945L72.605 62.8652Z" fill="#FFE1AD"/>
<path fill-rule="evenodd" clip-rule="evenodd" d="M58.2259 248.572L58.2259 250.001L36.9936 250.001L36.9936 272.143L35.6238 272.143L35.6238 248.572L58.2259 248.572Z" fill="#FFE1AD"/>
<path fill-rule="evenodd" clip-rule="evenodd" d="M58.9065 221.43L58.9065 224.287L38.3591 224.287L38.3591 245.715L35.6194 245.715L35.6194 221.43L58.9065 221.43Z" fill="#FFE1AD"/>
<path fill-rule="evenodd" clip-rule="evenodd" d="M59.5882 192.859L59.5882 197.145L39.7257 197.145L39.7257 217.859L35.6162 217.859L35.6162 192.859L59.5882 192.859Z" fill="#FFE1AD"/>
<path fill-rule="evenodd" clip-rule="evenodd" d="M60.2744 162.854L60.2744 168.568L41.0968 168.568L41.0968 188.567L35.6175 188.567L35.6175 162.854L60.2744 162.854Z" fill="#FFE1AD"/>
<path fill-rule="evenodd" clip-rule="evenodd" d="M61.6469 131.432L61.6469 140.003L43.8391 140.003L43.8391 158.574L35.6202 158.574L35.6202 131.432L61.6469 131.432Z" fill="#FFE1AD"/>
<path fill-rule="evenodd" clip-rule="evenodd" d="M62.3308 100.004L62.3308 110.004L45.208 110.004L45.208 127.86L35.6192 127.86L35.6192 100.004L62.3308 100.004Z" fill="#FFE1AD"/>
<path fill-rule="evenodd" clip-rule="evenodd" d="M63.0159 67.1465L63.0159 78.5748L46.578 78.5748L46.578 95.7173L35.6194 95.7173L35.6194 67.1465L63.0159 67.1465Z" fill="#FFE1AD"/>
<path fill-rule="evenodd" clip-rule="evenodd" d="M64.385 34.2871L64.385 48.5725L49.3169 48.5725L49.3169 64.2864L35.6186 64.2864L35.6186 34.2871L64.385 34.2871Z" fill="#FFE1AD"/>
<path fill-rule="evenodd" clip-rule="evenodd" d="M101.372 0.0078125L101.372 14.2932L86.3041 14.2932L86.3041 30.0071L72.6059 30.0071L72.6059 0.00780999L101.372 0.0078125Z" fill="#FFE1AD"/>
<path fill-rule="evenodd" clip-rule="evenodd" d="M35.6211 30.0039L49.3194 30.0039L49.3194 14.29L64.3875 14.29L64.3875 0.00459923L35.6211 0.00459671L35.6211 30.0039Z" fill="#FFE1AD"/>
<path fill-rule="evenodd" clip-rule="evenodd" d="M22.6055 276.43L22.6055 277.858L1.37316 277.858L1.37316 300.001L0.00333032 300.001L0.00333238 276.43L22.6055 276.43Z" fill="#FFE1AD"/>
<path fill-rule="evenodd" clip-rule="evenodd" d="M23.2894 248.576L23.2894 251.433L2.74204 251.433L2.74204 272.861L0.00238254 272.861L0.00238466 248.576L23.2894 248.576Z" fill="#FFE1AD"/>
<path fill-rule="evenodd" clip-rule="evenodd" d="M23.9779 221.43L23.9779 225.715L4.11543 225.715L4.11543 246.429L0.00594397 246.429L0.00594616 221.43L23.9779 221.43Z" fill="#FFE1AD"/>
<path fill-rule="evenodd" clip-rule="evenodd" d="M24.6562 192.859L24.6562 198.574L5.47868 198.574L5.47867 218.573L-0.000635488 218.573L-0.00063324 192.859L24.6562 192.859Z" fill="#FFE1AD"/>
<path fill-rule="evenodd" clip-rule="evenodd" d="M26.0309 162.857L26.0309 171.429L8.2232 171.429L8.2232 190L0.00423623 190L0.00423861 162.857L26.0309 162.857Z" fill="#FFE1AD"/>
<path fill-rule="evenodd" clip-rule="evenodd" d="M26.7149 131.43L26.7149 141.429L9.59208 141.429L9.59208 159.286L0.00329299 159.286L0.00329542 131.43L26.7149 131.43Z" fill="#FFE1AD"/>
<path fill-rule="evenodd" clip-rule="evenodd" d="M27.3989 100.004L27.3989 111.432L10.961 111.432L10.961 128.575L0.00234545 128.575L0.00234795 100.004L27.3989 100.004Z" fill="#FFE1AD"/>
<path fill-rule="evenodd" clip-rule="evenodd" d="M28.7679 67.1484L28.7679 81.4338L13.6999 81.4338L13.6999 97.1477L0.00158143 97.1477L0.00158405 67.1484L28.7679 67.1484Z" fill="#FFE1AD"/>
<path fill-rule="evenodd" clip-rule="evenodd" d="M0.00297546 64.998L15.0711 64.998L15.0711 49.9984L29.4542 49.9984L29.4543 34.2845L0.00297815 34.2845L0.00297546 64.998Z" fill="#FFE1AD"/>
<path fill-rule="evenodd" clip-rule="evenodd" d="M29.4519 0L29.4519 15.7139L15.0687 15.7139L15.0687 30.7136L0.000640091 30.7136L0.000642776 -2.57471e-06L29.4519 0Z" fill="#FFE1AD"/>
<path fill-rule="evenodd" clip-rule="evenodd" d="M224.653 99.2871L226.023 99.2871L226.023 77.1448L247.255 77.1448L247.255 75.7162L224.653 75.7162L224.653 99.2871Z" fill="#FFE1AD"/>
<path fill-rule="evenodd" clip-rule="evenodd" d="M197.262 100.004L200.002 100.004L200.002 78.5758L220.549 78.5758L220.549 75.7188L197.262 75.7188L197.262 100.004Z" fill="#FFE1AD"/>
<path fill-rule="evenodd" clip-rule="evenodd" d="M168.492 100.711L172.602 100.711L172.602 79.9971L192.464 79.9971L192.464 75.7115L168.492 75.7115L168.492 100.711Z" fill="#FFE1AD"/>
<path fill-rule="evenodd" clip-rule="evenodd" d="M138.359 101.432L143.839 101.432L143.839 81.4321L163.016 81.4321L163.016 75.718L138.359 75.7179L138.359 101.432Z" fill="#FFE1AD"/>
<path fill-rule="evenodd" clip-rule="evenodd" d="M108.22 102.857L116.439 102.857L116.439 84.2864L134.247 84.2864L134.247 75.7152L108.22 75.7152L108.22 102.857Z" fill="#FFE1AD"/>
<path fill-rule="evenodd" clip-rule="evenodd" d="M250.687 60.7188L252.057 60.7188L252.057 38.5764L273.289 38.5764L273.289 37.1479L250.687 37.1479L250.687 60.7188Z" fill="#FFE1AD"/>
<path fill-rule="evenodd" clip-rule="evenodd" d="M224.656 61.4336L227.395 61.4336L227.395 40.0055L247.943 40.0055L247.943 37.1484L224.656 37.1484L224.656 61.4336Z" fill="#FFE1AD"/>
<path fill-rule="evenodd" clip-rule="evenodd" d="M197.262 62.1445L201.371 62.1445L201.371 41.4307L221.234 41.4307L221.234 37.1451L197.262 37.1451L197.262 62.1445Z" fill="#FFE1AD"/>
<path fill-rule="evenodd" clip-rule="evenodd" d="M168.492 62.8594L173.972 62.8594L173.972 42.8598L193.149 42.8598L193.149 37.1457L168.492 37.1457L168.492 62.8594Z" fill="#FFE1AD"/>
<path fill-rule="evenodd" clip-rule="evenodd" d="M138.361 64.2832L146.58 64.2832L146.58 45.7122L164.387 45.7122L164.387 37.141L138.361 37.141L138.361 64.2832Z" fill="#FFE1AD"/>
<path fill-rule="evenodd" clip-rule="evenodd" d="M108.224 64.998L117.813 64.998L117.813 47.1413L134.936 47.1413L134.936 37.1416L108.224 37.1415L108.224 64.998Z" fill="#FFE1AD"/>
<path fill-rule="evenodd" clip-rule="evenodd" d="M277.399 23.5723L278.769 23.5723L278.769 1.42992L300.001 1.42992L300.001 0.0013848L277.399 0.00138283L277.399 23.5723Z" fill="#FFE1AD"/>
<path fill-rule="evenodd" clip-rule="evenodd" d="M250.685 24.2871L253.424 24.2871L253.424 2.85903L273.972 2.85904L273.972 0.00195707L250.685 0.00195503L250.685 24.2871Z" fill="#FFE1AD"/>
<path fill-rule="evenodd" clip-rule="evenodd" d="M224.656 25.0059L228.765 25.0059L228.765 4.29205L248.627 4.29205L248.627 0.00643749L224.656 0.00643539L224.656 25.0059Z" fill="#FFE1AD"/>
<path fill-rule="evenodd" clip-rule="evenodd" d="M197.263 25.7129L202.742 25.7129L202.742 5.71335L221.92 5.71335L221.92 -0.000798931L197.263 -0.000801086L197.263 25.7129Z" fill="#FFE1AD"/>
<path fill-rule="evenodd" clip-rule="evenodd" d="M168.492 27.1465L176.711 27.1465L176.711 8.57549L194.519 8.57549L194.519 0.00425948L168.492 0.0042572L168.492 27.1465Z" fill="#FFE1AD"/>
<path fill-rule="evenodd" clip-rule="evenodd" d="M138.356 27.8613L147.945 27.8613L147.945 10.0046L165.068 10.0046L165.068 0.00483174L138.356 0.00482941L138.356 27.8613Z" fill="#FFE1AD"/>
<path fill-rule="evenodd" clip-rule="evenodd" d="M108.224 28.5703L119.183 28.5703L119.183 11.4278L135.621 11.4279L135.621 -0.000455369L108.224 -0.000457764L108.224 28.5703Z" fill="#FFE1AD"/>
</g>
<defs>
<clipPath id="clip0_3220_3874">
<rect width="300.002" height="300" fill="white" transform="matrix(-1 0 0 -1 300.002 300)"/>
</clipPath>
</defs>
</svg>
