<svg width="252" height="207" viewBox="0 0 252 207" fill="none" xmlns="http://www.w3.org/2000/svg">
<path fill-rule="evenodd" clip-rule="evenodd" d="M189.516 155.627C176.216 143.542 134.345 127.942 53.3781 147.547L43.939 116.159L85.9107 129.481C88.3977 130.271 91.1098 129.362 92.6196 127.234L138.329 62.8007L155.487 124.609C156.417 127.96 159.992 129.821 163.27 128.66L222.232 107.789L217.512 155.815C217.214 158.842 219.26 161.601 222.243 162.196C225.216 162.789 228.157 161.039 229.053 158.142L251.248 86.4025C252.596 82.0468 250.133 77.4282 245.765 76.1209C244.103 75.6236 242.326 75.666 240.689 76.2421L171.89 100.465L152.766 4.12123C152.076 0.646624 147.544 -0.282822 145.542 2.63991L78.5488 100.465L8.42583 74.7864C3.53548 72.9955 -1.15782 77.8581 0.805128 82.682L36.9096 171.407C37.9109 173.868 40.6361 175.12 43.1685 174.317C72.0073 165.173 133.234 152.581 184.151 164.227C186.76 164.824 189.452 163.515 190.508 161.055C191.311 159.186 191.022 156.996 189.516 155.627ZM53.153 189.557C82.1739 179.89 206.188 162.13 237.061 167.778C242.969 168.859 240.028 173.074 234.036 173.471C186.441 176.625 108.953 187.17 61.6949 205.494C54.6511 208.225 45.9512 199.772 49.3142 193.007C50.1169 191.392 51.4423 190.126 53.153 189.557Z" fill="#FFE52F"/>
</svg>
