<svg viewBox="0 0 585 584" fill="none" xmlns="http://www.w3.org/2000/svg">
<g opacity="0.54">
<path d="M72.6503 120.41C74.1402 118.92 76.5547 118.919 78.0434 120.408C79.532 121.897 79.5311 124.311 78.0412 125.801C76.5513 127.291 74.1367 127.292 72.6481 125.803C71.1594 124.315 71.1604 121.9 72.6503 120.41Z" fill="#FFB433"/>
<path d="M106.349 139.722C102.628 136 96.5912 136.003 92.8665 139.727C89.1418 143.452 89.1393 149.488 92.8609 153.21C96.5825 156.932 102.619 156.929 106.344 153.204C110.068 149.48 110.071 143.443 106.349 139.722Z" fill="#FFB433"/>
<path d="M113.98 161.74C118.947 156.774 126.995 156.771 131.957 161.733C136.92 166.695 136.916 174.744 131.95 179.71C126.984 184.676 118.935 184.679 113.973 179.717C109.011 174.755 109.014 166.707 113.98 161.74Z" fill="#FFB433"/>
<path d="M157.116 185.093C151.657 179.634 142.804 179.638 137.341 185.101C131.878 190.564 131.874 199.417 137.333 204.875C142.791 210.334 151.644 210.33 157.107 204.867C162.57 199.404 162.574 190.551 157.116 185.093Z" fill="#FFB433"/>
<path d="M436.265 47.9031C435.023 49.1446 435.023 51.1568 436.263 52.3973C437.504 53.6378 439.516 53.637 440.757 52.3955C441.999 51.1539 442 49.1417 440.759 47.9012C439.519 46.6606 437.506 46.6615 436.265 47.9031Z" fill="#FFB433"/>
<path d="M180.845 403.054C180.996 403.204 181.142 403.357 181.285 403.513C181.44 403.655 181.593 403.802 181.744 403.952C187.45 409.659 187.446 418.915 181.735 424.626C176.024 430.337 166.768 430.341 161.062 424.634C160.911 424.484 160.765 424.331 160.622 424.176C160.467 424.033 160.314 423.887 160.163 423.736C154.457 418.03 154.461 408.774 160.172 403.062C165.883 397.351 175.139 397.347 180.845 403.054Z" fill="#FFB433"/>
<path d="M229.362 453.37C234.573 458.58 234.569 467.031 229.355 472.245C224.14 477.46 215.689 477.463 210.479 472.253C205.269 467.043 205.272 458.592 210.487 453.377C215.701 448.163 224.152 448.159 229.362 453.37Z" fill="#FFB433"/>
<path d="M253.165 495.156C258.131 490.19 258.134 482.141 253.172 477.179C248.21 472.217 240.161 472.22 235.195 477.187C230.229 482.153 230.226 490.201 235.188 495.164C240.15 500.126 248.198 500.123 253.165 495.156Z" fill="#FFB433"/>
<path d="M276.982 500.989C281.696 505.703 281.693 513.349 276.975 518.067C272.257 522.785 264.611 522.788 259.897 518.074C255.183 513.36 255.186 505.714 259.904 500.996C264.622 496.278 272.268 496.275 276.982 500.989Z" fill="#FFB433"/>
<path d="M300.335 541.428C304.06 537.703 304.062 531.666 300.341 527.945C296.619 524.223 290.583 524.226 286.858 527.95C283.133 531.675 283.131 537.712 286.853 541.433C290.574 545.155 296.611 545.152 300.335 541.428Z" fill="#FFB433"/>
<path d="M320.551 562.542C322.537 560.556 322.539 557.336 320.554 555.351C318.569 553.367 315.349 553.368 313.363 555.354C311.376 557.341 311.375 560.56 313.36 562.545C315.345 564.53 318.564 564.529 320.551 562.542Z" fill="#FFB433"/>
<path d="M206.452 428.661C211.91 434.119 211.907 442.972 206.444 448.435C200.981 453.898 192.127 453.902 186.669 448.443C181.211 442.985 181.214 434.132 186.677 428.669C192.14 423.206 200.994 423.202 206.452 428.661Z" fill="#FFB433"/>
<path d="M272.462 562.113C274.697 559.878 274.699 556.256 272.466 554.023C270.233 551.79 266.611 551.791 264.376 554.026C262.141 556.261 262.14 559.883 264.373 562.116C266.606 564.349 270.228 564.347 272.462 562.113Z" fill="#FFB433"/>
<path d="M294.477 579.631C295.469 580.624 295.469 582.233 294.476 583.227C293.482 584.22 291.873 584.22 290.88 583.228C289.888 582.236 289.888 580.626 290.882 579.633C291.875 578.639 293.485 578.639 294.477 579.631Z" fill="#FFB433"/>
<path d="M250.45 539.201C253.926 535.725 253.929 530.091 250.455 526.617C246.982 523.144 241.348 523.146 237.871 526.622C234.395 530.099 234.393 535.733 237.866 539.206C241.34 542.68 246.974 542.677 250.45 539.201Z" fill="#FFB433"/>
<path d="M228.443 502.807C232.661 507.025 232.658 513.866 228.437 518.087C224.216 522.308 217.374 522.311 213.156 518.093C208.939 513.876 208.941 507.034 213.163 502.813C217.384 498.592 224.225 498.589 228.443 502.807Z" fill="#FFB433"/>
<path d="M205.076 494.727C209.794 490.009 209.798 482.363 205.083 477.649C200.369 472.934 192.723 472.938 188.005 477.656C183.287 482.373 183.284 490.02 187.998 494.734C192.712 499.448 200.358 499.445 205.076 494.727Z" fill="#FFB433"/>
<path d="M138.142 446.655C138.284 446.811 138.431 446.964 138.581 447.115C143.791 452.325 152.242 452.322 157.457 447.107C162.672 441.893 162.675 433.442 157.465 428.231C157.314 428.081 157.161 427.935 157.005 427.793C156.863 427.637 156.717 427.484 156.566 427.333C151.356 422.123 142.905 422.126 137.69 427.341C132.476 432.555 132.472 441.006 137.683 446.217C137.833 446.367 137.987 446.513 138.142 446.655Z" fill="#FFB433"/>
<path d="M181.266 471.816C186.233 466.85 186.236 458.801 181.274 453.839C176.312 448.877 168.263 448.88 163.297 453.846C158.331 458.812 158.327 466.861 163.289 471.823C168.252 476.785 176.3 476.782 181.266 471.816Z" fill="#FFB433"/>
<path d="M223.029 554.942C224.765 556.679 224.764 559.496 223.026 561.234C221.288 562.972 218.471 562.973 216.734 561.237C214.997 559.5 214.998 556.683 216.737 554.945C218.475 553.207 221.292 553.205 223.029 554.942Z" fill="#FFB433"/>
<path d="M200.114 539.222C202.598 536.739 202.599 532.714 200.118 530.233C197.637 527.752 193.613 527.754 191.13 530.237C188.646 532.72 188.645 536.744 191.126 539.225C193.607 541.707 197.631 541.705 200.114 539.222Z" fill="#FFB433"/>
<path d="M178.107 504.625C181.332 507.851 181.33 513.082 178.102 516.31C174.874 519.538 169.642 519.54 166.417 516.315C163.192 513.09 163.194 507.858 166.422 504.63C169.65 501.402 174.881 501.4 178.107 504.625Z" fill="#FFB433"/>
<path d="M130.483 468.691C134.207 464.966 134.21 458.93 130.488 455.208C130.337 455.057 130.182 454.912 130.024 454.773C129.885 454.615 129.741 454.46 129.59 454.31C125.868 450.588 119.832 450.59 116.107 454.315C112.382 458.04 112.38 464.076 116.101 467.798C116.252 467.949 116.407 468.094 116.565 468.232C116.704 468.391 116.849 468.545 117 468.696C120.722 472.418 126.758 472.415 130.483 468.691Z" fill="#FFB433"/>
<path d="M155.646 480.365C159.367 484.087 159.365 490.123 155.64 493.848C151.915 497.573 145.879 497.575 142.157 493.854C138.436 490.132 138.438 484.096 142.163 480.371C145.888 476.646 151.924 476.644 155.646 480.365Z" fill="#FFB433"/>
<path d="M150.229 536.995C151.471 535.754 151.472 533.741 150.231 532.501C148.99 531.26 146.978 531.261 145.737 532.503C144.495 533.744 144.494 535.757 145.735 536.997C146.975 538.238 148.988 538.237 150.229 536.995Z" fill="#FFB433"/>
<path d="M127.321 507.792C128.809 509.281 128.808 511.695 127.318 513.185C125.828 514.675 123.414 514.676 121.925 513.187C120.437 511.699 120.438 509.284 121.927 507.794C123.417 506.304 125.832 506.303 127.321 507.792Z" fill="#FFB433"/>
<path d="M102.61 489.376C104.348 487.638 104.349 484.821 102.612 483.084C102.46 482.931 102.299 482.792 102.131 482.666C102.006 482.499 101.866 482.338 101.714 482.185C99.9771 480.449 97.1601 480.45 95.4219 482.188C93.6837 483.926 93.6826 486.743 95.4193 488.48C95.5718 488.632 95.7327 488.772 95.9004 488.897C96.0262 489.065 96.1653 489.226 96.3178 489.378C98.0546 491.115 100.872 491.114 102.61 489.376Z" fill="#FFB433"/>
<path d="M554.821 271.668C557.054 273.901 560.676 273.899 562.911 271.664C565.145 269.43 565.147 265.808 562.914 263.575C560.681 261.342 557.059 261.343 554.824 263.578C552.589 265.813 552.588 269.435 554.821 271.668Z" fill="#FFB433"/>
<path d="M584.024 293.678C583.031 294.671 581.421 294.672 580.429 293.679C579.437 292.687 579.437 291.077 580.431 290.084C581.424 289.09 583.034 289.09 584.026 290.082C585.018 291.075 585.018 292.684 584.024 293.678Z" fill="#FFB433"/>
<path d="M527.415 249.657C530.889 253.131 536.523 253.128 539.999 249.652C543.475 246.176 543.478 240.542 540.004 237.068C536.531 233.595 530.897 233.597 527.42 237.073C523.944 240.55 523.942 246.184 527.415 249.657Z" fill="#FFB433"/>
<path d="M518.885 227.639C514.664 231.86 507.822 231.863 503.605 227.645C499.387 223.427 499.39 216.586 503.611 212.365C507.832 208.143 514.673 208.141 518.891 212.359C523.109 216.576 523.106 223.418 518.885 227.639Z" fill="#FFB433"/>
<path d="M478.446 204.286C483.16 209 490.807 208.996 495.525 204.278C500.243 199.561 500.246 191.914 495.532 187.2C490.818 182.486 483.171 182.489 478.453 187.207C473.736 191.925 473.732 199.571 478.446 204.286Z" fill="#FFB433"/>
<path d="M428.591 156.207C428.435 156.065 428.281 155.919 428.131 155.768C422.921 150.558 422.924 142.107 428.139 136.893C433.353 131.678 441.804 131.674 447.014 136.885C447.165 137.035 447.311 137.189 447.453 137.345C447.609 137.486 447.762 137.633 447.913 137.783C453.123 142.993 453.12 151.445 447.905 156.659C442.691 161.874 434.24 161.877 429.029 156.667C428.879 156.516 428.732 156.363 428.591 156.207Z" fill="#FFB433"/>
<path d="M454.637 180.476C459.599 185.438 467.647 185.435 472.614 180.468C477.58 175.502 477.583 167.454 472.621 162.491C467.659 157.529 459.61 157.533 454.644 162.499C449.678 167.465 449.675 175.514 454.637 180.476Z" fill="#FFB433"/>
<path d="M562.032 222.228C560.294 223.966 557.477 223.967 555.74 222.231C554.003 220.494 554.005 217.677 555.743 215.939C557.481 214.201 560.298 214.199 562.035 215.936C563.771 217.673 563.77 220.49 562.032 222.228Z" fill="#FFB433"/>
<path d="M531.031 199.32C533.512 201.801 537.537 201.8 540.02 199.317C542.503 196.833 542.504 192.809 540.023 190.328C537.542 187.847 533.518 187.849 531.035 190.332C528.552 192.815 528.55 196.839 531.031 199.32Z" fill="#FFB433"/>
<path d="M517.108 177.304C513.88 180.532 508.648 180.534 505.423 177.309C502.198 174.084 502.2 168.852 505.428 165.624C508.656 162.396 513.888 162.394 517.113 165.619C520.338 168.844 520.336 174.076 517.108 177.304Z" fill="#FFB433"/>
<path d="M456.006 129.69C459.728 133.412 465.764 133.409 469.489 129.685C473.213 125.96 473.216 119.924 469.494 116.202C469.343 116.051 469.188 115.906 469.03 115.767C468.891 115.609 468.747 115.454 468.596 115.303C464.874 111.582 458.838 111.584 455.113 115.309C451.388 119.034 451.386 125.07 455.107 128.792C455.258 128.943 455.413 129.087 455.571 129.226C455.71 129.384 455.855 129.539 456.006 129.69Z" fill="#FFB433"/>
<path d="M494.646 154.842C490.921 158.567 484.885 158.569 481.163 154.848C477.442 151.126 477.444 145.09 481.169 141.365C484.894 137.64 490.93 137.638 494.652 141.359C498.373 145.081 498.371 151.117 494.646 154.842Z" fill="#FFB433"/>
<path d="M533.299 149.433C534.539 150.674 536.552 150.673 537.793 149.431C539.035 148.19 539.036 146.178 537.795 144.937C536.554 143.696 534.542 143.697 533.301 144.939C532.059 146.18 532.058 148.193 533.299 149.433Z" fill="#FFB433"/>
<path d="M513.983 126.52C512.493 128.01 510.079 128.011 508.59 126.523C507.101 125.034 507.102 122.619 508.592 121.13C510.082 119.64 512.497 119.639 513.985 121.127C515.474 122.616 515.473 125.031 513.983 126.52Z" fill="#FFB433"/>
<path d="M483.882 101.814C485.619 103.551 488.436 103.55 490.174 101.812C491.912 100.074 491.913 97.2566 490.176 95.5199C488.44 93.7831 485.623 93.7843 483.884 95.5225C482.146 97.2607 482.145 100.078 483.882 101.814Z" fill="#FFB433"/>
<path d="M459.174 77.1062C457.685 75.6176 457.686 73.203 459.176 71.7131C460.666 70.2232 463.08 70.2222 464.569 71.7109C466.058 73.1996 466.057 75.6141 464.567 77.104C463.077 78.5939 460.662 78.5949 459.174 77.1062Z" fill="#FFB433"/>
<path d="M399.705 427.682C405.163 433.141 405.16 441.994 399.697 447.457C394.234 452.92 385.381 452.923 379.922 447.465C374.464 442.007 374.467 433.153 379.93 427.69C385.393 422.227 394.247 422.224 399.705 427.682Z" fill="#FFB433"/>
<path d="M423.057 470.817C428.024 465.851 428.027 457.803 423.065 452.84C418.103 447.878 410.054 447.881 405.088 452.848C400.122 457.814 400.118 465.863 405.08 470.825C410.043 475.787 418.091 475.784 423.057 470.817Z" fill="#FFB433"/>
<path d="M445.076 478.448C448.798 482.17 448.795 488.207 445.07 491.931C441.346 495.656 435.309 495.658 431.588 491.937C427.866 488.215 427.869 482.179 431.593 478.454C435.318 474.729 441.354 474.727 445.076 478.448Z" fill="#FFB433"/>
<path d="M464.387 512.147C465.877 510.658 465.878 508.243 464.39 506.754C462.901 505.266 460.486 505.267 458.997 506.757C457.507 508.246 457.506 510.661 458.994 512.15C460.483 513.638 462.898 513.637 464.387 512.147Z" fill="#FFB433"/>
<path d="M279.31 305.488C285.264 311.443 285.26 321.101 279.301 327.061C273.341 333.02 263.683 333.024 257.728 327.069C251.774 321.115 251.778 311.457 257.737 305.497C263.697 299.538 273.355 299.534 279.31 305.488Z" fill="#FFB433"/>
<path d="M303.56 351.32C309.519 345.36 309.523 335.702 303.568 329.747C297.614 323.793 287.956 323.797 281.996 329.756C276.037 335.716 276.033 345.374 281.987 351.328C287.942 357.283 297.6 357.279 303.56 351.32Z" fill="#FFB433"/>
<path d="M327.827 354.006C333.782 359.961 333.778 369.619 327.819 375.578C321.859 381.538 312.201 381.542 306.246 375.587C300.292 369.633 300.296 359.974 306.255 354.015C312.215 348.055 321.873 348.051 327.827 354.006Z" fill="#FFB433"/>
<path d="M352.077 399.837C358.037 393.878 358.041 384.22 352.086 378.265C346.132 372.31 336.473 372.314 330.514 378.274C324.554 384.233 324.55 393.892 330.505 399.846C336.46 405.801 346.118 405.797 352.077 399.837Z" fill="#FFB433"/>
<path d="M375.896 402.075C381.603 407.781 381.397 417.238 375.438 423.198C369.478 429.157 360.021 429.363 354.315 423.656C348.608 417.95 348.813 408.492 354.773 402.533C360.732 396.573 370.19 396.368 375.896 402.075Z" fill="#FFB433"/>
<path d="M375.418 471.736C380.881 466.273 380.884 457.419 375.426 451.961C369.968 446.503 361.114 446.506 355.651 451.969C350.189 457.432 350.185 466.286 355.643 471.744C361.102 477.202 369.955 477.199 375.418 471.736Z" fill="#FFB433"/>
<path d="M397.437 477.569C402.151 482.283 402.148 489.929 397.43 494.647C392.712 499.365 385.066 499.369 380.352 494.654C375.638 489.94 375.641 482.294 380.359 477.576C385.077 472.858 392.723 472.855 397.437 477.569Z" fill="#FFB433"/>
<path d="M418.994 516.211C422.222 512.983 422.224 507.751 418.999 504.526C415.773 501.3 410.542 501.303 407.314 504.531C404.086 507.759 404.083 512.99 407.309 516.216C410.534 519.441 415.766 519.439 418.994 516.211Z" fill="#FFB433"/>
<path d="M438.762 531.483C440.003 532.724 440.002 534.736 438.76 535.977C437.519 537.219 435.507 537.22 434.266 535.979C433.026 534.739 433.026 532.727 434.268 531.485C435.51 530.244 437.522 530.243 438.762 531.483Z" fill="#FFB433"/>
<path d="M255.022 351.34C260.981 345.38 260.985 335.722 255.031 329.767C249.076 323.813 239.418 323.817 233.458 329.776C227.499 335.736 227.495 345.394 233.449 351.348C239.404 357.303 249.062 357.299 255.022 351.34Z" fill="#FFB433"/>
<path d="M279.29 354.026C285.244 359.981 285.24 369.639 279.281 375.598C273.321 381.558 263.663 381.562 257.708 375.607C251.754 369.653 251.758 359.994 257.717 354.035C263.677 348.075 273.335 348.071 279.29 354.026Z" fill="#FFB433"/>
<path d="M303.54 399.857C309.499 393.898 309.503 384.24 303.548 378.285C297.594 372.33 287.936 372.334 281.976 378.294C276.017 384.253 276.013 393.912 281.967 399.866C287.922 405.821 297.58 405.817 303.54 399.857Z" fill="#FFB433"/>
<path d="M327.807 402.544C333.762 408.499 333.758 418.157 327.799 424.116C321.839 430.076 312.181 430.08 306.226 424.125C300.272 418.171 300.275 408.512 306.235 402.553C312.194 396.593 321.853 396.589 327.807 402.544Z" fill="#FFB433"/>
<path d="M351.159 447.477C357.119 441.517 357.324 432.06 351.617 426.354C345.911 420.647 336.453 420.852 330.494 426.812C324.534 432.771 324.329 442.228 330.036 447.935C335.742 453.641 345.199 453.436 351.159 447.477Z" fill="#FFB433"/>
<path d="M351.596 476.689C356.807 481.9 356.803 490.351 351.589 495.565C346.374 500.78 337.923 500.783 332.713 495.573C327.503 490.363 327.506 481.912 332.721 476.697C337.935 471.482 346.386 471.479 351.596 476.689Z" fill="#FFB433"/>
<path d="M372.703 517.578C377.172 513.109 377.175 505.865 372.709 501.399C368.243 496.933 361 496.936 356.53 501.406C352.06 505.875 352.057 513.119 356.523 517.585C360.989 522.051 368.233 522.048 372.703 517.578Z" fill="#FFB433"/>
<path d="M394.27 530.153C396.751 532.634 396.749 536.659 394.266 539.142C391.783 541.625 387.759 541.627 385.278 539.145C382.796 536.664 382.798 532.64 385.281 530.157C387.764 527.674 391.789 527.672 394.27 530.153Z" fill="#FFB433"/>
<path d="M415.381 559.357C416.622 558.116 416.623 556.103 415.383 554.863C414.142 553.622 412.13 553.623 410.888 554.865C409.647 556.106 409.646 558.118 410.886 559.359C412.127 560.6 414.139 560.599 415.381 559.357Z" fill="#FFB433"/>
<path d="M230.752 354.046C236.706 360.001 236.702 369.659 230.743 375.618C224.783 381.578 215.125 381.582 209.17 375.627C203.216 369.673 203.22 360.014 209.179 354.055C215.139 348.095 224.797 348.091 230.752 354.046Z" fill="#FFB433"/>
<path d="M255.002 399.877C260.961 393.918 260.965 384.26 255.011 378.305C249.056 372.35 239.398 372.354 233.438 378.314C227.479 384.273 227.475 393.932 233.429 399.886C239.384 405.841 249.042 405.837 255.002 399.877Z" fill="#FFB433"/>
<path d="M279.27 402.564C285.224 408.519 285.22 418.177 279.261 424.136C273.301 430.096 263.643 430.1 257.688 424.145C251.734 418.191 251.738 408.532 257.697 402.573C263.657 396.613 273.315 396.609 279.27 402.564Z" fill="#FFB433"/>
<path d="M303.52 448.395C309.479 442.436 309.483 432.778 303.528 426.823C297.574 420.868 287.916 420.872 281.956 426.832C275.997 432.791 275.993 442.45 281.947 448.404C287.902 454.359 297.56 454.355 303.52 448.395Z" fill="#FFB433"/>
<path d="M327.338 450.633C333.045 456.339 332.84 465.796 326.88 471.756C320.921 477.715 311.463 477.92 305.757 472.214C300.05 466.507 300.256 457.05 306.215 451.091C312.175 445.131 321.632 444.926 327.338 450.633Z" fill="#FFB433"/>
<path d="M325.063 518.497C329.533 514.027 329.536 506.783 325.07 502.317C320.604 497.852 313.36 497.854 308.89 502.324C304.421 506.794 304.418 514.037 308.884 518.503C313.35 522.969 320.593 522.966 325.063 518.497Z" fill="#FFB433"/>
<path d="M346.632 527.476C350.105 530.95 350.103 536.584 346.627 540.06C343.15 543.537 337.516 543.539 334.043 540.065C330.569 536.592 330.572 530.958 334.048 527.482C337.524 524.005 343.158 524.003 346.632 527.476Z" fill="#FFB433"/>
<path d="M368.19 561.624C369.68 560.134 369.681 557.719 368.192 556.231C366.704 554.742 364.289 554.743 362.799 556.233C361.309 557.723 361.308 560.137 362.797 561.626C364.286 563.115 366.7 563.114 368.19 561.624Z" fill="#FFB433"/>
<path d="M302.16 475.811C307.37 481.021 307.367 489.472 302.152 494.687C296.938 499.901 288.487 499.905 283.276 494.694C278.066 489.484 278.07 481.033 283.284 475.819C288.499 470.604 296.95 470.601 302.16 475.811Z" fill="#FFB433"/>
<path d="M278.342 471.776C283.805 466.313 283.809 457.459 278.35 452.001C272.892 446.543 264.038 446.546 258.576 452.009C253.113 457.472 253.109 466.326 258.567 471.784C264.026 477.242 272.879 477.239 278.342 471.776Z" fill="#FFB433"/>
<path d="M255.44 427.292C261.146 432.999 261.142 442.255 255.431 447.966C249.72 453.677 240.464 453.681 234.758 447.974C229.051 442.268 229.055 433.012 234.766 427.301C240.477 421.589 249.733 421.586 255.44 427.292Z" fill="#FFB433"/>
<path d="M206.464 399.897C212.423 393.938 212.427 384.28 206.473 378.325C200.518 372.37 190.86 372.374 184.9 378.334C178.941 384.293 178.937 393.952 184.891 399.906C190.846 405.861 200.504 405.857 206.464 399.897Z" fill="#FFB433"/>
<path d="M230.732 402.584C236.686 408.539 236.682 418.197 230.723 424.156C224.763 430.116 215.105 430.12 209.15 424.165C203.196 418.211 203.2 408.552 209.159 402.593C215.119 396.633 224.777 396.629 230.732 402.584Z" fill="#FFB433"/>
<path d="M472.534 374.62C467.071 380.083 458.217 380.087 452.759 374.628C447.301 369.17 447.304 360.316 452.767 354.853C458.23 349.391 467.083 349.387 472.542 354.845C478 360.304 477.997 369.157 472.534 374.62Z" fill="#FFB433"/>
<path d="M478.367 396.639C483.081 401.353 490.727 401.35 495.445 396.632C500.163 391.914 500.166 384.268 495.452 379.554C490.738 374.84 483.092 374.843 478.374 379.561C473.656 384.279 473.653 391.925 478.367 396.639Z" fill="#FFB433"/>
<path d="M517.009 418.196C513.781 421.424 508.549 421.426 505.324 418.201C502.098 414.975 502.101 409.744 505.329 406.516C508.557 403.288 513.788 403.285 517.014 406.511C520.239 409.736 520.237 414.968 517.009 418.196Z" fill="#FFB433"/>
<path d="M532.281 437.964C533.522 439.205 535.534 439.204 536.775 437.962C538.017 436.721 538.018 434.709 536.777 433.468C535.537 432.228 533.525 432.229 532.283 433.47C531.041 434.712 531.041 436.724 532.281 437.964Z" fill="#FFB433"/>
<path d="M352.137 254.224C346.178 260.183 336.52 260.187 330.565 254.233C324.61 248.278 324.614 238.62 330.574 232.66C336.533 226.701 346.192 226.697 352.146 232.651C358.101 238.606 358.097 248.264 352.137 254.224Z" fill="#FFB433"/>
<path d="M354.824 278.492C360.779 284.446 370.437 284.442 376.396 278.483C382.356 272.523 382.36 262.865 376.405 256.91C370.451 250.956 360.792 250.96 354.833 256.919C348.873 262.879 348.869 272.537 354.824 278.492Z" fill="#FFB433"/>
<path d="M400.655 302.742C394.696 308.701 385.038 308.705 379.083 302.751C373.128 296.796 373.132 287.138 379.092 281.178C385.051 275.219 394.71 275.215 400.664 281.169C406.619 287.124 406.615 296.782 400.655 302.742Z" fill="#FFB433"/>
<path d="M403.342 327.009C409.297 332.964 418.955 332.96 424.914 327.001C430.874 321.041 430.878 311.383 424.923 305.428C418.969 299.474 409.31 299.478 403.351 305.437C397.391 311.397 397.387 321.055 403.342 327.009Z" fill="#FFB433"/>
<path d="M448.275 350.361C442.315 356.321 432.858 356.526 427.152 350.819C421.445 345.113 421.65 335.656 427.61 329.696C433.569 323.737 443.026 323.531 448.733 329.238C454.439 334.944 454.234 344.402 448.275 350.361Z" fill="#FFB433"/>
<path d="M477.487 350.798C482.697 356.009 491.149 356.005 496.363 350.791C501.578 345.576 501.581 337.125 496.371 331.915C491.161 326.705 482.71 326.708 477.495 331.923C472.28 337.137 472.277 345.588 477.487 350.798Z" fill="#FFB433"/>
<path d="M518.376 371.905C513.907 376.374 506.663 376.377 502.197 371.911C497.731 367.445 497.734 360.202 502.204 355.732C506.673 351.262 513.917 351.259 518.383 355.725C522.849 360.191 522.846 367.435 518.376 371.905Z" fill="#FFB433"/>
<path d="M530.951 393.472C533.432 395.953 537.457 395.951 539.94 393.468C542.423 390.985 542.424 386.961 539.943 384.48C537.462 381.999 533.438 382 530.955 384.483C528.472 386.966 528.47 390.991 530.951 393.472Z" fill="#FFB433"/>
<path d="M560.155 414.583C558.914 415.824 556.901 415.825 555.661 414.585C554.42 413.344 554.421 411.332 555.663 410.09C556.904 408.849 558.916 408.848 560.157 410.088C561.398 411.329 561.397 413.341 560.155 414.583Z" fill="#FFB433"/>
<path d="M354.844 229.954C360.799 235.908 370.457 235.904 376.416 229.945C382.376 223.985 382.38 214.327 376.425 208.372C370.471 202.418 360.812 202.422 354.853 208.381C348.893 214.341 348.889 223.999 354.844 229.954Z" fill="#FFB433"/>
<path d="M400.675 254.204C394.716 260.163 385.058 260.167 379.103 254.213C373.148 248.258 373.152 238.6 379.112 232.64C385.071 226.681 394.73 226.677 400.684 232.631C406.639 238.586 406.635 248.244 400.675 254.204Z" fill="#FFB433"/>
<path d="M403.362 278.472C409.317 284.426 418.975 284.422 424.934 278.463C430.894 272.503 430.898 262.845 424.943 256.89C418.989 250.936 409.33 250.94 403.371 256.899C397.411 262.859 397.407 272.517 403.362 278.472Z" fill="#FFB433"/>
<path d="M449.193 302.722C443.234 308.681 433.575 308.685 427.621 302.731C421.666 296.776 421.67 287.118 427.63 281.158C433.589 275.199 443.248 275.195 449.202 281.149C455.157 287.104 455.153 296.762 449.193 302.722Z" fill="#FFB433"/>
<path d="M451.431 326.54C457.137 332.247 466.594 332.042 472.554 326.082C478.513 320.123 478.718 310.665 473.012 304.959C467.305 299.252 457.848 299.458 451.889 305.417C445.929 311.377 445.724 320.834 451.431 326.54Z" fill="#FFB433"/>
<path d="M519.295 324.265C514.825 328.735 507.581 328.738 503.115 324.272C498.649 319.806 498.652 312.562 503.122 308.093C507.592 303.623 514.835 303.62 519.301 308.086C523.767 312.552 523.764 319.796 519.295 324.265Z" fill="#FFB433"/>
<path d="M528.274 345.834C531.748 349.307 537.382 349.305 540.858 345.829C544.335 342.352 544.337 336.718 540.863 333.245C537.39 329.771 531.756 329.774 528.279 333.25C524.803 336.726 524.801 342.36 528.274 345.834Z" fill="#FFB433"/>
<path d="M562.422 367.392C560.932 368.882 558.517 368.883 557.029 367.394C555.54 365.906 555.541 363.491 557.031 362.001C558.521 360.511 560.935 360.51 562.424 361.999C563.913 363.488 563.912 365.902 562.422 367.392Z" fill="#FFB433"/>
<path d="M476.609 301.362C481.819 306.572 490.27 306.569 495.485 301.354C500.699 296.14 500.703 287.689 495.492 282.478C490.282 277.268 481.831 277.272 476.617 282.486C471.402 287.701 471.398 296.152 476.609 301.362Z" fill="#FFB433"/>
<path d="M472.574 277.544C467.111 283.007 458.257 283.011 452.799 277.552C447.341 272.094 447.344 263.241 452.807 257.778C458.27 252.315 467.123 252.311 472.582 257.77C478.04 263.228 478.037 272.081 472.574 277.544Z" fill="#FFB433"/>
<path d="M428.09 254.642C433.797 260.348 443.052 260.345 448.764 254.633C454.475 248.922 454.479 239.666 448.772 233.96C443.066 228.253 433.81 228.257 428.099 233.968C422.387 239.68 422.384 248.935 428.09 254.642Z" fill="#FFB433"/>
<path d="M400.695 205.666C394.736 211.625 385.078 211.629 379.123 205.675C373.168 199.72 373.172 190.062 379.132 184.102C385.091 178.143 394.75 178.139 400.704 184.093C406.659 190.048 406.655 199.706 400.695 205.666Z" fill="#FFB433"/>
<path d="M403.382 229.934C409.337 235.888 418.995 235.884 424.954 229.925C430.914 223.965 430.918 214.307 424.963 208.352C419.009 202.398 409.35 202.402 403.391 208.361C397.431 214.321 397.427 223.979 403.382 229.934Z" fill="#FFB433"/>
<path d="M542.226 299.537C538.501 303.262 532.464 303.265 528.743 299.543C525.021 295.821 525.024 289.785 528.748 286.06C532.473 282.335 538.509 282.333 542.231 286.055C545.953 289.776 545.95 295.813 542.226 299.537Z" fill="#FFB433"/>
<path d="M556.149 319.756C558.134 321.741 561.354 321.739 563.34 319.753C565.327 317.766 565.328 314.547 563.343 312.562C561.358 310.577 558.139 310.578 556.152 312.565C554.166 314.551 554.165 317.771 556.149 319.756Z" fill="#FFB433"/>
<path d="M518.865 276.177C514.147 280.895 506.501 280.898 501.787 276.184C497.073 271.47 497.076 263.824 501.794 259.106C506.512 254.388 514.158 254.385 518.872 259.099C523.586 263.813 523.583 271.459 518.865 276.177Z" fill="#FFB433"/>
<path d="M477.977 252.374C482.939 257.336 490.988 257.333 495.954 252.367C500.92 247.401 500.924 239.352 495.962 234.39C490.999 229.428 482.951 229.431 477.985 234.397C473.018 239.363 473.015 247.412 477.977 252.374Z" fill="#FFB433"/>
<path d="M473.043 228.557C467.829 233.771 459.378 233.775 454.168 228.564C448.957 223.354 448.961 214.903 454.175 209.689C459.39 204.474 467.841 204.471 473.051 209.681C478.261 214.891 478.258 223.342 473.043 228.557Z" fill="#FFB433"/>
<path d="M403.852 180.047C404.002 180.198 404.155 180.344 404.311 180.487C404.375 180.557 404.44 180.627 404.506 180.696L404.556 180.748L404.598 180.791L404.654 180.848C404.686 180.881 404.718 180.913 404.75 180.946C410.457 186.652 419.713 186.649 425.424 180.937C431.135 175.226 431.139 165.97 425.432 160.264C425.282 160.113 425.129 159.967 424.974 159.824C424.831 159.669 424.684 159.516 424.534 159.365C418.827 153.659 409.572 153.663 403.86 159.374C398.149 165.085 398.145 174.341 403.852 180.047Z" fill="#FFB433"/>
<path d="M449.233 205.646C443.77 211.109 434.917 211.112 429.459 205.654C424 200.196 424.004 191.342 429.467 185.879C434.93 180.416 443.783 180.413 449.241 185.871C454.7 191.33 454.696 200.183 449.233 205.646Z" fill="#FFB433"/>
<path d="M448.263 379.124C453.721 384.583 453.718 393.436 448.255 398.899C442.792 404.362 433.938 404.365 428.48 398.907C423.022 393.449 423.025 384.595 428.488 379.132C433.951 373.67 442.805 373.666 448.263 379.124Z" fill="#FFB433"/>
<path d="M470.267 421.811C474.985 417.093 474.988 409.446 470.274 404.732C465.56 400.018 457.914 400.022 453.196 404.739C448.478 409.457 448.475 417.104 453.189 421.818C457.903 426.532 465.549 426.529 470.267 421.811Z" fill="#FFB433"/>
<path d="M491.836 431.689C495.061 434.914 495.059 440.146 491.831 443.374C488.603 446.602 483.371 446.604 480.146 443.379C476.92 440.153 476.922 434.922 480.15 431.694C483.379 428.466 488.61 428.464 491.836 431.689Z" fill="#FFB433"/>
<path d="M511.597 463.141C512.839 461.899 512.84 459.887 511.599 458.646C510.359 457.406 508.346 457.407 507.105 458.648C505.863 459.89 505.862 461.902 507.103 463.142C508.344 464.383 510.356 464.382 511.597 463.141Z" fill="#FFB433"/>
<path d="M327.867 256.93C333.822 262.885 333.818 272.543 327.859 278.503C321.899 284.462 312.241 284.466 306.286 278.512C300.332 272.557 300.336 262.899 306.295 256.939C312.255 250.98 321.913 250.976 327.867 256.93Z" fill="#FFB433"/>
<path d="M352.117 302.762C358.077 296.802 358.081 287.144 352.126 281.189C346.172 275.235 336.513 275.239 330.554 281.198C324.594 287.158 324.59 296.816 330.545 302.771C336.5 308.725 346.158 308.721 352.117 302.762Z" fill="#FFB433"/>
<path d="M376.385 305.448C382.34 311.403 382.336 321.061 376.376 327.021C370.417 332.98 360.759 332.984 354.804 327.029C348.849 321.075 348.853 311.417 354.813 305.457C360.772 299.498 370.431 299.494 376.385 305.448Z" fill="#FFB433"/>
<path d="M400.635 351.28C406.595 345.32 406.599 335.662 400.644 329.707C394.69 323.753 385.031 323.757 379.072 329.716C373.112 335.676 373.108 345.334 379.063 351.288C385.018 357.243 394.676 357.239 400.635 351.28Z" fill="#FFB433"/>
<path d="M424.454 353.517C430.16 359.223 429.955 368.681 423.996 374.64C418.036 380.6 408.579 380.805 402.873 375.098C397.166 369.392 397.371 359.934 403.331 353.975C409.29 348.015 418.747 347.81 424.454 353.517Z" fill="#FFB433"/>
<path d="M423.976 423.178C429.439 417.715 429.442 408.862 423.984 403.403C418.526 397.945 409.672 397.948 404.209 403.411C398.746 408.874 398.743 417.728 404.201 423.186C409.66 428.644 418.513 428.641 423.976 423.178Z" fill="#FFB433"/>
<path d="M447.344 428.561C452.306 433.524 452.303 441.572 447.336 446.538C442.37 451.505 434.321 451.508 429.359 446.546C424.397 441.584 424.4 433.535 429.367 428.569C434.333 423.603 442.382 423.599 447.344 428.561Z" fill="#FFB433"/>
<path d="M469.349 467.652C473.074 463.928 473.077 457.891 469.355 454.17C465.633 450.448 459.597 450.45 455.872 454.175C452.148 457.9 452.145 463.936 455.867 467.658C459.588 471.379 465.625 471.377 469.349 467.652Z" fill="#FFB433"/>
<path d="M488.669 482.475C490.157 483.964 490.156 486.379 488.666 487.868C487.177 489.358 484.762 489.359 483.273 487.871C481.785 486.382 481.786 483.967 483.276 482.478C484.765 480.988 487.18 480.987 488.669 482.475Z" fill="#FFB433"/>
<path d="M303.58 302.782C309.539 296.822 309.543 287.164 303.588 281.209C297.634 275.255 287.976 275.259 282.016 281.218C276.057 287.178 276.053 296.836 282.007 302.791C287.962 308.745 297.62 308.741 303.58 302.782Z" fill="#FFB433"/>
<path d="M327.847 305.468C333.802 311.423 333.798 321.081 327.839 327.041C321.879 333 312.221 333.004 306.266 327.049C300.312 321.095 300.316 311.437 306.275 305.477C312.235 299.518 321.893 299.514 327.847 305.468Z" fill="#FFB433"/>
<path d="M352.097 351.3C358.057 345.34 358.061 335.682 352.106 329.727C346.152 323.773 336.493 323.777 330.534 329.736C324.574 335.696 324.57 345.354 330.525 351.308C336.48 357.263 346.138 357.259 352.097 351.3Z" fill="#FFB433"/>
<path d="M376.365 353.986C382.32 359.941 382.316 369.599 376.356 375.558C370.397 381.518 360.739 381.522 354.784 375.567C348.829 369.613 348.833 359.954 354.793 353.995C360.752 348.035 370.411 348.031 376.365 353.986Z" fill="#FFB433"/>
<path d="M399.717 398.919C405.676 392.959 405.882 383.502 400.175 377.796C394.469 372.089 385.011 372.294 379.052 378.254C373.092 384.213 372.887 393.671 378.594 399.377C384.3 405.084 393.757 404.878 399.717 398.919Z" fill="#FFB433"/>
<path d="M233.478 281.238C239.438 275.279 249.096 275.275 255.051 281.229C261.005 287.184 261.001 296.842 255.042 302.802C249.082 308.761 239.424 308.765 233.469 302.811C227.515 296.856 227.519 287.198 233.478 281.238Z" fill="#FFB433"/>
<path d="M230.792 256.97C224.837 251.016 215.179 251.02 209.219 256.979C203.26 262.939 203.256 272.597 209.21 278.552C215.165 284.506 224.823 284.502 230.783 278.543C236.742 272.583 236.746 262.925 230.792 256.97Z" fill="#FFB433"/>
<path d="M184.96 232.72C190.92 226.761 200.578 226.757 206.533 232.711C212.487 238.666 212.483 248.324 206.524 254.284C200.564 260.243 190.906 260.247 184.951 254.293C178.997 248.338 179.001 238.68 184.96 232.72Z" fill="#FFB433"/>
<path d="M182.723 208.902C177.016 203.195 167.559 203.4 161.6 209.36C155.64 215.319 155.435 224.776 161.142 230.483C166.848 236.189 176.305 235.984 182.265 230.025C188.224 224.065 188.429 214.608 182.723 208.902Z" fill="#FFB433"/>
<path d="M113.062 209.38C118.525 203.917 127.378 203.913 132.837 209.372C138.295 214.83 138.291 223.683 132.828 229.146C127.366 234.609 118.512 234.613 113.054 229.154C107.595 223.696 107.599 214.843 113.062 209.38Z" fill="#FFB433"/>
<path d="M107.228 187.36C102.514 182.646 94.8682 182.649 90.1503 187.367C85.4323 192.085 85.4292 199.731 90.1432 204.446C94.8573 209.16 102.503 209.156 107.221 204.438C111.939 199.721 111.942 192.074 107.228 187.36Z" fill="#FFB433"/>
<path d="M68.5868 165.804C71.8148 162.576 77.0464 162.574 80.2718 165.799C83.4972 169.024 83.4951 174.256 80.267 177.484C77.0389 180.712 71.8074 180.714 68.582 177.489C65.3565 174.263 65.3587 169.032 68.5868 165.804Z" fill="#FFB433"/>
<path d="M53.3145 146.035C52.0739 144.795 50.0618 144.796 48.8202 146.037C47.5787 147.279 47.5778 149.291 48.8184 150.532C50.0589 151.772 52.0711 151.771 53.3126 150.53C54.5542 149.288 54.555 147.276 53.3145 146.035Z" fill="#FFB433"/>
<path d="M230.772 305.508C224.817 299.554 215.159 299.558 209.199 305.517C203.24 311.477 203.236 321.135 209.19 327.089C215.145 333.044 224.803 333.04 230.763 327.081C236.722 321.121 236.726 311.463 230.772 305.508Z" fill="#FFB433"/>
<path d="M184.94 281.258C190.9 275.299 200.558 275.295 206.513 281.249C212.467 287.204 212.463 296.862 206.504 302.822C200.544 308.781 190.886 308.785 184.931 302.831C178.977 296.876 178.981 287.218 184.94 281.258Z" fill="#FFB433"/>
<path d="M182.254 256.99C176.299 251.036 166.641 251.04 160.681 256.999C154.722 262.959 154.718 272.617 160.672 278.572C166.627 284.526 176.285 284.522 182.245 278.563C188.204 272.603 188.208 262.945 182.254 256.99Z" fill="#FFB433"/>
<path d="M137.321 233.639C143.28 227.679 152.738 227.474 158.444 233.181C164.15 238.887 163.945 248.344 157.986 254.304C152.026 260.263 142.569 260.468 136.863 254.762C131.156 249.055 131.361 239.598 137.321 233.639Z" fill="#FFB433"/>
<path d="M108.108 233.201C102.898 227.991 94.4471 227.994 89.2325 233.209C84.018 238.424 84.0145 246.875 89.2248 252.085C94.435 257.295 102.886 257.292 108.101 252.077C113.315 246.863 113.319 238.412 108.108 233.201Z" fill="#FFB433"/>
<path d="M67.2194 212.095C71.6891 207.626 78.9328 207.623 83.3987 212.089C87.8647 216.554 87.8617 223.798 83.3921 228.268C78.9224 232.737 71.6787 232.74 67.2128 228.274C62.7468 223.809 62.7498 216.565 67.2194 212.095Z" fill="#FFB433"/>
<path d="M54.6444 190.528C52.1633 188.047 48.139 188.049 45.6559 190.532C43.1728 193.015 43.1711 197.039 45.6522 199.52C48.1333 202.001 52.1576 202 54.6407 199.516C57.1238 197.033 57.1255 193.009 54.6444 190.528Z" fill="#FFB433"/>
<path d="M25.4405 169.417C26.682 168.175 28.6942 168.175 29.9347 169.415C31.1753 170.656 31.1744 172.668 29.9329 173.909C28.6913 175.151 26.6792 175.152 25.4386 173.911C24.1981 172.671 24.1989 170.659 25.4405 169.417Z" fill="#FFB433"/>
<path d="M184.92 329.796C190.88 323.837 200.538 323.833 206.493 329.787C212.447 335.742 212.443 345.4 206.484 351.36C200.524 357.319 190.866 357.323 184.911 351.368C178.957 345.414 178.961 335.756 184.92 329.796Z" fill="#FFB433"/>
<path d="M182.234 305.528C176.279 299.574 166.621 299.578 160.661 305.537C154.702 311.497 154.698 321.155 160.652 327.109C166.607 333.064 176.265 333.06 182.225 327.101C188.184 321.141 188.188 311.483 182.234 305.528Z" fill="#FFB433"/>
<path d="M136.402 281.278C142.362 275.319 152.02 275.315 157.975 281.269C163.929 287.224 163.925 296.882 157.966 302.842C152.006 308.801 142.348 308.805 136.393 302.851C130.439 296.896 130.443 287.238 136.402 281.278Z" fill="#FFB433"/>
<path d="M134.165 257.46C128.459 251.753 119.001 251.958 113.042 257.918C107.082 263.877 106.877 273.334 112.584 279.041C118.29 284.747 127.747 284.542 133.707 278.583C139.666 272.623 139.872 263.166 134.165 257.46Z" fill="#FFB433"/>
<path d="M66.3009 259.735C70.7706 255.265 78.0143 255.262 82.4802 259.728C86.9462 264.194 86.9432 271.438 82.4736 275.907C78.0039 280.377 70.7602 280.38 66.2943 275.914C61.8283 271.448 61.8313 264.204 66.3009 259.735Z" fill="#FFB433"/>
<path d="M57.3213 238.166C53.8478 234.692 48.2138 234.695 44.7374 238.171C41.2611 241.647 41.2587 247.281 44.7322 250.755C48.2058 254.228 53.8398 254.226 57.3161 250.75C60.7925 247.273 60.7949 241.639 57.3213 238.166Z" fill="#FFB433"/>
<path d="M23.1739 216.608C24.6638 215.118 27.0784 215.117 28.567 216.605C30.0557 218.094 30.0547 220.509 28.5648 221.998C27.0749 223.488 24.6603 223.489 23.1717 222.001C21.6831 220.512 21.684 218.097 23.1739 216.608Z" fill="#FFB433"/>
<path d="M108.987 282.638C103.777 277.427 95.3256 277.431 90.111 282.645C84.8965 287.86 84.893 296.311 90.1033 301.521C95.3135 306.732 103.765 306.728 108.979 301.514C114.194 296.299 114.197 287.848 108.987 282.638Z" fill="#FFB433"/>
<path d="M113.022 306.456C118.485 300.993 127.338 300.989 132.797 306.447C138.255 311.906 138.251 320.759 132.788 326.222C127.326 331.685 118.472 331.689 113.014 326.23C107.555 320.772 107.559 311.918 113.022 306.456Z" fill="#FFB433"/>
<path d="M157.506 329.358C151.799 323.651 142.543 323.655 136.832 329.366C131.121 335.078 131.117 344.333 136.823 350.04C142.53 355.746 151.786 355.743 157.497 350.031C163.208 344.32 163.212 335.064 157.506 329.358Z" fill="#FFB433"/>
<path d="M182.214 354.066C176.259 348.111 166.601 348.115 160.641 354.075C154.682 360.034 154.678 369.693 160.632 375.647C166.587 381.602 176.245 381.598 182.205 375.638C188.164 369.679 188.168 360.021 182.214 354.066Z" fill="#FFB433"/>
<path d="M43.3701 284.462C47.0948 280.738 53.1312 280.735 56.8528 284.457C60.5745 288.178 60.572 294.215 56.8473 297.94C53.1226 301.664 47.0862 301.667 43.3645 297.945C39.6429 294.224 39.6454 288.187 43.3701 284.462Z" fill="#FFB433"/>
<path d="M29.4462 264.244C27.4614 262.259 24.2419 262.26 22.2554 264.247C20.2689 266.233 20.2676 269.453 22.2525 271.438C24.2374 273.423 27.4568 273.421 29.4433 271.435C31.4298 269.448 31.4311 266.229 29.4462 264.244Z" fill="#FFB433"/>
<path d="M66.7306 307.823C71.4485 303.105 79.0947 303.102 83.8087 307.816C88.5228 312.53 88.5196 320.176 83.8017 324.894C79.0837 329.612 71.4376 329.615 66.7235 324.901C62.0095 320.187 62.0126 312.541 66.7306 307.823Z" fill="#FFB433"/>
<path d="M107.618 331.626C102.656 326.663 94.6077 326.667 89.6414 331.633C84.6752 336.599 84.6719 344.648 89.634 349.61C94.5962 354.572 102.645 354.569 107.611 349.603C112.577 344.636 112.581 336.588 107.618 331.626Z" fill="#FFB433"/>
<path d="M112.552 355.443C117.767 350.228 126.218 350.225 131.428 355.435C136.638 360.646 136.635 369.097 131.42 374.311C126.206 379.526 117.755 379.529 112.545 374.319C107.334 369.109 107.338 360.658 112.552 355.443Z" fill="#FFB433"/>
<path d="M136.362 378.354C141.825 372.891 150.679 372.887 156.137 378.346C161.595 383.804 161.592 392.658 156.129 398.12C150.666 403.583 141.813 403.587 136.354 398.129C130.896 392.67 130.899 383.817 136.362 378.354Z" fill="#FFB433"/>
<path d="M30.7747 312.332C28.5417 310.099 24.9199 310.1 22.6851 312.335C20.4502 314.57 20.4487 318.192 22.6817 320.425C24.9147 322.658 28.5366 322.656 30.7714 320.422C33.0062 318.187 33.0077 314.565 30.7747 312.332Z" fill="#FFB433"/>
<path d="M1.57116 290.322C2.56441 289.329 4.17412 289.328 5.16656 290.321C6.15899 291.313 6.15833 292.923 5.16508 293.916C4.17183 294.909 2.56211 294.91 1.56968 293.918C0.577247 292.925 0.57791 291.315 1.57116 290.322Z" fill="#FFB433"/>
<path d="M58.1806 334.342C54.7071 330.869 49.073 330.871 45.5967 334.348C42.1203 337.824 42.118 343.458 45.5915 346.932C49.065 350.405 54.699 350.403 58.1754 346.926C61.6518 343.45 61.6541 337.816 58.1806 334.342Z" fill="#FFB433"/>
<path d="M66.7106 356.361C70.9319 352.139 77.7732 352.137 81.991 356.354C86.2089 360.572 86.206 367.414 81.9847 371.635C77.7634 375.856 70.9221 375.859 66.7043 371.641C62.4864 367.423 62.4892 360.582 66.7106 356.361Z" fill="#FFB433"/>
<path d="M107.149 379.714C102.435 375 94.789 375.003 90.071 379.721C85.3531 384.439 85.3499 392.085 90.064 396.799C94.7781 401.513 102.424 401.51 107.142 396.792C111.86 392.074 111.863 384.428 107.149 379.714Z" fill="#FFB433"/>
<path d="M130.959 403.524C125.997 398.562 117.948 398.565 112.982 403.531C108.016 408.498 108.012 416.546 112.974 421.508C117.937 426.47 125.985 426.467 130.951 421.501C135.918 416.535 135.921 408.486 130.959 403.524Z" fill="#FFB433"/>
<path d="M23.5635 361.772C25.3017 360.033 28.1187 360.032 29.8555 361.769C31.5923 363.506 31.5911 366.323 29.8529 368.061C28.1147 369.799 25.2977 369.8 23.561 368.064C21.8242 366.327 21.8254 363.51 23.5635 361.772Z" fill="#FFB433"/>
<path d="M54.5644 384.68C52.0833 382.198 48.0591 382.2 45.5759 384.683C43.0928 387.166 43.0911 391.191 45.5722 393.672C48.0533 396.153 52.0776 396.151 54.5607 393.668C57.0438 391.185 57.0455 387.161 54.5644 384.68Z" fill="#FFB433"/>
<path d="M68.4875 406.696C71.7156 403.468 76.9472 403.465 80.1726 406.691C83.398 409.916 83.3958 415.148 80.1678 418.376C76.9397 421.604 71.7081 421.606 68.4827 418.381C65.2573 415.155 65.2595 409.924 68.4875 406.696Z" fill="#FFB433"/>
<path d="M90.9495 429.158C94.6742 425.433 100.711 425.43 104.432 429.152C108.154 432.874 108.151 438.91 104.427 442.635C100.702 446.36 94.6656 446.362 90.944 442.64C87.2223 438.919 87.2248 432.882 90.9495 429.158Z" fill="#FFB433"/>
<path d="M52.2968 434.567C51.0562 433.326 49.0441 433.327 47.8025 434.569C46.5609 435.81 46.5601 437.822 47.8007 439.063C49.0412 440.303 51.0533 440.302 52.2949 439.061C53.5365 437.819 53.5373 435.807 52.2968 434.567Z" fill="#FFB433"/>
<path d="M71.6126 457.479C73.1025 455.989 75.517 455.988 77.0057 457.477C78.4943 458.966 78.4933 461.38 77.0035 462.87C75.5136 464.36 73.099 464.361 71.6104 462.872C70.1217 461.384 70.1227 458.969 71.6126 457.479Z" fill="#FFB433"/>
<path d="M210.178 112.264C204.715 117.727 204.711 126.58 210.17 132.039C215.628 137.497 224.481 137.493 229.944 132.031C235.407 126.568 235.411 117.714 229.952 112.256C224.494 106.797 215.641 106.801 210.178 112.264Z" fill="#FFB433"/>
<path d="M188.158 106.43C183.444 101.716 183.447 94.0703 188.165 89.3523C192.883 84.6344 200.529 84.6312 205.243 89.3453C209.958 94.0594 209.954 101.706 205.236 106.423C200.518 111.141 192.872 111.145 188.158 106.43Z" fill="#FFB433"/>
<path d="M166.602 67.7888C163.374 71.0169 163.372 76.2485 166.597 79.4739C169.822 82.6993 175.054 82.6971 178.282 79.4691C181.51 76.241 181.512 71.0094 178.287 67.784C175.061 64.5586 169.83 64.5608 166.602 67.7888Z" fill="#FFB433"/>
<path d="M146.833 52.5165C145.593 51.276 145.594 49.2638 146.835 48.0223C148.077 46.7807 150.089 46.7799 151.329 48.0204C152.57 49.261 152.569 51.2731 151.328 52.5147C150.086 53.7562 148.074 53.7571 146.833 52.5165Z" fill="#FFB433"/>
<path d="M306.306 229.974C300.352 224.019 300.355 214.361 306.315 208.401C312.274 202.442 321.933 202.438 327.887 208.392C333.842 214.347 333.838 224.005 327.879 229.965C321.919 235.924 312.261 235.928 306.306 229.974Z" fill="#FFB433"/>
<path d="M282.056 184.142C276.097 190.102 276.093 199.76 282.047 205.715C288.002 211.669 297.66 211.665 303.62 205.706C309.579 199.746 309.583 190.088 303.628 184.133C297.674 178.179 288.016 178.183 282.056 184.142Z" fill="#FFB433"/>
<path d="M257.788 181.456C251.834 175.501 251.838 165.843 257.797 159.883C263.757 153.924 273.415 153.92 279.369 159.874C285.324 165.829 285.32 175.487 279.361 181.447C273.401 187.406 263.743 187.41 257.788 181.456Z" fill="#FFB433"/>
<path d="M234.437 136.523C228.477 142.482 228.272 151.94 233.979 157.646C239.685 163.353 249.142 163.147 255.102 157.188C261.061 151.228 261.266 141.771 255.56 136.065C249.853 130.358 240.396 130.563 234.437 136.523Z" fill="#FFB433"/>
<path d="M233.999 107.31C228.789 102.1 228.792 93.6492 234.007 88.4346C239.222 83.2201 247.673 83.2166 252.883 88.4268C258.093 93.6371 258.09 102.088 252.875 107.303C247.661 112.517 239.21 112.521 233.999 107.31Z" fill="#FFB433"/>
<path d="M212.893 66.4215C208.423 70.8911 208.42 78.1348 212.886 82.6008C217.352 87.0667 224.596 87.0637 229.066 82.5941C233.535 78.1245 233.538 70.8808 229.072 66.4148C224.606 61.9489 217.363 61.9519 212.893 66.4215Z" fill="#FFB433"/>
<path d="M191.326 53.8465C188.845 51.3654 188.846 47.3411 191.33 44.858C193.813 42.3749 197.837 42.3732 200.318 44.8543C202.799 47.3354 202.798 51.3596 200.314 53.8428C197.831 56.3259 193.807 56.3276 191.326 53.8465Z" fill="#FFB433"/>
<path d="M170.215 24.6426C168.973 25.8841 168.973 27.8963 170.213 29.1368C171.454 30.3773 173.466 30.3765 174.707 29.135C175.949 27.8934 175.95 25.8812 174.709 24.6407C173.469 23.4002 171.457 23.401 170.215 24.6426Z" fill="#FFB433"/>
<path d="M330.594 184.122C324.634 190.082 324.63 199.74 330.585 205.695C336.54 211.649 346.198 211.645 352.157 205.686C358.117 199.726 358.121 190.068 352.166 184.113C346.212 178.159 336.553 178.163 330.594 184.122Z" fill="#FFB433"/>
<path d="M306.326 181.436C300.372 175.481 300.375 165.823 306.335 159.863C312.294 153.904 321.953 153.9 327.907 159.854C333.862 165.809 333.858 175.467 327.899 181.427C321.939 187.386 312.281 187.39 306.326 181.436Z" fill="#FFB433"/>
<path d="M282.076 135.604C276.117 141.564 276.113 151.222 282.067 157.177C288.022 163.131 297.68 163.127 303.64 157.168C309.599 151.208 309.603 141.55 303.648 135.596C297.694 129.641 288.036 129.645 282.076 135.604Z" fill="#FFB433"/>
<path d="M258.257 133.367C252.551 127.661 252.756 118.203 258.716 112.244C264.675 106.284 274.132 106.079 279.839 111.786C285.545 117.492 285.34 126.949 279.381 132.909C273.421 138.868 263.964 139.074 258.257 133.367Z" fill="#FFB433"/>
<path d="M260.533 65.503C256.063 69.9726 256.06 77.2164 260.526 81.6823C264.992 86.1483 272.236 86.1453 276.705 81.6757C281.175 77.206 281.178 69.9623 276.712 65.4963C272.246 61.0304 265.002 61.0334 260.533 65.503Z" fill="#FFB433"/>
<path d="M238.964 56.5234C235.49 53.0499 235.493 47.4159 238.969 43.9395C242.445 40.4631 248.079 40.4608 251.553 43.9343C255.026 47.4078 255.024 53.0418 251.548 56.5182C248.071 59.9946 242.437 59.9969 238.964 56.5234Z" fill="#FFB433"/>
<path d="M217.405 22.376C215.916 23.8659 215.915 26.2804 217.403 27.7691C218.892 29.2577 221.307 29.2567 222.796 27.7669C224.286 26.277 224.287 23.8624 222.799 22.3738C221.31 20.8851 218.895 20.8861 217.405 22.376Z" fill="#FFB433"/>
<path d="M283.436 108.189C278.225 102.979 278.229 94.5277 283.443 89.3131C288.658 84.0985 297.109 84.095 302.319 89.3053C307.53 94.5156 307.526 102.967 302.311 108.181C297.097 113.396 288.646 113.399 283.436 108.189Z" fill="#FFB433"/>
<path d="M307.253 112.224C301.791 117.687 301.787 126.54 307.245 131.999C312.704 137.457 321.557 137.453 327.02 131.991C332.483 126.528 332.487 117.674 327.028 112.216C321.57 106.757 312.716 106.761 307.253 112.224Z" fill="#FFB433"/>
<path d="M330.156 156.708C324.449 151.001 324.453 141.745 330.164 136.034C335.876 130.323 345.131 130.319 350.838 136.026C356.544 141.732 356.541 150.988 350.829 156.699C345.118 162.41 335.862 162.414 330.156 156.708Z" fill="#FFB433"/>
<path d="M354.864 181.416C348.909 175.461 348.913 165.803 354.873 159.843C360.832 153.884 370.491 153.88 376.445 159.834C382.4 165.789 382.396 175.447 376.436 181.407C370.477 187.366 360.819 187.37 354.864 181.416Z" fill="#FFB433"/>
<path d="M285.26 42.5722C281.536 46.2969 281.533 52.3333 285.255 56.0549C288.976 59.7765 295.013 59.7741 298.738 56.0494C302.462 52.3246 302.465 46.2882 298.743 42.5666C295.021 38.845 288.985 38.8474 285.26 42.5722Z" fill="#FFB433"/>
<path d="M265.042 28.6483C263.057 26.6634 263.058 23.444 265.045 21.4575C267.031 19.471 270.251 19.4697 272.236 21.4545C274.221 23.4394 274.219 26.6589 272.233 28.6453C270.246 30.6319 267.027 30.6332 265.042 28.6483Z" fill="#FFB433"/>
<path d="M308.621 65.9326C303.903 70.6506 303.9 78.2967 308.614 83.0108C313.328 87.7248 320.974 87.7217 325.692 83.0038C330.41 78.2858 330.413 70.6397 325.699 65.9256C320.985 61.2115 313.339 61.2147 308.621 65.9326Z" fill="#FFB433"/>
<path d="M332.423 106.82C327.461 101.858 327.465 93.8098 332.431 88.8435C337.397 83.8772 345.446 83.8739 350.408 88.8361C355.37 93.7982 355.367 101.847 350.4 106.813C345.434 111.779 337.386 111.783 332.423 106.82Z" fill="#FFB433"/>
<path d="M356.241 111.754C351.026 116.969 351.023 125.42 356.233 130.63C361.443 135.84 369.894 135.837 375.109 130.622C380.324 125.408 380.327 116.957 375.117 111.747C369.907 106.536 361.456 106.54 356.241 111.754Z" fill="#FFB433"/>
<path d="M379.152 135.564C373.689 141.027 373.685 149.881 379.144 155.339C384.602 160.798 393.456 160.794 398.918 155.331C404.381 149.868 404.385 141.015 398.927 135.556C393.468 130.098 384.615 130.102 379.152 135.564Z" fill="#FFB433"/>
<path d="M313.13 29.9768C310.897 27.7438 310.898 24.122 313.133 21.8871C315.368 19.6523 318.99 19.6508 321.223 21.8838C323.456 24.1168 323.454 27.7386 321.22 29.9734C318.985 32.2083 315.363 32.2097 313.13 29.9768Z" fill="#FFB433"/>
<path d="M291.12 0.773218C290.127 1.76649 290.126 3.3762 291.119 4.36863C292.111 5.36106 293.721 5.3604 294.714 4.36713C295.707 3.37389 295.708 1.76418 294.715 0.771745C293.723 -0.220687 292.113 -0.220029 291.12 0.773218Z" fill="#FFB433"/>
<path d="M335.14 57.3826C331.667 53.9091 331.669 48.2751 335.146 44.7987C338.622 41.3223 344.256 41.32 347.729 44.7935C351.203 48.267 351.201 53.901 347.724 57.3774C344.248 60.8538 338.614 60.8561 335.14 57.3826Z" fill="#FFB433"/>
<path d="M357.159 65.9126C352.937 70.1339 352.935 76.9752 357.152 81.1931C361.37 85.4109 368.212 85.4081 372.433 81.1868C376.654 76.9655 376.657 70.1242 372.439 65.9063C368.221 61.6885 361.38 61.6913 357.159 65.9126Z" fill="#FFB433"/>
<path d="M380.512 106.351C375.798 101.637 375.801 93.991 380.519 89.2731C385.237 84.5552 392.883 84.552 397.597 89.2661C402.311 93.9801 402.308 101.626 397.59 106.344C392.872 111.062 385.226 111.065 380.512 106.351Z" fill="#FFB433"/>
<path d="M404.322 130.161C399.36 125.199 399.363 117.15 404.329 112.184C409.296 107.218 417.344 107.214 422.306 112.177C427.268 117.139 427.265 125.187 422.299 130.154C417.333 135.12 409.284 135.123 404.322 130.161Z" fill="#FFB433"/>
<path d="M362.57 22.7656C360.831 24.5038 360.83 27.3208 362.567 29.0576C364.304 30.7943 367.121 30.7932 368.859 29.055C370.597 27.3168 370.598 24.4998 368.862 22.763C367.125 21.0262 364.308 21.0274 362.57 22.7656Z" fill="#FFB433"/>
<path d="M385.478 53.7665C382.996 51.2854 382.998 47.2611 385.481 44.778C387.964 42.2949 391.989 42.2932 394.47 44.7743C396.951 47.2554 396.949 51.2797 394.466 53.7628C391.983 56.2459 387.959 56.2476 385.478 53.7665Z" fill="#FFB433"/>
<path d="M407.494 67.6896C404.266 70.9177 404.263 76.1492 407.489 79.3746C410.714 82.6 415.946 82.5979 419.174 79.3698C422.402 76.1418 422.404 70.9102 419.179 67.6848C415.953 64.4594 410.722 64.4615 407.494 67.6896Z" fill="#FFB433"/>
<path d="M429.956 90.1516C426.231 93.8763 426.228 99.9127 429.95 103.634C433.672 107.356 439.708 107.353 443.433 103.629C447.157 99.9041 447.16 93.8677 443.438 90.146C439.717 86.4244 433.68 86.4269 429.956 90.1516Z" fill="#FFB433"/>
<path d="M205.673 136.535C200.215 131.076 191.362 131.08 185.899 136.543C180.436 142.006 180.432 150.859 185.891 156.318C191.349 161.776 200.202 161.772 205.665 156.309C211.128 150.847 211.132 141.993 205.673 136.535Z" fill="#FFB433"/>
<path d="M162.987 114.531C167.705 109.813 175.351 109.809 180.065 114.523C184.779 119.238 184.776 126.884 180.058 131.602C175.34 136.32 167.694 136.323 162.98 131.609C158.266 126.895 158.269 119.248 162.987 114.531Z" fill="#FFB433"/>
<path d="M153.109 92.9622C149.883 89.7368 144.652 89.7389 141.424 92.967C138.196 96.1951 138.193 101.427 141.419 104.652C144.644 107.877 149.876 107.875 153.104 104.647C156.332 101.419 156.334 96.1876 153.109 92.9622Z" fill="#FFB433"/>
<path d="M121.657 73.2005C122.899 71.9589 124.911 71.9581 126.151 73.1986C127.392 74.4391 127.391 76.4513 126.149 77.6929C124.908 78.9344 122.896 78.9352 121.655 77.6947C120.415 76.4541 120.415 74.442 121.657 73.2005Z" fill="#FFB433"/>
<path d="M282.036 232.68C287.996 226.721 297.654 226.717 303.608 232.671C309.563 238.626 309.559 248.284 303.6 254.244C297.64 260.203 287.982 260.207 282.027 254.253C276.073 248.298 276.077 238.64 282.036 232.68Z" fill="#FFB433"/>
<path d="M279.349 208.412C273.395 202.458 263.737 202.462 257.777 208.421C251.818 214.381 251.814 224.039 257.768 229.994C263.723 235.948 273.381 235.944 279.341 229.985C285.3 224.025 285.304 214.367 279.349 208.412Z" fill="#FFB433"/>
<path d="M233.518 184.162C239.478 178.203 249.136 178.199 255.091 184.153C261.045 190.108 261.041 199.766 255.082 205.726C249.122 211.685 239.464 211.689 233.509 205.735C227.555 199.78 227.559 190.122 233.518 184.162Z" fill="#FFB433"/>
<path d="M231.281 160.344C225.574 154.637 216.117 154.842 210.158 160.802C204.198 166.761 203.993 176.219 209.7 181.925C215.406 187.631 224.863 187.426 230.823 181.467C236.782 175.507 236.987 166.05 231.281 160.344Z" fill="#FFB433"/>
<path d="M161.62 160.822C167.083 155.359 175.936 155.355 181.394 160.814C186.853 166.272 186.849 175.126 181.386 180.588C175.923 186.051 167.07 186.055 161.612 180.597C156.153 175.138 156.157 166.285 161.62 160.822Z" fill="#FFB433"/>
<path d="M156.236 137.454C151.274 132.492 143.226 132.495 138.259 137.461C133.293 142.428 133.29 150.476 138.252 155.438C143.214 160.401 151.263 160.397 156.229 155.431C161.195 150.465 161.198 142.416 156.236 137.454Z" fill="#FFB433"/>
<path d="M117.145 115.448C120.87 111.724 126.907 111.721 130.628 115.443C134.35 119.164 134.347 125.201 130.623 128.925C126.898 132.65 120.861 132.653 117.14 128.931C113.418 125.209 113.421 119.173 117.145 115.448Z" fill="#FFB433"/>
<path d="M102.322 96.1291C100.834 94.6404 98.4191 94.6414 96.9292 96.1313C95.4394 97.6212 95.4384 100.036 96.927 101.524C98.4157 103.013 100.83 103.012 102.32 101.522C103.81 100.032 103.811 97.6177 102.322 96.1291Z" fill="#FFB433"/>
<path d="M279.33 256.95C273.375 250.996 263.717 251 257.757 256.959C251.798 262.919 251.794 272.577 257.748 278.532C263.703 284.486 273.361 284.482 279.321 278.523C285.28 272.563 285.284 262.905 279.33 256.95Z" fill="#FFB433"/>
<path d="M233.498 232.7C239.458 226.741 249.116 226.737 255.071 232.691C261.025 238.646 261.021 248.304 255.062 254.264C249.102 260.223 239.444 260.227 233.489 254.273C227.535 248.318 227.539 238.66 233.498 232.7Z" fill="#FFB433"/>
<path d="M230.812 208.432C224.857 202.478 215.199 202.482 209.239 208.441C203.28 214.401 203.276 224.059 209.23 230.014C215.185 235.968 224.843 235.964 230.803 230.005C236.762 224.045 236.766 214.387 230.812 208.432Z" fill="#FFB433"/>
<path d="M185.879 185.081C191.838 179.121 201.295 178.916 207.002 184.623C212.708 190.329 212.503 199.786 206.544 205.746C200.584 211.705 191.127 211.91 185.421 206.204C179.714 200.497 179.919 191.04 185.879 185.081Z" fill="#FFB433"/>
</g>
</svg>
