<svg viewBox="0 0 1440 45" fill="none" xmlns="http://www.w3.org/2000/svg">
<rect width="1440" height="43.3436" transform="matrix(-1 0 0 1 1440 0)" fill="#FFE7BD"/>
<circle cx="4.98203" cy="4.98203" r="4.98203" transform="matrix(-1 0 0 1 1440 0)" fill="#FFD388"/>
<circle cx="4.98203" cy="4.98203" r="4.98203" transform="matrix(-1 0 0 1 1428.4 0)" fill="#FFD388"/>
<circle cx="4.98203" cy="4.98203" r="4.98203" transform="matrix(-1 0 0 1 1416.81 0)" fill="#FFD388"/>
<circle cx="4.98203" cy="4.98203" r="4.98203" transform="matrix(-1 0 0 1 1405.21 0)" fill="#FFD388"/>
<circle cx="4.98203" cy="4.98203" r="4.98203" transform="matrix(-1 0 0 1 1393.61 0)" fill="#FFD388"/>
<circle cx="4.98203" cy="4.98203" r="4.98203" transform="matrix(-1 0 0 1 1382.01 0)" fill="#FFD388"/>
<circle cx="4.98203" cy="4.98203" r="4.98203" transform="matrix(-1 0 0 1 1370.42 0)" fill="#FFD388"/>
<circle cx="4.98203" cy="4.98203" r="4.98203" transform="matrix(-1 0 0 1 1358.82 0)" fill="#FFD388"/>
<circle cx="4.98203" cy="4.98203" r="4.98203" transform="matrix(-1 0 0 1 1347.22 0)" fill="#FFD388"/>
<circle cx="4.98203" cy="4.98203" r="4.98203" transform="matrix(-1 0 0 1 1335.62 0)" fill="#FFD388"/>
<circle cx="4.98203" cy="4.98203" r="4.98203" transform="matrix(-1 0 0 1 1324.02 0)" fill="#FFD388"/>
<circle cx="4.98203" cy="4.98203" r="4.98203" transform="matrix(-1 0 0 1 1312.43 0)" fill="#FFD388"/>
<circle cx="4.98203" cy="4.98203" r="4.98203" transform="matrix(-1 0 0 1 1300.83 0)" fill="#FFD388"/>
<circle cx="4.98203" cy="4.98203" r="4.98203" transform="matrix(-1 0 0 1 1289.23 0)" fill="#FFD388"/>
<circle cx="4.98203" cy="4.98203" r="4.98203" transform="matrix(-1 0 0 1 1277.63 0)" fill="#FFD388"/>
<circle cx="4.98203" cy="4.98203" r="4.98203" transform="matrix(-1 0 0 1 1266.04 0)" fill="#FFD388"/>
<circle cx="4.98203" cy="4.98203" r="4.98203" transform="matrix(-1 0 0 1 1254.44 0)" fill="#FFD388"/>
<circle cx="4.98203" cy="4.98203" r="4.98203" transform="matrix(-1 0 0 1 1242.84 0)" fill="#FFD388"/>
<circle cx="4.98203" cy="4.98203" r="4.98203" transform="matrix(-1 0 0 1 1231.25 0)" fill="#FFD388"/>
<circle cx="4.98203" cy="4.98203" r="4.98203" transform="matrix(-1 0 0 1 1219.65 0)" fill="#FFD388"/>
<circle cx="4.98203" cy="4.98203" r="4.98203" transform="matrix(-1 0 0 1 1208.05 0)" fill="#FFD388"/>
<circle cx="4.98203" cy="4.98203" r="4.98203" transform="matrix(-1 0 0 1 1196.45 0)" fill="#FFD388"/>
<circle cx="4.98203" cy="4.98203" r="4.98203" transform="matrix(-1 0 0 1 1184.85 0)" fill="#FFD388"/>
<circle cx="4.98203" cy="4.98203" r="4.98203" transform="matrix(-1 0 0 1 1173.26 0)" fill="#FFD388"/>
<circle cx="4.98203" cy="4.98203" r="4.98203" transform="matrix(-1 0 0 1 1161.66 0)" fill="#FFD388"/>
<circle cx="4.98203" cy="4.98203" r="4.98203" transform="matrix(-1 0 0 1 1150.06 0)" fill="#FFD388"/>
<circle cx="4.98203" cy="4.98203" r="4.98203" transform="matrix(-1 0 0 1 1138.46 0)" fill="#FFD388"/>
<circle cx="4.98203" cy="4.98203" r="4.98203" transform="matrix(-1 0 0 1 1126.87 0)" fill="#FFD388"/>
<circle cx="4.98203" cy="4.98203" r="4.98203" transform="matrix(-1 0 0 1 1115.27 0)" fill="#FFD388"/>
<circle cx="4.98203" cy="4.98203" r="4.98203" transform="matrix(-1 0 0 1 1103.67 0)" fill="#FFD388"/>
<circle cx="4.98203" cy="4.98203" r="4.98203" transform="matrix(-1 0 0 1 1092.07 0)" fill="#FFD388"/>
<circle cx="4.98203" cy="4.98203" r="4.98203" transform="matrix(-1 0 0 1 1080.48 0)" fill="#FFD388"/>
<circle cx="4.98203" cy="4.98203" r="4.98203" transform="matrix(-1 0 0 1 1068.88 0)" fill="#FFD388"/>
<circle cx="4.98203" cy="4.98203" r="4.98203" transform="matrix(-1 0 0 1 1057.28 0)" fill="#FFD388"/>
<circle cx="4.98203" cy="4.98203" r="4.98203" transform="matrix(-1 0 0 1 1045.68 0)" fill="#FFD388"/>
<circle cx="4.98203" cy="4.98203" r="4.98203" transform="matrix(-1 0 0 1 1034.09 0)" fill="#FFD388"/>
<circle cx="4.98203" cy="4.98203" r="4.98203" transform="matrix(-1 0 0 1 1022.49 0)" fill="#FFD388"/>
<circle cx="4.98203" cy="4.98203" r="4.98203" transform="matrix(-1 0 0 1 1010.89 0)" fill="#FFD388"/>
<circle cx="4.98203" cy="4.98203" r="4.98203" transform="matrix(-1 0 0 1 999.295 0)" fill="#FFD388"/>
<circle cx="4.98203" cy="4.98203" r="4.98203" transform="matrix(-1 0 0 1 987.697 0)" fill="#FFD388"/>
<circle cx="4.98203" cy="4.98203" r="4.98203" transform="matrix(-1 0 0 1 976.1 0)" fill="#FFD388"/>
<circle cx="4.98203" cy="4.98203" r="4.98203" transform="matrix(-1 0 0 1 964.502 0)" fill="#FFD388"/>
<circle cx="4.98203" cy="4.98203" r="4.98203" transform="matrix(-1 0 0 1 952.905 0)" fill="#FFD388"/>
<circle cx="4.98203" cy="4.98203" r="4.98203" transform="matrix(-1 0 0 1 941.307 0)" fill="#FFD388"/>
<circle cx="4.98203" cy="4.98203" r="4.98203" transform="matrix(-1 0 0 1 929.71 0)" fill="#FFD388"/>
<circle cx="4.98203" cy="4.98203" r="4.98203" transform="matrix(-1 0 0 1 918.112 0)" fill="#FFD388"/>
<circle cx="4.98203" cy="4.98203" r="4.98203" transform="matrix(-1 0 0 1 906.515 0)" fill="#FFD388"/>
<circle cx="4.98203" cy="4.98203" r="4.98203" transform="matrix(-1 0 0 1 894.917 0)" fill="#FFD388"/>
<circle cx="4.98203" cy="4.98203" r="4.98203" transform="matrix(-1 0 0 1 883.32 0)" fill="#FFD388"/>
<circle cx="4.98203" cy="4.98203" r="4.98203" transform="matrix(-1 0 0 1 871.722 0)" fill="#FFD388"/>
<circle cx="4.98203" cy="4.98203" r="4.98203" transform="matrix(-1 0 0 1 860.125 0)" fill="#FFD388"/>
<circle cx="4.98203" cy="4.98203" r="4.98203" transform="matrix(-1 0 0 1 848.527 0)" fill="#FFD388"/>
<circle cx="4.98203" cy="4.98203" r="4.98203" transform="matrix(-1 0 0 1 836.93 0)" fill="#FFD388"/>
<circle cx="4.98203" cy="4.98203" r="4.98203" transform="matrix(-1 0 0 1 825.332 0)" fill="#FFD388"/>
<circle cx="4.98203" cy="4.98203" r="4.98203" transform="matrix(-1 0 0 1 813.735 0)" fill="#FFD388"/>
<circle cx="4.98203" cy="4.98203" r="4.98203" transform="matrix(-1 0 0 1 802.137 0)" fill="#FFD388"/>
<circle cx="4.98203" cy="4.98203" r="4.98203" transform="matrix(-1 0 0 1 790.54 0)" fill="#FFD388"/>
<circle cx="4.98203" cy="4.98203" r="4.98203" transform="matrix(-1 0 0 1 778.942 0)" fill="#FFD388"/>
<circle cx="4.98203" cy="4.98203" r="4.98203" transform="matrix(-1 0 0 1 767.344 0)" fill="#FFD388"/>
<circle cx="4.98203" cy="4.98203" r="4.98203" transform="matrix(-1 0 0 1 755.747 0)" fill="#FFD388"/>
<circle cx="4.98203" cy="4.98203" r="4.98203" transform="matrix(-1 0 0 1 744.149 0)" fill="#FFD388"/>
<circle cx="4.98203" cy="4.98203" r="4.98203" transform="matrix(-1 0 0 1 732.552 0)" fill="#FFD388"/>
<circle cx="4.48382" cy="4.48382" r="4.48382" transform="matrix(-1 0 0 1 1440 11.957)" fill="#FFD388"/>
<circle cx="4.48382" cy="4.48382" r="4.48382" transform="matrix(-1 0 0 1 1428.39 11.957)" fill="#FFD388"/>
<circle cx="4.48382" cy="4.48382" r="4.48382" transform="matrix(-1 0 0 1 1416.77 11.957)" fill="#FFD388"/>
<circle cx="4.48382" cy="4.48382" r="4.48382" transform="matrix(-1 0 0 1 1405.16 11.957)" fill="#FFD388"/>
<circle cx="4.48382" cy="4.48382" r="4.48382" transform="matrix(-1 0 0 1 1393.54 11.957)" fill="#FFD388"/>
<circle cx="4.48382" cy="4.48382" r="4.48382" transform="matrix(-1 0 0 1 1381.93 11.957)" fill="#FFD388"/>
<circle cx="4.48382" cy="4.48382" r="4.48382" transform="matrix(-1 0 0 1 1370.32 11.957)" fill="#FFD388"/>
<circle cx="4.48382" cy="4.48382" r="4.48382" transform="matrix(-1 0 0 1 1358.7 11.957)" fill="#FFD388"/>
<circle cx="4.48382" cy="4.48382" r="4.48382" transform="matrix(-1 0 0 1 1347.09 11.957)" fill="#FFD388"/>
<circle cx="4.48382" cy="4.48382" r="4.48382" transform="matrix(-1 0 0 1 1335.48 11.957)" fill="#FFD388"/>
<circle cx="4.48382" cy="4.48382" r="4.48382" transform="matrix(-1 0 0 1 1323.86 11.957)" fill="#FFD388"/>
<circle cx="4.48382" cy="4.48382" r="4.48382" transform="matrix(-1 0 0 1 1312.25 11.957)" fill="#FFD388"/>
<circle cx="4.48382" cy="4.48382" r="4.48382" transform="matrix(-1 0 0 1 1300.63 11.957)" fill="#FFD388"/>
<circle cx="4.48382" cy="4.48382" r="4.48382" transform="matrix(-1 0 0 1 1289.02 11.957)" fill="#FFD388"/>
<circle cx="4.48382" cy="4.48382" r="4.48382" transform="matrix(-1 0 0 1 1277.41 11.957)" fill="#FFD388"/>
<circle cx="4.48382" cy="4.48382" r="4.48382" transform="matrix(-1 0 0 1 1265.79 11.957)" fill="#FFD388"/>
<circle cx="4.48382" cy="4.48382" r="4.48382" transform="matrix(-1 0 0 1 1254.18 11.957)" fill="#FFD388"/>
<circle cx="4.48382" cy="4.48382" r="4.48382" transform="matrix(-1 0 0 1 1242.56 11.957)" fill="#FFD388"/>
<circle cx="4.48382" cy="4.48382" r="4.48382" transform="matrix(-1 0 0 1 1230.95 11.957)" fill="#FFD388"/>
<circle cx="4.48382" cy="4.48382" r="4.48382" transform="matrix(-1 0 0 1 1219.34 11.957)" fill="#FFD388"/>
<circle cx="4.48382" cy="4.48382" r="4.48382" transform="matrix(-1 0 0 1 1207.72 11.957)" fill="#FFD388"/>
<circle cx="4.48382" cy="4.48382" r="4.48382" transform="matrix(-1 0 0 1 1196.11 11.957)" fill="#FFD388"/>
<circle cx="4.48382" cy="4.48382" r="4.48382" transform="matrix(-1 0 0 1 1184.5 11.957)" fill="#FFD388"/>
<circle cx="4.48382" cy="4.48382" r="4.48382" transform="matrix(-1 0 0 1 1172.88 11.957)" fill="#FFD388"/>
<circle cx="4.48382" cy="4.48382" r="4.48382" transform="matrix(-1 0 0 1 1161.27 11.957)" fill="#FFD388"/>
<circle cx="4.48382" cy="4.48382" r="4.48382" transform="matrix(-1 0 0 1 1149.65 11.957)" fill="#FFD388"/>
<circle cx="4.48382" cy="4.48382" r="4.48382" transform="matrix(-1 0 0 1 1138.04 11.957)" fill="#FFD388"/>
<circle cx="4.48382" cy="4.48382" r="4.48382" transform="matrix(-1 0 0 1 1126.43 11.957)" fill="#FFD388"/>
<circle cx="4.48382" cy="4.48382" r="4.48382" transform="matrix(-1 0 0 1 1114.81 11.957)" fill="#FFD388"/>
<circle cx="4.48382" cy="4.48382" r="4.48382" transform="matrix(-1 0 0 1 1103.2 11.957)" fill="#FFD388"/>
<circle cx="4.48382" cy="4.48382" r="4.48382" transform="matrix(-1 0 0 1 1091.58 11.957)" fill="#FFD388"/>
<circle cx="4.48382" cy="4.48382" r="4.48382" transform="matrix(-1 0 0 1 1079.97 11.957)" fill="#FFD388"/>
<circle cx="4.48382" cy="4.48382" r="4.48382" transform="matrix(-1 0 0 1 1068.36 11.957)" fill="#FFD388"/>
<circle cx="4.48382" cy="4.48382" r="4.48382" transform="matrix(-1 0 0 1 1056.74 11.957)" fill="#FFD388"/>
<circle cx="4.48382" cy="4.48382" r="4.48382" transform="matrix(-1 0 0 1 1045.13 11.957)" fill="#FFD388"/>
<circle cx="4.48382" cy="4.48382" r="4.48382" transform="matrix(-1 0 0 1 1033.52 11.957)" fill="#FFD388"/>
<circle cx="4.48382" cy="4.48382" r="4.48382" transform="matrix(-1 0 0 1 1021.9 11.957)" fill="#FFD388"/>
<circle cx="4.48382" cy="4.48382" r="4.48382" transform="matrix(-1 0 0 1 1010.29 11.957)" fill="#FFD388"/>
<circle cx="4.48382" cy="4.48382" r="4.48382" transform="matrix(-1 0 0 1 998.674 11.957)" fill="#FFD388"/>
<circle cx="4.48382" cy="4.48382" r="4.48382" transform="matrix(-1 0 0 1 987.061 11.957)" fill="#FFD388"/>
<circle cx="4.48382" cy="4.48382" r="4.48382" transform="matrix(-1 0 0 1 975.447 11.957)" fill="#FFD388"/>
<circle cx="4.48382" cy="4.48382" r="4.48382" transform="matrix(-1 0 0 1 963.833 11.957)" fill="#FFD388"/>
<circle cx="4.48382" cy="4.48382" r="4.48382" transform="matrix(-1 0 0 1 952.219 11.957)" fill="#FFD388"/>
<circle cx="4.48382" cy="4.48382" r="4.48382" transform="matrix(-1 0 0 1 940.605 11.957)" fill="#FFD388"/>
<circle cx="4.48382" cy="4.48382" r="4.48382" transform="matrix(-1 0 0 1 928.991 11.957)" fill="#FFD388"/>
<circle cx="4.48382" cy="4.48382" r="4.48382" transform="matrix(-1 0 0 1 917.377 11.957)" fill="#FFD388"/>
<circle cx="4.48382" cy="4.48382" r="4.48382" transform="matrix(-1 0 0 1 905.764 11.957)" fill="#FFD388"/>
<circle cx="4.48382" cy="4.48382" r="4.48382" transform="matrix(-1 0 0 1 894.149 11.957)" fill="#FFD388"/>
<circle cx="4.48382" cy="4.48382" r="4.48382" transform="matrix(-1 0 0 1 882.536 11.957)" fill="#FFD388"/>
<circle cx="4.48382" cy="4.48382" r="4.48382" transform="matrix(-1 0 0 1 870.922 11.957)" fill="#FFD388"/>
<circle cx="4.48382" cy="4.48382" r="4.48382" transform="matrix(-1 0 0 1 859.308 11.957)" fill="#FFD388"/>
<circle cx="4.48382" cy="4.48382" r="4.48382" transform="matrix(-1 0 0 1 847.694 11.957)" fill="#FFD388"/>
<circle cx="4.48382" cy="4.48382" r="4.48382" transform="matrix(-1 0 0 1 836.081 11.957)" fill="#FFD388"/>
<circle cx="4.48382" cy="4.48382" r="4.48382" transform="matrix(-1 0 0 1 824.467 11.957)" fill="#FFD388"/>
<circle cx="4.48382" cy="4.48382" r="4.48382" transform="matrix(-1 0 0 1 812.853 11.957)" fill="#FFD388"/>
<circle cx="4.48382" cy="4.48382" r="4.48382" transform="matrix(-1 0 0 1 801.239 11.957)" fill="#FFD388"/>
<circle cx="4.48382" cy="4.48382" r="4.48382" transform="matrix(-1 0 0 1 789.625 11.957)" fill="#FFD388"/>
<circle cx="4.48382" cy="4.48382" r="4.48382" transform="matrix(-1 0 0 1 778.011 11.957)" fill="#FFD388"/>
<circle cx="4.48382" cy="4.48382" r="4.48382" transform="matrix(-1 0 0 1 766.397 11.957)" fill="#FFD388"/>
<circle cx="4.48382" cy="4.48382" r="4.48382" transform="matrix(-1 0 0 1 754.784 11.957)" fill="#FFD388"/>
<circle cx="4.48382" cy="4.48382" r="4.48382" transform="matrix(-1 0 0 1 743.17 11.957)" fill="#FFD388"/>
<circle cx="4.48382" cy="4.48382" r="4.48382" transform="matrix(-1 0 0 1 731.556 11.957)" fill="#FFD388"/>
<circle cx="3.73652" cy="3.73652" r="3.73652" transform="matrix(-1 0 0 1 1440 22.918)" fill="#FFD388"/>
<circle cx="3.73652" cy="3.73652" r="3.73652" transform="matrix(-1 0 0 1 1428.36 22.918)" fill="#FFD388"/>
<circle cx="3.73652" cy="3.73652" r="3.73652" transform="matrix(-1 0 0 1 1416.72 22.918)" fill="#FFD388"/>
<circle cx="3.73652" cy="3.73652" r="3.73652" transform="matrix(-1 0 0 1 1405.08 22.918)" fill="#FFD388"/>
<circle cx="3.73652" cy="3.73652" r="3.73652" transform="matrix(-1 0 0 1 1393.45 22.918)" fill="#FFD388"/>
<circle cx="3.73652" cy="3.73652" r="3.73652" transform="matrix(-1 0 0 1 1381.81 22.918)" fill="#FFD388"/>
<circle cx="3.73652" cy="3.73652" r="3.73652" transform="matrix(-1 0 0 1 1370.17 22.918)" fill="#FFD388"/>
<circle cx="3.73652" cy="3.73652" r="3.73652" transform="matrix(-1 0 0 1 1358.53 22.918)" fill="#FFD388"/>
<circle cx="3.73652" cy="3.73652" r="3.73652" transform="matrix(-1 0 0 1 1346.89 22.918)" fill="#FFD388"/>
<circle cx="3.73652" cy="3.73652" r="3.73652" transform="matrix(-1 0 0 1 1335.25 22.918)" fill="#FFD388"/>
<circle cx="3.73652" cy="3.73652" r="3.73652" transform="matrix(-1 0 0 1 1323.62 22.918)" fill="#FFD388"/>
<circle cx="3.73652" cy="3.73652" r="3.73652" transform="matrix(-1 0 0 1 1311.98 22.918)" fill="#FFD388"/>
<circle cx="3.73652" cy="3.73652" r="3.73652" transform="matrix(-1 0 0 1 1300.34 22.918)" fill="#FFD388"/>
<circle cx="3.73652" cy="3.73652" r="3.73652" transform="matrix(-1 0 0 1 1288.7 22.918)" fill="#FFD388"/>
<circle cx="3.73652" cy="3.73652" r="3.73652" transform="matrix(-1 0 0 1 1277.06 22.918)" fill="#FFD388"/>
<circle cx="3.73652" cy="3.73652" r="3.73652" transform="matrix(-1 0 0 1 1265.42 22.918)" fill="#FFD388"/>
<circle cx="3.73652" cy="3.73652" r="3.73652" transform="matrix(-1 0 0 1 1253.79 22.918)" fill="#FFD388"/>
<circle cx="3.73652" cy="3.73652" r="3.73652" transform="matrix(-1 0 0 1 1242.15 22.918)" fill="#FFD388"/>
<circle cx="3.73652" cy="3.73652" r="3.73652" transform="matrix(-1 0 0 1 1230.51 22.918)" fill="#FFD388"/>
<circle cx="3.73652" cy="3.73652" r="3.73652" transform="matrix(-1 0 0 1 1218.87 22.918)" fill="#FFD388"/>
<circle cx="3.73652" cy="3.73652" r="3.73652" transform="matrix(-1 0 0 1 1207.23 22.918)" fill="#FFD388"/>
<circle cx="3.73652" cy="3.73652" r="3.73652" transform="matrix(-1 0 0 1 1195.59 22.918)" fill="#FFD388"/>
<circle cx="3.73652" cy="3.73652" r="3.73652" transform="matrix(-1 0 0 1 1183.96 22.918)" fill="#FFD388"/>
<circle cx="3.73652" cy="3.73652" r="3.73652" transform="matrix(-1 0 0 1 1172.32 22.918)" fill="#FFD388"/>
<circle cx="3.73652" cy="3.73652" r="3.73652" transform="matrix(-1 0 0 1 1160.68 22.918)" fill="#FFD388"/>
<circle cx="3.73652" cy="3.73652" r="3.73652" transform="matrix(-1 0 0 1 1149.04 22.918)" fill="#FFD388"/>
<circle cx="3.73652" cy="3.73652" r="3.73652" transform="matrix(-1 0 0 1 1137.4 22.918)" fill="#FFD388"/>
<circle cx="3.73652" cy="3.73652" r="3.73652" transform="matrix(-1 0 0 1 1125.76 22.918)" fill="#FFD388"/>
<circle cx="3.73652" cy="3.73652" r="3.73652" transform="matrix(-1 0 0 1 1114.13 22.918)" fill="#FFD388"/>
<circle cx="3.73652" cy="3.73652" r="3.73652" transform="matrix(-1 0 0 1 1102.49 22.918)" fill="#FFD388"/>
<circle cx="3.73652" cy="3.73652" r="3.73652" transform="matrix(-1 0 0 1 1090.85 22.918)" fill="#FFD388"/>
<circle cx="3.73652" cy="3.73652" r="3.73652" transform="matrix(-1 0 0 1 1079.21 22.918)" fill="#FFD388"/>
<circle cx="3.73652" cy="3.73652" r="3.73652" transform="matrix(-1 0 0 1 1067.57 22.918)" fill="#FFD388"/>
<circle cx="3.73652" cy="3.73652" r="3.73652" transform="matrix(-1 0 0 1 1055.93 22.918)" fill="#FFD388"/>
<circle cx="3.73652" cy="3.73652" r="3.73652" transform="matrix(-1 0 0 1 1044.3 22.918)" fill="#FFD388"/>
<circle cx="3.73652" cy="3.73652" r="3.73652" transform="matrix(-1 0 0 1 1032.66 22.918)" fill="#FFD388"/>
<circle cx="3.73652" cy="3.73652" r="3.73652" transform="matrix(-1 0 0 1 1021.02 22.918)" fill="#FFD388"/>
<circle cx="3.73652" cy="3.73652" r="3.73652" transform="matrix(-1 0 0 1 1009.38 22.918)" fill="#FFD388"/>
<circle cx="3.73652" cy="3.73652" r="3.73652" transform="matrix(-1 0 0 1 997.743 22.918)" fill="#FFD388"/>
<circle cx="3.73652" cy="3.73652" r="3.73652" transform="matrix(-1 0 0 1 986.105 22.918)" fill="#FFD388"/>
<circle cx="3.73652" cy="3.73652" r="3.73652" transform="matrix(-1 0 0 1 974.466 22.918)" fill="#FFD388"/>
<circle cx="3.73652" cy="3.73652" r="3.73652" transform="matrix(-1 0 0 1 962.828 22.918)" fill="#FFD388"/>
<circle cx="3.73652" cy="3.73652" r="3.73652" transform="matrix(-1 0 0 1 951.19 22.918)" fill="#FFD388"/>
<circle cx="3.73652" cy="3.73652" r="3.73652" transform="matrix(-1 0 0 1 939.551 22.918)" fill="#FFD388"/>
<circle cx="3.73652" cy="3.73652" r="3.73652" transform="matrix(-1 0 0 1 927.913 22.918)" fill="#FFD388"/>
<circle cx="3.73652" cy="3.73652" r="3.73652" transform="matrix(-1 0 0 1 916.275 22.918)" fill="#FFD388"/>
<circle cx="3.73652" cy="3.73652" r="3.73652" transform="matrix(-1 0 0 1 904.636 22.918)" fill="#FFD388"/>
<circle cx="3.73652" cy="3.73652" r="3.73652" transform="matrix(-1 0 0 1 892.998 22.918)" fill="#FFD388"/>
<circle cx="3.73652" cy="3.73652" r="3.73652" transform="matrix(-1 0 0 1 881.359 22.918)" fill="#FFD388"/>
<circle cx="3.73652" cy="3.73652" r="3.73652" transform="matrix(-1 0 0 1 869.721 22.918)" fill="#FFD388"/>
<circle cx="3.73652" cy="3.73652" r="3.73652" transform="matrix(-1 0 0 1 858.083 22.918)" fill="#FFD388"/>
<circle cx="3.73652" cy="3.73652" r="3.73652" transform="matrix(-1 0 0 1 846.444 22.918)" fill="#FFD388"/>
<circle cx="3.73652" cy="3.73652" r="3.73652" transform="matrix(-1 0 0 1 834.806 22.918)" fill="#FFD388"/>
<circle cx="3.73652" cy="3.73652" r="3.73652" transform="matrix(-1 0 0 1 823.168 22.918)" fill="#FFD388"/>
<circle cx="3.73652" cy="3.73652" r="3.73652" transform="matrix(-1 0 0 1 811.529 22.918)" fill="#FFD388"/>
<circle cx="3.73652" cy="3.73652" r="3.73652" transform="matrix(-1 0 0 1 799.891 22.918)" fill="#FFD388"/>
<circle cx="3.73652" cy="3.73652" r="3.73652" transform="matrix(-1 0 0 1 788.253 22.918)" fill="#FFD388"/>
<circle cx="3.73652" cy="3.73652" r="3.73652" transform="matrix(-1 0 0 1 776.614 22.918)" fill="#FFD388"/>
<circle cx="3.73652" cy="3.73652" r="3.73652" transform="matrix(-1 0 0 1 764.976 22.918)" fill="#FFD388"/>
<circle cx="3.73652" cy="3.73652" r="3.73652" transform="matrix(-1 0 0 1 753.337 22.918)" fill="#FFD388"/>
<circle cx="3.73652" cy="3.73652" r="3.73652" transform="matrix(-1 0 0 1 741.699 22.918)" fill="#FFD388"/>
<circle cx="3.73652" cy="3.73652" r="3.73652" transform="matrix(-1 0 0 1 730.061 22.918)" fill="#FFD388"/>
<circle cx="2.98922" cy="2.98922" r="2.98922" transform="matrix(-1 0 0 1 1440 32.3828)" fill="#FFD388"/>
<circle cx="2.98922" cy="2.98922" r="2.98922" transform="matrix(-1 0 0 1 1428.34 32.3828)" fill="#FFD388"/>
<circle cx="2.98922" cy="2.98922" r="2.98922" transform="matrix(-1 0 0 1 1416.67 32.3828)" fill="#FFD388"/>
<circle cx="2.98922" cy="2.98922" r="2.98922" transform="matrix(-1 0 0 1 1405.01 32.3828)" fill="#FFD388"/>
<circle cx="2.98922" cy="2.98922" r="2.98922" transform="matrix(-1 0 0 1 1393.35 32.3828)" fill="#FFD388"/>
<circle cx="2.98922" cy="2.98922" r="2.98922" transform="matrix(-1 0 0 1 1381.69 32.3828)" fill="#FFD388"/>
<circle cx="2.98922" cy="2.98922" r="2.98922" transform="matrix(-1 0 0 1 1370.02 32.3828)" fill="#FFD388"/>
<circle cx="2.98922" cy="2.98922" r="2.98922" transform="matrix(-1 0 0 1 1358.36 32.3828)" fill="#FFD388"/>
<circle cx="2.98922" cy="2.98922" r="2.98922" transform="matrix(-1 0 0 1 1346.7 32.3828)" fill="#FFD388"/>
<circle cx="2.98922" cy="2.98922" r="2.98922" transform="matrix(-1 0 0 1 1335.03 32.3828)" fill="#FFD388"/>
<circle cx="2.98922" cy="2.98922" r="2.98922" transform="matrix(-1 0 0 1 1323.37 32.3828)" fill="#FFD388"/>
<circle cx="2.98922" cy="2.98922" r="2.98922" transform="matrix(-1 0 0 1 1311.71 32.3828)" fill="#FFD388"/>
<circle cx="2.98922" cy="2.98922" r="2.98922" transform="matrix(-1 0 0 1 1300.05 32.3828)" fill="#FFD388"/>
<circle cx="2.98922" cy="2.98922" r="2.98922" transform="matrix(-1 0 0 1 1288.38 32.3828)" fill="#FFD388"/>
<circle cx="2.98922" cy="2.98922" r="2.98922" transform="matrix(-1 0 0 1 1276.72 32.3828)" fill="#FFD388"/>
<circle cx="2.98922" cy="2.98922" r="2.98922" transform="matrix(-1 0 0 1 1265.06 32.3828)" fill="#FFD388"/>
<circle cx="2.98922" cy="2.98922" r="2.98922" transform="matrix(-1 0 0 1 1253.39 32.3828)" fill="#FFD388"/>
<circle cx="2.98922" cy="2.98922" r="2.98922" transform="matrix(-1 0 0 1 1241.73 32.3828)" fill="#FFD388"/>
<circle cx="2.98922" cy="2.98922" r="2.98922" transform="matrix(-1 0 0 1 1230.07 32.3828)" fill="#FFD388"/>
<circle cx="2.98922" cy="2.98922" r="2.98922" transform="matrix(-1 0 0 1 1218.41 32.3828)" fill="#FFD388"/>
<circle cx="2.98922" cy="2.98922" r="2.98922" transform="matrix(-1 0 0 1 1206.74 32.3828)" fill="#FFD388"/>
<circle cx="2.98922" cy="2.98922" r="2.98922" transform="matrix(-1 0 0 1 1195.08 32.3828)" fill="#FFD388"/>
<circle cx="2.98922" cy="2.98922" r="2.98922" transform="matrix(-1 0 0 1 1183.42 32.3828)" fill="#FFD388"/>
<circle cx="2.98922" cy="2.98922" r="2.98922" transform="matrix(-1 0 0 1 1171.75 32.3828)" fill="#FFD388"/>
<circle cx="2.98922" cy="2.98922" r="2.98922" transform="matrix(-1 0 0 1 1160.09 32.3828)" fill="#FFD388"/>
<circle cx="2.98922" cy="2.98922" r="2.98922" transform="matrix(-1 0 0 1 1148.43 32.3828)" fill="#FFD388"/>
<circle cx="2.98922" cy="2.98922" r="2.98922" transform="matrix(-1 0 0 1 1136.77 32.3828)" fill="#FFD388"/>
<circle cx="2.98922" cy="2.98922" r="2.98922" transform="matrix(-1 0 0 1 1125.1 32.3828)" fill="#FFD388"/>
<circle cx="2.98922" cy="2.98922" r="2.98922" transform="matrix(-1 0 0 1 1113.44 32.3828)" fill="#FFD388"/>
<circle cx="2.98922" cy="2.98922" r="2.98922" transform="matrix(-1 0 0 1 1101.78 32.3828)" fill="#FFD388"/>
<circle cx="2.98922" cy="2.98922" r="2.98922" transform="matrix(-1 0 0 1 1090.11 32.3828)" fill="#FFD388"/>
<circle cx="2.98922" cy="2.98922" r="2.98922" transform="matrix(-1 0 0 1 1078.45 32.3828)" fill="#FFD388"/>
<circle cx="2.98922" cy="2.98922" r="2.98922" transform="matrix(-1 0 0 1 1066.79 32.3828)" fill="#FFD388"/>
<circle cx="2.98922" cy="2.98922" r="2.98922" transform="matrix(-1 0 0 1 1055.13 32.3828)" fill="#FFD388"/>
<circle cx="2.98922" cy="2.98922" r="2.98922" transform="matrix(-1 0 0 1 1043.46 32.3828)" fill="#FFD388"/>
<circle cx="2.98922" cy="2.98922" r="2.98922" transform="matrix(-1 0 0 1 1031.8 32.3828)" fill="#FFD388"/>
<circle cx="2.98922" cy="2.98922" r="2.98922" transform="matrix(-1 0 0 1 1020.14 32.3828)" fill="#FFD388"/>
<circle cx="2.98922" cy="2.98922" r="2.98922" transform="matrix(-1 0 0 1 1008.48 32.3828)" fill="#FFD388"/>
<circle cx="2.98922" cy="2.98922" r="2.98922" transform="matrix(-1 0 0 1 996.812 32.3828)" fill="#FFD388"/>
<circle cx="2.98922" cy="2.98922" r="2.98922" transform="matrix(-1 0 0 1 985.149 32.3828)" fill="#FFD388"/>
<circle cx="2.98922" cy="2.98922" r="2.98922" transform="matrix(-1 0 0 1 973.486 32.3828)" fill="#FFD388"/>
<circle cx="2.98922" cy="2.98922" r="2.98922" transform="matrix(-1 0 0 1 961.824 32.3828)" fill="#FFD388"/>
<circle cx="2.98922" cy="2.98922" r="2.98922" transform="matrix(-1 0 0 1 950.161 32.3828)" fill="#FFD388"/>
<circle cx="2.98922" cy="2.98922" r="2.98922" transform="matrix(-1 0 0 1 938.498 32.3828)" fill="#FFD388"/>
<circle cx="2.98922" cy="2.98922" r="2.98922" transform="matrix(-1 0 0 1 926.835 32.3828)" fill="#FFD388"/>
<circle cx="2.98922" cy="2.98922" r="2.98922" transform="matrix(-1 0 0 1 915.172 32.3828)" fill="#FFD388"/>
<circle cx="2.98922" cy="2.98922" r="2.98922" transform="matrix(-1 0 0 1 903.509 32.3828)" fill="#FFD388"/>
<circle cx="2.98922" cy="2.98922" r="2.98922" transform="matrix(-1 0 0 1 891.847 32.3828)" fill="#FFD388"/>
<circle cx="2.98922" cy="2.98922" r="2.98922" transform="matrix(-1 0 0 1 880.184 32.3828)" fill="#FFD388"/>
<circle cx="2.98922" cy="2.98922" r="2.98922" transform="matrix(-1 0 0 1 868.521 32.3828)" fill="#FFD388"/>
<circle cx="2.98922" cy="2.98922" r="2.98922" transform="matrix(-1 0 0 1 856.858 32.3828)" fill="#FFD388"/>
<circle cx="2.98922" cy="2.98922" r="2.98922" transform="matrix(-1 0 0 1 845.195 32.3828)" fill="#FFD388"/>
<circle cx="2.98922" cy="2.98922" r="2.98922" transform="matrix(-1 0 0 1 833.532 32.3828)" fill="#FFD388"/>
<circle cx="2.98922" cy="2.98922" r="2.98922" transform="matrix(-1 0 0 1 821.87 32.3828)" fill="#FFD388"/>
<circle cx="2.98922" cy="2.98922" r="2.98922" transform="matrix(-1 0 0 1 810.207 32.3828)" fill="#FFD388"/>
<circle cx="2.98922" cy="2.98922" r="2.98922" transform="matrix(-1 0 0 1 798.544 32.3828)" fill="#FFD388"/>
<circle cx="2.98922" cy="2.98922" r="2.98922" transform="matrix(-1 0 0 1 786.881 32.3828)" fill="#FFD388"/>
<circle cx="2.98922" cy="2.98922" r="2.98922" transform="matrix(-1 0 0 1 775.218 32.3828)" fill="#FFD388"/>
<circle cx="2.98922" cy="2.98922" r="2.98922" transform="matrix(-1 0 0 1 763.555 32.3828)" fill="#FFD388"/>
<circle cx="2.98922" cy="2.98922" r="2.98922" transform="matrix(-1 0 0 1 751.893 32.3828)" fill="#FFD388"/>
<circle cx="2.98922" cy="2.98922" r="2.98922" transform="matrix(-1 0 0 1 740.229 32.3828)" fill="#FFD388"/>
<circle cx="2.98922" cy="2.98922" r="2.98922" transform="matrix(-1 0 0 1 728.567 32.3828)" fill="#FFD388"/>
<circle cx="2.24191" cy="2.24191" r="2.24191" transform="matrix(-1 0 0 1 1440 40.3535)" fill="#FFD388"/>
<circle cx="2.24191" cy="2.24191" r="2.24191" transform="matrix(-1 0 0 1 1428.31 40.3535)" fill="#FFD388"/>
<circle cx="2.24191" cy="2.24191" r="2.24191" transform="matrix(-1 0 0 1 1416.62 40.3535)" fill="#FFD388"/>
<circle cx="2.24191" cy="2.24191" r="2.24191" transform="matrix(-1 0 0 1 1404.94 40.3535)" fill="#FFD388"/>
<circle cx="2.24191" cy="2.24191" r="2.24191" transform="matrix(-1 0 0 1 1393.25 40.3535)" fill="#FFD388"/>
<circle cx="2.24191" cy="2.24191" r="2.24191" transform="matrix(-1 0 0 1 1381.56 40.3535)" fill="#FFD388"/>
<circle cx="2.24191" cy="2.24191" r="2.24191" transform="matrix(-1 0 0 1 1369.88 40.3535)" fill="#FFD388"/>
<circle cx="2.24191" cy="2.24191" r="2.24191" transform="matrix(-1 0 0 1 1358.19 40.3535)" fill="#FFD388"/>
<circle cx="2.24191" cy="2.24191" r="2.24191" transform="matrix(-1 0 0 1 1346.5 40.3535)" fill="#FFD388"/>
<circle cx="2.24191" cy="2.24191" r="2.24191" transform="matrix(-1 0 0 1 1334.81 40.3535)" fill="#FFD388"/>
<circle cx="2.24191" cy="2.24191" r="2.24191" transform="matrix(-1 0 0 1 1323.13 40.3535)" fill="#FFD388"/>
<circle cx="2.24191" cy="2.24191" r="2.24191" transform="matrix(-1 0 0 1 1311.44 40.3535)" fill="#FFD388"/>
<circle cx="2.24191" cy="2.24191" r="2.24191" transform="matrix(-1 0 0 1 1299.75 40.3535)" fill="#FFD388"/>
<circle cx="2.24191" cy="2.24191" r="2.24191" transform="matrix(-1 0 0 1 1288.06 40.3535)" fill="#FFD388"/>
<circle cx="2.24191" cy="2.24191" r="2.24191" transform="matrix(-1 0 0 1 1276.38 40.3535)" fill="#FFD388"/>
<circle cx="2.24191" cy="2.24191" r="2.24191" transform="matrix(-1 0 0 1 1264.69 40.3535)" fill="#FFD388"/>
<circle cx="2.24191" cy="2.24191" r="2.24191" transform="matrix(-1 0 0 1 1253 40.3535)" fill="#FFD388"/>
<circle cx="2.24191" cy="2.24191" r="2.24191" transform="matrix(-1 0 0 1 1241.31 40.3535)" fill="#FFD388"/>
<circle cx="2.24191" cy="2.24191" r="2.24191" transform="matrix(-1 0 0 1 1229.63 40.3535)" fill="#FFD388"/>
<circle cx="2.24191" cy="2.24191" r="2.24191" transform="matrix(-1 0 0 1 1217.94 40.3535)" fill="#FFD388"/>
<circle cx="2.24191" cy="2.24191" r="2.24191" transform="matrix(-1 0 0 1 1206.25 40.3535)" fill="#FFD388"/>
<circle cx="2.24191" cy="2.24191" r="2.24191" transform="matrix(-1 0 0 1 1194.57 40.3535)" fill="#FFD388"/>
<circle cx="2.24191" cy="2.24191" r="2.24191" transform="matrix(-1 0 0 1 1182.88 40.3535)" fill="#FFD388"/>
<circle cx="2.24191" cy="2.24191" r="2.24191" transform="matrix(-1 0 0 1 1171.19 40.3535)" fill="#FFD388"/>
<circle cx="2.24191" cy="2.24191" r="2.24191" transform="matrix(-1 0 0 1 1159.5 40.3535)" fill="#FFD388"/>
<circle cx="2.24191" cy="2.24191" r="2.24191" transform="matrix(-1 0 0 1 1147.82 40.3535)" fill="#FFD388"/>
<circle cx="2.24191" cy="2.24191" r="2.24191" transform="matrix(-1 0 0 1 1136.13 40.3535)" fill="#FFD388"/>
<circle cx="2.24191" cy="2.24191" r="2.24191" transform="matrix(-1 0 0 1 1124.44 40.3535)" fill="#FFD388"/>
<circle cx="2.24191" cy="2.24191" r="2.24191" transform="matrix(-1 0 0 1 1112.75 40.3535)" fill="#FFD388"/>
<circle cx="2.24191" cy="2.24191" r="2.24191" transform="matrix(-1 0 0 1 1101.07 40.3535)" fill="#FFD388"/>
<circle cx="2.24191" cy="2.24191" r="2.24191" transform="matrix(-1 0 0 1 1089.38 40.3535)" fill="#FFD388"/>
<circle cx="2.24191" cy="2.24191" r="2.24191" transform="matrix(-1 0 0 1 1077.69 40.3535)" fill="#FFD388"/>
<circle cx="2.24191" cy="2.24191" r="2.24191" transform="matrix(-1 0 0 1 1066 40.3535)" fill="#FFD388"/>
<circle cx="2.24191" cy="2.24191" r="2.24191" transform="matrix(-1 0 0 1 1054.32 40.3535)" fill="#FFD388"/>
<circle cx="2.24191" cy="2.24191" r="2.24191" transform="matrix(-1 0 0 1 1042.63 40.3535)" fill="#FFD388"/>
<circle cx="2.24191" cy="2.24191" r="2.24191" transform="matrix(-1 0 0 1 1030.94 40.3535)" fill="#FFD388"/>
<circle cx="2.24191" cy="2.24191" r="2.24191" transform="matrix(-1 0 0 1 1019.26 40.3535)" fill="#FFD388"/>
<circle cx="2.24191" cy="2.24191" r="2.24191" transform="matrix(-1 0 0 1 1007.57 40.3535)" fill="#FFD388"/>
<circle cx="2.24191" cy="2.24191" r="2.24191" transform="matrix(-1 0 0 1 995.881 40.3535)" fill="#FFD388"/>
<circle cx="2.24191" cy="2.24191" r="2.24191" transform="matrix(-1 0 0 1 984.193 40.3535)" fill="#FFD388"/>
<circle cx="2.24191" cy="2.24191" r="2.24191" transform="matrix(-1 0 0 1 972.506 40.3535)" fill="#FFD388"/>
<circle cx="2.24191" cy="2.24191" r="2.24191" transform="matrix(-1 0 0 1 960.819 40.3535)" fill="#FFD388"/>
<circle cx="2.24191" cy="2.24191" r="2.24191" transform="matrix(-1 0 0 1 949.131 40.3535)" fill="#FFD388"/>
<circle cx="2.24191" cy="2.24191" r="2.24191" transform="matrix(-1 0 0 1 937.444 40.3535)" fill="#FFD388"/>
<circle cx="2.24191" cy="2.24191" r="2.24191" transform="matrix(-1 0 0 1 925.757 40.3535)" fill="#FFD388"/>
<circle cx="2.24191" cy="2.24191" r="2.24191" transform="matrix(-1 0 0 1 914.069 40.3535)" fill="#FFD388"/>
<circle cx="2.24191" cy="2.24191" r="2.24191" transform="matrix(-1 0 0 1 902.382 40.3535)" fill="#FFD388"/>
<circle cx="2.24191" cy="2.24191" r="2.24191" transform="matrix(-1 0 0 1 890.695 40.3535)" fill="#FFD388"/>
<circle cx="2.24191" cy="2.24191" r="2.24191" transform="matrix(-1 0 0 1 879.007 40.3535)" fill="#FFD388"/>
<circle cx="2.24191" cy="2.24191" r="2.24191" transform="matrix(-1 0 0 1 867.32 40.3535)" fill="#FFD388"/>
<circle cx="2.24191" cy="2.24191" r="2.24191" transform="matrix(-1 0 0 1 855.633 40.3535)" fill="#FFD388"/>
<circle cx="2.24191" cy="2.24191" r="2.24191" transform="matrix(-1 0 0 1 843.945 40.3535)" fill="#FFD388"/>
<circle cx="2.24191" cy="2.24191" r="2.24191" transform="matrix(-1 0 0 1 832.258 40.3535)" fill="#FFD388"/>
<circle cx="2.24191" cy="2.24191" r="2.24191" transform="matrix(-1 0 0 1 820.571 40.3535)" fill="#FFD388"/>
<circle cx="2.24191" cy="2.24191" r="2.24191" transform="matrix(-1 0 0 1 808.884 40.3535)" fill="#FFD388"/>
<circle cx="2.24191" cy="2.24191" r="2.24191" transform="matrix(-1 0 0 1 797.196 40.3535)" fill="#FFD388"/>
<circle cx="2.24191" cy="2.24191" r="2.24191" transform="matrix(-1 0 0 1 785.509 40.3535)" fill="#FFD388"/>
<circle cx="2.24191" cy="2.24191" r="2.24191" transform="matrix(-1 0 0 1 773.822 40.3535)" fill="#FFD388"/>
<circle cx="2.24191" cy="2.24191" r="2.24191" transform="matrix(-1 0 0 1 762.134 40.3535)" fill="#FFD388"/>
<circle cx="2.24191" cy="2.24191" r="2.24191" transform="matrix(-1 0 0 1 750.447 40.3535)" fill="#FFD388"/>
<circle cx="2.24191" cy="2.24191" r="2.24191" transform="matrix(-1 0 0 1 738.76 40.3535)" fill="#FFD388"/>
<circle cx="2.24191" cy="2.24191" r="2.24191" transform="matrix(-1 0 0 1 727.072 40.3535)" fill="#FFD388"/>
<circle cx="4.98203" cy="4.98203" r="4.98203" fill="#FFD388"/>
<circle cx="16.5797" cy="4.98203" r="4.98203" fill="#FFD388"/>
<circle cx="28.1769" cy="4.98203" r="4.98203" fill="#FFD388"/>
<circle cx="39.7745" cy="4.98203" r="4.98203" fill="#FFD388"/>
<circle cx="51.3722" cy="4.98203" r="4.98203" fill="#FFD388"/>
<circle cx="62.9698" cy="4.98203" r="4.98203" fill="#FFD388"/>
<circle cx="74.567" cy="4.98203" r="4.98203" fill="#FFD388"/>
<circle cx="86.1646" cy="4.98203" r="4.98203" fill="#FFD388"/>
<circle cx="97.7618" cy="4.98203" r="4.98203" fill="#FFD388"/>
<circle cx="109.359" cy="4.98203" r="4.98203" fill="#FFD388"/>
<circle cx="120.957" cy="4.98203" r="4.98203" fill="#FFD388"/>
<circle cx="132.555" cy="4.98203" r="4.98203" fill="#FFD388"/>
<circle cx="144.152" cy="4.98203" r="4.98203" fill="#FFD388"/>
<circle cx="155.75" cy="4.98203" r="4.98203" fill="#FFD388"/>
<circle cx="167.347" cy="4.98203" r="4.98203" fill="#FFD388"/>
<circle cx="178.945" cy="4.98203" r="4.98203" fill="#FFD388"/>
<circle cx="190.542" cy="4.98203" r="4.98203" fill="#FFD388"/>
<circle cx="202.14" cy="4.98203" r="4.98203" fill="#FFD388"/>
<circle cx="213.737" cy="4.98203" r="4.98203" fill="#FFD388"/>
<circle cx="225.335" cy="4.98203" r="4.98203" fill="#FFD388"/>
<circle cx="236.932" cy="4.98203" r="4.98203" fill="#FFD388"/>
<circle cx="248.53" cy="4.98203" r="4.98203" fill="#FFD388"/>
<circle cx="260.128" cy="4.98203" r="4.98203" fill="#FFD388"/>
<circle cx="271.725" cy="4.98203" r="4.98203" fill="#FFD388"/>
<circle cx="283.322" cy="4.98203" r="4.98203" fill="#FFD388"/>
<circle cx="294.92" cy="4.98203" r="4.98203" fill="#FFD388"/>
<circle cx="306.517" cy="4.98203" r="4.98203" fill="#FFD388"/>
<circle cx="318.115" cy="4.98203" r="4.98203" fill="#FFD388"/>
<circle cx="329.712" cy="4.98203" r="4.98203" fill="#FFD388"/>
<circle cx="341.31" cy="4.98203" r="4.98203" fill="#FFD388"/>
<circle cx="352.907" cy="4.98203" r="4.98203" fill="#FFD388"/>
<circle cx="364.504" cy="4.98203" r="4.98203" fill="#FFD388"/>
<circle cx="376.102" cy="4.98203" r="4.98203" fill="#FFD388"/>
<circle cx="387.7" cy="4.98203" r="4.98203" fill="#FFD388"/>
<circle cx="399.297" cy="4.98203" r="4.98203" fill="#FFD388"/>
<circle cx="410.895" cy="4.98203" r="4.98203" fill="#FFD388"/>
<circle cx="422.492" cy="4.98203" r="4.98203" fill="#FFD388"/>
<circle cx="434.089" cy="4.98203" r="4.98203" fill="#FFD388"/>
<circle cx="445.687" cy="4.98203" r="4.98203" fill="#FFD388"/>
<circle cx="457.285" cy="4.98203" r="4.98203" fill="#FFD388"/>
<circle cx="468.882" cy="4.98203" r="4.98203" fill="#FFD388"/>
<circle cx="480.48" cy="4.98203" r="4.98203" fill="#FFD388"/>
<circle cx="492.077" cy="4.98203" r="4.98203" fill="#FFD388"/>
<circle cx="503.675" cy="4.98203" r="4.98203" fill="#FFD388"/>
<circle cx="515.272" cy="4.98203" r="4.98203" fill="#FFD388"/>
<circle cx="526.87" cy="4.98203" r="4.98203" fill="#FFD388"/>
<circle cx="538.467" cy="4.98203" r="4.98203" fill="#FFD388"/>
<circle cx="550.065" cy="4.98203" r="4.98203" fill="#FFD388"/>
<circle cx="561.662" cy="4.98203" r="4.98203" fill="#FFD388"/>
<circle cx="573.26" cy="4.98203" r="4.98203" fill="#FFD388"/>
<circle cx="584.858" cy="4.98203" r="4.98203" fill="#FFD388"/>
<circle cx="596.455" cy="4.98203" r="4.98203" fill="#FFD388"/>
<circle cx="608.052" cy="4.98203" r="4.98203" fill="#FFD388"/>
<circle cx="619.65" cy="4.98203" r="4.98203" fill="#FFD388"/>
<circle cx="631.247" cy="4.98203" r="4.98203" fill="#FFD388"/>
<circle cx="642.845" cy="4.98203" r="4.98203" fill="#FFD388"/>
<circle cx="654.443" cy="4.98203" r="4.98203" fill="#FFD388"/>
<circle cx="666.04" cy="4.98203" r="4.98203" fill="#FFD388"/>
<circle cx="677.638" cy="4.98203" r="4.98203" fill="#FFD388"/>
<circle cx="689.235" cy="4.98203" r="4.98203" fill="#FFD388"/>
<circle cx="700.833" cy="4.98203" r="4.98203" fill="#FFD388"/>
<circle cx="712.43" cy="4.98203" r="4.98203" fill="#FFD388"/>
<circle cx="4.48382" cy="16.4409" r="4.48382" fill="#FFD388"/>
<circle cx="16.0976" cy="16.4409" r="4.48382" fill="#FFD388"/>
<circle cx="27.7114" cy="16.4409" r="4.48382" fill="#FFD388"/>
<circle cx="39.3251" cy="16.4409" r="4.48382" fill="#FFD388"/>
<circle cx="50.9394" cy="16.4409" r="4.48382" fill="#FFD388"/>
<circle cx="62.5532" cy="16.4409" r="4.48382" fill="#FFD388"/>
<circle cx="74.1669" cy="16.4409" r="4.48382" fill="#FFD388"/>
<circle cx="85.7807" cy="16.4409" r="4.48382" fill="#FFD388"/>
<circle cx="97.3945" cy="16.4409" r="4.48382" fill="#FFD388"/>
<circle cx="109.008" cy="16.4409" r="4.48382" fill="#FFD388"/>
<circle cx="120.622" cy="16.4409" r="4.48382" fill="#FFD388"/>
<circle cx="132.236" cy="16.4409" r="4.48382" fill="#FFD388"/>
<circle cx="143.85" cy="16.4409" r="4.48382" fill="#FFD388"/>
<circle cx="155.464" cy="16.4409" r="4.48382" fill="#FFD388"/>
<circle cx="167.078" cy="16.4409" r="4.48382" fill="#FFD388"/>
<circle cx="178.691" cy="16.4409" r="4.48382" fill="#FFD388"/>
<circle cx="190.305" cy="16.4409" r="4.48382" fill="#FFD388"/>
<circle cx="201.919" cy="16.4409" r="4.48382" fill="#FFD388"/>
<circle cx="213.533" cy="16.4409" r="4.48382" fill="#FFD388"/>
<circle cx="225.147" cy="16.4409" r="4.48382" fill="#FFD388"/>
<circle cx="236.761" cy="16.4409" r="4.48382" fill="#FFD388"/>
<circle cx="248.374" cy="16.4409" r="4.48382" fill="#FFD388"/>
<circle cx="259.988" cy="16.4409" r="4.48382" fill="#FFD388"/>
<circle cx="271.602" cy="16.4409" r="4.48382" fill="#FFD388"/>
<circle cx="283.216" cy="16.4409" r="4.48382" fill="#FFD388"/>
<circle cx="294.83" cy="16.4409" r="4.48382" fill="#FFD388"/>
<circle cx="306.444" cy="16.4409" r="4.48382" fill="#FFD388"/>
<circle cx="318.058" cy="16.4409" r="4.48382" fill="#FFD388"/>
<circle cx="329.671" cy="16.4409" r="4.48382" fill="#FFD388"/>
<circle cx="341.285" cy="16.4409" r="4.48382" fill="#FFD388"/>
<circle cx="352.899" cy="16.4409" r="4.48382" fill="#FFD388"/>
<circle cx="364.513" cy="16.4409" r="4.48382" fill="#FFD388"/>
<circle cx="376.126" cy="16.4409" r="4.48382" fill="#FFD388"/>
<circle cx="387.741" cy="16.4409" r="4.48382" fill="#FFD388"/>
<circle cx="399.354" cy="16.4409" r="4.48382" fill="#FFD388"/>
<circle cx="410.968" cy="16.4409" r="4.48382" fill="#FFD388"/>
<circle cx="422.582" cy="16.4409" r="4.48382" fill="#FFD388"/>
<circle cx="434.196" cy="16.4409" r="4.48382" fill="#FFD388"/>
<circle cx="445.81" cy="16.4409" r="4.48382" fill="#FFD388"/>
<circle cx="457.423" cy="16.4409" r="4.48382" fill="#FFD388"/>
<circle cx="469.037" cy="16.4409" r="4.48382" fill="#FFD388"/>
<circle cx="480.651" cy="16.4409" r="4.48382" fill="#FFD388"/>
<circle cx="492.265" cy="16.4409" r="4.48382" fill="#FFD388"/>
<circle cx="503.879" cy="16.4409" r="4.48382" fill="#FFD388"/>
<circle cx="515.493" cy="16.4409" r="4.48382" fill="#FFD388"/>
<circle cx="527.106" cy="16.4409" r="4.48382" fill="#FFD388"/>
<circle cx="538.72" cy="16.4409" r="4.48382" fill="#FFD388"/>
<circle cx="550.334" cy="16.4409" r="4.48382" fill="#FFD388"/>
<circle cx="561.948" cy="16.4409" r="4.48382" fill="#FFD388"/>
<circle cx="573.562" cy="16.4409" r="4.48382" fill="#FFD388"/>
<circle cx="585.176" cy="16.4409" r="4.48382" fill="#FFD388"/>
<circle cx="596.789" cy="16.4409" r="4.48382" fill="#FFD388"/>
<circle cx="608.403" cy="16.4409" r="4.48382" fill="#FFD388"/>
<circle cx="620.017" cy="16.4409" r="4.48382" fill="#FFD388"/>
<circle cx="631.631" cy="16.4409" r="4.48382" fill="#FFD388"/>
<circle cx="643.245" cy="16.4409" r="4.48382" fill="#FFD388"/>
<circle cx="654.859" cy="16.4409" r="4.48382" fill="#FFD388"/>
<circle cx="666.473" cy="16.4409" r="4.48382" fill="#FFD388"/>
<circle cx="678.086" cy="16.4409" r="4.48382" fill="#FFD388"/>
<circle cx="689.7" cy="16.4409" r="4.48382" fill="#FFD388"/>
<circle cx="701.314" cy="16.4409" r="4.48382" fill="#FFD388"/>
<circle cx="712.928" cy="16.4409" r="4.48382" fill="#FFD388"/>
<circle cx="3.73652" cy="26.6545" r="3.73652" fill="#FFD388"/>
<circle cx="15.3747" cy="26.6545" r="3.73652" fill="#FFD388"/>
<circle cx="27.0134" cy="26.6545" r="3.73652" fill="#FFD388"/>
<circle cx="38.6516" cy="26.6545" r="3.73652" fill="#FFD388"/>
<circle cx="50.2897" cy="26.6545" r="3.73652" fill="#FFD388"/>
<circle cx="61.9284" cy="26.6545" r="3.73652" fill="#FFD388"/>
<circle cx="73.5666" cy="26.6545" r="3.73652" fill="#FFD388"/>
<circle cx="85.2048" cy="26.6545" r="3.73652" fill="#FFD388"/>
<circle cx="96.8435" cy="26.6545" r="3.73652" fill="#FFD388"/>
<circle cx="108.482" cy="26.6545" r="3.73652" fill="#FFD388"/>
<circle cx="120.12" cy="26.6545" r="3.73652" fill="#FFD388"/>
<circle cx="131.758" cy="26.6545" r="3.73652" fill="#FFD388"/>
<circle cx="143.397" cy="26.6545" r="3.73652" fill="#FFD388"/>
<circle cx="155.035" cy="26.6545" r="3.73652" fill="#FFD388"/>
<circle cx="166.674" cy="26.6545" r="3.73652" fill="#FFD388"/>
<circle cx="178.312" cy="26.6545" r="3.73652" fill="#FFD388"/>
<circle cx="189.95" cy="26.6545" r="3.73652" fill="#FFD388"/>
<circle cx="201.588" cy="26.6545" r="3.73652" fill="#FFD388"/>
<circle cx="213.227" cy="26.6545" r="3.73652" fill="#FFD388"/>
<circle cx="224.865" cy="26.6545" r="3.73652" fill="#FFD388"/>
<circle cx="236.503" cy="26.6545" r="3.73652" fill="#FFD388"/>
<circle cx="248.142" cy="26.6545" r="3.73652" fill="#FFD388"/>
<circle cx="259.78" cy="26.6545" r="3.73652" fill="#FFD388"/>
<circle cx="271.418" cy="26.6545" r="3.73652" fill="#FFD388"/>
<circle cx="283.057" cy="26.6545" r="3.73652" fill="#FFD388"/>
<circle cx="294.695" cy="26.6545" r="3.73652" fill="#FFD388"/>
<circle cx="306.333" cy="26.6545" r="3.73652" fill="#FFD388"/>
<circle cx="317.972" cy="26.6545" r="3.73652" fill="#FFD388"/>
<circle cx="329.61" cy="26.6545" r="3.73652" fill="#FFD388"/>
<circle cx="341.248" cy="26.6545" r="3.73652" fill="#FFD388"/>
<circle cx="352.887" cy="26.6545" r="3.73652" fill="#FFD388"/>
<circle cx="364.525" cy="26.6545" r="3.73652" fill="#FFD388"/>
<circle cx="376.163" cy="26.6545" r="3.73652" fill="#FFD388"/>
<circle cx="387.802" cy="26.6545" r="3.73652" fill="#FFD388"/>
<circle cx="399.44" cy="26.6545" r="3.73652" fill="#FFD388"/>
<circle cx="411.078" cy="26.6545" r="3.73652" fill="#FFD388"/>
<circle cx="422.716" cy="26.6545" r="3.73652" fill="#FFD388"/>
<circle cx="434.355" cy="26.6545" r="3.73652" fill="#FFD388"/>
<circle cx="445.993" cy="26.6545" r="3.73652" fill="#FFD388"/>
<circle cx="457.632" cy="26.6545" r="3.73652" fill="#FFD388"/>
<circle cx="469.27" cy="26.6545" r="3.73652" fill="#FFD388"/>
<circle cx="480.908" cy="26.6545" r="3.73652" fill="#FFD388"/>
<circle cx="492.547" cy="26.6545" r="3.73652" fill="#FFD388"/>
<circle cx="504.185" cy="26.6545" r="3.73652" fill="#FFD388"/>
<circle cx="515.823" cy="26.6545" r="3.73652" fill="#FFD388"/>
<circle cx="527.462" cy="26.6545" r="3.73652" fill="#FFD388"/>
<circle cx="539.1" cy="26.6545" r="3.73652" fill="#FFD388"/>
<circle cx="550.738" cy="26.6545" r="3.73652" fill="#FFD388"/>
<circle cx="562.377" cy="26.6545" r="3.73652" fill="#FFD388"/>
<circle cx="574.015" cy="26.6545" r="3.73652" fill="#FFD388"/>
<circle cx="585.654" cy="26.6545" r="3.73652" fill="#FFD388"/>
<circle cx="597.292" cy="26.6545" r="3.73652" fill="#FFD388"/>
<circle cx="608.93" cy="26.6545" r="3.73652" fill="#FFD388"/>
<circle cx="620.569" cy="26.6545" r="3.73652" fill="#FFD388"/>
<circle cx="632.207" cy="26.6545" r="3.73652" fill="#FFD388"/>
<circle cx="643.845" cy="26.6545" r="3.73652" fill="#FFD388"/>
<circle cx="655.484" cy="26.6545" r="3.73652" fill="#FFD388"/>
<circle cx="667.122" cy="26.6545" r="3.73652" fill="#FFD388"/>
<circle cx="678.76" cy="26.6545" r="3.73652" fill="#FFD388"/>
<circle cx="690.399" cy="26.6545" r="3.73652" fill="#FFD388"/>
<circle cx="702.037" cy="26.6545" r="3.73652" fill="#FFD388"/>
<circle cx="713.675" cy="26.6545" r="3.73652" fill="#FFD388"/>
<circle cx="2.98922" cy="35.372" r="2.98922" fill="#FFD388"/>
<circle cx="14.6518" cy="35.372" r="2.98922" fill="#FFD388"/>
<circle cx="26.3149" cy="35.372" r="2.98922" fill="#FFD388"/>
<circle cx="37.9775" cy="35.372" r="2.98922" fill="#FFD388"/>
<circle cx="49.6406" cy="35.372" r="2.98922" fill="#FFD388"/>
<circle cx="61.3032" cy="35.372" r="2.98922" fill="#FFD388"/>
<circle cx="72.9663" cy="35.372" r="2.98922" fill="#FFD388"/>
<circle cx="84.6289" cy="35.372" r="2.98922" fill="#FFD388"/>
<circle cx="96.292" cy="35.372" r="2.98922" fill="#FFD388"/>
<circle cx="107.955" cy="35.372" r="2.98922" fill="#FFD388"/>
<circle cx="119.618" cy="35.372" r="2.98922" fill="#FFD388"/>
<circle cx="131.28" cy="35.372" r="2.98922" fill="#FFD388"/>
<circle cx="142.943" cy="35.372" r="2.98922" fill="#FFD388"/>
<circle cx="154.606" cy="35.372" r="2.98922" fill="#FFD388"/>
<circle cx="166.269" cy="35.372" r="2.98922" fill="#FFD388"/>
<circle cx="177.932" cy="35.372" r="2.98922" fill="#FFD388"/>
<circle cx="189.595" cy="35.372" r="2.98922" fill="#FFD388"/>
<circle cx="201.257" cy="35.372" r="2.98922" fill="#FFD388"/>
<circle cx="212.92" cy="35.372" r="2.98922" fill="#FFD388"/>
<circle cx="224.583" cy="35.372" r="2.98922" fill="#FFD388"/>
<circle cx="236.246" cy="35.372" r="2.98922" fill="#FFD388"/>
<circle cx="247.909" cy="35.372" r="2.98922" fill="#FFD388"/>
<circle cx="259.572" cy="35.372" r="2.98922" fill="#FFD388"/>
<circle cx="271.234" cy="35.372" r="2.98922" fill="#FFD388"/>
<circle cx="282.897" cy="35.372" r="2.98922" fill="#FFD388"/>
<circle cx="294.56" cy="35.372" r="2.98922" fill="#FFD388"/>
<circle cx="306.223" cy="35.372" r="2.98922" fill="#FFD388"/>
<circle cx="317.886" cy="35.372" r="2.98922" fill="#FFD388"/>
<circle cx="329.549" cy="35.372" r="2.98922" fill="#FFD388"/>
<circle cx="341.211" cy="35.372" r="2.98922" fill="#FFD388"/>
<circle cx="352.874" cy="35.372" r="2.98922" fill="#FFD388"/>
<circle cx="364.537" cy="35.372" r="2.98922" fill="#FFD388"/>
<circle cx="376.2" cy="35.372" r="2.98922" fill="#FFD388"/>
<circle cx="387.863" cy="35.372" r="2.98922" fill="#FFD388"/>
<circle cx="399.526" cy="35.372" r="2.98922" fill="#FFD388"/>
<circle cx="411.188" cy="35.372" r="2.98922" fill="#FFD388"/>
<circle cx="422.852" cy="35.372" r="2.98922" fill="#FFD388"/>
<circle cx="434.514" cy="35.372" r="2.98922" fill="#FFD388"/>
<circle cx="446.177" cy="35.372" r="2.98922" fill="#FFD388"/>
<circle cx="457.84" cy="35.372" r="2.98922" fill="#FFD388"/>
<circle cx="469.503" cy="35.372" r="2.98922" fill="#FFD388"/>
<circle cx="481.165" cy="35.372" r="2.98922" fill="#FFD388"/>
<circle cx="492.829" cy="35.372" r="2.98922" fill="#FFD388"/>
<circle cx="504.491" cy="35.372" r="2.98922" fill="#FFD388"/>
<circle cx="516.154" cy="35.372" r="2.98922" fill="#FFD388"/>
<circle cx="527.817" cy="35.372" r="2.98922" fill="#FFD388"/>
<circle cx="539.48" cy="35.372" r="2.98922" fill="#FFD388"/>
<circle cx="551.143" cy="35.372" r="2.98922" fill="#FFD388"/>
<circle cx="562.806" cy="35.372" r="2.98922" fill="#FFD388"/>
<circle cx="574.468" cy="35.372" r="2.98922" fill="#FFD388"/>
<circle cx="586.131" cy="35.372" r="2.98922" fill="#FFD388"/>
<circle cx="597.794" cy="35.372" r="2.98922" fill="#FFD388"/>
<circle cx="609.457" cy="35.372" r="2.98922" fill="#FFD388"/>
<circle cx="621.12" cy="35.372" r="2.98922" fill="#FFD388"/>
<circle cx="632.783" cy="35.372" r="2.98922" fill="#FFD388"/>
<circle cx="644.446" cy="35.372" r="2.98922" fill="#FFD388"/>
<circle cx="656.108" cy="35.372" r="2.98922" fill="#FFD388"/>
<circle cx="667.771" cy="35.372" r="2.98922" fill="#FFD388"/>
<circle cx="679.434" cy="35.372" r="2.98922" fill="#FFD388"/>
<circle cx="691.097" cy="35.372" r="2.98922" fill="#FFD388"/>
<circle cx="702.76" cy="35.372" r="2.98922" fill="#FFD388"/>
<circle cx="714.422" cy="35.372" r="2.98922" fill="#FFD388"/>
<circle cx="2.24191" cy="42.5954" r="2.24191" fill="#FFD388"/>
<circle cx="13.9289" cy="42.5954" r="2.24191" fill="#FFD388"/>
<circle cx="25.6169" cy="42.5954" r="2.24191" fill="#FFD388"/>
<circle cx="37.3039" cy="42.5954" r="2.24191" fill="#FFD388"/>
<circle cx="48.9914" cy="42.5954" r="2.24191" fill="#FFD388"/>
<circle cx="60.6789" cy="42.5954" r="2.24191" fill="#FFD388"/>
<circle cx="72.3659" cy="42.5954" r="2.24191" fill="#FFD388"/>
<circle cx="84.0534" cy="42.5954" r="2.24191" fill="#FFD388"/>
<circle cx="95.7409" cy="42.5954" r="2.24191" fill="#FFD388"/>
<circle cx="107.428" cy="42.5954" r="2.24191" fill="#FFD388"/>
<circle cx="119.115" cy="42.5954" r="2.24191" fill="#FFD388"/>
<circle cx="130.803" cy="42.5954" r="2.24191" fill="#FFD388"/>
<circle cx="142.49" cy="42.5954" r="2.24191" fill="#FFD388"/>
<circle cx="154.177" cy="42.5954" r="2.24191" fill="#FFD388"/>
<circle cx="165.864" cy="42.5954" r="2.24191" fill="#FFD388"/>
<circle cx="177.552" cy="42.5954" r="2.24191" fill="#FFD388"/>
<circle cx="189.239" cy="42.5954" r="2.24191" fill="#FFD388"/>
<circle cx="200.926" cy="42.5954" r="2.24191" fill="#FFD388"/>
<circle cx="212.614" cy="42.5954" r="2.24191" fill="#FFD388"/>
<circle cx="224.301" cy="42.5954" r="2.24191" fill="#FFD388"/>
<circle cx="235.988" cy="42.5954" r="2.24191" fill="#FFD388"/>
<circle cx="247.676" cy="42.5954" r="2.24191" fill="#FFD388"/>
<circle cx="259.363" cy="42.5954" r="2.24191" fill="#FFD388"/>
<circle cx="271.051" cy="42.5954" r="2.24191" fill="#FFD388"/>
<circle cx="282.738" cy="42.5954" r="2.24191" fill="#FFD388"/>
<circle cx="294.426" cy="42.5954" r="2.24191" fill="#FFD388"/>
<circle cx="306.113" cy="42.5954" r="2.24191" fill="#FFD388"/>
<circle cx="317.801" cy="42.5954" r="2.24191" fill="#FFD388"/>
<circle cx="329.488" cy="42.5954" r="2.24191" fill="#FFD388"/>
<circle cx="341.175" cy="42.5954" r="2.24191" fill="#FFD388"/>
<circle cx="352.863" cy="42.5954" r="2.24191" fill="#FFD388"/>
<circle cx="364.55" cy="42.5954" r="2.24191" fill="#FFD388"/>
<circle cx="376.237" cy="42.5954" r="2.24191" fill="#FFD388"/>
<circle cx="387.925" cy="42.5954" r="2.24191" fill="#FFD388"/>
<circle cx="399.612" cy="42.5954" r="2.24191" fill="#FFD388"/>
<circle cx="411.299" cy="42.5954" r="2.24191" fill="#FFD388"/>
<circle cx="422.987" cy="42.5954" r="2.24191" fill="#FFD388"/>
<circle cx="434.674" cy="42.5954" r="2.24191" fill="#FFD388"/>
<circle cx="446.361" cy="42.5954" r="2.24191" fill="#FFD388"/>
<circle cx="458.049" cy="42.5954" r="2.24191" fill="#FFD388"/>
<circle cx="469.736" cy="42.5954" r="2.24191" fill="#FFD388"/>
<circle cx="481.423" cy="42.5954" r="2.24191" fill="#FFD388"/>
<circle cx="493.111" cy="42.5954" r="2.24191" fill="#FFD388"/>
<circle cx="504.798" cy="42.5954" r="2.24191" fill="#FFD388"/>
<circle cx="516.485" cy="42.5954" r="2.24191" fill="#FFD388"/>
<circle cx="528.173" cy="42.5954" r="2.24191" fill="#FFD388"/>
<circle cx="539.86" cy="42.5954" r="2.24191" fill="#FFD388"/>
<circle cx="551.547" cy="42.5954" r="2.24191" fill="#FFD388"/>
<circle cx="563.235" cy="42.5954" r="2.24191" fill="#FFD388"/>
<circle cx="574.922" cy="42.5954" r="2.24191" fill="#FFD388"/>
<circle cx="586.609" cy="42.5954" r="2.24191" fill="#FFD388"/>
<circle cx="598.297" cy="42.5954" r="2.24191" fill="#FFD388"/>
<circle cx="609.984" cy="42.5954" r="2.24191" fill="#FFD388"/>
<circle cx="621.671" cy="42.5954" r="2.24191" fill="#FFD388"/>
<circle cx="633.358" cy="42.5954" r="2.24191" fill="#FFD388"/>
<circle cx="645.046" cy="42.5954" r="2.24191" fill="#FFD388"/>
<circle cx="656.733" cy="42.5954" r="2.24191" fill="#FFD388"/>
<circle cx="668.42" cy="42.5954" r="2.24191" fill="#FFD388"/>
<circle cx="680.108" cy="42.5954" r="2.24191" fill="#FFD388"/>
<circle cx="691.795" cy="42.5954" r="2.24191" fill="#FFD388"/>
<circle cx="703.482" cy="42.5954" r="2.24191" fill="#FFD388"/>
<circle cx="715.17" cy="42.5954" r="2.24191" fill="#FFD388"/>
</svg>
