<svg width="80" height="80" viewBox="0 0 80 80" fill="none" xmlns="http://www.w3.org/2000/svg">
<path fill-rule="evenodd" clip-rule="evenodd" d="M40 60.1C50.8248 60.1 59.6 51.3248 59.6 40.5C59.6 29.6752 50.8248 20.9 40 20.9C29.1752 20.9 20.4 29.6752 20.4 40.5C20.4 51.3248 29.1752 60.1 40 60.1ZM40 68.5C55.464 68.5 68 55.964 68 40.5C68 25.036 55.464 12.5 40 12.5C24.536 12.5 12 25.036 12 40.5C12 55.964 24.536 68.5 40 68.5Z" fill="url(#paint0_angular_329_1147)"/>
<g style="mix-blend-mode:overlay">
<path fill-rule="evenodd" clip-rule="evenodd" d="M40 60.1C50.8248 60.1 59.6 51.3248 59.6 40.5C59.6 29.6752 50.8248 20.9 40 20.9C29.1752 20.9 20.4 29.6752 20.4 40.5C20.4 51.3248 29.1752 60.1 40 60.1ZM40 68.5C55.464 68.5 68 55.964 68 40.5C68 25.036 55.464 12.5 40 12.5C24.536 12.5 12 25.036 12 40.5C12 55.964 24.536 68.5 40 68.5Z" fill="url(#paint1_angular_329_1147)"/>
</g>
<defs>
<radialGradient id="paint0_angular_329_1147" cx="0" cy="0" r="1" gradientUnits="userSpaceOnUse" gradientTransform="translate(40 40.5) rotate(-23.9625) scale(27.5768 27.6834)">
<stop offset="0.846492" stop-color="#FF9000" stop-opacity="0.0613839"/>
<stop offset="0.944015" stop-color="#FF9000" stop-opacity="0"/>
<stop offset="0.944115" stop-color="#FF9000"/>
<stop offset="0.989483" stop-color="#FF9000"/>
<stop offset="0.989583" stop-color="#FF9000"/>
</radialGradient>
<radialGradient id="paint1_angular_329_1147" cx="0" cy="0" r="1" gradientUnits="userSpaceOnUse" gradientTransform="translate(40 40.5) rotate(-23.9625) scale(27.5768 27.6834)">
<stop offset="0.944015" stop-opacity="0"/>
<stop offset="0.944115"/>
<stop offset="0.944215"/>
<stop offset="0.989583"/>
</radialGradient>
</defs>
</svg>
