<svg width="120" height="42" viewBox="0 0 120 42" fill="none" xmlns="http://www.w3.org/2000/svg">
<path fill-rule="evenodd" clip-rule="evenodd" d="M14.0457 33.9798C20.3024 41.1714 39.7689 42.2925 46.5415 34.4196C46.9324 34.0442 47.2821 33.6287 47.5726 33.1578C47.7941 32.796 47.9686 32.4081 47.9536 31.9773C47.9627 31.7918 47.9236 31.6367 47.8513 31.508C47.6723 31.1291 47.2521 30.8803 46.8189 30.964C46.7432 30.9567 46.6698 30.9538 46.6012 30.9548C46.575 30.9286 46.5582 30.8876 46.5379 30.8363C46.3608 30.3557 46.277 29.8569 46.2303 29.34C46.1558 28.4876 46.2583 27.6533 46.4447 26.819C46.7523 25.4225 47.3209 24.1076 47.9174 22.8108C48.5979 21.3417 49.4274 19.9361 50.2756 18.5487C50.4319 18.2904 50.5897 18.0325 50.7499 17.7759C52.1917 15.7717 53.7257 13.9392 55 12.4996C57.0002 10.9996 59 9.39237 58 7.99962C57.3117 7.04096 55.4364 7.46937 54 8.49962C52.5753 9.52148 52.0225 10.7994 52.6844 11.7608C50.6876 14.9126 48.0563 16.7781 47.4998 16.4998C46.5542 16.027 46.9998 12.9996 47.6838 12.1564C48.4617 11.811 49.217 11.1542 49.775 10.2595C50.9215 8.42112 50.8002 6.27475 49.504 5.46548C48.2077 4.65622 46.6464 5.48458 45.4998 7.323C44.4445 9.01515 44.4431 10.801 45.4631 11.7282C45.3367 11.9832 45.2011 12.2341 45.0558 12.4795C44.7416 12.8776 44.3632 13.223 44.0607 13.4991C43.9373 13.6117 43.8266 13.7128 43.7379 13.8012L43.6842 13.8549C42.9451 13.0044 42.1363 12.3053 41.2592 11.7273C41.0971 11.1016 41.0546 10.4548 41.02 9.81585C40.9734 8.91808 41.0666 8.02938 41.253 7.14975C41.2903 6.98652 41.3462 6.91398 41.5047 6.85957C41.7656 6.76888 41.9987 6.62379 42.1851 6.41522C42.7723 5.77136 42.9308 5.00055 42.8562 4.1844C42.8282 3.79446 42.6325 3.44986 42.3249 3.19595C41.7843 2.7516 41.1784 2.74253 40.5539 3.02365C39.7896 3.37731 39.3981 4.02117 39.1278 4.76477C39.0346 5.01869 39.0253 5.2726 39.0626 5.54465C39.1185 5.89832 39.3143 6.1613 39.5473 6.40615C39.7151 6.58751 39.7337 6.75074 39.6032 6.95025C39.3329 7.35833 39.0346 7.75733 38.6898 8.12007C38.0575 8.77616 37.2881 9.27649 36.5125 9.75523C35.0489 9.3977 33.4667 9.17034 31.7694 9.0006C31.7192 8.75002 31.6792 8.52623 31.6476 8.3242C31.6223 8.02018 31.6179 7.71862 31.6291 7.416C32.6983 6.83927 33.4243 5.46149 33.3717 3.88053C33.3034 1.82637 31.9973 0.44305 30.3918 0.499726C28.7863 0.556402 27.4893 2.03161 27.5577 4.08577C27.6052 5.51431 28.2759 6.73252 29.2201 7.323C29.2104 7.72989 29.1508 8.24251 28.9993 8.99982C27.3766 9.16209 25.8593 9.37702 24.4502 9.70799C24.4272 9.69434 24.4041 9.6807 24.3811 9.66704C24.1937 9.55601 24.0051 9.44426 23.823 9.32616C22.9002 8.72765 22.0986 8.00218 21.5114 7.08627C21.2362 6.66438 21.2371 6.6635 21.4806 6.41472C21.5093 6.38543 21.5413 6.35271 21.5766 6.31546C21.9588 5.89832 22.08 5.43583 21.9402 4.89173C21.8469 4.5562 21.6792 4.26601 21.5021 3.97583C21.1758 3.468 20.7378 3.09619 20.1319 2.91483C19.2278 2.66091 18.3609 3.1506 18.1652 4.04837C18.0906 4.36576 18.1093 4.68316 18.1652 5.00055C18.3143 5.87111 18.6778 6.57845 19.582 6.90491C19.6752 6.94118 19.7125 6.98652 19.7311 7.07721C19.9268 7.99311 20.0387 8.90902 19.9828 9.84306C19.9771 9.92663 19.9719 10.0103 19.9666 10.0941C19.9363 10.5795 19.9057 11.0672 19.7942 11.5446C18.8067 12.1562 17.9028 12.9124 17.0845 13.8541L17.0307 13.8004C16.6023 13.373 15.889 12.3905 15.4998 11.4996C16.5559 10.582 16.7549 9.04058 15.6873 7.32864C14.5407 5.49021 12.5605 4.65592 11.2643 5.46518C9.96804 6.27445 9.84671 8.42082 10.9933 10.2592C11.5514 11.1542 12.7211 11.8111 13.4993 12.1564C14.0166 13.1711 14.4447 16.0271 13.4993 16.4998C12.9428 16.7781 9.99675 14.6515 7.99997 11.4996C8.66119 10.5382 8.42439 9.52129 6.99997 8.49962C5.56358 7.46937 3.74155 7.20085 3.05323 8.15952C2.49983 8.93006 3.06358 10.4694 4.49997 11.4996C4.75487 11.6824 5.73429 12.3783 5.99983 12.4996C7.50543 14.2006 9.34153 16.4499 10.9514 18.8828C12.0895 20.7855 13.1607 22.7276 13.9522 24.8059C14.3343 25.8215 14.6419 26.8644 14.7631 27.9435C14.8283 28.5874 14.8283 29.2312 14.7165 29.8751C14.6606 30.2106 14.5953 30.5643 14.4462 30.8817C14.4431 30.8887 14.4402 30.8958 14.4374 30.9027C14.4264 30.9296 14.4162 30.9546 14.3963 30.9705C14.2537 30.9371 14.0849 30.9243 13.9149 30.9539C13.3266 31.006 13.0012 31.5396 13.048 32.124C13.076 32.4958 13.2345 32.8404 13.4302 33.1578C13.6136 33.4521 13.8203 33.7247 14.0457 33.9798Z" fill="#563B00"/>
<path d="M39.8642 23.9534C42.6791 23.3911 45.3262 22.4208 47.8149 20.9789C47.8522 21.0968 47.7869 21.1512 47.7589 21.2147C47.1717 22.3392 46.5659 23.4546 46.1278 24.6426C45.5685 26.157 45.261 27.7077 45.3914 29.3218C45.4567 30.1924 45.6897 31.0267 45.96 31.8519C46.0159 32.0333 45.9973 32.1874 45.8668 32.3325C45.0373 33.2938 43.984 34.0011 42.9214 34.6903C42.1291 35.2072 41.2903 35.6516 40.4421 36.0596C39.8735 36.3317 39.2863 36.5765 38.6804 36.767C39.2303 36.64 39.7616 36.4496 40.2929 36.2501C41.4114 35.842 42.474 35.316 43.4807 34.6903C44.3475 34.1462 45.1677 33.5477 45.8761 32.8041C46.0719 32.5955 46.2303 32.396 46.1744 32.0696C46.1371 31.8791 46.3422 31.7884 46.5193 31.7431C46.743 31.6887 46.9014 31.7522 46.9853 31.9245C47.1531 32.3053 47.0133 32.6318 46.7989 32.9492C45.9787 34.1371 44.8135 34.9533 43.5832 35.6788C42.241 36.4677 40.7683 36.9665 39.3049 37.4652C37.8509 37.964 36.3688 38.3721 34.8589 38.6532C34.225 38.7711 33.5819 38.8618 32.9388 38.9434C32.0906 39.0522 31.2424 39.1701 30.3942 39.152C29.5926 39.1338 28.791 39.0522 27.9987 38.9252C27.3649 38.8255 26.7311 38.7529 26.0972 38.6351C24.6525 38.3721 23.2544 37.9731 21.8656 37.5106C20.6445 37.1025 19.4235 36.6854 18.2677 36.1231C17.0094 35.5155 15.8909 34.7266 14.8842 33.7744C14.586 33.4933 14.3529 33.1578 14.1386 32.8132C13.9894 32.5683 13.8962 32.2872 14.0081 31.997C14.1013 31.7703 14.2597 31.6978 14.5114 31.7612C14.7631 31.8247 14.8563 31.9607 14.8283 32.1965C14.8097 32.3779 14.8936 32.532 15.0054 32.659C15.3223 33.0399 15.6952 33.3573 16.0773 33.6656C17.8669 35.0984 19.9082 36.0596 22.1079 36.7216C22.1732 36.7398 22.2477 36.7579 22.3223 36.767C21.9588 36.6219 21.6046 36.4768 21.2411 36.3498C20.8496 36.2229 20.5047 36.0234 20.1412 35.842C18.7244 35.1256 17.3636 34.3004 16.1332 33.3029C15.779 33.0127 15.4528 32.6862 15.1452 32.3507C14.9961 32.1874 14.9774 32.0242 15.0427 31.8338C15.5181 30.4917 15.7324 29.1223 15.6019 27.7077C15.546 27.082 15.4062 26.4653 15.2477 25.8577C14.8097 24.1529 13.9615 22.6203 13.1506 21.0696C13.1412 21.0515 13.1319 21.0424 13.1412 20.9971C15.6299 22.4118 18.2864 23.3911 21.1292 23.9715C21.1013 23.8536 21.008 23.8718 20.9521 23.8536C19.7124 23.4818 18.5101 23.0193 17.3356 22.5024C15.6672 21.7679 14.0733 20.9064 12.5727 19.8817C12.3956 19.7547 12.2744 19.6006 12.1625 19.4283C10.7831 17.3153 9.24511 15.3112 7.60464 13.3978C7.06403 12.763 6.46749 12.1645 5.87095 11.5841C5.54472 11.2577 5.14393 11.0037 4.78973 10.7045C4.27709 10.2692 3.80172 9.80673 3.50345 9.19915C3.42889 9.04498 3.36364 8.88175 3.37296 8.71852C3.40092 8.24697 3.63395 8.07467 4.22116 8.13815C4.64992 8.18349 5.06936 8.30138 5.47016 8.45554C6.21583 8.73666 6.89625 9.13567 7.46482 9.68884C7.71649 9.93368 7.93087 10.2057 7.87494 10.5866C7.84698 10.8042 7.75377 10.9675 7.52075 11.0128C7.38094 11.0491 7.4089 11.1216 7.4555 11.2033C7.94951 12.0557 8.43419 12.9081 9.01209 13.7061C9.86029 14.885 10.8576 15.9279 12.0693 16.7531C12.4422 17.007 12.843 17.2246 13.281 17.3516C13.5607 17.4332 13.7005 17.3697 13.8869 17.1612C14.2691 16.7259 14.4462 16.2362 14.4928 15.6649C14.5394 15.1661 14.5766 14.6764 14.558 14.1777C14.5207 13.2618 14.2877 12.3821 13.9055 11.5388C13.8403 11.3937 13.7098 11.4028 13.6073 11.4028C13.5141 11.4028 13.4302 11.3846 13.3463 11.3483C12.0414 10.768 11.3237 9.76138 11.0254 8.42833C10.9415 8.07467 10.9322 7.71193 10.9042 7.35827C10.8856 7.04088 10.9508 6.73255 11.1 6.45143C11.3609 5.93453 11.8363 5.70783 12.4142 5.72596C13.3556 5.75317 14.0267 6.24286 14.6233 6.89578C15.1825 7.5215 15.4715 8.2651 15.6858 9.04498C15.779 9.39865 15.7977 9.77045 15.7231 10.1332C15.6299 10.6138 15.341 10.9584 14.9029 11.176C14.7444 11.2577 14.7444 11.3211 14.8097 11.4662C15.5647 13.2346 16.7204 14.7127 18.1465 16.0095C18.9761 16.7712 19.8802 17.4423 20.8589 18.0227C21.4648 18.3763 22.1172 18.6121 22.8256 18.6393C23.7297 18.6847 24.4941 18.3401 25.1745 17.7869C26.2557 16.9073 26.992 15.7828 27.6352 14.5858C28.3995 13.1711 28.9867 11.6929 29.3409 10.1423C29.5739 9.09939 29.6858 8.04746 29.6671 6.98646C29.6578 6.71441 29.5646 6.58746 29.3316 6.4605C28.5486 6.04336 28.1944 5.35416 28.1385 4.5108C28.0826 3.69465 28.2783 2.94197 28.763 2.27998C29.2104 1.6724 29.7976 1.28246 30.5992 1.31874C31.3449 1.35501 31.9041 1.73588 32.3049 2.32533C32.9667 3.32285 33.1345 4.38384 32.6498 5.49925C32.4448 5.97988 32.0719 6.31541 31.5966 6.53305C31.4381 6.60559 31.3822 6.69628 31.3822 6.87764C31.3915 7.35827 31.3822 7.82982 31.4195 8.31045C31.5127 9.42585 31.7457 10.5141 32.0999 11.5841C32.6498 13.2164 33.3862 14.7581 34.3742 16.1909C34.8589 16.8982 35.4554 17.5148 36.1638 18.0136C37.2077 18.7663 38.3355 18.8207 39.51 18.3491C40.2929 18.0408 40.964 17.5511 41.6258 17.0614C43.1917 15.9007 44.5246 14.5223 45.5219 12.8718C45.8016 12.4093 46.0253 11.9106 46.249 11.4209C46.2862 11.3302 46.3142 11.2758 46.193 11.2123C45.4008 10.8315 45.1864 10.1604 45.2889 9.37144C45.3914 8.5825 45.6897 7.84796 46.1651 7.20411C46.5938 6.62373 47.1065 6.0887 47.8522 5.85292C48.1877 5.75317 48.5326 5.68969 48.8868 5.72596C49.6231 5.78944 49.9866 6.36982 50.0892 6.87764C50.1917 7.42175 50.1264 7.96585 49.996 8.49181C49.6884 9.77952 48.9707 10.7861 47.6844 11.3393C47.6378 11.3574 47.5725 11.4028 47.5259 11.3937C47.1811 11.3393 47.0972 11.5569 46.9946 11.8108C46.743 12.4456 46.5566 13.0985 46.4913 13.7787C46.4261 14.4044 46.4447 15.021 46.5286 15.6468C46.5659 15.9188 46.5752 16.1818 46.6777 16.4448C46.7989 16.744 46.9853 17.007 47.1997 17.2519C47.3302 17.3969 47.5166 17.4151 47.703 17.3607C48.1504 17.2337 48.5419 17.0161 48.9147 16.7622C50.3222 15.81 51.4127 14.5767 52.3448 13.1983C52.7736 12.5544 53.1464 11.8834 53.5379 11.2214C53.6031 11.1126 53.6311 11.04 53.454 10.9947C53.1371 10.904 53.0252 10.4959 53.2023 10.1332C53.3794 9.78859 53.6684 9.53467 53.976 9.30797C54.7869 8.70039 55.7003 8.30138 56.7163 8.14722C56.7816 8.13815 56.8561 8.12908 56.9214 8.12908C57.4993 8.12001 57.7696 8.46461 57.5738 8.99964C57.4154 9.44399 57.1357 9.80673 56.8095 10.1423C56.4087 10.5594 55.9706 10.9221 55.5046 11.2577C55.1038 11.5479 54.7962 11.9197 54.4607 12.2643C52.3169 14.486 50.49 16.9526 48.7936 19.5008C48.6817 19.6731 48.5419 19.8001 48.3741 19.918C45.7829 21.6772 42.9494 22.9559 39.9481 23.8899C39.9201 23.899 39.8921 23.899 39.8642 23.899C39.8548 23.899 39.8548 23.899 39.8455 23.899C39.8455 23.8899 39.8455 23.899 39.8642 23.9534ZM30.04 37.5106C30.7204 37.5196 31.1864 37.4924 31.6432 37.438C34.0386 37.1569 35.968 36.1594 37.1238 33.9921C37.478 33.3301 37.6458 32.6409 37.5806 31.9063C37.4873 30.9541 37.0679 30.1833 36.1917 29.6936C35.6232 29.3763 34.9987 29.2765 34.3462 29.3128C33.7404 29.34 33.1718 29.5032 32.6032 29.6755C32.044 29.8478 31.4847 30.0292 30.8882 30.0655C29.7231 30.138 28.5766 30.011 27.4674 29.6574C26.0227 29.204 24.9228 28.3606 24.2331 27.0275C24.1026 26.7736 23.9534 26.5197 23.8043 26.2749C23.1612 25.2502 22.052 24.96 20.9614 25.5222C20.1226 25.9575 19.5726 26.6557 19.1812 27.481C18.8922 28.0704 18.799 28.7052 18.7338 29.3491C18.6219 30.4917 18.8363 31.5799 19.4794 32.5411C20.3463 33.8379 21.5021 34.8717 22.8629 35.6516C25.1465 36.9574 27.6445 37.4562 30.04 37.5106ZM26.6751 25.9575C26.5913 25.9938 26.526 25.9393 26.4608 25.9303C26.3862 25.9212 26.3116 25.9031 26.2371 25.894C26.0879 25.8849 25.9201 25.9121 25.9015 26.0663C25.8829 26.1933 26.0227 26.2658 26.1532 26.3021C26.1905 26.3111 26.2371 26.3293 26.2743 26.3384C27.2157 26.5016 27.803 27.0457 28.0826 27.9253C28.1106 28.016 28.1385 28.1067 28.1665 28.1974C28.1851 28.2427 28.2224 28.2971 28.2876 28.2881C28.3529 28.279 28.3622 28.2246 28.3715 28.1611C28.3902 27.9888 28.3622 27.8165 28.3156 27.6623C28.2783 27.5626 28.3063 27.4991 28.3715 27.4266C28.5393 27.2543 28.6232 27.0366 28.6232 26.7918C28.6232 25.232 28.6232 23.6813 28.6139 22.1216C28.6139 21.9946 28.6512 21.9311 28.763 21.8767C28.9494 21.7951 29.1079 21.6591 29.2011 21.4777C29.2384 21.3961 29.257 21.2963 29.1731 21.2329C29.0986 21.1694 29.052 21.2691 28.996 21.3054C28.6418 21.5049 28.2876 21.6681 27.8589 21.5684C27.3276 21.4324 27.0387 21.0787 26.8802 20.589C26.7777 20.2535 26.815 19.918 26.8802 19.5734C26.9082 19.4283 26.8802 19.2832 26.7031 19.256C26.5353 19.2288 26.4701 19.3466 26.4328 19.4827C26.265 20.19 26.3396 20.852 26.8336 21.4324C26.8895 21.4958 26.9082 21.5412 26.8522 21.6228C26.7124 21.8042 26.6751 22.0127 26.6751 22.2395C26.6751 23.1644 26.6751 24.0803 26.6751 25.0053C26.6751 25.3227 26.6751 25.6401 26.6751 25.9575ZM33.7124 25.9575C33.7124 25.8849 33.7124 25.8033 33.7124 25.7308C33.7124 24.5428 33.7124 23.3549 33.7124 22.1669C33.7124 21.6228 33.293 21.2057 32.7523 21.2057C32.2024 21.2057 31.7737 21.6228 31.7737 22.176C31.7737 23.7085 31.7737 25.232 31.7737 26.7646C31.7737 26.9097 31.7737 27.0729 31.8669 27.1726C32.0906 27.4175 32.1185 27.6805 32.0346 27.9888C32.0067 28.0795 31.9694 28.2427 32.1185 28.2699C32.249 28.2881 32.249 28.1248 32.277 28.0251C32.4727 27.354 32.8549 26.828 33.498 26.5107C33.7404 26.3928 34.0013 26.3656 34.253 26.293C34.3742 26.2567 34.514 26.1933 34.4953 26.0572C34.4674 25.9303 34.3276 25.8759 34.1971 25.894C34.0479 25.9031 33.8895 25.9393 33.7124 25.9575ZM31.2424 18.6756C31.2424 18.7935 31.2703 18.9204 31.4381 18.9476C31.5966 18.9658 31.6618 18.857 31.6898 18.73C31.7084 18.6665 31.7177 18.594 31.7364 18.5305C31.8482 18.1496 32.1931 17.8594 32.5846 17.8322C32.976 17.805 33.3116 18.0317 33.4794 18.4217C33.526 18.5305 33.5539 18.6393 33.6005 18.7481C33.6565 18.8751 33.7497 18.9567 33.8988 18.9114C34.0293 18.866 34.0666 18.7481 34.0386 18.6302C33.9827 18.3854 33.8895 18.1587 33.7497 17.9592C33.4141 17.4967 32.8456 17.2881 32.3143 17.4332C31.727 17.5874 31.2703 18.1133 31.2424 18.6756ZM22.4528 36.8123C22.4341 36.8032 22.4248 36.7942 22.4062 36.7942C22.3875 36.8032 22.3875 36.8123 22.4062 36.8123C22.4248 36.8214 22.4435 36.8123 22.4528 36.8123ZM38.5872 36.8123C38.5872 36.8032 38.5872 36.7942 38.5872 36.7942C38.5779 36.7942 38.5592 36.7942 38.5499 36.7942C38.5313 36.7942 38.5313 36.8032 38.5499 36.8123C38.5592 36.8214 38.5779 36.8123 38.5872 36.8123Z" fill="#FFE52F"/>
<path d="M17.6148 14.7493C17.5123 14.6404 17.4936 14.5498 17.5868 14.4137C17.9969 13.7699 18.5655 13.2711 19.1714 12.8177C20.5229 11.8111 22.0608 11.1945 23.6827 10.7501C24.8944 10.4237 26.1154 10.1788 27.3644 10.0428C27.8771 9.98837 28.3897 9.93396 28.9117 9.88862C29.0608 9.87955 29.1074 9.89769 29.0608 10.0609C28.6507 11.6025 28.0728 13.0807 27.2992 14.4863C24 19.5 21.5 19 17.6148 14.7493Z" fill="#DE5D4F"/>
<path d="M31.9675 10.1702C31.9581 10.1248 31.9581 10.0704 31.9302 10.0341C31.8742 9.92531 31.9209 9.90717 32.0234 9.8981C32.2471 9.8709 32.4615 9.92531 32.6758 9.94345C34.8942 10.1611 37.066 10.551 39.1445 11.3672C40.5427 11.9203 41.8196 12.6458 42.8636 13.725C43.0593 13.9245 43.2271 14.1512 43.3948 14.3779C43.5253 14.5502 43.4601 14.6499 43.3482 14.7769C42.8076 15.3845 42.2297 15.9648 41.6146 16.5089C36.5 21.5 33.3806 14.3779 31.9675 10.1702Z" fill="#DE5D4F"/>
<path d="M30.0405 37.511C27.6451 37.4475 25.1471 36.9579 22.8635 35.652C21.4933 34.8631 20.3468 33.8293 19.48 32.5416C18.8368 31.5803 18.6225 30.4921 18.7343 29.3495C18.7996 28.7056 18.8928 28.0799 19.1817 27.4814C19.5825 26.6562 20.1231 25.9579 20.962 25.5226C22.0525 24.9604 23.1617 25.2597 23.8049 26.2753C23.9633 26.5202 24.1031 26.7741 24.2336 27.028C24.9234 28.352 26.0232 29.2044 27.468 29.6578C28.5865 30.0115 29.7236 30.1384 30.8887 30.0659C31.4853 30.0296 32.0445 29.8392 32.6038 29.676C33.1723 29.5037 33.7502 29.3404 34.3468 29.3132C34.9992 29.277 35.6237 29.3767 36.1923 29.6941C37.0685 30.1838 37.4879 30.9455 37.5811 31.9068C37.6557 32.6504 37.4879 33.3305 37.1244 33.9925C35.9593 36.1598 34.0392 37.1483 31.6437 37.4385C31.187 37.4929 30.721 37.5201 30.0405 37.511ZM26.2003 31.7617C26.3495 31.7798 26.4427 31.7073 26.5172 31.5985C26.8248 31.1904 27.0672 30.746 27.2629 30.2745C27.3188 30.1294 27.3002 30.075 27.1417 30.0206C26.2003 29.6941 25.3335 29.2316 24.681 28.4699C24.5971 28.3701 24.5505 28.4064 24.4853 28.4699C24.0565 28.8507 23.6744 29.277 23.3761 29.7666C23.2177 30.0206 23.2363 30.1747 23.4507 30.3833C23.926 30.8639 24.4946 31.2085 25.1191 31.4624C25.4547 31.6075 25.8182 31.7073 26.2003 31.7617ZM31.2243 32.7139C32.0259 32.6867 32.8088 32.469 33.5359 32.07C33.7316 31.9612 33.8155 31.8252 33.7689 31.5985C33.6664 31.0725 33.396 30.6372 33.0885 30.2019C32.9859 30.0659 32.902 30.0478 32.7436 30.0931C31.9979 30.3379 31.2429 30.5465 30.4413 30.5375C30.3202 30.5375 30.3295 30.61 30.3295 30.6825C30.2922 31.145 30.3108 31.5985 30.3947 32.0519C30.5159 32.7229 30.3761 32.6957 31.2243 32.7139Z" fill="#563B00"/>
<path d="M26.6746 25.9574C26.6746 25.64 26.6746 25.3226 26.6746 25.0052C26.6746 24.0803 26.6746 23.1644 26.6746 22.2394C26.6746 22.0127 26.7119 21.8041 26.8517 21.6227C26.9077 21.5411 26.889 21.5048 26.8331 21.4323C26.3484 20.8519 26.2738 20.1899 26.4323 19.4826C26.4603 19.3466 26.5348 19.2287 26.7026 19.2559C26.889 19.2831 26.9077 19.4191 26.8797 19.5733C26.8144 19.9088 26.7772 20.2534 26.8797 20.5889C27.0288 21.0786 27.3271 21.4414 27.8584 21.5683C28.2778 21.6771 28.6413 21.5048 28.9955 21.3053C29.0515 21.2781 29.0981 21.1784 29.1726 21.2328C29.2565 21.2963 29.2379 21.396 29.2006 21.4776C29.1074 21.659 28.9582 21.795 28.7625 21.8766C28.6413 21.9311 28.6134 21.9945 28.6134 22.1215C28.6227 23.6813 28.6227 25.2319 28.6227 26.7917C28.6227 27.0365 28.5388 27.2451 28.371 27.4265C28.3058 27.499 28.2778 27.5534 28.3151 27.6623C28.371 27.8255 28.3897 27.9887 28.371 28.161C28.3617 28.2154 28.3617 28.2789 28.2871 28.288C28.2219 28.297 28.1846 28.2426 28.166 28.1973C28.1287 28.1066 28.1101 28.0159 28.0821 27.9252C27.8025 27.0456 27.2152 26.5015 26.2738 26.3383C26.2366 26.3292 26.1899 26.3201 26.1527 26.302C26.0315 26.2657 25.8824 26.1932 25.901 26.0662C25.929 25.9121 26.0967 25.8849 26.2366 25.8939C26.3111 25.8939 26.3857 25.9211 26.4603 25.9302C26.5348 25.9302 26.5907 25.9846 26.6746 25.9574Z" fill="#563B00"/>
<path d="M33.7132 25.9572C33.8809 25.93 34.0394 25.9028 34.1978 25.8846C34.3377 25.8756 34.4775 25.9209 34.4961 26.0479C34.5241 26.193 34.3843 26.2474 34.2538 26.2836C34.0021 26.3562 33.7318 26.3834 33.4988 26.5013C32.8463 26.8187 32.4642 27.3446 32.2777 28.0157C32.2498 28.1154 32.2498 28.2787 32.1193 28.2605C31.9702 28.2424 32.0168 28.0701 32.0354 27.9794C32.1193 27.6802 32.1006 27.4172 31.8676 27.1633C31.7744 27.0635 31.7744 26.9003 31.7744 26.7552C31.7744 25.2226 31.7744 23.6992 31.7744 22.1666C31.7744 21.6134 32.2032 21.1963 32.7531 21.1963C33.2937 21.1963 33.7132 21.6134 33.7132 22.1575C33.7132 23.3455 33.7132 24.5334 33.7132 25.7214C33.7132 25.8121 33.7132 25.8846 33.7132 25.9572Z" fill="#563B00"/>
<path d="M31.2402 18.6759C31.2682 18.1136 31.7249 17.5877 32.2935 17.4245C32.8248 17.2794 33.4027 17.4879 33.7289 17.9504C33.878 18.159 33.9619 18.3857 34.0179 18.6215C34.0458 18.7484 34.0179 18.8573 33.878 18.9026C33.7289 18.9479 33.6357 18.8754 33.5798 18.7394C33.5332 18.6305 33.5052 18.5217 33.4586 18.4129C33.2908 18.0139 32.9553 17.7963 32.5638 17.8235C32.1816 17.8507 31.8274 18.1318 31.7156 18.5217C31.697 18.5852 31.6876 18.6577 31.669 18.7212C31.641 18.8482 31.5758 18.957 31.4173 18.9389C31.2682 18.9298 31.2402 18.7938 31.2402 18.6759Z" fill="#563B00"/>
<path d="M22.4521 36.8128C22.4427 36.8128 22.4239 36.822 22.4145 36.822C22.3957 36.822 22.3957 36.8036 22.4145 36.8036C22.4239 36.7944 22.4333 36.8036 22.4521 36.8128Z" fill="#563B00"/>
<path d="M38.5869 36.8123C38.5775 36.8123 38.5587 36.8215 38.5493 36.8123C38.5305 36.8031 38.5305 36.7939 38.5493 36.7939C38.5587 36.7939 38.5775 36.7939 38.5869 36.7939C38.5869 36.8031 38.5869 36.8123 38.5869 36.8123Z" fill="#563B00"/>
<path d="M26.2 31.7617C25.8272 31.7073 25.4637 31.6166 25.1095 31.4715C24.485 31.2176 23.9164 30.873 23.4411 30.3924C23.2267 30.1838 23.2173 30.0296 23.3665 29.7757C23.6648 29.286 24.0469 28.8598 24.4757 28.4789C24.5502 28.4155 24.5875 28.3792 24.6714 28.4789C25.3239 29.2407 26.1907 29.6941 27.1321 30.0296C27.2906 30.084 27.3092 30.1385 27.2533 30.2835C27.0669 30.7551 26.8152 31.1995 26.5076 31.6075C26.433 31.7073 26.3398 31.7798 26.2 31.7617Z" fill="#FDFDFD"/>
<path d="M31.2217 32.7141C30.3735 32.696 30.5133 32.7232 30.3921 32.0612C30.3083 31.6078 30.2896 31.1544 30.3269 30.6919C30.3362 30.6193 30.3176 30.5468 30.4388 30.5468C31.2403 30.5468 31.9953 30.3382 32.741 30.1024C32.8995 30.048 32.9927 30.0752 33.0859 30.2113C33.3935 30.6375 33.6638 31.0818 33.7663 31.6078C33.8129 31.8345 33.729 31.9705 33.5333 32.0793C32.8063 32.4693 32.0326 32.6869 31.2217 32.7141Z" fill="#FDFDFD"/>
<path d="M116.575 15.6535C117.241 13.8266 116.86 13.3459 115.909 13.1536H115.814C115.909 13.0574 116.004 12.9613 116.099 12.8651C116.385 12.3844 116.575 11.8075 116.385 11.2305L115.528 7.48064C115.338 6.61527 114.577 5.94221 113.72 5.94221H113.625L106.964 6.90373C106.298 6.99988 105.822 7.38449 105.632 7.9614C105.441 8.44215 105.346 8.82676 105.251 9.30752L104.965 6.90373C104.965 5.84606 104.109 4.9807 103.062 4.9807H100.303C99.5414 4.9807 98.7801 5.55761 98.4946 6.32682C98.3043 6.90373 98.0188 7.48064 97.9236 7.86524C97.8285 7.48064 97.6382 7.09603 97.543 6.61527C97.2575 5.74991 96.4962 5.173 95.6398 5.173C95.5446 5.173 95.4495 5.173 95.4495 5.173L92.785 5.46146C91.8334 5.55761 91.0721 6.32682 91.0721 7.38449L90.977 9.01906L90.5963 7.38449C90.406 6.51912 89.6447 5.84606 88.7883 5.84606H88.6931L82.032 6.80758C81.3658 6.90373 80.89 7.28833 80.6997 7.86524C80.4142 8.73061 80.2239 9.59597 80.0336 10.3652L79.7481 3.82688C79.7481 2.76921 78.8917 2 77.8449 2H74.2289C73.4676 2 72.7063 2.48076 72.4208 3.24997C72.0402 4.01918 71.6595 5.07685 71.2789 5.84606C71.0886 5.173 70.8031 4.30764 70.6128 3.73073C70.3273 2.86536 69.6612 2.38461 68.8047 2.38461C68.7096 2.38461 68.6144 2.38461 68.6144 2.38461L64.9984 2.76921C64.0468 2.86536 63.3806 3.63458 63.2855 4.59609V6.03836C62.9045 15.5344 63.1253 25.0011 63 34.4992C63 34.98 63.1903 35.4607 63.571 35.8453C63.9516 36.2299 64.4274 36.4222 64.9032 36.4222H64.9984L68.3289 36.2299C69.2805 36.1338 70.0418 35.3646 70.0418 34.3069V32.9608C70.137 32.7685 70.137 32.5762 70.137 32.3839C70.3273 32.7685 70.6128 33.1531 70.8983 33.5377C71.2789 34.2108 71.7547 34.8838 72.1353 35.5569C72.516 36.1338 73.0869 36.4222 73.7531 36.4222C73.8482 36.4222 73.9434 36.4222 74.0385 36.4222L77.274 35.8453C77.8449 35.7492 78.4159 35.3646 78.7014 34.7877C79.1772 33.8262 79.1772 32.5762 78.9868 31.9031C78.9868 31.6147 78.8917 31.3262 78.7014 31.0378C78.0352 29.8839 76.8933 27.9609 76.132 26.3263C76.9885 24.5956 78.1304 22.4803 78.8917 21.2303C78.8917 21.2303 78.8917 21.1342 78.9868 21.038C78.9868 21.4226 79.1772 21.8072 79.4626 22.0957L79.5578 32.1916C79.5578 32.2877 79.5578 32.48 79.5578 32.5762V34.1146C79.5578 35.1723 80.4142 36.0376 81.461 36.0376C81.461 36.0376 81.5562 36.0376 81.6513 36.0376L83.84 35.8453C84.7916 35.7492 85.5529 34.98 85.5529 34.0185L85.648 32.48C85.648 32.3839 85.7432 32.1916 85.7432 32.0954L86.0287 23.0572C86.4093 22.7687 86.6948 22.3841 86.8851 21.9034L86.9803 21.4226C86.9803 21.5188 86.9803 21.6149 86.9803 21.7111C86.7899 24.9802 86.5045 32.8646 86.5045 34.4031C86.5045 35.4607 87.3609 36.2299 88.3125 36.2299H88.4077L90.406 36.1338C91.2624 36.1338 92.0237 35.3646 92.1189 34.4992C92.214 33.9223 92.214 33.2493 92.3092 32.5762L93.5463 35.1723C93.8318 35.8453 94.4979 36.2299 95.164 36.2299C95.2592 36.2299 95.2592 36.2299 95.3543 36.2299L99.7317 35.8453C100.683 35.7492 101.349 34.98 101.349 34.0185L101.445 32.5762C101.445 32.48 101.445 32.48 101.445 32.3839C101.635 32.9608 102.016 33.3454 102.491 33.5377C102.016 34.1146 102.381 36.2299 102.381 36.2299C102.381 36.2299 102.53 39.9799 104.395 39.9799H104.49C104.87 39.9799 105.346 39.8837 105.727 39.8837C106.583 39.7876 107.344 39.7876 108.201 39.5952C109.057 39.4991 109.914 39.4029 110.675 39.2106C111.531 39.0183 112.293 38.826 112.864 38.6337C113.34 38.4414 113.815 38.153 114.101 37.7684C114.386 37.3838 114.672 36.9992 114.957 36.5184C115.148 36.0376 115.338 35.5569 115.528 35.0761C115.719 34.5954 115.814 34.0185 115.909 33.5377C116.004 33.2492 116.004 32.7685 116.099 32.0954C116.099 31.7108 116.099 31.4224 116.194 31.0378C116.194 30.8455 116.194 30.557 116.289 30.1724C116.289 29.4993 116.385 28.7301 116.385 27.8648C116.385 26.9994 116.385 26.134 116.48 25.1725C116.48 24.211 116.48 23.3456 116.48 22.5764C116.48 21.3265 116.004 20.1726 115.243 19.3073C115.433 19.115 115.528 18.8265 115.719 18.5381L116.575 15.6535ZM109.533 27.2879L108.011 27.0956L108.106 26.2302L109.628 26.3263L109.533 27.2879Z" fill="#563B00"/>
<path d="M77.6536 3.05859H74.0376C73.6569 3.05859 73.2763 3.34705 73.1811 3.73165C72.8956 4.69317 72.2295 6.32775 71.7537 7.28926C71.6586 7.48156 71.5634 7.57772 71.4682 7.67387C71.4682 7.67387 71.3731 7.67387 71.2779 7.67387C71.1828 7.67387 71.1828 7.67387 71.0876 7.67387C70.9925 7.57772 70.8973 7.48156 70.8973 7.38541C70.5167 6.52005 70.0409 4.98162 69.7554 4.02011C69.5651 3.6355 69.1844 3.34705 68.8038 3.34705H68.7086L65.0925 3.73165C64.6167 3.82781 64.2361 4.21241 64.2361 4.69317L63.8555 15.2698C63.8555 15.8467 64.2361 16.2314 64.8071 16.2314H66.3296C66.8054 16.2314 67.1861 15.8467 67.2812 15.366L67.6619 11.0392C67.6619 11.0392 67.6619 10.6546 67.8522 10.6546C67.9473 10.6546 68.0425 10.7507 68.1377 10.943C68.6135 12.193 69.5651 14.4045 70.0409 15.366C70.2312 15.7506 70.5167 15.9429 70.8973 15.9429H71.1828C71.5634 15.9429 71.944 15.7506 72.0392 15.366C72.515 14.3083 73.4666 12.0007 74.0376 10.6546C74.1327 10.4623 74.2279 10.3661 74.323 10.3661C74.4182 10.3661 74.5134 10.4623 74.6085 10.6546V11.1353L74.894 15.2698C74.894 15.7506 75.3698 16.1352 75.8456 16.1352C75.8456 16.1352 75.8456 16.1352 75.9408 16.1352L78.2246 16.0391C78.7004 16.0391 79.1762 15.5583 79.081 15.0775L78.6052 4.02011C78.6052 3.4432 78.2246 3.05859 77.6536 3.05859Z" fill="white"/>
<path d="M90.5004 14.0195H84.9811C84.7908 14.0195 84.5053 13.9234 84.4102 13.6349C84.4102 13.5388 84.315 13.3464 84.315 13.1541C84.6005 13.058 87.8359 12.7695 89.644 12.5772C90.2149 12.4811 90.5956 11.9042 90.5004 11.3273L89.644 7.57736C89.5488 7.19275 89.1682 6.9043 88.7875 6.9043C88.7875 6.9043 88.7875 6.9043 88.6924 6.9043L81.936 7.86581C81.6506 7.86581 81.4602 8.05812 81.3651 8.34657C80.5086 10.9427 80.2232 13.058 80.7941 15.7502V15.8464C80.8893 16.1348 81.0796 16.3271 81.3651 16.4233L89.1682 16.9041C89.1682 16.9041 89.1682 16.9041 89.2633 16.9041C89.644 16.9041 90.0246 16.6156 90.1198 16.231L90.6907 14.5003C90.8811 14.2118 90.6907 14.0195 90.5004 14.0195ZM84.5053 9.50039C84.5053 9.40424 84.6005 9.30809 84.6957 9.30809L86.4085 9.11578C86.5989 9.11578 86.7892 9.30808 86.7892 9.50039L86.8843 10.3658C86.8843 10.5581 86.7892 10.7504 86.5989 10.8465L84.6957 11.135C84.6005 11.135 84.5053 11.0388 84.5053 10.9427V9.50039Z" fill="white"/>
<path d="M103.062 5.94336H100.302C99.9216 5.94336 99.5409 6.23181 99.3506 6.61642C99.0651 7.38563 98.5893 8.73175 98.2087 9.50097C98.1135 9.69327 98.0184 9.78942 98.0184 9.88557C97.9232 9.88557 97.9232 9.98172 97.8281 9.98172H97.7329C97.6377 9.78942 97.5426 9.78942 97.4474 9.69327C97.1619 9.02021 96.7813 7.77024 96.591 7.00103C96.4958 6.52027 96.1152 6.23181 95.6394 6.23181H95.5442L92.8797 6.52027C92.4039 6.61642 92.0233 7.00103 92.0233 7.48178L91.6427 16.1354C91.6427 16.7123 91.5475 17.1931 92.1185 17.1931L94.1168 17.0969C94.5926 17.0969 94.4975 16.7123 94.5926 16.1354L94.8781 12.674C94.8781 12.674 94.8781 12.2894 95.0684 12.2894C95.1636 12.2894 95.2587 12.3855 95.2587 12.4817C95.6394 13.5393 96.4007 15.2701 96.7813 16.1354C96.9716 16.52 97.2571 16.7123 97.6377 16.7123C98.0184 16.7123 98.399 16.52 98.4942 16.1354C98.8748 15.1739 99.6361 13.347 100.112 12.1932C100.207 12.0971 100.207 12.0009 100.397 12.0009C100.493 12.0009 100.588 12.0971 100.588 12.2894V12.674L100.778 15.9431C100.778 16.52 100.873 16.8085 101.349 16.8085H101.444H103.728C104.299 16.8085 104.299 16.3277 104.299 15.7508L104.013 6.90487C104.013 6.42412 103.538 5.94336 103.062 5.94336Z" fill="white"/>
<path d="M115.432 14.02H109.912C109.722 14.02 109.436 13.9238 109.341 13.6354C109.341 13.5392 109.246 13.3469 109.246 13.1546C109.532 13.0584 112.767 12.77 114.575 12.5777C115.146 12.4815 115.527 11.9046 115.432 11.3277L114.575 7.57781C114.48 7.09705 114.099 6.80859 113.623 6.80859C113.623 6.80859 113.623 6.80859 113.528 6.80859L106.772 7.77011C106.486 7.77011 106.296 7.96241 106.201 8.25087C105.345 10.847 105.059 12.9623 105.63 15.6545V15.7507C105.725 16.0391 105.916 16.2314 106.201 16.3276L114.004 16.8084C114.004 16.8084 114.004 16.8084 114.099 16.8084C114.48 16.8084 114.861 16.5199 114.956 16.1353C115.063 15.809 115.918 14.02 115.432 14.02ZM109.436 9.50084C109.436 9.40468 109.532 9.30853 109.627 9.30853L111.34 9.11623C111.53 9.11623 111.72 9.30853 111.72 9.50084L111.815 10.3662C111.815 10.5585 111.72 10.7508 111.53 10.847L109.627 11.1354C109.532 11.1354 109.436 11.0393 109.436 10.9431V9.50084Z" fill="white"/>
<path d="M77.5625 17.3841L74.3271 16.9033C74.2319 16.9033 74.2319 16.9033 74.1367 16.9033C73.8513 16.9033 73.4706 17.0956 73.3755 17.3841C72.519 18.7302 70.5207 22.1917 70.2352 22.4801C70.14 22.5763 70.14 22.5763 70.0449 22.6724C69.8545 22.9609 69.6642 23.1532 69.5691 23.1532C69.5691 23.1532 69.5691 23.1532 69.4739 23.1532C69.3788 23.1532 69.3788 22.7686 69.4739 22.6724V22.5763L69.3788 18.2494C69.3788 17.7687 68.9981 17.2879 68.4272 17.2879H65.0014C64.5256 17.2879 64.0498 17.6725 64.0498 18.2494L64.145 32.576C64.145 33.1529 64.5256 33.5375 65.0966 33.5375C65.0966 33.5375 65.0966 33.5375 65.1917 33.5375L68.5223 33.3452C68.9981 33.3452 69.3788 32.8645 69.3788 32.3837V28.2492C69.3788 27.9607 69.4739 27.7684 69.6642 27.7684C69.7594 27.7684 69.8545 27.8646 69.9497 27.9607C70.14 28.2492 70.9965 29.5953 71.9481 31.2299C72.3287 31.903 72.8045 32.576 73.1851 33.2491C73.3755 33.5375 73.6609 33.7298 73.9464 33.7298C74.0416 33.7298 74.0416 33.7298 74.1367 33.7298L77.3722 33.1529C78.0383 33.0568 78.3238 32.2876 78.0383 31.7107C77.0867 30.0761 75.5641 27.2877 74.8029 25.557C75.6593 23.7301 77.3722 20.6532 78.2286 19.0187C78.6092 18.2494 78.2286 17.4802 77.5625 17.3841Z" fill="#FFEA05"/>
<path d="M81 16C81 15.2 80.5 15 80.0003 15C79.2003 15.4 79.667 16.8333 80.0003 17.5C82.167 17.8333 86.6003 18.4 87.0003 18C87.5003 17.5 87.5 16.5 87 16C86.5 15.5 85.9997 16 86 17C86.0003 18 84.405 17.38 84.5 17C85 15 84 14.5 83.5003 14.5C83.0003 14.5 82.5003 15 82.5003 16C82.5003 16.8 81.8336 17 81.5003 17C81.3336 17 81 16.8 81 16Z" fill="#563B00"/>
<path d="M86.6987 16.4223C86.5084 16.4223 86.3181 16.6146 86.2229 16.9031C86.2229 16.9992 86.2229 17.1915 86.2229 17.2877C85.8423 17.6723 85.3665 17.9607 84.9859 17.9607C84.8907 17.9607 84.8907 17.9607 84.7955 17.9607C84.1294 17.7684 83.8439 17.1915 83.6536 16.23C83.7488 16.1338 83.9391 15.9415 83.9391 15.7492C83.9391 15.3646 83.8439 15.0762 83.5585 15.0762C83.3681 15.0762 83.1778 15.2685 83.0827 15.6531C83.0827 15.8454 83.0827 16.1338 83.1778 16.23C82.8923 16.9031 82.4165 17.48 81.7504 17.48C81.7504 17.48 81.7504 17.48 81.6553 17.48C81.2746 17.48 80.7988 16.9992 80.5133 16.4223C80.5133 16.4223 80.6085 16.3261 80.6085 16.23C80.6085 16.1338 80.6085 16.1338 80.6085 16.0377C80.6085 15.7492 80.5133 15.4608 80.323 15.4608C80.1327 15.4608 79.9424 15.6531 79.9424 15.9415C79.9424 16.23 80.0375 16.4223 80.2279 16.5184L80.1327 18.8261C80.1327 19.3068 80.4182 19.7876 80.894 19.7876L84.9859 20.3645H85.081C85.4616 20.3645 85.8423 20.0761 85.9374 19.5953L86.5084 17.3838C86.6987 17.3838 86.889 17.1915 86.889 16.9031C87.0794 16.7107 86.889 16.5184 86.6987 16.4223Z" fill="#FFEA05"/>
<path d="M84.2259 21.326L81.5614 20.9414H81.4662C80.8953 20.9414 80.5146 21.4222 80.5146 21.9029L80.6098 32.1911C80.6098 32.768 81.0856 33.1527 81.5614 33.1527H81.6566L83.8452 32.9603C84.321 32.9603 84.7017 32.4796 84.7017 31.9988L84.9872 22.2875C85.0823 21.9029 84.7017 21.4222 84.2259 21.326Z" fill="#FFEA05"/>
<path d="M100.206 19.0185H97.8275C97.3517 19.0185 97.0662 19.4031 96.9711 19.8838C96.8759 21.0377 96.4953 24.6914 96.3049 25.8452C96.3049 25.9414 96.2098 26.1337 96.1146 26.1337H96.0195C95.9243 26.0375 95.9243 26.0375 95.8291 25.9414C95.5437 25.2683 94.1163 21.0377 93.5453 19.4031C93.4501 19.0185 93.0695 18.8262 92.6889 18.8262L88.7873 19.0185C88.3115 19.0185 87.9309 19.4031 87.9309 19.8838C87.8357 22.5761 87.4551 30.9413 87.4551 32.4797C87.4551 32.9604 87.8357 33.4412 88.3115 33.4412L90.3099 33.3451C90.6905 33.3451 91.0712 32.9604 91.1663 32.5758C91.3566 30.9413 91.6421 28.0567 91.6421 28.0567C91.6421 28.0567 91.7373 27.8644 91.8324 27.8644C91.9276 27.8644 92.0227 28.0567 92.0227 28.0567L94.4017 32.9604C94.5921 33.2489 94.8775 33.4412 95.163 33.4412H95.2582L99.6355 33.0566C100.111 33.0566 100.397 32.5758 100.397 32.0951L100.873 19.98C101.063 19.4031 100.682 19.0185 100.206 19.0185Z" fill="#FFEA05"/>
<path d="M112.389 18.9218C111.342 18.9218 110.01 18.7295 108.582 18.7295C106.108 18.7295 103.634 19.2103 102.873 21.4217C102.682 21.9986 102.587 23.0563 102.397 23.7294C102.302 24.4024 102.206 25.0755 102.111 25.8447C102.111 26.2293 102.111 26.6139 102.111 26.9985C102.111 27.287 102.111 27.5754 102.111 27.8639C102.111 28.537 102.206 29.1139 102.302 29.5946C102.682 31.133 104.3 31.2292 105.632 31.2292C105.823 31.2292 106.013 31.2292 106.203 31.2292C106.869 31.2292 107.44 31.3253 108.106 31.3253C108.487 31.3253 108.963 31.3253 109.343 31.3253C109.439 31.3253 109.439 31.3253 109.534 31.3253C109.629 31.3253 109.629 31.3253 109.629 31.3253H109.724V31.9023C109.724 32.0946 109.534 32.2869 109.343 32.2869C108.297 32.5753 105.156 33.4407 103.824 33.8253C103.539 33.9214 103.348 34.2099 103.444 34.4983L103.729 36.3252C103.824 36.7098 104.205 36.9983 104.585 36.9983C104.585 36.9983 104.585 36.9983 104.681 36.9983C106.675 36.9983 108.582 36.7387 110.771 36.2291C111.532 36.0368 112.198 35.9406 112.769 35.6522C113.15 35.556 113.435 35.2676 113.721 34.9791C114.006 34.6907 114.197 34.306 114.387 33.9214C114.577 33.5368 114.768 33.0561 114.863 32.5753C115.373 29.9986 115.273 27.4698 115.529 24.8832C115.529 23.9217 115.529 23.0563 115.529 22.2871C115.529 20.5564 114.197 19.0179 112.389 18.9218ZM110.39 27.8639C110.39 28.0562 110.2 28.2485 110.01 28.2485L107.821 28.0562C107.345 27.96 106.964 27.5754 106.964 26.9985L107.155 24.2101C107.155 23.7294 107.535 23.3448 108.011 23.3448L110.39 23.5371C110.485 23.5371 110.581 23.6332 110.581 23.7294L110.39 27.8639Z" fill="#FFEA05"/>
</svg>
