<svg width="40" height="40" viewBox="0 0 40 40" fill="none" xmlns="http://www.w3.org/2000/svg">
<g clip-path="url(#clip0_10557_2862)">
<circle cx="20" cy="20" r="19.5" fill="#FFEA05" stroke="#563B00"/>
<path d="M37 20C37 29.3888 29.3888 37 20 37M3 20C3 10.6112 10.6112 3 20 3" stroke="#563B00" stroke-linecap="round"/>
<path d="M25.7273 25.6368C25.7273 21.0179 21.9827 17.2736 17.3636 17.2736C12.7445 17.2736 9 21.0179 9 25.6368C9 30.2557 12.7445 34 17.3636 34C21.9827 34 25.7273 30.2557 25.7273 25.6368Z" fill="#563B00"/>
<path d="M20.5 13.092H25.7273V25.6368L20.5 26.1595V13.092Z" fill="#563B00"/>
<path d="M20.5 11.6321C20.5 11.1181 20.8736 10.6804 21.3812 10.5997L31.3951 9.00661C31.7126 8.95611 32 9.20138 32 9.52282V14.998C32 15.255 31.8132 15.4739 31.5594 15.5142L20.5 17.2736V11.6321Z" fill="#563B00"/>
<path d="M25 23.9999C25 19.5816 21.4183 15.9999 17 15.9999C12.5817 15.9999 9 19.5816 9 23.9999C9 28.4182 12.5817 31.9999 17 31.9999C21.4183 31.9999 25 28.4182 25 23.9999Z" fill="#FFEA05"/>
<path d="M20 11.9999H25V23.9999L20 24.4999V11.9999Z" fill="#FFEA05"/>
<path d="M20 10.6034C20 10.1117 20.3574 8.60731 20.8429 8.53007L30.4214 7.00621C30.7251 6.9579 31 7.19252 31 7.5V13.8231C31 14.0689 30.8213 14.2783 30.5786 14.3169L20 15.9999V10.6034Z" fill="#FFEA05"/>
<ellipse cx="8" cy="8" rx="8" ry="8" transform="matrix(1 8.74228e-08 8.74228e-08 -1 8 31)" fill="url(#paint0_angular_10557_2862)"/>
<path d="M19 11H24V23L19 23.5V11Z" fill="url(#paint1_linear_10557_2862)"/>
<path d="M19 9.60349C19 9.11185 19.3574 8.69315 19.8429 8.6159L29.4214 7.09204C29.7251 7.04373 30 7.27836 30 7.58583V12.8233C30 13.0691 29.8213 13.2784 29.5786 13.317L19 15V9.60349Z" fill="url(#paint2_linear_10557_2862)"/>
</g>
<defs>
<radialGradient id="paint0_angular_10557_2862" cx="0" cy="0" r="1" gradientUnits="userSpaceOnUse" gradientTransform="translate(11 7) rotate(90) scale(9 9)">
<stop stop-color="#FF7F00"/>
<stop offset="1" stop-color="#FFBC05"/>
</radialGradient>
<linearGradient id="paint1_linear_10557_2862" x1="19" y1="18.7143" x2="24.628" y2="21.0728" gradientUnits="userSpaceOnUse">
<stop stop-color="#FFBC05"/>
<stop offset="0.573428" stop-color="#FFAD04"/>
<stop offset="1" stop-color="#FFAC04"/>
</linearGradient>
<linearGradient id="paint2_linear_10557_2862" x1="23.5" y1="15.5" x2="21.5" y2="14" gradientUnits="userSpaceOnUse">
<stop stop-color="#FFB105"/>
<stop offset="1" stop-color="#FFBD05"/>
</linearGradient>
<clipPath id="clip0_10557_2862">
<rect width="40" height="40" fill="white"/>
</clipPath>
</defs>
</svg>
