<svg width="38" height="44" viewBox="0 0 38 44" fill="none" xmlns="http://www.w3.org/2000/svg">
<path d="M1.91655 27.0787C0.899098 24.0263 0.00440419 18.6845 3.44274 16.3954C5.0307 15.3382 0.39037 22.1186 1.91655 27.0787Z" fill="#563B00"/>
<path d="M7.63994 28.9865C8.53022 21.2285 12.6331 5.93144 18.7048 1.51526C22.9018 -1.53741 13.7447 9.14646 7.63994 28.9865Z" fill="#563B00"/>
<path d="M1.91655 27.0787C0.899098 24.0263 0.00440419 18.6845 3.44274 16.3954C5.0307 15.3382 0.39037 22.1186 1.91655 27.0787Z" stroke="#563B00"/>
<path d="M7.63994 28.9865C8.53022 21.2285 12.6331 5.93144 18.7048 1.51526C22.9018 -1.53741 13.7447 9.14646 7.63994 28.9865Z" stroke="#563B00"/>
<path d="M11.834 35.4721C16.2853 27.9684 26.2564 12.732 30.5297 11.8163C34.803 10.9006 19.8464 27.2053 11.834 35.4721Z" stroke="#563B00"/>
<path d="M15.6494 37.7613C20.228 34.2002 30.9876 27.7648 35.8714 28.9857C40.7551 30.2067 25.5696 32.8012 15.6494 37.7613Z" stroke="#563B00"/>
<path d="M15.2666 41.5768C19.9723 40.5594 30.0706 39.1349 32.8177 41.5768C35.5648 44.0187 22.2616 42.5943 15.2666 41.5768Z" fill="#563B00" stroke="#563B00"/>
</svg>
