<svg width="21" height="20" viewBox="0 0 21 20" fill="none" xmlns="http://www.w3.org/2000/svg">
<path d="M10.2528 4C10.817 4 11.2694 4.4664 11.2523 5.03029L11.1838 7.29105C11.1626 7.99177 11.8502 8.49628 12.5123 8.2657L14.7457 7.48783C15.2707 7.30495 15.8442 7.58548 16.022 8.11225L16.1625 8.52805C16.3459 9.07123 16.036 9.65711 15.4838 9.81119L13.2797 10.4262C12.5878 10.6192 12.3191 11.4571 12.7695 12.0165L14.128 13.7037C14.4897 14.153 14.3974 14.8142 13.9266 15.1473L13.5404 15.4204C13.0884 15.7402 12.4627 15.6318 12.1445 15.1787L10.7917 13.2518C10.3923 12.6831 9.54887 12.685 9.15217 13.2557L7.83007 15.1574C7.51445 15.6114 6.89027 15.7231 6.43679 15.4067L6.05788 15.1424C5.5845 14.8121 5.48827 14.1507 5.84789 13.6992L7.21866 11.9782C7.66553 11.4172 7.39387 10.582 6.70246 10.3912L4.51203 9.7868C3.96124 9.63481 3.64955 9.05303 3.82813 8.51028L3.9633 8.09946C4.13769 7.56945 4.71207 7.28468 5.23949 7.46673L7.50443 8.24855C8.16779 8.47753 8.85451 7.96986 8.83012 7.26852L8.75242 5.03476C8.73275 4.46919 9.1859 4 9.75182 4H10.2528Z" fill="#F53B3B"/>
</svg>
