<svg width="30" height="34" viewBox="0 0 30 34" fill="none" xmlns="http://www.w3.org/2000/svg">
<rect x="0.5" y="4.5" width="29" height="29" rx="8.5" fill="#563B00" stroke="#563B00"/>
<rect x="0.5" y="0.5" width="29" height="29" rx="8.5" fill="#FFEA05" stroke="#563B00"/>
<mask id="path-3-inside-1_2011_1135" fill="white">
<path fill-rule="evenodd" clip-rule="evenodd" d="M10.8243 21.5625L12.1659 19.7813C12.5289 20.0225 13.6049 20.505 15.0049 20.505C16.4049 20.505 17.3867 20.085 17.7026 19.875L19.1694 21.5625C22.4803 21.4524 23.7549 19.1875 23.7549 19.1875C23.7549 14.1563 21.5962 10.079 21.5962 10.079C19.4403 8.39149 17.3865 8.43762 17.3865 8.43762L16.7426 9.21887C15.625 9.05746 14.491 9.05246 13.372 9.20399C13.3174 9.20615 13.263 9.21112 13.2089 9.21887L12.6218 8.43762C12.6218 8.43762 10.5694 8.39149 8.41216 10.0775C8.41216 10.0775 6.25488 14.1563 6.25488 19.1875C6.25488 19.1875 7.51341 21.4539 10.8243 21.5625ZM13.248 14.2579C13.248 15.2287 12.461 16.0157 11.4902 16.0157C10.5194 16.0157 9.73242 15.2287 9.73242 14.2579C9.73242 13.2871 10.5194 12.5001 11.4902 12.5001C12.461 12.5001 13.248 13.2871 13.248 14.2579ZM18.5215 16.0157C19.4923 16.0157 20.2793 15.2287 20.2793 14.2579C20.2793 13.2871 19.4923 12.5001 18.5215 12.5001C17.5507 12.5001 16.7637 13.2871 16.7637 14.2579C16.7637 15.2287 17.5507 16.0157 18.5215 16.0157Z"/>
</mask>
<path fill-rule="evenodd" clip-rule="evenodd" d="M10.8243 21.5625L12.1659 19.7813C12.5289 20.0225 13.6049 20.505 15.0049 20.505C16.4049 20.505 17.3867 20.085 17.7026 19.875L19.1694 21.5625C22.4803 21.4524 23.7549 19.1875 23.7549 19.1875C23.7549 14.1563 21.5962 10.079 21.5962 10.079C19.4403 8.39149 17.3865 8.43762 17.3865 8.43762L16.7426 9.21887C15.625 9.05746 14.491 9.05246 13.372 9.20399C13.3174 9.20615 13.263 9.21112 13.2089 9.21887L12.6218 8.43762C12.6218 8.43762 10.5694 8.39149 8.41216 10.0775C8.41216 10.0775 6.25488 14.1563 6.25488 19.1875C6.25488 19.1875 7.51341 21.4539 10.8243 21.5625ZM13.248 14.2579C13.248 15.2287 12.461 16.0157 11.4902 16.0157C10.5194 16.0157 9.73242 15.2287 9.73242 14.2579C9.73242 13.2871 10.5194 12.5001 11.4902 12.5001C12.461 12.5001 13.248 13.2871 13.248 14.2579ZM18.5215 16.0157C19.4923 16.0157 20.2793 15.2287 20.2793 14.2579C20.2793 13.2871 19.4923 12.5001 18.5215 12.5001C17.5507 12.5001 16.7637 13.2871 16.7637 14.2579C16.7637 15.2287 17.5507 16.0157 18.5215 16.0157Z" fill="#563B00"/>
<path d="M12.1659 19.7813L12.6848 19.0005L11.9488 18.5113L11.417 19.2172L12.1659 19.7813ZM10.8243 21.5625L10.7936 22.4995L11.2803 22.5155L11.5732 22.1265L10.8243 21.5625ZM17.7026 19.875L18.4101 19.26L17.8696 18.6382L17.1836 19.0943L17.7026 19.875ZM19.1694 21.5625L18.4618 22.1775L18.7546 22.5143L19.2006 22.4995L19.1694 21.5625ZM23.7549 19.1875L24.5719 19.6473L24.6924 19.4332V19.1875H23.7549ZM21.5962 10.079L22.4247 9.64031L22.3313 9.46383L22.174 9.34075L21.5962 10.079ZM17.3865 8.43762L17.3654 7.50036L16.9361 7.51L16.663 7.8414L17.3865 8.43762ZM16.7426 9.21887L16.6087 10.1467L17.1307 10.2221L17.4661 9.81509L16.7426 9.21887ZM13.372 9.20399L13.4092 10.1407L13.4537 10.139L13.4978 10.133L13.372 9.20399ZM13.2089 9.21887L12.4594 9.78204L12.7926 10.2255L13.3417 10.1469L13.2089 9.21887ZM12.6218 8.43762L13.3713 7.87446L13.0979 7.51059L12.6429 7.50036L12.6218 8.43762ZM8.41216 10.0775L7.83486 9.33882L7.67706 9.46215L7.58343 9.63918L8.41216 10.0775ZM6.25488 19.1875H5.31738V19.4304L5.43528 19.6427L6.25488 19.1875ZM11.417 19.2172L10.0755 20.9985L11.5732 22.1265L12.9148 20.3453L11.417 19.2172ZM15.0049 19.5675C13.7967 19.5675 12.9002 19.1436 12.6848 19.0005L11.647 20.5621C12.1576 20.9014 13.413 21.4425 15.0049 21.4425V19.5675ZM17.1836 19.0943C17.0377 19.1912 16.2408 19.5675 15.0049 19.5675V21.4425C16.569 21.4425 17.7356 20.9788 18.2216 20.6557L17.1836 19.0943ZM19.877 20.9475L18.4101 19.26L16.995 20.4901L18.4618 22.1775L19.877 20.9475ZM23.7549 19.1875C22.9379 18.7277 22.9381 18.7273 22.9383 18.7269C22.9384 18.7268 22.9386 18.7264 22.9388 18.7261C22.9391 18.7256 22.9394 18.7251 22.9396 18.7247C22.9401 18.7238 22.9406 18.723 22.9409 18.7224C22.9416 18.7211 22.9421 18.7204 22.9422 18.7201C22.9425 18.7196 22.9416 18.7211 22.9396 18.7245C22.9355 18.7312 22.9266 18.7454 22.913 18.766C22.8855 18.8073 22.8389 18.8737 22.7719 18.9575C22.6375 19.1255 22.4239 19.3595 22.1218 19.5987C21.5255 20.0709 20.5679 20.578 19.1382 20.6255L19.2006 22.4995C21.0818 22.4369 22.417 21.7565 23.2857 21.0687C23.7161 20.728 24.028 20.3888 24.2361 20.1287C24.3403 19.9985 24.4191 19.8871 24.4743 19.8041C24.502 19.7626 24.5238 19.728 24.5399 19.7015C24.548 19.6882 24.5547 19.677 24.56 19.6679C24.5627 19.6634 24.565 19.6594 24.567 19.656C24.568 19.6542 24.5689 19.6526 24.5697 19.6512C24.5701 19.6505 24.5705 19.6498 24.5709 19.6491C24.571 19.6488 24.5713 19.6484 24.5714 19.6482C24.5716 19.6477 24.5719 19.6473 23.7549 19.1875ZM21.5962 10.079C20.7676 10.5176 20.7675 10.5175 20.7674 10.5173C20.7674 10.5172 20.7673 10.5171 20.7673 10.517C20.7672 10.5169 20.7671 10.5168 20.7671 10.5167C20.7671 10.5167 20.7672 10.5169 20.7674 10.5173C20.7679 10.5181 20.7688 10.52 20.7703 10.5228C20.7732 10.5283 20.778 10.5378 20.7847 10.551C20.7981 10.5773 20.8189 10.6186 20.8459 10.6742C20.9 10.7853 20.9791 10.9531 21.0751 11.1716C21.2671 11.6089 21.5255 12.2472 21.7846 13.0383C22.3042 14.6253 22.8174 16.8006 22.8174 19.1875H24.6924C24.6924 16.5432 24.1262 14.1642 23.5665 12.4548C23.2858 11.5976 23.0046 10.9021 22.7918 10.4177C22.6854 10.1754 22.5959 9.98534 22.5319 9.85383C22.4999 9.78806 22.4743 9.73687 22.4561 9.70104C22.4469 9.68312 22.4397 9.66904 22.4344 9.65889C22.4318 9.65381 22.4296 9.64972 22.428 9.64662C22.4272 9.64507 22.4265 9.64377 22.426 9.64272C22.4257 9.64219 22.4254 9.64173 22.4252 9.64133C22.4251 9.64113 22.425 9.64087 22.4249 9.64077C22.4248 9.64053 22.4247 9.64031 21.5962 10.079ZM17.3865 8.43762C17.4075 9.37489 17.4072 9.3749 17.4068 9.3749C17.4067 9.37491 17.4063 9.37491 17.4061 9.37492C17.4056 9.37493 17.4052 9.37494 17.4048 9.37494C17.404 9.37496 17.4033 9.37497 17.4028 9.37498C17.4017 9.375 17.4011 9.375 17.4009 9.375C17.4006 9.37501 17.4022 9.37499 17.4056 9.37501C17.4124 9.37504 17.4265 9.3752 17.4474 9.37591C17.4892 9.37731 17.558 9.38088 17.6502 9.38986C17.8348 9.40785 18.1115 9.44739 18.4515 9.53399C19.1308 9.70701 20.0596 10.0668 21.0183 10.8172L22.174 9.34075C20.9769 8.40369 19.8008 7.94279 18.9143 7.717C18.4714 7.60419 18.0998 7.5498 17.832 7.5237C17.698 7.51064 17.5895 7.50463 17.5105 7.50197C17.471 7.50064 17.4389 7.50014 17.4145 7.50003C17.4024 7.49997 17.3922 7.50001 17.3839 7.50008C17.3798 7.50012 17.3762 7.50017 17.3732 7.50021C17.3716 7.50024 17.3702 7.50026 17.3689 7.50029C17.3683 7.5003 17.3677 7.50031 17.3671 7.50033C17.3668 7.50033 17.3664 7.50034 17.3662 7.50034C17.3658 7.50035 17.3654 7.50036 17.3865 8.43762ZM17.4661 9.81509L18.11 9.03385L16.663 7.8414L16.0192 8.62264L17.4661 9.81509ZM13.4978 10.133C14.5306 9.99316 15.5771 9.99778 16.6087 10.1467L16.8766 8.29099C15.6729 8.11715 14.4514 8.11176 13.2462 8.27497L13.4978 10.133ZM13.3417 10.1469C13.3641 10.1437 13.3866 10.1416 13.4092 10.1407L13.3348 8.26722C13.2482 8.27066 13.1618 8.27855 13.076 8.29084L13.3417 10.1469ZM11.8723 9.00079L12.4594 9.78204L13.9584 8.6557L13.3713 7.87446L11.8723 9.00079ZM8.98946 10.8162C9.94901 10.0662 10.878 9.70672 11.5572 9.53385C11.8972 9.44732 12.1738 9.40782 12.3583 9.38985C12.4504 9.38087 12.5192 9.37731 12.561 9.3759C12.5818 9.3752 12.5959 9.37504 12.6027 9.37501C12.6061 9.37499 12.6077 9.37501 12.6074 9.375C12.6072 9.375 12.6066 9.375 12.6055 9.37498C12.605 9.37497 12.6043 9.37496 12.6035 9.37494C12.6031 9.37494 12.6027 9.37493 12.6022 9.37492C12.602 9.37491 12.6016 9.37491 12.6015 9.3749C12.6011 9.3749 12.6008 9.37489 12.6218 8.43762C12.6429 7.50036 12.6425 7.50035 12.6421 7.50034C12.642 7.50034 12.6415 7.50033 12.6413 7.50033C12.6407 7.50031 12.6401 7.5003 12.6394 7.50029C12.6381 7.50026 12.6367 7.50024 12.6352 7.50021C12.6321 7.50017 12.6285 7.50012 12.6244 7.50008C12.6162 7.50001 12.606 7.49997 12.5938 7.50003C12.5695 7.50014 12.5373 7.50064 12.4979 7.50197C12.419 7.50462 12.3105 7.51063 12.1766 7.52367C11.9089 7.54974 11.5375 7.60408 11.0947 7.71677C10.2085 7.94234 9.03258 8.40276 7.83486 9.33882L8.98946 10.8162ZM7.19238 19.1875C7.19238 16.8005 7.70523 14.6248 8.22455 13.0373C8.4834 12.246 8.74168 11.6075 8.9336 11.1701C9.02949 10.9515 9.1086 10.7836 9.16263 10.6724C9.18964 10.6168 9.21037 10.5755 9.22376 10.5491C9.23046 10.536 9.23532 10.5265 9.23822 10.5209C9.23967 10.5181 9.24063 10.5163 9.24108 10.5154C9.2413 10.515 9.2414 10.5148 9.24137 10.5149C9.24135 10.5149 9.2413 10.515 9.24122 10.5152C9.24118 10.5152 9.2411 10.5154 9.24108 10.5154C9.24099 10.5156 9.24089 10.5158 8.41216 10.0775C7.58343 9.63918 7.58331 9.6394 7.58319 9.63964C7.58313 9.63974 7.583 9.63999 7.58289 9.64019C7.58268 9.64059 7.58244 9.64106 7.58216 9.64158C7.58161 9.64263 7.58092 9.64394 7.58011 9.64549C7.57849 9.64859 7.57635 9.65268 7.57372 9.65776C7.56845 9.66791 7.5612 9.682 7.5521 9.69992C7.53389 9.73575 7.50827 9.78695 7.47629 9.85274C7.41235 9.98429 7.32292 10.1744 7.21657 10.4168C7.004 10.9013 6.72296 11.597 6.44249 12.4543C5.88317 14.164 5.31738 16.5433 5.31738 19.1875H7.19238ZM10.8551 20.6255C9.42595 20.5786 8.47339 20.0719 7.88205 19.6009C7.58228 19.3622 7.37085 19.1287 7.23802 18.9611C7.17179 18.8775 7.12581 18.8112 7.0988 18.7701C7.08533 18.7496 7.07666 18.7355 7.07264 18.7289C7.07064 18.7255 7.0698 18.7241 7.07011 18.7246C7.07027 18.7249 7.07071 18.7257 7.07144 18.727C7.07181 18.7276 7.07225 18.7284 7.07275 18.7293C7.07301 18.7297 7.07328 18.7302 7.07357 18.7307C7.07371 18.731 7.07394 18.7314 7.07402 18.7315C7.07425 18.732 7.07449 18.7324 6.25488 19.1875C5.43528 19.6427 5.43552 19.6431 5.43578 19.6436C5.43587 19.6437 5.43613 19.6442 5.43631 19.6445C5.43668 19.6452 5.43707 19.6459 5.43747 19.6466C5.43829 19.6481 5.43919 19.6496 5.44017 19.6514C5.44214 19.6548 5.44444 19.6589 5.44707 19.6634C5.45235 19.6726 5.45899 19.6838 5.46701 19.6971C5.48304 19.7237 5.50465 19.7584 5.53205 19.8001C5.58681 19.8834 5.66501 19.995 5.7685 20.1256C5.97511 20.3863 6.28525 20.7262 6.71398 21.0676C7.57963 21.757 8.91181 22.4378 10.7936 22.4995L10.8551 20.6255ZM11.4902 16.9532C12.9788 16.9532 14.1855 15.7465 14.1855 14.2579H12.3105C12.3105 14.7109 11.9433 15.0782 11.4902 15.0782V16.9532ZM8.79492 14.2579C8.79492 15.7465 10.0017 16.9532 11.4902 16.9532V15.0782C11.0372 15.0782 10.6699 14.7109 10.6699 14.2579H8.79492ZM11.4902 11.5626C10.0017 11.5626 8.79492 12.7693 8.79492 14.2579H10.6699C10.6699 13.8048 11.0372 13.4376 11.4902 13.4376V11.5626ZM14.1855 14.2579C14.1855 12.7693 12.9788 11.5626 11.4902 11.5626V13.4376C11.9433 13.4376 12.3105 13.8048 12.3105 14.2579H14.1855ZM19.3418 14.2579C19.3418 14.7109 18.9745 15.0782 18.5215 15.0782V16.9532C20.0101 16.9532 21.2168 15.7465 21.2168 14.2579H19.3418ZM18.5215 13.4376C18.9745 13.4376 19.3418 13.8048 19.3418 14.2579H21.2168C21.2168 12.7693 20.0101 11.5626 18.5215 11.5626V13.4376ZM17.7012 14.2579C17.7012 13.8048 18.0684 13.4376 18.5215 13.4376V11.5626C17.0329 11.5626 15.8262 12.7693 15.8262 14.2579H17.7012ZM18.5215 15.0782C18.0684 15.0782 17.7012 14.7109 17.7012 14.2579H15.8262C15.8262 15.7465 17.0329 16.9532 18.5215 16.9532V15.0782Z" fill="#563B00" mask="url(#path-3-inside-1_2011_1135)"/>
</svg>
