<svg width="30" height="34" viewBox="0 0 30 34" fill="none" xmlns="http://www.w3.org/2000/svg">
<rect x="0.5" y="4.5" width="29" height="29" rx="8.5" fill="#563B00" stroke="#563B00"/>
<rect x="0.5" y="0.5" width="29" height="29" rx="8.5" fill="#FFEA05" stroke="#563B00"/>
<path d="M22.858 9.25246L20.3825 20.9273C20.1957 21.7512 19.7086 21.9563 19.0165 21.5681L15.2445 18.7886L13.4245 20.5391C13.223 20.7405 13.0546 20.909 12.6664 20.909L12.9374 17.0674L19.9284 10.7503C20.2323 10.4793 19.8624 10.3291 19.4559 10.6001L10.8134 16.042L7.09266 14.8775C6.28334 14.6248 6.26869 14.0681 7.26112 13.68L21.8143 8.07326C22.4882 7.82058 23.0778 8.22341 22.858 9.25246Z" fill="#563B00"/>
</svg>
