<svg width="80" height="81" viewBox="0 0 80 81" fill="none" xmlns="http://www.w3.org/2000/svg">
<g clip-path="url(#clip0_328_1063)">
<path d="M24.0282 19.2822C24.4479 18.086 25.3155 17.2337 26.2987 16.4776C26.3997 16.3955 26.4579 16.3168 26.4807 16.1987C26.6743 15.4012 26.63 14.5913 26.6187 13.7893C26.595 12.703 26.3805 11.6534 26.0697 10.6116C26.0398 10.5084 25.9927 10.4594 25.8823 10.4261C24.8138 10.1326 24.3301 9.34789 24.077 8.35423C23.983 7.99211 23.9317 7.6265 23.9874 7.2522C24.1277 6.19489 25.0766 5.54728 26.1382 5.75682C26.8507 5.91021 27.3885 6.29966 27.8107 6.85698C28.0413 7.17632 28.2612 7.49653 28.3997 7.87617C28.6114 8.49285 28.5158 9.03943 28.1164 9.55787C27.7645 9.99849 27.7166 9.939 28.114 10.4561C28.8741 11.4613 29.8625 12.2262 30.9779 12.8328C31.3497 13.0351 31.7412 13.2145 32.1122 13.4062C32.2021 13.4518 32.2876 13.4448 32.3921 13.4046C33.4629 13.0641 34.5602 12.7847 35.6784 12.6305C36.1367 12.5721 36.5899 12.4507 37.0624 12.4335C37.148 12.4265 37.1677 12.4038 37.1814 12.3076C37.2757 11.6132 37.2943 10.9144 37.2051 10.2138C37.1756 9.98379 37.1881 9.73978 37.115 9.50273C37.0868 9.42051 37.0504 9.37064 36.973 9.34524C36.0038 8.94858 35.4182 8.23551 35.1659 7.25235C34.8372 5.99015 34.9976 4.78329 35.737 3.67729C36.1402 3.07402 36.7236 2.6991 37.4601 2.61812C38.004 2.55279 38.5587 2.48658 39.1124 2.67401C39.999 2.9823 40.5465 3.62451 40.9019 4.41969C41.3758 5.47992 41.5188 6.5776 41.0807 7.68025C40.8388 8.28098 40.4484 8.77756 39.8723 9.10962C39.7901 9.15856 39.7507 9.20402 39.7477 9.29935C39.7437 9.91244 39.7816 10.5115 39.8953 11.1151C39.9529 11.4273 40.032 11.7378 40.1218 12.0475C40.1509 12.1402 40.1641 12.1708 40.2711 12.1621C41.8802 12.0842 43.4772 12.1235 45.0601 12.3857C45.1474 12.3998 45.2338 12.4033 45.3151 12.3439C46.2499 11.6551 47.1946 10.955 47.9287 10.0502C48.2905 9.59821 48.5953 9.10858 48.8672 8.61107C48.9982 8.368 48.9614 8.18082 48.7518 7.98656C48.4613 7.72491 48.2119 7.4388 48.1144 7.03469C48.0461 6.72331 48.0329 6.42856 48.116 6.12599C48.3563 5.24015 48.7451 4.45845 49.5891 3.97783C50.2795 3.59422 50.9757 3.5482 51.638 4.01206C52.015 4.27724 52.2721 4.65781 52.3408 5.10651C52.5032 6.04415 52.3938 6.95105 51.7804 7.751C51.586 8.00979 51.3322 8.19945 51.0412 8.32875C50.8644 8.4065 50.807 8.49568 50.7796 8.68808C50.6483 9.72353 50.6249 10.7608 50.7629 11.7955C50.8705 12.5897 50.9897 13.3935 51.2775 14.1519C51.3313 14.2849 51.4032 14.3741 51.5269 14.438C52.3719 14.8976 53.1686 15.4245 53.7692 16.1891C53.9253 16.3878 54.0618 16.6091 54.2312 16.8383C54.4812 16.4694 54.7205 16.1013 54.9598 15.7332C55.4376 14.9865 55.8247 14.1838 56.1343 13.3557C56.1793 13.2464 56.1741 13.1835 56.0809 13.096C55.6394 12.6987 55.4033 12.1791 55.2716 11.6193C54.9874 10.3746 55.4478 9.28068 56.0407 8.22883C56.3143 7.75231 56.5986 7.27492 56.9851 6.86318C57.6705 6.15246 58.4935 5.8109 59.4734 5.94256C60.2681 6.04702 60.8521 6.47497 61.1381 7.21239C61.3024 7.64277 61.3309 8.12643 61.3363 8.59084C61.3438 9.47768 61.1437 10.3286 60.7665 11.1199C60.2338 12.2514 59.4568 13.1597 58.2234 13.6191C58.119 13.6593 58.1018 13.7135 58.0856 13.7782C57.8859 14.5023 57.7522 15.2421 57.7165 15.9951C57.6708 17.0236 57.9526 17.9727 58.3512 18.9017C58.3785 18.9734 58.4166 19.0443 58.4645 19.1038C58.6976 19.4546 58.841 19.4958 59.2108 19.2756C59.7753 18.9339 60.2573 18.5038 60.7269 18.0536C61.2153 17.5702 61.6921 17.0772 62.1335 16.5448C63.1622 15.2885 64.0432 13.9385 64.7544 12.4862C64.8011 12.3979 64.8298 12.3533 64.7061 12.2894C64.4357 12.1423 64.2938 11.7207 64.3816 11.3438C64.5084 10.7841 64.8851 10.3837 65.2858 10.0131C66.2882 9.097 67.4404 8.43286 68.7423 8.02068C69.0992 7.90716 69.4399 7.85834 69.7929 8.09378C70.1112 8.30034 70.1441 8.57235 70.1269 8.89069C70.0848 9.43292 69.821 9.89808 69.5333 10.3335C69.1408 10.9359 68.6558 11.4613 68.0668 11.9C67.4778 12.3388 67.0506 12.9123 66.6704 13.5349C65.937 14.7143 65.1806 15.8745 64.4241 17.0348C63.5914 18.3174 62.8832 19.6744 62.208 21.0393C61.3649 22.7243 60.5449 24.4284 59.9021 26.1922C59.3394 27.7487 58.8104 29.3236 58.5887 30.9686C58.4532 31.9515 58.414 32.9267 58.5798 33.9063C58.6819 34.5002 58.8251 35.0696 59.0735 35.6094C59.1381 35.7415 59.1762 35.8123 59.3645 35.7442C59.9624 35.5477 60.5973 35.9398 60.7529 36.5294C60.9201 37.1286 60.7389 37.6821 60.4794 38.1997C59.895 39.3565 59.011 40.2735 58.0107 41.0838C55.9082 42.776 53.5063 43.9643 50.9761 44.8989C49.6169 45.4002 48.2294 45.8194 46.8376 46.186C45.9839 46.4139 45.1018 46.5595 44.2348 46.7568C42.8281 47.0718 41.3983 47.1035 39.987 47.2287C39.4948 47.2687 38.9959 47.2248 38.4986 47.2018C37.9479 47.1832 37.3946 47.133 36.8438 47.1144C36.0115 47.0764 35.1963 46.9842 34.3687 46.8718C32.8552 46.6673 31.3506 46.4409 29.8752 46.0432C27.7721 45.4745 25.7229 44.7748 23.8643 43.6369C22.8781 43.0303 21.9805 42.3215 21.2905 41.3845C21.0359 41.0354 20.8217 40.6513 20.7546 40.2236C20.6247 39.4207 21.1115 38.6521 22.07 38.7855C22.2117 38.8057 22.2164 38.7314 22.2425 38.6553C22.3838 38.2741 22.4255 37.8587 22.4581 37.4651C22.5259 36.7095 22.4654 35.9643 22.3299 35.2252C22.0893 33.9875 21.6382 32.8093 21.104 31.6694C19.895 29.1159 18.3161 26.7826 16.6765 24.4965C15.5592 22.9392 14.3417 21.4745 13.0322 20.0702C12.3246 19.3142 11.6679 18.5224 10.9809 17.7541C10.577 17.2904 10.0953 16.9281 9.5429 16.6244C8.59901 16.1411 7.81265 15.4761 7.26515 14.5697C7.1163 14.3283 7.02094 14.0825 6.99791 13.7991C6.94883 13.3276 7.42824 12.8661 7.90495 12.9013C9.05521 13.0086 10.1476 13.3318 11.1715 13.8719C11.8014 14.2011 12.4222 14.5521 12.8774 15.1173C13.2003 15.5136 13.2593 15.9737 13.043 16.361C13.0341 16.3829 13.0259 16.4153 13.0054 16.4275C12.6955 16.59 12.9231 16.7406 13.0313 16.8797C14.0717 18.2848 15.2426 19.5736 16.613 20.6666C17.4776 21.3676 18.362 22.0458 19.4094 22.4784C19.8998 22.6815 20.0568 22.6265 20.2192 22.1062C20.4175 21.4985 20.4848 20.8697 20.5184 20.2225C20.5637 19.0567 20.1763 18 19.7148 16.9599C19.6502 16.8278 19.5818 16.7805 19.4393 16.7498C17.9788 16.4037 17.009 15.4682 16.3148 14.2146C16.0616 13.7492 15.8396 13.2707 15.7319 12.7407C15.6101 12.1695 15.4348 11.6027 15.5689 11.0001C15.7485 10.1615 16.4642 9.42718 17.3693 9.3008C18.5393 9.1212 19.4379 9.57642 20.2032 10.3805C20.8398 11.0578 21.446 11.7586 21.8065 12.6168C22.2316 13.607 22.2796 14.5962 21.7787 15.5877C21.7697 15.6096 21.7607 15.6315 21.741 15.6542C21.4084 15.9348 21.559 16.1972 21.7335 16.4894C22.3058 17.436 23.0202 18.276 23.7749 19.0809C23.8557 19.1483 23.8972 19.2612 24.0282 19.2822ZM50.766 28.2658C50.7395 28.2046 50.7386 28.1941 50.7386 28.1941C50.7493 28.1932 50.7493 28.1932 50.76 28.1923C50.7921 28.1897 50.8233 28.1766 50.8554 28.174C54.2125 26.813 57.3446 25.0688 60.1534 22.791C60.3349 22.6389 60.4834 22.4789 60.5956 22.2691C62.3022 19.1511 64.168 16.1364 66.4197 13.3651C66.7724 12.9349 67.0905 12.4759 67.5233 12.1027C68.0258 11.6604 68.5052 11.1988 68.9162 10.69C69.2591 10.2713 69.545 9.81486 69.686 9.29629C69.8496 8.65967 69.5177 8.28518 68.8552 8.34958C68.7803 8.35567 68.6956 8.37312 68.6215 8.3897C67.4699 8.66289 66.459 9.2099 65.5853 9.98874C65.2536 10.2798 64.9458 10.6006 64.7749 11.016C64.5951 11.4532 64.7619 11.9151 65.1448 11.9896C65.3417 12.0264 65.3164 12.113 65.2625 12.2442C64.8754 13.0468 64.5105 13.8583 64.079 14.6435C63.1396 16.3362 62.0039 17.8653 60.4771 19.0881C60.073 19.4168 59.6335 19.7061 59.1426 19.8939C58.9337 19.9742 58.7172 19.9601 58.5546 19.8149C58.2864 19.562 58.0477 19.275 57.8796 18.9295C57.738 18.6452 57.7017 18.3312 57.6333 18.0198C57.4782 17.3034 57.3988 16.5915 57.4148 15.8612C57.4258 15.0679 57.5783 14.2949 57.8075 13.5367C57.8914 13.2446 57.9771 12.9736 58.3781 13.0044C58.4324 13.0105 58.4923 12.9528 58.5548 12.9266C59.9792 12.1664 60.6976 10.9353 60.9403 9.41539C61.0406 8.79448 61.0643 8.15866 60.8954 7.5385C60.7291 6.94982 60.2581 6.32251 59.407 6.31773C58.9979 6.31928 58.6071 6.41442 58.2314 6.56117C57.3968 6.89311 56.8587 7.56017 56.422 8.28237C55.9361 9.06139 55.6637 9.94985 55.6202 10.8725C55.5767 11.7952 55.8859 12.5519 56.8311 12.9188C56.9762 12.9809 56.9492 13.0465 56.9149 13.155C56.6935 13.7434 56.4943 14.3407 56.2169 14.9021C55.2175 16.9166 53.8271 18.6249 52.1389 20.1144C51.4254 20.7429 50.7011 21.3722 49.8315 21.8021C48.5171 22.4583 47.2281 22.4997 45.9591 21.7259C45.0982 21.2042 44.3564 20.5567 43.7335 19.7832C42.4754 18.2162 41.4745 16.5016 40.6898 14.6637C40.1834 13.4687 39.8136 12.231 39.6009 10.9383C39.5129 10.3855 39.4792 9.83884 39.4233 9.28345C39.3956 9.07441 39.4619 8.96337 39.637 8.86462C40.1613 8.5579 40.5577 8.13478 40.7487 7.56989C41.1894 6.2346 40.9077 5.02141 40.0543 3.92863C39.5388 3.28381 38.8611 2.89516 38.0018 2.92274C37.089 2.95466 36.4401 3.45111 35.9846 4.20654C35.4807 5.02929 35.3366 5.90731 35.4776 6.84669C35.622 7.82805 36.0925 8.58217 37.0304 8.99193C37.3098 9.11713 37.4386 9.24401 37.465 9.56937C37.5871 10.8061 37.5576 12.034 37.3874 13.2522C37.1275 15.0905 36.5926 16.856 35.8475 18.5541C35.2219 19.9995 34.4824 21.3697 33.3241 22.4886C32.5853 23.2036 31.7396 23.6633 30.7083 23.6943C29.8918 23.7184 29.1215 23.5168 28.3929 23.164C27.2158 22.5941 26.1149 21.9018 25.0902 21.087C23.3305 19.7087 21.8648 18.1057 20.8328 16.14C20.7443 15.9782 20.7383 15.9047 20.9125 15.7955C21.3833 15.4931 21.6834 15.0778 21.7559 14.512C21.8065 14.0747 21.751 13.6566 21.6107 13.256C21.302 12.3725 20.9004 11.5388 20.1889 10.8677C19.4535 10.1668 18.6372 9.66262 17.5434 9.71982C16.8676 9.7536 16.3442 10.0708 16.1031 10.682C15.969 11.0205 15.9125 11.3843 15.9637 11.7499C16.0299 12.1671 16.0739 12.5755 16.2034 12.977C16.6712 14.492 17.6012 15.5997 19.142 16.1401C19.2417 16.1742 19.3397 16.1874 19.4467 16.1787C19.5644 16.1692 19.7133 16.1465 19.8019 16.3083C20.3198 17.2488 20.6692 18.2346 20.799 19.3017C20.8673 19.8772 20.8598 20.4483 20.8639 21.029C20.8642 21.6946 20.707 22.2779 20.3093 22.8173C20.1149 23.0761 19.9604 23.1626 19.6318 23.0942C19.117 22.9881 18.6365 22.7736 18.1847 22.5145C16.7154 21.662 15.4734 20.5585 14.3889 19.2732C13.6497 18.393 13.0141 17.4621 12.3669 16.5216C12.3057 16.4315 12.2668 16.3502 12.4238 16.2952C12.6755 16.2113 12.7778 16.0128 12.7903 15.7688C12.808 15.3237 12.5363 15.0288 12.2351 14.768C11.5305 14.1808 10.712 13.7825 9.82963 13.5267C9.35509 13.3857 8.86341 13.2988 8.36616 13.2759C7.68618 13.2572 7.43492 13.4783 7.44718 14.0267C7.45268 14.227 7.54207 14.3993 7.64216 14.5708C8.04166 15.2462 8.63079 15.7371 9.26015 16.193C9.69485 16.5064 10.1681 16.7637 10.5839 17.1103C11.3241 17.7368 12.0544 18.3748 12.7445 19.0476C14.8189 21.1188 16.7718 23.2844 18.5433 25.602C18.6879 25.791 18.8414 25.9581 19.0566 26.0885C20.8755 27.1345 22.786 27.9829 24.7701 28.6774C26.1668 29.1661 27.6011 29.5884 29.0483 29.9039C29.1249 29.9188 29.2203 29.9005 29.2626 30.0239C25.9557 29.6165 22.8046 28.7421 19.8142 27.3264C19.8077 27.3798 19.8201 27.3999 19.8317 27.4095C20.9083 29.1286 22.026 30.8232 22.6892 32.7555C22.9283 33.444 23.136 34.1455 23.2698 34.8636C23.5526 36.4887 23.4362 38.104 23.0159 39.6912C22.9598 39.9282 22.9957 40.1049 23.1822 40.2799C23.5669 40.6395 23.9613 40.9878 24.4059 41.2898C25.9127 42.34 27.5408 43.1585 29.2451 43.8546C29.6794 44.0306 30.094 44.2294 30.5553 44.3398C30.9836 44.4423 31.4046 44.5877 31.8355 44.7217C31.7491 44.7182 31.6618 44.7042 31.5852 44.6893C28.9981 44.1283 26.5638 43.1957 24.3758 41.7148C23.9081 41.3936 23.4503 41.061 23.0508 40.6498C22.9096 40.5028 22.7996 40.3427 22.804 40.131C22.8139 39.8555 22.6941 39.7068 22.3993 39.6568C22.1045 39.6068 21.9294 39.7055 21.8437 39.9766C21.7435 40.3334 21.8769 40.6501 22.0703 40.9091C22.3488 41.2879 22.6478 41.6545 23.0166 41.952C24.2616 42.9602 25.6303 43.7681 27.1211 44.3548C28.5006 44.8977 29.9414 45.2666 31.3812 45.625C33.0081 46.0316 34.6612 46.3621 36.3442 46.5317C37.0828 46.609 37.8171 46.6338 38.554 46.6902C39.4745 46.7527 40.4031 46.7829 41.3248 46.7291C42.3108 46.6701 43.2742 46.4651 44.2259 46.2504C44.9565 46.0959 45.6861 45.931 46.4026 45.7354C48.1093 45.2692 49.7711 44.6482 51.3941 43.9458C53.0375 43.2312 54.681 42.5165 56.1367 41.4791C57.4807 40.5247 58.7412 39.4714 59.571 38.02C59.7979 37.6318 59.9277 37.2409 59.6886 36.8166C59.5868 36.6242 59.3882 36.5663 59.1366 36.6502C58.9376 36.7192 58.7107 36.8433 58.7714 37.0602C58.877 37.4319 58.7041 37.689 58.4982 37.9381C57.7542 38.8544 56.8805 39.6332 55.926 40.3446C54.8294 41.1627 53.6593 41.8706 52.4138 42.4472C51.8219 42.7172 51.2416 42.9968 50.6116 43.1959C51.2899 42.9295 51.9409 42.5913 52.5671 42.2129C53.5023 41.6615 54.4234 41.069 55.2841 40.3968C56.4389 39.5 57.5707 38.584 58.4431 37.3932C58.5784 37.2026 58.5862 37.033 58.5049 36.8283C58.117 35.8984 57.7711 34.9546 57.6143 33.9531C57.3234 32.0962 57.5199 30.2736 58.0194 28.4687C58.4105 27.0529 59.001 25.7055 59.5692 24.3493C59.5954 24.2732 59.6651 24.2041 59.6113 24.0712C56.9019 25.9817 53.9441 27.3525 50.766 28.2658ZM30.8102 23.3585C31.1633 23.3298 31.5377 23.2993 31.8343 23.1062C32.3552 22.7575 32.8513 22.3685 33.2986 21.9096C34.263 20.9226 34.8993 19.7405 35.4448 18.5023C36.2006 16.8034 36.7249 15.0387 37.0506 13.2162C37.0888 13.023 37.0327 12.9958 36.8632 13.0307C36.2791 13.131 35.6958 13.2418 35.1018 13.3535C33.6809 13.6274 32.2918 14.0255 30.9423 14.5155C29.1226 15.1811 27.4153 16.0383 25.9587 17.3293C25.3059 17.9106 24.7002 18.5409 24.29 19.3243C24.2065 19.4896 24.2356 19.5823 24.3537 19.7101C25.4754 20.7916 26.6841 21.7499 27.992 22.605C28.8546 23.1476 29.7707 23.4218 30.8102 23.3585ZM47.9288 21.9779C48.9204 21.855 49.6261 21.6603 50.224 21.1997C50.8935 20.691 51.5026 20.1027 52.0771 19.4855C52.7213 18.7993 53.33 18.0737 53.9041 17.3192C54.0205 17.1618 54.086 17.0403 53.92 16.853C53.7061 16.6063 53.4922 16.3596 53.2488 16.1469C51.9491 14.9953 50.4151 14.2748 48.7583 13.765C46.2949 13.0038 43.7663 12.7655 41.1996 12.7206C40.9518 12.7196 40.7006 12.6766 40.4464 12.729C40.3403 12.7481 40.2778 12.7744 40.3522 12.8951C40.377 12.9353 40.3821 12.9983 40.4078 13.049C41.0808 14.97 42.0021 16.7651 43.1618 18.4457C43.9792 19.6259 44.9354 20.6575 46.201 21.3893C46.8111 21.7412 47.4106 22.0939 47.9288 21.9779Z" fill="#563B00"/>
<g filter="url(#filter0_d_328_1063)">
<mask id="path-3-outside-1_328_1063" maskUnits="userSpaceOnUse" x="5.67326" y="-0.628952" width="67.5157" height="51.0328" fill="black">
<rect fill="white" x="5.67326" y="-0.628952" width="67.5157" height="51.0328"/>
<path d="M50.7661 28.2663C53.9442 27.353 56.8914 25.983 59.6123 24.0821C59.6662 24.2151 59.5964 24.2841 59.5703 24.3602C59.002 25.7164 58.4115 27.0639 58.0204 28.4797C57.5209 30.2846 57.3137 32.108 57.6153 33.964C57.7721 34.9655 58.1181 35.9094 58.5059 36.8393C58.5872 37.0439 58.5803 37.2241 58.4441 37.4042C57.5824 38.5941 56.44 39.511 55.2851 40.4078C54.4244 41.0799 53.5033 41.6725 52.5681 42.2239C51.9411 42.5918 51.2901 42.9299 50.6126 43.2068C51.2319 43.0086 51.8238 42.7386 52.4149 42.4582C53.6603 41.8816 54.8305 41.1737 55.9271 40.3556C56.8709 39.645 57.756 38.8758 58.4992 37.9491C58.7043 37.6894 58.8674 37.4438 58.7725 37.0711C58.7118 36.8542 58.9386 36.7301 59.1376 36.6611C59.3893 36.5773 59.5771 36.636 59.6896 36.8276C59.918 37.2527 59.7882 37.6436 59.572 38.031C58.7423 39.4824 57.4817 40.5357 56.1377 41.4901C54.6713 42.5284 53.0279 43.243 51.3951 43.9567C49.773 44.6696 48.1103 45.2802 46.4036 45.7464C45.6872 45.9419 44.9575 46.1069 44.227 46.2613C43.2636 46.4664 42.3012 46.682 41.3259 46.7401C40.4041 46.7939 39.4763 46.7742 38.555 46.7011C37.8181 46.6448 37.0838 46.62 36.3452 46.5427C34.6622 46.373 33.0199 46.0417 31.3823 45.6359C29.9424 45.2775 28.5016 44.9086 27.1221 44.3657C25.6207 43.7799 24.2626 42.9711 23.0176 41.963C22.6488 41.6654 22.3498 41.2989 22.0713 40.92C21.8771 40.6506 21.7437 40.3339 21.8448 39.9876C21.9304 39.7165 22.1055 39.6178 22.4003 39.6678C22.6952 39.7178 22.8149 39.8665 22.805 40.142C22.8007 40.3536 22.9115 40.5242 23.0518 40.6607C23.4514 41.072 23.9092 41.4046 24.3768 41.7258C26.5657 43.2171 28.9991 44.1392 31.5862 44.7002C31.6628 44.7151 31.7501 44.7292 31.8366 44.7327C31.4057 44.5987 30.9855 44.4638 30.5563 44.3508C30.095 44.2403 29.6804 44.0416 29.2461 43.8656C27.5525 43.1686 25.9129 42.3405 24.4069 41.3007C23.973 40.9979 23.5679 40.6505 23.1833 40.2909C22.9967 40.1158 22.96 39.9287 23.017 39.7022C23.4364 38.1045 23.5536 36.4997 23.2708 34.8745C23.1478 34.1556 22.9293 33.4549 22.6903 32.7665C22.0271 30.8342 20.9094 29.1396 19.8327 27.4205C19.8203 27.4004 19.8088 27.3908 19.8152 27.3374C22.8048 28.7426 25.946 29.6283 29.2637 30.0348C29.2205 29.901 29.1152 29.9307 29.0493 29.9149C27.5914 29.6002 26.1678 29.1771 24.7712 28.6884C22.787 27.9939 20.8765 27.1455 19.0577 26.0995C18.8425 25.9691 18.6889 25.802 18.5443 25.613C16.7622 23.2962 14.8084 21.1201 12.7455 19.0586C12.0653 18.3744 11.3243 17.7373 10.585 17.1212C10.1798 16.7738 9.69588 16.5173 9.26119 16.204C8.63182 15.748 8.04269 15.2571 7.64319 14.5817C7.5431 14.4103 7.45286 14.2274 7.44821 14.0377C7.43595 13.4893 7.68721 13.2681 8.36719 13.2868C8.86359 13.2993 9.35612 13.3966 9.83066 13.5377C10.713 13.7935 11.5315 14.1918 12.2362 14.779C12.548 15.0389 12.8197 15.3338 12.7913 15.7798C12.7797 16.0343 12.6881 16.2319 12.4249 16.3061C12.2678 16.3611 12.3067 16.4425 12.3679 16.5326C13.0151 17.4731 13.6516 18.4145 14.39 19.2842C15.4744 20.5695 16.7173 21.6834 18.1857 22.5255C18.6375 22.7846 19.118 22.9991 19.6328 23.1052C19.9614 23.1735 20.1159 23.087 20.3103 22.8282C20.708 22.2888 20.8652 21.7055 20.865 21.04C20.8716 20.4584 20.8683 19.8881 20.8 19.3126C20.671 18.2561 20.3208 17.2597 19.8029 16.3193C19.7143 16.1575 19.5654 16.1801 19.4477 16.1897C19.3408 16.1984 19.2428 16.1852 19.1431 16.1511C17.5907 15.6011 16.6722 14.503 16.2045 12.988C16.0749 12.5865 16.0301 12.1675 15.9647 11.7608C15.9135 11.3952 15.9594 11.0323 16.1041 10.693C16.3551 10.0704 16.8794 9.7637 17.5444 9.73078C18.6275 9.67446 19.4439 10.1786 20.19 10.8786C20.8907 11.5507 21.2923 12.3844 21.6118 13.267C21.752 13.6676 21.8084 14.0962 21.7569 14.523C21.6951 15.0879 21.3959 15.5137 20.9135 15.8064C20.7393 15.9157 20.7453 15.9892 20.8338 16.151C21.8667 18.1272 23.3324 19.7302 25.0912 21.098C26.1151 21.9022 27.2159 22.5946 28.3939 23.175C29.1226 23.5278 29.8936 23.7398 30.7093 23.7052C31.7513 23.6734 32.5962 23.2033 33.3252 22.4996C34.4835 21.3806 35.2229 20.0105 35.8485 18.5651C36.5927 16.8565 37.1277 15.091 37.3884 13.2632C37.5578 12.0345 37.5872 10.8066 37.466 9.58034C37.4298 9.26634 37.3108 9.1281 37.0314 9.0029C36.0935 8.59314 35.6221 7.82852 35.4786 6.85765C35.3377 5.91827 35.4915 5.02889 35.9856 4.21751C36.442 3.47257 37.0793 2.96649 38.0028 2.9337C38.8621 2.90613 39.5399 3.29478 40.0553 3.9396C40.9088 5.03237 41.2011 6.2447 40.7497 7.58086C40.5596 8.15625 40.1632 8.57936 39.638 8.87559C39.463 8.97434 39.4073 9.08451 39.4244 9.29442C39.4803 9.84981 39.5139 10.3964 39.6019 10.9492C39.8138 12.2315 40.1836 13.4692 40.6908 14.6746C41.4756 16.5125 42.4657 18.2281 43.7346 19.7942C44.3574 20.5677 45.1001 21.2257 45.9601 21.7369C47.2292 22.5106 48.5288 22.4684 49.8325 21.8131C50.7022 21.3832 51.4264 20.7539 52.1399 20.1254C53.8281 18.6359 55.2284 16.9162 56.2179 14.913C56.4954 14.3517 56.7052 13.7535 56.9159 13.1659C56.9502 13.0575 56.9772 12.9919 56.8321 12.9297C55.8869 12.5628 55.5777 11.8062 55.6212 10.8835C55.6647 9.96081 55.938 9.08286 56.423 8.29333C56.8606 7.58163 57.3987 6.91457 58.2324 6.57214C58.6082 6.42539 58.998 6.31975 59.408 6.32869C60.2592 6.33348 60.731 6.97128 60.8964 7.54946C61.0653 8.16963 61.0416 8.80545 60.9413 9.42636C60.7093 10.9454 59.9802 12.1774 58.5558 12.9376C58.5041 12.9629 58.4334 13.0215 58.3791 13.0153C57.9781 12.9845 57.9023 13.2442 57.8085 13.5477C57.5793 14.3058 57.4268 15.0789 57.4159 15.8721C57.3998 16.6024 57.4792 17.3144 57.6344 18.0307C57.7027 18.3421 57.7382 18.6456 57.8806 18.9404C58.0478 19.2755 58.2865 19.5625 58.5556 19.8258C58.7191 19.9816 58.9347 19.9852 59.1436 19.9048C59.6452 19.7162 60.074 19.4278 60.4781 19.0991C62.004 17.8658 63.1398 16.3367 64.08 14.6544C64.5116 13.8693 64.8764 13.0578 65.2635 12.2551C65.3281 12.1231 65.3534 12.0365 65.1459 12.0006C64.7736 11.9252 64.6068 11.4633 64.776 11.027C64.9468 10.6116 65.2546 10.2908 65.5863 9.99971C66.46 9.22087 67.4709 8.67386 68.6226 8.40067C68.6966 8.38409 68.7813 8.36664 68.8562 8.36055C69.5187 8.29615 69.8613 8.66976 69.687 9.30726C69.5469 9.83632 69.2601 10.2822 68.9172 10.701C68.4964 11.2212 68.0277 11.6818 67.5243 12.1137C67.0915 12.4869 66.7735 12.9459 66.4207 13.376C64.169 16.1474 62.3041 19.1726 60.5966 22.2801C60.4844 22.4899 60.3359 22.6499 60.1544 22.802C57.3457 25.0798 54.2136 26.824 50.8565 28.185C50.8252 28.1981 50.7931 28.2007 50.761 28.2033C50.7503 28.2042 50.7503 28.2042 50.7396 28.205C50.7388 28.1945 50.7396 28.205 50.7661 28.2663ZM31.9906 44.773C31.9684 44.7642 31.9568 44.7546 31.9354 44.7564C31.9149 44.7686 31.9157 44.7791 31.9371 44.7773C31.9594 44.7861 31.9799 44.7739 31.9906 44.773ZM50.5099 43.268C50.509 43.2575 50.5082 43.247 50.5082 43.247C50.4975 43.2479 50.4761 43.2496 50.4654 43.2505C50.444 43.2522 50.4448 43.2627 50.4671 43.2715C50.4786 43.2811 50.4992 43.2689 50.5099 43.268Z"/>
</mask>
<path d="M50.7661 28.2663C53.9442 27.353 56.8914 25.983 59.6123 24.0821C59.6662 24.2151 59.5964 24.2841 59.5703 24.3602C59.002 25.7164 58.4115 27.0639 58.0204 28.4797C57.5209 30.2846 57.3137 32.108 57.6153 33.964C57.7721 34.9655 58.1181 35.9094 58.5059 36.8393C58.5872 37.0439 58.5803 37.2241 58.4441 37.4042C57.5824 38.5941 56.44 39.511 55.2851 40.4078C54.4244 41.0799 53.5033 41.6725 52.5681 42.2239C51.9411 42.5918 51.2901 42.9299 50.6126 43.2068C51.2319 43.0086 51.8238 42.7386 52.4149 42.4582C53.6603 41.8816 54.8305 41.1737 55.9271 40.3556C56.8709 39.645 57.756 38.8758 58.4992 37.9491C58.7043 37.6894 58.8674 37.4438 58.7725 37.0711C58.7118 36.8542 58.9386 36.7301 59.1376 36.6611C59.3893 36.5773 59.5771 36.636 59.6896 36.8276C59.918 37.2527 59.7882 37.6436 59.572 38.031C58.7423 39.4824 57.4817 40.5357 56.1377 41.4901C54.6713 42.5284 53.0279 43.243 51.3951 43.9567C49.773 44.6696 48.1103 45.2802 46.4036 45.7464C45.6872 45.9419 44.9575 46.1069 44.227 46.2613C43.2636 46.4664 42.3012 46.682 41.3259 46.7401C40.4041 46.7939 39.4763 46.7742 38.555 46.7011C37.8181 46.6448 37.0838 46.62 36.3452 46.5427C34.6622 46.373 33.0199 46.0417 31.3823 45.6359C29.9424 45.2775 28.5016 44.9086 27.1221 44.3657C25.6207 43.7799 24.2626 42.9711 23.0176 41.963C22.6488 41.6654 22.3498 41.2989 22.0713 40.92C21.8771 40.6506 21.7437 40.3339 21.8448 39.9876C21.9304 39.7165 22.1055 39.6178 22.4003 39.6678C22.6952 39.7178 22.8149 39.8665 22.805 40.142C22.8007 40.3536 22.9115 40.5242 23.0518 40.6607C23.4514 41.072 23.9092 41.4046 24.3768 41.7258C26.5657 43.2171 28.9991 44.1392 31.5862 44.7002C31.6628 44.7151 31.7501 44.7292 31.8366 44.7327C31.4057 44.5987 30.9855 44.4638 30.5563 44.3508C30.095 44.2403 29.6804 44.0416 29.2461 43.8656C27.5525 43.1686 25.9129 42.3405 24.4069 41.3007C23.973 40.9979 23.5679 40.6505 23.1833 40.2909C22.9967 40.1158 22.96 39.9287 23.017 39.7022C23.4364 38.1045 23.5536 36.4997 23.2708 34.8745C23.1478 34.1556 22.9293 33.4549 22.6903 32.7665C22.0271 30.8342 20.9094 29.1396 19.8327 27.4205C19.8203 27.4004 19.8088 27.3908 19.8152 27.3374C22.8048 28.7426 25.946 29.6283 29.2637 30.0348C29.2205 29.901 29.1152 29.9307 29.0493 29.9149C27.5914 29.6002 26.1678 29.1771 24.7712 28.6884C22.787 27.9939 20.8765 27.1455 19.0577 26.0995C18.8425 25.9691 18.6889 25.802 18.5443 25.613C16.7622 23.2962 14.8084 21.1201 12.7455 19.0586C12.0653 18.3744 11.3243 17.7373 10.585 17.1212C10.1798 16.7738 9.69588 16.5173 9.26119 16.204C8.63182 15.748 8.04269 15.2571 7.64319 14.5817C7.5431 14.4103 7.45286 14.2274 7.44821 14.0377C7.43595 13.4893 7.68721 13.2681 8.36719 13.2868C8.86359 13.2993 9.35612 13.3966 9.83066 13.5377C10.713 13.7935 11.5315 14.1918 12.2362 14.779C12.548 15.0389 12.8197 15.3338 12.7913 15.7798C12.7797 16.0343 12.6881 16.2319 12.4249 16.3061C12.2678 16.3611 12.3067 16.4425 12.3679 16.5326C13.0151 17.4731 13.6516 18.4145 14.39 19.2842C15.4744 20.5695 16.7173 21.6834 18.1857 22.5255C18.6375 22.7846 19.118 22.9991 19.6328 23.1052C19.9614 23.1735 20.1159 23.087 20.3103 22.8282C20.708 22.2888 20.8652 21.7055 20.865 21.04C20.8716 20.4584 20.8683 19.8881 20.8 19.3126C20.671 18.2561 20.3208 17.2597 19.8029 16.3193C19.7143 16.1575 19.5654 16.1801 19.4477 16.1897C19.3408 16.1984 19.2428 16.1852 19.1431 16.1511C17.5907 15.6011 16.6722 14.503 16.2045 12.988C16.0749 12.5865 16.0301 12.1675 15.9647 11.7608C15.9135 11.3952 15.9594 11.0323 16.1041 10.693C16.3551 10.0704 16.8794 9.7637 17.5444 9.73078C18.6275 9.67446 19.4439 10.1786 20.19 10.8786C20.8907 11.5507 21.2923 12.3844 21.6118 13.267C21.752 13.6676 21.8084 14.0962 21.7569 14.523C21.6951 15.0879 21.3959 15.5137 20.9135 15.8064C20.7393 15.9157 20.7453 15.9892 20.8338 16.151C21.8667 18.1272 23.3324 19.7302 25.0912 21.098C26.1151 21.9022 27.2159 22.5946 28.3939 23.175C29.1226 23.5278 29.8936 23.7398 30.7093 23.7052C31.7513 23.6734 32.5962 23.2033 33.3252 22.4996C34.4835 21.3806 35.2229 20.0105 35.8485 18.5651C36.5927 16.8565 37.1277 15.091 37.3884 13.2632C37.5578 12.0345 37.5872 10.8066 37.466 9.58034C37.4298 9.26634 37.3108 9.1281 37.0314 9.0029C36.0935 8.59314 35.6221 7.82852 35.4786 6.85765C35.3377 5.91827 35.4915 5.02889 35.9856 4.21751C36.442 3.47257 37.0793 2.96649 38.0028 2.9337C38.8621 2.90613 39.5399 3.29478 40.0553 3.9396C40.9088 5.03237 41.2011 6.2447 40.7497 7.58086C40.5596 8.15625 40.1632 8.57936 39.638 8.87559C39.463 8.97434 39.4073 9.08451 39.4244 9.29442C39.4803 9.84981 39.5139 10.3964 39.6019 10.9492C39.8138 12.2315 40.1836 13.4692 40.6908 14.6746C41.4756 16.5125 42.4657 18.2281 43.7346 19.7942C44.3574 20.5677 45.1001 21.2257 45.9601 21.7369C47.2292 22.5106 48.5288 22.4684 49.8325 21.8131C50.7022 21.3832 51.4264 20.7539 52.1399 20.1254C53.8281 18.6359 55.2284 16.9162 56.2179 14.913C56.4954 14.3517 56.7052 13.7535 56.9159 13.1659C56.9502 13.0575 56.9772 12.9919 56.8321 12.9297C55.8869 12.5628 55.5777 11.8062 55.6212 10.8835C55.6647 9.96081 55.938 9.08286 56.423 8.29333C56.8606 7.58163 57.3987 6.91457 58.2324 6.57214C58.6082 6.42539 58.998 6.31975 59.408 6.32869C60.2592 6.33348 60.731 6.97128 60.8964 7.54946C61.0653 8.16963 61.0416 8.80545 60.9413 9.42636C60.7093 10.9454 59.9802 12.1774 58.5558 12.9376C58.5041 12.9629 58.4334 13.0215 58.3791 13.0153C57.9781 12.9845 57.9023 13.2442 57.8085 13.5477C57.5793 14.3058 57.4268 15.0789 57.4159 15.8721C57.3998 16.6024 57.4792 17.3144 57.6344 18.0307C57.7027 18.3421 57.7382 18.6456 57.8806 18.9404C58.0478 19.2755 58.2865 19.5625 58.5556 19.8258C58.7191 19.9816 58.9347 19.9852 59.1436 19.9048C59.6452 19.7162 60.074 19.4278 60.4781 19.0991C62.004 17.8658 63.1398 16.3367 64.08 14.6544C64.5116 13.8693 64.8764 13.0578 65.2635 12.2551C65.3281 12.1231 65.3534 12.0365 65.1459 12.0006C64.7736 11.9252 64.6068 11.4633 64.776 11.027C64.9468 10.6116 65.2546 10.2908 65.5863 9.99971C66.46 9.22087 67.4709 8.67386 68.6226 8.40067C68.6966 8.38409 68.7813 8.36664 68.8562 8.36055C69.5187 8.29615 69.8613 8.66976 69.687 9.30726C69.5469 9.83632 69.2601 10.2822 68.9172 10.701C68.4964 11.2212 68.0277 11.6818 67.5243 12.1137C67.0915 12.4869 66.7735 12.9459 66.4207 13.376C64.169 16.1474 62.3041 19.1726 60.5966 22.2801C60.4844 22.4899 60.3359 22.6499 60.1544 22.802C57.3457 25.0798 54.2136 26.824 50.8565 28.185C50.8252 28.1981 50.7931 28.2007 50.761 28.2033C50.7503 28.2042 50.7503 28.2042 50.7396 28.205C50.7388 28.1945 50.7396 28.205 50.7661 28.2663ZM31.9906 44.773C31.9684 44.7642 31.9568 44.7546 31.9354 44.7564C31.9149 44.7686 31.9157 44.7791 31.9371 44.7773C31.9594 44.7861 31.9799 44.7739 31.9906 44.773ZM50.5099 43.268C50.509 43.2575 50.5082 43.247 50.5082 43.247C50.4975 43.2479 50.4761 43.2496 50.4654 43.2505C50.444 43.2522 50.4448 43.2627 50.4671 43.2715C50.4786 43.2811 50.4992 43.2689 50.5099 43.268Z" fill="#FFE52F"/>
<path d="M50.7661 28.2663C53.9442 27.353 56.8914 25.983 59.6123 24.0821C59.6662 24.2151 59.5964 24.2841 59.5703 24.3602C59.002 25.7164 58.4115 27.0639 58.0204 28.4797C57.5209 30.2846 57.3137 32.108 57.6153 33.964C57.7721 34.9655 58.1181 35.9094 58.5059 36.8393C58.5872 37.0439 58.5803 37.2241 58.4441 37.4042C57.5824 38.5941 56.44 39.511 55.2851 40.4078C54.4244 41.0799 53.5033 41.6725 52.5681 42.2239C51.9411 42.5918 51.2901 42.9299 50.6126 43.2068C51.2319 43.0086 51.8238 42.7386 52.4149 42.4582C53.6603 41.8816 54.8305 41.1737 55.9271 40.3556C56.8709 39.645 57.756 38.8758 58.4992 37.9491C58.7043 37.6894 58.8674 37.4438 58.7725 37.0711C58.7118 36.8542 58.9386 36.7301 59.1376 36.6611C59.3893 36.5773 59.5771 36.636 59.6896 36.8276C59.918 37.2527 59.7882 37.6436 59.572 38.031C58.7423 39.4824 57.4817 40.5357 56.1377 41.4901C54.6713 42.5284 53.0279 43.243 51.3951 43.9567C49.773 44.6696 48.1103 45.2802 46.4036 45.7464C45.6872 45.9419 44.9575 46.1069 44.227 46.2613C43.2636 46.4664 42.3012 46.682 41.3259 46.7401C40.4041 46.7939 39.4763 46.7742 38.555 46.7011C37.8181 46.6448 37.0838 46.62 36.3452 46.5427C34.6622 46.373 33.0199 46.0417 31.3823 45.6359C29.9424 45.2775 28.5016 44.9086 27.1221 44.3657C25.6207 43.7799 24.2626 42.9711 23.0176 41.963C22.6488 41.6654 22.3498 41.2989 22.0713 40.92C21.8771 40.6506 21.7437 40.3339 21.8448 39.9876C21.9304 39.7165 22.1055 39.6178 22.4003 39.6678C22.6952 39.7178 22.8149 39.8665 22.805 40.142C22.8007 40.3536 22.9115 40.5242 23.0518 40.6607C23.4514 41.072 23.9092 41.4046 24.3768 41.7258C26.5657 43.2171 28.9991 44.1392 31.5862 44.7002C31.6628 44.7151 31.7501 44.7292 31.8366 44.7327C31.4057 44.5987 30.9855 44.4638 30.5563 44.3508C30.095 44.2403 29.6804 44.0416 29.2461 43.8656C27.5525 43.1686 25.9129 42.3405 24.4069 41.3007C23.973 40.9979 23.5679 40.6505 23.1833 40.2909C22.9967 40.1158 22.96 39.9287 23.017 39.7022C23.4364 38.1045 23.5536 36.4997 23.2708 34.8745C23.1478 34.1556 22.9293 33.4549 22.6903 32.7665C22.0271 30.8342 20.9094 29.1396 19.8327 27.4205C19.8203 27.4004 19.8088 27.3908 19.8152 27.3374C22.8048 28.7426 25.946 29.6283 29.2637 30.0348C29.2205 29.901 29.1152 29.9307 29.0493 29.9149C27.5914 29.6002 26.1678 29.1771 24.7712 28.6884C22.787 27.9939 20.8765 27.1455 19.0577 26.0995C18.8425 25.9691 18.6889 25.802 18.5443 25.613C16.7622 23.2962 14.8084 21.1201 12.7455 19.0586C12.0653 18.3744 11.3243 17.7373 10.585 17.1212C10.1798 16.7738 9.69588 16.5173 9.26119 16.204C8.63182 15.748 8.04269 15.2571 7.64319 14.5817C7.5431 14.4103 7.45286 14.2274 7.44821 14.0377C7.43595 13.4893 7.68721 13.2681 8.36719 13.2868C8.86359 13.2993 9.35612 13.3966 9.83066 13.5377C10.713 13.7935 11.5315 14.1918 12.2362 14.779C12.548 15.0389 12.8197 15.3338 12.7913 15.7798C12.7797 16.0343 12.6881 16.2319 12.4249 16.3061C12.2678 16.3611 12.3067 16.4425 12.3679 16.5326C13.0151 17.4731 13.6516 18.4145 14.39 19.2842C15.4744 20.5695 16.7173 21.6834 18.1857 22.5255C18.6375 22.7846 19.118 22.9991 19.6328 23.1052C19.9614 23.1735 20.1159 23.087 20.3103 22.8282C20.708 22.2888 20.8652 21.7055 20.865 21.04C20.8716 20.4584 20.8683 19.8881 20.8 19.3126C20.671 18.2561 20.3208 17.2597 19.8029 16.3193C19.7143 16.1575 19.5654 16.1801 19.4477 16.1897C19.3408 16.1984 19.2428 16.1852 19.1431 16.1511C17.5907 15.6011 16.6722 14.503 16.2045 12.988C16.0749 12.5865 16.0301 12.1675 15.9647 11.7608C15.9135 11.3952 15.9594 11.0323 16.1041 10.693C16.3551 10.0704 16.8794 9.7637 17.5444 9.73078C18.6275 9.67446 19.4439 10.1786 20.19 10.8786C20.8907 11.5507 21.2923 12.3844 21.6118 13.267C21.752 13.6676 21.8084 14.0962 21.7569 14.523C21.6951 15.0879 21.3959 15.5137 20.9135 15.8064C20.7393 15.9157 20.7453 15.9892 20.8338 16.151C21.8667 18.1272 23.3324 19.7302 25.0912 21.098C26.1151 21.9022 27.2159 22.5946 28.3939 23.175C29.1226 23.5278 29.8936 23.7398 30.7093 23.7052C31.7513 23.6734 32.5962 23.2033 33.3252 22.4996C34.4835 21.3806 35.2229 20.0105 35.8485 18.5651C36.5927 16.8565 37.1277 15.091 37.3884 13.2632C37.5578 12.0345 37.5872 10.8066 37.466 9.58034C37.4298 9.26634 37.3108 9.1281 37.0314 9.0029C36.0935 8.59314 35.6221 7.82852 35.4786 6.85765C35.3377 5.91827 35.4915 5.02889 35.9856 4.21751C36.442 3.47257 37.0793 2.96649 38.0028 2.9337C38.8621 2.90613 39.5399 3.29478 40.0553 3.9396C40.9088 5.03237 41.2011 6.2447 40.7497 7.58086C40.5596 8.15625 40.1632 8.57936 39.638 8.87559C39.463 8.97434 39.4073 9.08451 39.4244 9.29442C39.4803 9.84981 39.5139 10.3964 39.6019 10.9492C39.8138 12.2315 40.1836 13.4692 40.6908 14.6746C41.4756 16.5125 42.4657 18.2281 43.7346 19.7942C44.3574 20.5677 45.1001 21.2257 45.9601 21.7369C47.2292 22.5106 48.5288 22.4684 49.8325 21.8131C50.7022 21.3832 51.4264 20.7539 52.1399 20.1254C53.8281 18.6359 55.2284 16.9162 56.2179 14.913C56.4954 14.3517 56.7052 13.7535 56.9159 13.1659C56.9502 13.0575 56.9772 12.9919 56.8321 12.9297C55.8869 12.5628 55.5777 11.8062 55.6212 10.8835C55.6647 9.96081 55.938 9.08286 56.423 8.29333C56.8606 7.58163 57.3987 6.91457 58.2324 6.57214C58.6082 6.42539 58.998 6.31975 59.408 6.32869C60.2592 6.33348 60.731 6.97128 60.8964 7.54946C61.0653 8.16963 61.0416 8.80545 60.9413 9.42636C60.7093 10.9454 59.9802 12.1774 58.5558 12.9376C58.5041 12.9629 58.4334 13.0215 58.3791 13.0153C57.9781 12.9845 57.9023 13.2442 57.8085 13.5477C57.5793 14.3058 57.4268 15.0789 57.4159 15.8721C57.3998 16.6024 57.4792 17.3144 57.6344 18.0307C57.7027 18.3421 57.7382 18.6456 57.8806 18.9404C58.0478 19.2755 58.2865 19.5625 58.5556 19.8258C58.7191 19.9816 58.9347 19.9852 59.1436 19.9048C59.6452 19.7162 60.074 19.4278 60.4781 19.0991C62.004 17.8658 63.1398 16.3367 64.08 14.6544C64.5116 13.8693 64.8764 13.0578 65.2635 12.2551C65.3281 12.1231 65.3534 12.0365 65.1459 12.0006C64.7736 11.9252 64.6068 11.4633 64.776 11.027C64.9468 10.6116 65.2546 10.2908 65.5863 9.99971C66.46 9.22087 67.4709 8.67386 68.6226 8.40067C68.6966 8.38409 68.7813 8.36664 68.8562 8.36055C69.5187 8.29615 69.8613 8.66976 69.687 9.30726C69.5469 9.83632 69.2601 10.2822 68.9172 10.701C68.4964 11.2212 68.0277 11.6818 67.5243 12.1137C67.0915 12.4869 66.7735 12.9459 66.4207 13.376C64.169 16.1474 62.3041 19.1726 60.5966 22.2801C60.4844 22.4899 60.3359 22.6499 60.1544 22.802C57.3457 25.0798 54.2136 26.824 50.8565 28.185C50.8252 28.1981 50.7931 28.2007 50.761 28.2033C50.7503 28.2042 50.7503 28.2042 50.7396 28.205C50.7388 28.1945 50.7396 28.205 50.7661 28.2663ZM31.9906 44.773C31.9684 44.7642 31.9568 44.7546 31.9354 44.7564C31.9149 44.7686 31.9157 44.7791 31.9371 44.7773C31.9594 44.7861 31.9799 44.7739 31.9906 44.773ZM50.5099 43.268C50.509 43.2575 50.5082 43.247 50.5082 43.247C50.4975 43.2479 50.4761 43.2496 50.4654 43.2505C50.444 43.2522 50.4448 43.2627 50.4671 43.2715C50.4786 43.2811 50.4992 43.2689 50.5099 43.268Z" stroke="#563B00" stroke-width="0.8" mask="url(#path-3-outside-1_328_1063)"/>
</g>
<path d="M43.2428 42.444C40.8547 42.6425 38.3182 42.4285 35.9056 41.3799C34.4575 40.7453 33.205 39.8429 32.2027 38.6575C31.4584 37.7723 31.1265 36.714 31.1129 35.566C31.1074 34.9189 31.1317 34.2867 31.3536 33.6602C31.6619 32.7962 32.123 32.043 32.9093 31.5187C33.9319 30.8408 35.0672 31.0171 35.8174 31.9565C36.0016 32.1825 36.1683 32.4197 36.3258 32.6578C37.156 33.8985 38.3424 34.6258 39.828 34.9187C40.9784 35.1481 42.1226 35.1501 43.2728 34.9508C43.8618 34.8496 44.3969 34.5992 44.935 34.3759C45.4814 34.1425 46.038 33.9171 46.628 33.825C47.2726 33.7176 47.9042 33.7486 48.5041 34.002C49.4285 34.3931 49.9286 35.1045 50.1262 36.0498C50.2815 36.7808 50.1891 37.4752 49.9 38.1729C48.9786 40.4545 47.1779 41.6467 44.8284 42.1968C44.3804 42.3008 43.9201 42.3787 43.2428 42.444ZM38.7977 37.1484C38.9479 37.1502 39.0326 37.0679 39.0949 36.9515C39.356 36.5123 39.5484 36.0442 39.6915 35.554C39.7312 35.4037 39.7067 35.3517 39.5433 35.3149C38.5719 35.0932 37.6597 34.7281 36.928 34.0422C36.8337 33.9522 36.7913 33.9933 36.7334 34.0636C36.3488 34.489 36.0155 34.9544 35.7725 35.4737C35.6427 35.7434 35.678 35.8946 35.9139 36.0785C36.4389 36.5044 37.0417 36.7848 37.6902 36.969C38.0396 37.0766 38.4118 37.1361 38.7977 37.1484ZM43.8955 37.5462C44.6894 37.4317 45.4439 37.1298 46.123 36.6538C46.3057 36.5243 46.3742 36.3799 46.3031 36.1596C46.1438 35.648 45.8275 35.2448 45.4743 34.8458C45.3575 34.7217 45.2721 34.7129 45.1196 34.7752C44.4051 35.1001 43.6774 35.3898 42.8796 35.4684C42.7592 35.4816 42.7763 35.5527 42.7843 35.6248C42.7977 36.0886 42.8658 36.5373 42.9987 36.9788C43.1924 37.6326 43.0504 37.6208 43.8955 37.5462Z" fill="#563B00"/>
<path d="M38.7968 37.1488C38.4202 37.1354 38.049 37.085 37.6811 36.9794C37.0326 36.7952 36.4298 36.5148 35.9047 36.0889C35.6689 35.905 35.6428 35.7528 35.7633 35.4841C36.0063 34.9648 36.3396 34.4994 36.7242 34.074C36.7914 34.0027 36.8245 33.9626 36.9188 34.0526C37.6505 34.7385 38.5617 35.0946 39.5341 35.3253C39.6976 35.3621 39.722 35.4141 39.6823 35.5644C39.5485 36.0535 39.3469 36.5227 39.0857 36.9619C39.0224 37.0692 38.9377 37.1515 38.7968 37.1488Z" fill="#FDFDFD"/>
<path d="M43.8925 37.5459C43.0474 37.6205 43.1894 37.6323 42.9966 36.9875C42.8637 36.5459 42.7957 36.0973 42.7822 35.6335C42.7836 35.5603 42.7571 35.4903 42.8776 35.477C43.6744 35.3895 44.4021 35.0997 45.1175 34.7839C45.2691 34.7125 45.3647 34.7294 45.4722 34.8544C45.8245 35.2445 46.1417 35.6567 46.3011 36.1683C46.3722 36.3886 46.3036 36.5329 46.1209 36.6625C45.4408 37.1295 44.6956 37.4303 43.8925 37.5459Z" fill="#FDFDFD"/>
<path d="M54.8668 26.1716L54.2179 22.0972L54.061 21.1508L22.2607 26.2854L23.0126 30.9702L23.9801 30.8149L24.1907 32.1269L25.7651 31.8742L26.0178 33.4486L27.0674 33.2802L27.278 34.5922L36.1996 33.1603L36.0274 32.0874L37.3394 31.8768L37.0983 30.3742L38.4103 30.1637L37.9814 27.4911L39.2934 27.2806L39.7223 29.9531L41.0343 29.7425L41.2755 31.2451L42.5875 31.0345L42.7597 32.1075L51.6813 30.6756L51.5091 29.6027L52.6622 29.4176L52.4479 28.0824L53.743 27.7029L53.5178 26.2997L54.8668 26.1716Z" fill="#3F2B00"/>
<path opacity="0.88" fill-rule="evenodd" clip-rule="evenodd" d="M32.8274 27.24L31.6466 27.4295L31.8361 28.6103L33.0169 28.4208L32.8274 27.24ZM31.836 28.6103L30.6552 28.7998L30.8447 29.9806L32.0256 29.7911L31.836 28.6103ZM29.6639 30.1701L30.8447 29.9806L31.0342 31.1614L29.8534 31.351L29.6639 30.1701ZM29.8533 31.351L28.6725 31.5405L28.862 32.7213L30.0429 32.5318L29.8533 31.351Z" fill="white"/>
<path opacity="0.88" fill-rule="evenodd" clip-rule="evenodd" d="M34.926 26.9041L33.7452 27.0936L33.9347 28.2744L35.1155 28.0849L34.926 26.9041ZM33.9347 28.2744L32.7539 28.464L32.9434 29.6448L34.1242 29.4553L33.9347 28.2744ZM31.763 29.8342L32.9438 29.6447L33.1333 30.8255L31.9525 31.015L31.763 29.8342ZM31.9525 31.015L30.7717 31.2045L30.9612 32.3853L32.142 32.1958L31.9525 31.015Z" fill="white"/>
<path opacity="0.88" fill-rule="evenodd" clip-rule="evenodd" d="M49.6208 24.5447L48.44 24.7343L48.6295 25.9151L49.8104 25.7256L49.6208 24.5447ZM48.6295 25.9151L47.4487 26.1046L47.6382 27.2854L48.819 27.0959L48.6295 25.9151ZM46.4578 27.4748L47.6386 27.2853L47.8282 28.4661L46.6473 28.6556L46.4578 27.4748ZM46.6473 28.6557L45.4665 28.8452L45.656 30.026L46.8368 29.8365L46.6473 28.6557Z" fill="white"/>
<path opacity="0.88" fill-rule="evenodd" clip-rule="evenodd" d="M51.72 24.2087L50.5392 24.3982L50.7287 25.579L51.9095 25.3895L51.72 24.2087ZM50.7286 25.5791L49.5478 25.7686L49.7373 26.9494L50.9181 26.7599L50.7286 25.5791ZM48.5565 27.1389L49.7373 26.9494L49.9268 28.1302L48.746 28.3197L48.5565 27.1389ZM48.7459 28.3197L47.5651 28.5092L47.7546 29.69L48.9354 29.5005L48.7459 28.3197Z" fill="white"/>
<path d="M30.8096 23.3582C29.7817 23.4311 28.8548 23.1578 28.0004 22.5828C26.6924 21.7277 25.4838 20.7694 24.3621 19.6879C24.2341 19.5715 24.2042 19.4683 24.2984 19.3022C24.7086 18.5187 25.3143 17.8885 25.9671 17.3072C27.4237 16.0161 29.1309 15.1589 30.9507 14.4934C32.3108 14.0025 33.6893 13.6052 35.1101 13.3313C35.6934 13.2205 36.2767 13.1097 36.8716 13.0086C37.0419 12.9841 37.0971 13.0008 37.059 13.1941C36.7332 15.0166 36.209 16.7812 35.4532 18.4802C34.9076 19.7183 34.2714 20.9005 33.307 21.8874C32.8597 22.3464 32.3636 22.7353 31.8427 23.084C31.5371 23.2991 31.1626 23.3295 30.8096 23.3582Z" fill="#DE5D4F" stroke="#563B00" stroke-width="0.266667"/>
<path d="M47.9262 21.9791C47.5301 22.0112 46.8076 21.7319 46.1983 21.3905C44.9228 20.6701 43.9765 19.6271 43.1591 18.4469C41.9994 16.7663 41.0782 14.9712 40.4051 13.0502C40.3902 12.9986 40.3851 12.9357 40.3496 12.8963C40.2751 12.7755 40.3269 12.7502 40.4437 12.7302C40.698 12.6778 40.9491 12.7208 41.1969 12.7218C43.7636 12.7667 46.2931 13.0155 48.7556 13.7662C50.4125 14.276 51.9464 14.9965 53.2462 16.1481C53.4896 16.3607 53.7035 16.6075 53.9174 16.8542C54.0834 17.0415 54.0179 17.163 53.9014 17.3204C53.338 18.074 52.7293 18.7996 52.0744 19.4867C51.4999 20.1039 50.89 20.6817 50.2214 21.2009C49.6234 21.6615 48.4336 22.0051 47.9262 21.9791Z" fill="#DE5D4F" stroke="#563B00" stroke-width="0.266667"/>
<path d="M31.9908 44.7738C31.9799 44.7747 31.959 44.7871 31.9481 44.788C31.9263 44.7898 31.9246 44.7685 31.9464 44.7667C31.9564 44.7552 31.9681 44.765 31.9908 44.7738Z" fill="#563B00"/>
<path d="M50.5103 43.2683C50.4994 43.2692 50.4785 43.2816 50.4668 43.2719C50.4442 43.263 50.4433 43.2524 50.4651 43.2506C50.4759 43.2497 50.4977 43.248 50.5086 43.2471C50.5094 43.2577 50.5103 43.2683 50.5103 43.2683Z" fill="#563B00"/>
<path d="M31.1367 46.2809L56.2465 37.3155C58.0112 35.2422 72.4325 43.8609 66.4147 49.3058C66.968 50.7175 67.3692 53.8634 64.5471 55.154C70.9108 63.3549 78.1599 80.8054 56.2465 85H15.7815C12.5996 81.7734 7.31497 73.4246 11.6312 65.8421C15.9475 58.2596 20.8996 50.7175 22.8362 47.8942C19.1009 44.6676 22.2136 41.8443 22.2136 41.8443L31.1367 46.2809Z" fill="#FF9429"/>
<path d="M66.4147 49.3058C72.4325 43.8609 58.0112 35.2422 56.2465 37.3155L31.1367 46.2809L22.2136 41.8443C22.2136 41.8443 19.1009 44.6676 22.8362 47.8942M66.4147 49.3058C66.968 50.7175 67.3692 53.8634 64.547 55.154M66.4147 49.3058L62.0561 44.2643M64.547 55.154C70.9108 63.3549 78.1599 80.8054 56.2465 85H15.7815M64.547 55.154C62.1258 51.2552 53.0085 44.6273 35.9095 49.3058M64.547 55.154C59.0693 56.2833 54.2403 61.8089 52.5105 64.4305M15.7815 85C12.5996 81.7734 7.31497 73.4246 11.6312 65.8421C15.9475 58.2596 20.8996 50.7175 22.8362 47.8942M15.7815 85L18.8934 70.077M22.8362 47.8942L27.8165 50.9191M49.6053 64.4305C50.7812 60.935 53.9631 53.3391 57.2833 50.9191M58.7359 64.4305C55.9691 64.1616 50.3524 64.5111 50.0204 68.0604C48.7753 67.9259 46.2436 68.1411 46.0776 70.077M46.0776 70.077L49.6053 76.5302M46.0776 70.077L51.6805 75.9252M49.6053 76.5302L51.6805 75.9252M49.6053 76.5302L51.3692 79.7568M51.6805 75.9252L54.4819 78.8493M54.4819 78.8493L57.2833 81.7734L53.1331 82.9834L51.3692 79.7568M54.4819 78.8493L51.3692 79.7568M56.2465 66.4471C60.677 69.6065 68.3736 74.1909 63.7162 67.2537M22.2136 59.5906C21.4833 60.3854 20.5113 61.6885 19.7444 63.2205M18.8934 70.077C18.4436 68.9113 18.4088 67.6675 18.6272 66.4471M18.8934 70.077C18.042 70.7058 16.8619 72.0647 16.0615 74.1102M15.5732 82.5801C14.8147 79.0584 15.2363 76.2193 16.0615 74.1102M18.6272 66.4471L12.4605 70.077M18.6272 66.4471C18.8278 65.3257 19.2421 64.224 19.7444 63.2205M16.0615 74.1102L17.8558 75.9252M23.6662 67.2537L41.3048 68.0604M20.761 52.7341L19.7444 63.2205" stroke="#563B00" stroke-width="0.67" stroke-linecap="round"/>
</g>
<defs>
<filter id="filter0_d_328_1063" x="7.04785" y="2.5332" width="63.084" height="45.3034" filterUnits="userSpaceOnUse" color-interpolation-filters="sRGB">
<feFlood flood-opacity="0" result="BackgroundImageFix"/>
<feColorMatrix in="SourceAlpha" type="matrix" values="0 0 0 0 0 0 0 0 0 0 0 0 0 0 0 0 0 0 127 0" result="hardAlpha"/>
<feOffset dy="0.666667"/>
<feComposite in2="hardAlpha" operator="out"/>
<feColorMatrix type="matrix" values="0 0 0 0 0.337255 0 0 0 0 0.231373 0 0 0 0 0 0 0 0 1 0"/>
<feBlend mode="normal" in2="BackgroundImageFix" result="effect1_dropShadow_328_1063"/>
<feBlend mode="normal" in="SourceGraphic" in2="effect1_dropShadow_328_1063" result="shape"/>
</filter>
<clipPath id="clip0_328_1063">
<path d="M0 0.5H80V80.5H6C2.68629 80.5 0 77.8137 0 74.5V0.5Z" fill="white"/>
</clipPath>
</defs>
</svg>
