<svg width="80" height="81" viewBox="0 0 80 81" fill="none" xmlns="http://www.w3.org/2000/svg">
<g clip-path="url(#clip0_328_1020)">
<rect x="33.0039" y="43" width="15" height="10" fill="#FFD998"/>
<path d="M13.6873 49.6578C15.6639 43.2524 25.053 41.8883 29.5005 42.0069L34.6893 42.5407C35.0846 47.5227 38.3955 49.6578 41.1134 49.6578C44.6713 48.8037 46.3844 45.3875 46.7962 42.5407H51.2437C52.4297 44.1065 53.8792 51.2591 54.4557 52.8605C56.8277 53.4299 58.3574 51.696 58.8515 50.6285C75.2577 75.5383 59.6445 83.1675 49.7612 83.9978C44.4243 91.1149 41.937 106.298 41.3604 113H10.4752C6.91728 98.1964 10.64 86.2244 12.9461 82.0889C5.86888 79.5596 11.5775 64.7749 12.4519 63.3582C13.4402 61.7569 11.2165 57.6645 13.6873 49.6578Z" fill="#FF9429"/>
<path d="M12.9461 82.0889C5.86888 79.5596 11.5775 64.7749 12.4519 63.3582C13.4402 61.7569 11.2165 57.6645 13.6873 49.6578C15.6639 43.2524 25.053 41.8883 29.5005 42.0069L34.6893 42.5407C35.0846 47.5227 38.3955 49.6578 41.1134 49.6578C44.6713 48.8037 46.3844 45.3875 46.7962 42.5407H51.2437C52.4297 44.1065 53.8792 51.2591 54.4558 52.8605M12.9461 82.0889C13.8687 82.4187 15.0088 82.5401 16.4052 82.3965C20.1536 81.6178 27.5992 76.3958 30.8565 61.9348M12.9461 82.0889C10.64 86.2244 6.91728 98.1964 10.4752 113H41.3604C41.937 106.298 44.4243 91.1149 49.7612 83.9978M49.7612 83.9978C59.6445 83.1675 75.2577 75.5383 58.8515 50.6285C58.3574 51.696 56.8277 53.4299 54.4558 52.8605M49.7612 83.9978C56.0865 74.7456 55.5264 59.3845 54.4558 52.8605M24.0648 53.2163C25.5107 50.9256 31.4772 51.4371 31.9714 55.1735C31.7001 57.6243 31.3209 59.8734 30.8565 61.9348M24.0648 53.2163C22.8294 55.1735 22.3293 62.4686 30.8565 61.9348M24.0648 53.2163C22.6646 55.4108 19.7161 60.5114 19.1231 63.3582" stroke="#563B00" stroke-width="0.666667"/>
<path d="M24.5303 16.0335C25.0456 14.8752 25.9794 14.096 27.0206 13.4221C27.1279 13.3484 27.1923 13.2746 27.2245 13.1588C27.4821 12.3796 27.5036 11.5688 27.5573 10.7685C27.6217 9.68388 27.4929 8.62034 27.2675 7.5568C27.246 7.4515 27.2031 7.39885 27.0957 7.35673C26.0545 6.97765 25.6359 6.1563 25.4642 5.14541C25.3998 4.77685 25.3783 4.4083 25.4642 4.03974C25.6896 2.99726 26.6878 2.42864 27.729 2.72348C28.4267 2.93408 28.9312 3.36582 29.3069 3.9555C29.5108 4.29247 29.7041 4.62943 29.8114 5.01905C29.9724 5.65085 29.8329 6.18789 29.3928 6.67227C29.0063 7.08295 28.9634 7.01977 29.3176 7.56733C29.9939 8.63087 30.917 9.47328 31.9796 10.1683C32.3338 10.3999 32.7095 10.6105 33.0638 10.8317C33.1496 10.8843 33.2355 10.8843 33.3428 10.8527C34.4377 10.6 35.554 10.4105 36.6811 10.3473C37.1426 10.3262 37.6042 10.242 38.0765 10.263C38.1623 10.263 38.1838 10.242 38.2053 10.1472C38.3555 9.46275 38.4307 8.76776 38.3985 8.06225C38.3878 7.83058 38.42 7.58839 38.3663 7.3462C38.3448 7.26196 38.3126 7.20931 38.2375 7.17772C37.3036 6.70386 36.7777 5.94569 36.6059 4.94533C36.3805 3.66066 36.6381 2.47076 37.4646 1.42828C37.9155 0.859653 38.5273 0.533219 39.2679 0.512159C39.8154 0.491099 40.3735 0.470039 40.9102 0.701701C41.7689 1.08078 42.2627 1.76524 42.5525 2.58659C42.9389 3.68172 42.9926 4.78738 42.4666 5.85092C42.1768 6.43008 41.7475 6.8934 41.1464 7.17772C41.0605 7.21984 41.0175 7.26196 41.0068 7.35673C40.9531 7.96748 40.9424 8.56769 41.0068 9.17844C41.039 9.49434 41.0927 9.81024 41.1571 10.1261C41.1786 10.2209 41.1893 10.2525 41.2966 10.2525C42.9067 10.3052 44.4953 10.4736 46.0517 10.8633C46.1376 10.8843 46.2235 10.8948 46.3093 10.8422C47.2969 10.2314 48.2951 9.61017 49.1002 8.76776C49.4973 8.34656 49.8408 7.88323 50.1521 7.40938C50.3023 7.17772 50.2809 6.98817 50.0877 6.77757C49.8193 6.49326 49.5939 6.18789 49.5295 5.77721C49.4866 5.46131 49.4973 5.16647 49.6046 4.87162C49.9159 4.00815 50.3667 3.26052 51.2469 2.84984C51.9661 2.52341 52.6638 2.53394 53.2864 3.04992C53.6406 3.34476 53.866 3.7449 53.8982 4.1977C53.9841 5.14541 53.8016 6.04047 53.1254 6.7881C52.9107 7.0303 52.6423 7.19878 52.3418 7.30408C52.1593 7.36726 52.0949 7.4515 52.052 7.64104C51.8373 8.66246 51.7299 9.69441 51.7836 10.7369C51.8266 11.5372 51.8802 12.348 52.1056 13.1272C52.1486 13.2641 52.213 13.3589 52.331 13.4326C53.1361 13.9591 53.8875 14.5488 54.4242 15.3596C54.5637 15.5702 54.6818 15.8019 54.832 16.0441C55.1111 15.6966 55.3795 15.3491 55.6478 15.0016C56.1845 14.2961 56.6353 13.5274 57.011 12.7271C57.0647 12.6218 57.0647 12.5586 56.9788 12.4638C56.5709 12.0321 56.3777 11.4951 56.2918 10.9264C56.1094 9.66282 56.6568 8.60981 57.333 7.60945C57.6443 7.15666 57.9663 6.70386 58.385 6.32478C59.1256 5.67191 59.9736 5.39813 60.9396 5.60873C61.7232 5.77721 62.2706 6.25107 62.496 7.00924C62.6248 7.4515 62.6141 7.93588 62.5819 8.39921C62.5175 9.28374 62.2491 10.1156 61.8091 10.8738C61.1865 11.9584 60.3385 12.8008 59.0719 13.1588C58.9646 13.1904 58.9431 13.2431 58.9216 13.3062C58.664 14.0118 58.4708 14.7383 58.3742 15.486C58.2454 16.5074 58.4494 17.4762 58.7714 18.4344C58.7928 18.5081 58.825 18.5818 58.868 18.645C59.0719 19.0136 59.2115 19.0662 59.5979 18.8767C60.1882 18.5818 60.7035 18.1922 61.208 17.7815C61.7339 17.3393 62.2491 16.8865 62.7322 16.3916C63.8592 15.2227 64.8467 13.9486 65.6732 12.5586C65.7269 12.4744 65.7591 12.4322 65.641 12.3585C65.3834 12.19 65.2761 11.7583 65.3942 11.3898C65.5659 10.8422 65.9738 10.4736 66.4031 10.1367C67.4765 9.3048 68.6787 8.73617 70.0097 8.4308C70.3747 8.34656 70.7182 8.3255 71.0509 8.58875C71.3515 8.82041 71.3622 9.0942 71.3193 9.4101C71.2334 9.94714 70.9328 10.3894 70.6108 10.8001C70.1707 11.3687 69.6448 11.8531 69.0222 12.2427C68.3997 12.6323 67.9274 13.1693 67.498 13.759C66.6715 14.8752 65.8235 15.9704 64.9755 17.0655C64.0417 18.2765 63.2259 19.5717 62.4424 20.8774C61.4656 22.4885 60.5103 24.1207 59.7267 25.8265C59.0397 27.3323 58.385 28.8592 58.0307 30.4808C57.8161 31.4496 57.698 32.4184 57.7839 33.4082C57.8375 34.0084 57.9341 34.5876 58.1381 35.1457C58.1917 35.2826 58.2239 35.3563 58.4172 35.3036C59.029 35.1562 59.6301 35.5985 59.7374 36.1987C59.8555 36.8094 59.6301 37.3465 59.3295 37.8414C58.6533 38.9471 57.698 39.7895 56.6353 40.516C54.4027 42.0324 51.9124 43.0222 49.3148 43.7488C47.9194 44.1384 46.5026 44.4438 45.0857 44.6965C44.2162 44.8544 43.3253 44.9282 42.4452 45.0545C41.0175 45.2546 39.5899 45.1703 38.1731 45.1809C37.6793 45.1809 37.1856 45.0966 36.6918 45.0335C36.1444 44.9703 35.5969 44.8755 35.0495 44.8123C34.223 44.707 33.418 44.5491 32.6022 44.3701C31.1102 44.0436 29.6289 43.6961 28.1906 43.1802C26.1404 42.443 24.1546 41.5796 22.3943 40.2949C21.4604 39.6104 20.6232 38.8312 20.0114 37.8414C19.786 37.4728 19.6035 37.0727 19.5713 36.641C19.5069 35.8301 20.0543 35.1036 20.9989 35.3142C21.1384 35.3458 21.1492 35.272 21.1814 35.1983C21.3531 34.8298 21.4282 34.4191 21.4926 34.0295C21.6214 33.2819 21.6214 32.5342 21.5463 31.7866C21.4068 30.5335 21.0526 29.3225 20.6125 28.1432C19.6142 25.5001 18.2295 23.0466 16.7805 20.6352C15.793 18.9925 14.6981 17.434 13.5066 15.9282C12.8626 15.1174 12.2722 14.275 11.6497 13.4537C11.2847 12.9587 10.8339 12.5586 10.3079 12.2111C9.4063 11.653 8.6764 10.9264 8.20411 9.97873C8.0753 9.726 8.00016 9.47328 8.00016 9.18897C7.98943 8.71511 8.50466 8.29391 8.97695 8.36762C10.1147 8.56769 11.1774 8.97837 12.1542 9.59964C12.7553 9.97873 13.3456 10.3789 13.7535 10.9791C14.0433 11.4003 14.0648 11.8636 13.8179 12.2322C13.8072 12.2532 13.7965 12.2848 13.775 12.2954C13.453 12.4322 13.6676 12.6007 13.7643 12.7481C14.6874 14.2329 15.75 15.6123 17.0273 16.8128C17.8324 17.5815 18.6589 18.3291 19.6679 18.8451C20.1402 19.0873 20.3012 19.0451 20.5051 18.5397C20.752 17.95 20.8701 17.3287 20.9559 16.6864C21.0955 15.5281 20.7949 14.4435 20.4193 13.3694C20.3656 13.2325 20.3012 13.1799 20.1616 13.1378C18.734 12.6744 17.8431 11.6635 17.2528 10.3578C17.0381 9.87342 16.8556 9.37851 16.7912 8.84147C16.7161 8.26232 16.5873 7.68316 16.7697 7.09348C17.0166 6.27213 17.7895 5.5982 18.7018 5.54555C19.8826 5.46131 20.7413 5.98781 21.439 6.85128C22.0186 7.57786 22.566 8.3255 22.8558 9.21003C23.1993 10.2314 23.1671 11.2213 22.5875 12.169C22.5768 12.19 22.566 12.2111 22.5446 12.2322C22.1903 12.4849 22.3191 12.7587 22.4694 13.064C22.9632 14.0539 23.6072 14.9489 24.2942 15.8124C24.3693 15.8861 24.4015 16.0019 24.5303 16.0335ZM50.4526 27.1533C50.4312 27.0902 50.4312 27.0796 50.4312 27.0796C50.4419 27.0796 50.4419 27.0796 50.4526 27.0796C50.4848 27.0796 50.517 27.0691 50.5492 27.0691C54.0055 25.9845 57.2686 24.4997 60.2526 22.4569C60.4459 22.32 60.6069 22.1726 60.7357 21.9725C62.6892 19.003 64.7931 16.1494 67.2619 13.5695C67.6483 13.1693 68.0025 12.7376 68.4641 12.4007C69.0007 12.0005 69.516 11.5793 69.9668 11.1054C70.3425 10.7158 70.6645 10.2841 70.847 9.77865C71.0617 9.15738 70.7611 8.75723 70.0956 8.76776C70.0205 8.76776 69.9346 8.77829 69.8595 8.78882C68.6895 8.96784 67.6376 9.43116 66.7037 10.1367C66.3495 10.3999 66.0167 10.6948 65.8128 11.0949C65.5981 11.5161 65.7269 11.99 66.1026 12.0953C66.2958 12.1479 66.2636 12.2322 66.1992 12.3585C65.7484 13.1272 65.319 13.9065 64.8253 14.6541C63.7519 16.2652 62.496 17.6973 60.8752 18.7924C60.4459 19.0873 59.9843 19.34 59.4798 19.4874C59.2651 19.5506 59.0505 19.519 58.9002 19.3611C58.6533 19.0873 58.4386 18.7819 58.2991 18.4239C58.181 18.129 58.1703 17.8131 58.1273 17.4972C58.0307 16.7706 58.0093 16.0546 58.0844 15.328C58.1595 14.5383 58.3742 13.7801 58.664 13.043C58.7714 12.7587 58.8787 12.4954 59.2759 12.5586C59.3295 12.5691 59.3939 12.5165 59.4583 12.4954C60.9396 11.8531 61.7554 10.6842 62.1203 9.18897C62.2706 8.57822 62.3458 7.94641 62.2277 7.31461C62.1096 6.71439 61.691 6.051 60.843 5.97728C60.4351 5.94569 60.038 6.00888 59.6516 6.12471C58.7928 6.38796 58.2025 7.00924 57.7087 7.69369C57.1613 8.4308 56.8178 9.29427 56.6997 10.2104C56.5817 11.1265 56.8285 11.9057 57.7409 12.348C57.8805 12.4217 57.8483 12.4849 57.8053 12.5902C57.537 13.1588 57.2901 13.738 56.9681 14.275C55.8088 16.202 54.2846 17.7921 52.4813 19.1399C51.7192 19.7085 50.9464 20.2772 50.0447 20.6352C48.6815 21.1828 47.3935 21.1196 46.1913 20.2456C45.3755 19.6559 44.6885 18.9504 44.1304 18.129C43.0033 16.4653 42.1446 14.6752 41.5113 12.7797C41.1034 11.5477 40.8351 10.2841 40.7277 8.97837C40.6848 8.42027 40.6955 7.8727 40.6848 7.31461C40.6741 7.10401 40.7492 6.99871 40.9317 6.91446C41.4791 6.65121 41.9085 6.2616 42.1446 5.71403C42.692 4.41883 42.5096 3.18681 41.7475 2.02849C41.2859 1.34404 40.6419 0.901773 39.7832 0.859653C38.8708 0.817532 38.1838 1.2598 37.6686 1.97584C37.0997 2.75507 36.885 3.61854 36.9494 4.56625C37.0138 5.55608 37.4217 6.34584 38.3233 6.83022C38.5917 6.97764 38.7098 7.11454 38.7098 7.44097C38.7312 8.68352 38.6024 9.90501 38.3341 11.1054C37.9262 12.9166 37.25 14.633 36.3698 16.2652C35.6291 17.6552 34.7812 18.9609 33.536 19.9823C32.7417 20.6352 31.8616 21.0248 30.8311 20.9722C30.0153 20.93 29.264 20.6668 28.5663 20.2561C27.4392 19.5927 26.398 18.8135 25.4427 17.9184C23.8004 16.4021 22.4694 14.6857 21.6 12.6428C21.5248 12.4744 21.5248 12.4007 21.7073 12.3059C22.2011 12.0426 22.5338 11.653 22.6519 11.0949C22.7378 10.6632 22.7163 10.242 22.609 9.8313C22.3728 8.92572 22.0401 8.06225 21.3853 7.33567C20.7091 6.5775 19.9362 6.00887 18.8414 5.97728C18.1651 5.95622 17.6177 6.23001 17.3279 6.81969C17.1669 7.14613 17.081 7.50415 17.1025 7.8727C17.1347 8.29391 17.1454 8.70458 17.242 9.11526C17.5855 10.6632 18.4228 11.8426 19.9148 12.506C20.0114 12.5481 20.108 12.5691 20.2153 12.5691C20.3334 12.5691 20.4837 12.5586 20.5588 12.7271C20.9989 13.7064 21.2672 14.7173 21.3102 15.7913C21.3316 16.3705 21.278 16.9391 21.235 17.5183C21.1814 18.1817 20.9774 18.7503 20.5373 19.2558C20.3226 19.4979 20.1616 19.5717 19.8396 19.4769C19.3351 19.3295 18.8736 19.0767 18.4442 18.7819C17.0488 17.8131 15.9003 16.6127 14.9235 15.2438C14.258 14.3066 13.6999 13.3273 13.131 12.3375C13.0773 12.2427 13.0451 12.1585 13.2061 12.1163C13.4637 12.0532 13.5818 11.8636 13.614 11.6214C13.6676 11.1792 13.4208 10.8633 13.1417 10.5789C12.4869 9.93661 11.7034 9.47328 10.8446 9.14685C10.3831 8.96784 9.90006 8.84147 9.4063 8.77829C8.73007 8.70458 8.46172 8.90466 8.42952 9.45222C8.41879 9.65229 8.49392 9.8313 8.57979 10.0103C8.92328 10.7158 9.47071 11.2529 10.0611 11.7583C10.469 12.1058 10.9198 12.4007 11.3062 12.7797C11.9932 13.4642 12.6694 14.1592 13.3027 14.8858C15.2026 17.1181 16.9737 19.4348 18.5516 21.8883C18.6804 22.0884 18.8199 22.2674 19.0238 22.4148C20.752 23.6047 22.5875 24.605 24.5089 25.458C25.8613 26.0582 27.2567 26.5952 28.6736 27.027C28.7487 27.048 28.8453 27.0375 28.8775 27.1639C25.6144 26.4899 22.5446 25.3632 19.6786 23.71C19.6679 23.7626 19.6786 23.7837 19.6894 23.7942C20.6232 25.5949 21.6 27.3745 22.1045 29.3541C22.2869 30.0596 22.4372 30.7757 22.5124 31.5023C22.6626 33.145 22.4158 34.7455 21.8683 36.2935C21.7932 36.5251 21.8147 36.7041 21.9864 36.8937C22.3406 37.2833 22.7056 37.6624 23.1242 37.9993C24.5411 39.1682 26.0975 40.1159 27.7398 40.9478C28.1584 41.1584 28.5555 41.39 29.0063 41.5375C29.425 41.6744 29.8329 41.8534 30.2515 42.0218C30.1656 42.0113 30.0797 41.9902 30.0046 41.9692C27.4714 41.2005 25.1207 40.0738 23.0598 38.4205C22.6197 38.0625 22.1903 37.694 21.8254 37.2517C21.6966 37.0938 21.6 36.9253 21.6214 36.7147C21.6536 36.4409 21.5463 36.2829 21.2565 36.2092C20.9667 36.1355 20.7842 36.2198 20.6769 36.483C20.5481 36.8305 20.6554 37.1569 20.8271 37.4307C21.074 37.8309 21.3424 38.2205 21.6858 38.5469C22.8451 39.6526 24.1439 40.5687 25.5822 41.2742C26.9132 41.9271 28.3194 42.4115 29.7255 42.8853C31.3141 43.4223 32.9349 43.8857 34.5987 44.191C35.3286 44.3279 36.0585 44.4122 36.7884 44.528C37.7008 44.6649 38.6239 44.7702 39.547 44.7913C40.5345 44.8123 41.5113 44.686 42.4774 44.5491C43.218 44.4543 43.9586 44.349 44.6885 44.2121C46.4274 43.8857 48.1341 43.4013 49.8086 42.8327C51.5045 42.2535 53.2005 41.6743 54.7354 40.7582C56.1523 39.9158 57.494 38.9681 58.4386 37.5887C58.6962 37.2201 58.8572 36.841 58.6533 36.3988C58.5674 36.1987 58.3742 36.125 58.1166 36.1882C57.9127 36.2408 57.6765 36.3461 57.7195 36.5672C57.7946 36.9463 57.6014 37.1885 57.376 37.4202C56.5602 38.2731 55.6263 38.9786 54.6174 39.6104C53.4581 40.337 52.2344 40.9478 50.9464 41.4216C50.3345 41.6428 49.7335 41.8744 49.0894 42.0218C49.7871 41.8112 50.4634 41.5269 51.1181 41.2005C52.0949 40.7266 53.061 40.2107 53.9733 39.6104C55.197 38.8102 56.3992 37.9888 57.3652 36.8726C57.5155 36.6936 57.537 36.5251 57.4726 36.3145C57.1613 35.3563 56.8929 34.3875 56.8178 33.3766C56.6783 31.5023 57.0218 29.7016 57.6658 27.9431C58.1703 26.5636 58.868 25.2684 59.5442 23.9627C59.5764 23.889 59.6515 23.8258 59.6086 23.6889C56.7534 25.3737 53.6943 26.5005 50.4526 27.1533ZM30.9599 20.6457C31.3141 20.6457 31.6898 20.6457 32.0011 20.4772C32.5485 20.1719 33.0745 19.8244 33.5575 19.4032C34.5987 18.4976 35.3286 17.3709 35.9726 16.181C36.8635 14.5488 37.529 12.8324 38.0013 11.0423C38.055 10.8527 38.0013 10.8211 37.8296 10.8422C37.2392 10.8948 36.6489 10.958 36.0478 11.0212C34.6094 11.1792 33.1926 11.4635 31.8079 11.8426C29.9402 12.3585 28.1691 13.0746 26.6127 14.2434C25.915 14.7699 25.2602 15.3491 24.7879 16.0967C24.6913 16.2547 24.7128 16.3494 24.8201 16.4863C25.8506 17.6552 26.9776 18.7082 28.212 19.6664C29.0278 20.2772 29.9187 20.6247 30.9599 20.6457ZM48.1341 20.6563C49.1324 20.6141 49.8515 20.4772 50.4848 20.0666C51.1933 19.6138 51.848 19.0767 52.4706 18.5081C53.1683 17.8763 53.8338 17.2024 54.4671 16.4969C54.5959 16.3494 54.671 16.2336 54.5208 16.0335C54.3275 15.7703 54.1343 15.507 53.9089 15.2754C52.7067 14.0223 51.2362 13.1799 49.6261 12.5375C47.2325 11.5793 44.7315 11.137 42.1768 10.8843C41.9299 10.8633 41.683 10.8001 41.4254 10.8317C41.3181 10.8422 41.2537 10.8633 41.3181 10.9896C41.3396 11.0317 41.3396 11.0949 41.361 11.1476C41.8763 13.1167 42.6491 14.9805 43.6688 16.7496C44.388 17.9921 45.2574 19.0978 46.4596 19.9297C47.0392 20.3298 47.6081 20.73 48.1341 20.6563Z" fill="#563B00"/>
<g filter="url(#filter0_d_328_1020)">
<mask id="path-6-outside-1_328_1020" maskUnits="userSpaceOnUse" x="7.42871" y="-0.132812" width="64" height="46" fill="black">
<rect fill="white" x="7.42871" y="-0.132812" width="64" height="46"/>
<path d="M50.4528 27.153C53.6945 26.5002 56.7429 25.3735 59.6088 23.6992C59.6518 23.8361 59.5766 23.8992 59.5444 23.9729C58.8682 25.2787 58.1705 26.5739 57.666 27.9533C57.022 29.7119 56.6677 31.5125 56.818 33.3869C56.8932 34.3978 57.1615 35.3665 57.4728 36.3248C57.5372 36.5354 57.5157 36.7144 57.3654 36.8829C56.4101 37.9991 55.1972 38.8204 53.9735 39.6207C53.0612 40.2209 52.0951 40.7369 51.1183 41.2107C50.4636 41.5266 49.7873 41.811 49.0896 42.0321C49.7229 41.8847 50.3348 41.6635 50.9466 41.4319C52.2347 40.958 53.4583 40.3473 54.6176 39.6207C55.6158 38.9889 56.5604 38.2939 57.3762 37.4304C57.6016 37.1882 57.7841 36.9566 57.7197 36.5775C57.6767 36.3564 57.9129 36.2511 58.1168 36.1984C58.3744 36.1352 58.5569 36.2089 58.6535 36.409C58.8467 36.8513 58.6857 37.2304 58.4388 37.5989C57.4942 38.9784 56.1525 39.9261 54.7356 40.7685C53.19 41.6846 51.494 42.2637 49.8088 42.8429C48.1343 43.4221 46.4276 43.8959 44.6887 44.2223C43.9588 44.3592 43.2182 44.4645 42.4776 44.5593C41.5008 44.6857 40.524 44.8226 39.5472 44.8015C38.6241 44.7804 37.701 44.6857 36.7886 44.5383C36.0587 44.4224 35.3288 44.3382 34.5989 44.2013C32.9352 43.8959 31.3251 43.4326 29.7257 42.8956C28.3196 42.4217 26.9135 41.9373 25.5825 41.2844C24.1334 40.5789 22.8453 39.6628 21.6861 38.5571C21.3426 38.2307 21.0742 37.8411 20.8274 37.441C20.6556 37.1566 20.5483 36.8302 20.6771 36.4932C20.7844 36.23 20.9669 36.1458 21.2567 36.2195C21.5465 36.2932 21.6539 36.4511 21.6217 36.7249C21.6002 36.9355 21.6968 37.1145 21.8256 37.2619C22.1906 37.7042 22.6199 38.0728 23.06 38.4308C25.1209 40.0945 27.4716 41.2107 30.0048 41.9794C30.0799 42.0005 30.1658 42.0216 30.2517 42.0321C29.8331 41.8636 29.4252 41.6951 29.0066 41.5477C28.5557 41.4003 28.1586 41.1686 27.74 40.958C26.1084 40.1261 24.5413 39.1679 23.1244 38.0096C22.7165 37.6726 22.3408 37.2935 21.9866 36.9039C21.8149 36.7144 21.7934 36.5248 21.8685 36.3037C22.416 34.7453 22.6628 33.1552 22.5126 31.5125C22.4482 30.7859 22.2872 30.0699 22.1047 29.3644C21.6002 27.3847 20.6234 25.6051 19.6896 23.8045C19.6788 23.7834 19.6681 23.7729 19.6788 23.7202C22.5448 25.3629 25.6039 26.5002 28.8778 27.1741C28.8456 27.0372 28.7382 27.0583 28.6738 27.0372C27.2462 26.6055 25.8615 26.0684 24.5091 25.4682C22.5877 24.6153 20.7522 23.6149 19.0241 22.425C18.8201 22.2776 18.6806 22.0986 18.5518 21.8985C16.9632 19.445 15.1921 17.1178 13.3029 14.896C12.6803 14.1589 11.9934 13.4639 11.3064 12.79C10.9307 12.4109 10.4692 12.116 10.0613 11.7686C9.47092 11.2631 8.92349 10.7261 8.58001 10.0206C8.49414 9.84155 8.419 9.652 8.42974 9.46246C8.46194 8.9149 8.73028 8.71482 9.40652 8.78854C9.90028 8.84119 10.3833 8.97808 10.8449 9.15709C11.7036 9.48352 12.4871 9.94685 13.1419 10.5892C13.4317 10.8735 13.6786 11.1894 13.6142 11.6317C13.582 11.8844 13.4747 12.0739 13.2063 12.1266C13.0453 12.1687 13.0775 12.2529 13.1312 12.3477C13.7001 13.3375 14.2582 14.3274 14.9237 15.254C15.9005 16.6229 17.049 17.8339 18.4444 18.7921C18.8738 19.087 19.3353 19.3397 19.8398 19.4871C20.1619 19.5819 20.3229 19.5082 20.5375 19.266C20.9776 18.7605 21.1816 18.1919 21.2352 17.5285C21.2889 16.9494 21.3318 16.3807 21.3104 15.8016C21.2674 14.738 20.9991 13.7166 20.559 12.7373C20.4839 12.5688 20.3336 12.5794 20.2155 12.5794C20.1082 12.5794 20.0116 12.5583 19.915 12.5162C18.4122 11.8423 17.5857 10.6734 17.2422 9.1255C17.1456 8.71482 17.1349 8.29362 17.1027 7.88295C17.0812 7.51439 17.1564 7.15637 17.3281 6.82994C17.6287 6.22972 18.1761 5.96647 18.8416 5.98753C19.9257 6.01912 20.6985 6.58774 21.3855 7.34591C22.0295 8.07249 22.3623 8.93596 22.6092 9.84155C22.7165 10.2522 22.738 10.684 22.6521 11.1052C22.5448 11.6633 22.212 12.0634 21.7075 12.3161C21.5251 12.4109 21.5251 12.4846 21.6002 12.6531C22.4696 14.7065 23.8006 16.4229 25.4429 17.9287C26.3982 18.8132 27.4394 19.5924 28.5665 20.2664C29.2642 20.677 30.0155 20.9508 30.8313 20.9824C31.8725 21.035 32.7527 20.6349 33.5363 19.9926C34.7814 18.9712 35.6294 17.6654 36.37 16.2754C37.2502 14.6327 37.9264 12.9163 38.3343 11.1157C38.6026 9.90473 38.7314 8.68323 38.71 7.45121C38.6992 7.13531 38.5919 6.98789 38.3236 6.84047C37.4219 6.35608 37.014 5.55579 36.9496 4.57649C36.8852 3.62878 37.1106 2.75478 37.6688 1.98609C38.184 1.28057 38.8603 0.827775 39.7834 0.869895C40.6421 0.912015 41.2861 1.35428 41.7477 2.03874C42.5098 3.19705 42.703 4.42907 42.1448 5.72427C41.9087 6.28237 41.4793 6.67198 40.9319 6.92471C40.7494 7.00895 40.685 7.11425 40.685 7.32485C40.6957 7.88295 40.685 8.43051 40.7279 8.98861C40.8353 10.2838 41.1036 11.5474 41.5115 12.79C42.1448 14.6854 42.9928 16.4755 44.1306 18.1393C44.6887 18.9606 45.3757 19.6767 46.1915 20.2558C47.3937 21.1298 48.6925 21.193 50.0449 20.6454C50.9466 20.2874 51.7194 19.7188 52.4815 19.1502C54.2848 17.8023 55.8198 16.2017 56.9683 14.2853C57.2903 13.7482 57.5479 13.1691 57.8055 12.6004C57.8485 12.4951 57.8807 12.432 57.7411 12.3582C56.8288 11.916 56.5819 11.1367 56.6999 10.2206C56.818 9.30451 57.1615 8.45157 57.7089 7.70393C58.2027 7.03001 58.793 6.40873 59.6518 6.13495C60.0382 6.01912 60.4353 5.94541 60.8432 5.98753C61.6912 6.06124 62.1098 6.73516 62.2279 7.32485C62.346 7.95666 62.2708 8.58846 62.1205 9.19921C61.7663 10.6945 60.9398 11.8633 59.4585 12.5057C59.4049 12.5267 59.3297 12.5794 59.2761 12.5688C58.8789 12.5057 58.7823 12.7584 58.6642 13.0532C58.3744 13.7903 58.1597 14.5485 58.0846 15.3383C58.0095 16.0648 58.0309 16.7809 58.1275 17.5075C58.1705 17.8234 58.1812 18.1287 58.2993 18.4341C58.4388 18.7816 58.6535 19.087 58.9004 19.3713C59.0507 19.5398 59.2653 19.5608 59.48 19.4977C59.9952 19.3502 60.4461 19.0975 60.8754 18.8027C62.4962 17.697 63.7521 16.2649 64.8255 14.6643C65.3192 13.9167 65.7486 13.1375 66.1994 12.3688C66.2746 12.2424 66.3068 12.1582 66.1028 12.1055C65.7379 12.0002 65.6091 11.5264 65.813 11.1052C66.0169 10.705 66.3497 10.4102 66.7039 10.1469C67.6378 9.4414 68.6897 8.97808 69.8597 8.79907C69.9348 8.78854 70.0207 8.77801 70.0958 8.77801C70.7613 8.76748 71.0726 9.16762 70.8472 9.7889C70.6647 10.3049 70.3427 10.7261 69.967 11.1157C69.5055 11.6001 69.001 12.0213 68.4643 12.4109C68.0027 12.7479 67.6485 13.1796 67.2621 13.5797C64.7933 16.1596 62.6894 19.0238 60.7359 21.9828C60.6071 22.1828 60.4461 22.3303 60.2528 22.4671C57.2688 24.51 54.0057 25.9947 50.5494 27.0793C50.5172 27.0899 50.485 27.0899 50.4528 27.0899C50.4421 27.0899 50.4421 27.0899 50.4314 27.0899C50.4314 27.0793 50.4314 27.0899 50.4528 27.153ZM30.402 42.0847C30.3805 42.0742 30.3698 42.0637 30.3483 42.0637C30.3268 42.0742 30.3268 42.0847 30.3483 42.0847C30.3698 42.0953 30.3912 42.0847 30.402 42.0847ZM48.9823 42.0847C48.9823 42.0742 48.9823 42.0637 48.9823 42.0637C48.9716 42.0637 48.9501 42.0637 48.9394 42.0637C48.9179 42.0637 48.9179 42.0742 48.9394 42.0847C48.9501 42.0953 48.9716 42.0847 48.9823 42.0847Z"/>
</mask>
<path d="M50.4528 27.153C53.6945 26.5002 56.7429 25.3735 59.6088 23.6992C59.6518 23.8361 59.5766 23.8992 59.5444 23.9729C58.8682 25.2787 58.1705 26.5739 57.666 27.9533C57.022 29.7119 56.6677 31.5125 56.818 33.3869C56.8932 34.3978 57.1615 35.3665 57.4728 36.3248C57.5372 36.5354 57.5157 36.7144 57.3654 36.8829C56.4101 37.9991 55.1972 38.8204 53.9735 39.6207C53.0612 40.2209 52.0951 40.7369 51.1183 41.2107C50.4636 41.5266 49.7873 41.811 49.0896 42.0321C49.7229 41.8847 50.3348 41.6635 50.9466 41.4319C52.2347 40.958 53.4583 40.3473 54.6176 39.6207C55.6158 38.9889 56.5604 38.2939 57.3762 37.4304C57.6016 37.1882 57.7841 36.9566 57.7197 36.5775C57.6767 36.3564 57.9129 36.2511 58.1168 36.1984C58.3744 36.1352 58.5569 36.2089 58.6535 36.409C58.8467 36.8513 58.6857 37.2304 58.4388 37.5989C57.4942 38.9784 56.1525 39.9261 54.7356 40.7685C53.19 41.6846 51.494 42.2637 49.8088 42.8429C48.1343 43.4221 46.4276 43.8959 44.6887 44.2223C43.9588 44.3592 43.2182 44.4645 42.4776 44.5593C41.5008 44.6857 40.524 44.8226 39.5472 44.8015C38.6241 44.7804 37.701 44.6857 36.7886 44.5383C36.0587 44.4224 35.3288 44.3382 34.5989 44.2013C32.9352 43.8959 31.3251 43.4326 29.7257 42.8956C28.3196 42.4217 26.9135 41.9373 25.5825 41.2844C24.1334 40.5789 22.8453 39.6628 21.6861 38.5571C21.3426 38.2307 21.0742 37.8411 20.8274 37.441C20.6556 37.1566 20.5483 36.8302 20.6771 36.4932C20.7844 36.23 20.9669 36.1458 21.2567 36.2195C21.5465 36.2932 21.6539 36.4511 21.6217 36.7249C21.6002 36.9355 21.6968 37.1145 21.8256 37.2619C22.1906 37.7042 22.6199 38.0728 23.06 38.4308C25.1209 40.0945 27.4716 41.2107 30.0048 41.9794C30.0799 42.0005 30.1658 42.0216 30.2517 42.0321C29.8331 41.8636 29.4252 41.6951 29.0066 41.5477C28.5557 41.4003 28.1586 41.1686 27.74 40.958C26.1084 40.1261 24.5413 39.1679 23.1244 38.0096C22.7165 37.6726 22.3408 37.2935 21.9866 36.9039C21.8149 36.7144 21.7934 36.5248 21.8685 36.3037C22.416 34.7453 22.6628 33.1552 22.5126 31.5125C22.4482 30.7859 22.2872 30.0699 22.1047 29.3644C21.6002 27.3847 20.6234 25.6051 19.6896 23.8045C19.6788 23.7834 19.6681 23.7729 19.6788 23.7202C22.5448 25.3629 25.6039 26.5002 28.8778 27.1741C28.8456 27.0372 28.7382 27.0583 28.6738 27.0372C27.2462 26.6055 25.8615 26.0684 24.5091 25.4682C22.5877 24.6153 20.7522 23.6149 19.0241 22.425C18.8201 22.2776 18.6806 22.0986 18.5518 21.8985C16.9632 19.445 15.1921 17.1178 13.3029 14.896C12.6803 14.1589 11.9934 13.4639 11.3064 12.79C10.9307 12.4109 10.4692 12.116 10.0613 11.7686C9.47092 11.2631 8.92349 10.7261 8.58001 10.0206C8.49414 9.84155 8.419 9.652 8.42974 9.46246C8.46194 8.9149 8.73028 8.71482 9.40652 8.78854C9.90028 8.84119 10.3833 8.97808 10.8449 9.15709C11.7036 9.48352 12.4871 9.94685 13.1419 10.5892C13.4317 10.8735 13.6786 11.1894 13.6142 11.6317C13.582 11.8844 13.4747 12.0739 13.2063 12.1266C13.0453 12.1687 13.0775 12.2529 13.1312 12.3477C13.7001 13.3375 14.2582 14.3274 14.9237 15.254C15.9005 16.6229 17.049 17.8339 18.4444 18.7921C18.8738 19.087 19.3353 19.3397 19.8398 19.4871C20.1619 19.5819 20.3229 19.5082 20.5375 19.266C20.9776 18.7605 21.1816 18.1919 21.2352 17.5285C21.2889 16.9494 21.3318 16.3807 21.3104 15.8016C21.2674 14.738 20.9991 13.7166 20.559 12.7373C20.4839 12.5688 20.3336 12.5794 20.2155 12.5794C20.1082 12.5794 20.0116 12.5583 19.915 12.5162C18.4122 11.8423 17.5857 10.6734 17.2422 9.1255C17.1456 8.71482 17.1349 8.29362 17.1027 7.88295C17.0812 7.51439 17.1564 7.15637 17.3281 6.82994C17.6287 6.22972 18.1761 5.96647 18.8416 5.98753C19.9257 6.01912 20.6985 6.58774 21.3855 7.34591C22.0295 8.07249 22.3623 8.93596 22.6092 9.84155C22.7165 10.2522 22.738 10.684 22.6521 11.1052C22.5448 11.6633 22.212 12.0634 21.7075 12.3161C21.5251 12.4109 21.5251 12.4846 21.6002 12.6531C22.4696 14.7065 23.8006 16.4229 25.4429 17.9287C26.3982 18.8132 27.4394 19.5924 28.5665 20.2664C29.2642 20.677 30.0155 20.9508 30.8313 20.9824C31.8725 21.035 32.7527 20.6349 33.5363 19.9926C34.7814 18.9712 35.6294 17.6654 36.37 16.2754C37.2502 14.6327 37.9264 12.9163 38.3343 11.1157C38.6026 9.90473 38.7314 8.68323 38.71 7.45121C38.6992 7.13531 38.5919 6.98789 38.3236 6.84047C37.4219 6.35608 37.014 5.55579 36.9496 4.57649C36.8852 3.62878 37.1106 2.75478 37.6688 1.98609C38.184 1.28057 38.8603 0.827775 39.7834 0.869895C40.6421 0.912015 41.2861 1.35428 41.7477 2.03874C42.5098 3.19705 42.703 4.42907 42.1448 5.72427C41.9087 6.28237 41.4793 6.67198 40.9319 6.92471C40.7494 7.00895 40.685 7.11425 40.685 7.32485C40.6957 7.88295 40.685 8.43051 40.7279 8.98861C40.8353 10.2838 41.1036 11.5474 41.5115 12.79C42.1448 14.6854 42.9928 16.4755 44.1306 18.1393C44.6887 18.9606 45.3757 19.6767 46.1915 20.2558C47.3937 21.1298 48.6925 21.193 50.0449 20.6454C50.9466 20.2874 51.7194 19.7188 52.4815 19.1502C54.2848 17.8023 55.8198 16.2017 56.9683 14.2853C57.2903 13.7482 57.5479 13.1691 57.8055 12.6004C57.8485 12.4951 57.8807 12.432 57.7411 12.3582C56.8288 11.916 56.5819 11.1367 56.6999 10.2206C56.818 9.30451 57.1615 8.45157 57.7089 7.70393C58.2027 7.03001 58.793 6.40873 59.6518 6.13495C60.0382 6.01912 60.4353 5.94541 60.8432 5.98753C61.6912 6.06124 62.1098 6.73516 62.2279 7.32485C62.346 7.95666 62.2708 8.58846 62.1205 9.19921C61.7663 10.6945 60.9398 11.8633 59.4585 12.5057C59.4049 12.5267 59.3297 12.5794 59.2761 12.5688C58.8789 12.5057 58.7823 12.7584 58.6642 13.0532C58.3744 13.7903 58.1597 14.5485 58.0846 15.3383C58.0095 16.0648 58.0309 16.7809 58.1275 17.5075C58.1705 17.8234 58.1812 18.1287 58.2993 18.4341C58.4388 18.7816 58.6535 19.087 58.9004 19.3713C59.0507 19.5398 59.2653 19.5608 59.48 19.4977C59.9952 19.3502 60.4461 19.0975 60.8754 18.8027C62.4962 17.697 63.7521 16.2649 64.8255 14.6643C65.3192 13.9167 65.7486 13.1375 66.1994 12.3688C66.2746 12.2424 66.3068 12.1582 66.1028 12.1055C65.7379 12.0002 65.6091 11.5264 65.813 11.1052C66.0169 10.705 66.3497 10.4102 66.7039 10.1469C67.6378 9.4414 68.6897 8.97808 69.8597 8.79907C69.9348 8.78854 70.0207 8.77801 70.0958 8.77801C70.7613 8.76748 71.0726 9.16762 70.8472 9.7889C70.6647 10.3049 70.3427 10.7261 69.967 11.1157C69.5055 11.6001 69.001 12.0213 68.4643 12.4109C68.0027 12.7479 67.6485 13.1796 67.2621 13.5797C64.7933 16.1596 62.6894 19.0238 60.7359 21.9828C60.6071 22.1828 60.4461 22.3303 60.2528 22.4671C57.2688 24.51 54.0057 25.9947 50.5494 27.0793C50.5172 27.0899 50.485 27.0899 50.4528 27.0899C50.4421 27.0899 50.4421 27.0899 50.4314 27.0899C50.4314 27.0793 50.4314 27.0899 50.4528 27.153ZM30.402 42.0847C30.3805 42.0742 30.3698 42.0637 30.3483 42.0637C30.3268 42.0742 30.3268 42.0847 30.3483 42.0847C30.3698 42.0953 30.3912 42.0847 30.402 42.0847ZM48.9823 42.0847C48.9823 42.0742 48.9823 42.0637 48.9823 42.0637C48.9716 42.0637 48.9501 42.0637 48.9394 42.0637C48.9179 42.0637 48.9179 42.0742 48.9394 42.0847C48.9501 42.0953 48.9716 42.0847 48.9823 42.0847Z" fill="#FFE52F"/>
<path d="M50.4528 27.153C53.6945 26.5002 56.7429 25.3735 59.6088 23.6992C59.6518 23.8361 59.5766 23.8992 59.5444 23.9729C58.8682 25.2787 58.1705 26.5739 57.666 27.9533C57.022 29.7119 56.6677 31.5125 56.818 33.3869C56.8932 34.3978 57.1615 35.3665 57.4728 36.3248C57.5372 36.5354 57.5157 36.7144 57.3654 36.8829C56.4101 37.9991 55.1972 38.8204 53.9735 39.6207C53.0612 40.2209 52.0951 40.7369 51.1183 41.2107C50.4636 41.5266 49.7873 41.811 49.0896 42.0321C49.7229 41.8847 50.3348 41.6635 50.9466 41.4319C52.2347 40.958 53.4583 40.3473 54.6176 39.6207C55.6158 38.9889 56.5604 38.2939 57.3762 37.4304C57.6016 37.1882 57.7841 36.9566 57.7197 36.5775C57.6767 36.3564 57.9129 36.2511 58.1168 36.1984C58.3744 36.1352 58.5569 36.2089 58.6535 36.409C58.8467 36.8513 58.6857 37.2304 58.4388 37.5989C57.4942 38.9784 56.1525 39.9261 54.7356 40.7685C53.19 41.6846 51.494 42.2637 49.8088 42.8429C48.1343 43.4221 46.4276 43.8959 44.6887 44.2223C43.9588 44.3592 43.2182 44.4645 42.4776 44.5593C41.5008 44.6857 40.524 44.8226 39.5472 44.8015C38.6241 44.7804 37.701 44.6857 36.7886 44.5383C36.0587 44.4224 35.3288 44.3382 34.5989 44.2013C32.9352 43.8959 31.3251 43.4326 29.7257 42.8956C28.3196 42.4217 26.9135 41.9373 25.5825 41.2844C24.1334 40.5789 22.8453 39.6628 21.6861 38.5571C21.3426 38.2307 21.0742 37.8411 20.8274 37.441C20.6556 37.1566 20.5483 36.8302 20.6771 36.4932C20.7844 36.23 20.9669 36.1458 21.2567 36.2195C21.5465 36.2932 21.6539 36.4511 21.6217 36.7249C21.6002 36.9355 21.6968 37.1145 21.8256 37.2619C22.1906 37.7042 22.6199 38.0728 23.06 38.4308C25.1209 40.0945 27.4716 41.2107 30.0048 41.9794C30.0799 42.0005 30.1658 42.0216 30.2517 42.0321C29.8331 41.8636 29.4252 41.6951 29.0066 41.5477C28.5557 41.4003 28.1586 41.1686 27.74 40.958C26.1084 40.1261 24.5413 39.1679 23.1244 38.0096C22.7165 37.6726 22.3408 37.2935 21.9866 36.9039C21.8149 36.7144 21.7934 36.5248 21.8685 36.3037C22.416 34.7453 22.6628 33.1552 22.5126 31.5125C22.4482 30.7859 22.2872 30.0699 22.1047 29.3644C21.6002 27.3847 20.6234 25.6051 19.6896 23.8045C19.6788 23.7834 19.6681 23.7729 19.6788 23.7202C22.5448 25.3629 25.6039 26.5002 28.8778 27.1741C28.8456 27.0372 28.7382 27.0583 28.6738 27.0372C27.2462 26.6055 25.8615 26.0684 24.5091 25.4682C22.5877 24.6153 20.7522 23.6149 19.0241 22.425C18.8201 22.2776 18.6806 22.0986 18.5518 21.8985C16.9632 19.445 15.1921 17.1178 13.3029 14.896C12.6803 14.1589 11.9934 13.4639 11.3064 12.79C10.9307 12.4109 10.4692 12.116 10.0613 11.7686C9.47092 11.2631 8.92349 10.7261 8.58001 10.0206C8.49414 9.84155 8.419 9.652 8.42974 9.46246C8.46194 8.9149 8.73028 8.71482 9.40652 8.78854C9.90028 8.84119 10.3833 8.97808 10.8449 9.15709C11.7036 9.48352 12.4871 9.94685 13.1419 10.5892C13.4317 10.8735 13.6786 11.1894 13.6142 11.6317C13.582 11.8844 13.4747 12.0739 13.2063 12.1266C13.0453 12.1687 13.0775 12.2529 13.1312 12.3477C13.7001 13.3375 14.2582 14.3274 14.9237 15.254C15.9005 16.6229 17.049 17.8339 18.4444 18.7921C18.8738 19.087 19.3353 19.3397 19.8398 19.4871C20.1619 19.5819 20.3229 19.5082 20.5375 19.266C20.9776 18.7605 21.1816 18.1919 21.2352 17.5285C21.2889 16.9494 21.3318 16.3807 21.3104 15.8016C21.2674 14.738 20.9991 13.7166 20.559 12.7373C20.4839 12.5688 20.3336 12.5794 20.2155 12.5794C20.1082 12.5794 20.0116 12.5583 19.915 12.5162C18.4122 11.8423 17.5857 10.6734 17.2422 9.1255C17.1456 8.71482 17.1349 8.29362 17.1027 7.88295C17.0812 7.51439 17.1564 7.15637 17.3281 6.82994C17.6287 6.22972 18.1761 5.96647 18.8416 5.98753C19.9257 6.01912 20.6985 6.58774 21.3855 7.34591C22.0295 8.07249 22.3623 8.93596 22.6092 9.84155C22.7165 10.2522 22.738 10.684 22.6521 11.1052C22.5448 11.6633 22.212 12.0634 21.7075 12.3161C21.5251 12.4109 21.5251 12.4846 21.6002 12.6531C22.4696 14.7065 23.8006 16.4229 25.4429 17.9287C26.3982 18.8132 27.4394 19.5924 28.5665 20.2664C29.2642 20.677 30.0155 20.9508 30.8313 20.9824C31.8725 21.035 32.7527 20.6349 33.5363 19.9926C34.7814 18.9712 35.6294 17.6654 36.37 16.2754C37.2502 14.6327 37.9264 12.9163 38.3343 11.1157C38.6026 9.90473 38.7314 8.68323 38.71 7.45121C38.6992 7.13531 38.5919 6.98789 38.3236 6.84047C37.4219 6.35608 37.014 5.55579 36.9496 4.57649C36.8852 3.62878 37.1106 2.75478 37.6688 1.98609C38.184 1.28057 38.8603 0.827775 39.7834 0.869895C40.6421 0.912015 41.2861 1.35428 41.7477 2.03874C42.5098 3.19705 42.703 4.42907 42.1448 5.72427C41.9087 6.28237 41.4793 6.67198 40.9319 6.92471C40.7494 7.00895 40.685 7.11425 40.685 7.32485C40.6957 7.88295 40.685 8.43051 40.7279 8.98861C40.8353 10.2838 41.1036 11.5474 41.5115 12.79C42.1448 14.6854 42.9928 16.4755 44.1306 18.1393C44.6887 18.9606 45.3757 19.6767 46.1915 20.2558C47.3937 21.1298 48.6925 21.193 50.0449 20.6454C50.9466 20.2874 51.7194 19.7188 52.4815 19.1502C54.2848 17.8023 55.8198 16.2017 56.9683 14.2853C57.2903 13.7482 57.5479 13.1691 57.8055 12.6004C57.8485 12.4951 57.8807 12.432 57.7411 12.3582C56.8288 11.916 56.5819 11.1367 56.6999 10.2206C56.818 9.30451 57.1615 8.45157 57.7089 7.70393C58.2027 7.03001 58.793 6.40873 59.6518 6.13495C60.0382 6.01912 60.4353 5.94541 60.8432 5.98753C61.6912 6.06124 62.1098 6.73516 62.2279 7.32485C62.346 7.95666 62.2708 8.58846 62.1205 9.19921C61.7663 10.6945 60.9398 11.8633 59.4585 12.5057C59.4049 12.5267 59.3297 12.5794 59.2761 12.5688C58.8789 12.5057 58.7823 12.7584 58.6642 13.0532C58.3744 13.7903 58.1597 14.5485 58.0846 15.3383C58.0095 16.0648 58.0309 16.7809 58.1275 17.5075C58.1705 17.8234 58.1812 18.1287 58.2993 18.4341C58.4388 18.7816 58.6535 19.087 58.9004 19.3713C59.0507 19.5398 59.2653 19.5608 59.48 19.4977C59.9952 19.3502 60.4461 19.0975 60.8754 18.8027C62.4962 17.697 63.7521 16.2649 64.8255 14.6643C65.3192 13.9167 65.7486 13.1375 66.1994 12.3688C66.2746 12.2424 66.3068 12.1582 66.1028 12.1055C65.7379 12.0002 65.6091 11.5264 65.813 11.1052C66.0169 10.705 66.3497 10.4102 66.7039 10.1469C67.6378 9.4414 68.6897 8.97808 69.8597 8.79907C69.9348 8.78854 70.0207 8.77801 70.0958 8.77801C70.7613 8.76748 71.0726 9.16762 70.8472 9.7889C70.6647 10.3049 70.3427 10.7261 69.967 11.1157C69.5055 11.6001 69.001 12.0213 68.4643 12.4109C68.0027 12.7479 67.6485 13.1796 67.2621 13.5797C64.7933 16.1596 62.6894 19.0238 60.7359 21.9828C60.6071 22.1828 60.4461 22.3303 60.2528 22.4671C57.2688 24.51 54.0057 25.9947 50.5494 27.0793C50.5172 27.0899 50.485 27.0899 50.4528 27.0899C50.4421 27.0899 50.4421 27.0899 50.4314 27.0899C50.4314 27.0793 50.4314 27.0899 50.4528 27.153ZM30.402 42.0847C30.3805 42.0742 30.3698 42.0637 30.3483 42.0637C30.3268 42.0742 30.3268 42.0847 30.3483 42.0847C30.3698 42.0953 30.3912 42.0847 30.402 42.0847ZM48.9823 42.0847C48.9823 42.0742 48.9823 42.0637 48.9823 42.0637C48.9716 42.0637 48.9501 42.0637 48.9394 42.0637C48.9179 42.0637 48.9179 42.0742 48.9394 42.0847C48.9501 42.0953 48.9716 42.0847 48.9823 42.0847Z" stroke="#563B00" stroke-width="0.8" mask="url(#path-6-outside-1_328_1020)"/>
</g>
<path d="M30.9589 20.6452C29.9284 20.6346 29.0268 20.2871 28.2218 19.6448C26.9874 18.6866 25.8603 17.6335 24.8298 16.4647C24.7118 16.3383 24.6903 16.233 24.7976 16.0751C25.2699 15.3274 25.9247 14.7483 26.6224 14.2218C28.1788 13.0529 29.9499 12.3369 31.8176 11.8209C33.213 11.4418 34.6191 11.1575 36.0575 10.9996C36.6478 10.9364 37.2382 10.8732 37.8393 10.8206C38.011 10.81 38.0647 10.8311 38.011 11.0206C37.5388 12.8108 36.8733 14.5272 35.9823 16.1593C35.3383 17.3492 34.6084 18.476 33.5672 19.3815C33.0842 19.8027 32.5582 20.1502 32.0108 20.4556C31.6888 20.6452 31.3131 20.6452 30.9589 20.6452Z" fill="#DE5D4F" stroke="#563B00" stroke-width="0.266667"/>
<path d="M48.1316 20.6575C47.7343 20.6575 47.0368 20.3205 46.4572 19.9309C45.2442 19.1096 44.3855 17.9934 43.6664 16.7508C42.6466 14.9818 41.8738 13.1179 41.3586 11.1488C41.3478 11.0962 41.3478 11.033 41.3156 10.9909C41.2512 10.8645 41.3049 10.8434 41.423 10.8329C41.6806 10.8013 41.9275 10.8645 42.1743 10.8856C44.729 11.1383 47.23 11.5911 49.6237 12.5388C51.2337 13.1811 52.7043 14.0235 53.9065 15.2766C54.1319 15.5083 54.3251 15.7715 54.5183 16.0348C54.6686 16.2348 54.5934 16.3507 54.4646 16.4981C53.8421 17.2036 53.1766 17.8775 52.4681 18.5094C51.8456 19.078 51.1908 19.6045 50.4824 20.0678C49.8491 20.4785 48.6353 20.7245 48.1316 20.6575Z" fill="#DE5D4F" stroke="#563B00" stroke-width="0.266667"/>
<path d="M30.4023 42.0854C30.3914 42.0854 30.3696 42.096 30.3587 42.096C30.3368 42.096 30.3368 42.0747 30.3587 42.0747C30.3696 42.0641 30.3805 42.0747 30.4023 42.0854Z" fill="#563B00"/>
<path d="M48.9829 42.0858C48.972 42.0858 48.9501 42.0964 48.9392 42.0858C48.9174 42.0751 48.9174 42.0645 48.9392 42.0645C48.9501 42.0645 48.972 42.0645 48.9829 42.0645C48.9829 42.0751 48.9829 42.0858 48.9829 42.0858Z" fill="#563B00"/>
<path d="M21.2525 26.9911C20.4674 22.7053 21.6681 19.9805 23.0916 18.4437C23.9078 17.5625 24.4574 18.2183 24.4516 19.4194C24.4068 28.7292 28.7733 31.4984 31.8342 36.2724C34.5903 40.5712 32.9826 45.2281 31.8342 47.0193C31.5881 49.4617 31.0959 51.8065 31.0959 54.3466C29.8655 58.9873 25.0076 56.4636 25.1899 54.8351C25.436 52.6369 26.9945 49.1361 27.1586 45.0653C26.584 44.2669 26.2749 43.4907 26.1457 42.7695C25.7511 40.5663 25.8104 37.6841 24.621 35.7879C23.3015 33.6845 21.9335 30.7085 21.2525 26.9911Z" fill="#FFD998"/>
<path d="M49.7984 46.0423C50.4546 48.4033 54.2279 52.8812 54.2279 52.8812C54.2279 52.8812 54.3263 53.7605 56.6887 53.3697C59.0512 52.9789 58.7395 51.5785 58.9035 50.683C58.0832 49.2175 56.2458 47.9474 55.4583 43.8441C54.474 38.7149 58.4113 35.5397 59.8878 29.1893C60.2889 23.8158 59.6007 20.4947 58.5903 18.5292C57.9343 17.2531 56.9578 17.4563 56.3959 18.3707C56.1144 18.8289 55.9369 19.4657 55.956 20.1844C56.0511 23.7663 55.4143 28.42 52.7514 32.1202C48.814 37.5914 49.1421 43.6812 49.7984 46.0423Z" fill="#FFD998"/>
<path d="M56.1966 17.954C57.0169 19.5823 58.4606 23.5716 57.6731 26.5026C56.8856 29.4335 56.3606 30.8176 56.1966 31.1433M24.4516 19.4194C24.4068 28.7292 28.7733 31.4984 31.8342 36.2724C34.5903 40.5712 32.9826 45.2281 31.8342 47.0193C31.5881 49.4617 31.0959 51.8065 31.0959 54.3466C29.8655 58.9873 25.0076 56.4636 25.1899 54.8351C25.436 52.6369 26.9945 49.1361 27.1586 45.0653C26.584 44.2669 26.2749 43.4907 26.1457 42.7695C25.7511 40.5663 25.8104 37.6841 24.621 35.7879C23.3015 33.6845 21.9335 30.7085 21.2525 26.9911C20.4674 22.7053 21.6681 19.9805 23.0916 18.4437C23.9078 17.5625 24.4574 18.2183 24.4516 19.4194V19.4194ZM24.4516 19.4194C23.7711 19.5823 22.4046 22.4969 23.2212 26.9911C23.8425 30.4105 25.8582 32.5273 26.4203 32.853M54.2279 52.8812C54.2279 52.8812 50.4546 48.4033 49.7984 46.0423C49.1421 43.6812 48.814 37.5914 52.7514 32.1202C55.4143 28.42 56.0511 23.7663 55.956 20.1844C55.8988 18.0313 57.6056 16.6136 58.5903 18.5292C59.6007 20.4947 60.2889 23.8158 59.8878 29.1893C58.4113 35.5397 54.474 38.7149 55.4583 43.8441C56.2458 47.9474 58.0832 49.2175 58.9035 50.683C58.7395 51.5785 59.0512 52.9789 56.6887 53.3697C54.3263 53.7605 54.2279 52.8812 54.2279 52.8812Z" stroke="#563B00" stroke-width="0.666667"/>
<path d="M37.5545 25.9279L36.8955 32.432H39.751M44.1379 25.1149L42.1672 22.9082L45.9013 27.0894L44.1379 25.1149ZM44.1379 25.1149L42.1672 27.0894L46.3406 22.9082L44.1379 25.1149Z" stroke="#563B00" stroke-width="1.33333" stroke-linecap="round" stroke-linejoin="round"/>
<ellipse cx="1.84995" cy="3.35726" rx="1.84995" ry="3.35726" transform="matrix(0.99639 -0.0848942 0.0835066 0.996507 37.4512 34.9883)" fill="#563B00"/>
</g>
<defs>
<filter id="filter0_d_328_1020" x="8.02881" y="0.466797" width="63.291" height="45.403" filterUnits="userSpaceOnUse" color-interpolation-filters="sRGB">
<feFlood flood-opacity="0" result="BackgroundImageFix"/>
<feColorMatrix in="SourceAlpha" type="matrix" values="0 0 0 0 0 0 0 0 0 0 0 0 0 0 0 0 0 0 127 0" result="hardAlpha"/>
<feOffset dy="0.666667"/>
<feComposite in2="hardAlpha" operator="out"/>
<feColorMatrix type="matrix" values="0 0 0 0 0.337255 0 0 0 0 0.231373 0 0 0 0 0 0 0 0 1 0"/>
<feBlend mode="normal" in2="BackgroundImageFix" result="effect1_dropShadow_328_1020"/>
<feBlend mode="normal" in="SourceGraphic" in2="effect1_dropShadow_328_1020" result="shape"/>
</filter>
<clipPath id="clip0_328_1020">
<path d="M0 0.5H80V80.5H6C2.68629 80.5 0 77.8137 0 74.5V0.5Z" fill="white"/>
</clipPath>
</defs>
</svg>
