<svg width="80" height="81" viewBox="0 0 80 81" fill="none" xmlns="http://www.w3.org/2000/svg">
<g clip-path="url(#clip0_328_1099)">
<path d="M35.8409 34.2302V28.3297L46.1818 27L48.0378 34.2302L56.169 40.2138L50.6893 46.6961L30.9799 48.3582L23.4673 42.6239L35.8409 34.2302Z" fill="#FFD998"/>
<path d="M35.8409 36.8896V34.2302M35.8409 34.2302V28.3297L46.1818 27L48.0378 34.2302L56.169 40.2138L50.6893 46.6961L30.9799 48.3582L23.4673 42.6239L35.8409 34.2302Z" stroke="#563B00" stroke-width="0.67"/>
<path d="M29.9791 43.5325C29.0068 42.2859 27.8868 39.5482 30.9802 37.8029C23.6269 38.3348 19.6082 47.0554 18.518 51.3492C15.9018 53.2107 14.3051 56.5017 13.8339 57.9145C10.1525 60.1646 7.47028 63.2333 8.08896 69.5493C8.58391 74.6022 17.4281 74.7573 21.7884 74.2032L27.7983 71.1283L31.5989 70.6297L38.9347 78.3585H69.8688C70.6642 71.4608 67.6592 52.0971 65.8032 48.6067C64.9522 47.0065 63.8598 45.1443 62.6196 43.5325C61.1546 41.6287 59.4834 40.0744 57.7603 39.7144C49.6998 38.2517 43.5601 43.9805 41.4978 47.0277C35.2226 48.6898 30.9513 44.7791 29.9791 43.5325Z" fill="#FF9429"/>
<path d="M35.7529 34.3125C35.1932 34.8942 33.455 36.4068 30.9802 37.8029M30.9802 37.8029C27.8868 39.5482 29.0068 42.2859 29.9791 43.5325C30.9513 44.7791 35.2226 48.6898 41.4978 47.0277M30.9802 37.8029C23.6269 38.3348 19.6082 47.0554 18.518 51.3492C15.9018 53.2107 14.3051 56.5017 13.8339 57.9145M41.4978 47.0277C43.5601 43.9805 49.6998 38.2517 57.7603 39.7144C60.9421 40.3792 63.9471 45.1162 65.8032 48.6067C67.6592 52.0971 70.6642 71.4608 69.8688 78.3585H38.9347L31.5989 70.6297L27.7983 71.1283M41.4978 47.0277C40.7549 47.4903 39.729 48.3005 38.6329 49.4377M13.8339 57.9145C10.1525 60.1646 7.47028 63.2333 8.08896 69.5493C8.58391 74.6022 17.4281 74.7573 21.7884 74.2032L27.7983 71.1283M13.8339 57.9145C17.369 55.7538 20.9634 58.0253 22.849 59.4104M25.6771 44.2852C24.4692 47.7479 22.6367 56.3355 24.97 62.984M32.8361 60.4077C33.8346 55.4892 36.3817 51.7735 38.6329 49.4377M28.8589 63.8981C29.507 62.7347 31.5811 60.308 34.6921 59.9091M15.3362 61.405C17.2512 61.0171 21.8589 60.9728 24.97 63.8981L26.7377 64.9785C23.3436 65.5104 22.5713 69.1834 23.821 70.6297C24.97 71.9594 26.6671 71.5404 27.7983 71.1283M23.3791 64.9785C22.348 65.1724 18.1645 64.0644 17.8993 71.1283M50.5127 56.9173C50.0414 58.7733 49.24 62.7014 49.8057 63.5657M49.8057 63.5657C48.7156 64.84 46.6946 67.9038 47.3309 69.9649M49.8057 63.5657C50.66 62.3468 53.3233 60.0587 57.1415 60.657M47.3309 69.9649C45.3512 69.433 43.2064 70.1865 42.3815 70.6297M47.3309 69.9649C49.1575 69.4108 53.6415 68.7681 56.9647 70.6297M62.6196 43.5325C57.6743 40.4325 48.1617 45.6315 43.3537 51.3492C38.5457 57.0668 36.2832 59.1057 35.7529 59.4104M26.7377 46.2797C28.0686 47.4709 32.3109 49.7702 38.6329 49.4377" stroke="#563B00" stroke-width="0.67"/>
<path d="M27.2681 60.0761C28.1224 60.3531 30.3792 60.2589 32.5711 57.666" stroke="#563B00" stroke-width="0.67"/>
<path d="M44.4142 75.2853C44.2043 75.8494 43.3083 75.6657 42.1865 75.1467C43.1421 75.6113 44.5767 76.5476 43.7071 77.1136C43.4409 77.2869 42.8237 77.2104 42.0279 76.9781C42.8233 77.4388 43.9369 78.46 42.0279 78.8589C41.3934 78.9914 40.5154 78.8538 39.5531 78.5662C39.0788 79.1092 37.9833 79.5797 36.2829 79.1181C34.091 79.6958 29.4774 78.9909 27.4446 78.5662C27.0027 78.5662 26.5608 81.7676 25.4118 81.7676C25.103 81.7676 24.7006 81.6035 24.2629 81.335C23.6905 80.984 23.4113 80.7631 22.8487 80.1886C22.1759 79.6824 21.8637 79.1969 21.7197 78.7588C21.3799 77.7255 21.593 76.5377 21.7242 75.4579C21.8202 74.6679 22.2778 73.9674 22.9626 73.562L26.6492 71.3794L24.2629 70.9638C23.2612 69.4402 22.3361 66.1104 26.6492 64.9802C27.7449 64.9323 30.5819 65.3403 34.0734 67.1722C36.7249 67.605 42.0279 68.6369 42.0279 69.3017C42.0279 70.1328 41.586 71.0352 39.5531 70.5009C42.8091 72.5494 44.8725 74.0542 44.4142 75.2853Z" fill="#FFD998"/>
<path d="M42.0279 75.0718C43.2231 75.6469 44.1945 75.8757 44.4142 75.2853C44.8725 74.0542 42.8091 72.5494 39.5531 70.5009M42.0279 75.0718C40.5312 74.3516 38.6833 73.0883 37.5203 72.2104L42.0279 75.0718ZM42.0279 75.0718C42.9706 75.5031 44.6263 76.5153 43.7071 77.1136C43.4409 77.2869 42.8237 77.2104 42.0279 76.9781M34.5153 72.9584C34.7869 73.7246 39.3889 76.2078 42.0279 76.9781M42.0279 76.9781C42.8233 77.4388 43.9369 78.46 42.0279 78.8589C41.3934 78.9914 40.5154 78.8538 39.5531 78.5662M33.0128 75.2853C33.5968 75.8344 36.896 77.7721 39.5531 78.5662M39.5531 78.5662C39.0788 79.1092 37.9833 79.5797 36.2829 79.1181M26.6492 71.3794C27.1206 71.6564 28.5583 72.8254 30.5381 75.2853C32.8967 77.6263 34.8151 78.7195 36.2829 79.1181M26.6492 71.3794L24.2629 70.9638C23.2612 69.4402 22.3361 66.1104 26.6492 64.9802C27.7449 64.9323 30.5819 65.3403 34.0734 67.1722M26.6492 71.3794L22.9626 73.562C22.2778 73.9674 21.8202 74.6679 21.7242 75.4579V75.4579C21.593 76.5377 21.3799 77.7255 21.7197 78.7588C21.8637 79.1969 22.1759 79.6824 22.8487 80.1886M34.0734 67.1722C34.6185 67.4583 35.1797 67.7791 35.7527 68.1382C37.1276 69.0001 38.4134 69.7838 39.5531 70.5009M34.0734 67.1722C36.7249 67.605 42.0279 68.6369 42.0279 69.3017C42.0279 70.1328 41.586 71.0352 39.5531 70.5009M36.2829 79.1181C34.091 79.6958 29.4774 78.9909 27.4446 78.5662C27.0027 78.5662 26.5608 81.7676 25.4118 81.7676C25.103 81.7676 24.7006 81.6035 24.2629 81.335M24.2629 81.335L24.4181 80.7462C25.0289 78.4303 26.8765 76.646 29.2123 76.1164V76.1164M24.2629 81.335C23.6905 80.984 23.4113 80.7631 22.8487 80.1886M22.8487 80.1886L22.9013 79.8003C23.2489 77.2318 25.0022 75.0726 27.4446 74.2049V74.2049" stroke="#563B00" stroke-width="0.67"/>
<path d="M26.3982 15.4697C26.8782 14.3907 27.7481 13.6649 28.7179 13.0371C28.8179 12.9684 28.8779 12.8998 28.9079 12.7919C29.1479 12.066 29.1679 11.3107 29.2179 10.5652C29.2779 9.55492 29.1579 8.56421 28.9479 7.57351C28.9279 7.47542 28.8879 7.42638 28.7879 7.38714C27.8181 7.03402 27.4281 6.26892 27.2681 5.32726C27.2081 4.98395 27.1881 4.64064 27.2681 4.29732C27.4781 3.32624 28.408 2.79655 29.3779 3.07121C30.0278 3.26738 30.4977 3.66955 30.8477 4.21885C31.0377 4.53274 31.2176 4.84662 31.3176 5.20956C31.4676 5.79809 31.3376 6.29835 30.9277 6.74956C30.5677 7.13211 30.5277 7.07326 30.8577 7.58332C31.4876 8.57402 32.3475 9.35874 33.3374 10.0061C33.6673 10.2219 34.0173 10.4181 34.3472 10.6241C34.4272 10.6731 34.5072 10.6731 34.6072 10.6437C35.6271 10.4083 36.667 10.2317 37.7168 10.1729C38.1468 10.1533 38.5767 10.0748 39.0167 10.0944C39.0967 10.0944 39.1166 10.0748 39.1366 9.98651C39.2766 9.34893 39.3466 8.70154 39.3166 8.04434C39.3066 7.82854 39.3366 7.60294 39.2866 7.37733C39.2666 7.29886 39.2366 7.24982 39.1666 7.22039C38.2968 6.77899 37.8068 6.07274 37.6468 5.14089C37.4369 3.9442 37.6768 2.83579 38.4467 1.8647C38.8667 1.33502 39.4366 1.03094 40.1265 1.01133C40.6365 0.991709 41.1564 0.972091 41.6563 1.18789C42.4562 1.54101 42.9162 2.17859 43.1861 2.94369C43.5461 3.96382 43.5961 4.99376 43.1062 5.98446C42.8362 6.52395 42.4362 6.95555 41.8763 7.22039C41.7963 7.25962 41.7563 7.29886 41.7463 7.38714C41.6963 7.95606 41.6863 8.51517 41.7463 9.08409C41.7763 9.37836 41.8263 9.67263 41.8863 9.96689C41.9063 10.0552 41.9163 10.0846 42.0163 10.0846C43.5161 10.1336 44.9959 10.2906 46.4457 10.6535C46.5257 10.6731 46.6057 10.6829 46.6857 10.6339C47.6056 10.065 48.5355 9.48626 49.2854 8.70154C49.6553 8.30918 49.9753 7.87759 50.2653 7.43619C50.4052 7.22039 50.3852 7.04383 50.2053 6.84765C49.9553 6.58281 49.7453 6.29835 49.6853 5.9158C49.6453 5.62153 49.6553 5.34688 49.7553 5.07223C50.0453 4.2679 50.4652 3.57146 51.2851 3.18891C51.955 2.88484 52.605 2.89464 53.1849 3.37528C53.5149 3.64993 53.7248 4.02267 53.7548 4.44446C53.8348 5.32726 53.6648 6.16102 53.0349 6.85746C52.8349 7.08306 52.585 7.24001 52.305 7.3381C52.135 7.39695 52.075 7.47542 52.035 7.65198C51.8351 8.60345 51.7351 9.56473 51.7851 10.5358C51.8251 11.2813 51.8751 12.0366 52.085 12.7624C52.125 12.89 52.185 12.9782 52.295 13.0469C53.0449 13.5374 53.7448 14.0867 54.2448 14.8419C54.3747 15.0381 54.4847 15.2539 54.6247 15.4795C54.8847 15.1558 55.1347 14.8321 55.3846 14.5084C55.8846 13.8512 56.3045 13.1352 56.6545 12.3897C56.7045 12.2916 56.7045 12.2328 56.6245 12.1445C56.2445 11.7423 56.0645 11.2421 55.9845 10.7124C55.8146 9.5353 56.3245 8.55441 56.9544 7.62256C57.2444 7.20077 57.5443 6.77899 57.9343 6.42586C58.6242 5.81771 59.4141 5.56268 60.314 5.75886C61.0439 5.9158 61.5539 6.3572 61.7638 7.06345C61.8838 7.47542 61.8738 7.92663 61.8438 8.35823C61.7838 9.18218 61.5339 9.95708 61.1239 10.6633C60.544 11.6737 59.7541 12.4584 58.5742 12.7919C58.4742 12.8213 58.4542 12.8703 58.4342 12.9292C58.1943 13.5864 58.0143 14.2632 57.9243 14.9596C57.8043 15.9111 57.9943 16.8135 58.2943 17.7062C58.3143 17.7748 58.3442 17.8435 58.3842 17.9023C58.5742 18.2456 58.7042 18.2947 59.0642 18.1181C59.6141 17.8435 60.094 17.4805 60.564 17.098C61.0539 16.686 61.5339 16.2642 61.9838 15.8032C63.0337 14.7144 63.9536 13.5275 64.7235 12.2328C64.7734 12.1543 64.8034 12.1151 64.6935 12.0464C64.4535 11.8894 64.3535 11.4873 64.4635 11.144C64.6235 10.6339 65.0034 10.2906 65.4034 9.9767C66.4032 9.2018 67.5231 8.67211 68.763 8.38765C69.1029 8.30918 69.4229 8.28956 69.7328 8.53479C70.0128 8.75059 70.0228 9.00562 69.9828 9.29989C69.9028 9.80014 69.6228 10.2121 69.3229 10.5947C68.9129 11.1243 68.423 11.5756 67.8431 11.9385C67.2631 12.3014 66.8232 12.8017 66.4232 13.351C65.6533 14.3907 64.8634 15.4109 64.0735 16.431C63.2036 17.559 62.4437 18.7655 61.7138 19.9818C60.8039 21.4826 59.9141 23.003 59.1841 24.592C58.5442 25.9947 57.9343 27.417 57.6043 28.9276C57.4044 29.83 57.2944 30.7324 57.3744 31.6545C57.4244 32.2136 57.5144 32.7531 57.7043 33.2729C57.7543 33.4005 57.7843 33.4691 57.9643 33.4201C58.5342 33.2828 59.0942 33.6947 59.1941 34.2538C59.3041 34.8228 59.0942 35.323 58.8142 35.784C58.1843 36.814 57.2944 37.5987 56.3045 38.2755C54.2248 39.688 51.9051 40.61 49.4854 41.2869C48.1855 41.6498 46.8657 41.9342 45.5458 42.1697C44.7359 42.3168 43.9061 42.3855 43.0862 42.5032C41.7563 42.6895 40.4265 42.6111 39.1066 42.6209C38.6467 42.6209 38.1868 42.5424 37.7268 42.4835C37.2169 42.4247 36.7069 42.3364 36.197 42.2776C35.4271 42.1795 34.6772 42.0323 33.9173 41.8656C32.5275 41.5615 31.1476 41.2378 29.8078 40.7572C27.898 40.0705 26.0483 39.2662 24.4085 38.0695C23.5386 37.4319 22.7587 36.7061 22.1888 35.784C21.9788 35.4407 21.8088 35.068 21.7788 34.6658C21.7188 33.9105 22.2288 33.2337 23.1086 33.4299C23.2386 33.4593 23.2486 33.3907 23.2786 33.322C23.4386 32.9787 23.5086 32.5961 23.5686 32.2332C23.6886 31.5368 23.6886 30.8403 23.6186 30.1439C23.4886 28.9766 23.1586 27.8486 22.7487 26.75C21.8188 24.288 20.529 22.0025 19.1791 19.7562C18.2592 18.226 17.2394 16.7743 16.1295 15.3716C15.5296 14.6163 14.9797 13.8316 14.3997 13.0665C14.0598 12.6055 13.6398 12.2328 13.1499 11.9091C12.31 11.3892 11.6301 10.7124 11.1901 9.82957C11.0701 9.59415 11.0002 9.35874 11.0002 9.0939C10.9902 8.6525 11.4701 8.26014 11.91 8.3288C12.9699 8.51517 13.9598 8.89772 14.8697 9.47645C15.4296 9.82957 15.9795 10.2023 16.3595 10.7614C16.6295 11.1538 16.6494 11.5854 16.4195 11.9287C16.4095 11.9483 16.3995 11.9777 16.3795 11.9875C16.0795 12.1151 16.2795 12.272 16.3695 12.4093C17.2294 13.7924 18.2193 15.0774 19.4091 16.1956C20.159 16.9116 20.9289 17.6081 21.8688 18.0887C22.3087 18.3143 22.4587 18.2751 22.6487 17.8042C22.8787 17.2549 22.9887 16.6762 23.0686 16.0779C23.1986 14.9989 22.9187 13.9886 22.5687 12.988C22.5187 12.8605 22.4587 12.8115 22.3287 12.7723C20.9989 12.3407 20.169 11.399 19.6191 10.1827C19.4191 9.73148 19.2491 9.27046 19.1891 8.7702C19.1191 8.23071 18.9992 7.69122 19.1691 7.14192C19.3991 6.37682 20.119 5.74905 20.9689 5.7C22.0688 5.62153 22.8687 6.11198 23.5186 6.91631C24.0585 7.59313 24.5685 8.28956 24.8384 9.11352C25.1584 10.065 25.1284 10.987 24.5885 11.8698C24.5785 11.8894 24.5685 11.9091 24.5485 11.9287C24.2185 12.1641 24.3385 12.4191 24.4785 12.7036C24.9384 13.6256 25.5383 14.4594 26.1783 15.2637C26.2483 15.3324 26.2782 15.4403 26.3982 15.4697ZM50.5452 25.828C50.5252 25.7691 50.5252 25.7593 50.5252 25.7593C50.5352 25.7593 50.5352 25.7593 50.5452 25.7593C50.5752 25.7593 50.6052 25.7495 50.6352 25.7495C53.8548 24.7392 56.8944 23.3561 59.6741 21.4532C59.8541 21.3257 60.004 21.1883 60.124 21.002C61.9438 18.2358 63.9036 15.5776 66.2033 13.1744C66.5632 12.8017 66.8932 12.3995 67.3231 12.0856C67.8231 11.7129 68.303 11.3205 68.723 10.8791C69.0729 10.5162 69.3729 10.114 69.5429 9.6432C69.7428 9.06447 69.4629 8.69173 68.8429 8.70154C68.773 8.70154 68.693 8.71135 68.623 8.72116C67.5331 8.88791 66.5532 9.3195 65.6833 9.9767C65.3534 10.2219 65.0434 10.4966 64.8534 10.8693C64.6535 11.2617 64.7734 11.7031 65.1234 11.8012C65.3034 11.8502 65.2734 11.9287 65.2134 12.0464C64.7934 12.7624 64.3935 13.4883 63.9336 14.1847C62.9337 15.6855 61.7638 17.0195 60.254 18.0397C59.8541 18.3143 59.4241 18.5497 58.9542 18.687C58.7542 18.7459 58.5542 18.7165 58.4142 18.5693C58.1843 18.3143 57.9843 18.0298 57.8543 17.6963C57.7443 17.4217 57.7343 17.1274 57.6943 16.8332C57.6043 16.1563 57.5843 15.4893 57.6543 14.8125C57.7243 14.0768 57.9243 13.3706 58.1943 12.684C58.2943 12.4191 58.3942 12.1739 58.7642 12.2328C58.8142 12.2426 58.8742 12.1935 58.9342 12.1739C60.314 11.5756 61.0739 10.4868 61.4139 9.0939C61.5539 8.52498 61.6238 7.93644 61.5139 7.34791C61.4039 6.7888 61.0139 6.17083 60.224 6.10217C59.8441 6.07274 59.4741 6.1316 59.1142 6.23949C58.3143 6.48472 57.7643 7.06345 57.3044 7.70103C56.7944 8.38765 56.4745 9.19199 56.3645 10.0454C56.2545 10.8987 56.4845 11.6246 57.3344 12.0366C57.4644 12.1052 57.4344 12.1641 57.3944 12.2622C57.1444 12.7919 56.9144 13.3314 56.6145 13.8316C55.5346 15.6267 54.1148 17.1078 52.435 18.3634C51.7251 18.893 51.0052 19.4227 50.1653 19.7562C48.8954 20.2663 47.6956 20.2074 46.5757 19.3933C45.8158 18.844 45.1759 18.1868 44.656 17.4217C43.6061 15.8719 42.8062 14.2044 42.2163 12.4387C41.8363 11.2911 41.5863 10.114 41.4864 8.89772C41.4464 8.37784 41.4564 7.86778 41.4464 7.34791C41.4364 7.15173 41.5063 7.05364 41.6763 6.97517C42.1863 6.72994 42.5862 6.36701 42.8062 5.85695C43.3161 4.65044 43.1461 3.5028 42.4362 2.42381C42.0063 1.78623 41.4064 1.37426 40.6065 1.33502C39.7566 1.29579 39.1166 1.70776 38.6367 2.37477C38.1068 3.10063 37.9068 3.90497 37.9668 4.78777C38.0268 5.70981 38.4067 6.44548 39.2466 6.89669C39.4966 7.03402 39.6066 7.16154 39.6066 7.46561C39.6266 8.62307 39.5066 9.76091 39.2566 10.8791C38.8767 12.5663 38.2468 14.1651 37.4269 15.6855C36.7369 16.9803 35.947 18.1966 34.7872 19.1481C34.0473 19.7562 33.2274 20.1192 32.2675 20.0701C31.5076 20.0309 30.8077 19.7856 30.1578 19.4031C29.1079 18.7851 28.138 18.0593 27.2481 17.2255C25.7183 15.813 24.4785 14.2142 23.6686 12.3112C23.5986 12.1543 23.5986 12.0856 23.7686 11.9973C24.2285 11.7521 24.5385 11.3892 24.6485 10.8693C24.7284 10.4671 24.7084 10.0748 24.6085 9.69224C24.3885 8.84867 24.0785 8.04434 23.4686 7.36752C22.8387 6.66128 22.1188 6.1316 21.0989 6.10217C20.469 6.08255 19.959 6.33758 19.6891 6.88688C19.5391 7.19096 19.4591 7.52447 19.4791 7.86778C19.5091 8.26014 19.5191 8.64269 19.6091 9.02524C19.929 10.4672 20.7089 11.5658 22.0988 12.1837C22.1888 12.223 22.2787 12.2426 22.3787 12.2426C22.4887 12.2426 22.6287 12.2328 22.6987 12.3897C23.1086 13.3019 23.3586 14.2436 23.3986 15.2441C23.4186 15.7836 23.3686 16.3133 23.3286 16.8528C23.2786 17.4707 23.0886 18.0004 22.6787 18.4713C22.4787 18.6969 22.3287 18.7655 22.0288 18.6772C21.5588 18.5399 21.1289 18.3045 20.7289 18.0298C19.4291 17.1274 18.3592 16.0092 17.4493 14.734C16.8294 13.861 16.3095 12.9488 15.7796 12.0268C15.7296 11.9385 15.6996 11.86 15.8495 11.8208C16.0895 11.7619 16.1995 11.5854 16.2295 11.3598C16.2795 10.9478 16.0495 10.6535 15.7896 10.3887C15.1796 9.79033 14.4497 9.35874 13.6498 9.05466C13.2199 8.88791 12.7699 8.7702 12.31 8.71135C11.6801 8.64269 11.4301 8.82906 11.4001 9.33912C11.3901 9.52549 11.4601 9.69224 11.5401 9.859C11.86 10.5162 12.37 11.0165 12.9199 11.4873C13.2999 11.811 13.7198 12.0856 14.0798 12.4387C14.7197 13.0763 15.3496 13.7237 15.9395 14.4005C17.7093 16.48 19.3591 18.638 20.8289 20.9235C20.9489 21.1099 21.0789 21.2766 21.2689 21.4139C22.8787 22.5223 24.5885 23.4542 26.3782 24.2487C27.6381 24.8078 28.9379 25.3081 30.2578 25.7103C30.3277 25.7299 30.4177 25.7201 30.4477 25.8378C27.4081 25.21 24.5485 24.1604 21.8788 22.6204C21.8688 22.6695 21.8788 22.6891 21.8888 22.6989C22.7587 24.3762 23.6686 26.0339 24.1385 27.878C24.3085 28.5352 24.4485 29.2022 24.5185 29.8791C24.6585 31.4092 24.4285 32.9002 23.9185 34.3421C23.8486 34.5579 23.8686 34.7247 24.0285 34.9012C24.3585 35.2642 24.6984 35.6173 25.0884 35.9312C26.4082 37.02 27.8581 37.9028 29.3879 38.6777C29.7778 38.8739 30.1478 39.0897 30.5677 39.227C30.9577 39.3545 31.3376 39.5212 31.7276 39.6782C31.6476 39.6684 31.5676 39.6488 31.4976 39.6291C29.1379 38.9131 26.9482 37.8635 25.0284 36.3235C24.6185 35.99 24.2185 35.6467 23.8785 35.2347C23.7586 35.0876 23.6686 34.9307 23.6886 34.7345C23.7186 34.4795 23.6186 34.3323 23.3486 34.2637C23.0786 34.195 22.9087 34.2735 22.8087 34.5187C22.6887 34.8424 22.7887 35.1465 22.9487 35.4015C23.1786 35.7742 23.4286 36.1372 23.7486 36.4412C24.8284 37.4712 26.0383 38.3246 27.3781 38.9818C28.618 39.5899 29.9278 40.0411 31.2376 40.4825C32.7174 40.9828 34.2273 41.4144 35.7771 41.6988C36.457 41.8263 37.1369 41.9048 37.8168 42.0127C38.6667 42.1402 39.5266 42.2383 40.3865 42.2579C41.3064 42.2776 42.2163 42.1599 43.1161 42.0323C43.8061 41.9441 44.496 41.846 45.1759 41.7185C46.7957 41.4144 48.3855 40.9632 49.9453 40.4335C51.5251 39.894 53.1049 39.3545 54.5347 38.5011C55.8546 37.7164 57.1044 36.8336 57.9843 35.5486C58.2243 35.2053 58.3742 34.8522 58.1843 34.4402C58.1043 34.2538 57.9243 34.1852 57.6843 34.244C57.4944 34.2931 57.2744 34.3912 57.3144 34.5972C57.3844 34.9503 57.2044 35.1759 56.9944 35.3917C56.2345 36.1862 55.3646 36.8434 54.4247 37.4319C53.3449 38.1088 52.205 38.6777 51.0052 39.1191C50.4352 39.3251 49.8753 39.5409 49.2754 39.6782C49.9253 39.482 50.5552 39.2172 51.1651 38.9131C52.075 38.4717 52.9749 37.9911 53.8248 37.4319C54.9647 36.6865 56.0845 35.9214 56.9844 34.8816C57.1244 34.7149 57.1444 34.5579 57.0844 34.3617C56.7944 33.4691 56.5445 32.5667 56.4745 31.625C56.3445 29.8791 56.6645 28.2017 57.2644 26.5636C57.7343 25.2787 58.3842 24.0722 59.0142 22.8558C59.0442 22.7872 59.1142 22.7283 59.0742 22.6008C56.4145 24.1702 53.5648 25.2198 50.5452 25.828ZM32.3875 19.766C32.7174 19.766 33.0674 19.766 33.3574 19.6091C33.8673 19.3246 34.3572 19.0009 34.8072 18.6086C35.7771 17.765 36.457 16.7154 37.0569 15.607C37.8868 14.0867 38.5067 12.4878 38.9467 10.8203C38.9967 10.6437 38.9467 10.6143 38.7867 10.6339C38.2368 10.6829 37.6868 10.7418 37.1269 10.8007C35.7871 10.9478 34.4672 11.2126 33.1774 11.5658C31.4376 12.0464 29.7878 12.7134 28.338 13.8022C27.6881 14.2926 27.0781 14.8321 26.6382 15.5286C26.5482 15.6757 26.5682 15.764 26.6682 15.8915C27.6281 16.9803 28.678 17.9612 29.8278 18.8538C30.5877 19.4227 31.4176 19.7464 32.3875 19.766ZM48.3855 19.7758C49.3154 19.7366 49.9853 19.6091 50.5752 19.2265C51.2351 18.8048 51.8451 18.3045 52.425 17.7748C53.0749 17.1863 53.6948 16.5585 54.2848 15.9013C54.4047 15.764 54.4747 15.6561 54.3348 15.4697C54.1548 15.2245 53.9748 14.9793 53.7648 14.7635C52.645 13.5962 51.2751 12.8115 49.7753 12.2131C47.5456 11.3205 45.2159 10.9086 42.8362 10.6731C42.6062 10.6535 42.3762 10.5947 42.1363 10.6241C42.0363 10.6339 41.9763 10.6535 42.0363 10.7712C42.0563 10.8105 42.0563 10.8693 42.0763 10.9184C42.5562 12.7526 43.2761 14.4888 44.226 16.1367C44.8959 17.2942 45.7058 18.3241 46.8257 19.099C47.3656 19.4718 47.8956 19.8445 48.3855 19.7758Z" fill="#563B00"/>
<g filter="url(#filter0_d_328_1099)">
<mask id="path-10-outside-1_328_1099" maskUnits="userSpaceOnUse" x="10.3994" y="0.341797" width="60" height="43" fill="black">
<rect fill="white" x="10.3994" y="0.341797" width="60" height="43"/>
<path d="M50.5455 25.8274C53.5651 25.2193 56.4048 24.1697 59.0744 22.6101C59.1144 22.7376 59.0444 22.7965 59.0144 22.8651C58.3845 24.0815 57.7346 25.288 57.2646 26.5729C56.6647 28.211 56.3348 29.8883 56.4747 31.6343C56.5447 32.576 56.7947 33.4784 57.0847 34.371C57.1447 34.5672 57.1247 34.734 56.9847 34.8909C56.0948 35.9307 54.9649 36.6958 53.8251 37.4412C52.9752 38.0003 52.0753 38.481 51.1654 38.9224C50.5555 39.2167 49.9256 39.4815 49.2756 39.6875C49.8656 39.5502 50.4355 39.3442 51.0054 39.1284C52.2053 38.687 53.3451 38.1181 54.425 37.4412C55.3549 36.8527 56.2348 36.2053 56.9947 35.401C57.2047 35.1754 57.3746 34.9596 57.3146 34.6065C57.2746 34.4005 57.4946 34.3024 57.6846 34.2533C57.9246 34.1945 58.0945 34.2631 58.1845 34.4495C58.3645 34.8615 58.2145 35.2146 57.9846 35.5579C57.1047 36.8429 55.8548 37.7257 54.535 38.5104C53.0952 39.3638 51.5154 39.9033 49.9456 40.4428C48.3857 40.9823 46.796 41.4237 45.1762 41.7277C44.4962 41.8553 43.8063 41.9534 43.1164 42.0416C42.2065 42.1593 41.2966 42.2869 40.3867 42.2672C39.5269 42.2476 38.667 42.1593 37.8171 42.022C37.1372 41.9141 36.4572 41.8356 35.7773 41.7081C34.2275 41.4237 32.7277 40.9921 31.2379 40.4918C29.9281 40.0504 28.6182 39.5992 27.3784 38.9911C26.0285 38.3339 24.8287 37.4805 23.7488 36.4505C23.4289 36.1465 23.1789 35.7835 22.9489 35.4108C22.7889 35.1459 22.689 34.8419 22.8089 34.528C22.9089 34.2828 23.0789 34.2043 23.3489 34.2729C23.6188 34.3416 23.7188 34.4887 23.6888 34.7438C23.6688 34.94 23.7588 35.1067 23.8788 35.244C24.2188 35.656 24.6187 35.9993 25.0287 36.3328C26.9484 37.8826 29.1382 38.9224 31.4979 39.6384C31.5679 39.6581 31.6478 39.6777 31.7278 39.6875C31.3379 39.5305 30.9579 39.3736 30.568 39.2363C30.148 39.0989 29.7781 38.8832 29.3881 38.687C27.8683 37.9121 26.4085 37.0195 25.0887 35.9405C24.7087 35.6266 24.3588 35.2735 24.0288 34.9105C23.8688 34.734 23.8488 34.5574 23.9188 34.3514C24.4287 32.8997 24.6587 31.4185 24.5187 29.8883C24.4587 29.2115 24.3088 28.5445 24.1388 27.8873C23.6688 26.0432 22.759 24.3855 21.8891 22.7082C21.8791 22.6886 21.8691 22.6788 21.8791 22.6297C24.5487 24.1599 27.3984 25.2193 30.448 25.8471C30.418 25.7195 30.318 25.7392 30.258 25.7195C28.9282 25.3174 27.6383 24.8171 26.3785 24.258C24.5887 23.4635 22.8789 22.5316 21.2691 21.4232C21.0792 21.2859 20.9492 21.1192 20.8292 20.9328C19.3494 18.6473 17.6996 16.4795 15.9398 14.4098C15.3599 13.7232 14.72 13.0758 14.08 12.448C13.7301 12.0949 13.3001 11.8203 12.9202 11.4966C12.3702 11.0257 11.8603 10.5255 11.5404 9.86829C11.4604 9.70154 11.3904 9.52498 11.4004 9.34842C11.4304 8.83835 11.6803 8.65198 12.3103 8.72064C12.7702 8.76969 13.2201 8.89721 13.6501 9.06396C14.45 9.36804 15.1799 9.79963 15.7898 10.398C16.0598 10.6628 16.2898 10.9571 16.2298 11.3691C16.1998 11.6045 16.0998 11.781 15.8498 11.8301C15.6998 11.8693 15.7298 11.9478 15.7798 12.0361C16.3098 12.9581 16.8297 13.8802 17.4496 14.7433C18.3595 16.0185 19.4294 17.1465 20.7292 18.0391C21.1292 18.3138 21.5591 18.5492 22.029 18.6865C22.329 18.7748 22.479 18.7062 22.679 18.4805C23.0889 18.0097 23.2789 17.48 23.3289 16.8621C23.3789 16.3226 23.4189 15.7929 23.3989 15.2534C23.3589 14.2627 23.1089 13.3112 22.699 12.399C22.629 12.2421 22.489 12.2519 22.379 12.2519C22.279 12.2519 22.189 12.2322 22.099 12.193C20.6992 11.5652 19.9293 10.4764 19.6093 9.03453C19.5194 8.65198 19.5094 8.25962 19.4794 7.87708C19.4594 7.53376 19.5294 7.20026 19.6893 6.89618C19.9693 6.33707 20.4792 6.09185 21.0992 6.11147C22.109 6.14089 22.8289 6.67058 23.4689 7.37682C24.0688 8.05364 24.3787 8.85797 24.6087 9.70154C24.7087 10.0841 24.7287 10.4863 24.6487 10.8786C24.5487 11.3985 24.2388 11.7712 23.7688 12.0066C23.5988 12.0949 23.5988 12.1636 23.6688 12.3205C24.4787 14.2333 25.7186 15.8321 27.2484 17.2348C28.1383 18.0588 29.1082 18.7846 30.158 19.4124C30.8079 19.7949 31.5079 20.05 32.2678 20.0794C33.2376 20.1284 34.0575 19.7557 34.7874 19.1574C35.9473 18.2059 36.7372 16.9896 37.4271 15.6948C38.247 14.1646 38.8769 12.5658 39.2569 10.8884C39.5069 9.76039 39.6268 8.62256 39.6068 7.47491C39.5968 7.18064 39.4969 7.04332 39.2469 6.90599C38.407 6.45478 38.027 5.7093 37.9671 4.79707C37.9071 3.91426 38.117 3.10012 38.637 2.38407C39.1169 1.72687 39.7468 1.30508 40.6067 1.34432C41.4066 1.38355 42.0065 1.79553 42.4365 2.43311C43.1464 3.5121 43.3264 4.65974 42.8064 5.86624C42.5865 6.38612 42.1865 6.74905 41.6766 6.98446C41.5066 7.06293 41.4466 7.16102 41.4466 7.3572C41.4566 7.87708 41.4466 8.38714 41.4866 8.90702C41.5866 10.1135 41.8366 11.2906 42.2165 12.448C42.8064 14.2137 43.5964 15.8812 44.6562 17.431C45.1762 18.1961 45.8161 18.8631 46.576 19.4026C47.6958 20.2167 48.9057 20.2756 50.1655 19.7655C51.0054 19.432 51.7253 18.9023 52.4352 18.3726C54.115 17.1171 55.5449 15.6261 56.6147 13.8409C56.9147 13.3407 57.1547 12.8012 57.3946 12.2715C57.4346 12.1734 57.4646 12.1145 57.3346 12.0459C56.4847 11.6339 56.2548 10.908 56.3648 10.0547C56.4747 9.20128 56.7947 8.40676 57.3046 7.71032C57.7646 7.08255 58.3145 6.50382 59.1144 6.24879C59.4744 6.14089 59.8443 6.07223 60.2243 6.11147C61.0142 6.18013 61.4041 6.8079 61.5141 7.3572C61.6241 7.94574 61.5541 8.53428 61.4141 9.10319C61.0842 10.4961 60.3143 11.5849 58.9344 12.1832C58.8844 12.2028 58.8145 12.2519 58.7645 12.2421C58.3945 12.1832 58.3045 12.4186 58.1945 12.6933C57.9246 13.3799 57.7246 14.0861 57.6546 14.8218C57.5846 15.4986 57.6046 16.1656 57.6946 16.8425C57.7346 17.1367 57.7446 17.4212 57.8546 17.7056C57.9846 18.0293 58.1845 18.3138 58.4145 18.5786C58.5545 18.7356 58.7545 18.7552 58.9544 18.6963C59.4344 18.559 59.8543 18.3236 60.2543 18.049C61.7641 17.019 62.9339 15.685 63.9338 14.194C64.3938 13.4976 64.7937 12.7717 65.2137 12.0557C65.2836 11.938 65.3136 11.8595 65.1237 11.8105C64.7837 11.7124 64.6637 11.271 64.8537 10.8786C65.0437 10.5059 65.3536 10.2312 65.6836 9.986C66.5535 9.3288 67.5334 8.89721 68.6232 8.73045C68.6932 8.72065 68.7732 8.71084 68.8432 8.71084C69.4631 8.70103 69.7531 9.07377 69.5431 9.6525C69.3731 10.1331 69.0732 10.5255 68.7232 10.8884C68.2933 11.3396 67.8233 11.732 67.3234 12.0949C66.8934 12.4088 66.5635 12.811 66.2035 13.1837C63.9038 15.5869 61.9441 18.2549 60.1243 21.0113C60.0043 21.1976 59.8543 21.3349 59.6743 21.4625C56.8947 23.3654 53.8551 24.7485 50.6355 25.7588C50.6055 25.7686 50.5755 25.7686 50.5455 25.7686C50.5355 25.7686 50.5355 25.7686 50.5255 25.7686C50.5255 25.7588 50.5255 25.7686 50.5455 25.8274ZM31.8678 39.7365C31.8478 39.7267 31.8378 39.7169 31.8178 39.7169C31.7978 39.7267 31.7978 39.7365 31.8178 39.7365C31.8378 39.7463 31.8578 39.7365 31.8678 39.7365ZM49.1757 39.7365C49.1757 39.7267 49.1757 39.7169 49.1757 39.7169C49.1657 39.7169 49.1457 39.7169 49.1357 39.7169C49.1157 39.7169 49.1157 39.7267 49.1357 39.7365C49.1457 39.7463 49.1657 39.7365 49.1757 39.7365Z"/>
</mask>
<path d="M50.5455 25.8274C53.5651 25.2193 56.4048 24.1697 59.0744 22.6101C59.1144 22.7376 59.0444 22.7965 59.0144 22.8651C58.3845 24.0815 57.7346 25.288 57.2646 26.5729C56.6647 28.211 56.3348 29.8883 56.4747 31.6343C56.5447 32.576 56.7947 33.4784 57.0847 34.371C57.1447 34.5672 57.1247 34.734 56.9847 34.8909C56.0948 35.9307 54.9649 36.6958 53.8251 37.4412C52.9752 38.0003 52.0753 38.481 51.1654 38.9224C50.5555 39.2167 49.9256 39.4815 49.2756 39.6875C49.8656 39.5502 50.4355 39.3442 51.0054 39.1284C52.2053 38.687 53.3451 38.1181 54.425 37.4412C55.3549 36.8527 56.2348 36.2053 56.9947 35.401C57.2047 35.1754 57.3746 34.9596 57.3146 34.6065C57.2746 34.4005 57.4946 34.3024 57.6846 34.2533C57.9246 34.1945 58.0945 34.2631 58.1845 34.4495C58.3645 34.8615 58.2145 35.2146 57.9846 35.5579C57.1047 36.8429 55.8548 37.7257 54.535 38.5104C53.0952 39.3638 51.5154 39.9033 49.9456 40.4428C48.3857 40.9823 46.796 41.4237 45.1762 41.7277C44.4962 41.8553 43.8063 41.9534 43.1164 42.0416C42.2065 42.1593 41.2966 42.2869 40.3867 42.2672C39.5269 42.2476 38.667 42.1593 37.8171 42.022C37.1372 41.9141 36.4572 41.8356 35.7773 41.7081C34.2275 41.4237 32.7277 40.9921 31.2379 40.4918C29.9281 40.0504 28.6182 39.5992 27.3784 38.9911C26.0285 38.3339 24.8287 37.4805 23.7488 36.4505C23.4289 36.1465 23.1789 35.7835 22.9489 35.4108C22.7889 35.1459 22.689 34.8419 22.8089 34.528C22.9089 34.2828 23.0789 34.2043 23.3489 34.2729C23.6188 34.3416 23.7188 34.4887 23.6888 34.7438C23.6688 34.94 23.7588 35.1067 23.8788 35.244C24.2188 35.656 24.6187 35.9993 25.0287 36.3328C26.9484 37.8826 29.1382 38.9224 31.4979 39.6384C31.5679 39.6581 31.6478 39.6777 31.7278 39.6875C31.3379 39.5305 30.9579 39.3736 30.568 39.2363C30.148 39.0989 29.7781 38.8832 29.3881 38.687C27.8683 37.9121 26.4085 37.0195 25.0887 35.9405C24.7087 35.6266 24.3588 35.2735 24.0288 34.9105C23.8688 34.734 23.8488 34.5574 23.9188 34.3514C24.4287 32.8997 24.6587 31.4185 24.5187 29.8883C24.4587 29.2115 24.3088 28.5445 24.1388 27.8873C23.6688 26.0432 22.759 24.3855 21.8891 22.7082C21.8791 22.6886 21.8691 22.6788 21.8791 22.6297C24.5487 24.1599 27.3984 25.2193 30.448 25.8471C30.418 25.7195 30.318 25.7392 30.258 25.7195C28.9282 25.3174 27.6383 24.8171 26.3785 24.258C24.5887 23.4635 22.8789 22.5316 21.2691 21.4232C21.0792 21.2859 20.9492 21.1192 20.8292 20.9328C19.3494 18.6473 17.6996 16.4795 15.9398 14.4098C15.3599 13.7232 14.72 13.0758 14.08 12.448C13.7301 12.0949 13.3001 11.8203 12.9202 11.4966C12.3702 11.0257 11.8603 10.5255 11.5404 9.86829C11.4604 9.70154 11.3904 9.52498 11.4004 9.34842C11.4304 8.83835 11.6803 8.65198 12.3103 8.72064C12.7702 8.76969 13.2201 8.89721 13.6501 9.06396C14.45 9.36804 15.1799 9.79963 15.7898 10.398C16.0598 10.6628 16.2898 10.9571 16.2298 11.3691C16.1998 11.6045 16.0998 11.781 15.8498 11.8301C15.6998 11.8693 15.7298 11.9478 15.7798 12.0361C16.3098 12.9581 16.8297 13.8802 17.4496 14.7433C18.3595 16.0185 19.4294 17.1465 20.7292 18.0391C21.1292 18.3138 21.5591 18.5492 22.029 18.6865C22.329 18.7748 22.479 18.7062 22.679 18.4805C23.0889 18.0097 23.2789 17.48 23.3289 16.8621C23.3789 16.3226 23.4189 15.7929 23.3989 15.2534C23.3589 14.2627 23.1089 13.3112 22.699 12.399C22.629 12.2421 22.489 12.2519 22.379 12.2519C22.279 12.2519 22.189 12.2322 22.099 12.193C20.6992 11.5652 19.9293 10.4764 19.6093 9.03453C19.5194 8.65198 19.5094 8.25962 19.4794 7.87708C19.4594 7.53376 19.5294 7.20026 19.6893 6.89618C19.9693 6.33707 20.4792 6.09185 21.0992 6.11147C22.109 6.14089 22.8289 6.67058 23.4689 7.37682C24.0688 8.05364 24.3787 8.85797 24.6087 9.70154C24.7087 10.0841 24.7287 10.4863 24.6487 10.8786C24.5487 11.3985 24.2388 11.7712 23.7688 12.0066C23.5988 12.0949 23.5988 12.1636 23.6688 12.3205C24.4787 14.2333 25.7186 15.8321 27.2484 17.2348C28.1383 18.0588 29.1082 18.7846 30.158 19.4124C30.8079 19.7949 31.5079 20.05 32.2678 20.0794C33.2376 20.1284 34.0575 19.7557 34.7874 19.1574C35.9473 18.2059 36.7372 16.9896 37.4271 15.6948C38.247 14.1646 38.8769 12.5658 39.2569 10.8884C39.5069 9.76039 39.6268 8.62256 39.6068 7.47491C39.5968 7.18064 39.4969 7.04332 39.2469 6.90599C38.407 6.45478 38.027 5.7093 37.9671 4.79707C37.9071 3.91426 38.117 3.10012 38.637 2.38407C39.1169 1.72687 39.7468 1.30508 40.6067 1.34432C41.4066 1.38355 42.0065 1.79553 42.4365 2.43311C43.1464 3.5121 43.3264 4.65974 42.8064 5.86624C42.5865 6.38612 42.1865 6.74905 41.6766 6.98446C41.5066 7.06293 41.4466 7.16102 41.4466 7.3572C41.4566 7.87708 41.4466 8.38714 41.4866 8.90702C41.5866 10.1135 41.8366 11.2906 42.2165 12.448C42.8064 14.2137 43.5964 15.8812 44.6562 17.431C45.1762 18.1961 45.8161 18.8631 46.576 19.4026C47.6958 20.2167 48.9057 20.2756 50.1655 19.7655C51.0054 19.432 51.7253 18.9023 52.4352 18.3726C54.115 17.1171 55.5449 15.6261 56.6147 13.8409C56.9147 13.3407 57.1547 12.8012 57.3946 12.2715C57.4346 12.1734 57.4646 12.1145 57.3346 12.0459C56.4847 11.6339 56.2548 10.908 56.3648 10.0547C56.4747 9.20128 56.7947 8.40676 57.3046 7.71032C57.7646 7.08255 58.3145 6.50382 59.1144 6.24879C59.4744 6.14089 59.8443 6.07223 60.2243 6.11147C61.0142 6.18013 61.4041 6.8079 61.5141 7.3572C61.6241 7.94574 61.5541 8.53428 61.4141 9.10319C61.0842 10.4961 60.3143 11.5849 58.9344 12.1832C58.8844 12.2028 58.8145 12.2519 58.7645 12.2421C58.3945 12.1832 58.3045 12.4186 58.1945 12.6933C57.9246 13.3799 57.7246 14.0861 57.6546 14.8218C57.5846 15.4986 57.6046 16.1656 57.6946 16.8425C57.7346 17.1367 57.7446 17.4212 57.8546 17.7056C57.9846 18.0293 58.1845 18.3138 58.4145 18.5786C58.5545 18.7356 58.7545 18.7552 58.9544 18.6963C59.4344 18.559 59.8543 18.3236 60.2543 18.049C61.7641 17.019 62.9339 15.685 63.9338 14.194C64.3938 13.4976 64.7937 12.7717 65.2137 12.0557C65.2836 11.938 65.3136 11.8595 65.1237 11.8105C64.7837 11.7124 64.6637 11.271 64.8537 10.8786C65.0437 10.5059 65.3536 10.2312 65.6836 9.986C66.5535 9.3288 67.5334 8.89721 68.6232 8.73045C68.6932 8.72065 68.7732 8.71084 68.8432 8.71084C69.4631 8.70103 69.7531 9.07377 69.5431 9.6525C69.3731 10.1331 69.0732 10.5255 68.7232 10.8884C68.2933 11.3396 67.8233 11.732 67.3234 12.0949C66.8934 12.4088 66.5635 12.811 66.2035 13.1837C63.9038 15.5869 61.9441 18.2549 60.1243 21.0113C60.0043 21.1976 59.8543 21.3349 59.6743 21.4625C56.8947 23.3654 53.8551 24.7485 50.6355 25.7588C50.6055 25.7686 50.5755 25.7686 50.5455 25.7686C50.5355 25.7686 50.5355 25.7686 50.5255 25.7686C50.5255 25.7588 50.5255 25.7686 50.5455 25.8274ZM31.8678 39.7365C31.8478 39.7267 31.8378 39.7169 31.8178 39.7169C31.7978 39.7267 31.7978 39.7365 31.8178 39.7365C31.8378 39.7463 31.8578 39.7365 31.8678 39.7365ZM49.1757 39.7365C49.1757 39.7267 49.1757 39.7169 49.1757 39.7169C49.1657 39.7169 49.1457 39.7169 49.1357 39.7169C49.1157 39.7169 49.1157 39.7267 49.1357 39.7365C49.1457 39.7463 49.1657 39.7365 49.1757 39.7365Z" fill="#FFE52F"/>
<path d="M50.5455 25.8274C53.5651 25.2193 56.4048 24.1697 59.0744 22.6101C59.1144 22.7376 59.0444 22.7965 59.0144 22.8651C58.3845 24.0815 57.7346 25.288 57.2646 26.5729C56.6647 28.211 56.3348 29.8883 56.4747 31.6343C56.5447 32.576 56.7947 33.4784 57.0847 34.371C57.1447 34.5672 57.1247 34.734 56.9847 34.8909C56.0948 35.9307 54.9649 36.6958 53.8251 37.4412C52.9752 38.0003 52.0753 38.481 51.1654 38.9224C50.5555 39.2167 49.9256 39.4815 49.2756 39.6875C49.8656 39.5502 50.4355 39.3442 51.0054 39.1284C52.2053 38.687 53.3451 38.1181 54.425 37.4412C55.3549 36.8527 56.2348 36.2053 56.9947 35.401C57.2047 35.1754 57.3746 34.9596 57.3146 34.6065C57.2746 34.4005 57.4946 34.3024 57.6846 34.2533C57.9246 34.1945 58.0945 34.2631 58.1845 34.4495C58.3645 34.8615 58.2145 35.2146 57.9846 35.5579C57.1047 36.8429 55.8548 37.7257 54.535 38.5104C53.0952 39.3638 51.5154 39.9033 49.9456 40.4428C48.3857 40.9823 46.796 41.4237 45.1762 41.7277C44.4962 41.8553 43.8063 41.9534 43.1164 42.0416C42.2065 42.1593 41.2966 42.2869 40.3867 42.2672C39.5269 42.2476 38.667 42.1593 37.8171 42.022C37.1372 41.9141 36.4572 41.8356 35.7773 41.7081C34.2275 41.4237 32.7277 40.9921 31.2379 40.4918C29.9281 40.0504 28.6182 39.5992 27.3784 38.9911C26.0285 38.3339 24.8287 37.4805 23.7488 36.4505C23.4289 36.1465 23.1789 35.7835 22.9489 35.4108C22.7889 35.1459 22.689 34.8419 22.8089 34.528C22.9089 34.2828 23.0789 34.2043 23.3489 34.2729C23.6188 34.3416 23.7188 34.4887 23.6888 34.7438C23.6688 34.94 23.7588 35.1067 23.8788 35.244C24.2188 35.656 24.6187 35.9993 25.0287 36.3328C26.9484 37.8826 29.1382 38.9224 31.4979 39.6384C31.5679 39.6581 31.6478 39.6777 31.7278 39.6875C31.3379 39.5305 30.9579 39.3736 30.568 39.2363C30.148 39.0989 29.7781 38.8832 29.3881 38.687C27.8683 37.9121 26.4085 37.0195 25.0887 35.9405C24.7087 35.6266 24.3588 35.2735 24.0288 34.9105C23.8688 34.734 23.8488 34.5574 23.9188 34.3514C24.4287 32.8997 24.6587 31.4185 24.5187 29.8883C24.4587 29.2115 24.3088 28.5445 24.1388 27.8873C23.6688 26.0432 22.759 24.3855 21.8891 22.7082C21.8791 22.6886 21.8691 22.6788 21.8791 22.6297C24.5487 24.1599 27.3984 25.2193 30.448 25.8471C30.418 25.7195 30.318 25.7392 30.258 25.7195C28.9282 25.3174 27.6383 24.8171 26.3785 24.258C24.5887 23.4635 22.8789 22.5316 21.2691 21.4232C21.0792 21.2859 20.9492 21.1192 20.8292 20.9328C19.3494 18.6473 17.6996 16.4795 15.9398 14.4098C15.3599 13.7232 14.72 13.0758 14.08 12.448C13.7301 12.0949 13.3001 11.8203 12.9202 11.4966C12.3702 11.0257 11.8603 10.5255 11.5404 9.86829C11.4604 9.70154 11.3904 9.52498 11.4004 9.34842C11.4304 8.83835 11.6803 8.65198 12.3103 8.72064C12.7702 8.76969 13.2201 8.89721 13.6501 9.06396C14.45 9.36804 15.1799 9.79963 15.7898 10.398C16.0598 10.6628 16.2898 10.9571 16.2298 11.3691C16.1998 11.6045 16.0998 11.781 15.8498 11.8301C15.6998 11.8693 15.7298 11.9478 15.7798 12.0361C16.3098 12.9581 16.8297 13.8802 17.4496 14.7433C18.3595 16.0185 19.4294 17.1465 20.7292 18.0391C21.1292 18.3138 21.5591 18.5492 22.029 18.6865C22.329 18.7748 22.479 18.7062 22.679 18.4805C23.0889 18.0097 23.2789 17.48 23.3289 16.8621C23.3789 16.3226 23.4189 15.7929 23.3989 15.2534C23.3589 14.2627 23.1089 13.3112 22.699 12.399C22.629 12.2421 22.489 12.2519 22.379 12.2519C22.279 12.2519 22.189 12.2322 22.099 12.193C20.6992 11.5652 19.9293 10.4764 19.6093 9.03453C19.5194 8.65198 19.5094 8.25962 19.4794 7.87708C19.4594 7.53376 19.5294 7.20026 19.6893 6.89618C19.9693 6.33707 20.4792 6.09185 21.0992 6.11147C22.109 6.14089 22.8289 6.67058 23.4689 7.37682C24.0688 8.05364 24.3787 8.85797 24.6087 9.70154C24.7087 10.0841 24.7287 10.4863 24.6487 10.8786C24.5487 11.3985 24.2388 11.7712 23.7688 12.0066C23.5988 12.0949 23.5988 12.1636 23.6688 12.3205C24.4787 14.2333 25.7186 15.8321 27.2484 17.2348C28.1383 18.0588 29.1082 18.7846 30.158 19.4124C30.8079 19.7949 31.5079 20.05 32.2678 20.0794C33.2376 20.1284 34.0575 19.7557 34.7874 19.1574C35.9473 18.2059 36.7372 16.9896 37.4271 15.6948C38.247 14.1646 38.8769 12.5658 39.2569 10.8884C39.5069 9.76039 39.6268 8.62256 39.6068 7.47491C39.5968 7.18064 39.4969 7.04332 39.2469 6.90599C38.407 6.45478 38.027 5.7093 37.9671 4.79707C37.9071 3.91426 38.117 3.10012 38.637 2.38407C39.1169 1.72687 39.7468 1.30508 40.6067 1.34432C41.4066 1.38355 42.0065 1.79553 42.4365 2.43311C43.1464 3.5121 43.3264 4.65974 42.8064 5.86624C42.5865 6.38612 42.1865 6.74905 41.6766 6.98446C41.5066 7.06293 41.4466 7.16102 41.4466 7.3572C41.4566 7.87708 41.4466 8.38714 41.4866 8.90702C41.5866 10.1135 41.8366 11.2906 42.2165 12.448C42.8064 14.2137 43.5964 15.8812 44.6562 17.431C45.1762 18.1961 45.8161 18.8631 46.576 19.4026C47.6958 20.2167 48.9057 20.2756 50.1655 19.7655C51.0054 19.432 51.7253 18.9023 52.4352 18.3726C54.115 17.1171 55.5449 15.6261 56.6147 13.8409C56.9147 13.3407 57.1547 12.8012 57.3946 12.2715C57.4346 12.1734 57.4646 12.1145 57.3346 12.0459C56.4847 11.6339 56.2548 10.908 56.3648 10.0547C56.4747 9.20128 56.7947 8.40676 57.3046 7.71032C57.7646 7.08255 58.3145 6.50382 59.1144 6.24879C59.4744 6.14089 59.8443 6.07223 60.2243 6.11147C61.0142 6.18013 61.4041 6.8079 61.5141 7.3572C61.6241 7.94574 61.5541 8.53428 61.4141 9.10319C61.0842 10.4961 60.3143 11.5849 58.9344 12.1832C58.8844 12.2028 58.8145 12.2519 58.7645 12.2421C58.3945 12.1832 58.3045 12.4186 58.1945 12.6933C57.9246 13.3799 57.7246 14.0861 57.6546 14.8218C57.5846 15.4986 57.6046 16.1656 57.6946 16.8425C57.7346 17.1367 57.7446 17.4212 57.8546 17.7056C57.9846 18.0293 58.1845 18.3138 58.4145 18.5786C58.5545 18.7356 58.7545 18.7552 58.9544 18.6963C59.4344 18.559 59.8543 18.3236 60.2543 18.049C61.7641 17.019 62.9339 15.685 63.9338 14.194C64.3938 13.4976 64.7937 12.7717 65.2137 12.0557C65.2836 11.938 65.3136 11.8595 65.1237 11.8105C64.7837 11.7124 64.6637 11.271 64.8537 10.8786C65.0437 10.5059 65.3536 10.2312 65.6836 9.986C66.5535 9.3288 67.5334 8.89721 68.6232 8.73045C68.6932 8.72065 68.7732 8.71084 68.8432 8.71084C69.4631 8.70103 69.7531 9.07377 69.5431 9.6525C69.3731 10.1331 69.0732 10.5255 68.7232 10.8884C68.2933 11.3396 67.8233 11.732 67.3234 12.0949C66.8934 12.4088 66.5635 12.811 66.2035 13.1837C63.9038 15.5869 61.9441 18.2549 60.1243 21.0113C60.0043 21.1976 59.8543 21.3349 59.6743 21.4625C56.8947 23.3654 53.8551 24.7485 50.6355 25.7588C50.6055 25.7686 50.5755 25.7686 50.5455 25.7686C50.5355 25.7686 50.5355 25.7686 50.5255 25.7686C50.5255 25.7588 50.5255 25.7686 50.5455 25.8274ZM31.8678 39.7365C31.8478 39.7267 31.8378 39.7169 31.8178 39.7169C31.7978 39.7267 31.7978 39.7365 31.8178 39.7365C31.8378 39.7463 31.8578 39.7365 31.8678 39.7365ZM49.1757 39.7365C49.1757 39.7267 49.1757 39.7169 49.1757 39.7169C49.1657 39.7169 49.1457 39.7169 49.1357 39.7169C49.1157 39.7169 49.1157 39.7267 49.1357 39.7365C49.1457 39.7463 49.1657 39.7365 49.1757 39.7365Z" stroke="#563B00" stroke-width="0.8" mask="url(#path-10-outside-1_328_1099)"/>
</g>
<path d="M42.4906 38.4237C40.2584 38.4278 37.9195 38.0378 35.7587 36.8821C34.462 36.1837 33.3672 35.2513 32.5261 34.0751C31.9019 33.1971 31.6735 32.1895 31.7475 31.1226C31.7913 30.5213 31.8616 29.9362 32.1148 29.3713C32.4662 28.5923 32.9512 27.9279 33.7208 27.5004C34.7214 26.9481 35.7621 27.1975 36.3878 28.1263C36.5418 28.3501 36.6787 28.5828 36.8069 28.8158C37.4841 30.0304 38.5307 30.7951 39.8879 31.1792C40.9387 31.4789 42.0009 31.5672 43.0839 31.4688C43.6384 31.4193 44.1541 31.2272 44.6705 31.0605C45.1954 30.8851 45.7292 30.7178 46.2839 30.6767C46.8905 30.6257 47.4747 30.7021 48.0124 30.9827C48.8412 31.4155 49.2519 32.1137 49.364 33.0063C49.4531 33.6968 49.3148 34.3345 48.9938 34.9605C47.9661 37.0093 46.2043 37.9804 43.9815 38.3138C43.5576 38.3765 43.1244 38.4142 42.4906 38.4237ZM38.7631 33.1716C38.9024 33.1846 38.9873 33.1145 39.0539 33.0112C39.3295 32.6232 39.5434 32.203 39.7132 31.7588C39.7615 31.6222 39.7427 31.572 39.5937 31.5255C38.7085 31.2464 37.8892 30.8386 37.2615 30.1466C37.1808 30.0559 37.1383 30.0909 37.0793 30.1517C36.6901 30.5177 36.3455 30.9246 36.0807 31.3885C35.9398 31.6291 35.9613 31.7721 36.1664 31.9607C36.6217 32.3957 37.1602 32.7015 37.7484 32.9215C38.0647 33.0477 38.4058 33.131 38.7631 33.1716ZM43.4662 33.9256C44.2119 33.8791 44.9352 33.6558 45.6016 33.2651C45.781 33.1586 45.8555 33.0297 45.8062 32.8199C45.6968 32.3328 45.4336 31.9346 45.1357 31.5375C45.0367 31.4135 44.9581 31.3988 44.8117 31.4452C44.1239 31.6929 43.4264 31.907 42.6797 31.9197C42.5669 31.9229 42.5775 31.9902 42.5794 32.0578C42.5569 32.4894 42.5862 32.9111 42.6763 33.3311C42.8069 33.9528 42.6759 33.9311 43.4662 33.9256Z" fill="#563B00"/>
<path d="M39 23L39 26.0843" stroke="#563B00" stroke-width="2" stroke-linecap="round"/>
<path d="M44.958 23.5605L44.958 27.0655" stroke="#563B00" stroke-width="2" stroke-linecap="round"/>
<path d="M38.7625 33.1737C38.4139 33.1328 38.073 33.058 37.7394 32.9322C37.1512 32.7123 36.6127 32.4064 36.1574 31.9714C35.9523 31.7829 35.9395 31.6396 36.0717 31.3992C36.3365 30.9354 36.6811 30.5284 37.0702 30.1625C37.138 30.1014 37.1718 30.0666 37.2525 30.1573C37.8801 30.8494 38.6993 31.2487 39.5847 31.5363C39.7337 31.5827 39.7525 31.6329 39.7042 31.7695C39.5431 32.2135 39.3205 32.6339 39.0448 33.022C38.9781 33.1168 38.8932 33.1869 38.7625 33.1737Z" fill="#FDFDFD"/>
<path d="M43.4638 33.9264C42.6735 33.9319 42.8044 33.9535 42.6741 33.3403C42.5841 32.9203 42.5547 32.4986 42.5772 32.067C42.584 31.9992 42.5647 31.9321 42.6776 31.9289C43.424 31.9078 44.1215 31.6936 44.8096 31.4544C44.9557 31.3996 45.0432 31.4224 45.1336 31.5466C45.4312 31.9354 45.6946 32.342 45.804 32.829C45.8534 33.0389 45.7788 33.1678 45.5995 33.2743C44.9328 33.6565 44.2182 33.8796 43.4638 33.9264Z" fill="#FDFDFD"/>
<path d="M32.3867 19.7671C31.4268 19.7573 30.5869 19.4336 29.837 18.8352C28.6871 17.9426 27.6372 16.9617 26.6774 15.8729C26.5674 15.7552 26.5474 15.6571 26.6474 15.51C27.0873 14.8136 27.6972 14.2741 28.3472 13.7836C29.797 12.6948 31.4468 12.0278 33.1866 11.5472C34.4864 11.1941 35.7962 10.9292 37.1361 10.7821C37.686 10.7232 38.2359 10.6644 38.7959 10.6153C38.9558 10.6055 39.0058 10.6251 38.9558 10.8017C38.5159 12.4692 37.896 14.0681 37.0661 15.5885C36.4661 16.6969 35.7862 17.7464 34.8164 18.59C34.3664 18.9824 33.8765 19.3061 33.3665 19.5905C33.0666 19.7671 32.7166 19.7671 32.3867 19.7671Z" fill="#DE5D4F" stroke="#563B00" stroke-width="0.266667"/>
<path d="M48.3832 19.777C48.013 19.777 47.3633 19.4631 46.8234 19.1002C45.6935 18.3351 44.8936 17.2954 44.2237 16.1379C43.2738 14.49 42.5539 12.7538 42.074 10.9195C42.064 10.8705 42.064 10.8116 42.034 10.7724C41.974 10.6547 42.024 10.6351 42.134 10.6253C42.3739 10.5959 42.6039 10.6547 42.8339 10.6743C45.2136 10.9097 47.5433 11.3315 49.773 12.2143C51.2728 12.8127 52.6426 13.5974 53.7625 14.7647C53.9725 14.9804 54.1525 15.2257 54.3324 15.4709C54.4724 15.6573 54.4024 15.7652 54.2824 15.9025C53.7025 16.5597 53.0826 17.1875 52.4227 17.776C51.8427 18.3057 51.2328 18.7961 50.5729 19.2277C49.983 19.6103 48.8524 19.8395 48.3832 19.777Z" fill="#DE5D4F" stroke="#563B00" stroke-width="0.266667"/>
<path d="M31.8679 39.7367C31.8578 39.7367 31.8374 39.7466 31.8273 39.7466C31.8069 39.7466 31.8069 39.7268 31.8273 39.7268C31.8374 39.7168 31.8476 39.7268 31.8679 39.7367Z" fill="#563B00"/>
<path d="M49.1761 39.7367C49.1659 39.7367 49.1455 39.7466 49.1354 39.7367C49.115 39.7267 49.115 39.7168 49.1354 39.7168C49.1455 39.7168 49.1659 39.7168 49.1761 39.7168C49.1761 39.7267 49.1761 39.7367 49.1761 39.7367Z" fill="#563B00"/>
<rect x="42.8184" y="61" width="1.60765" height="9" transform="rotate(40.2774 42.8184 61)" fill="#563B00"/>
<circle cx="48.7851" cy="55.7851" r="11.2127" transform="rotate(30.1461 48.7851 55.7851)" fill="#FFEFD4" stroke="#563B00" stroke-width="0.67"/>
<path d="M43.2535 52.1931C47.5002 48.4996 55.5 51.4996 55.0001 58.9997" stroke="#563B00" stroke-width="1.4" stroke-linecap="round"/>
<path d="M44.0278 55.7423C47 53.4989 52.0002 56.4989 50.8888 60.0567" stroke="#563B00" stroke-width="1.4" stroke-linecap="round"/>
<path d="M46.932 59.215C46.0955 59.9568 45.9661 59.4738 46.0211 58.8968" stroke="#563B00" stroke-width="1.4" stroke-linecap="round"/>
</g>
<defs>
<filter id="filter0_d_328_1099" x="10.9995" y="0.941406" width="59.0112" height="42.3952" filterUnits="userSpaceOnUse" color-interpolation-filters="sRGB">
<feFlood flood-opacity="0" result="BackgroundImageFix"/>
<feColorMatrix in="SourceAlpha" type="matrix" values="0 0 0 0 0 0 0 0 0 0 0 0 0 0 0 0 0 0 127 0" result="hardAlpha"/>
<feOffset dy="0.666667"/>
<feComposite in2="hardAlpha" operator="out"/>
<feColorMatrix type="matrix" values="0 0 0 0 0.337255 0 0 0 0 0.231373 0 0 0 0 0 0 0 0 1 0"/>
<feBlend mode="normal" in2="BackgroundImageFix" result="effect1_dropShadow_328_1099"/>
<feBlend mode="normal" in="SourceGraphic" in2="effect1_dropShadow_328_1099" result="shape"/>
</filter>
<clipPath id="clip0_328_1099">
<path d="M0 0.5H80V80.5H6C2.68629 80.5 0 77.8137 0 74.5V0.5Z" fill="white"/>
</clipPath>
</defs>
</svg>
