<svg width="80" height="81" viewBox="0 0 80 81" fill="none" xmlns="http://www.w3.org/2000/svg">
<g clip-path="url(#clip0_328_1034)">
<path d="M71 52.0004C61.4325 50.4265 57.8279 48.4566 55.0108 46.3884L51.5032 69.0885L40.1817 45.1777C32.0492 46.2371 14.5808 48.6091 10.3627 50.7771C3.03715 54.5423 6.94484 73.0301 8.1142 81.0004H75C78.9864 62.8403 74.827 52.6057 71 52.0004Z" fill="#311A00" stroke="#563B00" stroke-width="0.67"/>
<rect x="40" y="45.957" width="12" height="18" transform="rotate(-9.38391 40 45.957)" fill="white"/>
<path d="M52.9259 42.2012C54.1791 44.5694 57.8626 50.634 62.5706 55.947C62.8975 56.3588 63.1917 57.2134 61.7532 57.337C59.9551 57.4914 56.1953 59.4992 55.7049 59.8081C55.3125 60.0553 59.9006 61.6615 62.2436 62.4337C59.8461 66.8097 49.9515 79.7657 48.7214 82.0738C46.4423 86.3502 44.0898 83.4123 43 83.0005C43.2113 82.4171 43.4552 81.7587 43.7236 81.0367C43.7092 76.672 40.1196 64.5709 36.7419 61.6615L41.9729 60.8893C37.5593 56.2559 26.6074 48.5335 25.4631 47.1435C24.5477 46.0315 34.2851 44.3634 39.031 44.3634C42.5623 48.1937 46.9637 58.6315 49.1431 64.5005L45.2265 76.9694C48.6646 67.522 53.3382 53.2171 50 47.5005L52.9259 42.2012Z" fill="#311A00" stroke="#563B00" stroke-width="0.67"/>
<path d="M14.7165 54.1937C10.7419 52.8362 5.63646 58.945 3.58059 62.1691C1.18208 69.6353 6.66439 84.2284 11.8041 79.6469C16.9437 75.0653 21.5694 65.5628 21.9121 62.8478C22.2547 60.1328 19.6849 55.8906 14.7165 54.1937Z" fill="#311A00" stroke="#563B00" stroke-width="0.67"/>
<rect x="23.2417" y="54.6377" width="1.56019" height="7.46497" fill="white" stroke="#563B00" stroke-width="0.67"/>
<path d="M18.5308 63.7762C19.9155 62.7982 23.0114 60.9038 24.317 61.1509C25.949 61.4598 28.1744 62.5408 29.6581 63.4674C27.7788 64.2395 21.9431 64.8573 18.5308 63.7762Z" fill="white"/>
<path d="M18.5308 63.7762C19.9155 62.7982 23.0114 60.9038 24.317 61.1509C25.949 61.4598 28.1744 62.5408 29.6581 63.4674M18.5308 63.7762C21.9431 64.8573 27.7788 64.2395 29.6581 63.4674M18.5308 63.7762C22.5366 63.313 27.759 63.2203 29.6581 63.4674" stroke="#563B00" stroke-width="0.67" stroke-linejoin="round"/>
<path d="M27.5259 18.0335C28.0412 16.8752 28.975 16.096 30.0162 15.4221C30.1235 15.3484 30.1879 15.2746 30.2201 15.1588C30.4777 14.3796 30.4992 13.5688 30.5529 12.7685C30.6173 11.6839 30.4885 10.6203 30.2631 9.5568C30.2416 9.4515 30.1987 9.39885 30.0913 9.35673C29.0501 8.97765 28.6315 8.1563 28.4598 7.14541C28.3954 6.77685 28.3739 6.4083 28.4598 6.03974C28.6852 4.99726 29.6834 4.42864 30.7246 4.72348C31.4223 4.93408 31.9268 5.36582 32.3025 5.9555C32.5064 6.29247 32.6997 6.62943 32.807 7.01905C32.968 7.65085 32.8285 8.18789 32.3884 8.67227C32.002 9.08295 31.959 9.01977 32.3132 9.56733C32.9895 10.6309 33.9126 11.4733 34.9752 12.1683C35.3295 12.3999 35.7051 12.6105 36.0594 12.8317C36.1452 12.8843 36.2311 12.8843 36.3384 12.8527C37.4333 12.6 38.5496 12.4105 39.6767 12.3473C40.1382 12.3262 40.5998 12.242 41.0721 12.263C41.1579 12.263 41.1794 12.242 41.2009 12.1472C41.3512 11.4628 41.4263 10.7678 41.3941 10.0622C41.3834 9.83058 41.4156 9.58839 41.3619 9.3462C41.3404 9.26196 41.3082 9.20931 41.2331 9.17772C40.2992 8.70386 39.7733 7.94569 39.6015 6.94533C39.3761 5.66066 39.6337 4.47076 40.4602 3.42828C40.9111 2.85965 41.5229 2.53322 42.2635 2.51216C42.811 2.4911 43.3691 2.47004 43.9058 2.7017C44.7645 3.08078 45.2583 3.76524 45.5481 4.58659C45.9345 5.68172 45.9882 6.78738 45.4622 7.85092C45.1724 8.43008 44.7431 8.8934 44.142 9.17772C44.0561 9.21984 44.0132 9.26196 44.0024 9.35673C43.9487 9.96748 43.938 10.5677 44.0024 11.1784C44.0346 11.4943 44.0883 11.8102 44.1527 12.1261C44.1742 12.2209 44.1849 12.2525 44.2922 12.2525C45.9023 12.3052 47.4909 12.4736 49.0473 12.8633C49.1332 12.8843 49.2191 12.8948 49.305 12.8422C50.2925 12.2314 51.2907 11.6102 52.0958 10.7678C52.4929 10.3466 52.8364 9.88323 53.1477 9.40938C53.298 9.17772 53.2765 8.98817 53.0833 8.77757C52.8149 8.49326 52.5895 8.18789 52.5251 7.77721C52.4822 7.46131 52.4929 7.16647 52.6003 6.87162C52.9115 6.00815 53.3624 5.26052 54.2425 4.84984C54.9617 4.52341 55.6594 4.53394 56.282 5.04992C56.6362 5.34476 56.8616 5.7449 56.8938 6.1977C56.9797 7.14541 56.7972 8.04047 56.121 8.7881C55.9063 9.0303 55.6379 9.19878 55.3374 9.30408C55.1549 9.36726 55.0905 9.4515 55.0476 9.64104C54.8329 10.6625 54.7256 11.6944 54.7792 12.7369C54.8222 13.5372 54.8758 14.348 55.1012 15.1272C55.1442 15.2641 55.2086 15.3589 55.3267 15.4326C56.1317 15.9591 56.8831 16.5488 57.4198 17.3596C57.5593 17.5702 57.6774 17.8019 57.8276 18.0441C58.1067 17.6966 58.3751 17.3491 58.6434 17.0016C59.1801 16.2961 59.6309 15.5274 60.0066 14.7271C60.0603 14.6218 60.0603 14.5586 59.9744 14.4638C59.5665 14.0321 59.3733 13.4951 59.2875 12.9264C59.105 11.6628 59.6524 10.6098 60.3286 9.60945C60.6399 9.15666 60.9619 8.70386 61.3806 8.32478C62.1212 7.67191 62.9692 7.39813 63.9352 7.60873C64.7188 7.77721 65.2662 8.25107 65.4916 9.00924C65.6204 9.4515 65.6097 9.93588 65.5775 10.3992C65.5131 11.2837 65.2447 12.1156 64.8047 12.8738C64.1821 13.9584 63.3341 14.8008 62.0675 15.1588C61.9602 15.1904 61.9387 15.2431 61.9173 15.3062C61.6596 16.0118 61.4664 16.7383 61.3698 17.486C61.241 18.5074 61.445 19.4762 61.767 20.4344C61.7884 20.5081 61.8206 20.5818 61.8636 20.645C62.0675 21.0136 62.2071 21.0662 62.5935 20.8767C63.1838 20.5818 63.6991 20.1922 64.2036 19.7815C64.7295 19.3393 65.2448 18.8865 65.7278 18.3916C66.8548 17.2227 67.8423 15.9486 68.6689 14.5586C68.7225 14.4744 68.7547 14.4322 68.6367 14.3585C68.379 14.19 68.2717 13.7583 68.3898 13.3898C68.5615 12.8422 68.9694 12.4736 69.3988 12.1367C70.4721 11.3048 71.6743 10.7362 73.0053 10.4308C73.3703 10.3466 73.7138 10.3255 74.0465 10.5888C74.3471 10.8204 74.3578 11.0942 74.3149 11.4101C74.229 11.9471 73.9285 12.3894 73.6064 12.8001C73.1663 13.3687 72.6404 13.8531 72.0178 14.2427C71.3953 14.6323 70.923 15.1693 70.4936 15.759C69.6671 16.8752 68.8191 17.9704 67.9712 19.0655C67.0373 20.2765 66.2215 21.5717 65.438 22.8774C64.4612 24.4885 63.5059 26.1207 62.7223 27.8265C62.0353 29.3323 61.3806 30.8592 61.0263 32.4808C60.8117 33.4496 60.6936 34.4184 60.7795 35.4082C60.8331 36.0084 60.9297 36.5876 61.1337 37.1457C61.1873 37.2826 61.2196 37.3563 61.4128 37.3036C62.0246 37.1562 62.6257 37.5985 62.733 38.1987C62.8511 38.8094 62.6257 39.3465 62.3251 39.8414C61.6489 40.9471 60.6936 41.7895 59.6309 42.516C57.3983 44.0324 54.908 45.0222 52.3104 45.7488C50.915 46.1384 49.4982 46.4438 48.0813 46.6965C47.2118 46.8544 46.3209 46.9282 45.4408 47.0545C44.0132 47.2546 42.5856 47.1703 41.1687 47.1809C40.6749 47.1809 40.1812 47.0966 39.6874 47.0335C39.14 46.9703 38.5926 46.8755 38.0451 46.8123C37.2186 46.707 36.4136 46.5491 35.5978 46.3701C34.1058 46.0436 32.6245 45.6961 31.1862 45.1802C29.136 44.443 27.1502 43.5796 25.3899 42.2949C24.456 41.6104 23.6188 40.8312 23.007 39.8414C22.7816 39.4728 22.5991 39.0727 22.5669 38.641C22.5025 37.8301 23.0499 37.1036 23.9945 37.3142C24.134 37.3458 24.1448 37.272 24.177 37.1983C24.3487 36.8298 24.4238 36.4191 24.4882 36.0295C24.6171 35.2819 24.6171 34.5342 24.5419 33.7866C24.4024 32.5335 24.0482 31.3225 23.6081 30.1432C22.6098 27.5001 21.2251 25.0466 19.7761 22.6352C18.7886 20.9925 17.6937 19.434 16.5022 17.9282C15.8582 17.1174 15.2679 16.275 14.6453 15.4537C14.2803 14.9587 13.8295 14.5586 13.3036 14.2111C12.4019 13.653 11.672 12.9264 11.1997 11.9787C11.0709 11.726 10.9958 11.4733 10.9958 11.189C10.985 10.7151 11.5003 10.2939 11.9726 10.3676C13.1103 10.5677 14.173 10.9784 15.1498 11.5996C15.7509 11.9787 16.3412 12.3789 16.7491 12.9791C17.0389 13.4003 17.0604 13.8636 16.8135 14.2322C16.8028 14.2532 16.7921 14.2848 16.7706 14.2954C16.4486 14.4322 16.6633 14.6007 16.7599 14.7481C17.683 16.2329 18.7456 17.6123 20.023 18.8128C20.828 19.5815 21.6545 20.3291 22.6635 20.8451C23.1358 21.0873 23.2968 21.0451 23.5007 20.5397C23.7476 19.95 23.8657 19.3287 23.9516 18.6864C24.0911 17.5281 23.7905 16.4435 23.4149 15.3694C23.3612 15.2325 23.2968 15.1799 23.1572 15.1378C21.7296 14.6744 20.8387 13.6635 20.2484 12.3578C20.0337 11.8734 19.8512 11.3785 19.7868 10.8415C19.7117 10.2623 19.5829 9.68316 19.7653 9.09348C20.0122 8.27213 20.7851 7.5982 21.6974 7.54555C22.8782 7.46131 23.7369 7.98781 24.4346 8.85128C25.0142 9.57786 25.5616 10.3255 25.8514 11.21C26.1949 12.2314 26.1627 13.2213 25.5831 14.169C25.5724 14.19 25.5616 14.2111 25.5402 14.2322C25.1859 14.4849 25.3148 14.7587 25.465 15.064C25.9588 16.0539 26.6028 16.9489 27.2898 17.8124C27.3649 17.8861 27.3971 18.0019 27.5259 18.0335ZM53.4482 29.1533C53.4268 29.0902 53.4268 29.0796 53.4268 29.0796C53.4375 29.0796 53.4375 29.0796 53.4482 29.0796C53.4804 29.0796 53.5126 29.0691 53.5448 29.0691C57.0011 27.9845 60.2642 26.4997 63.2482 24.4569C63.4415 24.32 63.6025 24.1726 63.7313 23.9725C65.6848 21.003 67.7887 18.1494 70.2575 15.5695C70.6439 15.1693 70.9981 14.7376 71.4597 14.4007C71.9964 14.0005 72.5116 13.5793 72.9624 13.1054C73.3381 12.7158 73.6601 12.2841 73.8426 11.7787C74.0573 11.1574 73.7567 10.7572 73.0912 10.7678C73.0161 10.7678 72.9302 10.7783 72.8551 10.7888C71.6851 10.9678 70.6332 11.4312 69.6993 12.1367C69.3451 12.3999 69.0123 12.6948 68.8084 13.0949C68.5937 13.5161 68.7225 13.99 69.0982 14.0953C69.2914 14.1479 69.2592 14.2322 69.1948 14.3585C68.744 15.1272 68.3146 15.9065 67.8209 16.6541C66.7475 18.2652 65.4916 19.6973 63.8708 20.7924C63.4415 21.0873 62.9799 21.34 62.4754 21.4874C62.2607 21.5506 62.0461 21.519 61.8958 21.3611C61.6489 21.0873 61.4342 20.7819 61.2947 20.4239C61.1766 20.129 61.1659 19.8131 61.1229 19.4972C61.0263 18.7706 61.0049 18.0546 61.08 17.328C61.1551 16.5383 61.3698 15.7801 61.6596 15.043C61.767 14.7587 61.8743 14.4954 62.2715 14.5586C62.3251 14.5691 62.3895 14.5165 62.4539 14.4954C63.9352 13.8531 64.751 12.6842 65.1159 11.189C65.2662 10.5782 65.3414 9.94641 65.2233 9.31461C65.1052 8.71439 64.6866 8.051 63.8386 7.97728C63.4307 7.94569 63.0336 8.00888 62.6472 8.12471C61.7884 8.38796 61.1981 9.00924 60.7043 9.69369C60.1569 10.4308 59.8134 11.2943 59.6953 12.2104C59.5773 13.1265 59.8241 13.9057 60.7365 14.348C60.8761 14.4217 60.8439 14.4849 60.8009 14.5902C60.5326 15.1588 60.2857 15.738 59.9637 16.275C58.8044 18.202 57.2802 19.7921 55.4769 21.1399C54.7148 21.7085 53.942 22.2772 53.0403 22.6352C51.6771 23.1828 50.3891 23.1196 49.1869 22.2456C48.3711 21.6559 47.6841 20.9504 47.126 20.129C45.9989 18.4653 45.1402 16.6752 44.5069 14.7797C44.099 13.5477 43.8307 12.2841 43.7233 10.9784C43.6804 10.4203 43.6911 9.8727 43.6804 9.31461C43.6697 9.10401 43.7448 8.99871 43.9273 8.91446C44.4747 8.65121 44.9041 8.2616 45.1402 7.71403C45.6876 6.41883 45.5052 5.18681 44.7431 4.02849C44.2815 3.34404 43.6375 2.90177 42.7788 2.85965C41.8664 2.81753 41.1794 3.2598 40.6642 3.97584C40.0953 4.75507 39.8806 5.61854 39.945 6.56625C40.0094 7.55608 40.4173 8.34584 41.319 8.83022C41.5873 8.97764 41.7054 9.11454 41.7054 9.44097C41.7268 10.6835 41.598 11.905 41.3297 13.1054C40.9218 14.9166 40.2456 16.633 39.3654 18.2652C38.6248 19.6552 37.7768 20.9609 36.5316 21.9823C35.7373 22.6352 34.8572 23.0248 33.8267 22.9722C33.0109 22.93 32.2596 22.6668 31.5619 22.2561C30.4348 21.5927 29.3936 20.8135 28.4383 19.9184C26.796 18.4021 25.465 16.6857 24.5956 14.6428C24.5204 14.4744 24.5204 14.4007 24.7029 14.3059C25.1967 14.0426 25.5294 13.653 25.6475 13.0949C25.7334 12.6632 25.7119 12.242 25.6046 11.8313C25.3684 10.9257 25.0357 10.0622 24.3809 9.33567C23.7047 8.5775 22.9318 8.00887 21.837 7.97728C21.1607 7.95622 20.6133 8.23001 20.3235 8.81969C20.1625 9.14613 20.0766 9.50415 20.0981 9.8727C20.1303 10.2939 20.141 10.7046 20.2376 11.1153C20.5811 12.6632 21.4184 13.8426 22.9104 14.506C23.007 14.5481 23.1036 14.5691 23.2109 14.5691C23.329 14.5691 23.4793 14.5586 23.5544 14.7271C23.9945 15.7064 24.2628 16.7173 24.3058 17.7913C24.3272 18.3705 24.2736 18.9391 24.2306 19.5183C24.177 20.1817 23.973 20.7503 23.5329 21.2558C23.3183 21.4979 23.1572 21.5717 22.8352 21.4769C22.3307 21.3295 21.8692 21.0767 21.4398 20.7819C20.0444 19.8131 18.8959 18.6127 17.9191 17.2438C17.2536 16.3066 16.6955 15.3273 16.1266 14.3375C16.0729 14.2427 16.0407 14.1585 16.2017 14.1163C16.4593 14.0532 16.5774 13.8636 16.6096 13.6214C16.6633 13.1792 16.4164 12.8633 16.1373 12.5789C15.4825 11.9366 14.699 11.4733 13.8402 11.1468C13.3787 10.9678 12.8957 10.8415 12.4019 10.7783C11.7257 10.7046 11.4573 10.9047 11.4251 11.4522C11.4144 11.6523 11.4895 11.8313 11.5754 12.0103C11.9189 12.7158 12.4663 13.2529 13.0567 13.7583C13.4646 14.1058 13.9154 14.4007 14.3018 14.7797C14.9888 15.4642 15.665 16.1592 16.2983 16.8858C18.1982 19.1181 19.9693 21.4348 21.5472 23.8883C21.676 24.0884 21.8155 24.2674 22.0195 24.4148C23.7476 25.6047 25.5831 26.605 27.5045 27.458C28.8569 28.0582 30.2523 28.5952 31.6692 29.027C31.7443 29.048 31.8409 29.0375 31.8731 29.1639C28.6101 28.4899 25.5402 27.3632 22.6742 25.71C22.6635 25.7626 22.6742 25.7837 22.685 25.7942C23.6188 27.5949 24.5956 29.3745 25.1001 31.3541C25.2826 32.0596 25.4328 32.7757 25.508 33.5023C25.6582 35.145 25.4114 36.7455 24.8639 38.2935C24.7888 38.5251 24.8103 38.7041 24.982 38.8937C25.3362 39.2833 25.7012 39.6624 26.1198 39.9993C27.5367 41.1682 29.0931 42.1159 30.7354 42.9478C31.154 43.1584 31.5511 43.39 32.002 43.5375C32.4206 43.6744 32.8285 43.8534 33.2471 44.0218C33.1612 44.0113 33.0753 43.9902 33.0002 43.9692C30.467 43.2005 28.1163 42.0738 26.0554 40.4205C25.6153 40.0625 25.1859 39.694 24.821 39.2517C24.6922 39.0938 24.5956 38.9253 24.6171 38.7147C24.6493 38.4409 24.5419 38.2829 24.2521 38.2092C23.9623 38.1355 23.7798 38.2198 23.6725 38.483C23.5437 38.8305 23.651 39.1569 23.8227 39.4307C24.0696 39.8309 24.338 40.2205 24.6815 40.5469C25.8407 41.6526 27.1395 42.5687 28.5779 43.2742C29.9089 43.9271 31.315 44.4115 32.7211 44.8853C34.3097 45.4223 35.9306 45.8857 37.5943 46.191C38.3242 46.3279 39.0541 46.4122 39.784 46.528C40.6964 46.6649 41.6195 46.7702 42.5426 46.7913C43.5301 46.8123 44.5069 46.686 45.473 46.5491C46.2136 46.4543 46.9542 46.349 47.6841 46.2121C49.423 45.8857 51.1297 45.4013 52.8042 44.8327C54.5001 44.2535 56.1961 43.6743 57.731 42.7582C59.1479 41.9158 60.4896 40.9681 61.4342 39.5887C61.6918 39.2201 61.8528 38.841 61.6489 38.3988C61.563 38.1987 61.3698 38.125 61.1122 38.1882C60.9083 38.2408 60.6721 38.3461 60.7151 38.5672C60.7902 38.9463 60.597 39.1885 60.3716 39.4202C59.5558 40.2731 58.622 40.9786 57.613 41.6104C56.4537 42.337 55.23 42.9478 53.942 43.4216C53.3302 43.6428 52.7291 43.8744 52.085 44.0218C52.7827 43.8112 53.459 43.5269 54.1137 43.2005C55.0905 42.7266 56.0566 42.2107 56.9689 41.6104C58.1926 40.8102 59.3948 39.9888 60.3608 38.8726C60.5111 38.6936 60.5326 38.5251 60.4682 38.3145C60.1569 37.3563 59.8885 36.3875 59.8134 35.3766C59.6739 33.5023 60.0174 31.7016 60.6614 29.9431C61.1659 28.5636 61.8636 27.2684 62.5398 25.9627C62.572 25.889 62.6472 25.8258 62.6042 25.6889C59.749 27.3737 56.6899 28.5005 53.4482 29.1533ZM33.9555 22.6457C34.3097 22.6457 34.6854 22.6457 34.9967 22.4772C35.5441 22.1719 36.0701 21.8244 36.5531 21.4032C37.5943 20.4976 38.3242 19.3709 38.9682 18.181C39.8591 16.5488 40.5246 14.8324 40.9969 13.0423C41.0506 12.8527 40.9969 12.8211 40.8252 12.8422C40.2348 12.8948 39.6445 12.958 39.0434 13.0212C37.605 13.1792 36.1882 13.4635 34.8035 13.8426C32.9358 14.3585 31.1647 15.0746 29.6083 16.2434C28.9106 16.7699 28.2558 17.3491 27.7835 18.0967C27.6869 18.2547 27.7084 18.3494 27.8157 18.4863C28.8462 19.6552 29.9733 20.7082 31.2076 21.6664C32.0234 22.2772 32.9143 22.6247 33.9555 22.6457ZM51.1297 22.6563C52.128 22.6141 52.8471 22.4772 53.4804 22.0666C54.1889 21.6138 54.8436 21.0767 55.4662 20.5081C56.1639 19.8763 56.8294 19.2024 57.4627 18.4969C57.5915 18.3494 57.6666 18.2336 57.5164 18.0335C57.3232 17.7703 57.1299 17.507 56.9045 17.2754C55.7023 16.0223 54.2318 15.1799 52.6217 14.5375C50.2281 13.5793 47.7271 13.137 45.1724 12.8843C44.9255 12.8633 44.6787 12.8001 44.421 12.8317C44.3137 12.8422 44.2493 12.8633 44.3137 12.9896C44.3352 13.0317 44.3352 13.0949 44.3566 13.1476C44.8719 15.1167 45.6447 16.9805 46.6644 18.7496C47.3836 19.9921 48.253 21.0978 49.4552 21.9297C50.0349 22.3298 50.6038 22.73 51.1297 22.6563Z" fill="#563B00"/>
<g filter="url(#filter0_d_328_1034)">
<mask id="path-10-outside-1_328_1034" maskUnits="userSpaceOnUse" x="10.4243" y="1.86719" width="64" height="46" fill="black">
<rect fill="white" x="10.4243" y="1.86719" width="64" height="46"/>
<path d="M53.4484 29.153C56.6901 28.5002 59.7385 27.3735 62.6044 25.6992C62.6474 25.8361 62.5722 25.8992 62.54 25.9729C61.8638 27.2787 61.1661 28.5739 60.6616 29.9533C60.0176 31.7119 59.6633 33.5125 59.8136 35.3869C59.8888 36.3978 60.1571 37.3665 60.4684 38.3248C60.5328 38.5354 60.5113 38.7144 60.361 38.8829C59.4057 39.9991 58.1928 40.8204 56.9691 41.6207C56.0568 42.2209 55.0907 42.7369 54.1139 43.2107C53.4592 43.5266 52.7829 43.811 52.0852 44.0321C52.7185 43.8847 53.3304 43.6635 53.9422 43.4319C55.2303 42.958 56.4539 42.3473 57.6132 41.6207C58.6114 40.9889 59.556 40.2939 60.3718 39.4304C60.5972 39.1882 60.7797 38.9566 60.7153 38.5775C60.6723 38.3564 60.9085 38.2511 61.1124 38.1984C61.37 38.1352 61.5525 38.2089 61.6491 38.409C61.8423 38.8513 61.6813 39.2304 61.4344 39.5989C60.4899 40.9784 59.1481 41.9261 57.7313 42.7685C56.1856 43.6846 54.4896 44.2637 52.8044 44.8429C51.1299 45.4221 49.4232 45.8959 47.6843 46.2223C46.9544 46.3592 46.2138 46.4645 45.4732 46.5593C44.4964 46.6857 43.5196 46.8226 42.5428 46.8015C41.6197 46.7804 40.6966 46.6857 39.7842 46.5383C39.0543 46.4224 38.3244 46.3382 37.5945 46.2013C35.9308 45.8959 34.3207 45.4326 32.7213 44.8956C31.3152 44.4217 29.9091 43.9373 28.5781 43.2844C27.129 42.5789 25.8409 41.6628 24.6817 40.5571C24.3382 40.2307 24.0698 39.8411 23.823 39.441C23.6512 39.1566 23.5439 38.8302 23.6727 38.4932C23.78 38.23 23.9625 38.1458 24.2523 38.2195C24.5421 38.2932 24.6495 38.4511 24.6173 38.7249C24.5958 38.9355 24.6924 39.1145 24.8212 39.2619C25.1862 39.7042 25.6155 40.0728 26.0556 40.4308C28.1165 42.0945 30.4672 43.2107 33.0004 43.9794C33.0756 44.0005 33.1614 44.0216 33.2473 44.0321C32.8287 43.8636 32.4208 43.6951 32.0022 43.5477C31.5513 43.4003 31.1542 43.1686 30.7356 42.958C29.104 42.1261 27.5369 41.1679 26.12 40.0096C25.7121 39.6726 25.3364 39.2935 24.9822 38.9039C24.8105 38.7144 24.789 38.5248 24.8641 38.3037C25.4116 36.7453 25.6585 35.1552 25.5082 33.5125C25.4438 32.7859 25.2828 32.0699 25.1003 31.3644C24.5958 29.3847 23.619 27.6051 22.6852 25.8045C22.6744 25.7834 22.6637 25.7729 22.6744 25.7202C25.5404 27.3629 28.5995 28.5002 31.8734 29.1741C31.8412 29.0372 31.7338 29.0583 31.6694 29.0372C30.2418 28.6055 28.8571 28.0684 27.5047 27.4682C25.5833 26.6153 23.7478 25.6149 22.0197 24.425C21.8157 24.2776 21.6762 24.0986 21.5474 23.8985C19.9588 21.445 18.1877 19.1178 16.2985 16.896C15.676 16.1589 14.989 15.4639 14.302 14.79C13.9263 14.4109 13.4648 14.116 13.0569 13.7686C12.4665 13.2631 11.9191 12.7261 11.5756 12.0206C11.4897 11.8415 11.4146 11.652 11.4253 11.4625C11.4575 10.9149 11.7259 10.7148 12.4021 10.7885C12.8959 10.8412 13.3789 10.9781 13.8405 11.1571C14.6992 11.4835 15.4827 11.9468 16.1375 12.5892C16.4273 12.8735 16.6742 13.1894 16.6098 13.6317C16.5776 13.8844 16.4703 14.0739 16.2019 14.1266C16.0409 14.1687 16.0731 14.2529 16.1268 14.3477C16.6957 15.3375 17.2538 16.3274 17.9193 17.254C18.8961 18.6229 20.0446 19.8339 21.44 20.7921C21.8694 21.087 22.331 21.3397 22.8354 21.4871C23.1575 21.5819 23.3185 21.5082 23.5331 21.266C23.9732 20.7605 24.1772 20.1919 24.2308 19.5285C24.2845 18.9494 24.3275 18.3807 24.306 17.8016C24.263 16.738 23.9947 15.7166 23.5546 14.7373C23.4795 14.5688 23.3292 14.5794 23.2111 14.5794C23.1038 14.5794 23.0072 14.5583 22.9106 14.5162C21.4078 13.8423 20.5813 12.6734 20.2378 11.1255C20.1412 10.7148 20.1305 10.2936 20.0983 9.88295C20.0768 9.51439 20.152 9.15637 20.3237 8.82994C20.6243 8.22972 21.1717 7.96647 21.8372 7.98753C22.9213 8.01912 23.6942 8.58774 24.3811 9.34591C25.0252 10.0725 25.3579 10.936 25.6048 11.8415C25.7121 12.2522 25.7336 12.684 25.6477 13.1052C25.5404 13.6633 25.2076 14.0634 24.7031 14.3161C24.5207 14.4109 24.5207 14.4846 24.5958 14.6531C25.4652 16.7065 26.7962 18.4229 28.4385 19.9287C29.3938 20.8132 30.435 21.5924 31.5621 22.2664C32.2598 22.677 33.0112 22.9508 33.8269 22.9824C34.8681 23.035 35.7483 22.6349 36.5319 21.9926C37.777 20.9712 38.625 19.6654 39.3656 18.2754C40.2458 16.6327 40.922 14.9163 41.3299 13.1157C41.5982 11.9047 41.7271 10.6832 41.7056 9.45121C41.6949 9.13531 41.5875 8.98789 41.3192 8.84047C40.4175 8.35608 40.0096 7.55579 39.9452 6.57649C39.8808 5.62878 40.1062 4.75478 40.6644 3.98609C41.1796 3.28057 41.8559 2.82777 42.779 2.86989C43.6377 2.91202 44.2817 3.35428 44.7433 4.03874C45.5054 5.19705 45.6986 6.42907 45.1404 7.72427C44.9043 8.28237 44.4749 8.67198 43.9275 8.92471C43.745 9.00895 43.6806 9.11425 43.6806 9.32485C43.6913 9.88295 43.6806 10.4305 43.7235 10.9886C43.8309 12.2838 44.0992 13.5474 44.5071 14.79C45.1404 16.6854 45.9884 18.4755 47.1262 20.1393C47.6843 20.9606 48.3713 21.6767 49.1871 22.2558C50.3893 23.1298 51.6881 23.193 53.0406 22.6454C53.9422 22.2874 54.715 21.7188 55.4771 21.1502C57.2804 19.8023 58.8154 18.2017 59.9639 16.2853C60.2859 15.7482 60.5435 15.1691 60.8011 14.6004C60.8441 14.4951 60.8763 14.432 60.7367 14.3582C59.8244 13.916 59.5775 13.1367 59.6955 12.2206C59.8136 11.3045 60.1571 10.4516 60.7045 9.70393C61.1983 9.03001 61.7887 8.40873 62.6474 8.13495C63.0338 8.01912 63.4309 7.94541 63.8388 7.98753C64.6868 8.06124 65.1054 8.73516 65.2235 9.32485C65.3416 9.95666 65.2664 10.5885 65.1162 11.1992C64.7619 12.6945 63.9354 13.8633 62.4542 14.5057C62.4005 14.5267 62.3253 14.5794 62.2717 14.5688C61.8745 14.5057 61.7779 14.7584 61.6598 15.0532C61.37 15.7903 61.1554 16.5485 61.0802 17.3383C61.0051 18.0648 61.0265 18.7809 61.1231 19.5075C61.1661 19.8234 61.1768 20.1287 61.2949 20.4341C61.4344 20.7816 61.6491 21.087 61.896 21.3713C62.0463 21.5398 62.2609 21.5608 62.4756 21.4977C62.9908 21.3502 63.4417 21.0975 63.871 20.8027C65.4918 19.697 66.7477 18.2649 67.8211 16.6643C68.3148 15.9167 68.7442 15.1375 69.195 14.3688C69.2702 14.2424 69.3024 14.1582 69.0984 14.1055C68.7335 14.0002 68.6047 13.5264 68.8086 13.1052C69.0125 12.705 69.3453 12.4102 69.6995 12.1469C70.6334 11.4414 71.6853 10.9781 72.8553 10.7991C72.9304 10.7885 73.0163 10.778 73.0914 10.778C73.7569 10.7675 74.0682 11.1676 73.8428 11.7889C73.6603 12.3049 73.3383 12.7261 72.9626 13.1157C72.5011 13.6001 71.9966 14.0213 71.4599 14.4109C70.9983 14.7479 70.6441 15.1796 70.2577 15.5797C67.7889 18.1596 65.685 21.0238 63.7315 23.9828C63.6027 24.1828 63.4417 24.3303 63.2485 24.4671C60.2644 26.51 57.0013 27.9947 53.545 29.0793C53.5128 29.0899 53.4806 29.0899 53.4484 29.0899C53.4377 29.0899 53.4377 29.0899 53.427 29.0899C53.427 29.0793 53.427 29.0899 53.4484 29.153ZM33.3976 44.0847C33.3761 44.0742 33.3654 44.0637 33.3439 44.0637C33.3224 44.0742 33.3224 44.0847 33.3439 44.0847C33.3654 44.0953 33.3868 44.0847 33.3976 44.0847ZM51.9779 44.0847C51.9779 44.0742 51.9779 44.0637 51.9779 44.0637C51.9672 44.0637 51.9457 44.0637 51.935 44.0637C51.9135 44.0637 51.9135 44.0742 51.935 44.0847C51.9457 44.0953 51.9672 44.0847 51.9779 44.0847Z"/>
</mask>
<path d="M53.4484 29.153C56.6901 28.5002 59.7385 27.3735 62.6044 25.6992C62.6474 25.8361 62.5722 25.8992 62.54 25.9729C61.8638 27.2787 61.1661 28.5739 60.6616 29.9533C60.0176 31.7119 59.6633 33.5125 59.8136 35.3869C59.8888 36.3978 60.1571 37.3665 60.4684 38.3248C60.5328 38.5354 60.5113 38.7144 60.361 38.8829C59.4057 39.9991 58.1928 40.8204 56.9691 41.6207C56.0568 42.2209 55.0907 42.7369 54.1139 43.2107C53.4592 43.5266 52.7829 43.811 52.0852 44.0321C52.7185 43.8847 53.3304 43.6635 53.9422 43.4319C55.2303 42.958 56.4539 42.3473 57.6132 41.6207C58.6114 40.9889 59.556 40.2939 60.3718 39.4304C60.5972 39.1882 60.7797 38.9566 60.7153 38.5775C60.6723 38.3564 60.9085 38.2511 61.1124 38.1984C61.37 38.1352 61.5525 38.2089 61.6491 38.409C61.8423 38.8513 61.6813 39.2304 61.4344 39.5989C60.4899 40.9784 59.1481 41.9261 57.7313 42.7685C56.1856 43.6846 54.4896 44.2637 52.8044 44.8429C51.1299 45.4221 49.4232 45.8959 47.6843 46.2223C46.9544 46.3592 46.2138 46.4645 45.4732 46.5593C44.4964 46.6857 43.5196 46.8226 42.5428 46.8015C41.6197 46.7804 40.6966 46.6857 39.7842 46.5383C39.0543 46.4224 38.3244 46.3382 37.5945 46.2013C35.9308 45.8959 34.3207 45.4326 32.7213 44.8956C31.3152 44.4217 29.9091 43.9373 28.5781 43.2844C27.129 42.5789 25.8409 41.6628 24.6817 40.5571C24.3382 40.2307 24.0698 39.8411 23.823 39.441C23.6512 39.1566 23.5439 38.8302 23.6727 38.4932C23.78 38.23 23.9625 38.1458 24.2523 38.2195C24.5421 38.2932 24.6495 38.4511 24.6173 38.7249C24.5958 38.9355 24.6924 39.1145 24.8212 39.2619C25.1862 39.7042 25.6155 40.0728 26.0556 40.4308C28.1165 42.0945 30.4672 43.2107 33.0004 43.9794C33.0756 44.0005 33.1614 44.0216 33.2473 44.0321C32.8287 43.8636 32.4208 43.6951 32.0022 43.5477C31.5513 43.4003 31.1542 43.1686 30.7356 42.958C29.104 42.1261 27.5369 41.1679 26.12 40.0096C25.7121 39.6726 25.3364 39.2935 24.9822 38.9039C24.8105 38.7144 24.789 38.5248 24.8641 38.3037C25.4116 36.7453 25.6585 35.1552 25.5082 33.5125C25.4438 32.7859 25.2828 32.0699 25.1003 31.3644C24.5958 29.3847 23.619 27.6051 22.6852 25.8045C22.6744 25.7834 22.6637 25.7729 22.6744 25.7202C25.5404 27.3629 28.5995 28.5002 31.8734 29.1741C31.8412 29.0372 31.7338 29.0583 31.6694 29.0372C30.2418 28.6055 28.8571 28.0684 27.5047 27.4682C25.5833 26.6153 23.7478 25.6149 22.0197 24.425C21.8157 24.2776 21.6762 24.0986 21.5474 23.8985C19.9588 21.445 18.1877 19.1178 16.2985 16.896C15.676 16.1589 14.989 15.4639 14.302 14.79C13.9263 14.4109 13.4648 14.116 13.0569 13.7686C12.4665 13.2631 11.9191 12.7261 11.5756 12.0206C11.4897 11.8415 11.4146 11.652 11.4253 11.4625C11.4575 10.9149 11.7259 10.7148 12.4021 10.7885C12.8959 10.8412 13.3789 10.9781 13.8405 11.1571C14.6992 11.4835 15.4827 11.9468 16.1375 12.5892C16.4273 12.8735 16.6742 13.1894 16.6098 13.6317C16.5776 13.8844 16.4703 14.0739 16.2019 14.1266C16.0409 14.1687 16.0731 14.2529 16.1268 14.3477C16.6957 15.3375 17.2538 16.3274 17.9193 17.254C18.8961 18.6229 20.0446 19.8339 21.44 20.7921C21.8694 21.087 22.331 21.3397 22.8354 21.4871C23.1575 21.5819 23.3185 21.5082 23.5331 21.266C23.9732 20.7605 24.1772 20.1919 24.2308 19.5285C24.2845 18.9494 24.3275 18.3807 24.306 17.8016C24.263 16.738 23.9947 15.7166 23.5546 14.7373C23.4795 14.5688 23.3292 14.5794 23.2111 14.5794C23.1038 14.5794 23.0072 14.5583 22.9106 14.5162C21.4078 13.8423 20.5813 12.6734 20.2378 11.1255C20.1412 10.7148 20.1305 10.2936 20.0983 9.88295C20.0768 9.51439 20.152 9.15637 20.3237 8.82994C20.6243 8.22972 21.1717 7.96647 21.8372 7.98753C22.9213 8.01912 23.6942 8.58774 24.3811 9.34591C25.0252 10.0725 25.3579 10.936 25.6048 11.8415C25.7121 12.2522 25.7336 12.684 25.6477 13.1052C25.5404 13.6633 25.2076 14.0634 24.7031 14.3161C24.5207 14.4109 24.5207 14.4846 24.5958 14.6531C25.4652 16.7065 26.7962 18.4229 28.4385 19.9287C29.3938 20.8132 30.435 21.5924 31.5621 22.2664C32.2598 22.677 33.0112 22.9508 33.8269 22.9824C34.8681 23.035 35.7483 22.6349 36.5319 21.9926C37.777 20.9712 38.625 19.6654 39.3656 18.2754C40.2458 16.6327 40.922 14.9163 41.3299 13.1157C41.5982 11.9047 41.7271 10.6832 41.7056 9.45121C41.6949 9.13531 41.5875 8.98789 41.3192 8.84047C40.4175 8.35608 40.0096 7.55579 39.9452 6.57649C39.8808 5.62878 40.1062 4.75478 40.6644 3.98609C41.1796 3.28057 41.8559 2.82777 42.779 2.86989C43.6377 2.91202 44.2817 3.35428 44.7433 4.03874C45.5054 5.19705 45.6986 6.42907 45.1404 7.72427C44.9043 8.28237 44.4749 8.67198 43.9275 8.92471C43.745 9.00895 43.6806 9.11425 43.6806 9.32485C43.6913 9.88295 43.6806 10.4305 43.7235 10.9886C43.8309 12.2838 44.0992 13.5474 44.5071 14.79C45.1404 16.6854 45.9884 18.4755 47.1262 20.1393C47.6843 20.9606 48.3713 21.6767 49.1871 22.2558C50.3893 23.1298 51.6881 23.193 53.0406 22.6454C53.9422 22.2874 54.715 21.7188 55.4771 21.1502C57.2804 19.8023 58.8154 18.2017 59.9639 16.2853C60.2859 15.7482 60.5435 15.1691 60.8011 14.6004C60.8441 14.4951 60.8763 14.432 60.7367 14.3582C59.8244 13.916 59.5775 13.1367 59.6955 12.2206C59.8136 11.3045 60.1571 10.4516 60.7045 9.70393C61.1983 9.03001 61.7887 8.40873 62.6474 8.13495C63.0338 8.01912 63.4309 7.94541 63.8388 7.98753C64.6868 8.06124 65.1054 8.73516 65.2235 9.32485C65.3416 9.95666 65.2664 10.5885 65.1162 11.1992C64.7619 12.6945 63.9354 13.8633 62.4542 14.5057C62.4005 14.5267 62.3253 14.5794 62.2717 14.5688C61.8745 14.5057 61.7779 14.7584 61.6598 15.0532C61.37 15.7903 61.1554 16.5485 61.0802 17.3383C61.0051 18.0648 61.0265 18.7809 61.1231 19.5075C61.1661 19.8234 61.1768 20.1287 61.2949 20.4341C61.4344 20.7816 61.6491 21.087 61.896 21.3713C62.0463 21.5398 62.2609 21.5608 62.4756 21.4977C62.9908 21.3502 63.4417 21.0975 63.871 20.8027C65.4918 19.697 66.7477 18.2649 67.8211 16.6643C68.3148 15.9167 68.7442 15.1375 69.195 14.3688C69.2702 14.2424 69.3024 14.1582 69.0984 14.1055C68.7335 14.0002 68.6047 13.5264 68.8086 13.1052C69.0125 12.705 69.3453 12.4102 69.6995 12.1469C70.6334 11.4414 71.6853 10.9781 72.8553 10.7991C72.9304 10.7885 73.0163 10.778 73.0914 10.778C73.7569 10.7675 74.0682 11.1676 73.8428 11.7889C73.6603 12.3049 73.3383 12.7261 72.9626 13.1157C72.5011 13.6001 71.9966 14.0213 71.4599 14.4109C70.9983 14.7479 70.6441 15.1796 70.2577 15.5797C67.7889 18.1596 65.685 21.0238 63.7315 23.9828C63.6027 24.1828 63.4417 24.3303 63.2485 24.4671C60.2644 26.51 57.0013 27.9947 53.545 29.0793C53.5128 29.0899 53.4806 29.0899 53.4484 29.0899C53.4377 29.0899 53.4377 29.0899 53.427 29.0899C53.427 29.0793 53.427 29.0899 53.4484 29.153ZM33.3976 44.0847C33.3761 44.0742 33.3654 44.0637 33.3439 44.0637C33.3224 44.0742 33.3224 44.0847 33.3439 44.0847C33.3654 44.0953 33.3868 44.0847 33.3976 44.0847ZM51.9779 44.0847C51.9779 44.0742 51.9779 44.0637 51.9779 44.0637C51.9672 44.0637 51.9457 44.0637 51.935 44.0637C51.9135 44.0637 51.9135 44.0742 51.935 44.0847C51.9457 44.0953 51.9672 44.0847 51.9779 44.0847Z" fill="#FFE52F"/>
<path d="M53.4484 29.153C56.6901 28.5002 59.7385 27.3735 62.6044 25.6992C62.6474 25.8361 62.5722 25.8992 62.54 25.9729C61.8638 27.2787 61.1661 28.5739 60.6616 29.9533C60.0176 31.7119 59.6633 33.5125 59.8136 35.3869C59.8888 36.3978 60.1571 37.3665 60.4684 38.3248C60.5328 38.5354 60.5113 38.7144 60.361 38.8829C59.4057 39.9991 58.1928 40.8204 56.9691 41.6207C56.0568 42.2209 55.0907 42.7369 54.1139 43.2107C53.4592 43.5266 52.7829 43.811 52.0852 44.0321C52.7185 43.8847 53.3304 43.6635 53.9422 43.4319C55.2303 42.958 56.4539 42.3473 57.6132 41.6207C58.6114 40.9889 59.556 40.2939 60.3718 39.4304C60.5972 39.1882 60.7797 38.9566 60.7153 38.5775C60.6723 38.3564 60.9085 38.2511 61.1124 38.1984C61.37 38.1352 61.5525 38.2089 61.6491 38.409C61.8423 38.8513 61.6813 39.2304 61.4344 39.5989C60.4899 40.9784 59.1481 41.9261 57.7313 42.7685C56.1856 43.6846 54.4896 44.2637 52.8044 44.8429C51.1299 45.4221 49.4232 45.8959 47.6843 46.2223C46.9544 46.3592 46.2138 46.4645 45.4732 46.5593C44.4964 46.6857 43.5196 46.8226 42.5428 46.8015C41.6197 46.7804 40.6966 46.6857 39.7842 46.5383C39.0543 46.4224 38.3244 46.3382 37.5945 46.2013C35.9308 45.8959 34.3207 45.4326 32.7213 44.8956C31.3152 44.4217 29.9091 43.9373 28.5781 43.2844C27.129 42.5789 25.8409 41.6628 24.6817 40.5571C24.3382 40.2307 24.0698 39.8411 23.823 39.441C23.6512 39.1566 23.5439 38.8302 23.6727 38.4932C23.78 38.23 23.9625 38.1458 24.2523 38.2195C24.5421 38.2932 24.6495 38.4511 24.6173 38.7249C24.5958 38.9355 24.6924 39.1145 24.8212 39.2619C25.1862 39.7042 25.6155 40.0728 26.0556 40.4308C28.1165 42.0945 30.4672 43.2107 33.0004 43.9794C33.0756 44.0005 33.1614 44.0216 33.2473 44.0321C32.8287 43.8636 32.4208 43.6951 32.0022 43.5477C31.5513 43.4003 31.1542 43.1686 30.7356 42.958C29.104 42.1261 27.5369 41.1679 26.12 40.0096C25.7121 39.6726 25.3364 39.2935 24.9822 38.9039C24.8105 38.7144 24.789 38.5248 24.8641 38.3037C25.4116 36.7453 25.6585 35.1552 25.5082 33.5125C25.4438 32.7859 25.2828 32.0699 25.1003 31.3644C24.5958 29.3847 23.619 27.6051 22.6852 25.8045C22.6744 25.7834 22.6637 25.7729 22.6744 25.7202C25.5404 27.3629 28.5995 28.5002 31.8734 29.1741C31.8412 29.0372 31.7338 29.0583 31.6694 29.0372C30.2418 28.6055 28.8571 28.0684 27.5047 27.4682C25.5833 26.6153 23.7478 25.6149 22.0197 24.425C21.8157 24.2776 21.6762 24.0986 21.5474 23.8985C19.9588 21.445 18.1877 19.1178 16.2985 16.896C15.676 16.1589 14.989 15.4639 14.302 14.79C13.9263 14.4109 13.4648 14.116 13.0569 13.7686C12.4665 13.2631 11.9191 12.7261 11.5756 12.0206C11.4897 11.8415 11.4146 11.652 11.4253 11.4625C11.4575 10.9149 11.7259 10.7148 12.4021 10.7885C12.8959 10.8412 13.3789 10.9781 13.8405 11.1571C14.6992 11.4835 15.4827 11.9468 16.1375 12.5892C16.4273 12.8735 16.6742 13.1894 16.6098 13.6317C16.5776 13.8844 16.4703 14.0739 16.2019 14.1266C16.0409 14.1687 16.0731 14.2529 16.1268 14.3477C16.6957 15.3375 17.2538 16.3274 17.9193 17.254C18.8961 18.6229 20.0446 19.8339 21.44 20.7921C21.8694 21.087 22.331 21.3397 22.8354 21.4871C23.1575 21.5819 23.3185 21.5082 23.5331 21.266C23.9732 20.7605 24.1772 20.1919 24.2308 19.5285C24.2845 18.9494 24.3275 18.3807 24.306 17.8016C24.263 16.738 23.9947 15.7166 23.5546 14.7373C23.4795 14.5688 23.3292 14.5794 23.2111 14.5794C23.1038 14.5794 23.0072 14.5583 22.9106 14.5162C21.4078 13.8423 20.5813 12.6734 20.2378 11.1255C20.1412 10.7148 20.1305 10.2936 20.0983 9.88295C20.0768 9.51439 20.152 9.15637 20.3237 8.82994C20.6243 8.22972 21.1717 7.96647 21.8372 7.98753C22.9213 8.01912 23.6942 8.58774 24.3811 9.34591C25.0252 10.0725 25.3579 10.936 25.6048 11.8415C25.7121 12.2522 25.7336 12.684 25.6477 13.1052C25.5404 13.6633 25.2076 14.0634 24.7031 14.3161C24.5207 14.4109 24.5207 14.4846 24.5958 14.6531C25.4652 16.7065 26.7962 18.4229 28.4385 19.9287C29.3938 20.8132 30.435 21.5924 31.5621 22.2664C32.2598 22.677 33.0112 22.9508 33.8269 22.9824C34.8681 23.035 35.7483 22.6349 36.5319 21.9926C37.777 20.9712 38.625 19.6654 39.3656 18.2754C40.2458 16.6327 40.922 14.9163 41.3299 13.1157C41.5982 11.9047 41.7271 10.6832 41.7056 9.45121C41.6949 9.13531 41.5875 8.98789 41.3192 8.84047C40.4175 8.35608 40.0096 7.55579 39.9452 6.57649C39.8808 5.62878 40.1062 4.75478 40.6644 3.98609C41.1796 3.28057 41.8559 2.82777 42.779 2.86989C43.6377 2.91202 44.2817 3.35428 44.7433 4.03874C45.5054 5.19705 45.6986 6.42907 45.1404 7.72427C44.9043 8.28237 44.4749 8.67198 43.9275 8.92471C43.745 9.00895 43.6806 9.11425 43.6806 9.32485C43.6913 9.88295 43.6806 10.4305 43.7235 10.9886C43.8309 12.2838 44.0992 13.5474 44.5071 14.79C45.1404 16.6854 45.9884 18.4755 47.1262 20.1393C47.6843 20.9606 48.3713 21.6767 49.1871 22.2558C50.3893 23.1298 51.6881 23.193 53.0406 22.6454C53.9422 22.2874 54.715 21.7188 55.4771 21.1502C57.2804 19.8023 58.8154 18.2017 59.9639 16.2853C60.2859 15.7482 60.5435 15.1691 60.8011 14.6004C60.8441 14.4951 60.8763 14.432 60.7367 14.3582C59.8244 13.916 59.5775 13.1367 59.6955 12.2206C59.8136 11.3045 60.1571 10.4516 60.7045 9.70393C61.1983 9.03001 61.7887 8.40873 62.6474 8.13495C63.0338 8.01912 63.4309 7.94541 63.8388 7.98753C64.6868 8.06124 65.1054 8.73516 65.2235 9.32485C65.3416 9.95666 65.2664 10.5885 65.1162 11.1992C64.7619 12.6945 63.9354 13.8633 62.4542 14.5057C62.4005 14.5267 62.3253 14.5794 62.2717 14.5688C61.8745 14.5057 61.7779 14.7584 61.6598 15.0532C61.37 15.7903 61.1554 16.5485 61.0802 17.3383C61.0051 18.0648 61.0265 18.7809 61.1231 19.5075C61.1661 19.8234 61.1768 20.1287 61.2949 20.4341C61.4344 20.7816 61.6491 21.087 61.896 21.3713C62.0463 21.5398 62.2609 21.5608 62.4756 21.4977C62.9908 21.3502 63.4417 21.0975 63.871 20.8027C65.4918 19.697 66.7477 18.2649 67.8211 16.6643C68.3148 15.9167 68.7442 15.1375 69.195 14.3688C69.2702 14.2424 69.3024 14.1582 69.0984 14.1055C68.7335 14.0002 68.6047 13.5264 68.8086 13.1052C69.0125 12.705 69.3453 12.4102 69.6995 12.1469C70.6334 11.4414 71.6853 10.9781 72.8553 10.7991C72.9304 10.7885 73.0163 10.778 73.0914 10.778C73.7569 10.7675 74.0682 11.1676 73.8428 11.7889C73.6603 12.3049 73.3383 12.7261 72.9626 13.1157C72.5011 13.6001 71.9966 14.0213 71.4599 14.4109C70.9983 14.7479 70.6441 15.1796 70.2577 15.5797C67.7889 18.1596 65.685 21.0238 63.7315 23.9828C63.6027 24.1828 63.4417 24.3303 63.2485 24.4671C60.2644 26.51 57.0013 27.9947 53.545 29.0793C53.5128 29.0899 53.4806 29.0899 53.4484 29.0899C53.4377 29.0899 53.4377 29.0899 53.427 29.0899C53.427 29.0793 53.427 29.0899 53.4484 29.153ZM33.3976 44.0847C33.3761 44.0742 33.3654 44.0637 33.3439 44.0637C33.3224 44.0742 33.3224 44.0847 33.3439 44.0847C33.3654 44.0953 33.3868 44.0847 33.3976 44.0847ZM51.9779 44.0847C51.9779 44.0742 51.9779 44.0637 51.9779 44.0637C51.9672 44.0637 51.9457 44.0637 51.935 44.0637C51.9135 44.0637 51.9135 44.0742 51.935 44.0847C51.9457 44.0953 51.9672 44.0847 51.9779 44.0847Z" stroke="#563B00" stroke-width="0.8" mask="url(#path-10-outside-1_328_1034)"/>
</g>
<path d="M44.3345 43.1321C41.939 43.0686 39.441 42.5789 37.1574 41.2731C35.7872 40.4842 34.6408 39.4504 33.7739 38.1627C33.1308 37.2014 32.9164 36.1132 33.0283 34.9706C33.0935 34.3267 33.1867 33.701 33.4757 33.1025C33.8765 32.2773 34.4171 31.579 35.256 31.1437C36.3465 30.5815 37.4557 30.8808 38.0988 31.8964C38.2573 32.1413 38.3971 32.3952 38.5276 32.6491C39.2173 33.9731 40.3172 34.8255 41.7619 35.2789C42.8804 35.6326 44.0176 35.7595 45.1827 35.687C45.7792 35.6507 46.3385 35.4603 46.8977 35.2971C47.4663 35.1248 48.0442 34.9615 48.6407 34.9343C49.2932 34.898 49.9177 34.9978 50.4863 35.3152C51.3624 35.8049 51.7819 36.5666 51.8751 37.5279C51.9496 38.2715 51.7819 38.9516 51.4183 39.6136C50.2532 41.7809 48.3331 42.7694 45.9377 43.0596C45.4809 43.114 45.0149 43.1412 44.3345 43.1321ZM40.4943 37.3828C40.6434 37.4009 40.7366 37.3284 40.8112 37.2195C41.1188 36.8115 41.3611 36.3671 41.5569 35.8956C41.6128 35.7505 41.5941 35.6961 41.4357 35.6417C40.4943 35.3152 39.6274 34.8527 38.975 34.091C38.8911 33.9912 38.8445 34.0275 38.7792 34.091C38.3505 34.4718 37.9683 34.898 37.6701 35.3877C37.5116 35.6417 37.5302 35.7958 37.7446 36.0044C38.22 36.485 38.7886 36.8296 39.4131 37.0835C39.7486 37.2286 40.1121 37.3284 40.4943 37.3828ZM45.5182 38.335C46.3198 38.3078 47.1028 38.0901 47.8298 37.6911C48.0255 37.5823 48.1094 37.4463 48.0628 37.2195C47.9603 36.6936 47.69 36.2583 47.3824 35.823C47.2799 35.687 47.196 35.6689 47.0375 35.7142C46.2919 35.959 45.5369 36.1676 44.7353 36.1585C44.6141 36.1585 44.6234 36.2311 44.6234 36.3036C44.5861 36.7661 44.6048 37.2195 44.6887 37.673C44.8098 38.344 44.67 38.3168 45.5182 38.335Z" fill="#563B00"/>
<path d="M40.9686 31.5785C40.9686 31.2611 40.9686 30.9437 40.9686 30.6263C40.9686 29.7014 40.9686 28.7854 40.9686 27.8605C40.9686 27.6338 41.0059 27.4252 41.1457 27.2438C41.2016 27.1622 41.183 27.1259 41.127 27.0534C40.6424 26.473 40.5678 25.811 40.7262 25.1037C40.7542 24.9677 40.8288 24.8498 40.9965 24.877C41.183 24.9042 41.2016 25.0402 41.1736 25.1944C41.1084 25.5299 41.0711 25.8745 41.1736 26.21C41.3228 26.6997 41.621 27.0625 42.1523 27.1894C42.5718 27.2982 42.9353 27.1259 43.2895 26.9264C43.3454 26.8992 43.392 26.7995 43.4666 26.8539C43.5505 26.9174 43.5318 27.0171 43.4945 27.0987C43.4013 27.2801 43.2522 27.4161 43.0565 27.4977C42.9353 27.5522 42.9073 27.6156 42.9073 27.7426C42.9166 29.3023 42.9166 30.853 42.9166 32.4128C42.9166 32.6576 42.8328 32.8662 42.665 33.0476C42.5997 33.1201 42.5718 33.1745 42.6091 33.2834C42.665 33.4466 42.6836 33.6098 42.665 33.7821C42.6557 33.8365 42.6557 33.9 42.5811 33.9091C42.5158 33.9181 42.4786 33.8637 42.4599 33.8184C42.4226 33.7277 42.404 33.637 42.376 33.5463C42.0964 32.6667 41.5092 32.1226 40.5678 31.9594C40.5305 31.9503 40.4839 31.9412 40.4466 31.9231C40.3254 31.8868 40.1763 31.8143 40.1949 31.6873C40.2229 31.5332 40.3907 31.506 40.5305 31.515C40.6051 31.515 40.6796 31.5422 40.7542 31.5513C40.8288 31.5513 40.8847 31.6057 40.9686 31.5785Z" fill="#563B00"/>
<path d="M48.0066 31.5793C48.1744 31.552 48.3328 31.5248 48.4913 31.5067C48.6311 31.4976 48.7709 31.543 48.7896 31.6699C48.8175 31.815 48.6777 31.8694 48.5472 31.9057C48.2956 31.9783 48.0253 32.0055 47.7922 32.1234C47.1398 32.4407 46.7576 32.9667 46.5712 33.6378C46.5432 33.7375 46.5432 33.9008 46.4127 33.8826C46.2636 33.8645 46.3102 33.6922 46.3289 33.6015C46.4127 33.3022 46.3941 33.0393 46.1611 32.7853C46.0679 32.6856 46.0679 32.5224 46.0679 32.3773C46.0679 30.8447 46.0679 29.3212 46.0679 27.7887C46.0679 27.2355 46.4966 26.8184 47.0466 26.8184C47.5872 26.8184 48.0066 27.2355 48.0066 27.7796C48.0066 28.9676 48.0066 30.1555 48.0066 31.3435C48.0066 31.4342 48.0066 31.5067 48.0066 31.5793Z" fill="#563B00"/>
<path d="M45.5342 24.297C45.5621 23.7347 46.0189 23.2088 46.5874 23.0455C47.1187 22.9005 47.6966 23.109 48.0229 23.5715C48.172 23.7801 48.2559 24.0068 48.3118 24.2426C48.3398 24.3695 48.3118 24.4783 48.172 24.5237C48.0229 24.569 47.9296 24.4965 47.8737 24.3605C47.8271 24.2516 47.7992 24.1428 47.7525 24.034C47.5848 23.635 47.2492 23.4173 46.8577 23.4446C46.4756 23.4718 46.1214 23.7529 46.0095 24.1428C45.9909 24.2063 45.9816 24.2788 45.9629 24.3423C45.935 24.4693 45.8697 24.5781 45.7113 24.56C45.5621 24.5509 45.5342 24.4149 45.5342 24.297Z" fill="#563B00"/>
<path d="M40.4935 37.3838C40.1206 37.3294 39.7571 37.2387 39.4029 37.0936C38.7784 36.8397 38.2099 36.4951 37.7345 36.0144C37.5201 35.8059 37.5108 35.6517 37.6599 35.3978C37.9582 34.9081 38.3404 34.4819 38.7691 34.101C38.8437 34.0375 38.881 34.0013 38.9649 34.101C39.6173 34.8628 40.4842 35.3162 41.4256 35.6517C41.584 35.7061 41.6027 35.7605 41.5467 35.9056C41.3603 36.3772 41.1087 36.8215 40.8011 37.2296C40.7265 37.3293 40.6333 37.4019 40.4935 37.3838Z" fill="#FDFDFD"/>
<path d="M45.5152 38.3352C44.667 38.3171 44.8068 38.3443 44.6856 37.6823C44.6017 37.2289 44.5831 36.7755 44.6204 36.313C44.6297 36.2404 44.611 36.1679 44.7322 36.1679C45.5338 36.1679 46.2888 35.9593 47.0345 35.7235C47.1929 35.6691 47.2861 35.6963 47.3793 35.8324C47.6869 36.2586 47.9572 36.7029 48.0598 37.2289C48.1064 37.4556 48.0225 37.5916 47.8267 37.7004C47.0997 38.0904 46.3261 38.308 45.5152 38.3352Z" fill="#FDFDFD"/>
<path d="M33.9545 22.6452C32.924 22.6346 32.0224 22.2871 31.2174 21.6448C29.983 20.6866 28.8559 19.6335 27.8255 18.4647C27.7074 18.3383 27.6859 18.233 27.7933 18.0751C28.2655 17.3274 28.9203 16.7483 29.618 16.2218C31.1744 15.0529 32.9455 14.3369 34.8132 13.8209C36.2086 13.4418 37.6147 13.1575 39.0531 12.9996C39.6434 12.9364 40.2338 12.8732 40.8349 12.8206C41.0066 12.81 41.0603 12.8311 41.0066 13.0206C40.5344 14.8108 39.8689 16.5272 38.9779 18.1593C38.3339 19.3492 37.604 20.476 36.5628 21.3815C36.0798 21.8027 35.5538 22.1502 35.0064 22.4556C34.6844 22.6452 34.3087 22.6452 33.9545 22.6452Z" fill="#DE5D4F" stroke="#563B00" stroke-width="0.266667"/>
<path d="M51.1273 22.6575C50.7299 22.6575 50.0324 22.3205 49.4528 21.9309C48.2398 21.1096 47.3811 19.9934 46.662 18.7508C45.6422 16.9818 44.8694 15.1179 44.3542 13.1488C44.3434 13.0962 44.3434 13.033 44.3112 12.9909C44.2468 12.8645 44.3005 12.8434 44.4186 12.8329C44.6762 12.8013 44.9231 12.8645 45.17 12.8856C47.7246 13.1383 50.2256 13.5911 52.6193 14.5388C54.2293 15.1811 55.6999 16.0235 56.9021 17.2766C57.1275 17.5083 57.3207 17.7715 57.5139 18.0348C57.6642 18.2348 57.589 18.3507 57.4602 18.4981C56.8377 19.2036 56.1722 19.8775 55.4637 20.5094C54.8412 21.078 54.1864 21.6045 53.478 22.0678C52.8447 22.4785 51.6309 22.7245 51.1273 22.6575Z" fill="#DE5D4F" stroke="#563B00" stroke-width="0.266667"/>
<path d="M33.3979 44.0854C33.387 44.0854 33.3652 44.096 33.3543 44.096C33.3324 44.096 33.3324 44.0747 33.3543 44.0747C33.3652 44.0641 33.3761 44.0747 33.3979 44.0854Z" fill="#563B00"/>
<path d="M51.9785 44.0858C51.9676 44.0858 51.9458 44.0964 51.9348 44.0858C51.913 44.0751 51.913 44.0645 51.9348 44.0645C51.9458 44.0645 51.9676 44.0645 51.9785 44.0645C51.9785 44.0751 51.9785 44.0858 51.9785 44.0858Z" fill="#563B00"/>
<path d="M31.9833 39.713C28.6841 37.7503 14.5289 38.0732 12.3328 39.713C10.5755 53.1827 19.6029 51.5793 23.9953 52.6838C30.2057 54.2454 35.1047 41.5699 31.9833 39.713Z" fill="white" stroke="#563B00" stroke-width="0.67"/>
<path d="M7.38037 34.7241C7.8064 34.0589 9.13773 32.9947 11.0548 34.0589C13.4512 35.3893 15.0488 38.2162 13.2915 44.0364C15.6879 43.2604 20.4487 42.307 20.3209 44.7016C20.1937 47.0849 16.8256 47.1489 14.4098 48.0832C14.4098 48.7852 14.8891 50.2225 16.8062 50.3556C17.4452 50.3001 18.8831 50.1227 19.5221 49.8567C20.3209 49.5241 25.9125 46.9928 27.0308 46.8634C28.1491 46.7341 28.5752 47.492 28.4686 48.0832C29.4272 47.6949 30.9179 47.915 31.1846 49.0252C31.5041 50.3556 26.8711 53.1825 26.8711 53.1825C25.7527 53.8477 24.5066 55.4774 23.3563 56.0095C23.4628 57.3398 22.941 60.3996 20.0014 61.996L13.1317 68.6477C11.6406 66.9294 8.6904 62.9605 8.81821 60.832C8.94602 58.7034 10.3626 57.2844 11.0548 56.841C9.98978 56.2312 8.01941 54.8787 8.01941 54.3466C8.01941 53.8144 9.13773 52.1293 9.77677 51.3533L8.62548 50.0751C7.92375 49.2959 7.94288 48.1071 8.66931 47.351L10.0963 45.8657C10.8418 43.981 11.3424 39.1143 7.38037 34.7241Z" fill="#FFD998"/>
<path d="M13.2915 44.0364C15.0488 38.2162 13.4512 35.3893 11.0548 34.0589C9.13773 32.9947 7.8064 34.0589 7.38037 34.7241C11.3424 39.1143 10.8418 43.981 10.0963 45.8657M13.2915 44.0364C15.6879 43.2604 20.4487 42.307 20.3209 44.7016C20.1937 47.0849 16.8256 47.1489 14.4098 48.0832M13.2915 44.0364C12.6524 44.2277 10.8951 45.3356 10.0963 45.8657M12.8122 49.0252C13.2355 48.6185 13.7914 48.3224 14.4098 48.0832M14.4098 48.0832C14.4098 48.7852 14.8891 50.2225 16.8062 50.3556M16.8062 50.3556C17.4452 50.3001 18.8831 50.1227 19.5221 49.8567C20.3209 49.5241 25.9125 46.9928 27.0308 46.8634C28.1491 46.7341 28.5752 47.492 28.4686 48.0832M16.8062 50.3556C15.7411 50.3556 13.3554 50.3556 12.3329 50.3556M28.4686 48.0832C29.4272 47.6949 30.9179 47.915 31.1846 49.0252C31.5041 50.3556 26.8711 53.1825 26.8711 53.1825C25.7527 53.8477 24.5066 55.4774 23.3563 56.0095M28.4686 48.0832C28.3621 48.6744 27.8935 49.9565 26.8711 50.3556C25.593 50.8544 21.7587 53.5151 20.6404 53.8477C19.7458 54.1138 17.2855 54.7346 16.1672 55.0118M23.3563 56.0095C23.4628 57.3398 22.941 60.3996 20.0014 61.996M23.3563 56.0095C22.3445 56.3975 20.1931 57.1736 19.6819 57.1736C19.3623 57.7279 18.4357 58.9695 17.2855 59.5017M20.0014 61.996L13.1317 68.6477C11.6406 66.9294 8.6904 62.9605 8.81821 60.832C8.94602 58.7034 10.3626 57.2844 11.0548 56.841M20.0014 61.996C15.0169 63.1933 13.1317 61.1276 12.8122 59.9451M11.0548 56.841C9.98978 56.2312 8.01941 54.8787 8.01941 54.3466C8.01941 53.8144 9.13773 52.1293 9.77677 51.3533L8.62548 50.0751C7.92375 49.2959 7.94288 48.1071 8.66931 47.351L10.0963 45.8657M11.0548 56.841L11.8536 57.1736L11.6778 58.0279C11.5057 58.8638 11.9967 59.6936 12.8122 59.9451V59.9451M15.0488 60.4994L12.8122 59.9451M11.3744 46.5308C11.4276 47.0297 11.7897 47.9609 12.8122 47.6949M19.2026 51.6859C19.2558 51.9631 19.4902 52.5506 20.0014 52.6837" stroke="#563B00" stroke-width="0.67"/>
<path d="M37.5075 45.1313C38.457 43.5253 43.3432 46.2124 45.6675 47.7567V51.7719C44.085 52.8015 40.5638 54.9532 39.1395 55.3238C37.3591 55.7871 36.3206 47.1389 37.5075 45.1313Z" fill="#311A00" stroke="#563B00" stroke-width="0.67"/>
<path d="M53.9793 44.4873C53.0224 43.1557 49.1145 46.0086 47.2802 47.6015L47.6528 51.1597C49.0948 51.9193 52.2904 53.4862 53.5366 53.6772C55.0944 53.9159 55.1755 46.1518 53.9793 44.4873Z" fill="#311A00" stroke="#563B00" stroke-width="0.67"/>
<path d="M44.7144 48.4137C44.7144 46.8221 46.6784 45.3898 48.0639 47.6179C50.2412 51.1192 44.7144 55.0984 44.7144 48.4137Z" fill="#311A00" stroke="#563B00" stroke-width="0.67"/>
<path d="M12.5 67.5C10.1262 65.3997 9.39488 61.0591 9.5927 59C5.5869 61.6253 10.1861 71.6634 11.9665 71.8178C13.3909 71.9413 16.7142 67.6482 18.1978 65.4861L18.9396 63.1696L12.5 67.5Z" fill="white" stroke="#563B00" stroke-width="0.67"/>
</g>
<defs>
<filter id="filter0_d_328_1034" x="11.0244" y="2.4668" width="63.291" height="45.403" filterUnits="userSpaceOnUse" color-interpolation-filters="sRGB">
<feFlood flood-opacity="0" result="BackgroundImageFix"/>
<feColorMatrix in="SourceAlpha" type="matrix" values="0 0 0 0 0 0 0 0 0 0 0 0 0 0 0 0 0 0 127 0" result="hardAlpha"/>
<feOffset dy="0.666667"/>
<feComposite in2="hardAlpha" operator="out"/>
<feColorMatrix type="matrix" values="0 0 0 0 0.337255 0 0 0 0 0.231373 0 0 0 0 0 0 0 0 1 0"/>
<feBlend mode="normal" in2="BackgroundImageFix" result="effect1_dropShadow_328_1034"/>
<feBlend mode="normal" in="SourceGraphic" in2="effect1_dropShadow_328_1034" result="shape"/>
</filter>
<clipPath id="clip0_328_1034">
<path d="M0 0.5H80V80.5H6C2.68629 80.5 0 77.8137 0 74.5V0.5Z" fill="white"/>
</clipPath>
</defs>
</svg>
