<svg width="300" height="300" viewBox="0 0 300 300" fill="none" xmlns="http://www.w3.org/2000/svg">
<g clip-path="url(#clip0_3220_1884)">
<path fill-rule="evenodd" clip-rule="evenodd" d="M95.2075 78.5703L95.2075 77.1418L73.9752 77.1418L73.9752 54.9994L72.6054 54.9994L72.6054 78.5703L95.2075 78.5703Z" fill="#FFE1AD"/>
<path fill-rule="evenodd" clip-rule="evenodd" d="M95.8937 107.141L95.8937 104.284L75.3463 104.284L75.3463 82.8555L72.6067 82.8555L72.6067 107.141L95.8937 107.141Z" fill="#FFE1AD"/>
<path fill-rule="evenodd" clip-rule="evenodd" d="M96.5777 137.143L96.5777 132.857L76.7152 132.857L76.7152 112.143L72.6057 112.143L72.6057 137.143L96.5777 137.143Z" fill="#FFE1AD"/>
<path fill-rule="evenodd" clip-rule="evenodd" d="M97.2605 168.57L97.2605 162.856L78.083 162.856L78.083 142.857L72.6037 142.857L72.6037 168.57L97.2605 168.57Z" fill="#FFE1AD"/>
<path fill-rule="evenodd" clip-rule="evenodd" d="M98.633 199.996L98.633 191.425L80.8252 191.425L80.8252 172.854L72.6063 172.854L72.6063 199.996L98.633 199.996Z" fill="#FFE1AD"/>
<path fill-rule="evenodd" clip-rule="evenodd" d="M100.001 232.848L100.001 221.419L83.563 221.419L83.563 204.277L72.6044 204.277L72.6044 232.848L100.001 232.848Z" fill="#FFE1AD"/>
<path fill-rule="evenodd" clip-rule="evenodd" d="M72.605 237.135L83.5636 237.135L83.5636 254.277L100.002 254.277L100.002 265.706L72.605 265.706L72.605 237.135Z" fill="#FFE1AD"/>
<path fill-rule="evenodd" clip-rule="evenodd" d="M58.2259 51.4277L58.2259 49.9992L36.9936 49.9992L36.9936 27.8569L35.6238 27.8569L35.6238 51.4277L58.2259 51.4277Z" fill="#FFE1AD"/>
<path fill-rule="evenodd" clip-rule="evenodd" d="M58.9065 78.5703L58.9065 75.7132L38.3591 75.7132L38.3591 54.2852L35.6194 54.2852L35.6194 78.5703L58.9065 78.5703Z" fill="#FFE1AD"/>
<path fill-rule="evenodd" clip-rule="evenodd" d="M59.5882 107.141L59.5882 102.855L39.7257 102.855L39.7257 82.1412L35.6162 82.1412L35.6162 107.141L59.5882 107.141Z" fill="#FFE1AD"/>
<path fill-rule="evenodd" clip-rule="evenodd" d="M60.2744 137.146L60.2744 131.432L41.0968 131.432L41.0968 111.433L35.6175 111.433L35.6175 137.146L60.2744 137.146Z" fill="#FFE1AD"/>
<path fill-rule="evenodd" clip-rule="evenodd" d="M61.6469 168.568L61.6469 159.997L43.8391 159.997L43.8391 141.426L35.6202 141.426L35.6202 168.568L61.6469 168.568Z" fill="#FFE1AD"/>
<path fill-rule="evenodd" clip-rule="evenodd" d="M62.3308 199.996L62.3308 189.996L45.208 189.996L45.208 172.14L35.6192 172.14L35.6192 199.996L62.3308 199.996Z" fill="#FFE1AD"/>
<path fill-rule="evenodd" clip-rule="evenodd" d="M63.0159 232.854L63.0159 221.425L46.578 221.425L46.578 204.283L35.6194 204.283L35.6194 232.854L63.0159 232.854Z" fill="#FFE1AD"/>
<path fill-rule="evenodd" clip-rule="evenodd" d="M64.385 265.713L64.385 251.428L49.3169 251.428L49.3169 235.714L35.6186 235.714L35.6186 265.713L64.385 265.713Z" fill="#FFE1AD"/>
<path fill-rule="evenodd" clip-rule="evenodd" d="M101.372 299.992L101.372 285.707L86.3041 285.707L86.3041 269.993L72.6059 269.993L72.6059 299.992L101.372 299.992Z" fill="#FFE1AD"/>
<path fill-rule="evenodd" clip-rule="evenodd" d="M35.6211 269.996L49.3194 269.996L49.3194 285.71L64.3875 285.71L64.3875 299.995L35.6211 299.995L35.6211 269.996Z" fill="#FFE1AD"/>
<path fill-rule="evenodd" clip-rule="evenodd" d="M22.6055 23.5703L22.6055 22.1418L1.37316 22.1418L1.37316 -0.000568441L0.00333032 -0.000568321L0.00333238 23.5703L22.6055 23.5703Z" fill="#FFE1AD"/>
<path fill-rule="evenodd" clip-rule="evenodd" d="M23.2894 51.4238L23.2894 48.5668L2.74204 48.5668L2.74204 27.1387L0.00238254 27.1387L0.00238466 51.4238L23.2894 51.4238Z" fill="#FFE1AD"/>
<path fill-rule="evenodd" clip-rule="evenodd" d="M23.9779 78.5703L23.9779 74.2847L4.11543 74.2847L4.11543 53.5709L0.00594397 53.5709L0.00594616 78.5703L23.9779 78.5703Z" fill="#FFE1AD"/>
<path fill-rule="evenodd" clip-rule="evenodd" d="M24.6562 107.141L24.6562 101.426L5.47868 101.426L5.47867 81.4269L-0.000635488 81.4269L-0.00063324 107.141L24.6562 107.141Z" fill="#FFE1AD"/>
<path fill-rule="evenodd" clip-rule="evenodd" d="M26.0309 137.143L26.0309 128.571L8.2232 128.571L8.2232 110L0.00423623 110L0.00423861 137.143L26.0309 137.143Z" fill="#FFE1AD"/>
<path fill-rule="evenodd" clip-rule="evenodd" d="M26.7149 168.57L26.7149 158.571L9.59208 158.571L9.59208 140.714L0.00329299 140.714L0.00329542 168.57L26.7149 168.57Z" fill="#FFE1AD"/>
<path fill-rule="evenodd" clip-rule="evenodd" d="M27.3989 199.996L27.3989 188.568L10.961 188.568L10.961 171.425L0.00234545 171.425L0.00234795 199.996L27.3989 199.996Z" fill="#FFE1AD"/>
<path fill-rule="evenodd" clip-rule="evenodd" d="M28.7679 232.852L28.7679 218.566L13.6999 218.566L13.6999 202.852L0.00158143 202.852L0.00158405 232.852L28.7679 232.852Z" fill="#FFE1AD"/>
<path fill-rule="evenodd" clip-rule="evenodd" d="M0.00297546 235.002L15.0711 235.002L15.0711 250.002L29.4542 250.002L29.4543 265.716L0.00297815 265.716L0.00297546 235.002Z" fill="#FFE1AD"/>
<path fill-rule="evenodd" clip-rule="evenodd" d="M29.4519 300L29.4519 284.286L15.0687 284.286L15.0687 269.286L0.000640091 269.286L0.000642776 300L29.4519 300Z" fill="#FFE1AD"/>
<path fill-rule="evenodd" clip-rule="evenodd" d="M224.653 200.713L226.023 200.713L226.023 222.855L247.255 222.855L247.255 224.284L224.653 224.284L224.653 200.713Z" fill="#FFE1AD"/>
<path fill-rule="evenodd" clip-rule="evenodd" d="M197.262 199.996L200.002 199.996L200.002 221.424L220.549 221.424L220.549 224.281L197.262 224.281L197.262 199.996Z" fill="#FFE1AD"/>
<path fill-rule="evenodd" clip-rule="evenodd" d="M168.492 199.289L172.602 199.289L172.602 220.003L192.464 220.003L192.464 224.288L168.492 224.288L168.492 199.289Z" fill="#FFE1AD"/>
<path fill-rule="evenodd" clip-rule="evenodd" d="M138.359 198.568L143.839 198.568L143.839 218.568L163.016 218.568L163.016 224.282L138.359 224.282L138.359 198.568Z" fill="#FFE1AD"/>
<path fill-rule="evenodd" clip-rule="evenodd" d="M108.22 197.143L116.439 197.143L116.439 215.714L134.247 215.714L134.247 224.285L108.22 224.285L108.22 197.143Z" fill="#FFE1AD"/>
<path fill-rule="evenodd" clip-rule="evenodd" d="M250.687 239.281L252.057 239.281L252.057 261.424L273.289 261.424L273.289 262.852L250.687 262.852L250.687 239.281Z" fill="#FFE1AD"/>
<path fill-rule="evenodd" clip-rule="evenodd" d="M224.656 238.566L227.395 238.566L227.395 259.994L247.943 259.994L247.943 262.852L224.656 262.852L224.656 238.566Z" fill="#FFE1AD"/>
<path fill-rule="evenodd" clip-rule="evenodd" d="M197.262 237.855L201.371 237.855L201.371 258.569L221.234 258.569L221.234 262.855L197.262 262.855L197.262 237.855Z" fill="#FFE1AD"/>
<path fill-rule="evenodd" clip-rule="evenodd" d="M168.492 237.141L173.972 237.141L173.972 257.14L193.149 257.14L193.149 262.854L168.492 262.854L168.492 237.141Z" fill="#FFE1AD"/>
<path fill-rule="evenodd" clip-rule="evenodd" d="M138.361 235.717L146.58 235.717L146.58 254.288L164.387 254.288L164.387 262.859L138.361 262.859L138.361 235.717Z" fill="#FFE1AD"/>
<path fill-rule="evenodd" clip-rule="evenodd" d="M108.224 235.002L117.813 235.002L117.813 252.859L134.936 252.859L134.936 262.858L108.224 262.858L108.224 235.002Z" fill="#FFE1AD"/>
<path fill-rule="evenodd" clip-rule="evenodd" d="M277.399 276.428L278.769 276.428L278.769 298.57L300.001 298.57L300.001 299.999L277.399 299.999L277.399 276.428Z" fill="#FFE1AD"/>
<path fill-rule="evenodd" clip-rule="evenodd" d="M250.685 275.713L253.424 275.713L253.424 297.141L273.972 297.141L273.972 299.998L250.685 299.998L250.685 275.713Z" fill="#FFE1AD"/>
<path fill-rule="evenodd" clip-rule="evenodd" d="M224.656 274.994L228.765 274.994L228.765 295.708L248.627 295.708L248.627 299.994L224.656 299.994L224.656 274.994Z" fill="#FFE1AD"/>
<path fill-rule="evenodd" clip-rule="evenodd" d="M197.263 274.287L202.742 274.287L202.742 294.287L221.92 294.287L221.92 300.001L197.263 300.001L197.263 274.287Z" fill="#FFE1AD"/>
<path fill-rule="evenodd" clip-rule="evenodd" d="M168.492 272.854L176.711 272.854L176.711 291.425L194.519 291.425L194.519 299.996L168.492 299.996L168.492 272.854Z" fill="#FFE1AD"/>
<path fill-rule="evenodd" clip-rule="evenodd" d="M138.356 272.139L147.945 272.139L147.945 289.995L165.068 289.995L165.068 299.995L138.356 299.995L138.356 272.139Z" fill="#FFE1AD"/>
<path fill-rule="evenodd" clip-rule="evenodd" d="M108.224 271.43L119.183 271.43L119.183 288.572L135.621 288.572L135.621 300L108.224 300L108.224 271.43Z" fill="#FFE1AD"/>
</g>
<defs>
<clipPath id="clip0_3220_1884">
<rect width="300.002" height="300" fill="white" transform="matrix(-1 0 0 1 300.002 0)"/>
</clipPath>
</defs>
</svg>
