<svg width="70" height="70" viewBox="0 0 70 70" fill="none" xmlns="http://www.w3.org/2000/svg">
<path d="M37.0208 33.5647L37.4916 28.9435C43.1858 30.0635 47.4815 35.0841 47.4815 41.1069C47.4815 47.9534 41.9313 53.5035 35.0848 53.5035C29.6439 53.5035 25.0193 49.9977 23.3515 45.1189C23.1787 44.6135 22.6393 44.3331 22.1264 44.482L14.3218 46.7478C14.0623 46.8231 13.8443 47.0003 13.7175 47.239C13.5907 47.4776 13.5659 47.7574 13.6487 48.0147C16.5644 57.0693 25.058 63.6227 35.0848 63.6227C47.52 63.6227 57.6006 53.542 57.6006 41.1069C57.6006 29.8393 49.3249 20.5059 38.5196 18.8515L38.9017 15.1013C38.9383 14.7413 38.7776 14.3895 38.4814 14.1816C38.1852 13.9736 37.7998 13.9419 37.4736 14.0987L20.6604 22.1799C20.3398 22.334 20.1252 22.6468 20.0968 23.0015C20.0685 23.3561 20.2307 23.6991 20.5228 23.9022L35.4551 34.2844C35.7459 34.4866 36.1219 34.5199 36.4437 34.372C36.7654 34.2241 36.985 33.917 37.0208 33.5647Z" fill="#563B00" stroke="#563B00" stroke-width="2" stroke-linejoin="round"/>
<path d="M13.5003 47.5C3.10029 50.3 3.50029 39.6667 5.00029 34L10 31.5L16.5 34.5L66 37C65.2 47.4 59.6667 49 57 48.5H47.5H28.5L13.5003 47.5Z" fill="#563B00"/>
<mask id="path-3-outside-1_6966_2886" maskUnits="userSpaceOnUse" x="12.6006" y="8.89844" width="46" height="52" fill="black">
<rect fill="white" x="12.6006" y="8.89844" width="46" height="52"/>
<path fill-rule="evenodd" clip-rule="evenodd" d="M36.6034 23.6938L36.026 29.3618L21.0936 18.9796L37.9068 10.8984L37.4263 15.6154C48.2078 16.7822 56.6006 25.9136 56.6006 37.0053C56.6006 48.8882 46.9677 58.5211 35.0848 58.5211C25.5048 58.5211 17.3871 52.26 14.6006 43.6066L22.4052 41.3408C24.2071 46.6118 29.2033 50.402 35.0848 50.402C42.4836 50.402 48.4815 44.4041 48.4815 37.0053C48.4815 30.12 43.2872 24.4479 36.6034 23.6938Z"/>
</mask>
<path fill-rule="evenodd" clip-rule="evenodd" d="M36.6034 23.6938L36.026 29.3618L21.0936 18.9796L37.9068 10.8984L37.4263 15.6154C48.2078 16.7822 56.6006 25.9136 56.6006 37.0053C56.6006 48.8882 46.9677 58.5211 35.0848 58.5211C25.5048 58.5211 17.3871 52.26 14.6006 43.6066L22.4052 41.3408C24.2071 46.6118 29.2033 50.402 35.0848 50.402C42.4836 50.402 48.4815 44.4041 48.4815 37.0053C48.4815 30.12 43.2872 24.4479 36.6034 23.6938Z" fill="#FF7F00"/>
<path d="M36.026 29.3618L34.8843 31.0039C35.4658 31.4082 36.2178 31.4748 36.8613 31.179C37.5048 30.8832 37.9439 30.2691 38.0157 29.5645L36.026 29.3618ZM36.6034 23.6938L36.8276 21.7064C36.2968 21.6465 35.7641 21.8015 35.3482 22.1367C34.9323 22.472 34.6678 22.9597 34.6137 23.4911L36.6034 23.6938ZM21.0936 18.9796L20.2272 17.177C19.5859 17.4852 19.1567 18.111 19.1 18.8202C19.0433 19.5295 19.3677 20.2155 19.9519 20.6217L21.0936 18.9796ZM37.9068 10.8984L39.8965 11.1011C39.9699 10.381 39.6484 9.67751 39.056 9.26159C38.4637 8.84568 37.6928 8.78229 37.0404 9.09584L37.9068 10.8984ZM37.4263 15.6154L35.4366 15.4127C35.3252 16.5067 36.1178 17.4855 37.2111 17.6038L37.4263 15.6154ZM14.6006 43.6066L14.043 41.6859C13.5239 41.8366 13.088 42.1909 12.8344 42.6682C12.5808 43.1455 12.5312 43.7051 12.6969 44.2196L14.6006 43.6066ZM22.4052 41.3408L24.2977 40.6939C23.9522 39.6831 22.8734 39.1223 21.8476 39.4201L22.4052 41.3408ZM38.0157 29.5645L38.5931 23.8965L34.6137 23.4911L34.0363 29.1591L38.0157 29.5645ZM19.9519 20.6217L34.8843 31.0039L37.1677 27.7197L22.2354 17.3375L19.9519 20.6217ZM37.0404 9.09584L20.2272 17.177L21.96 20.7822L38.7732 12.701L37.0404 9.09584ZM39.416 15.8181L39.8965 11.1011L35.9171 10.6958L35.4366 15.4127L39.416 15.8181ZM58.6006 37.0053C58.6006 24.8813 49.4273 14.9025 37.6415 13.627L37.2111 17.6038C46.9882 18.6619 54.6006 26.946 54.6006 37.0053H58.6006ZM35.0848 60.5211C48.0722 60.5211 58.6006 49.9927 58.6006 37.0053H54.6006C54.6006 47.7836 45.8631 56.5211 35.0848 56.5211V60.5211ZM12.6969 44.2196C15.7418 53.6754 24.6112 60.5211 35.0848 60.5211V56.5211C26.3983 56.5211 19.0325 50.8446 16.5043 42.9936L12.6969 44.2196ZM21.8476 39.4201L14.043 41.6859L15.1582 45.5273L22.9628 43.2615L21.8476 39.4201ZM35.0848 48.402C30.0845 48.402 25.8314 45.1804 24.2977 40.6939L20.5128 41.9877C22.5828 48.0432 28.3222 52.402 35.0848 52.402V48.402ZM46.4815 37.0053C46.4815 43.2995 41.379 48.402 35.0848 48.402V52.402C43.5881 52.402 50.4815 45.5086 50.4815 37.0053H46.4815ZM36.3792 25.6812C42.063 26.3224 46.4815 31.1493 46.4815 37.0053H50.4815C50.4815 29.0907 44.5113 22.5733 36.8276 21.7064L36.3792 25.6812Z" fill="#FFD900" mask="url(#path-3-outside-1_6966_2886)"/>
<path d="M63.5389 40.5802C63.3429 41.3922 62.8529 41.8122 62.1529 41.8122C61.5229 41.8122 61.1449 41.3502 61.1449 40.5242C61.1449 39.8242 61.5929 38.0742 61.5929 36.9542C61.5929 36.1422 61.2569 35.6662 60.6689 35.6662C59.9969 35.6662 59.5209 36.4502 59.4509 37.8782C59.3809 39.0962 59.3389 40.0482 59.1429 40.6642C58.9469 41.2382 58.6249 41.5182 58.0509 41.5182C57.4069 41.5182 57.0149 41.1122 56.9729 40.2302C56.9309 39.2922 57.0149 37.6402 56.9589 36.8002C56.9029 35.8202 56.6089 35.3582 56.0349 35.3582C55.3489 35.3582 54.9709 36.0302 54.8589 37.1782C54.8169 37.9202 54.8869 39.3762 54.8449 40.0902C54.8169 41.3082 54.3969 41.7842 53.6829 41.7842C52.8569 41.7842 52.5069 41.3082 52.4089 40.2022C52.3389 39.3902 52.2969 38.5782 52.2969 37.7662C52.2969 36.9402 52.3389 35.9322 52.4369 35.0922C52.5489 34.0282 52.8429 33.2302 53.6549 33.2302C54.3549 33.2302 54.6209 33.7482 54.6209 34.8542C55.0409 33.7762 55.8949 33.1602 56.8609 33.1602C58.0229 33.1602 58.7649 33.8462 58.9889 34.9942C59.3809 34.0422 60.2769 33.3422 61.3689 33.3422C62.8389 33.3422 63.9169 34.3082 63.9169 36.9682C63.9169 38.3122 63.7349 39.7962 63.5389 40.5802Z" fill="white"/>
<path d="M46.7979 41.8392C44.4459 41.8392 42.9199 40.2712 42.9199 37.7232C42.9199 35.0772 44.4739 33.2852 46.8399 33.2852C49.3459 33.2852 50.9699 35.0212 50.9699 37.5832C50.9699 40.2152 49.3319 41.8392 46.7979 41.8392ZM46.9939 39.5572C47.9739 39.5572 48.6039 38.7172 48.6039 37.4152C48.6039 36.1132 47.9739 35.2732 46.9939 35.2732C45.9859 35.2732 45.3419 36.1132 45.3419 37.4152C45.3419 38.7172 45.9859 39.5572 46.9939 39.5572Z" fill="white"/>
<path d="M36.705 41.9936C34.899 41.9936 33.835 40.6496 33.835 37.8216C33.835 35.0216 34.857 33.7756 36.705 33.7756C37.671 33.7756 38.399 34.1536 39.015 34.8116C38.805 33.7756 38.623 32.5156 38.623 31.9276C38.623 31.1856 38.903 30.7656 39.519 30.7656C40.275 30.7656 40.737 31.3396 41.017 32.5156C41.339 33.8736 41.591 36.3096 41.591 38.1996C41.591 41.1256 41.003 41.9376 40.163 41.9376C39.561 41.9376 39.323 41.5316 39.281 40.5376C38.735 41.4336 37.825 41.9936 36.705 41.9936ZM37.713 39.9496C38.539 39.9496 39.253 39.2776 39.253 37.8076C39.253 36.5476 38.735 35.6516 37.685 35.6516C36.845 35.6516 36.285 36.3656 36.285 37.7936C36.285 39.0536 36.845 39.9496 37.713 39.9496Z" fill="white"/>
<path d="M26.4762 33.0895C27.2042 33.0895 27.4422 33.5795 27.4422 34.5315C27.4422 34.5875 27.4282 34.6435 27.4282 34.6855C27.9182 33.6355 28.8562 33.0195 29.8222 33.0195C31.6282 33.0195 32.5242 34.6295 32.5242 37.0935C32.5242 38.5215 32.3282 39.9635 32.0622 40.6775C31.8102 41.3355 31.3482 41.6575 30.7602 41.6575C30.1302 41.6575 29.7802 41.1955 29.7802 40.4255C29.7802 39.5155 30.0042 37.8915 30.0042 36.9115C30.0042 35.8055 29.6262 35.2735 28.9542 35.2735C28.2122 35.2735 27.6662 36.0015 27.4982 37.2335C27.4142 37.9615 27.4562 39.3755 27.4002 40.0895C27.3022 41.3075 26.8542 41.7835 26.1402 41.7835C25.2582 41.7835 24.8242 41.1955 24.8242 39.6695C24.8242 38.4935 24.9082 36.7715 25.0482 35.5535C25.2302 34.0415 25.6222 33.0895 26.4762 33.0895Z" fill="white"/>
<path d="M22.0677 41.9372C21.3397 41.9372 21.1017 41.5732 21.0457 40.7332C20.4857 41.5592 19.5617 41.9792 18.2597 41.9792C16.2857 41.9792 15.3477 40.8172 15.3477 39.4172C15.3477 37.8492 16.5797 36.8412 18.4417 36.8412C19.4357 36.8412 20.2057 37.1072 20.7937 37.5552C20.6677 36.0292 20.0377 35.4412 18.9457 35.4412C18.0077 35.4412 17.1957 36.0152 16.4677 36.0152C15.8937 36.0152 15.5577 35.6512 15.5577 35.1052C15.5577 33.9852 17.2657 33.0332 19.2397 33.0332C20.8777 33.0332 22.1097 33.7472 22.6557 35.1472C23.1037 36.2812 23.2997 37.6952 23.2997 39.2912C23.2997 41.3912 22.9357 41.9372 22.0677 41.9372ZM19.1137 40.1732C19.8837 40.1732 20.8497 39.8372 20.8497 39.1512C20.8497 38.5492 20.0797 38.2692 19.2397 38.2692C18.2737 38.2692 17.7277 38.6752 17.7277 39.2352C17.7277 39.8232 18.2177 40.1732 19.1137 40.1732Z" fill="white"/>
<path d="M7.75678 41.8952C6.60878 41.8952 6.30078 41.0272 6.30078 38.6332C6.30078 36.0152 6.60878 34.1112 7.35078 33.0472C8.14878 31.8852 9.46478 31.4512 10.9348 31.4512C13.3428 31.4512 14.4488 32.6412 14.4488 34.4192C14.4488 36.5052 12.7268 37.5272 10.4868 37.3732V37.4292C13.2728 38.5072 14.3788 39.6132 14.3788 40.5512C14.3788 41.2652 13.8748 41.7272 13.0488 41.7272C11.8168 41.7272 10.5708 40.7472 8.87678 37.7092H8.82078C8.94678 38.2972 9.05878 39.3612 9.05878 40.1312C9.05878 41.2792 8.70878 41.8952 7.75678 41.8952ZM10.3328 35.8892C11.3268 35.8892 12.0968 35.3712 12.0968 34.5452C12.0968 33.7752 11.5928 33.2292 10.5848 33.2292C9.54878 33.2292 8.94678 33.9292 8.94678 34.7272C8.94678 35.4132 9.42278 35.8892 10.3328 35.8892Z" fill="white"/>
<path fill-rule="evenodd" clip-rule="evenodd" d="M50.3838 39.9782C50.3937 40.1104 50.4044 40.2423 50.4158 40.3739L50.4162 40.3787C50.4743 41.0352 50.6276 41.9185 51.2023 42.6468C51.8897 43.5179 52.8496 43.7842 53.6824 43.7842C54.4815 43.7842 55.3584 43.5047 55.9992 42.7472C56.6102 43.3116 57.3674 43.5182 58.0504 43.5182C58.6742 43.5182 59.3688 43.3591 59.9774 42.8762C60.5655 43.5207 61.3633 43.8122 62.1524 43.8122C62.9258 43.8122 63.7116 43.5692 64.3561 43.0016C64.9744 42.4572 65.3121 41.7475 65.4796 41.0614C65.7229 40.0861 65.9164 38.4369 65.9164 36.9682C65.9164 35.417 65.6099 33.9904 64.7633 32.9182C63.8508 31.7626 62.5736 31.3422 61.3684 31.3422C60.5859 31.3422 59.8704 31.5384 59.2495 31.8731C58.5406 31.3814 57.7093 31.1602 56.8604 31.1602C56.2033 31.1602 55.5939 31.3065 55.0496 31.5679C55.0472 31.5666 55.0447 31.5652 55.0423 31.5639C54.5634 31.3084 54.0743 31.2302 53.6544 31.2302C52.4089 31.2302 51.525 31.9279 51.0441 32.7738C50.6464 33.4735 50.512 34.2745 50.4486 34.8713C50.4344 34.9936 50.4213 35.1184 50.4093 35.245C50.7724 35.8987 50.9696 36.6913 50.9696 37.5842C50.9696 37.6454 50.9688 37.706 50.967 37.7662C50.9419 38.6234 50.7384 39.3683 50.3838 39.9782ZM52.4364 35.0922C52.3384 35.9322 52.2964 36.9402 52.2964 37.7662C52.2964 38.5782 52.3384 39.3902 52.4084 40.2022C52.5064 41.3082 52.8564 41.7842 53.6824 41.7842C54.3964 41.7842 54.8164 41.3082 54.8444 40.0902C54.8653 39.7338 54.8584 39.1926 54.8514 38.6475C54.8444 38.1006 54.8373 37.5498 54.8584 37.1782C54.8701 37.0583 54.8846 36.9437 54.9022 36.8344C54.9118 36.7748 54.9222 36.7167 54.9336 36.6603C54.934 36.6581 54.9344 36.6559 54.9349 36.6537C55.0917 35.8803 55.4161 35.4189 55.9283 35.3637C55.9628 35.36 55.9982 35.3582 56.0344 35.3582C56.2239 35.3582 56.3829 35.4085 56.5128 35.5112C56.7766 35.7197 56.9209 36.1437 56.9584 36.8002C56.9878 37.2418 56.9785 37.908 56.9692 38.5769C56.9609 39.18 56.9524 39.7854 56.9724 40.2302C57.0144 41.1122 57.4064 41.5182 58.0504 41.5182C58.6244 41.5182 58.9464 41.2382 59.1424 40.6642C59.1436 40.6602 59.1449 40.6561 59.1462 40.6521C59.159 40.6109 59.1712 40.5683 59.1828 40.5242C59.3175 40.0115 59.3683 39.3019 59.419 38.4276C59.4247 38.3297 59.4304 38.2298 59.4361 38.1279C59.4408 38.046 59.4455 37.9627 59.4504 37.8782C59.4684 37.5098 59.5135 37.1844 59.582 36.9042C59.773 36.1224 60.1461 35.6927 60.6233 35.6673C60.6382 35.6666 60.6532 35.6662 60.6684 35.6662C60.7391 35.6662 60.8063 35.6731 60.8696 35.6866C61.3324 35.7856 61.5924 36.2399 61.5924 36.9542C61.5924 37.4453 61.5062 38.0575 61.4095 38.6492C61.383 38.8112 61.3558 38.9716 61.3292 39.1275C61.2317 39.7013 61.1444 40.2151 61.1444 40.5242C61.1444 40.6351 61.1512 40.7395 61.1645 40.8371C61.2505 41.4659 61.607 41.8122 62.1524 41.8122C62.8524 41.8122 63.3424 41.3922 63.5384 40.5802C63.7344 39.7962 63.9164 38.3122 63.9164 36.9682C63.9164 34.3082 62.8384 33.3422 61.3684 33.3422C61.0924 33.3422 60.8289 33.3869 60.5829 33.4691C60.3835 33.5357 60.1957 33.6269 60.022 33.7389C59.5619 34.0355 59.201 34.4778 58.9884 34.9942C58.9446 34.7701 58.8812 34.5636 58.7987 34.3764C58.5656 33.8471 58.1805 33.4718 57.6599 33.2882C57.4213 33.204 57.1543 33.1602 56.8604 33.1602C56.7008 33.1602 56.5443 33.177 56.3923 33.2099C56.2378 33.2433 56.088 33.2934 55.9443 33.3595C55.3737 33.6217 54.9005 34.1352 54.6204 34.8542C54.6204 34.4129 54.578 34.0653 54.4827 33.8068C54.3391 33.4173 54.0751 33.2302 53.6544 33.2302C53.4411 33.2302 53.2636 33.2852 53.1157 33.3857C52.7005 33.6677 52.519 34.3076 52.4364 35.0922Z" fill="#563B00"/>
<path fill-rule="evenodd" clip-rule="evenodd" d="M41.4214 40.4006C41.6826 41.0322 42.0488 41.6116 42.5271 42.1147C43.6376 43.2827 45.163 43.8392 46.7976 43.8392C48.4994 43.8392 50.0897 43.2847 51.2565 42.1039C51.759 41.5954 52.1467 41.0074 52.4251 40.3639C52.4189 40.3112 52.4133 40.257 52.4083 40.2012C52.3383 39.3892 52.2963 38.5772 52.2963 37.7652C52.2963 37.7054 52.2965 37.6447 52.297 37.5832C52.3027 36.7942 52.3454 35.8704 52.4363 35.0912C52.4432 35.0256 52.4508 34.961 52.4592 34.8976C52.1839 34.2323 51.7959 33.6218 51.2917 33.0932C50.1512 31.8971 48.5725 31.2852 46.8396 31.2852C45.1183 31.2852 43.5776 31.9538 42.4899 33.1918C42.0227 33.7236 41.6634 34.3316 41.4072 34.9905C41.5031 35.8875 41.568 36.8463 41.5859 37.7232C41.5892 37.8849 41.5909 38.0439 41.5909 38.1992C41.5909 39.1351 41.5308 39.8547 41.4214 40.4006ZM42.9196 37.7232C42.9196 40.2712 44.4456 41.8392 46.7976 41.8392C49.3316 41.8392 50.9696 40.2152 50.9696 37.5832C50.9696 35.4758 49.8708 33.9273 48.0862 33.4441C47.746 33.3519 47.3808 33.2985 46.9936 33.2874C46.9426 33.2859 46.8913 33.2852 46.8396 33.2852C46.7749 33.2852 46.7108 33.2865 46.6473 33.2892C44.3897 33.3838 42.9196 35.1495 42.9196 37.7232ZM48.6036 37.4152C48.6036 38.7172 47.9736 39.5572 46.9936 39.5572C45.9856 39.5572 45.3416 38.7172 45.3416 37.4152C45.3416 36.2056 45.8974 35.3947 46.7846 35.2857C46.8028 35.2835 46.8211 35.2815 46.8396 35.2799C46.8899 35.2754 46.9413 35.2732 46.9936 35.2732C47.1781 35.2732 47.3502 35.3029 47.5081 35.36C48.1885 35.6059 48.6036 36.3583 48.6036 37.4152Z" fill="#563B00"/>
<path fill-rule="evenodd" clip-rule="evenodd" d="M37.0482 35.8216C37.2341 35.7083 37.4485 35.6516 37.6852 35.6516C37.8226 35.6516 37.9508 35.667 38.07 35.6964C38.5955 35.8264 38.9445 36.2313 39.1199 36.809C39.2089 37.1019 39.2532 37.4392 39.2532 37.8076C39.2532 38.0785 39.2289 38.3223 39.1842 38.5398C39.0342 39.2691 38.6539 39.7026 38.1853 39.8698C38.0354 39.9234 37.8765 39.9496 37.7132 39.9496C37.543 39.9496 37.3847 39.9152 37.2402 39.8504C36.6472 39.5844 36.2852 38.8067 36.2852 37.7936C36.2852 36.7679 36.5741 36.1106 37.0482 35.8216ZM37.4743 41.8997C37.5555 41.8791 37.6352 41.8552 37.7132 41.8281C38.3716 41.5997 38.9103 41.1462 39.2812 40.5376C39.2984 40.9457 39.3487 41.2547 39.4437 41.4772C39.58 41.7966 39.8083 41.9376 40.1632 41.9376C40.4662 41.9376 40.7364 41.832 40.9581 41.5595C41.3509 41.0767 41.5912 40.0701 41.5912 38.1996C41.5912 36.3096 41.3392 33.8736 41.0172 32.5156C40.7372 31.3396 40.2752 30.7656 39.5192 30.7656C38.9032 30.7656 38.6232 31.1856 38.6232 31.9276C38.6232 31.9919 38.6254 32.0643 38.6295 32.1435C38.6519 32.5705 38.7317 33.1971 38.8373 33.8396C38.8913 34.1676 38.952 34.4998 39.0152 34.8116C38.6269 34.3968 38.1941 34.0933 37.6852 33.9256C37.4142 33.8363 37.1217 33.7855 36.8028 33.7769C36.795 33.7767 36.7872 33.7765 36.7793 33.7764C36.7548 33.7759 36.7301 33.7756 36.7052 33.7756C34.8572 33.7756 33.8352 35.0216 33.8352 37.8216C33.8352 40.6496 34.8992 41.9936 36.7052 41.9936C36.9276 41.9936 37.1417 41.9715 37.3463 41.9291C37.3894 41.9202 37.432 41.9104 37.4743 41.8997ZM38.7413 43.5713C38.1261 43.8434 37.4405 43.9936 36.7052 43.9936C35.2395 43.9936 33.8778 43.4098 32.9646 42.1294C32.5958 41.6123 32.3324 41.0261 32.1533 40.3938C32.3293 39.7709 32.4624 38.8247 32.5073 37.8216C32.5181 37.581 32.5238 37.3371 32.5238 37.0936C32.5238 36.2923 32.429 35.5813 32.239 34.9866C32.4123 34.4731 32.6496 33.9939 32.966 33.5637C33.8868 32.3116 35.2319 31.795 36.6255 31.7762C36.643 31.225 37.5997 31.3984 38.07 30.7656C38.6025 28.7979 38.708 28.7656 39.5192 28.7656C40.4961 28.7656 41.3567 29.1765 41.9755 29.9102C42.5149 30.5497 42.7933 31.3407 42.9628 32.0524L42.9632 32.0542C43.1666 32.9121 43.3377 34.0938 43.4496 35.3179C43.1068 35.991 42.9199 36.806 42.9199 37.7236C42.9199 37.8863 42.9261 38.0451 42.9383 38.1996C42.996 38.9268 43.1875 39.5622 43.4936 40.0898C43.4076 40.8066 43.2582 41.44 43.0207 41.9761C42.791 42.4945 42.4377 43.0166 41.8912 43.401C41.3266 43.798 40.7131 43.9376 40.1632 43.9376C39.7925 43.9376 39.3405 43.8754 38.8858 43.649C38.8363 43.6243 38.7881 43.5984 38.7413 43.5713Z" fill="#563B00"/>
<path fill-rule="evenodd" clip-rule="evenodd" d="M23.0248 41.3709C23.1231 41.723 23.2664 42.0673 23.4728 42.386C24.1403 43.4167 25.183 43.7835 26.1402 43.7835C26.9884 43.7835 27.8905 43.4724 28.5439 42.6664C29.1294 43.3472 29.9461 43.6575 30.7602 43.6575C31.4357 43.6575 32.1252 43.4661 32.7249 43.0234C33.3136 42.5889 33.6971 42.0008 33.9299 41.3928L33.9364 41.3757C34.0511 41.0677 34.1494 40.7005 34.2309 40.297C33.9723 39.6582 33.8356 38.8352 33.8356 37.8215C33.8356 37.566 33.8441 37.3234 33.861 37.0935C33.9202 36.2875 34.0822 35.6376 34.3406 35.134C34.1892 34.3919 33.9344 33.6854 33.5403 33.0628C32.7365 31.7929 31.4338 31.0195 29.8222 31.0195C29.1511 31.0195 28.5141 31.1734 27.938 31.4489C27.4758 31.1948 26.963 31.0895 26.4762 31.0895C25.0927 31.0895 24.2041 31.9525 23.7451 32.8141C23.338 33.5782 23.1609 34.497 23.0625 35.3145L23.0625 35.3145L23.0613 35.3252C23.0307 35.5914 23.0027 35.8782 22.9775 36.1766C23.1995 37.0974 23.3002 38.1477 23.3002 39.2915C23.3002 39.4236 23.2987 39.5495 23.2958 39.6695C23.2762 40.4793 23.1894 41.0208 23.0248 41.3709ZM29.2481 33.0923C29.077 33.136 28.9097 33.199 28.7486 33.2802C28.2478 33.5326 27.8076 33.9608 27.5049 34.5315C27.4782 34.5818 27.4527 34.6331 27.4282 34.6855C27.4282 34.666 27.4312 34.6435 27.4344 34.6194C27.4382 34.5916 27.4422 34.5615 27.4422 34.5315C27.4422 34.2098 27.415 33.9408 27.3509 33.7256C27.2253 33.3043 26.9581 33.0895 26.4762 33.0895C26.2725 33.0895 26.095 33.1437 25.9404 33.2468C25.4471 33.5757 25.1868 34.4023 25.0482 35.5535C24.9082 36.7715 24.8242 38.4935 24.8242 39.6695C24.8242 41.1955 25.2582 41.7835 26.1402 41.7835C26.8542 41.7835 27.3022 41.3075 27.4002 40.0895C27.425 39.7737 27.4306 39.321 27.4364 38.8512C27.4437 38.2589 27.4513 37.6395 27.4982 37.2335C27.5253 37.0348 27.5622 36.8492 27.6082 36.6776C27.8186 35.8931 28.2187 35.4024 28.7355 35.2956C28.8063 35.281 28.8792 35.2735 28.9542 35.2735C29.098 35.2735 29.2283 35.2979 29.3443 35.347C29.7706 35.5274 30.0042 36.0421 30.0042 36.9115C30.0042 37.4106 29.9461 38.0767 29.8891 38.7305C29.8341 39.3604 29.7802 39.979 29.7802 40.4255C29.7802 41.1955 30.1302 41.6575 30.7602 41.6575C31.3482 41.6575 31.8102 41.3355 32.0622 40.6775C32.3282 39.9635 32.5242 38.5215 32.5242 37.0935C32.5242 34.6295 31.6282 33.0195 29.8222 33.0195C29.6286 33.0195 29.4361 33.0443 29.2481 33.0923Z" fill="#563B00"/>
<path fill-rule="evenodd" clip-rule="evenodd" d="M13.8425 41.5378C14.0484 41.9414 14.3227 42.3216 14.6734 42.6607C15.6075 43.5643 16.8772 43.9792 18.2601 43.9792C19.0604 43.9792 19.8386 43.8555 20.5468 43.5761C21.0677 43.8604 21.6221 43.9372 22.0681 43.9372C22.4813 43.9372 23.0277 43.8744 23.5741 43.5805C24.151 43.2703 24.5458 42.8015 24.7985 42.2961C24.9549 41.9833 25.0639 41.6399 25.1392 41.2792C24.9286 40.9408 24.8241 40.4179 24.8241 39.6692C24.8241 39.5486 24.825 39.4222 24.8268 39.2912C24.8398 38.3085 24.9009 37.0663 24.9972 36.043C24.8787 35.4769 24.7212 34.9319 24.5179 34.4165C23.6119 32.0986 21.5236 31.0332 19.2401 31.0332C17.9571 31.0332 16.6912 31.3378 15.6803 31.905C15.1997 32.1746 14.6421 32.5892 14.2191 33.157C14.3735 33.5305 14.4489 33.9548 14.4489 34.4192C14.4489 34.6624 14.4255 34.8911 14.3806 35.1052C14.2821 35.5749 14.0802 35.9742 13.7948 36.3011C13.8779 36.4976 13.9852 36.6899 14.1201 36.8723C13.699 37.481 13.4434 38.1906 13.3701 38.9543C13.5652 39.1102 13.7299 39.2647 13.866 39.4172C14.2185 39.8124 14.3789 40.194 14.3789 40.5512C14.3789 40.9933 14.1857 41.3388 13.8425 41.5378ZM15.6343 35.5154C15.7639 35.8258 16.0541 36.0152 16.4681 36.0152C16.8091 36.0152 17.1685 35.8893 17.5506 35.7554C17.8346 35.6559 18.1312 35.552 18.4421 35.4921C18.606 35.4605 18.774 35.4412 18.9461 35.4412C19.7129 35.4412 20.252 35.7312 20.5486 36.4323C20.6744 36.7296 20.7566 37.1008 20.7941 37.5552C20.3741 37.2352 19.8612 37.008 19.2401 36.9044C19.1447 36.8884 19.0467 36.8754 18.9461 36.8654C18.7849 36.8494 18.617 36.8412 18.4421 36.8412C17.6571 36.8412 16.9841 37.0204 16.4681 37.3451C16.4665 37.3462 16.4649 37.3472 16.4632 37.3482C16.2038 37.5123 15.9842 37.7134 15.8103 37.9471C15.5119 38.3482 15.3481 38.8455 15.3481 39.4172C15.3481 40.6721 16.1017 41.7357 17.6795 41.9428C17.862 41.9667 18.0555 41.9792 18.2601 41.9792C18.5655 41.9792 18.8501 41.9561 19.1141 41.9101C19.1507 41.9037 19.187 41.8968 19.2228 41.8896C20.0298 41.7259 20.6357 41.3386 21.0461 40.7332C21.0736 41.1453 21.1449 41.4428 21.2963 41.639C21.4535 41.8427 21.6972 41.9372 22.0681 41.9372C22.2905 41.9372 22.4798 41.9014 22.6384 41.8127C23.0987 41.5554 23.3001 40.8532 23.3001 39.2912C23.3001 37.6952 23.1041 36.2812 22.6561 35.1472C22.1101 33.7472 20.8781 33.0332 19.2401 33.0332C17.2661 33.0332 15.5581 33.9852 15.5581 35.1052C15.5581 35.2574 15.5842 35.3954 15.6343 35.5154ZM20.7174 38.7603C20.5948 38.6004 20.395 38.4809 20.1506 38.3998C19.8856 38.3119 19.5682 38.2692 19.2401 38.2692C19.2292 38.2692 19.2183 38.2693 19.2075 38.2694C19.2041 38.2694 19.2007 38.2694 19.1973 38.2695C19.1692 38.2698 19.1415 38.2705 19.1141 38.2716C18.8564 38.2814 18.6315 38.3217 18.4421 38.387C18.1129 38.5004 17.8908 38.6895 17.79 38.9258C17.7491 39.0218 17.7281 39.1255 17.7281 39.2352C17.7281 39.5634 17.8808 39.8175 18.1715 39.9779C18.1998 39.9935 18.2293 40.0082 18.2601 40.022C18.4805 40.1206 18.7668 40.1732 19.1141 40.1732C19.1556 40.1732 19.1977 40.1722 19.2401 40.1703C19.2549 40.1696 19.2697 40.1688 19.2845 40.1679C19.2929 40.1674 19.3013 40.1668 19.3097 40.1662C19.5435 40.1497 19.7859 40.1041 20.0072 40.0289C20.3099 39.9261 20.5733 39.768 20.7218 39.5539C20.8032 39.4366 20.8501 39.3024 20.8501 39.1512C20.8501 39.0011 20.8023 38.871 20.7174 38.7603ZM19.7158 39.2396C19.5944 39.3478 19.4849 39.4719 19.3907 39.6109C19.3616 39.6538 19.3189 39.7111 19.2401 39.7678C19.2056 39.7926 19.1643 39.8172 19.1141 39.8405C19.0953 39.8493 19.0752 39.8578 19.0538 39.8661C18.941 39.6828 18.8674 39.4646 18.8528 39.2352C18.851 39.2074 18.8501 39.1793 18.8501 39.1512C18.8501 39.0532 18.8611 38.9598 18.8804 38.872C18.9661 38.8852 19.0437 38.902 19.1141 38.9215C19.159 38.9339 19.2009 38.9474 19.2401 38.9618C19.3882 39.0159 19.4979 39.082 19.582 39.1461C19.5843 39.1478 19.5865 39.1495 19.5888 39.1512C19.628 39.1808 19.6681 39.2088 19.7089 39.2352C19.7112 39.2367 19.7135 39.2382 19.7158 39.2396Z" fill="#563B00"/>
<path fill-rule="evenodd" clip-rule="evenodd" d="M7.45852 32.8987C8.19681 31.936 9.3205 31.5222 10.5848 31.4597C10.7003 31.454 10.8171 31.4512 10.9348 31.4512C11.4624 31.4512 11.9275 31.5083 12.3321 31.6162C13.7743 32.0009 14.4488 33.0307 14.4488 34.4192C14.4488 35.3824 14.0816 36.1187 13.4659 36.6172C13.3481 36.7125 13.2213 36.7991 13.0862 36.877C12.5989 37.1577 12.0042 37.3243 11.3409 37.3732C11.2293 37.3814 11.1158 37.3863 11.0005 37.3878C10.933 37.3887 10.865 37.3884 10.7964 37.3871C10.7013 37.3851 10.6051 37.381 10.5079 37.3746C10.5009 37.3741 10.4938 37.3737 10.4868 37.3732V37.4292C10.6042 37.4746 10.7186 37.5201 10.8301 37.5656C10.9597 37.6185 11.0853 37.6715 11.207 37.7244C11.2499 37.7431 11.2923 37.7618 11.3342 37.7804C12.2171 38.1737 12.8862 38.5679 13.3691 38.9536C14.0704 39.5137 14.3788 40.0559 14.3788 40.5512C14.3788 41.2652 13.8748 41.7272 13.0488 41.7272C12.4008 41.7272 11.749 41.4561 11.0302 40.7571C10.8455 40.5776 10.6565 40.3698 10.4619 40.1312C10.2709 39.8968 10.0745 39.6326 9.87181 39.3361C9.84585 39.2981 9.81979 39.2596 9.79362 39.2206C9.5021 38.7857 9.19747 38.2843 8.87678 37.7092H8.82078C8.82275 37.7184 8.82472 37.7277 8.82668 37.7371C8.84375 37.8191 8.86053 37.9096 8.87678 38.0067C8.91322 38.2247 8.94698 38.476 8.97528 38.7389C9.0257 39.2075 9.05878 39.7127 9.05878 40.1312C9.05878 40.6252 8.99395 41.0208 8.84421 41.3111C8.64602 41.6953 8.29907 41.8952 7.75678 41.8952C6.60878 41.8952 6.30078 41.0272 6.30078 38.6332C6.30078 36.0152 6.60878 34.1112 7.35078 33.0472C7.38571 32.9963 7.42164 32.9468 7.45852 32.8987ZM5.70612 31.9091C5.10696 32.771 4.77443 33.8261 4.57962 34.9006C4.3808 35.9972 4.30078 37.2574 4.30078 38.6332C4.30078 39.8005 4.35733 41.007 4.75903 41.9475C4.98929 42.4866 5.36983 43.0342 5.98602 43.4188C6.58808 43.7946 7.22444 43.8952 7.75678 43.8952C8.65485 43.8952 9.61558 43.5902 10.2848 42.7495C11.1111 43.3708 12.0287 43.7272 13.0488 43.7272C13.8244 43.7272 14.6741 43.5074 15.3558 42.8986C15.826 42.4786 16.1237 41.9551 16.2701 41.4003C15.9665 41.1692 15.7393 40.8796 15.5863 40.5512C15.4266 40.2081 15.348 39.8226 15.348 39.4172C15.348 39.0219 15.4263 38.6622 15.5732 38.3452C15.429 38.1593 15.2721 37.9857 15.1081 37.8245C15.6164 37.3106 15.9914 36.6893 16.2136 35.9885C15.796 35.8953 15.558 35.5647 15.558 35.1052C15.558 34.8663 15.6356 34.6351 15.777 34.4192C15.9254 34.1925 16.1439 33.9826 16.4164 33.7983C16.2993 32.6929 15.8548 31.6117 14.9327 30.7818C13.8684 29.824 12.4442 29.4512 10.9348 29.4512C9.10786 29.4512 7.02007 30.0009 5.70612 31.9091ZM9.43882 35.6697C9.66272 35.81 9.96166 35.8892 10.3328 35.8892C10.4203 35.8892 10.506 35.8852 10.5896 35.8773C10.7832 35.859 10.9654 35.8201 11.1318 35.7622C11.2291 35.7283 11.3209 35.688 11.4064 35.6416C11.5975 35.5377 11.7569 35.4032 11.8742 35.2421C12.0164 35.0466 12.0968 34.812 12.0968 34.5452C12.0968 34.1029 11.9305 33.7346 11.598 33.5011C11.423 33.3782 11.2019 33.2927 10.9348 33.2535C10.8258 33.2375 10.7091 33.2292 10.5848 33.2292C9.86771 33.2292 9.35857 33.5645 9.11304 34.0356C9.00383 34.2451 8.94678 34.4815 8.94678 34.7272C8.94678 35.1334 9.1137 35.466 9.43882 35.6697ZM10.1956 34.1636C10.1257 34.295 10.0968 34.4315 10.0968 34.5452C10.0968 34.5682 10.1003 34.6345 10.1337 34.7272C10.1364 34.7345 10.1392 34.7419 10.1422 34.7496C10.1812 34.8483 10.2448 34.9505 10.3328 35.0396C10.3422 35.0491 10.3518 35.0584 10.3618 35.0676C10.4521 35.1511 10.5328 35.193 10.5848 35.2135C10.5912 35.216 10.5972 35.2182 10.6027 35.2202C10.6396 35.2075 10.7057 35.1775 10.778 35.1065C10.9012 34.9856 10.9468 34.8367 10.9468 34.7272C10.9468 34.6861 10.9418 34.623 10.9211 34.5452C10.9116 34.5091 10.8986 34.4699 10.8813 34.4283C10.8247 34.2926 10.7346 34.165 10.6195 34.0638C10.6078 34.0534 10.5962 34.0437 10.5848 34.0345C10.5127 33.9767 10.4476 33.9412 10.3973 33.9197C10.3779 33.9344 10.3559 33.9531 10.3328 33.9763C10.2879 34.0212 10.2387 34.0827 10.1956 34.1636Z" fill="#563B00"/>
</svg>
