<svg width="300" height="300" viewBox="0 0 300 300" fill="none" xmlns="http://www.w3.org/2000/svg">
<g clip-path="url(#clip0_3220_1931)">
<path fill-rule="evenodd" clip-rule="evenodd" d="M204.792 78.5703L204.792 77.1418L226.025 77.1418L226.025 54.9994L227.395 54.9994L227.395 78.5703L204.792 78.5703Z" fill="#FFE1AD"/>
<path fill-rule="evenodd" clip-rule="evenodd" d="M204.106 107.141L204.106 104.284L224.654 104.284L224.654 82.8555L227.393 82.8555L227.393 107.141L204.106 107.141Z" fill="#FFE1AD"/>
<path fill-rule="evenodd" clip-rule="evenodd" d="M203.422 137.143L203.422 132.857L223.285 132.857L223.285 112.143L227.394 112.143L227.394 137.143L203.422 137.143Z" fill="#FFE1AD"/>
<path fill-rule="evenodd" clip-rule="evenodd" d="M202.739 168.57L202.739 162.856L221.917 162.856L221.917 142.857L227.396 142.857L227.396 168.57L202.739 168.57Z" fill="#FFE1AD"/>
<path fill-rule="evenodd" clip-rule="evenodd" d="M201.367 199.996L201.367 191.425L219.175 191.425L219.175 172.854L227.394 172.854L227.394 199.996L201.367 199.996Z" fill="#FFE1AD"/>
<path fill-rule="evenodd" clip-rule="evenodd" d="M199.999 232.848L199.999 221.419L216.437 221.419L216.437 204.277L227.396 204.277L227.396 232.848L199.999 232.848Z" fill="#FFE1AD"/>
<path fill-rule="evenodd" clip-rule="evenodd" d="M227.395 237.135L216.436 237.135L216.436 254.277L199.998 254.277L199.998 265.706L227.395 265.706L227.395 237.135Z" fill="#FFE1AD"/>
<path fill-rule="evenodd" clip-rule="evenodd" d="M241.774 51.4277L241.774 49.9992L263.006 49.9992L263.006 27.8569L264.376 27.8569L264.376 51.4277L241.774 51.4277Z" fill="#FFE1AD"/>
<path fill-rule="evenodd" clip-rule="evenodd" d="M241.094 78.5703L241.094 75.7132L261.641 75.7132L261.641 54.2852L264.381 54.2852L264.381 78.5703L241.094 78.5703Z" fill="#FFE1AD"/>
<path fill-rule="evenodd" clip-rule="evenodd" d="M240.412 107.141L240.412 102.855L260.274 102.855L260.274 82.1412L264.384 82.1412L264.384 107.141L240.412 107.141Z" fill="#FFE1AD"/>
<path fill-rule="evenodd" clip-rule="evenodd" d="M239.726 137.146L239.726 131.432L258.903 131.432L258.903 111.433L264.382 111.433L264.382 137.146L239.726 137.146Z" fill="#FFE1AD"/>
<path fill-rule="evenodd" clip-rule="evenodd" d="M238.353 168.568L238.353 159.997L256.161 159.997L256.161 141.426L264.38 141.426L264.38 168.568L238.353 168.568Z" fill="#FFE1AD"/>
<path fill-rule="evenodd" clip-rule="evenodd" d="M237.669 199.996L237.669 189.996L254.792 189.996L254.792 172.14L264.381 172.14L264.381 199.996L237.669 199.996Z" fill="#FFE1AD"/>
<path fill-rule="evenodd" clip-rule="evenodd" d="M236.984 232.854L236.984 221.425L253.422 221.425L253.422 204.283L264.381 204.283L264.381 232.854L236.984 232.854Z" fill="#FFE1AD"/>
<path fill-rule="evenodd" clip-rule="evenodd" d="M235.615 265.713L235.615 251.428L250.683 251.428L250.683 235.714L264.381 235.714L264.381 265.713L235.615 265.713Z" fill="#FFE1AD"/>
<path fill-rule="evenodd" clip-rule="evenodd" d="M198.628 299.992L198.628 285.707L213.696 285.707L213.696 269.993L227.394 269.993L227.394 299.992L198.628 299.992Z" fill="#FFE1AD"/>
<path fill-rule="evenodd" clip-rule="evenodd" d="M264.379 269.996L250.681 269.996L250.681 285.71L235.612 285.71L235.612 299.995L264.379 299.995L264.379 269.996Z" fill="#FFE1AD"/>
<path fill-rule="evenodd" clip-rule="evenodd" d="M277.395 23.5703L277.395 22.1418L298.627 22.1418L298.627 -0.000568441L299.997 -0.000568321L299.997 23.5703L277.395 23.5703Z" fill="#FFE1AD"/>
<path fill-rule="evenodd" clip-rule="evenodd" d="M276.711 51.4238L276.711 48.5668L297.258 48.5668L297.258 27.1387L299.998 27.1387L299.998 51.4238L276.711 51.4238Z" fill="#FFE1AD"/>
<path fill-rule="evenodd" clip-rule="evenodd" d="M276.022 78.5703L276.022 74.2847L295.885 74.2847L295.885 53.5709L299.994 53.5709L299.994 78.5703L276.022 78.5703Z" fill="#FFE1AD"/>
<path fill-rule="evenodd" clip-rule="evenodd" d="M275.344 107.141L275.344 101.426L294.521 101.426L294.521 81.4269L300.001 81.4269L300.001 107.141L275.344 107.141Z" fill="#FFE1AD"/>
<path fill-rule="evenodd" clip-rule="evenodd" d="M273.969 137.143L273.969 128.571L291.777 128.571L291.777 110L299.996 110L299.996 137.143L273.969 137.143Z" fill="#FFE1AD"/>
<path fill-rule="evenodd" clip-rule="evenodd" d="M273.285 168.57L273.285 158.571L290.408 158.571L290.408 140.714L299.997 140.714L299.997 168.57L273.285 168.57Z" fill="#FFE1AD"/>
<path fill-rule="evenodd" clip-rule="evenodd" d="M272.601 199.996L272.601 188.568L289.039 188.568L289.039 171.425L299.998 171.425L299.998 199.996L272.601 199.996Z" fill="#FFE1AD"/>
<path fill-rule="evenodd" clip-rule="evenodd" d="M271.232 232.852L271.232 218.566L286.3 218.566L286.3 202.852L299.998 202.852L299.998 232.852L271.232 232.852Z" fill="#FFE1AD"/>
<path fill-rule="evenodd" clip-rule="evenodd" d="M299.997 235.002L284.929 235.002L284.929 250.002L270.546 250.002L270.546 265.716L299.997 265.716L299.997 235.002Z" fill="#FFE1AD"/>
<path fill-rule="evenodd" clip-rule="evenodd" d="M270.548 300L270.548 284.286L284.931 284.286L284.931 269.286L299.999 269.286L299.999 300L270.548 300Z" fill="#FFE1AD"/>
<path fill-rule="evenodd" clip-rule="evenodd" d="M75.3467 200.713L73.9769 200.713L73.9769 222.855L52.7445 222.855L52.7445 224.284L75.3467 224.284L75.3467 200.713Z" fill="#FFE1AD"/>
<path fill-rule="evenodd" clip-rule="evenodd" d="M102.738 199.996L99.9985 199.996L99.9985 221.424L79.4511 221.424L79.4511 224.281L102.738 224.281L102.738 199.996Z" fill="#FFE1AD"/>
<path fill-rule="evenodd" clip-rule="evenodd" d="M131.508 199.289L127.398 199.289L127.398 220.003L107.536 220.003L107.536 224.288L131.508 224.288L131.508 199.289Z" fill="#FFE1AD"/>
<path fill-rule="evenodd" clip-rule="evenodd" d="M161.641 198.568L156.161 198.568L156.161 218.568L136.984 218.568L136.984 224.282L161.641 224.282L161.641 198.568Z" fill="#FFE1AD"/>
<path fill-rule="evenodd" clip-rule="evenodd" d="M191.78 197.143L183.561 197.143L183.561 215.714L165.753 215.714L165.753 224.285L191.78 224.285L191.78 197.143Z" fill="#FFE1AD"/>
<path fill-rule="evenodd" clip-rule="evenodd" d="M49.3131 239.281L47.9433 239.281L47.9433 261.424L26.711 261.424L26.711 262.852L49.3131 262.852L49.3131 239.281Z" fill="#FFE1AD"/>
<path fill-rule="evenodd" clip-rule="evenodd" d="M75.3445 238.566L72.6048 238.566L72.6048 259.994L52.0574 259.994L52.0574 262.852L75.3445 262.852L75.3445 238.566Z" fill="#FFE1AD"/>
<path fill-rule="evenodd" clip-rule="evenodd" d="M102.738 237.855L98.6287 237.855L98.6287 258.569L78.7662 258.569L78.7662 262.855L102.738 262.855L102.738 237.855Z" fill="#FFE1AD"/>
<path fill-rule="evenodd" clip-rule="evenodd" d="M131.508 237.141L126.028 237.141L126.028 257.14L106.851 257.14L106.851 262.854L131.508 262.854L131.508 237.141Z" fill="#FFE1AD"/>
<path fill-rule="evenodd" clip-rule="evenodd" d="M161.639 235.717L153.42 235.717L153.42 254.288L135.613 254.288L135.613 262.859L161.639 262.859L161.639 235.717Z" fill="#FFE1AD"/>
<path fill-rule="evenodd" clip-rule="evenodd" d="M191.776 235.002L182.187 235.002L182.187 252.859L165.064 252.859L165.064 262.858L191.776 262.858L191.776 235.002Z" fill="#FFE1AD"/>
<path fill-rule="evenodd" clip-rule="evenodd" d="M22.6012 276.428L21.2314 276.428L21.2314 298.57L-0.000946073 298.57L-0.000946198 299.999L22.6012 299.999L22.6012 276.428Z" fill="#FFE1AD"/>
<path fill-rule="evenodd" clip-rule="evenodd" d="M49.3154 275.713L46.5758 275.713L46.5758 297.141L26.0284 297.141L26.0284 299.998L49.3154 299.998L49.3154 275.713Z" fill="#FFE1AD"/>
<path fill-rule="evenodd" clip-rule="evenodd" d="M75.3445 274.994L71.235 274.994L71.235 295.708L51.3725 295.708L51.3725 299.994L75.3445 299.994L75.3445 274.994Z" fill="#FFE1AD"/>
<path fill-rule="evenodd" clip-rule="evenodd" d="M102.737 274.287L97.2578 274.287L97.2578 294.287L78.0802 294.287L78.0802 300.001L102.737 300.001L102.737 274.287Z" fill="#FFE1AD"/>
<path fill-rule="evenodd" clip-rule="evenodd" d="M131.508 272.854L123.289 272.854L123.289 291.425L105.481 291.425L105.481 299.996L131.508 299.996L131.508 272.854Z" fill="#FFE1AD"/>
<path fill-rule="evenodd" clip-rule="evenodd" d="M161.644 272.139L152.055 272.139L152.055 289.995L134.932 289.995L134.932 299.995L161.644 299.995L161.644 272.139Z" fill="#FFE1AD"/>
<path fill-rule="evenodd" clip-rule="evenodd" d="M191.776 271.43L180.817 271.43L180.817 288.572L164.379 288.572L164.379 300L191.776 300L191.776 271.43Z" fill="#FFE1AD"/>
</g>
<defs>
<clipPath id="clip0_3220_1931">
<rect width="300.002" height="300" fill="white" transform="translate(-0.00158691)"/>
</clipPath>
</defs>
</svg>
