<svg width="70" height="70" viewBox="0 0 70 70" fill="none" xmlns="http://www.w3.org/2000/svg">
<circle cx="35" cy="38" r="26" fill="#563B00" stroke="#563B00" stroke-width="2" stroke-linejoin="round"/>
<circle cx="35" cy="35" r="26" fill="#FFEA05" stroke="#563B00" stroke-width="2" stroke-linejoin="round"/>
<path fill-rule="evenodd" clip-rule="evenodd" d="M31.0452 23.8004C31.2486 23.9305 31.4346 24.0787 31.604 24.2421C31.874 23.987 32.1698 23.7831 32.4475 23.6287C33.325 23.1406 34.4238 22.8885 35.5306 22.8885C36.7556 22.8885 37.9966 23.2176 38.9333 24.0014C39.1232 23.7072 39.3746 23.4324 39.7037 23.218C40.1433 22.9316 40.6247 22.8165 41.0835 22.8165C41.5979 22.8165 42.034 22.9618 42.3908 23.1861C42.7689 22.9875 43.2109 22.8645 43.7235 22.8645C44.7767 22.8645 45.6304 23.3656 46.1599 24.1507C47.1614 23.4109 48.3977 23.0565 49.692 23.0565C50.8441 23.0565 51.9383 23.3159 52.7702 24.0044C53.6463 24.7296 54.004 25.741 54.004 26.7445C54.004 27.3408 53.8762 27.8941 53.6417 28.3868C53.6544 28.3978 53.6669 28.409 53.6793 28.4204C54.2073 28.9025 54.496 29.5856 54.496 30.3445C54.496 31.5819 53.7248 32.4826 52.8028 32.9907C51.911 33.4823 50.7648 33.6965 49.5 33.6965C47.8733 33.6965 46.4241 33.3479 45.3852 32.3919C44.937 31.9796 44.6189 31.5046 44.4007 30.9973C44.3555 31.6248 44.158 32.3031 43.6269 32.8418C43.0031 33.4744 42.2062 33.6245 41.5875 33.6245C40.9964 33.6245 40.3344 33.4864 39.7598 33.0427C39.589 33.2013 39.3931 33.338 39.1714 33.4465C38.7161 33.6694 38.2596 33.7205 37.8946 33.7205C37.4975 33.7205 36.9827 33.6629 36.5011 33.3947C35.8993 33.6444 35.2335 33.7565 34.5466 33.7565C33.4894 33.7565 32.5192 33.4709 31.7699 32.8562C31.2616 33.2704 30.6395 33.4805 29.9719 33.4805C29.3543 33.4805 28.7091 33.2992 28.1912 32.8441C27.6019 33.4881 26.8262 33.7085 26.1439 33.7085C25.627 33.7085 24.8044 33.6296 24.117 32.9636C23.9621 32.8134 23.8304 32.6488 23.718 32.4738C23.6745 32.5097 23.6302 32.5448 23.5851 32.5792C22.6334 33.3035 21.4 33.6365 20.1081 33.6365C19.346 33.6365 18.3507 33.5342 17.4829 33.1379C16.558 32.7155 15.5681 31.8263 15.5681 30.3205C15.5681 29.6878 15.3584 28.3084 16.3991 28.2819C16.4145 28.2679 16.43 28.2542 16.4456 28.2408C15.9713 27.6048 15.7961 26.8626 15.7961 26.1205C15.7961 24.3116 16.8161 23.1022 17.991 22.4255C19.1001 21.7867 20.4024 21.5685 21.4161 21.5685C22.204 21.5685 23.0277 21.6877 23.7395 22.0351C23.9507 21.7662 24.2081 21.5255 24.5189 21.3335C25.0232 21.0218 25.5734 20.8965 26.1079 20.8965C26.8513 20.8965 27.691 21.1457 28.2433 21.9339C28.5384 22.3551 28.6693 22.8246 28.7251 23.2503C28.8312 23.2412 28.9388 23.2365 29.0479 23.2365C29.7383 23.2365 30.4269 23.4051 31.0452 23.8004ZM31.0035 26.1081C30.8703 25.8417 30.7143 25.6187 30.5373 25.4376C30.6044 25.5063 30.6686 25.581 30.7296 25.6618C30.8296 25.7942 30.9207 25.9426 31.0035 26.1081C31.0401 26.1824 31.075 26.261 31.1077 26.3424L31.1101 26.3485C31.2369 26.6665 31.334 27.0337 31.4029 27.415C31.4083 27.4447 31.4135 27.4746 31.4185 27.5045C31.4593 27.7468 31.4888 27.9937 31.5075 28.2363L31.5084 28.2478C31.5241 28.4558 31.5319 28.6606 31.5319 28.8565C31.5319 29.275 31.5095 29.6429 31.4671 29.9644L31.4628 29.9965C31.3621 30.7288 31.1557 31.2167 30.8715 31.5122C30.8467 31.538 30.8212 31.5624 30.7952 31.5854C30.5624 31.7904 30.2835 31.8805 29.9719 31.8805C30.8959 31.8805 31.5319 31.0885 31.5319 28.8565C31.5319 27.9445 31.3635 26.8401 31.0035 26.1081ZM23.1602 30.7452C23.1511 30.7581 23.142 30.7709 23.1326 30.7837C22.563 31.5635 21.4817 32.0365 20.1081 32.0365C22.1721 32.0365 23.5757 30.9681 23.5757 29.3961C23.5757 28.824 23.4195 28.3485 23.0284 27.9516C23.3953 28.3238 23.5556 28.7651 23.5742 29.2903C23.5755 29.3253 23.5757 29.3603 23.5757 29.3961C23.5757 29.8905 23.4372 30.3354 23.1826 30.7125M23.1826 30.7125L23.1713 30.7292C23.1676 30.7345 23.1639 30.7399 23.1602 30.7452M20.5157 25.7841C20.7573 25.7841 21.0829 25.8188 21.4143 25.8542C21.7576 25.8908 22.107 25.9281 22.3757 25.9281C23.3717 25.9281 23.8397 25.4121 23.8397 24.6561C23.8397 25.2768 23.5246 25.7361 22.8604 25.8805C22.837 25.8856 22.8131 25.8903 22.7888 25.8946C22.7819 25.8958 22.7749 25.897 22.7679 25.8982C22.6478 25.9181 22.5168 25.9281 22.3757 25.9281C22.107 25.9281 21.7576 25.8908 21.4143 25.8542L21.1966 25.8316C20.9434 25.8056 20.7039 25.7841 20.5157 25.7841ZM20.8728 28.6675C20.7231 28.5181 20.3861 28.4154 19.7477 28.2681C18.8595 28.0854 18.2557 27.8333 17.8824 27.4614C17.931 27.5099 17.9835 27.5563 18.0401 27.6008C18.1622 27.6969 18.3031 27.7841 18.4641 27.8634C18.7633 28.0108 19.1316 28.1312 19.5768 28.2316C19.6327 28.2442 19.6894 28.2561 19.7477 28.2681C19.8069 28.2818 19.8638 28.2954 19.9179 28.3084C20.0273 28.3346 20.1264 28.3595 20.2161 28.3838C20.3209 28.4121 20.4128 28.4396 20.493 28.4671L20.5159 28.4751C20.5515 28.4876 20.5846 28.5002 20.6154 28.5129C20.7322 28.5611 20.816 28.6109 20.8728 28.6675ZM32.4881 26.9792L32.4748 26.9663C32.4792 26.9707 32.4836 26.975 32.4881 26.9792ZM32.4881 26.9792L32.4888 26.9799C32.6132 27.098 32.7823 27.1758 32.9901 27.2023C33.0425 27.209 33.0974 27.2125 33.1546 27.2125C33.4966 27.2125 33.8416 27.1075 34.1866 27.0025C34.3707 26.9464 34.5549 26.8904 34.7386 26.8503C34.899 26.8153 35.0591 26.7925 35.2186 26.7925C34.8766 26.7925 34.5316 26.8975 34.1866 27.0025C33.8416 27.1075 33.4966 27.2125 33.1546 27.2125C32.8702 27.2125 32.6439 27.1272 32.4881 26.9792ZM27.2479 28.5925C27.2479 28.8432 27.2719 29.0961 27.2994 29.3624L27.3077 29.4419C27.3398 29.7502 27.3739 30.0774 27.3792 30.4405C27.3796 30.4722 27.3799 30.5042 27.3799 30.5365C27.3799 30.7864 27.354 31.0027 27.3059 31.1881C27.1371 31.8394 26.695 32.1085 26.1439 32.1085C26.8519 32.1085 27.3799 31.6645 27.3799 30.5365C27.3799 30.1348 27.3426 29.7771 27.3077 29.4419C27.2769 29.1462 27.2479 28.868 27.2479 28.5925ZM27.1635 23.9001C27.1635 23.3646 27.0748 22.9782 26.8461 22.748C27.0515 22.9544 27.1441 23.2865 27.161 23.7393C27.1629 23.7914 27.1635 23.8448 27.1635 23.9001C27.1635 24.4439 27.1001 25.1704 26.9963 25.7928C26.9811 25.8841 26.965 25.9732 26.9481 26.0591L26.9475 26.0601C27.0795 25.3881 27.1635 24.5241 27.1635 23.9001ZM27.3645 28.0844C27.3645 28.0844 27.3648 28.0854 27.3653 28.0875L27.3645 28.0844ZM42.8111 30.6921C42.8111 30.1731 42.696 29.5032 42.5919 28.8967C42.5058 28.3953 42.4271 27.9374 42.4271 27.6441C42.4271 27.1281 42.5831 26.7681 42.8471 26.7681C42.5965 26.7681 42.4436 27.0928 42.4287 27.567L42.4283 27.5819C42.4278 27.6025 42.4271 27.623 42.4271 27.6441C42.4271 27.8195 42.4556 28.0542 42.4967 28.3215C42.5243 28.5011 42.5573 28.6952 42.5919 28.8967C42.6582 29.2827 42.7293 29.6949 42.7719 30.077C42.7963 30.2953 42.8111 30.5035 42.8111 30.6921ZM43.9275 28.7365C44.6955 28.7365 45.2111 28.1841 45.2111 26.5761C45.2111 25.8391 45.0346 25.2108 44.6621 24.8356C44.7997 24.9741 44.9106 25.1471 44.9957 25.3474C45.1412 25.6896 45.2111 26.111 45.2111 26.5761C45.2111 27.9976 44.8083 28.5942 44.1842 28.7134L44.1719 28.7157C44.1126 28.7264 44.0513 28.7328 43.9882 28.7353C43.9681 28.7361 43.9479 28.7365 43.9275 28.7365ZM41.7038 24.6716C41.986 24.9541 42.1203 25.4305 42.1511 25.8921C42.1386 25.7054 42.1094 25.5155 42.0601 25.3378C41.9875 25.0764 41.8718 24.8396 41.7038 24.6716ZM38.3553 25.727C38.4724 25.8964 38.5715 26.0835 38.6506 26.2885C38.7291 26.4899 38.7979 26.7022 38.8575 26.9245C39.0712 27.7217 39.1666 28.647 39.1666 29.6605C39.1666 30.1882 39.1383 30.6106 39.0793 30.9461L39.0766 30.9613C39.0177 31.2884 38.9292 31.5318 38.8087 31.7088C38.6478 31.945 38.43 32.0629 38.1498 32.1036C38.0698 32.1152 37.9848 32.1205 37.8946 32.1205C38.7826 32.1205 39.1666 31.6045 39.1666 29.6605C39.1666 28.3645 39.0106 27.2125 38.6506 26.2885C38.5288 25.973 38.3595 25.6995 38.1499 25.4679C38.2235 25.5492 38.292 25.6355 38.3553 25.727ZM34.5466 32.1565C34.865 32.1565 35.1578 32.1256 35.4247 32.0643L35.4281 32.0635L35.4586 32.0564C36.0703 31.9089 36.5435 31.5998 36.8743 31.1369C36.3943 31.8089 35.6146 32.1565 34.5466 32.1565ZM52.896 30.3445C52.896 30.0383 52.7974 29.8114 52.653 29.6543C52.6454 29.646 52.6377 29.638 52.6299 29.6301C52.7866 29.7879 52.896 30.0225 52.896 30.3445ZM48.1174 29.5419C48.0992 29.5238 48.0819 29.505 48.0655 29.4854C47.9497 29.3469 47.8786 29.171 47.856 28.9525C48.1421 29.045 48.4636 29.1081 48.804 29.1375C48.949 29.1501 49.0974 29.1565 49.248 29.1565C49.3086 29.1565 49.3686 29.1555 49.428 29.1536C50.0577 29.1329 50.6172 29.0033 51.0764 28.7796C51.4649 28.5904 51.7815 28.3338 52.008 28.0189C52.0635 27.9418 52.1135 27.8611 52.1579 27.7772C52.3178 27.4746 52.404 27.1283 52.404 26.7445C52.404 28.2325 51.108 29.1565 49.248 29.1565C48.744 29.1565 48.264 29.0845 47.856 28.9525C47.8818 29.2021 47.9705 29.3957 48.1174 29.5419ZM47.9396 27.3801C47.9396 26.7801 48.6596 26.2401 49.5116 26.2401C49.7809 26.2401 49.9909 26.315 50.132 26.4425C50.0292 26.3498 49.8899 26.2849 49.7177 26.2566C49.7092 26.2552 49.7007 26.2538 49.692 26.2526C49.6354 26.2446 49.5749 26.2401 49.5116 26.2401C49.261 26.2401 49.0221 26.2872 48.8093 26.3685L48.804 26.3705L48.8016 26.3714C48.3278 26.5547 47.9864 26.9095 47.9444 27.2994C47.9415 27.3263 47.9396 27.3529 47.9396 27.3801ZM36.5549 29.3451C36.4889 29.2788 36.404 29.2242 36.3054 29.1807C36.2502 29.1564 36.1908 29.1355 36.128 29.118C36.0052 29.0839 35.8695 29.0626 35.7277 29.0535C35.6748 29.0502 35.6209 29.0485 35.5666 29.0485C35.5299 29.0485 35.4938 29.0494 35.4586 29.0511C35.4124 29.0533 35.3675 29.057 35.324 29.062C35.0846 29.0899 34.8863 29.1593 34.7386 29.259C34.6695 29.3056 34.6115 29.3589 34.5654 29.4176C34.4827 29.5231 34.4386 29.6463 34.4386 29.7805C34.4386 29.3605 34.8706 29.0485 35.5666 29.0485C35.9739 29.0485 36.3531 29.1421 36.5549 29.3451Z" fill="#563B00"/>
<path fill-rule="evenodd" clip-rule="evenodd" d="M25.3951 47.5704C25.594 47.3154 25.7398 47.04 25.8455 46.7571C25.9663 46.9174 26.0983 47.0706 26.2417 47.2158C27.196 48.182 28.4983 48.6365 29.8956 48.6365C31.3537 48.6365 32.7135 48.1812 33.7169 47.2057C34.7259 46.2247 35.2156 44.8717 35.2156 43.3885C35.2156 41.9313 34.7273 40.5839 33.7459 39.5956C32.7627 38.6055 31.4123 38.1045 29.9316 38.1045C29.1964 38.1045 28.4985 38.2416 27.867 38.5083C27.828 38.4248 27.784 38.3413 27.7344 38.2583C27.3774 37.6608 26.8375 37.263 26.2252 37.012L26.2159 37.0082L26.2067 37.0045C25.4043 36.6873 24.391 36.5805 23.1824 36.5805C21.883 36.5805 20.7405 36.7101 19.8146 37.1636L19.8029 37.1694C19.2562 37.4428 18.7601 37.8338 18.4078 38.3814C18.0517 38.9349 17.9104 39.5433 17.9104 40.1365C17.9104 40.7691 18.0712 41.5823 18.7397 42.2062C19.1468 42.5861 19.6275 42.7871 20.1064 42.8836C19.9159 43.7392 19.7944 44.601 19.7944 45.2965C19.7944 46.0809 19.9532 46.9718 20.5569 47.6792C21.2033 48.4364 22.0969 48.6845 22.9184 48.6845C23.8226 48.6845 24.754 48.3926 25.3951 47.5704ZM20.5302 41.3341C20.2069 41.2869 19.9708 41.1774 19.8077 41.0135C20.0312 41.2379 20.3918 41.3601 20.926 41.3601C21.298 41.3601 21.874 41.2641 22.306 41.1321C22.2416 41.1518 22.1737 41.1712 22.1041 41.1891C21.7067 41.2911 21.2424 41.3601 20.926 41.3601C20.7815 41.3601 20.6501 41.3515 20.5302 41.3341ZM24.5024 45.1525C24.5024 44.6002 24.4038 43.7308 24.2271 42.8413C24.1355 42.38 24.0229 41.9133 23.8921 41.4827C23.8531 41.3544 23.8125 41.2293 23.7704 41.1085C23.8542 41.1315 23.9372 41.1527 24.0195 41.172C24.4085 41.2634 24.7797 41.3125 25.1264 41.3125C25.1584 41.3125 25.1899 41.3118 25.2209 41.3106C25.3177 41.3066 25.4093 41.2964 25.4957 41.2804L25.4994 41.2797C26.2002 41.148 26.5544 40.6301 26.5544 39.9085C26.5544 39.725 26.5368 39.5529 26.4932 39.3937C26.4376 39.1903 26.3396 39.0079 26.1821 38.85C26.4625 39.1314 26.5544 39.4905 26.5544 39.9085C26.5544 40.7485 26.0744 41.3125 25.1264 41.3125C24.7064 41.3125 24.2504 41.2405 23.7704 41.1085C24.2264 42.4165 24.5024 44.2285 24.5024 45.1525Z" fill="#563B00"/>
<path d="M29.8955 46.0351C27.7955 46.0351 26.4395 44.6911 26.4395 42.5071C26.4395 40.2391 27.8195 38.7031 29.9315 38.7031C32.1635 38.7031 33.6155 40.1911 33.6155 42.3871C33.6155 44.6431 32.1515 46.0351 29.8955 46.0351ZM30.0635 43.7791C30.7835 43.7791 31.2515 43.1791 31.2515 42.2431C31.2515 41.3071 30.7835 40.7071 30.0635 40.7071C29.3315 40.7071 28.8755 41.3071 28.8755 42.2431C28.8755 43.1791 29.3315 43.7791 30.0635 43.7791Z" fill="white"/>
<path d="M23.1827 37.1797C24.3347 37.1797 25.1027 37.2877 25.6187 37.4917C26.3507 37.7917 26.5547 38.2837 26.5547 38.9077C26.5547 39.7477 26.0747 40.3117 25.1267 40.3117C24.7067 40.3117 24.2507 40.2397 23.7707 40.1077C24.2267 41.4157 24.5027 43.2277 24.5027 44.1517C24.5027 45.3997 24.0467 46.0837 22.9187 46.0837C21.8987 46.0837 21.3947 45.4957 21.3947 44.2957C21.3947 43.1677 21.8147 41.3317 22.3067 40.1317C21.8747 40.2637 21.2987 40.3597 20.9267 40.3597C19.8947 40.3597 19.5107 39.9037 19.5107 39.1357C19.5107 38.4637 19.8227 37.9477 20.5187 37.5997C21.1067 37.3117 21.9467 37.1797 23.1827 37.1797Z" fill="white"/>
<path d="M49.4999 31.0963C46.6319 31.0963 45.5879 29.8483 45.5879 27.7843C45.5879 25.1803 47.3159 23.6562 49.6919 23.6562C51.5639 23.6562 52.4039 24.5083 52.4039 25.7443C52.4039 27.2323 51.1079 28.1563 49.2479 28.1563C48.7439 28.1563 48.2639 28.0843 47.8559 27.9523C47.9279 28.6483 48.4919 28.9123 49.4279 28.9123C50.7719 28.9123 51.3839 28.3723 52.0079 28.3723C52.4039 28.3723 52.8959 28.6603 52.8959 29.3443C52.8959 30.3283 51.7199 31.0963 49.4999 31.0963ZM48.8039 26.9683C49.6679 26.9683 50.3399 26.5243 50.3399 25.9363C50.3399 25.5283 50.0399 25.2403 49.5119 25.2403C48.6599 25.2403 47.9399 25.7803 47.9399 26.3803C47.9399 26.7523 48.2519 26.9683 48.8039 26.9683Z" fill="white"/>
<path d="M39.8838 25.924C39.8838 24.148 40.3278 23.416 41.0838 23.416C41.8038 23.416 42.1038 24.172 42.1518 24.892C42.4398 24.1 42.9798 23.464 43.7238 23.464C44.7438 23.464 45.2118 24.376 45.2118 25.576C45.2118 27.184 44.6958 27.736 43.9278 27.736C43.3398 27.736 43.0638 27.4 43.1238 26.62C43.1598 25.972 43.0518 25.768 42.8478 25.768C42.5838 25.768 42.4278 26.128 42.4278 26.644C42.4278 27.292 42.8118 28.744 42.8118 29.692C42.8118 30.652 42.3558 31.024 41.5878 31.024C40.8318 31.024 40.3758 30.652 40.1958 29.74C40.0278 28.828 39.8838 27.052 39.8838 25.924Z" fill="white"/>
<path d="M37.8945 31.1203C37.1745 31.1203 36.9225 30.8203 36.8745 30.1363C36.3945 30.8083 35.6145 31.1563 34.5465 31.1563C32.8545 31.1563 32.0625 30.1723 32.0625 28.9963C32.0625 27.6643 33.1185 26.8123 34.7385 26.8123C35.5425 26.8123 36.1785 27.0163 36.6705 27.3763C36.5745 26.2363 36.0705 25.7923 35.2185 25.7923C34.5345 25.7923 33.8385 26.2123 33.1545 26.2123C32.5785 26.2123 32.2425 25.8643 32.2425 25.3483C32.2425 24.3043 33.7665 23.4883 35.5305 23.4883C37.0185 23.4883 38.1825 24.0763 38.6505 25.2883C39.0105 26.2123 39.1665 27.3643 39.1665 28.6603C39.1665 30.6043 38.7825 31.1203 37.8945 31.1203ZM35.4585 29.4643C36.0225 29.4643 36.7065 29.2123 36.7065 28.7083C36.7065 28.2523 36.1665 28.0483 35.5665 28.0483C34.8705 28.0483 34.4385 28.3603 34.4385 28.7803C34.4385 29.2003 34.8225 29.4643 35.4585 29.4643Z" fill="white"/>
<path d="M26.1082 21.4961C26.9002 21.4961 27.1642 21.9761 27.1642 22.9001C27.1642 23.5241 27.0802 24.3881 26.9482 25.0601C27.4522 24.3281 28.2202 23.8361 29.0482 23.8361C29.9002 23.8361 30.5722 24.2441 31.0042 25.1081C31.3642 25.8401 31.5322 26.9441 31.5322 27.8561C31.5322 30.0881 30.8962 30.8801 29.9722 30.8801C29.2282 30.8801 28.8442 30.3881 28.8442 29.4401C28.8442 28.7081 28.9762 27.8921 28.9762 27.2441C28.9762 26.4521 28.6882 26.0561 28.2202 26.0561C27.6442 26.0561 27.2482 26.6321 27.2482 27.5921C27.2482 28.1801 27.3802 28.7801 27.3802 29.5361C27.3802 30.6641 26.8522 31.1081 26.1442 31.1081C25.4122 31.1081 24.9202 30.8681 24.7042 29.4761C24.5122 28.3121 24.3682 26.1521 24.3682 24.8801C24.3682 22.5281 24.9802 21.4961 26.1082 21.4961Z" fill="white"/>
<path d="M20.108 31.036C18.8 31.036 17.168 30.664 17.168 29.32C17.168 28.564 17.552 28.18 18.464 28.18C19.028 28.18 19.76 28.348 20.216 28.348C20.732 28.348 20.972 28.168 20.972 27.916C20.972 27.604 20.684 27.484 19.748 27.268C18.056 26.92 17.396 26.32 17.396 25.12C17.396 22.9 19.772 22.168 21.416 22.168C22.88 22.168 23.84 22.684 23.84 23.656C23.84 24.412 23.372 24.928 22.376 24.928C21.848 24.928 21.008 24.784 20.516 24.784C19.976 24.784 19.712 24.928 19.712 25.228C19.712 25.492 19.904 25.66 20.912 25.936C22.916 26.452 23.576 27.22 23.576 28.396C23.576 29.968 22.172 31.036 20.108 31.036Z" fill="white"/>
<path fill-rule="evenodd" clip-rule="evenodd" d="M25.2212 40.3096C24.9653 40.9906 24.8398 41.7357 24.8398 42.5075C24.8398 43.9341 25.2891 45.2501 26.242 46.2149C27.1963 47.1811 28.4986 47.6355 29.8958 47.6355C31.3539 47.6355 32.7138 47.1802 33.7172 46.2047C34.7262 45.2238 35.2158 43.8708 35.2158 42.3875C35.2158 40.9303 34.7276 39.5829 33.7462 38.5946C32.763 37.6046 31.4125 37.1035 29.9318 37.1035C28.6082 37.1035 27.4057 37.5479 26.4935 38.3928C26.537 38.5519 26.5547 38.724 26.5547 38.9075C26.5547 39.7191 26.1066 40.2731 25.2212 40.3096ZM26.4398 42.5075C26.4398 44.6915 27.7958 46.0355 29.8958 46.0355C32.1518 46.0355 33.6158 44.6435 33.6158 42.3875C33.6158 40.1915 32.1638 38.7035 29.9318 38.7035C27.8198 38.7035 26.4398 40.2395 26.4398 42.5075ZM31.2518 42.2435C31.2518 43.1795 30.7838 43.7795 30.0638 43.7795C29.3318 43.7795 28.8758 43.1795 28.8758 42.2435C28.8758 41.3075 29.3318 40.7075 30.0638 40.7075C30.7838 40.7075 31.2518 41.3075 31.2518 42.2435Z" fill="#563B00"/>
<path fill-rule="evenodd" clip-rule="evenodd" d="M25.6191 37.4921C25.1031 37.2881 24.3351 37.1801 23.1831 37.1801C21.9471 37.1801 21.1071 37.3121 20.5191 37.6001C19.8231 37.9481 19.5111 38.4641 19.5111 39.1361C19.5111 39.7965 19.7951 40.2262 20.531 40.3336C20.6508 40.3511 20.7826 40.3601 20.9271 40.3601C21.2435 40.3601 21.7074 40.2906 22.1048 40.1887C22.1747 40.1708 22.2425 40.1518 22.3071 40.1321C22.2676 40.2286 22.2285 40.3292 22.19 40.4332C22.0266 40.8754 21.8748 41.3792 21.7486 41.8911C21.5353 42.7563 21.3951 43.6444 21.3951 44.2961C21.3951 45.4961 21.8991 46.0841 22.9191 46.0841C24.0471 46.0841 24.5031 45.4001 24.5031 44.1521C24.5031 43.5998 24.4045 42.7304 24.2279 41.8409C24.1362 41.3796 24.0236 40.9129 23.8928 40.4823C23.8538 40.354 23.8132 40.2289 23.7711 40.1081C23.8549 40.1311 23.9379 40.1523 24.0202 40.1716C24.4092 40.263 24.7804 40.3121 25.1271 40.3121C25.2608 40.3121 25.3851 40.3009 25.5002 40.2793C26.2009 40.1476 26.5551 39.6296 26.5551 38.9081C26.5551 38.2841 26.3511 37.7921 25.6191 37.4921ZM25.8561 41.8394C26.0156 42.7193 26.1031 43.5608 26.1031 44.1521C26.1031 44.9192 25.9726 45.8304 25.3958 46.57C24.7547 47.3922 23.8233 47.6841 22.9191 47.6841C22.0976 47.6841 21.204 47.436 20.5577 46.6788C19.9539 45.9714 19.7951 45.0804 19.7951 44.2961C19.7951 43.6006 19.9166 42.7388 20.1071 41.8832C19.6282 41.7867 19.1475 41.5857 18.7404 41.2058C18.072 40.5819 17.9111 39.7687 17.9111 39.1361C17.9111 38.5429 18.0524 37.9345 18.4085 37.381C18.7608 36.8333 19.2569 36.4424 19.8036 36.169L19.8153 36.1631L19.8153 36.1632C20.7412 35.7097 21.8837 35.5801 23.1831 35.5801C24.3917 35.5801 25.405 35.6869 26.2074 36.0041L26.2167 36.0078L26.2259 36.0116C26.8382 36.2626 27.3782 36.6604 27.7351 37.2579C28.0795 37.8342 28.1551 38.4335 28.1551 38.9081C28.1551 38.9885 28.1525 39.0698 28.147 39.1518C27.2913 39.6421 26.7128 40.5093 26.5153 41.6247C26.3032 41.7222 26.0817 41.7926 25.8561 41.8394Z" fill="#563B00"/>
<path fill-rule="evenodd" clip-rule="evenodd" d="M43.9884 27.7355C43.9883 27.7518 43.9883 27.7682 43.9883 27.7846C43.9883 29.0705 44.3171 30.4091 45.3854 31.3921C46.4244 32.348 47.8735 32.6966 49.5003 32.6966C50.765 32.6966 51.9113 32.4825 52.8031 31.9909C53.725 31.4827 54.4963 30.5821 54.4963 29.3446C54.4963 28.5858 54.2076 27.9026 53.6796 27.4206C53.6672 27.4092 53.6546 27.398 53.642 27.3869C53.8764 26.8943 54.0043 26.3409 54.0043 25.7446C54.0043 24.7411 53.6466 23.7298 52.7705 23.0046C51.9386 22.316 50.8444 22.0566 49.6923 22.0566C48.1614 22.0566 46.7118 22.5524 45.6358 23.5952C45.3971 23.8265 45.1837 24.078 44.996 24.3475C45.1415 24.6898 45.2118 25.1116 45.2118 25.5766C45.2118 27.1419 44.7228 27.7066 43.9884 27.7355ZM52.6532 28.6544C52.475 28.4605 52.227 28.3726 52.0083 28.3726C51.7554 28.3726 51.5045 28.4613 51.206 28.5668C50.768 28.7216 50.2276 28.9126 49.4283 28.9126C49.3667 28.9126 49.3066 28.9115 49.2483 28.9092C48.6984 28.8871 48.2947 28.7593 48.0658 28.4856C47.95 28.347 47.8789 28.1711 47.8563 27.9526C48.1424 28.0452 48.4639 28.1083 48.8043 28.1377C48.9493 28.1502 49.0977 28.1566 49.2483 28.1566C49.3089 28.1566 49.3689 28.1557 49.4283 28.1537C50.058 28.133 50.6175 28.0034 51.0767 27.7798C51.4652 27.5906 51.7818 27.334 52.0083 27.019C52.0637 26.9419 52.1138 26.8613 52.1582 26.7773C52.3181 26.4747 52.4043 26.1284 52.4043 25.7446C52.4043 24.5401 51.6065 23.7002 49.8331 23.6583C49.7869 23.6572 49.7399 23.6566 49.6923 23.6566C49.6319 23.6566 49.5718 23.6576 49.5123 23.6596C49.0814 23.6738 48.6733 23.7392 48.2948 23.853C47.306 24.1505 46.5191 24.7785 46.0541 25.6879C46.0427 25.7102 46.0315 25.7327 46.0204 25.7554C45.7419 26.328 45.5883 27.0083 45.5883 27.7846C45.5883 29.8486 46.6323 31.0966 49.5003 31.0966C51.7203 31.0966 52.8963 30.3286 52.8963 29.3446C52.8963 29.0384 52.7977 28.8116 52.6532 28.6544ZM47.9447 26.2996C47.9418 26.3264 47.9403 26.3535 47.9403 26.3806C47.9403 26.5865 48.0358 26.7446 48.2147 26.8447C48.3591 26.9256 48.5578 26.9686 48.8043 26.9686C48.9594 26.9686 49.1083 26.9543 49.2483 26.9274C49.6503 26.8502 49.9783 26.6693 50.1665 26.4257C50.2778 26.2818 50.3403 26.1159 50.3403 25.9366C50.3403 25.5851 50.1175 25.3226 49.718 25.2567C49.7095 25.2553 49.7009 25.254 49.6923 25.2528C49.6356 25.2448 49.5756 25.2406 49.5123 25.2406C49.2616 25.2406 49.0224 25.2874 48.8096 25.3686L48.8043 25.3707L48.8019 25.3716C48.3281 25.5549 47.9867 25.9096 47.9447 26.2996Z" fill="#563B00"/>
<path fill-rule="evenodd" clip-rule="evenodd" d="M38.8088 30.7087C38.9701 31.144 39.2197 31.5681 39.6079 31.916C40.2155 32.4605 40.9437 32.6244 41.5877 32.6244C42.2064 32.6244 43.0033 32.4744 43.6271 31.8417C44.2455 31.2144 44.4117 30.3978 44.4117 29.6924C44.4117 29.5648 44.4067 29.4329 44.3979 29.2994C44.8496 29.2271 45.2927 29.0454 45.6745 28.7255C45.6158 28.4347 45.5882 28.1204 45.5882 27.7844C45.5882 26.9256 45.7761 26.1843 46.1133 25.5764C46.2877 25.2619 46.502 24.9831 46.751 24.7422C46.6706 24.2133 46.5017 23.6777 46.1936 23.2014C45.667 22.3872 44.7995 21.8644 43.7237 21.8644C43.2111 21.8644 42.7691 21.9874 42.391 22.1861C42.0342 21.9617 41.5981 21.8164 41.0837 21.8164C40.6249 21.8164 40.1435 21.9315 39.7039 22.2179C39.2723 22.4991 38.9744 22.8842 38.7734 23.2804C38.5555 23.7098 38.426 24.2017 38.3555 24.7269C38.4726 24.8964 38.5716 25.0835 38.6508 25.2884C38.7293 25.4899 38.7981 25.7021 38.8576 25.9244C39.0714 26.7216 39.1668 27.647 39.1668 28.6604C39.1668 29.1881 39.1385 29.6105 39.0795 29.946C39.0786 29.9511 39.0777 29.9562 39.0768 29.9612C39.0179 30.2883 38.9294 30.5317 38.8088 30.7087ZM43.4589 23.4923C43.0717 23.5755 42.75 23.8387 42.5022 24.1984C42.3608 24.4035 42.2435 24.6401 42.1517 24.8924C42.1392 24.7053 42.1097 24.5158 42.0603 24.3377C41.9214 23.8376 41.625 23.4279 41.1058 23.4166C41.0985 23.4165 41.0911 23.4164 41.0837 23.4164C40.3277 23.4164 39.8837 24.1484 39.8837 25.9244C39.8837 27.0524 40.0277 28.8284 40.1957 29.7404C40.3757 30.6524 40.8317 31.0244 41.5877 31.0244C42.3557 31.0244 42.8117 30.6524 42.8117 29.6924C42.8117 29.5038 42.7965 29.2952 42.7721 29.077C42.7295 28.6948 42.6588 28.283 42.5925 27.897C42.5578 27.6955 42.5244 27.501 42.4969 27.3214C42.4558 27.0541 42.4277 26.8198 42.4277 26.6444C42.4277 26.6233 42.4279 26.6024 42.4285 26.5818C42.4286 26.5768 42.4287 26.5719 42.4289 26.567C42.4438 26.0927 42.5971 25.7684 42.8477 25.7684C43.0517 25.7684 43.1597 25.9724 43.1237 26.6204C43.1231 26.6285 43.1225 26.6365 43.1219 26.6444C43.1024 26.9282 43.1284 27.1519 43.1986 27.3211C43.3173 27.6066 43.5622 27.7364 43.9277 27.7364C44.0168 27.7364 44.1025 27.729 44.1844 27.7133C44.8084 27.5941 45.2117 26.9979 45.2117 25.5764C45.2117 24.3764 44.7437 23.4644 43.7237 23.4644C43.6323 23.4644 43.544 23.474 43.4589 23.4923Z" fill="#563B00"/>
<path fill-rule="evenodd" clip-rule="evenodd" d="M30.795 30.5855C30.9723 30.9785 31.2247 31.3482 31.5621 31.6721C32.3354 32.4142 33.3888 32.7567 34.5465 32.7567C35.2334 32.7567 35.8992 32.6446 36.501 32.3949C36.9826 32.6631 37.4973 32.7207 37.8945 32.7207C38.2594 32.7207 38.716 32.6696 39.1713 32.4467C39.6552 32.2098 40.0161 31.8389 40.2616 31.3977C40.3956 31.1567 40.4953 30.8935 40.569 30.6153C40.3948 30.4104 40.2708 30.123 40.1954 29.7407C40.1421 29.4515 40.0912 29.0754 40.0466 28.6607C39.9505 27.7675 39.8834 26.695 39.8834 25.9247C39.8834 25.4795 39.9113 25.1 39.965 24.7811L39.9658 24.7762C39.9853 24.6611 40.0082 24.5539 40.0344 24.4544C39.189 22.6086 37.3422 21.8887 35.5305 21.8887C34.4237 21.8887 33.3249 22.1408 32.4473 22.6288C31.7709 23.005 30.9872 23.675 30.7295 24.662C30.8294 24.7944 30.921 24.9432 31.0038 25.1087C31.0412 25.1849 31.0766 25.2651 31.1099 25.3487C31.2466 25.6915 31.3488 26.0915 31.4184 26.5047C31.4598 26.7508 31.4896 27.0017 31.5083 27.248C31.524 27.456 31.5318 27.6608 31.5318 27.8567C31.5318 28.2892 31.5079 28.6676 31.4626 28.9967C31.3532 29.7931 31.1187 30.3004 30.795 30.5855ZM32.474 27.7305C32.2081 28.0737 32.0625 28.5021 32.0625 28.9967C32.0625 30.1727 32.8545 31.1567 34.5465 31.1567C34.8649 31.1567 35.1577 31.1257 35.4245 31.0645L35.428 31.0637C35.4382 31.0614 35.4483 31.059 35.4585 31.0565C36.0703 30.9091 36.5437 30.5998 36.8745 30.1367C36.8909 30.3713 36.9314 30.5607 37.0065 30.7084C37.1504 30.9912 37.4214 31.1207 37.8945 31.1207C37.9847 31.1207 38.0697 31.1153 38.1496 31.1037C38.8565 31.0011 39.1665 30.4072 39.1665 28.6607C39.1665 27.3647 39.0105 26.2127 38.6505 25.2887C38.1825 24.0767 37.0185 23.4887 35.5305 23.4887C33.7665 23.4887 32.2425 24.3047 32.2425 25.3487C32.2425 25.5136 32.2768 25.6614 32.3423 25.7861C32.4818 26.0516 32.7626 26.2127 33.1545 26.2127C33.4965 26.2127 33.8415 26.1077 34.1865 26.0027C34.3706 25.9466 34.5548 25.8906 34.7385 25.8505C34.8989 25.8155 35.059 25.7927 35.2185 25.7927C35.8249 25.7927 36.255 26.0176 36.4872 26.5583C36.5812 26.7772 36.6428 27.048 36.6705 27.3767C36.3613 27.1505 35.9953 26.9858 35.5665 26.8947C35.4548 26.871 35.3388 26.8523 35.2185 26.8387C35.0656 26.8215 34.9057 26.8127 34.7385 26.8127C34.4368 26.8127 34.1546 26.8422 33.8952 26.8989C33.6218 26.9587 33.3736 27.0486 33.1545 27.1659C32.8796 27.3129 32.6504 27.503 32.474 27.7305ZM36.3052 28.1809C36.2501 28.1566 36.1907 28.1357 36.1279 28.1182C36.0051 28.084 35.8694 28.0628 35.7276 28.0537C35.6746 28.0503 35.6208 28.0487 35.5665 28.0487C35.5297 28.0487 35.4937 28.0495 35.4585 28.0513C35.4123 28.0535 35.3674 28.0572 35.3239 28.0622C35.0844 28.09 34.8862 28.1594 34.7385 28.2592C34.6694 28.3058 34.6114 28.3591 34.5653 28.4178C34.4826 28.5233 34.4385 28.6465 34.4385 28.7807C34.4385 29.1502 34.7358 29.399 35.2405 29.4534C35.295 29.4593 35.3519 29.4629 35.4111 29.4642C35.4267 29.4645 35.4425 29.4647 35.4585 29.4647C35.4941 29.4647 35.5301 29.4637 35.5665 29.4617C35.6436 29.4574 35.722 29.4486 35.7997 29.4353C35.8242 29.4311 35.8487 29.4265 35.873 29.4214C36.0836 29.3772 36.2844 29.2994 36.4361 29.1878C36.5999 29.0673 36.7065 28.9076 36.7065 28.7087C36.7065 28.4609 36.5471 28.2875 36.3052 28.1809Z" fill="#563B00"/>
<path fill-rule="evenodd" clip-rule="evenodd" d="M28.7216 23.862C28.8292 23.8452 28.9384 23.8365 29.0485 23.8365C29.9005 23.8365 30.5725 24.2445 31.0045 25.1085C31.3645 25.8405 31.5325 26.9445 31.5325 27.8565C31.5325 30.0885 30.8965 30.8805 29.9725 30.8805C29.4443 30.8805 29.0975 30.6325 28.9408 30.1493C28.8844 29.9753 28.8526 29.7708 28.8459 29.5365C28.845 29.505 28.8445 29.473 28.8445 29.4405C28.8445 29.0866 28.8754 28.7131 28.9073 28.3485C28.9094 28.3245 28.9115 28.3005 28.9136 28.2766C28.9455 27.9122 28.9765 27.5586 28.9765 27.2445C28.9765 26.4525 28.6885 26.0565 28.2205 26.0565C27.6445 26.0565 27.2485 26.6325 27.2485 27.5925C27.2485 27.8432 27.2725 28.0961 27.3001 28.3624C27.3028 28.3888 27.3056 28.4152 27.3083 28.4419C27.3405 28.7502 27.3746 29.0774 27.3798 29.4405C27.3803 29.4722 27.3805 29.5042 27.3805 29.5365C27.3805 29.7864 27.3546 30.0027 27.3066 30.1881C27.1378 30.8394 26.6957 31.1085 26.1445 31.1085C25.4125 31.1085 24.9205 30.8685 24.7045 29.4765C24.5125 28.3125 24.3685 26.1525 24.3685 24.8805C24.3685 22.5285 24.9805 21.4965 26.1085 21.4965C26.8531 21.4965 27.131 21.9207 27.1616 22.7393C27.1636 22.7914 27.1645 22.8452 27.1645 22.9005C27.1645 23.4443 27.1008 24.1704 26.997 24.7928C26.9817 24.8846 26.9655 24.9741 26.9485 25.0605C27.0516 24.9108 27.1657 24.7712 27.2891 24.6437C27.6888 24.2308 28.1861 23.9458 28.7216 23.862ZM28.7258 22.2503C28.67 21.8246 28.539 21.3551 28.2439 20.9339C27.6917 20.1457 26.852 19.8965 26.1085 19.8965C25.5741 19.8965 25.0238 20.0218 24.5196 20.3335C24.0192 20.6427 23.6571 21.0779 23.4034 21.5543C23.2528 21.8371 23.1342 22.1457 23.0424 22.475C23.5492 22.7236 23.8407 23.1208 23.8407 23.6565C23.8407 24.2772 23.5253 24.7361 22.8611 24.8805C22.831 24.887 22.8001 24.8929 22.7686 24.8982C22.7691 25.4228 22.7921 26.086 22.8324 26.7746C23.3689 27.2052 23.5767 27.7366 23.5767 28.3965C23.5767 28.8909 23.4379 29.3354 23.1833 29.7125C23.1795 29.7181 23.1757 29.7237 23.1719 29.7293C23.1593 29.7476 23.1464 29.7657 23.1333 29.7837C23.2607 30.5654 23.5111 31.3758 24.1177 31.9636C24.8051 32.6296 25.6277 32.7085 26.1445 32.7085C26.8268 32.7085 27.6026 32.4881 28.1919 31.8441C28.7098 32.2992 29.355 32.4805 29.9725 32.4805C31.0021 32.4805 31.9234 31.9809 32.4858 31.0035C32.5685 30.8599 32.6418 30.7088 32.7065 30.551C32.2728 30.1554 32.0633 29.6014 32.0633 28.9965C32.0633 28.5608 32.1763 28.1764 32.385 27.8565C32.5614 27.5861 32.8062 27.3617 33.1091 27.1911C33.087 26.8724 33.0486 26.538 32.9907 26.2023C32.5158 26.1417 32.2433 25.8132 32.2433 25.3485C32.2433 25.0777 32.3458 24.8222 32.5285 24.5923C32.5003 24.5279 32.4709 24.4645 32.4403 24.4024L32.4403 24.4024L32.4356 24.3929C32.1149 23.7515 31.66 23.193 31.0458 22.8004C30.4275 22.4051 29.739 22.2365 29.0485 22.2365C28.9395 22.2365 28.8319 22.2412 28.7258 22.2503ZM27.3652 27.0844C27.3652 27.0843 27.3655 27.0854 27.3659 27.0875C27.3654 27.0854 27.3652 27.0844 27.3652 27.0844Z" fill="#563B00"/>
<path fill-rule="evenodd" clip-rule="evenodd" d="M20.3654 25.77C19.8301 25.583 19.7124 25.4351 19.7124 25.2284C19.7124 24.9284 19.9764 24.7844 20.5164 24.7844C20.7046 24.7844 20.9437 24.8054 21.1969 24.8315C21.2027 24.8321 21.2085 24.8327 21.2144 24.8333C21.2248 24.8343 21.2352 24.8354 21.2456 24.8365C21.3016 24.8424 21.3582 24.8484 21.415 24.8545C21.7583 24.8911 22.1077 24.9284 22.3764 24.9284C22.5258 24.9284 22.6633 24.9167 22.7891 24.8945C23.5022 24.7682 23.8404 24.299 23.8404 23.6564C23.8404 22.6844 22.8804 22.1684 21.4164 22.1684C19.7724 22.1684 17.3964 22.9004 17.3964 25.1204C17.3964 25.7723 17.5911 26.2471 18.0404 26.6006C18.1625 26.6968 18.3034 26.7839 18.4644 26.8632C18.7636 27.0107 19.1319 27.131 19.5771 27.2315C19.633 27.2441 19.6901 27.2564 19.7484 27.2684C19.8075 27.282 19.8641 27.2953 19.9182 27.3083C20.0276 27.3345 20.1267 27.3594 20.2164 27.3837C20.3212 27.412 20.4131 27.4395 20.4933 27.467C20.501 27.4696 20.5087 27.4723 20.5162 27.4749C20.5518 27.4875 20.5849 27.5001 20.6157 27.5128C20.8765 27.6203 20.9724 27.7364 20.9724 27.9164C20.9724 28.1684 20.7324 28.3484 20.2164 28.3484C20.0275 28.3484 19.7912 28.3195 19.5391 28.2858C19.5309 28.2846 19.5226 28.2835 19.5143 28.2824C19.4865 28.2787 19.4584 28.2749 19.4302 28.271C19.429 28.2709 19.4278 28.2707 19.4265 28.2705C19.1023 28.2266 18.7602 28.1804 18.4644 28.1804C18.1753 28.1804 17.9393 28.2189 17.7518 28.2957C17.3475 28.4611 17.1684 28.804 17.1684 29.3204C17.1684 30.6644 18.8004 31.0364 20.1084 31.0364C22.1724 31.0364 23.5764 29.9684 23.5764 28.3964C23.5764 27.6041 23.2768 26.997 22.4685 26.5274C22.4385 26.5099 22.4078 26.4927 22.3764 26.4756C22.041 26.2935 21.6245 26.1328 21.1139 25.9904C21.0939 25.9848 21.0739 25.9793 21.0537 25.9738C21.0074 25.9612 20.9602 25.9487 20.9124 25.9364C20.7632 25.8955 20.6318 25.857 20.5164 25.8202C20.4627 25.8031 20.4124 25.7864 20.3654 25.77ZM24.2997 25.9688C24.3338 26.0072 24.3667 26.046 24.3985 26.0851C24.4319 26.8381 24.4908 27.672 24.5655 28.3964C24.6073 28.8018 24.6541 29.1729 24.7042 29.4764C24.7377 29.6924 24.7779 29.8807 24.8246 30.0447C24.5496 30.6479 24.124 31.1691 23.5854 31.5791C22.6337 32.3033 21.4003 32.6364 20.1084 32.6364C19.3463 32.6364 18.351 32.5341 17.4832 32.1378C16.5583 31.7154 15.5684 30.8262 15.5684 29.3204C15.5684 28.6877 15.7328 27.8865 16.3993 27.2818C16.4148 27.2678 16.4303 27.2541 16.4459 27.2406C15.9715 26.6047 15.7964 25.8625 15.7964 25.1204C15.7964 23.3115 16.8164 22.1021 17.9913 21.4254C19.1004 20.7866 20.4027 20.5684 21.4164 20.5684C22.2995 20.5684 23.2276 20.7181 23.9926 21.1712C24.3775 21.3991 24.712 21.702 24.9623 22.0704C24.7036 22.4242 24.5266 22.9474 24.4368 23.6564C24.3913 24.0159 24.3682 24.4232 24.3682 24.8804C24.3682 25.1796 24.3761 25.528 24.3908 25.901C24.3608 25.9244 24.3304 25.947 24.2997 25.9688Z" fill="#563B00"/>
<path d="M44.5773 35.827L41.8505 32.3796C41.6608 32.1399 41.3719 32 41.0662 32H36.001C35.6183 32 35.2692 32.2184 35.1018 32.5624C34.9344 32.9065 34.9779 33.3159 35.2141 33.617L40.7128 40.6296L35.5573 46.3292C35.2921 46.6224 35.2245 47.0443 35.3849 47.4057C35.5453 47.7671 35.9036 48 36.2989 48H38.7123C38.9919 48 39.2587 47.883 39.448 47.6773L43.1485 43.6577L46.2368 47.6152C46.4263 47.858 46.7172 48 47.0252 48H52.001C52.383 48 52.7316 47.7824 52.8994 47.4392C53.0671 47.096 53.0248 46.6873 52.7901 46.3858L47.0192 38.9707L51.8185 33.6713C52.084 33.3781 52.1518 32.9561 51.9915 32.5946C51.8311 32.2331 51.4728 32 51.0773 32H48.5149C48.2341 32 47.9662 32.1181 47.7767 32.3255L44.5773 35.827Z" fill="white" stroke="#563B00" stroke-width="2" stroke-linejoin="round"/>
<path d="M41.8505 31.3796C41.6608 31.1399 41.3719 31 41.0662 31H36.001C35.6183 31 35.2692 31.2184 35.1018 31.5624C34.9344 31.9065 34.9779 32.3159 35.2141 32.617L40.7128 39.6296L35.5573 45.3292C35.2921 45.6224 35.2245 46.0443 35.3849 46.4057C35.5453 46.7671 35.9036 47 36.2989 47H38.7123C38.9919 47 39.2587 46.883 39.448 46.6773L43.1485 42.6577L46.2368 46.6152C46.4263 46.8581 46.7172 47 47.0252 47H52.001C52.383 47 52.7316 46.7824 52.8994 46.4392C53.0671 46.096 53.0248 45.6873 52.7901 45.3858L47.0192 37.9707L51.8185 32.6713C52.084 32.3781 52.1518 31.9561 51.9915 31.5946C51.8311 31.2331 51.4728 31 51.0773 31H48.5149C48.2341 31 47.9662 31.1181 47.7767 31.3255L44.5773 34.827L41.8505 31.3796Z" fill="white" stroke="#563B00" stroke-width="2" stroke-linejoin="round"/>
</svg>
