<svg viewBox="0 0 160 161" fill="none" xmlns="http://www.w3.org/2000/svg">
    <g clip-path="url(#clip0_3419_3044)">
        <rect width="160" height="160" rx="6" transform="matrix(4.37114e-08 1 1 -4.37114e-08 0 0.136719)"
            fill="#FFDB8D" />
        <mask id="mask0_3419_3044" style="mask-type:alpha" maskUnits="userSpaceOnUse" x="-1" y="0" width="161"
            height="160">
            <mask id="path-2-inside-1_3419_3044" fill="white">
                <path
                    d="M5.99879 6.46928e-06C2.68509 6.61413e-06 -0.00120544 2.6863 -0.00120544 6.00001V154C-0.00120544 157.314 2.68509 160 5.99879 160H153.999C157.312 160 159.999 157.314 159.999 154L159.999 6C159.999 2.6863 157.312 -1.44847e-07 153.999 0L5.99879 6.46928e-06Z" />
            </mask>
            <path
                d="M5.99879 6.46928e-06C2.68509 6.61413e-06 -0.00120544 2.6863 -0.00120544 6.00001V154C-0.00120544 157.314 2.68509 160 5.99879 160H153.999C157.312 160 159.999 157.314 159.999 154L159.999 6C159.999 2.6863 157.312 -1.44847e-07 153.999 0L5.99879 6.46928e-06Z"
                fill="#FFDB8D" />
            <path
                d="M159.999 6H160.499H159.999ZM153.999 0V0.5V0ZM153.999 160V160.5V160ZM-0.00120544 154H0.498795H-0.00120544ZM5.99879 160V159.5V160ZM-0.00120544 6.00001H-0.501205H-0.00120544ZM5.99879 6.46928e-06V-0.499993V6.46928e-06ZM0.498795 6.00001V154H-0.501205V6.00001H0.498795ZM5.99879 159.5H153.999V160.5H5.99879V159.5ZM159.499 154L159.499 6H160.499L160.499 154H159.499ZM153.999 0.5L5.99879 0.500006V-0.499993L153.999 -0.5V0.5ZM159.499 6C159.499 2.96244 157.036 0.5 153.999 0.5V-0.5C157.589 -0.5 160.499 2.41015 160.499 6H159.499ZM153.999 159.5C157.036 159.5 159.499 157.038 159.499 154H160.499C160.499 157.59 157.589 160.5 153.999 160.5V159.5ZM0.498795 154C0.498795 157.038 2.96123 159.5 5.99879 159.5V160.5C2.40894 160.5 -0.501205 157.59 -0.501205 154H0.498795ZM-0.501205 6.00001C-0.501205 2.41015 2.40894 -0.499993 5.99879 -0.499993V0.500006C2.96123 0.500006 0.498795 2.96244 0.498795 6.00001H-0.501205Z"
                fill="#FFB433" mask="url(#path-2-inside-1_3419_3044)" />
        </mask>
        <g mask="url(#mask0_3419_3044)">
            <path
                d="M383.306 218.417C398.823 210.423 399.245 204.936 394.15 197.878L393.523 197.299C394.735 197.244 395.948 197.189 397.16 197.134C401.969 195.701 406.738 193.054 408.999 188.092L426.205 158.152C430.224 151.288 429.311 142.217 423.67 137.007L423.044 136.428L373.317 102.239C368.344 98.8201 362.867 98.4614 358.099 101.108C353.917 103.12 350.947 105.077 347.391 107.669L360.156 90.0802C366.6 83.1054 366.232 72.1879 359.338 65.819L341.164 49.0283C336.15 44.3964 327.622 43.5689 321.055 46.9045C316.287 49.5509 310.892 51.6183 307.922 53.5756C309.639 50.4603 310.729 46.7661 313.031 43.0168C316.423 35.5732 314.924 27.1368 309.284 21.9259C308.657 21.3469 308.03 20.7679 308.03 20.7679L288.725 6.45841C281.873 1.30257 272.173 1.74318 265.729 8.7179L255.144 18.918L262.595 5.82296C266.614 -1.04162 265.701 -10.112 260.061 -15.3229L259.434 -15.9019L209.707 -50.0905C204.735 -53.5094 199.258 -53.8681 194.49 -51.2217C187.338 -47.252 180.812 -42.7034 174.872 -38.7889L212.826 -83.6423C219.27 -90.617 218.316 -100.9 211.422 -107.269L187.608 -129.271C182.594 -133.903 174.652 -135.364 168.085 -132.029C160.892 -129.272 151.942 -124.614 144.748 -121.857C147.596 -127.453 150.988 -134.897 153.249 -139.859C156.641 -147.303 155.183 -154.526 149.543 -159.737C148.916 -160.316 148.289 -160.895 148.289 -160.895L122.132 -180.36C115.279 -185.516 106.206 -184.497 99.7211 -178.735L90.9341 -169.224C30.5712 -108.921 -25.6493 -45.1501 -84.3416 16.7224C-87.2706 19.8927 -88.9462 24.221 -88.7826 29.0732C-88.619 33.9255 -86.6571 38.0885 -83.5236 40.9835L-82.8969 41.5625L-59.7908 60.559C-52.9381 65.7148 -43.2381 65.2742 -36.7943 58.2995L-28.5932 49.4226C-26.7949 48.7334 -25.6233 47.4653 -24.4517 46.1972C-25.5415 49.8914 -26.0046 54.1647 -26.4677 58.4379C-28.0615 65.1923 -29.0285 72.5257 -30.6223 79.2801C-31.6303 85.4005 -29.6275 90.7766 -25.2406 94.8296C-24.6139 95.4085 -23.9872 95.9875 -23.3605 96.5665L1.46204 112.448C5.80804 115.288 11.9114 116.225 17.3063 114.158C26.2977 110.712 33.9131 102.469 36.7602 96.8729C38.5176 94.9707 39.6483 92.4895 40.1523 89.4294C42.7949 77.7677 46.9905 58.1385 51.9354 42.7274C68.1201 36.5252 88.528 29.5236 101.157 25.9127C101.157 25.9127 101.743 25.2786 102.955 25.2235C100.612 27.7598 99.5222 31.454 99.6449 35.0932L38.763 102.249C38.1772 102.883 37.0056 104.151 36.4198 104.785L27.0471 114.93C20.6034 121.905 20.9715 132.823 27.8652 139.191C27.8652 139.191 28.4919 139.77 29.1186 140.349L44.7042 152.398C51.557 157.554 61.257 157.113 67.1149 150.773L77.1144 141.207C77.7002 140.573 79.4985 139.883 80.0843 139.249L137.029 81.3841C141.293 81.7979 145.517 80.9986 149.699 78.9863L153.255 76.3949C152.669 77.029 152.083 77.6631 151.497 78.2971C130.327 98.6974 80.4115 148.954 71.0387 159.099C64.595 166.074 65.5489 176.357 71.8159 182.147L72.4426 182.726L86.189 194.251C91.8293 199.462 101.529 199.021 107.428 193.893C111.57 190.668 115.67 186.229 120.397 182.37L112.728 207.017C110.508 213.192 112.551 219.781 116.938 223.834C117.565 224.413 117.565 224.413 118.192 224.992L149.363 249.089C156.216 254.245 165.289 253.226 171.147 246.885L180.561 237.953C181.146 237.319 181.146 237.319 181.732 236.685C179.471 241.647 179.634 246.499 181.596 250.663C174.948 251.572 164.468 267.745 164.468 267.745C164.468 267.745 142.604 293.381 154.882 304.725L155.509 305.304C158.015 307.62 161.735 309.881 164.242 312.197C170.468 316.773 175.481 321.405 182.293 325.348C188.519 329.925 194.745 334.502 200.93 337.866C207.742 341.808 213.928 345.172 218.859 347.378C223.164 349.005 228.055 349.998 232.279 349.198C236.502 348.399 240.725 347.6 245.534 346.166C249.717 344.154 253.899 342.142 258.081 340.129C262.264 338.117 266.405 334.892 269.961 332.3C272.345 330.977 275.274 327.807 280.001 323.947C282.344 321.411 284.102 319.509 287.072 317.551C288.243 316.283 290.001 314.381 292.97 312.424C297.071 307.985 302.384 303.492 307.656 297.785C312.928 292.079 318.201 286.372 324.685 280.61C330.543 274.27 335.815 268.563 340.502 263.491C348.117 255.248 352.013 244.744 352.272 234.406C354.697 234.295 357.081 232.972 360.092 232.228L383.306 218.417ZM266.049 252.294L257.193 241.762L263.092 236.634L272.533 246.532L266.049 252.294Z"
                fill="#FFCA70" />
            <path
                d="M220.798 49.2384L185.149 15.6616C183.92 14.5037 182.667 12.1216 183.826 9.6065C184.417 8.9611 184.984 7.0914 186.167 5.80061C188.602 6.89195 211.273 24.6388 224.133 34.3473C228.412 37.1754 234.417 35.6186 237.349 31.1673L254.871 0.786702C256.621 -2.37379 255.936 -6.62562 253.478 -8.94126C253.478 -8.94126 253.478 -8.94127 252.863 -9.52018L203.313 -44.1689C201.469 -45.9057 199.057 -45.7727 196.669 -44.4154C175.177 -32.2 160.328 -19.738 147.465 1.80656L146.873 2.45196C145.715 4.96706 145.762 7.41567 147.015 9.7978L194.459 60.4955C194.459 60.4955 194.459 60.4955 195.074 61.0744C197.532 63.3901 201.764 63.7696 204.743 61.7669L219.071 53.6232C222.074 52.8449 222.027 50.3962 220.798 49.2384ZM209.859 -17.5666C210.45 -18.212 211.655 -18.2785 212.27 -17.6996L224.516 -8.56995C225.745 -7.41213 225.792 -4.96352 224.61 -3.67273L219.904 2.71475C218.722 4.00554 216.925 4.71742 215.105 4.20499L201.039 -5.43706C200.424 -6.01597 200.401 -7.24027 200.992 -7.88567L209.859 -17.5666Z"
                fill="#FFDB8D" />
            <path
                d="M115.329 -8.43196L97.4107 -31.3157C96.7969 -31.894 96.7969 -31.894 96.1832 -32.4723C94.3418 -34.2072 90.7066 -35.2317 88.3226 -33.8769C74.5378 -30.0607 40.4065 -19.0082 36.795 -18.8101C35.5912 -18.744 35.5912 -18.744 34.3873 -18.678C31.3896 -17.9015 28.9819 -17.7694 28.3681 -18.3477C28.3681 -18.3477 28.3681 -18.3477 27.7544 -18.926C27.1406 -19.5043 29.5008 -22.0817 30.7046 -22.1477L31.2947 -22.7921L57.2332 -52.3661C60.1835 -55.5879 60.6786 -61.1228 56.9959 -64.5925L34.8997 -85.4111C31.8308 -88.3026 26.4017 -88.6167 22.8613 -84.7506L-64.4426 11.8358C-67.983 15.7019 -67.888 20.5925 -64.2053 24.0622C-64.2053 24.0622 -64.2053 24.0622 -63.5915 24.6405L-40.929 43.5921C-37.8601 46.4836 -32.4547 45.575 -29.5044 42.3533L-4.13219 14.6462C-2.36203 12.7132 -0.568145 12.0028 0.659421 13.1594C1.27321 13.7377 1.29695 14.9603 1.32068 16.183C0.778091 19.2726 -1.95858 33.4981 -5.85163 50.235C-7.52686 57.0586 -8.58831 64.4606 -10.2635 71.2842C-10.8061 74.3738 -10.1449 77.3974 -8.30354 79.1323C-7.68975 79.7106 -7.68975 79.7106 -7.07597 80.2889L17.333 96.0848C22.2195 99.4885 28.7813 96.0686 30.4803 90.4676C34.3733 73.7307 41.6643 45.7919 47.375 29.5672C64.11 22.5292 94.0398 12.3193 109.595 6.57006C116.77 3.72843 119.036 -3.73955 115.329 -8.43196Z"
                fill="#FFDB8D" />
            <path
                d="M181.592 41.5587C180.36 40.3994 177.943 40.534 175.548 41.8951C174.955 42.542 173.77 43.8359 173.177 44.4828C168.342 44.7519 163.484 43.7945 161.021 41.4759C160.405 40.8963 160.405 40.8963 159.79 40.3167C156.665 34.9654 158.375 29.3449 163.073 21.7165C164.281 21.6492 166.699 21.5146 167.885 20.2208C170.256 17.6331 171.419 15.1127 169.572 13.3738C168.34 12.2146 165.923 12.3491 162.936 14.3572C161.75 15.651 159.971 17.5917 159.994 18.8183C153.996 21.6078 147.36 22.5912 143.049 18.5337C143.049 18.5337 143.049 18.5337 142.434 17.9541C139.971 15.6355 139.856 9.50275 141.566 3.88233C141.566 3.88233 142.775 3.81505 143.368 3.16813C143.961 2.52122 143.961 2.52122 144.554 1.8743C146.332 -0.0664568 147.495 -2.58686 146.264 -3.74613C145.032 -4.9054 142.615 -4.77084 140.836 -2.83008C139.057 -0.889324 138.487 0.984159 139.126 2.79035L124.281 17.7368C121.316 20.9713 120.199 25.9448 123.278 28.843L146.199 57.6489L146.814 58.2285C149.277 60.5471 153.519 60.9249 157.1 58.2699L174.431 46.8686C175.663 48.0279 178.08 47.8933 179.859 45.9525C182.276 45.818 182.23 43.3649 181.592 41.5587Z"
                fill="#FFDB8D" />
            <path
                d="M135.53 58.5647L120.799 39.9018L120.189 39.3268C116.53 35.8764 111.154 36.7777 108.218 39.9792L46.0019 109.066C42.479 112.908 43.1802 118.345 46.23 121.22L46.84 121.795L62.0436 133.741C65.0934 136.616 70.4691 135.715 73.4049 132.513L134.538 69.5682C137.497 67.582 137.993 62.0803 135.53 58.5647Z"
                fill="#FFDB8D" />
            <path
                d="M254.563 140.202L239.209 125.738C236.138 122.845 231.934 123.688 228.367 126.334C220.667 133.492 195.773 155.68 187.458 162.26C186.868 162.905 185.073 163.616 184.459 163.037L183.845 162.459C183.821 161.236 183.821 161.235 183.797 160.012C186.088 153.763 202.857 116.714 209.211 102.281C210.958 99.1237 209.683 95.5199 207.226 93.2057L180.865 70.7742C177.795 67.8814 172.976 68.1463 170.024 71.3702C152.876 88.8456 99.0476 142.627 89.5999 152.944C86.6475 156.168 86.1517 161.706 89.2224 164.599L102.71 176.104C105.166 178.418 109.985 178.153 112.961 176.153C124.227 166.348 143.784 148.741 143.784 148.741C143.784 148.741 145.579 148.03 146.194 148.608C146.808 149.187 146.241 151.055 146.241 151.055L131.48 198.403C130.937 201.494 131.598 204.52 133.441 206.255L134.055 206.834L164.667 230.869C167.738 233.761 172.533 232.273 175.485 229.049L252.957 150.699C257.728 147.988 257.633 143.094 254.563 140.202Z"
                fill="#FFDB8D" />
            <path
                d="M335.766 214.275C329.021 207.92 321.617 198.544 312.42 189.878C296.48 174.856 277.592 163.052 259.133 173.232C254.371 175.937 247.275 182.439 241.923 185.788C237.185 189.715 232.447 193.643 227.119 198.213C224.762 200.788 222.404 203.362 220.047 205.936C218.279 207.867 216.511 209.797 214.743 211.728C210.618 216.233 207.695 220.672 205.361 224.468C198.384 237.076 208.218 247.541 216.801 255.63C218.027 256.785 219.254 257.941 220.48 259.097C224.772 263.141 227.861 267.251 232.153 271.295C234.605 273.606 237.67 276.495 240.123 278.806C240.736 279.384 240.736 279.384 241.349 279.962C241.962 280.54 241.962 280.54 241.962 280.54L242.575 281.117L239.039 284.979C237.861 286.266 235.456 286.397 234.23 285.242C225.717 280.817 200.181 267.543 189.24 262.029C186.812 260.939 183.818 261.714 182.663 264.222L173.305 278.183C171.561 281.335 172.245 285.577 174.697 287.888C174.697 287.888 174.697 287.888 175.31 288.466C188.158 300.573 202.039 310.417 219.264 320.294C225.347 323.629 230.228 327.03 235.675 328.566C238.716 330.233 242.324 330.036 245.931 329.839C249.538 329.641 253.122 328.223 256.705 326.804C260.289 325.385 264.462 323.323 268.022 320.683C287.101 306.533 301.957 289.001 319.46 273.242C325.353 266.807 330.657 261.015 335.371 255.866C345.979 244.282 346.825 225.896 335.766 214.275ZM268.083 261.994C266.904 263.281 264.499 263.412 263.273 262.257L250.35 247.681C247.874 244.149 247.779 239.263 251.315 235.402L269.632 217.894C272.579 214.676 277.388 214.413 280.454 217.302L294.603 233.033C295.216 233.611 295.24 234.832 294.65 235.476L268.083 261.994Z"
                fill="#FFDB8D" />
        </g>
        <g clip-path="url(#clip1_3419_3044)">
            <path
                d="M49.774 21.0708C33.8402 12.3796 24.1661 17.4495 21.3208 21.0708L19.7688 49.0067C21.7519 44.4369 38.443 42.8704 47.1873 49.0067C61.9313 59.3533 90.9018 55.2146 101.766 44.6093C109.98 36.5907 125.735 45.4716 130.995 47.196L118.32 28.0548L130.995 16.9321C125.563 14.3455 105.439 8.96515 95.2991 18.4841C82.6245 30.3827 69.6913 31.9347 49.774 21.0708Z"
                fill="#FFE033" stroke="#FFB433" stroke-linecap="round" stroke-linejoin="round" />
            <path
                d="M28.4889 28.9952C28.5134 28.8595 28.5407 28.7245 28.5708 28.5902C28.6908 28.0556 28.8569 27.5299 29.069 27.013C29.3335 26.3698 29.6643 25.779 30.0614 25.2406C30.5182 25.172 30.9878 25.1333 31.4702 25.1245C31.9526 25.1156 32.4344 25.1292 32.9158 25.1652C33.4006 25.199 33.88 25.2571 34.3539 25.3394C34.6258 25.3855 34.8919 25.4377 35.152 25.4961C35.3464 25.5397 35.5384 25.5873 35.728 25.6389C35.7537 25.9389 35.737 26.2609 35.6777 26.6049C35.6349 26.8626 35.5875 27.1071 35.5356 27.3387C35.5182 27.4159 35.4998 27.4913 35.4802 27.565C34.9655 27.5305 34.4518 27.4782 33.9391 27.4082C33.4292 27.3388 32.9144 27.2983 32.3945 27.2866C32.2566 27.4328 32.1512 27.6014 32.0784 27.7922C32.0055 27.983 31.9434 28.1792 31.8921 28.3809C32.4058 28.6073 32.92 28.8248 33.4346 29.0334C33.9521 29.2427 34.4727 29.4586 34.9962 29.6812C35.0448 29.9594 35.0515 30.2506 35.0162 30.555C34.9968 30.7218 34.9685 30.8881 34.9313 31.0539C34.9011 31.1882 34.8652 31.3213 34.8236 31.4531C34.7305 31.7474 34.6104 32.0283 34.4634 32.2955C34.317 32.5599 34.156 32.7955 33.9804 33.0023C33.5115 33.1252 33.0338 33.2132 32.5475 33.2661C32.0612 33.3191 31.5729 33.3476 31.0826 33.3516C30.5951 33.3563 30.1075 33.3414 29.6198 33.307C29.1315 33.2755 28.6547 33.239 28.1896 33.1977C28.1471 33.1461 28.1239 33.0223 28.1199 32.8262C28.1187 32.6308 28.1293 32.423 28.1517 32.2028C28.1748 31.9798 28.2002 31.7663 28.2279 31.5623C28.2454 31.4311 28.2645 31.3258 28.2853 31.2464C28.2956 31.2007 28.3057 31.1624 28.3156 31.1316C28.5697 31.1767 28.8482 31.2136 29.1509 31.2426C29.4544 31.2687 29.7519 31.2874 30.0436 31.2988C30.3388 31.3081 30.6106 31.3075 30.8592 31.2973C31.1083 31.2841 31.3014 31.2599 31.4384 31.2246C31.4869 31.1424 31.5323 31.034 31.5745 30.8994C31.5956 30.832 31.6136 30.7655 31.6283 30.6998C31.6431 30.634 31.6543 30.5705 31.6621 30.5092C31.6022 30.4417 31.4949 30.3711 31.3403 30.2973C31.1864 30.2207 31.0072 30.143 30.8027 30.064C30.5989 29.9822 30.3804 29.8987 30.1474 29.8133C29.9172 29.7286 29.6948 29.6427 29.4801 29.5555C29.2661 29.4654 29.0703 29.3749 28.8925 29.2839C28.7183 29.1908 28.5837 29.0945 28.4889 28.9952ZM35.4937 32.761C35.5483 32.491 35.6128 32.1902 35.6872 31.8586C35.7617 31.527 35.8358 31.1969 35.9096 30.8681C35.984 30.5365 36.0602 30.2173 36.1381 29.9105C36.2166 29.6009 36.2879 29.3301 36.3519 29.0983C36.4394 29.0429 36.5527 28.9662 36.6918 28.8683C36.8309 28.7704 36.9746 28.6721 37.1228 28.5733C37.2711 28.4744 37.4115 28.3843 37.5438 28.303C37.6797 28.2194 37.7917 28.1619 37.8798 28.1306C38.1523 28.1738 38.4808 28.222 38.8652 28.2753C39.2531 28.3263 39.6519 28.3888 40.0617 28.4628C40.3701 28.52 40.673 28.582 40.9702 28.6487C41.0703 28.6712 41.1689 28.6933 41.2661 28.7152C41.6593 28.8094 42.0021 28.9209 42.2945 29.0496C42.4783 29.274 42.6414 29.5508 42.7836 29.88C42.9294 30.207 43.0605 30.5127 43.1768 30.797C43.1401 31.041 43.0891 31.3418 43.0238 31.6995C42.9585 32.0571 42.888 32.4181 42.8122 32.7824C42.7605 33.0261 42.7103 33.2565 42.6615 33.4737C42.6378 33.5795 42.6144 33.6839 42.5913 33.7868C42.5191 34.0948 42.4552 34.3192 42.3996 34.4599C42.1835 34.6335 41.9686 34.815 41.755 35.0042C41.5448 35.1913 41.3217 35.3694 41.0855 35.5386C40.7939 35.5271 40.4325 35.485 40.0014 35.4123C39.5726 35.3431 39.1252 35.2561 38.6593 35.1515C38.1933 35.0469 37.7339 34.9333 37.281 34.8106C36.8304 34.6915 36.4366 34.573 36.0997 34.4554C36.0398 34.3609 35.9776 34.2433 35.9131 34.1027C35.8521 33.9599 35.793 33.8085 35.7358 33.6486C35.6822 33.4864 35.6324 33.3266 35.5867 33.1692C35.541 33.0118 35.51 32.8757 35.4937 32.761ZM38.4475 31.681C38.3961 31.9097 38.3467 32.1298 38.2992 32.3414C38.2524 32.55 38.2132 32.7379 38.1817 32.905C38.1509 33.0692 38.1261 33.1928 38.1075 33.2757C38.2205 33.3611 38.3554 33.4289 38.5122 33.4791C38.5853 33.5015 38.6575 33.5207 38.729 33.5368C38.8176 33.5567 38.9086 33.5726 39.002 33.5846C39.1716 33.6046 39.3337 33.605 39.4882 33.5856C39.6455 33.5669 39.7765 33.5317 39.8812 33.4802C39.9908 33.0454 40.1116 32.5606 40.2437 32.0257C40.2632 31.952 40.2814 31.878 40.298 31.8037C40.4026 31.3378 40.4777 30.8562 40.5233 30.359C40.3705 30.3307 40.2252 30.3026 40.0873 30.2746C39.9495 30.2467 39.8164 30.2243 39.688 30.2075C39.5597 30.1907 39.4312 30.1814 39.3025 30.1795C39.1738 30.1776 39.0384 30.1923 38.8963 30.2234C38.8548 30.2742 38.8086 30.3734 38.7574 30.5211C38.7097 30.6665 38.6588 30.8397 38.6047 31.0408C38.5512 31.2389 38.4988 31.4524 38.4475 31.681ZM44.9237 29.1939C45.0241 28.7601 45.1127 28.4121 45.1895 28.1501C45.2391 28.1433 45.3276 28.1436 45.455 28.1512C45.5831 28.1559 45.7313 28.1712 45.8997 28.197C46.0709 28.2234 46.2511 28.2563 46.4404 28.2958C46.6326 28.336 46.8176 28.3745 46.9955 28.4114C47.0527 28.4243 47.1084 28.4368 47.1627 28.449C47.2713 28.4733 47.3739 28.4979 47.4705 28.5226C47.6121 28.5604 47.718 28.5901 47.7882 28.6119C47.7209 28.885 47.6311 29.2582 47.5189 29.7315C47.4066 30.2047 47.2872 30.7168 47.1605 31.2679C47.0344 31.8161 46.9056 32.3832 46.7741 32.9692C46.6425 33.5552 46.5206 34.0983 46.4083 34.5986C46.296 35.0988 46.1988 35.5319 46.1166 35.8978C46.0345 36.2637 45.9803 36.5052 45.954 36.6224C45.7487 36.6004 45.5788 36.5817 45.4441 36.5665C45.3094 36.5513 45.1617 36.5271 45.0009 36.4941C44.9695 36.487 44.9366 36.4796 44.9023 36.4719C44.7623 36.4405 44.6046 36.4006 44.4293 36.3522C44.2089 36.2907 43.9034 36.2071 43.5127 36.1014C43.5583 35.8715 43.621 35.5522 43.7007 35.1438C43.7804 34.7353 43.8703 34.2811 43.9705 33.7811C44.0714 33.2783 44.176 32.7523 44.2842 32.2031C44.3931 31.6511 44.5019 31.12 44.6104 30.6099C44.6839 30.2691 44.7549 29.9457 44.8236 29.6399C44.8582 29.4855 44.8916 29.3369 44.9237 29.1939ZM47.3442 35.5248C47.441 35.1472 47.5786 34.7817 47.7569 34.4284C47.936 34.0723 48.1216 33.7806 48.3137 33.5535C48.4736 33.4963 48.6923 33.4584 48.9698 33.4396C49.2507 33.4186 49.5568 33.4062 49.8879 33.4025C50.2225 33.3965 50.5684 33.4006 50.9255 33.4147C51.2862 33.4266 51.6313 33.441 51.9607 33.4579C51.9596 33.3826 51.9605 33.2987 51.9632 33.2063C51.9666 33.1109 51.9635 33.0442 51.9541 33.006C51.8383 32.893 51.6635 32.7892 51.4295 32.6946C51.1984 32.6007 50.9426 32.5162 50.6621 32.4413C50.4382 32.382 50.2091 32.3261 49.9747 32.2735C49.9147 32.26 49.8561 32.2468 49.7989 32.234C49.5067 32.1714 49.2434 32.1138 49.009 32.0612C49.0157 32.0177 49.0249 31.9702 49.0364 31.9187C49.0583 31.8215 49.0856 31.7196 49.1186 31.6129C49.166 31.4554 49.2195 31.3037 49.2793 31.158C49.3419 31.0129 49.4046 30.8874 49.4674 30.7814C49.5302 30.6754 49.5946 30.6028 49.6604 30.5635C50.0696 30.6133 50.4855 30.6736 50.9079 30.7444C51.1862 30.7889 51.4625 30.8419 51.737 30.9035C51.8856 30.9369 52.0308 30.9725 52.1724 31.0103C52.5929 31.1167 52.9997 31.244 53.3928 31.3923C53.7887 31.5413 54.1663 31.7116 54.5256 31.9033C54.6057 32.0684 54.6493 32.3019 54.6566 32.6038C54.6674 32.9035 54.6543 33.2429 54.6173 33.6219C54.5802 34.0009 54.5242 34.4042 54.4493 34.8318C54.3778 35.2571 54.2979 35.673 54.2097 36.0796C54.1917 36.1596 54.1734 36.2411 54.1548 36.324C54.083 36.6442 54.0097 36.9505 53.935 37.243C53.8408 37.6092 53.7562 37.919 53.6813 38.1724C53.4627 38.1834 53.1943 38.1817 52.8763 38.1673C52.5617 38.1508 52.2245 38.1216 51.8645 38.0798C51.5039 38.0409 51.1321 37.992 50.749 37.933C50.3659 37.874 49.999 37.8097 49.6483 37.74C49.5162 37.7133 49.3887 37.6862 49.2658 37.6586C49.0599 37.6124 48.8665 37.5645 48.6855 37.5148C48.3914 37.4338 48.1525 37.3546 47.9687 37.2774C47.9152 37.1543 47.8547 37.0161 47.787 36.8627C47.7222 36.7101 47.6597 36.5534 47.5997 36.3928C47.5397 36.2322 47.4862 36.0761 47.4391 35.9244C47.3956 35.7705 47.364 35.6373 47.3442 35.5248ZM50.1598 35.5218C50.1411 35.6317 50.1299 35.7418 50.1262 35.852C50.1253 35.9629 50.1299 36.063 50.1398 36.1524C50.2382 36.2225 50.3689 36.2758 50.5318 36.3124C50.5718 36.3214 50.615 36.3296 50.6614 36.337C50.8876 36.3727 51.1611 36.4116 51.4819 36.4536C51.5353 36.1894 51.5874 35.9368 51.6385 35.6961C51.6902 35.4525 51.7385 35.2036 51.7836 34.9495C51.5389 34.9426 51.3062 34.9294 51.0853 34.9098C50.8652 34.8874 50.636 34.9051 50.3979 34.9627C50.3383 35.0274 50.2884 35.1093 50.2482 35.2083C50.2166 35.2823 50.1929 35.3611 50.1771 35.4446C50.1713 35.4703 50.1656 35.4961 50.1598 35.5218ZM55.3728 35.7327C55.4624 35.3204 55.5524 34.9127 55.6429 34.5097C55.734 34.1038 55.8238 33.7171 55.9123 33.3496C56.0036 32.9828 56.0858 32.6634 56.1589 32.3916C56.1939 32.3694 56.29 32.3625 56.4473 32.3708C56.6052 32.3762 56.7974 32.3893 57.024 32.4101C57.2505 32.431 57.4946 32.4602 57.7564 32.498C58.0188 32.5329 58.2716 32.5701 58.515 32.6097C58.7583 32.6493 58.9786 32.6913 59.1758 32.7355C59.3759 32.7805 59.5212 32.8221 59.6117 32.8604C59.6738 33.3728 59.7579 33.8811 59.8639 34.3853C59.9699 34.8895 60.0745 35.3934 60.1776 35.897C60.1858 35.9408 60.207 35.9801 60.2412 36.0148C60.2783 36.0502 60.3207 36.0687 60.3684 36.0704C60.4161 36.0721 60.4641 36.0589 60.5124 36.0307C60.5636 36.0031 60.6094 35.9533 60.6495 35.8813C60.6617 35.854 60.6942 35.7427 60.747 35.5474C60.7999 35.3521 60.8584 35.125 60.9225 34.8661C60.9866 34.6073 61.0521 34.3488 61.1191 34.0906C61.1889 33.833 61.2431 33.632 61.2815 33.4875C61.6333 33.4854 61.9804 33.5107 62.3228 33.5636C62.494 33.59 62.664 33.6222 62.8326 33.66C63.0042 33.6985 63.1744 33.7427 63.3433 33.7927C63.1979 34.4806 63.0475 35.1705 62.8923 35.8623C62.8146 36.2082 62.7359 36.5523 62.656 36.8947C62.4167 37.9339 62.1662 38.9631 61.9043 39.9823C61.7306 39.9673 61.5236 39.9463 61.2834 39.9195C61.0432 39.8926 60.7838 39.8644 60.5052 39.8348C60.2272 39.8025 59.9391 39.7618 59.6408 39.7129C59.3454 39.6646 59.0512 39.6105 58.7584 39.5508C58.5669 39.0664 58.4056 38.5678 58.2745 38.055C58.1462 37.5428 58.0339 37.0266 57.9375 36.5066C57.9262 36.45 57.8977 36.403 57.852 36.3658C57.8098 36.3263 57.7603 36.3061 57.7034 36.3054C57.65 36.3024 57.596 36.3158 57.5412 36.3455C57.4894 36.3759 57.4478 36.4342 57.4165 36.5202C57.2969 36.8657 57.1866 37.2433 57.0856 37.653C57.0616 37.7467 57.0383 37.8435 57.0159 37.9436C56.9414 38.2752 56.8727 38.6351 56.8095 39.0233C56.4765 39.0356 56.1486 39.0115 55.8259 38.9511C55.7709 38.9417 55.7134 38.9303 55.6534 38.9169C55.3876 38.8572 55.1168 38.7724 54.8412 38.6625C54.8575 38.483 54.8908 38.2412 54.941 37.9372C54.9919 37.6304 55.055 37.2887 55.1305 36.9123C55.206 36.536 55.2868 36.1427 55.3728 35.7327ZM63.1831 39.0803C63.2798 38.7027 63.4174 38.3372 63.5958 37.9839C63.7749 37.6278 63.9604 37.3361 64.1525 37.109C64.3125 37.0519 64.5312 37.0139 64.8087 36.9951C65.0896 36.9741 65.3956 36.9617 65.7268 36.958C66.0614 36.952 66.4073 36.9561 66.7644 36.9702C67.1251 36.9821 67.4701 36.9965 67.7996 37.0134C67.7985 36.9381 67.7993 36.8542 67.8021 36.7618C67.8055 36.6665 67.8024 36.5997 67.793 36.5616C67.6772 36.4485 67.5024 36.3447 67.2684 36.2501C67.0372 36.1562 66.7814 36.0718 66.501 35.9968C66.2771 35.9375 66.048 35.8816 65.8136 35.829C65.7535 35.8155 65.6949 35.8023 65.6378 35.7895C65.3456 35.7269 65.0822 35.6693 64.8478 35.6167C64.8546 35.5732 64.8638 35.5257 64.8753 35.4742C64.8971 35.377 64.9245 35.2751 64.9575 35.1684C65.0049 35.0109 65.0584 34.8593 65.1181 34.7135C65.1807 34.5684 65.2435 34.4429 65.3063 34.3369C65.3691 34.2309 65.4335 34.1583 65.4993 34.119C65.9085 34.1688 66.3243 34.2291 66.7468 34.3C67.0251 34.3444 67.3014 34.3974 67.5758 34.459C67.7245 34.4924 67.8696 34.528 68.0113 34.5658C68.4318 34.6722 68.8386 34.7995 69.2316 34.9478C69.6276 35.0968 70.0052 35.2671 70.3645 35.4589C70.4446 35.624 70.4882 35.8575 70.4955 36.1594C70.5063 36.459 70.4932 36.7984 70.4561 37.1774C70.4191 37.5564 70.3631 37.9597 70.2881 38.3873C70.2167 38.8126 70.1368 39.2286 70.0486 39.6351C70.0306 39.7152 70.0123 39.7966 69.9937 39.8795C69.9218 40.1997 69.8486 40.506 69.7739 40.7985C69.6797 41.1647 69.5951 41.4745 69.5202 41.7279C69.3016 41.7389 69.0332 41.7372 68.7152 41.7229C68.4006 41.7063 68.0634 41.6771 67.7034 41.6354C67.3428 41.5964 66.971 41.5475 66.5879 41.4885C66.2048 41.4296 65.8379 41.3652 65.4872 41.2955C65.3551 41.2688 65.2276 41.2417 65.1046 41.2141C64.8988 41.1679 64.7054 41.12 64.5244 41.0704C64.2303 40.9893 63.9913 40.9102 63.8075 40.8329C63.7541 40.7098 63.6935 40.5716 63.6259 40.4183C63.561 40.2656 63.4986 40.109 63.4386 39.9484C63.3786 39.7878 63.325 39.6316 63.278 39.4799C63.2345 39.326 63.2028 39.1928 63.1831 39.0803ZM65.9987 39.0773C65.98 39.1872 65.9688 39.2973 65.9651 39.4075C65.9642 39.5184 65.9687 39.6186 65.9787 39.7079C66.0771 39.778 66.2077 39.8313 66.3707 39.8679C66.4107 39.8769 66.4539 39.8851 66.5003 39.8925C66.7264 39.9283 67 39.9671 67.3208 40.0091C67.3741 39.7449 67.4263 39.4924 67.4774 39.2516C67.529 39.008 67.5774 38.7591 67.6224 38.505C67.3778 38.4981 67.145 38.4849 66.9242 38.4654C66.7041 38.443 66.4749 38.4606 66.2368 38.5182C66.1772 38.5829 66.1273 38.6648 66.0871 38.7638C66.0554 38.8378 66.0317 38.9166 66.016 39.0001C66.0102 39.0258 66.0044 39.0516 65.9987 39.0773Z"
                fill="#FF9900" />
            <path
                d="M75.518 39.8169C75.676 39.5256 75.8599 39.2541 76.0694 39.0025C76.2782 38.7481 76.5447 38.5132 76.8689 38.2979C76.7325 38.3017 76.5864 38.2931 76.4304 38.2721C76.2736 38.2483 76.1213 38.214 75.9736 38.1692C75.8259 38.1244 75.6883 38.0674 75.5608 37.9982C75.4325 37.9263 75.3305 37.845 75.2547 37.7544C75.2335 37.6415 75.2277 37.5088 75.2375 37.3561C75.2472 37.2035 75.2662 37.0512 75.2945 36.8992C75.3219 36.7444 75.3551 36.5986 75.394 36.4618C75.4356 36.3241 75.4771 36.2217 75.5183 36.1545C75.6982 36.04 75.8724 35.9318 76.0408 35.8299C76.2112 35.7244 76.3758 35.6252 76.5347 35.5322C76.4316 35.2052 76.342 34.9339 76.2658 34.7181C76.1887 34.4996 76.1068 34.2748 76.02 34.0439C76.1829 33.9131 76.3602 33.7948 76.5519 33.6891C76.7464 33.5825 76.9471 33.4863 77.1539 33.4005C77.3599 33.312 77.564 33.2377 77.7662 33.1777C77.9713 33.1169 78.1619 33.0695 78.3383 33.0356C78.38 33.341 78.4284 33.623 78.4837 33.8817C78.5382 34.1375 78.5903 34.3802 78.6401 34.6099C78.8373 34.5331 79.0413 34.4635 79.252 34.401C79.4654 34.3377 79.6901 34.2711 79.9261 34.2011C79.985 34.2142 80.0566 34.2602 80.1411 34.339C80.2276 34.4142 80.3118 34.5023 80.3937 34.6033C80.4784 34.7035 80.5548 34.8168 80.6229 34.9433C80.6901 35.067 80.7371 35.1844 80.764 35.2957C80.6595 35.345 80.4895 35.4107 80.2541 35.4927C80.0215 35.5739 79.768 35.6674 79.4938 35.7731C79.2224 35.8781 78.9572 35.9934 78.698 36.1191C78.4409 36.2412 78.2379 36.3656 78.089 36.4922C78.0507 36.6411 78.0315 36.7721 78.0314 36.8852C78.0305 36.9955 78.0783 37.131 78.1749 37.2918C78.2321 37.2993 78.3326 37.2878 78.4764 37.2574C78.6229 37.2262 78.7757 37.1901 78.9347 37.149C79.0964 37.1072 79.2518 37.0642 79.4006 37.02C79.5495 36.9759 79.659 36.9434 79.7293 36.9226C79.8532 37.0417 79.9633 37.1863 80.0596 37.3563C80.155 37.5236 80.2212 37.6904 80.2583 37.8566C80.1263 37.8958 79.9617 37.9537 79.7644 38.0306C79.5672 38.1074 79.3712 38.1884 79.1765 38.2737C78.9837 38.3553 78.8081 38.4379 78.6495 38.5216C78.4938 38.6044 78.3917 38.6775 78.3433 38.7408C78.3987 38.9688 78.4467 39.141 78.4873 39.2573C78.5279 39.3736 78.5903 39.4605 78.6746 39.518C78.9047 39.5109 79.1485 39.4829 79.406 39.434C79.6626 39.3824 79.9274 39.3222 80.2004 39.2535C80.4762 39.1839 80.7569 39.1053 81.0426 39.0175C81.3311 38.9289 81.6186 38.8421 81.905 38.7572C81.9544 38.8617 81.9922 38.9788 82.0184 39.1086C82.0447 39.2383 82.0579 39.3704 82.058 39.5048C82.0609 39.6384 82.0556 39.7698 82.042 39.8991C82.0284 40.0285 82.0098 40.1409 81.9862 40.2365C81.844 40.3031 81.6532 40.3811 81.4138 40.4704C81.1745 40.5597 80.9062 40.6546 80.609 40.7549C80.6527 40.9436 80.6892 41.1284 80.7183 41.3092C80.7467 41.4872 80.7632 41.6718 80.7679 41.8629C80.6836 41.9185 80.5562 41.9837 80.386 42.0587C80.2165 42.1364 80.036 42.2129 79.8443 42.288C79.6527 42.3632 79.4642 42.4282 79.2788 42.4832C79.0963 42.5374 78.9539 42.5673 78.8517 42.5732C78.7728 42.3277 78.7008 42.1107 78.6358 41.9222C78.5727 41.73 78.5105 41.5514 78.4493 41.3862C78.1466 41.4576 77.8652 41.5135 77.6053 41.554C77.3445 41.5916 77.1299 41.6048 76.9615 41.5936C76.6536 41.3793 76.3683 41.1079 76.1059 40.7793C75.8426 40.4479 75.6466 40.1271 75.518 39.8169ZM85.1651 33.3672C85.098 33.0999 85.0405 32.8235 84.9926 32.5383C84.9447 32.253 84.9144 31.9809 84.9018 31.7218C85.1803 31.5689 85.4884 31.4226 85.8258 31.2828C86.1625 31.1402 86.5132 31.0041 86.8782 30.8745C87.2403 30.7457 87.6119 30.6233 87.9931 30.5072C88.1195 30.4697 88.2459 30.4323 88.3723 30.3948C88.6223 30.3206 88.8699 30.2488 89.1151 30.1791C89.4819 30.0764 89.8327 29.9816 90.1674 29.8945C90.505 29.8067 90.8145 29.7271 91.0959 29.6559C91.1571 29.7386 91.2162 29.8555 91.2732 30.0067C91.3295 30.155 91.3831 30.3102 91.4342 30.4723C91.4492 30.5228 91.4651 30.5762 91.4817 30.6324C91.5134 30.7391 91.5436 30.8463 91.5725 30.9538C91.6135 31.1128 91.647 31.2465 91.673 31.3549C91.3851 31.4555 91.0965 31.5488 90.8072 31.6346C90.6639 31.677 90.5188 31.7185 90.3719 31.759C90.284 31.782 90.1966 31.8065 90.1095 31.8323C89.7612 31.9356 89.4169 32.0575 89.0766 32.1981C89.0525 32.2817 89.0454 32.3969 89.0553 32.5436C89.0672 32.6868 89.0917 32.8415 89.1288 33.0077C89.1443 33.0704 89.1602 33.1344 89.1766 33.1998C89.2057 33.2981 89.2397 33.392 89.2784 33.4813C89.341 33.6308 89.406 33.7521 89.4734 33.8452C89.4919 33.8458 89.5531 33.8307 89.657 33.7999C89.761 33.7691 89.8883 33.7298 90.0392 33.682C90.19 33.6342 90.3553 33.5837 90.5351 33.5304C90.7177 33.4762 90.8932 33.4242 91.0617 33.3742C91.2331 33.3234 91.3922 33.2777 91.5391 33.2372C91.6888 33.1959 91.8031 33.1742 91.8819 33.1722C91.966 33.3734 92.0495 33.5931 92.1324 33.8314C92.156 33.9007 92.1788 33.9673 92.2008 34.0311C92.2483 34.1912 92.2816 34.3448 92.3007 34.4919C92.1108 34.5727 91.9123 34.6453 91.7053 34.7097C91.5011 34.7733 91.2955 34.8374 91.0885 34.9018C90.8842 34.9654 90.6813 35.0332 90.4796 35.1053C90.2807 35.1765 90.0892 35.2623 89.905 35.3627C89.8943 35.4606 89.9014 35.5823 89.9262 35.7277C89.9458 35.835 89.9704 35.9438 90.0001 36.0542C90.0117 36.0935 90.0252 36.1338 90.0405 36.1751C90.0919 36.3279 90.1467 36.4767 90.2049 36.6214C90.2651 36.7625 90.3173 36.8768 90.3617 36.9645C90.4997 36.9664 90.6866 36.937 90.9222 36.8762C91.0419 36.8469 91.1621 36.8143 91.2828 36.7785C91.4064 36.7418 91.5334 36.7011 91.6637 36.6564C91.9225 36.5705 92.1774 36.4872 92.4285 36.4067C92.4903 36.3883 92.5503 36.369 92.6084 36.3487C92.7826 36.2971 92.9321 36.2604 93.0571 36.2386C93.1738 36.4882 93.2792 36.761 93.3731 37.057C93.3798 37.0795 93.3868 37.1034 93.3943 37.1287C93.4751 37.4011 93.5204 37.6673 93.5303 37.9272C93.0717 38.112 92.6205 38.2856 92.1766 38.4478C91.7336 38.6127 91.2807 38.7654 90.8181 38.9056C90.7675 38.9206 90.7156 38.936 90.6622 38.9518C90.2493 39.0743 89.8251 39.1894 89.3895 39.2971C88.8997 39.4179 88.3812 39.5243 87.834 39.6163C87.6531 39.1505 87.4743 38.6504 87.2975 38.1161C87.1252 37.5866 86.9552 37.0442 86.7875 36.4889C86.7467 36.3513 86.7054 36.2122 86.6638 36.0718C86.5397 35.6533 86.418 35.2325 86.2987 34.8095C86.1405 34.2453 85.9896 33.7003 85.8459 33.1745C85.7476 33.2036 85.6334 33.236 85.5034 33.2715C85.3733 33.307 85.2606 33.3389 85.1651 33.3672ZM92.2598 29.8562C92.4649 29.7648 92.6941 29.6617 92.9473 29.5469C93.1997 29.4293 93.4453 29.3198 93.6841 29.2184C93.9229 29.117 94.133 29.0318 94.3142 28.9628C94.3743 28.9389 94.4269 28.9202 94.4718 28.9069C94.5645 28.8794 94.6278 28.8714 94.6617 28.8827C94.7333 29.0417 94.8231 29.226 94.931 29.4354C95.0418 29.6439 95.1568 29.8619 95.2762 30.0893C95.3984 30.3159 95.521 30.5439 95.644 30.7732C95.7698 31.0018 95.8891 31.2185 96.0018 31.4234C96.1174 31.6275 96.2189 31.8052 96.3066 31.9564C96.3942 32.1077 96.4616 32.2268 96.5087 32.3136C96.5227 32.34 96.5531 32.386 96.6001 32.4515C96.647 32.5171 96.6972 32.5832 96.7505 32.6499C96.8059 32.7129 96.861 32.7699 96.9158 32.8209C96.9698 32.869 97.0123 32.8885 97.0432 32.8793C97.0881 32.866 97.123 32.8343 97.1479 32.7841C97.1747 32.7303 97.1947 32.674 97.2078 32.6151C97.22 32.5534 97.2281 32.493 97.2319 32.4338C97.2349 32.3718 97.237 32.3222 97.2383 32.2852C97.2272 31.6193 97.2306 30.9246 97.2483 30.2013C97.2652 29.4751 97.2788 28.7789 97.289 28.1128C97.4922 28.025 97.6921 27.952 97.8887 27.8937C97.9533 27.8745 98.0169 27.8572 98.0795 27.8417C98.3357 27.778 98.569 27.7302 98.7796 27.6983C98.9901 27.6664 99.1729 27.6489 99.3278 27.6457C99.4847 27.6389 99.5962 27.6441 99.6624 27.6611C99.6275 28.2856 99.5905 28.949 99.5512 29.6513C99.5119 30.3535 99.474 31.0707 99.4375 31.8027C99.4001 32.5319 99.3639 33.2653 99.329 34.0029C99.2969 34.7397 99.267 35.4529 99.2393 36.1426C99.0398 36.2323 98.8221 36.3228 98.5864 36.4141C98.3507 36.5054 98.1123 36.5929 97.8713 36.6766C97.6311 36.7631 97.3906 36.8436 97.1499 36.918C97.1021 36.9322 97.0544 36.9463 97.0066 36.9605C96.8184 37.0163 96.6402 37.0646 96.472 37.1053C96.2561 36.7996 96.0202 36.4524 95.7644 36.0638C95.5078 35.6723 95.2463 35.2594 94.98 34.825C94.7136 34.3906 94.4486 33.9451 94.1849 33.4886C93.9211 33.032 93.6696 32.5856 93.4302 32.1493C93.1908 31.7131 92.9702 31.2987 92.7683 30.9063C92.5683 30.5103 92.3988 30.1603 92.2598 29.8562ZM102.378 34.0842C102.243 33.5986 102.106 33.0879 101.965 32.552C101.824 32.0134 101.686 31.472 101.552 30.9281C101.42 30.3804 101.299 29.8679 101.188 29.3905C101.077 28.9131 100.981 28.4909 100.899 28.1239C100.821 27.756 100.766 27.4868 100.733 27.316C100.88 27.2236 101.056 27.1225 101.262 27.0126C101.467 26.8998 101.683 26.7945 101.911 26.6964C102.138 26.5955 102.362 26.4983 102.585 26.4047C102.808 26.3112 103.014 26.2318 103.202 26.1668C103.394 26.1009 103.557 26.048 103.691 26.008C103.826 25.968 103.912 25.9486 103.949 25.9499C104.224 26.3512 104.492 26.7592 104.752 27.1739C105.015 27.585 105.3 27.9742 105.607 28.3413C105.663 28.4072 105.738 28.4477 105.831 28.4629C105.924 28.478 105.999 28.4453 106.054 28.3647C106.08 28.3266 106.107 28.2329 106.136 28.0837C106.165 27.9346 106.191 27.7542 106.214 27.5427C106.239 27.3275 106.263 27.0943 106.286 26.8429C106.309 26.5916 106.33 26.3531 106.349 26.1276C106.369 25.8984 106.385 25.6936 106.396 25.5132C106.408 25.3291 106.416 25.1987 106.417 25.1218C106.577 25.0316 106.801 24.9316 107.089 24.8217C107.375 24.7126 107.68 24.6083 108.005 24.5089C108.05 24.4956 108.096 24.4818 108.144 24.4677C108.416 24.3869 108.689 24.3135 108.963 24.2476C109.277 24.1729 109.545 24.1211 109.765 24.0923C110.227 25.4436 110.678 26.7903 111.119 28.1324C111.562 29.471 112.031 30.8276 112.528 32.2022C112.424 32.3155 112.268 32.4197 112.061 32.5147C111.854 32.6097 111.627 32.6985 111.379 32.7811C111.287 32.8114 111.194 32.8407 111.098 32.869C110.941 32.9157 110.779 32.9589 110.614 32.9988C110.351 33.0614 110.107 33.1139 109.882 33.1564C109.847 33.0598 109.793 32.9152 109.721 32.7228C109.65 32.5267 109.571 32.3043 109.482 32.0557C109.392 31.8043 109.3 31.5472 109.207 31.2845C109.114 31.0219 109.026 30.7774 108.944 30.5513C108.862 30.3251 108.792 30.1351 108.734 29.9811C108.675 29.8243 108.639 29.7327 108.625 29.7063C108.545 29.5832 108.472 29.5316 108.405 29.5516C108.396 29.5541 108.39 29.5576 108.385 29.562C108.314 29.6014 108.269 29.6773 108.251 29.7897C108.226 29.965 108.196 30.2032 108.16 30.5042C108.126 30.8015 108.089 31.1257 108.05 31.4766C108.009 31.8247 107.965 32.1847 107.916 32.5567C107.869 32.925 107.824 33.2761 107.779 33.6102C107.622 33.6569 107.463 33.7085 107.303 33.7653C107.267 33.7789 107.23 33.7916 107.19 33.8032C107.067 33.8399 106.94 33.8653 106.809 33.8795C106.573 33.65 106.344 33.4078 106.122 33.1529C105.902 32.8943 105.692 32.6402 105.492 32.3907C105.292 32.1383 105.109 31.9009 104.942 31.6784C104.778 31.4551 104.63 31.2592 104.497 31.0906C104.445 31.0175 104.375 30.9804 104.286 30.9793C104.199 30.9773 104.147 31.0326 104.128 31.145C104.117 31.2095 104.127 31.3304 104.158 31.5075C104.188 31.6819 104.23 31.8849 104.284 32.1166C104.337 32.3483 104.396 32.595 104.462 32.8567C104.53 33.1176 104.596 33.3655 104.659 33.6003C104.723 33.8351 104.781 34.047 104.834 34.236C104.886 34.4222 104.923 34.5597 104.943 34.6484C104.603 34.8317 104.258 34.9768 103.908 35.0837C103.888 35.0896 103.868 35.0954 103.849 35.1012C103.514 35.2003 103.151 35.2836 102.758 35.3512C102.691 35.145 102.621 34.9197 102.549 34.6753C102.494 34.4899 102.437 34.2929 102.378 34.0842Z"
                fill="#FF9900" />
            <path
                d="M72.0928 76.6961L65.0203 87.9461C63.4383 90.4626 60.3993 91.652 57.5293 90.8779L68.8461 104.453L69.7082 98.0561L80.0386 81.1416C82.5515 81.5175 84.0733 79.4128 84.6017 77.9609C90.6236 77.4001 86.7627 64.6396 78.6627 66.3658C72.1827 67.7467 71.5827 73.828 72.0928 76.6961Z"
                fill="#FFE3B1" />
            <path d="M28.0612 162.023L30.6479 146.244L44.8745 141.071L38.4078 162.023L28.0612 162.023Z"
                fill="#FFE3B1" />
            <path d="M46.1678 162.023L48.7545 136.932L62.3584 138.485L56.2553 162.022L46.1678 162.023Z"
                fill="#FFE3B1" />
            <path
                d="M84.6017 77.9609C90.6236 77.4001 86.7627 64.6396 78.6627 66.3658C72.1827 67.7467 71.5827 73.828 72.0928 76.6961L65.0203 87.9461C63.4383 90.4626 60.3993 91.652 57.5293 90.8779V90.8779L68.8461 104.453L69.7082 98.0561L80.0386 81.1416M84.6017 77.9609C78.5799 78.5217 75.1105 72.5779 77.2454 69.4133M84.6017 77.9609C84.0733 79.4128 82.5515 81.5175 80.0386 81.1416M77.2465 79.8607C78.2837 80.6282 79.2145 81.0183 80.0386 81.1416M30.6479 146.244L28.0612 162.023L38.4078 162.023L44.8745 141.071L30.6479 146.244ZM48.7545 136.932L46.1678 162.023L56.2553 162.022L62.3584 138.485L48.7545 136.932Z"
                stroke="#FFB433" stroke-linecap="round" stroke-linejoin="round" />
            <path
                d="M26.6088 77.7823L35.2536 89.0581C37.1873 91.5804 40.5407 92.5454 43.5193 91.4368L44.2953 85.7461L51.538 83.3028L52.8313 89.1088L61.1086 88.0741L54.8036 104.166L32.8171 107.012L31.2651 100.286L18.5901 83.3028C15.9522 83.9521 14.1234 81.8622 13.4168 80.3689C6.95018 80.3689 9.7955 66.401 18.5901 67.4356C25.6258 68.2634 26.8674 74.6783 26.6088 77.7823Z"
                fill="#FFE3B1" />
            <path
                d="M13.4168 80.3689C6.95018 80.3689 9.7955 66.401 18.5901 67.4356C25.6258 68.2634 26.8674 74.6783 26.6088 77.7823L35.2536 89.0581C37.1873 91.5804 40.5407 92.5454 43.5193 91.4368V91.4368L44.2953 85.7461L51.538 83.3028L52.8313 89.1088L61.1086 88.0741L54.8036 104.166L32.8171 107.012L31.2651 100.286L18.5901 83.3028M13.4168 80.3689C19.8835 80.3689 22.9878 73.6971 20.4011 70.5397M13.4168 80.3689C14.1234 81.8622 15.9522 83.9521 18.5901 83.3028M21.4358 81.6623C20.4076 82.5822 19.4553 83.0898 18.5901 83.3028"
                stroke="#FFB433" stroke-linecap="round" stroke-linejoin="round" />
            <path
                d="M65.9765 92.1002C64.9559 88.3463 61.809 87.0604 60.108 87.408C58.9173 88.6245 57.3013 94.7071 51.1777 100.181C45.0509 105.658 36.8041 106.525 32.0413 105.656L33.317 111.13C35.59 111.701 37.7133 112.104 39.6958 112.359C63.9737 115.482 67.1559 96.4382 65.9765 92.1002Z"
                fill="#FF9429" />
            <path
                d="M58.0668 103.049C51.9431 109.305 44.7989 112.299 39.6958 112.359M39.6958 112.359C63.9737 115.482 67.1559 96.4382 65.9765 92.1002C64.9559 88.3463 61.809 87.0604 60.108 87.408C58.9173 88.6245 57.3013 94.7071 51.1777 100.181C45.0509 105.658 36.8041 106.525 32.0413 105.656L33.317 111.13C35.59 111.701 37.7133 112.104 39.6958 112.359Z"
                stroke="#FFB433" stroke-linecap="round" stroke-linejoin="round" />
            <mask id="path-20-outside-2_3419_3044" maskUnits="userSpaceOnUse" x="30.7914" y="55.5611" width="12.5329"
                height="15.0701" fill="black">
                <rect fill="white" x="30.7914" y="55.5611" width="12.5329" height="15.0701" />
                <path fill-rule="evenodd" clip-rule="evenodd"
                    d="M36.9068 61.0685C37.2611 60.6379 37.362 59.9666 37.1158 59.3365C36.7795 58.4757 35.9227 58.0176 35.2022 58.3135C34.4817 58.6093 34.1702 59.547 34.5066 60.4079C34.7045 60.9146 35.0828 61.2818 35.5075 61.4377C35.7911 62.8295 36.0303 65.645 35.0847 67.8339L40.4416 64.6357C39.5621 64.2419 37.7301 63.0114 36.9068 61.0685Z" />
            </mask>
            <path fill-rule="evenodd" clip-rule="evenodd"
                d="M36.9068 61.0685C37.2611 60.6379 37.362 59.9666 37.1158 59.3365C36.7795 58.4757 35.9227 58.0176 35.2022 58.3135C34.4817 58.6093 34.1702 59.547 34.5066 60.4079C34.7045 60.9146 35.0828 61.2818 35.5075 61.4377C35.7911 62.8295 36.0303 65.645 35.0847 67.8339L40.4416 64.6357C39.5621 64.2419 37.7301 63.0114 36.9068 61.0685Z"
                fill="#FF9429" />
            <path
                d="M37.1158 59.3365L38.0479 58.9802L38.0479 58.9802L37.1158 59.3365ZM36.9068 61.0685L36.1312 60.4306L35.7495 60.8946L35.9854 61.4513L36.9068 61.0685ZM35.2022 58.3135L35.5894 59.2379L35.5894 59.2379L35.2022 58.3135ZM34.5066 60.4079L35.4387 60.0515L34.5066 60.4079ZM35.5075 61.4377L36.4882 61.2462L36.3758 60.695L35.8463 60.5005L35.5075 61.4377ZM35.0847 67.8339L34.1651 67.432L32.9314 70.2878L35.6036 68.6924L35.0847 67.8339ZM40.4416 64.6357L40.9605 65.4942L42.6048 64.5125L40.845 63.7246L40.4416 64.6357ZM36.1837 59.6929C36.3143 60.0273 36.2307 60.3098 36.1312 60.4306L37.6824 61.7064C38.2915 60.966 38.4096 59.906 38.0479 58.9802L36.1837 59.6929ZM35.5894 59.2379C35.6381 59.2179 35.7185 59.2082 35.8361 59.2711C35.9577 59.3361 36.0979 59.4734 36.1837 59.6929L38.0479 58.9802C37.5683 57.7525 36.1975 56.8214 34.815 57.3891L35.5894 59.2379ZM35.4387 60.0515C35.3528 59.8318 35.358 59.6218 35.4084 59.4702C35.4584 59.3197 35.537 59.2594 35.5894 59.2379L34.815 57.3891C33.4601 57.9454 33.0974 59.5433 33.5744 60.7643L35.4387 60.0515ZM35.8463 60.5005C35.7165 60.4528 35.5407 60.3127 35.4387 60.0515L33.5744 60.7643C33.8683 61.5165 34.4491 62.1107 35.1686 62.375L35.8463 60.5005ZM36.0043 68.2358C37.0699 65.769 36.7866 62.7101 36.4882 61.2462L34.5267 61.6292C34.7957 62.9489 34.9906 65.521 34.1651 67.432L36.0043 68.2358ZM39.9227 63.7771L34.5658 66.9753L35.6036 68.6924L40.9605 65.4942L39.9227 63.7771ZM35.9854 61.4513C36.9423 63.7095 39.0198 65.0907 40.0382 65.5467L40.845 63.7246C40.1043 63.393 38.5179 62.3133 37.8281 60.6857L35.9854 61.4513Z"
                fill="#FFB433" mask="url(#path-20-outside-2_3419_3044)" />
            <mask id="path-22-outside-3_3419_3044" maskUnits="userSpaceOnUse" x="43.1779" y="54.1924" width="12.5329"
                height="15.0701" fill="black">
                <rect fill="white" x="43.1779" y="54.1924" width="12.5329" height="15.0701" />
                <path fill-rule="evenodd" clip-rule="evenodd"
                    d="M49.1503 59.6862C48.7174 59.3387 48.4752 58.7163 48.5726 58.0619C48.7076 57.1544 49.4447 56.5291 50.2189 56.6654C50.993 56.8016 51.5112 57.6478 51.3761 58.5554C51.2943 59.105 50.9917 59.5511 50.5938 59.7872C50.6305 61.2076 51.0305 64.0004 52.4428 65.9336L46.4964 63.9457C47.2701 63.3725 48.7926 61.7713 49.1503 59.6862Z" />
            </mask>
            <path fill-rule="evenodd" clip-rule="evenodd"
                d="M49.1503 59.6862C48.7174 59.3387 48.4752 58.7163 48.5726 58.0619C48.7076 57.1544 49.4447 56.5291 50.2189 56.6654C50.993 56.8016 51.5112 57.6478 51.3761 58.5554C51.2943 59.105 50.9917 59.5511 50.5938 59.7872C50.6305 61.2076 51.0305 64.0004 52.4428 65.9336L46.4964 63.9457C47.2701 63.3725 48.7926 61.7713 49.1503 59.6862Z"
                fill="#FF9429" />
            <path
                d="M48.5726 58.0619L47.5825 57.9073L47.5825 57.9073L48.5726 58.0619ZM49.1503 59.6862L49.7736 58.9096L50.2366 59.2812L50.1369 59.8626L49.1503 59.6862ZM50.2189 56.6654L50.3848 55.6815L50.2189 56.6654ZM51.3761 58.5554L52.3662 58.71L51.3761 58.5554ZM50.5938 59.7872L49.5932 59.8049L49.5781 59.2234L50.0772 58.9273L50.5938 59.7872ZM52.4428 65.9336L53.2499 65.3493L55.0914 67.8702L52.1319 66.8807L52.4428 65.9336ZM46.4964 63.9457L46.1855 64.8928L44.3571 64.2815L45.8957 63.1417L46.4964 63.9457ZM49.5627 58.2166C49.5118 58.5582 49.65 58.8104 49.7736 58.9096L48.5269 60.4627C47.7848 59.867 47.4386 58.8744 47.5825 57.9073L49.5627 58.2166ZM50.0529 57.6492C49.9956 57.6392 49.9105 57.6486 49.8078 57.7357C49.7021 57.8254 49.5967 57.988 49.5627 58.2166L47.5825 57.9073C47.7763 56.6046 48.9126 55.4224 50.3848 55.6815L50.0529 57.6492ZM50.386 58.4007C50.4201 58.1718 50.3681 57.9719 50.2856 57.8371C50.2039 57.7037 50.1132 57.6599 50.0529 57.6492L50.3848 55.6815C51.834 55.9366 52.5591 57.4134 52.3662 58.71L50.386 58.4007ZM50.0772 58.9273C50.1979 58.8557 50.3443 58.681 50.386 58.4007L52.3662 58.71C52.2443 59.529 51.7855 60.2466 51.1103 60.6471L50.0772 58.9273ZM51.6357 66.518C50.0433 64.3381 49.6319 61.2981 49.5932 59.8049L51.5943 59.7696C51.6292 61.117 52.0176 63.6626 53.2499 65.3493L51.6357 66.518ZM46.8073 62.9986L52.7537 64.9865L52.1319 66.8807L46.1855 64.8928L46.8073 62.9986ZM50.1369 59.8626C49.7212 62.286 47.9916 64.087 47.0971 64.7497L45.8957 63.1417C46.5485 62.658 47.8641 61.2566 48.1637 59.5097L50.1369 59.8626Z"
                fill="#FFB433" mask="url(#path-22-outside-3_3419_3044)" />
            <path
                d="M44.8107 77.2573C47.9957 76.9056 50.8181 75.8131 52.8054 74.305C54.7833 72.8041 56.0057 70.8269 55.7733 68.722C55.5408 66.617 53.9165 64.9542 51.6587 63.921C49.3902 62.8829 46.3974 62.4327 43.2124 62.7844C40.0274 63.1361 37.205 64.2286 35.2177 65.7367C33.2398 67.2376 32.0174 69.2148 32.2499 71.3197C32.4823 73.4246 34.1067 75.0875 36.3644 76.1207C38.6329 77.1588 41.6257 77.609 44.8107 77.2573Z"
                fill="#FF9900" stroke="#FFB433" />
            <mask id="path-25-outside-4_3419_3044" maskUnits="userSpaceOnUse" x="19.242" y="52.9522" width="49.7326"
                height="39.6332" fill="black">
                <rect fill="white" x="19.242" y="52.9522" width="49.7326" height="39.6332" />
                <path fill-rule="evenodd" clip-rule="evenodd"
                    d="M44.25 61.1355C45.0125 60.6227 45.4691 59.6837 45.3536 58.668C45.1907 57.2351 43.951 56.1921 42.5845 56.3384C41.2181 56.4847 40.2425 57.7649 40.4054 59.1977C40.5148 60.1607 41.1106 60.9475 41.9043 61.3157C42.0837 64.8133 41.6342 70.9478 38.4441 71.2814C35.3912 71.6006 32.6353 68.0835 31.4668 66.2365C31.5167 66.2093 31.5647 66.1783 31.6107 66.1432C32.398 65.544 32.2957 64.0144 31.3821 62.7269C30.4686 61.4394 29.0898 60.8814 28.3025 61.4806C27.5152 62.0799 27.6176 63.6094 28.5311 64.897C29.1506 65.77 29.9839 66.3076 30.7017 66.3764C31.6141 68.3323 32.2733 71.2088 30.8009 71.0471C29.4001 70.8932 27.0086 67.9696 26.0089 66.4283C26.2332 65.812 25.6153 64.9066 24.5881 64.3698C23.5258 63.8147 22.4281 63.8642 22.1362 64.4802C21.8443 65.0963 22.4688 66.0457 23.531 66.6008C23.8193 66.7514 24.1101 66.8575 24.3868 66.9199C25.5105 67.8452 27.3709 69.9205 28.9511 71.9922C30.8429 74.4723 34.4201 80.7227 33.1021 82.4109C32.7758 82.4137 32.1064 82.5808 32.2582 83.5797C32.4479 84.8284 34.5204 87.3305 42.6521 88.3185C43.6911 88.4447 47.6838 88.3091 48.8341 87.8599L48.8034 87.7145C49.187 87.6292 49.4986 87.5481 49.6942 87.481C57.4036 84.8363 58.8513 81.9661 58.7496 80.7083C58.6682 79.702 57.9765 79.6772 57.6574 79.7419C55.9832 78.3666 58.0384 71.5272 59.3148 68.7158C60.4412 66.2348 61.8719 63.6854 62.7492 62.6425C62.9677 62.5294 63.1873 62.3833 63.3977 62.2061C64.3088 61.4387 64.7032 60.3771 64.2786 59.8349C63.8539 59.2927 62.7711 59.4753 61.86 60.2427C60.9733 60.9895 60.576 62.0149 60.9467 62.5691C60.3583 64.2425 58.6529 67.7265 57.2923 68.1756C55.8818 68.6412 55.8748 65.6488 56.3262 63.5487C57.0235 63.3412 57.7322 62.6357 58.1471 61.64C58.7506 60.1918 58.5041 58.6781 57.5964 58.259C56.6888 57.84 55.4638 58.6744 54.8603 60.1226C54.2568 61.5709 54.5033 63.0846 55.4109 63.5036C55.4589 63.5258 55.5079 63.5444 55.5575 63.5597C54.8572 65.5847 52.9689 69.6613 49.8866 69.9837C46.7462 70.3121 44.9063 64.6052 44.25 61.1355Z" />
            </mask>
            <path fill-rule="evenodd" clip-rule="evenodd"
                d="M44.25 61.1355C45.0125 60.6227 45.4691 59.6837 45.3536 58.668C45.1907 57.2351 43.951 56.1921 42.5845 56.3384C41.2181 56.4847 40.2425 57.7649 40.4054 59.1977C40.5148 60.1607 41.1106 60.9475 41.9043 61.3157C42.0837 64.8133 41.6342 70.9478 38.4441 71.2814C35.3912 71.6006 32.6353 68.0835 31.4668 66.2365C31.5167 66.2093 31.5647 66.1783 31.6107 66.1432C32.398 65.544 32.2957 64.0144 31.3821 62.7269C30.4686 61.4394 29.0898 60.8814 28.3025 61.4806C27.5152 62.0799 27.6176 63.6094 28.5311 64.897C29.1506 65.77 29.9839 66.3076 30.7017 66.3764C31.6141 68.3323 32.2733 71.2088 30.8009 71.0471C29.4001 70.8932 27.0086 67.9696 26.0089 66.4283C26.2332 65.812 25.6153 64.9066 24.5881 64.3698C23.5258 63.8147 22.4281 63.8642 22.1362 64.4802C21.8443 65.0963 22.4688 66.0457 23.531 66.6008C23.8193 66.7514 24.1101 66.8575 24.3868 66.9199C25.5105 67.8452 27.3709 69.9205 28.9511 71.9922C30.8429 74.4723 34.4201 80.7227 33.1021 82.4109C32.7758 82.4137 32.1064 82.5808 32.2582 83.5797C32.4479 84.8284 34.5204 87.3305 42.6521 88.3185C43.6911 88.4447 47.6838 88.3091 48.8341 87.8599L48.8034 87.7145C49.187 87.6292 49.4986 87.5481 49.6942 87.481C57.4036 84.8363 58.8513 81.9661 58.7496 80.7083C58.6682 79.702 57.9765 79.6772 57.6574 79.7419C55.9832 78.3666 58.0384 71.5272 59.3148 68.7158C60.4412 66.2348 61.8719 63.6854 62.7492 62.6425C62.9677 62.5294 63.1873 62.3833 63.3977 62.2061C64.3088 61.4387 64.7032 60.3771 64.2786 59.8349C63.8539 59.2927 62.7711 59.4753 61.86 60.2427C60.9733 60.9895 60.576 62.0149 60.9467 62.5691C60.3583 64.2425 58.6529 67.7265 57.2923 68.1756C55.8818 68.6412 55.8748 65.6488 56.3262 63.5487C57.0235 63.3412 57.7322 62.6357 58.1471 61.64C58.7506 60.1918 58.5041 58.6781 57.5964 58.259C56.6888 57.84 55.4638 58.6744 54.8603 60.1226C54.2568 61.5709 54.5033 63.0846 55.4109 63.5036C55.4589 63.5258 55.5079 63.5444 55.5575 63.5597C54.8572 65.5847 52.9689 69.6613 49.8866 69.9837C46.7462 70.3121 44.9063 64.6052 44.25 61.1355Z"
                fill="#FFE3B1" />
            <path
                d="M45.3536 58.668L46.3482 58.5634L46.3482 58.5634L45.3536 58.668ZM44.25 61.1355L43.6861 60.3055L43.1448 60.6695L43.2666 61.3131L44.25 61.1355ZM42.5845 56.3384L42.4698 55.345L42.5845 56.3384ZM40.4054 59.1977L41.3999 59.0931L41.3999 59.0931L40.4054 59.1977ZM41.9043 61.3157L42.9039 61.2727L42.8729 60.6667L42.32 60.4102L41.9043 61.3157ZM38.4441 71.2814L38.5565 72.275L38.4441 71.2814ZM31.4668 66.2365L30.9812 65.359L30.0528 65.8657L30.6218 66.7651L31.4668 66.2365ZM31.6107 66.1432L30.9997 65.347L30.9997 65.347L31.6107 66.1432ZM31.3821 62.7269L30.5669 63.2999L30.5669 63.2999L31.3821 62.7269ZM28.3025 61.4806L28.9135 62.2769L28.3025 61.4806ZM28.5311 64.897L29.3464 64.324L29.3464 64.324L28.5311 64.897ZM30.7017 66.3764L31.6085 65.9608L31.3642 65.4371L30.7894 65.3819L30.7017 66.3764ZM30.8009 71.0471L30.6995 72.0401L30.6995 72.0401L30.8009 71.0471ZM26.0089 66.4283L25.0678 66.0804L24.898 66.547L25.17 66.9664L26.0089 66.4283ZM24.5881 64.3698L24.1296 65.2541L24.1296 65.2541L24.5881 64.3698ZM22.1362 64.4802L21.2307 64.0471L21.2307 64.0471L22.1362 64.4802ZM23.531 66.6008L23.0725 67.4851L23.0725 67.4851L23.531 66.6008ZM24.3868 66.9199L25.02 66.1513L24.8341 65.9983L24.5997 65.9454L24.3868 66.9199ZM28.9511 71.9922L29.7457 71.3911L29.7457 71.3911L28.9511 71.9922ZM33.1021 82.4109L33.1189 83.4099L33.5993 83.4058L33.8935 83.029L33.1021 82.4109ZM32.2582 83.5797L31.2686 83.7216L31.2686 83.7216L32.2582 83.5797ZM42.6521 88.3185L42.5392 89.3102L42.5392 89.3102L42.6521 88.3185ZM48.8341 87.8599L49.2053 88.7907L49.987 88.4855L49.8135 87.662L48.8341 87.8599ZM48.8034 87.7145L48.5781 86.7392L47.6217 86.952L47.824 87.9124L48.8034 87.7145ZM49.6942 87.481L49.362 86.5358L49.6942 87.481ZM58.7496 80.7083L57.752 80.7806L58.7496 80.7083ZM57.6574 79.7419L57.0252 80.5112L57.3961 80.816L57.8643 80.7211L57.6574 79.7419ZM59.3148 68.7158L60.2271 69.1344L59.3148 68.7158ZM62.7492 62.6425L62.2827 61.7548L62.1074 61.8455L61.9805 61.9964L62.7492 62.6425ZM63.3977 62.2061L64.0468 62.9718L64.0468 62.9718L63.3977 62.2061ZM61.86 60.2427L62.5091 61.0084L62.5091 61.0084L61.86 60.2427ZM60.9467 62.5691L61.8915 62.9068L62.0569 62.4364L61.7778 62.0191L60.9467 62.5691ZM57.2923 68.1756L56.9711 67.2268L56.9711 67.2268L57.2923 68.1756ZM56.3262 63.5487L56.033 62.5911L55.4706 62.7585L55.3475 63.3315L56.3262 63.5487ZM58.1471 61.64L59.0717 62.0301L59.0717 62.0301L58.1471 61.64ZM54.8603 60.1226L55.7849 60.5127L55.7849 60.5127L54.8603 60.1226ZM55.4109 63.5036L55.8249 62.5974L55.8249 62.5974L55.4109 63.5036ZM55.5575 63.5597L56.5039 63.8925L56.8432 62.9115L55.8446 62.6049L55.5575 63.5597ZM49.8866 69.9837L49.9989 70.9773L49.8866 69.9837ZM44.3591 58.7726C44.4331 59.4232 44.139 60.0009 43.6861 60.3055L44.814 61.9655C45.886 61.2445 46.5051 59.9443 46.3482 58.5634L44.3591 58.7726ZM42.6993 57.3318C43.4712 57.2492 44.2535 57.8434 44.3591 58.7726L46.3482 58.5634C46.128 56.6269 44.4308 55.1351 42.4698 55.345L42.6993 57.3318ZM41.3999 59.0931C41.2941 58.1627 41.9258 57.4146 42.6993 57.3318L42.4698 55.345C40.5104 55.5548 39.1908 57.367 39.4108 59.3024L41.3999 59.0931ZM42.32 60.4102C41.8474 60.191 41.4699 59.709 41.3999 59.0931L39.4108 59.3024C39.5597 60.6123 40.3739 61.704 41.4887 62.2211L42.32 60.4102ZM38.5565 72.275C39.7073 72.1547 40.5641 71.5033 41.1698 70.6633C41.7624 69.8415 42.1511 68.7964 42.4106 67.7279C42.9308 65.5858 42.9962 63.0715 42.9039 61.2727L40.9047 61.3586C40.9918 63.0575 40.9221 65.3592 40.4649 67.2422C40.2357 68.1862 39.9251 68.9558 39.5418 69.4873C39.1716 70.0007 38.776 70.2412 38.3318 70.2877L38.5565 72.275ZM30.6218 66.7651C31.2342 67.733 32.2747 69.161 33.5905 70.3185C34.8841 71.4564 36.6122 72.4783 38.5565 72.275L38.3318 70.2877C37.2231 70.4036 36.0469 69.8267 34.9071 68.8241C33.7896 67.841 32.868 66.587 32.3119 65.708L30.6218 66.7651ZM30.9997 65.347C30.9935 65.3517 30.9873 65.3556 30.9812 65.359L31.9525 67.1141C32.046 67.063 32.136 67.0048 32.2218 66.9395L30.9997 65.347ZM30.5669 63.2999C30.9309 63.8129 31.1081 64.3421 31.1355 64.7517C31.1643 65.1806 31.0321 65.3223 30.9997 65.347L32.2218 66.9395C32.9766 66.3649 33.187 65.4422 33.1329 64.6347C33.0776 63.8078 32.7469 62.9284 32.1973 62.1539L30.5669 63.2999ZM28.9135 62.2769C28.9325 62.2625 29.067 62.1766 29.4254 62.3217C29.7743 62.4629 30.2021 62.7858 30.5669 63.2999L32.1973 62.1539C31.6485 61.3804 30.9302 60.7806 30.1645 60.4708C29.4083 60.1648 28.4598 60.0995 27.6915 60.6844L28.9135 62.2769ZM29.3464 64.324C28.9824 63.811 28.8051 63.2818 28.7777 62.8722C28.749 62.4432 28.8811 62.3016 28.9135 62.2769L27.6915 60.6844C26.9366 61.259 26.7263 62.1817 26.7803 62.9892C26.8357 63.8161 27.1664 64.6955 27.7159 65.47L29.3464 64.324ZM30.7894 65.3819C30.454 65.3498 29.8569 65.0435 29.3464 64.324L27.7159 65.47C28.4443 66.4965 29.5139 67.2654 30.6141 67.3709L30.7894 65.3819ZM30.6995 72.0401C31.0425 72.0778 31.4097 72.0347 31.7475 71.8478C32.0858 71.6606 32.306 71.3782 32.4409 71.0924C32.6896 70.5656 32.694 69.9371 32.6415 69.4142C32.5317 68.3213 32.0934 67.0003 31.6085 65.9608L29.795 66.7921C30.2224 67.7085 30.5699 68.8035 30.6497 69.5975C30.669 69.7895 30.6704 69.9436 30.6601 70.0602C30.655 70.1174 30.6476 70.1599 30.6405 70.1895C30.6334 70.2193 30.6278 70.2306 30.6288 70.2286C30.6327 70.2203 30.67 70.1514 30.7661 70.0982C30.8617 70.0454 30.9274 70.0567 30.9023 70.054L30.6995 72.0401ZM25.17 66.9664C25.7014 67.7857 26.5875 68.9518 27.5318 69.9432C28.0038 70.4388 28.5113 70.913 29.0141 71.2811C29.4894 71.6292 30.079 71.972 30.6995 72.0401L30.9023 70.054C30.8224 70.0452 30.5877 69.9649 30.1895 69.6733C29.8187 69.4018 29.4031 69.0199 28.9772 68.5727C28.1256 67.6785 27.3161 66.6122 26.8478 65.8901L25.17 66.9664ZM24.1296 65.2541C24.5194 65.4578 24.7961 65.715 24.9441 65.9301C25.1118 66.1739 25.0223 66.2054 25.0678 66.0804L26.95 66.7761C27.2197 66.0349 26.9335 65.3056 26.5915 64.8083C26.2298 64.2825 25.684 63.8186 25.0466 63.4855L24.1296 65.2541ZM23.0416 64.9134C22.9648 65.0756 22.8653 64.9957 23.1265 64.9839C23.3601 64.9734 23.7243 65.0424 24.1296 65.2541L25.0466 63.4855C24.3896 63.1422 23.6738 62.9583 23.02 62.9878C22.3938 63.016 21.5994 63.2688 21.2307 64.0471L23.0416 64.9134ZM23.9896 65.7165C23.5855 65.5053 23.3044 65.2376 23.1611 65.0198C22.9981 64.7721 23.1098 64.7696 23.0416 64.9134L21.2307 64.0471C20.8707 64.8069 21.1486 65.5872 21.4905 66.107C21.852 66.6567 22.4144 67.1412 23.0725 67.4851L23.9896 65.7165ZM24.5997 65.9454C24.4129 65.9033 24.2043 65.8287 23.9896 65.7165L23.0725 67.4851C23.4343 67.6741 23.8074 67.8117 24.174 67.8943L24.5997 65.9454ZM29.7457 71.3911C28.151 69.3005 26.2346 67.1515 25.02 66.1513L23.7536 67.6884C24.7864 68.5389 26.5907 70.5404 28.1566 72.5933L29.7457 71.3911ZM33.8935 83.029C34.2176 82.6138 34.3445 82.12 34.378 81.6609C34.4117 81.2001 34.3565 80.7091 34.2555 80.2238C34.0535 79.2542 33.6355 78.158 33.138 77.085C32.1408 74.9342 30.7355 72.6888 29.7457 71.3911L28.1566 72.5933C29.0585 73.7758 30.3876 75.8956 31.3225 77.912C31.7911 78.9226 32.1385 79.8606 32.2957 80.6152C32.3742 80.9921 32.3971 81.2857 32.3815 81.4995C32.3657 81.7151 32.3161 81.7859 32.3107 81.7928L33.8935 83.029ZM33.2478 83.4378C33.2265 83.2979 33.2441 83.2531 33.2397 83.2679C33.2374 83.2756 33.231 83.2929 33.217 83.3147C33.2031 83.3365 33.1859 83.3562 33.1674 83.3725C33.1494 83.3884 33.1333 83.3983 33.1223 83.4041C33.1117 83.4096 33.1054 83.4116 33.1047 83.4117C33.1042 83.4119 33.1063 83.4113 33.1108 83.4106C33.1129 83.4104 33.1148 83.4102 33.1165 83.4101C33.1182 83.4099 33.119 83.4099 33.1189 83.4099L33.0853 81.4118C32.7998 81.4143 32.2743 81.4826 31.8344 81.871C31.3313 82.315 31.1557 82.9786 31.2686 83.7216L33.2478 83.4378ZM42.765 87.3267C38.7773 86.8422 36.3732 85.9965 34.975 85.1843C33.5588 84.3618 33.2791 83.6442 33.2478 83.4378L31.2686 83.7216C31.427 84.7639 32.2783 85.9217 33.9788 86.9093C35.6971 87.9074 38.3952 88.8067 42.5392 89.3102L42.765 87.3267ZM48.4629 86.9291C48.2954 86.9945 47.9335 87.0756 47.388 87.1486C46.8679 87.2182 46.2548 87.2714 45.6348 87.3076C44.3667 87.3817 43.1873 87.378 42.765 87.3267L42.5392 89.3102C43.1559 89.3852 44.4924 89.3769 45.768 89.3024C46.4198 89.2643 47.0854 89.2073 47.6699 89.1291C48.2291 89.0542 48.7977 88.9499 49.2053 88.7907L48.4629 86.9291ZM47.824 87.9124L47.8547 88.0579L49.8135 87.662L49.7829 87.5165L47.824 87.9124ZM49.362 86.5358C49.2211 86.5842 48.9539 86.6556 48.5781 86.7392L49.0288 88.6897C49.42 88.6027 49.7762 88.5119 50.0265 88.4261L49.362 86.5358ZM57.752 80.7806C57.7687 80.987 57.6618 81.7428 56.4702 82.8367C55.2934 83.9172 53.1425 85.239 49.362 86.5358L50.0265 88.4261C53.9553 87.0783 56.383 85.6427 57.8319 84.3124C59.2662 82.9956 59.8323 81.6873 59.7473 80.636L57.752 80.7806ZM57.8643 80.7211C57.8641 80.7211 57.865 80.7209 57.8666 80.7207C57.8683 80.7205 57.8702 80.7203 57.8723 80.7201C57.8768 80.7198 57.8792 80.72 57.8788 80.7199C57.8783 80.7199 57.872 80.7194 57.8608 80.7163C57.8492 80.7131 57.8319 80.7069 57.8113 80.6955C57.7903 80.6838 57.7696 80.6686 57.7517 80.6509C57.7337 80.6331 57.7239 80.6183 57.7202 80.6117C57.7131 80.5992 57.7406 80.6399 57.752 80.7806L59.7473 80.636C59.6867 79.8869 59.363 79.2787 58.774 78.9514C58.2578 78.6647 57.7306 78.706 57.4505 78.7627L57.8643 80.7211ZM58.4026 68.2972C57.7345 69.7688 56.8786 72.2512 56.3995 74.5568C56.1605 75.7071 56.0043 76.8636 56.03 77.852C56.0429 78.3467 56.1019 78.8371 56.2405 79.2796C56.3786 79.7205 56.6154 80.1746 57.0252 80.5112L58.2897 78.9726C58.2809 78.9653 58.2156 78.9049 58.1507 78.6975C58.0862 78.4917 58.0411 78.2003 58.0312 77.8165C58.0112 77.0478 58.1347 76.0609 58.3597 74.978C58.8088 72.8172 59.6187 70.4742 60.2271 69.1344L58.4026 68.2972ZM61.9805 61.9964C61.0107 63.1492 59.5345 65.8042 58.4026 68.2972L60.2271 69.1344C61.348 66.6655 62.733 64.2216 63.5179 63.2886L61.9805 61.9964ZM62.7486 61.4403C62.5921 61.5722 62.4334 61.6767 62.2827 61.7548L63.2157 63.5302C63.502 63.382 63.7825 63.1945 64.0468 62.9718L62.7486 61.4403ZM63.4919 60.4462C63.3946 60.3219 63.5035 60.3039 63.4002 60.582C63.3094 60.8265 63.0952 61.1484 62.7486 61.4403L64.0468 62.9718C64.6113 62.4964 65.0499 61.9037 65.2779 61.2901C65.4933 60.71 65.5872 59.89 65.0652 59.2236L63.4919 60.4462ZM62.5091 61.0084C62.8568 60.7155 63.1965 60.5716 63.4262 60.5328C63.6825 60.4896 63.6031 60.5882 63.4919 60.4462L65.0652 59.2236C64.5294 58.5394 63.6962 58.4581 63.0772 58.5625C62.4316 58.6713 61.7743 59.0024 61.2109 59.4769L62.5091 61.0084ZM61.7778 62.0191C61.8537 62.1326 61.7569 62.1237 61.8647 61.8479C61.9598 61.6046 62.1725 61.2919 62.5091 61.0084L61.2109 59.4769C60.6608 59.9402 60.2316 60.5136 59.999 61.1083C59.7792 61.6705 59.6691 62.4515 60.1157 63.1192L61.7778 62.0191ZM57.6136 69.1244C58.2164 68.9254 58.7234 68.4531 59.1139 68.0025C59.5276 67.5251 59.9209 66.9401 60.2728 66.3434C60.9761 65.1506 61.5764 63.8027 61.8915 62.9068L60.002 62.2314C59.7286 63.0089 59.182 64.2398 58.5454 65.3195C58.2272 65.8591 57.9023 66.334 57.5952 66.6883C57.2649 67.0696 57.0486 67.2012 56.9711 67.2268L57.6136 69.1244ZM55.3475 63.3315C55.1071 64.4496 54.9776 65.8422 55.1182 66.9427C55.1855 67.4697 55.3324 68.086 55.6928 68.5514C55.888 68.8035 56.166 69.0361 56.5394 69.1511C56.913 69.2661 57.2839 69.2332 57.6136 69.1244L56.9711 67.2268C56.9481 67.2344 57.0103 67.2098 57.1153 67.2421C57.2201 67.2744 57.2696 67.3332 57.2728 67.3374C57.2731 67.3378 57.2643 67.3263 57.2499 67.2971C57.2356 67.268 57.2182 67.2264 57.1999 67.1698C57.1627 67.0548 57.1287 66.9006 57.1039 66.7059C57.0011 65.9016 57.0938 64.748 57.3049 63.7659L55.3475 63.3315ZM57.2225 61.2499C56.88 62.0717 56.3545 62.4954 56.033 62.5911L56.6194 64.5063C57.6925 64.1869 58.5843 63.1996 59.0717 62.0301L57.2225 61.2499ZM57.1824 59.1652C57.2209 59.183 57.3817 59.2933 57.4505 59.716C57.5163 60.1202 57.4629 60.673 57.2225 61.2499L59.0717 62.0301C59.4348 61.1588 59.5598 60.2306 59.4263 59.4111C59.2959 58.6102 58.8795 57.7541 58.0105 57.3528L57.1824 59.1652ZM55.7849 60.5127C56.0257 59.9348 56.3719 59.5292 56.683 59.3173C57.0028 59.0995 57.1576 59.1538 57.1824 59.1652L58.0105 57.3528C57.1277 56.9453 56.2161 57.2072 55.5456 57.6639C54.8664 58.1265 54.2983 58.8622 53.9356 59.7325L55.7849 60.5127ZM55.8249 62.5974C55.7864 62.5796 55.6257 62.4693 55.5568 62.0466C55.491 61.6424 55.5445 61.0896 55.7849 60.5127L53.9357 59.7325C53.5725 60.6039 53.4475 61.5321 53.581 62.3515C53.7114 63.1525 54.1278 64.0086 54.9969 64.4098L55.8249 62.5974ZM55.8446 62.6049C55.8382 62.603 55.8317 62.6005 55.8249 62.5974L54.9969 64.4098C55.0862 64.451 55.1775 64.4859 55.2704 64.5144L55.8446 62.6049ZM49.9989 70.9773C51.9628 70.7719 53.4257 69.3923 54.4298 67.9976C55.4514 66.5784 56.1365 64.955 56.5039 63.8925L54.6111 63.2268C54.2782 64.1894 53.669 65.6169 52.8009 66.8228C51.9151 68.0532 50.8927 68.873 49.7742 68.99L49.9989 70.9773ZM43.2666 61.3131C43.6037 63.0958 44.2507 65.4945 45.2469 67.4339C45.744 68.4017 46.3594 69.3176 47.1193 69.9785C47.8957 70.6539 48.8674 71.0956 49.9989 70.9773L49.7742 68.99C49.3356 69.0359 48.8996 68.8874 48.4274 68.4767C47.9385 68.0515 47.4641 67.3855 47.0267 66.5338C46.1538 64.8345 45.5526 62.6449 45.2335 60.9579L43.2666 61.3131Z"
                fill="#FFB433" mask="url(#path-25-outside-4_3419_3044)" />
            <path d="M46.3114 74.4141L46.3114 77.9224" stroke="#FFB433" stroke-width="1.5" stroke-linecap="round" />
            <path d="M52.6056 73.5898C52.8383 74.5788 52.7088 75.6656 52.7088 76.6855" stroke="#FFB433"
                stroke-width="1.5" stroke-linecap="round" />
            <path
                d="M45.588 80.7106C47.086 81.7973 49.2285 81.9417 51.034 81.7195C52.5146 81.5373 53.5617 80.4497 54.4621 79.3691"
                stroke="#FFB433" stroke-width="1.5" stroke-linecap="round" />
            <path
                d="M62.5627 148.4C70.9418 147.382 70.6408 126.245 68.0522 115.748C67.607 113.942 67.6803 112.018 68.4964 110.347C71.0836 105.049 70.8758 98.7266 67.382 93.9778C66.9456 93.3846 66.5101 92.81 66.0838 92.2695C66.1173 95.7184 64.9429 103.651 59.9765 107.789C53.7685 112.963 35.4033 109.083 33.5926 110.376C32.5932 111.09 32.6855 112.83 33.0371 114.321C33.3101 115.48 33.4316 116.69 33.1338 117.842L29.7816 130.811C27.8191 132.835 26.2238 135.334 25.5736 138.829C23.5042 149.952 33.2334 148.315 44.0974 144.435C54.9613 140.555 56.6134 149.952 62.5627 148.4Z"
                fill="#FFE033" />
            <path
                d="M41.8699 118.912C40.096 124.234 34.0645 126.392 29.7816 130.811M29.7816 130.811C27.8191 132.835 26.2238 135.334 25.5736 138.829C23.5042 149.952 33.2334 148.315 44.0974 144.435C54.9613 140.555 56.6134 149.952 62.5627 148.4C70.9418 147.382 70.6408 126.245 68.0522 115.748C67.607 113.942 67.6803 112.018 68.4964 110.347V110.347C71.0836 105.049 70.8758 98.7266 67.382 93.9778C66.9456 93.3846 66.5101 92.81 66.0838 92.2695C66.1173 95.7184 64.9429 103.651 59.9765 107.789C53.7685 112.963 35.4033 109.083 33.5926 110.376C32.5932 111.09 32.6855 112.83 33.0371 114.321C33.3101 115.48 33.4316 116.69 33.1338 117.842L29.7816 130.811ZM58.9418 113.997L37.7312 141.933"
                stroke="#FFB433" stroke-linecap="round" stroke-linejoin="round" />
            <path d="M22.5663 16.166L17.9103 66.8645" stroke="#FFB433" stroke-width="2" stroke-linecap="round"
                stroke-linejoin="round" />
            <path d="M16.8757 80.0566L15.5824 93.2486" stroke="#FFB433" stroke-width="1.5" stroke-linecap="round"
                stroke-linejoin="round" />
        </g>
    </g>
    <defs>
        <clipPath id="clip0_3419_3044">
            <rect width="160" height="160" fill="white" transform="translate(0 0.140625)" />
        </clipPath>
        <clipPath id="clip1_3419_3044">
            <rect width="160" height="160" fill="white" transform="translate(0 0.136719)" />
        </clipPath>
    </defs>
</svg>