<svg viewBox="0 0 160 161" fill="none" xmlns="http://www.w3.org/2000/svg">
    <g clip-path="url(#clip0_3419_3098)">
        <rect width="160" height="160" rx="6" transform="matrix(3.77025e-08 1 1 -5.06779e-08 0.000976562 0.138672)"
            fill="#FFDB8D" />
        <mask id="mask0_3419_3098" style="mask-type:alpha" maskUnits="userSpaceOnUse" x="0" y="0" width="161"
            height="161">
            <mask id="path-2-inside-1_3419_3098" fill="white">
                <path
                    d="M6.99965 0.136724C3.68594 0.136724 0.999634 2.82302 0.999634 6.13672L0.999649 154.137C0.999649 157.45 3.68594 160.137 6.99965 160.137H155C158.313 160.137 161 157.45 161 154.137L161 6.13672C161 2.82301 158.313 0.136719 155 0.136719L6.99965 0.136724Z" />
            </mask>
            <path
                d="M6.99965 0.136724C3.68594 0.136724 0.999634 2.82302 0.999634 6.13672L0.999649 154.137C0.999649 157.45 3.68594 160.137 6.99965 160.137H155C158.313 160.137 161 157.45 161 154.137L161 6.13672C161 2.82301 158.313 0.136719 155 0.136719L6.99965 0.136724Z"
                fill="#FFDB8D" />
            <path
                d="M161 6.13672H160.5H161ZM155 0.136719V-0.363281V0.136719ZM155 160.137V159.637V160.137ZM161 154.137H161.5H161ZM0.999649 154.137H0.499649H0.999649ZM6.99965 160.137V160.637V160.137ZM0.999634 6.13672H1.49963H0.999634ZM6.99965 0.136724V0.636724V0.136724ZM1.49963 6.13672L1.49965 154.137H0.499649V6.13672H1.49963ZM6.99965 159.637H155V160.637H6.99965V159.637ZM160.5 154.137L160.5 6.13672H161.5L161.5 154.137H160.5ZM155 0.636719L6.99965 0.636724V-0.363276L155 -0.363281V0.636719ZM160.5 6.13672C160.5 3.09916 158.037 0.636719 155 0.636719V-0.363281C158.589 -0.363281 161.5 2.54687 161.5 6.13672H160.5ZM155 159.637C158.037 159.637 160.5 157.174 160.5 154.137H161.5C161.5 157.727 158.589 160.637 155 160.637V159.637ZM1.49965 154.137C1.49965 157.174 3.96208 159.637 6.99965 159.637V160.637C3.40979 160.637 0.499649 157.727 0.499649 154.137H1.49965ZM0.499649 6.13672C0.499634 2.54687 3.40979 -0.363276 6.99965 -0.363276V0.636724C3.96208 0.636724 1.49963 3.09916 1.49963 6.13672H0.499649Z"
                fill="#FFB433" mask="url(#path-2-inside-1_3419_3098)" />
        </mask>
        <g mask="url(#mask0_3419_3098)">
            <path
                d="M383.308 43.415C398.825 35.4206 399.248 29.9343 394.152 22.8763L393.525 22.2973C394.738 22.2422 395.95 22.1872 397.163 22.1321C401.972 20.6987 406.74 18.0523 409.002 13.0899L426.207 -16.8495C430.226 -23.7141 429.313 -32.7845 423.673 -37.9954L423.046 -38.5744L373.319 -72.763C368.347 -76.1819 362.87 -76.5406 358.102 -73.8942C353.919 -71.8818 350.949 -69.9245 347.394 -67.3332L360.159 -84.9218C366.602 -91.8965 366.234 -102.814 359.341 -109.183L341.166 -125.974C336.153 -130.606 327.624 -131.433 321.058 -128.097C316.29 -125.451 310.895 -123.384 307.925 -121.426C309.641 -124.542 310.731 -128.236 313.033 -131.985C316.426 -139.429 314.927 -147.865 309.286 -153.076C308.66 -153.655 308.033 -154.234 308.033 -154.234L288.728 -168.544C281.875 -173.699 272.175 -173.259 265.732 -166.284L255.146 -156.084L262.598 -169.179C266.617 -176.044 265.704 -185.114 260.064 -190.325L259.437 -190.904L209.71 -225.092C204.737 -228.511 199.261 -228.87 194.492 -226.224C187.34 -222.254 180.815 -217.705 174.875 -213.791L212.829 -258.644C219.273 -265.619 218.319 -275.902 211.425 -282.271L187.61 -304.273C182.597 -308.905 174.654 -310.366 168.088 -307.031C160.895 -304.274 151.944 -299.616 144.751 -296.859C147.598 -302.455 150.99 -309.899 153.252 -314.861C156.644 -322.305 155.186 -329.528 149.545 -334.739C148.919 -335.318 148.292 -335.897 148.292 -335.897L122.134 -355.362C115.282 -360.518 106.208 -359.499 99.7236 -353.737L90.9367 -344.226C30.5737 -283.923 -25.6468 -220.152 -84.3391 -158.28C-87.268 -155.109 -88.9436 -150.781 -88.78 -145.929C-88.6164 -141.076 -86.6545 -136.913 -83.521 -134.018L-82.8943 -133.439L-59.7883 -114.443C-52.9355 -109.287 -43.2355 -109.728 -36.7918 -116.702L-28.5906 -125.579C-26.7923 -126.269 -25.6207 -127.537 -24.4492 -128.805C-25.5389 -125.111 -26.002 -120.837 -26.4651 -116.564C-28.0589 -109.81 -29.026 -102.476 -30.6198 -95.7218C-31.6277 -89.6015 -29.6249 -84.2253 -25.238 -80.1724C-24.6113 -79.5934 -23.9846 -79.0144 -23.3579 -78.4354L1.4646 -62.5542C5.8106 -59.7143 11.914 -58.7766 17.3088 -60.844C26.3003 -64.2897 33.9156 -72.5326 36.7628 -78.129C38.5202 -80.0312 39.6509 -82.5124 40.1549 -85.5726C42.7975 -97.2343 46.9931 -116.863 51.938 -132.275C68.1226 -138.477 88.5305 -145.478 101.159 -149.089C101.159 -149.089 101.745 -149.723 102.958 -149.778C100.615 -147.242 99.5248 -143.548 99.6475 -139.909L38.7656 -72.7529C38.1798 -72.1188 37.0082 -70.8507 36.4224 -70.2166L27.0497 -60.0716C20.6059 -53.0969 20.9741 -42.1794 27.8677 -35.8105C27.8677 -35.8105 28.4945 -35.2315 29.1212 -34.6525L44.7068 -22.6039C51.5596 -17.448 61.2595 -17.8886 67.1175 -24.2293L77.1169 -33.7953C77.7027 -34.4294 79.501 -35.1185 80.0868 -35.7526L137.032 -93.6178C141.296 -93.2041 145.519 -94.0033 149.702 -96.0157L153.257 -98.607C152.671 -97.973 152.086 -97.3389 151.5 -96.7048C130.329 -76.3046 80.4141 -26.0482 71.0413 -15.9031C64.5975 -8.9284 65.5515 1.35503 71.8185 7.14493L72.4452 7.72392L86.1916 19.2487C91.8319 24.4596 101.532 24.0189 107.431 18.8913C111.572 15.666 115.673 11.2275 120.4 7.36804L112.731 32.0147C110.51 38.1901 112.554 44.7793 116.941 48.8322C117.567 49.4112 117.567 49.4112 118.194 49.9902L149.366 74.0875C156.218 79.2433 165.292 78.2238 171.15 71.8831L180.563 62.9511C181.149 62.317 181.149 62.317 181.735 61.683C179.473 66.6454 179.637 71.4975 181.599 75.6606C174.951 76.5701 164.47 92.7435 164.47 92.7435C164.47 92.7435 142.606 118.379 154.884 129.723L155.511 130.302C158.018 132.618 161.737 134.879 164.244 137.195C170.47 141.771 175.484 146.403 182.296 150.346C188.522 154.923 194.748 159.5 200.933 162.864C207.745 166.806 213.93 170.17 218.862 172.376C223.167 174.003 228.058 174.996 232.281 174.196C236.504 173.397 240.728 172.598 245.537 171.164C249.719 169.152 253.901 167.14 258.084 165.127C262.266 163.115 266.408 159.89 269.963 157.298C272.347 155.975 275.276 152.805 280.004 148.945C282.347 146.409 284.104 144.507 287.074 142.55C288.246 141.281 290.003 139.379 292.973 137.422C297.074 132.983 302.387 128.49 307.659 122.783C312.931 117.077 318.203 111.37 324.688 105.608C330.546 99.2678 335.818 93.5612 340.504 88.4887C348.12 80.2458 352.016 69.7421 352.274 59.4036C354.699 59.2934 357.083 57.9702 360.094 57.226L383.308 43.415ZM266.051 77.2916L257.196 66.7597L263.095 61.6321L272.536 71.53L266.051 77.2916Z"
                fill="#FFCA70" />
            <path
                d="M254.565 -34.8023L239.211 -49.2663C236.141 -52.1591 231.936 -51.3157 228.37 -48.6703C220.67 -41.5115 195.775 -19.324 187.461 -12.7437C186.87 -12.0989 185.075 -11.3879 184.461 -11.9665L183.847 -12.5451C183.823 -13.7684 183.823 -13.7684 183.8 -14.9918C186.091 -21.2409 202.86 -58.2898 209.213 -72.7225C210.961 -75.8802 209.685 -79.484 207.229 -81.7982L180.868 -104.23C177.797 -107.123 172.979 -106.858 170.026 -103.634C152.878 -86.1584 99.05 -32.3765 89.6023 -22.06C86.6499 -18.836 86.1541 -13.2979 89.2248 -10.4051L102.712 1.09994C105.169 3.41419 109.987 3.14933 112.963 1.14876C124.23 -8.65543 143.787 -26.2632 143.787 -26.2632C143.787 -26.2632 145.582 -26.9743 146.196 -26.3957C146.81 -25.8171 146.243 -23.949 146.243 -23.949L131.482 23.399C130.939 26.4904 131.601 29.5157 133.443 31.2514L134.057 31.8299L164.67 55.8647C167.741 58.7575 172.535 57.2693 175.488 54.0454L252.959 -24.3045C257.73 -27.0161 257.636 -31.9094 254.565 -34.8023Z"
                fill="#FFDB8D" />
            <path
                d="M335.768 39.2715C329.024 32.9161 321.619 23.5403 312.423 14.8738C296.482 -0.148015 277.595 -11.952 259.135 -1.77226C254.373 0.933583 247.277 7.43499 241.926 10.7844C237.188 14.7115 232.449 18.6387 227.121 23.2094C224.764 25.7837 222.407 28.3579 220.049 30.9322C218.282 32.8628 216.514 34.7935 214.746 36.7242C210.62 41.2291 207.697 45.6683 205.364 49.4638C198.387 62.0719 208.22 72.5374 216.804 80.6261C218.03 81.7816 219.256 82.9371 220.482 84.0926C224.774 88.137 227.863 92.2471 232.155 96.2915C234.608 98.6025 237.673 101.491 240.125 103.802C240.739 104.38 240.739 104.38 241.352 104.958C241.965 105.536 241.965 105.536 241.965 105.536L242.578 106.113L239.042 109.975C237.863 111.262 235.458 111.394 234.232 110.238C225.72 105.813 200.184 92.5391 189.243 87.0247C186.814 85.935 183.82 86.7101 182.665 89.2186L173.307 103.18C171.563 106.332 172.247 110.573 174.7 112.884C174.7 112.884 174.7 112.884 175.313 113.462C188.16 125.569 202.041 135.413 219.266 145.29C225.35 148.625 230.231 152.026 235.677 153.562C238.719 155.23 242.326 155.032 245.934 154.835C249.541 154.637 253.124 153.219 256.708 151.8C260.291 150.381 264.464 148.319 268.024 145.679C287.103 131.529 301.959 113.997 319.462 98.2384C325.355 91.8028 330.659 86.0108 335.374 80.8623C345.982 69.2782 346.828 50.8925 335.768 39.2715ZM268.085 86.9896C266.907 88.2767 264.502 88.4083 263.276 87.2528L250.353 72.6771C247.877 69.1447 247.782 64.2594 251.318 60.3981L269.634 42.8903C272.581 39.6725 277.391 39.4094 280.456 42.2982L294.605 58.0294C295.218 58.6071 295.242 59.8284 294.653 60.472L268.085 86.9896Z"
                fill="#FFDB8D" />
        </g>
        <g clip-path="url(#clip1_3419_3098)">
            <path
                d="M39.6921 116.942C27.8095 111.431 -1.15842 114.646 -5.99951 116.942L-5.99951 85.3669L87.0983 83.8231L110.658 70.2551C111.868 69.8725 114.949 69.5663 117.59 71.4032C120.23 73.24 119.57 75.7402 118.91 76.7607L70.7192 120.004C67.2864 123.677 61.8071 123.575 59.4966 123.065C53.3352 121.279 40.7484 117.554 39.6921 116.942Z"
                fill="#FFE3B1" stroke="#FF9429" />
            <path
                d="M90.8549 84.0312L111.319 84.0312L107.359 87.4754L92.1752 90.9195C93.2314 88.7765 91.7351 85.4344 90.8549 84.0312Z"
                fill="#FF9429" />
            <path d="M49.9244 106.225C50.4746 105.46 51.6408 103.623 51.9049 102.398" stroke="#FF9429" />
            <path d="M117.922 75.6133C116.492 76.5062 113.301 78.6747 113.961 80.9708" stroke="#FF9429" />
            <path
                d="M54.5463 102.019C54.5463 102.784 54.4142 104.391 53.8861 104.698M94.4853 95.1306L95.8056 97.8094M96.4657 94.3652L97.1259 95.896"
                stroke="#FF9429" />
            <rect width="36.1817" height="14.6918" rx="0.78741"
                transform="matrix(-0.979041 2.46565e-09 1.90454e-09 1.0165 69.7095 71.3926)" fill="#FFE033"
                stroke="#FF9429" />
            <path d="M69.7095 82.5729L40.7268 71.3926L69.7095 71.8593L69.7095 82.5729Z" fill="#FFB41D" />
            <rect width="36.1817" height="14.6918" rx="0.78741"
                transform="matrix(-0.979041 2.46565e-09 1.90454e-09 1.0165 69.7095 71.3926)" stroke="#FF9429" />
            <rect x="36.7053" y="71.3926" width="0.805075" height="14.9341" fill="#FF9429" />
            <rect x="39.9224" y="71.3926" width="0.805075" height="14.9341" fill="#FF9429" />
            <rect x="45.5576" y="71.3926" width="0.805075" height="14.9341" fill="#FF9429" />
            <rect x="52.002" y="71.3926" width="0.805075" height="14.9341" fill="#FF9429" />
            <rect x="57.6317" y="71.3926" width="0.805075" height="14.9341" fill="#FF9429" />
            <rect x="63.2706" y="71.3926" width="0.805075" height="14.9341" fill="#FF9429" />
            <rect x="66.4868" y="71.3926" width="0.805075" height="14.9341" fill="#FF9429" />
            <rect x="68.0968" y="71.3926" width="0.805075" height="14.9341" fill="#FF9429" />
            <rect x="35.0925" y="71.3926" width="0.805075" height="14.9341" fill="#FF9429" />
            <rect x="38.3057" y="56.459" width="35.4233" height="14.9341" rx="0.78741" fill="#FFE033"
                stroke="#FF9429" />
            <path d="M38.3057 67.6393L67.2884 56.459L38.3057 56.9257L38.3057 67.6393Z" fill="#FFB41D" />
            <rect x="38.3057" y="56.459" width="35.4233" height="14.9341" rx="0.78741" stroke="#FF9429" />
            <rect x="40.7185" y="56.459" width="0.805075" height="14.9341" fill="#FF9429" />
            <rect x="43.943" y="56.459" width="0.805075" height="14.9341" fill="#FF9429" />
            <rect x="49.5745" y="56.459" width="0.805075" height="14.9341" fill="#FF9429" />
            <rect x="56.0143" y="56.459" width="0.805075" height="14.9341" fill="#FF9429" />
            <rect x="61.655" y="56.459" width="0.805075" height="14.9341" fill="#FF9429" />
            <rect x="67.2921" y="56.459" width="0.805075" height="14.9341" fill="#FF9429" />
            <rect x="70.5101" y="56.459" width="0.805075" height="14.9341" fill="#FF9429" />
            <rect x="72.1183" y="56.459" width="0.805075" height="14.9341" fill="#FF9429" />
            <rect x="39.1095" y="56.459" width="0.805075" height="14.9341" fill="#FF9429" />
            <rect x="35.0884" y="42.459" width="35.4233" height="14.9341" rx="0.78741" fill="#FFE033"
                stroke="#FF9429" />
            <rect x="37.501" y="42.459" width="0.805075" height="14.9341" fill="#FF9429" />
            <rect x="40.7255" y="42.459" width="0.805075" height="14.9341" fill="#FF9429" />
            <rect x="46.3571" y="42.459" width="0.805075" height="14.9341" fill="#FF9429" />
            <rect x="52.7959" y="42.459" width="0.805075" height="14.9341" fill="#FF9429" />
            <rect x="58.4376" y="42.459" width="0.805075" height="14.9341" fill="#FF9429" />
            <rect x="64.0747" y="42.459" width="0.805075" height="14.9341" fill="#FF9429" />
            <rect x="67.2927" y="42.459" width="0.805075" height="14.9341" fill="#FF9429" />
            <rect x="68.9008" y="42.459" width="0.805075" height="14.9341" fill="#FF9429" />
            <rect x="35.891" y="42.459" width="0.805075" height="14.9341" fill="#FF9429" />
            <rect width="49.2082" height="19.9813" rx="0.78741"
                transform="matrix(-0.979041 2.46565e-09 1.90454e-09 1.0165 109.972 66.0156)" fill="#FFE033"
                stroke="#FF9429" />
            <path d="M109.972 81.2212L70.555 66.0156L109.972 66.6503L109.972 81.2212Z" fill="#FFB41D" />
            <rect width="49.2082" height="19.9813" rx="0.78741"
                transform="matrix(-0.979041 2.46565e-09 1.90454e-09 1.0165 109.972 66.0156)" stroke="#FF9429" />
            <rect x="65.0867" y="66.0156" width="1.09493" height="20.3109" fill="#FF9429" />
            <rect x="69.4595" y="66.0156" width="1.09493" height="20.3109" fill="#FF9429" />
            <rect x="77.1267" y="66.0156" width="1.09493" height="20.3109" fill="#FF9429" />
            <rect x="85.8842" y="66.0156" width="1.09493" height="20.3109" fill="#FF9429" />
            <rect x="93.5477" y="66.0156" width="1.09493" height="20.3109" fill="#FF9429" />
            <rect x="101.214" y="66.0156" width="1.09493" height="20.3109" fill="#FF9429" />
            <rect x="105.59" y="66.0156" width="1.09493" height="20.3109" fill="#FF9429" />
            <rect x="107.779" y="66.0156" width="1.09493" height="20.3109" fill="#FF9429" />
            <rect x="62.8926" y="66.0156" width="1.09493" height="20.3109" fill="#FF9429" />
            <rect x="67.2729" y="45.7051" width="48.1768" height="20.3109" rx="0.78741" fill="#FFE033"
                stroke="#FF9429" />
            <path d="M67.2729 60.9107L106.69 45.7051L67.2729 46.3398L67.2729 60.9107Z" fill="#FFB41D" />
            <rect x="67.2729" y="45.7051" width="48.1768" height="20.3109" rx="0.78741" stroke="#FF9429" />
            <rect x="70.5582" y="45.7051" width="1.09493" height="20.3109" fill="#FF9429" />
            <rect x="74.9393" y="45.7051" width="1.09493" height="20.3109" fill="#FF9429" />
            <rect x="82.5991" y="45.7051" width="1.09493" height="20.3109" fill="#FF9429" />
            <rect x="91.3612" y="45.7051" width="1.09493" height="20.3109" fill="#FF9429" />
            <rect x="99.0276" y="45.7051" width="1.09493" height="20.3109" fill="#FF9429" />
            <rect x="106.693" y="45.7051" width="1.09493" height="20.3109" fill="#FF9429" />
            <rect x="111.067" y="45.7051" width="1.09493" height="20.3109" fill="#FF9429" />
            <rect x="113.26" y="45.7051" width="1.09493" height="20.3109" fill="#FF9429" />
            <rect x="68.3658" y="45.7051" width="1.09493" height="20.3109" fill="#FF9429" />
            <rect x="62.8944" y="26.6602" width="48.1768" height="20.3109" rx="0.78741" fill="#FFE033"
                stroke="#FF9429" />
            <rect x="66.1797" y="26.6602" width="1.09493" height="20.3109" fill="#FF9429" />
            <rect x="70.5598" y="26.6602" width="1.09493" height="20.3109" fill="#FF9429" />
            <rect x="78.2197" y="26.6602" width="1.09493" height="20.3109" fill="#FF9429" />
            <rect x="86.9827" y="26.6602" width="1.09493" height="20.3109" fill="#FF9429" />
            <rect x="94.649" y="26.6602" width="1.09493" height="20.3109" fill="#FF9429" />
            <rect x="102.314" y="26.6602" width="1.09493" height="20.3109" fill="#FF9429" />
            <rect x="106.688" y="26.6602" width="1.09493" height="20.3109" fill="#FF9429" />
            <rect x="108.881" y="26.6602" width="1.09493" height="20.3109" fill="#FF9429" />
            <rect x="63.9873" y="26.6602" width="1.09493" height="20.3109" fill="#FF9429" />
            <path
                d="M49.9255 79.4401C28.8007 67.8067 15.8178 78.9299 11.9669 85.9457L11.9669 110.055L43.9841 106.228C51.2458 100.488 73.6908 98.1915 83.263 97.4261C92.8352 96.6608 93.1652 90.9206 91.8449 85.9457C90.5246 80.9708 80.2923 78.2921 68.0796 80.5882C58.4072 82.4067 52.8961 80.5882 49.9255 79.4401Z"
                fill="#FFE3B1" />
            <path
                d="M11.9669 85.9457C15.8178 78.9299 28.8007 67.8067 49.9255 79.4401C52.8961 80.5882 58.4072 82.4067 68.0796 80.5882C80.2923 78.2921 90.5246 80.9708 91.8449 85.9457C93.1652 90.9206 92.8351 96.6608 83.263 97.4261C73.6908 98.1915 51.2458 100.488 43.9841 106.228"
                stroke="#FF9429" />
            <path
                d="M67.0864 89.0052L67.7466 95.5108M70.0571 87.0918C70.1671 89.643 70.4532 94.975 70.7172 95.8934M72.3676 88.2398L73.0278 95.5108"
                stroke="#FF9429" />
            <path
                d="M87.2271 84.0317C85.0266 83.649 80.4936 83.8021 79.9655 87.4758C79.3053 92.068 79.6354 95.1293 82.276 95.8947"
                stroke="#FF9429" />
        </g>
    </g>
    <defs>
        <clipPath id="clip0_3419_3098">
            <rect width="160" height="160" fill="white" transform="translate(0 0.140625)" />
        </clipPath>
        <clipPath id="clip1_3419_3098">
            <rect width="160" height="160" fill="white" transform="translate(0.000976562 0.138672)" />
        </clipPath>
    </defs>
</svg>