<svg viewBox="0 0 335 161" fill="none" xmlns="http://www.w3.org/2000/svg">
    <g clip-path="url(#clip0_3419_2991)">
        <rect width="160" height="335" rx="6" transform="matrix(4.37114e-08 1 1 -4.37114e-08 0 -0.0917969)"
            fill="#FFDB8D" />
        <mask id="mask0_3419_2991" style="mask-type:alpha" maskUnits="userSpaceOnUse" x="0" y="0" width="335"
            height="160">
            <mask id="path-2-inside-1_3419_2991" fill="white">
                <path
                    d="M5.99994 1.41188e-05C2.68625 1.42636e-05 -3.05176e-05 2.68631 -3.05176e-05 6.00001V154C-3.05176e-05 157.314 2.68625 160 5.99997 160L329 160C332.314 160 335 157.314 335 154L335 6C335 2.6863 332.314 -1.44847e-07 329 0L5.99994 1.41188e-05Z" />
            </mask>
            <path
                d="M5.99994 1.41188e-05C2.68625 1.42636e-05 -3.05176e-05 2.68631 -3.05176e-05 6.00001V154C-3.05176e-05 157.314 2.68625 160 5.99997 160L329 160C332.314 160 335 157.314 335 154L335 6C335 2.6863 332.314 -1.44847e-07 329 0L5.99994 1.41188e-05Z"
                fill="#FFDB8D" />
            <path
                d="M335 6H335.5H335ZM329 0V0.5V0ZM329 160V160.5V160ZM-3.05176e-05 154H0.499969H-3.05176e-05ZM5.99997 160V159.5V160ZM-3.05176e-05 6.00001H-0.500031H-3.05176e-05ZM5.99994 1.41188e-05V-0.499986V1.41188e-05ZM0.499969 6.00001V154H-0.500031V6.00001H0.499969ZM5.99997 159.5L329 159.5V160.5L5.99997 160.5V159.5ZM334.5 154L334.5 6H335.5L335.5 154H334.5ZM329 0.5L5.99994 0.500014V-0.499986L329 -0.5V0.5ZM334.5 6C334.5 2.96244 332.037 0.5 329 0.5V-0.5C332.59 -0.5 335.5 2.41015 335.5 6H334.5ZM329 159.5C332.037 159.5 334.5 157.038 334.5 154H335.5C335.5 157.59 332.59 160.5 329 160.5V159.5ZM0.499969 154C0.499969 157.038 2.9624 159.5 5.99997 159.5V160.5C2.41013 160.5 -0.500031 157.59 -0.500031 154H0.499969ZM-0.500031 6.00001C-0.500031 2.41016 2.4101 -0.499986 5.99994 -0.499986V0.500014C2.9624 0.500014 0.499969 2.96245 0.499969 6.00001H-0.500031Z"
                fill="#FFB433" mask="url(#path-2-inside-1_3419_2991)" />
        </mask>
        <g mask="url(#mask0_3419_2991)">
            <g opacity="0.52">
                <path
                    d="M226.323 65.4927C200.606 47.7326 179.395 49.5917 172.004 52.7412C184.797 8.16521 268.14 13.0281 309.283 32.1341C342.197 47.4189 349.586 66.4063 349.167 73.9894C325.884 62.4418 300.997 67.5976 291.463 71.619C261.46 57.4939 235.535 61.6493 226.323 65.4927Z"
                    fill="#EA980E" />
                <path
                    d="M222.498 42.092C195.455 23.3025 177.391 41.0391 171.739 52.2561C172.394 41.4965 195.025 -38.7752 276.856 -22.9923C343.677 -10.1045 352.945 49.5278 348.901 73.505C339.042 45.6999 314.084 47.4295 302.837 51.7699C274.414 5.01416 237.435 25.8364 222.498 42.092Z"
                    fill="#FFA810" />
                <path
                    d="M175.634 42.0996L245.529 124.301M222.934 37.7418L252.271 126.236M302.752 52.0601L258.64 128.064M347.883 70.8715L260.439 128.858"
                    stroke="#FFB22F" stroke-width="1.5" />
                <path
                    d="M238.206 95.568C251.292 91.1565 265.737 94.061 276.1 103.188C286.463 112.314 291.17 126.276 288.448 139.814C285.726 153.352 275.988 164.409 262.902 168.821C249.817 173.232 235.372 170.328 225.009 161.201C214.646 152.075 209.939 138.113 212.661 124.575C215.383 111.037 225.121 99.9795 238.206 95.568Z"
                    fill="#FFDB8D" stroke="#FFB22F" stroke-linecap="round" />
                <path
                    d="M239.284 99.4934C250.932 95.6324 264.055 98.2712 273.306 106.335C282.535 114.379 286.876 126.87 284.462 138.873C282.049 150.875 273.217 160.718 261.596 164.57C249.948 168.431 236.825 165.792 227.574 157.729C218.345 149.684 214.004 137.193 216.418 125.19C218.831 113.188 227.663 103.345 239.284 99.4934Z"
                    fill="#FFDB8D" stroke="#FFB22F" stroke-linecap="round" stroke-dasharray="2 2" />
                <path
                    d="M258.427 132.987C258.461 132.767 258.501 132.544 258.546 132.316C258.632 131.917 258.732 131.51 258.847 131.096C259.031 130.443 259.262 129.82 259.539 129.227C259.688 129.194 259.968 129.19 260.379 129.215C260.791 129.234 261.28 129.28 261.845 129.351C262.416 129.424 263.046 129.514 263.735 129.621C264.425 129.728 265.127 129.843 265.84 129.965C266.558 130.088 267.262 130.214 267.953 130.342C268.385 130.419 268.797 130.496 269.187 130.575C269.42 130.621 269.645 130.667 269.863 130.711C270.443 130.838 270.936 130.953 271.342 131.056C271.754 131.159 272.04 131.243 272.201 131.307C272.173 131.549 272.128 131.827 272.065 132.141C272.002 132.45 271.93 132.76 271.846 133.069C271.764 133.374 271.677 133.662 271.586 133.934C271.494 134.205 271.414 134.432 271.346 134.613C270.77 134.571 270.206 134.52 269.654 134.462C269.108 134.4 268.552 134.322 267.985 134.229C267.883 134.478 267.756 134.845 267.606 135.331C267.457 135.812 267.293 136.361 267.116 136.979C266.945 137.598 266.77 138.258 266.592 138.96C266.414 139.662 266.242 140.357 266.077 141.046C265.914 141.729 265.767 142.38 265.638 142.996C265.571 143.304 265.507 143.594 265.447 143.867C265.392 144.14 265.346 144.395 265.309 144.63C264.492 144.607 263.676 144.578 262.861 144.54C262.324 144.517 261.794 144.45 261.274 144.34C261.01 144.287 260.749 144.224 260.49 144.15C260.611 143.074 260.737 142.095 260.867 141.215C261.001 140.336 261.145 139.49 261.298 138.678C261.374 138.272 261.453 137.866 261.535 137.461C261.616 137.056 261.701 136.646 261.79 136.232C261.965 135.414 262.153 134.529 262.355 133.579C262.125 133.517 261.881 133.46 261.622 133.408C261.562 133.396 261.496 133.383 261.425 133.369C261.09 133.307 260.748 133.251 260.399 133.202C260.052 133.148 259.707 133.108 259.365 133.081C259.027 133.055 258.715 133.024 258.427 132.987Z"
                    fill="#FFBF51" />
                <path
                    d="M242.581 128.633C242.722 128.035 242.873 127.483 243.032 126.977C243.198 126.468 243.353 125.985 243.497 125.53C244.006 125.569 244.583 125.621 245.228 125.688C245.874 125.749 246.559 125.829 247.282 125.927C248.009 126.031 248.76 126.151 249.534 126.285C250.027 126.374 250.517 126.464 251.004 126.557C251.283 126.613 251.558 126.671 251.831 126.731C252.588 126.894 253.322 127.073 254.031 127.268C254.746 127.459 255.404 127.658 256.005 127.863C256.092 128.033 256.172 128.278 256.245 128.599C256.323 128.915 256.388 129.26 256.44 129.634C256.497 130.004 256.534 130.382 256.551 130.77C256.574 131.154 256.572 131.491 256.545 131.781C256.394 132.061 256.198 132.33 255.956 132.587C255.716 132.839 255.453 133.071 255.169 133.282C254.884 133.494 254.595 133.673 254.302 133.819C254.009 133.966 253.731 134.076 253.469 134.15C254.091 134.491 254.649 134.938 255.144 135.49C255.644 136.039 256.009 136.713 256.239 137.512C256.11 137.94 255.943 138.407 255.736 138.913C255.535 139.415 255.315 139.893 255.076 140.345C254.843 140.799 254.598 141.203 254.343 141.557C254.087 141.911 253.839 142.149 253.599 142.269C253.31 142.264 252.933 142.254 252.467 142.239C252.005 142.23 251.504 142.206 250.964 142.166C250.423 142.131 249.865 142.087 249.291 142.035C248.716 141.988 248.183 141.925 247.693 141.848C246.761 141.713 245.864 141.559 245.003 141.386C244.786 141.342 244.574 141.297 244.367 141.25C243.312 141.022 242.362 140.726 241.519 140.362C241.554 139.873 241.653 139.198 241.816 138.335C241.88 137.989 241.95 137.629 242.025 137.255C242.138 136.692 242.262 136.101 242.397 135.48C242.622 134.44 242.867 133.354 243.132 132.221C243.396 131.089 243.641 130.016 243.866 129.002C243.797 128.978 243.707 128.957 243.594 128.94C243.487 128.923 243.37 128.902 243.243 128.877C243.122 128.853 242.999 128.82 242.876 128.779C242.752 128.739 242.654 128.69 242.581 128.633ZM247.173 137.278C247.085 137.872 247.032 138.372 247.014 138.779C247.159 138.84 247.318 138.888 247.491 138.923C247.536 138.932 247.579 138.94 247.62 138.949C247.845 138.983 248.07 139.013 248.297 139.037C248.524 139.062 248.749 139.073 248.97 139.07C249.192 139.067 249.387 139.054 249.555 139.03C249.863 138.733 250.103 138.336 250.277 137.839C250.407 137.454 250.518 137.031 250.611 136.571C250.639 136.434 250.664 136.294 250.688 136.151C250.589 136.037 250.42 135.924 250.179 135.812C249.939 135.695 249.669 135.596 249.369 135.515C249.24 135.478 249.109 135.447 248.977 135.42L248.471 135.342C248.162 135.306 247.897 135.303 247.675 135.332C247.487 135.874 247.343 136.382 247.242 136.857C247.218 137 247.196 137.14 247.173 137.278ZM248.477 130.87C248.415 131.126 248.363 131.358 248.322 131.566C248.28 131.773 248.25 131.949 248.232 132.093C248.352 132.149 248.54 132.208 248.797 132.27C248.862 132.283 248.928 132.296 248.994 132.31C249.192 132.349 249.396 132.38 249.608 132.401C249.891 132.437 250.162 132.452 250.421 132.446C250.685 132.441 250.87 132.413 250.976 132.36C251.054 132.155 251.117 131.933 251.165 131.695C251.17 131.67 251.175 131.642 251.182 131.611C251.231 131.337 251.257 131.068 251.257 130.804C251.257 130.541 251.224 130.3 251.157 130.081C251.096 129.863 250.998 129.68 250.865 129.532C250.705 129.463 250.533 129.41 250.351 129.374C250.209 129.345 250.06 129.326 249.904 129.315C249.541 129.29 249.198 129.305 248.876 129.361C248.818 129.597 248.752 129.845 248.679 130.104C248.607 130.359 248.54 130.614 248.477 130.87Z"
                    fill="#FFBF51" />
                <path
                    d="M228.315 130.835C228.353 130.595 228.396 130.356 228.444 130.118C228.634 129.171 228.906 128.238 229.26 127.319C229.7 126.174 230.26 125.12 230.939 124.155C231.741 124.016 232.568 123.929 233.418 123.895C234.268 123.86 235.117 123.865 235.967 123.91C236.823 123.95 237.671 124.033 238.509 124.16C238.99 124.23 239.461 124.312 239.922 124.405C240.267 124.474 240.607 124.55 240.943 124.634C241 125.161 240.984 125.73 240.893 126.338C240.827 126.794 240.754 127.227 240.671 127.637C240.644 127.774 240.614 127.908 240.583 128.039C239.674 127.998 238.766 127.926 237.86 127.823C236.958 127.721 236.049 127.67 235.132 127.67C234.895 127.933 234.716 128.234 234.595 128.573C234.474 128.912 234.372 129.261 234.29 129.618C235.204 129.997 236.119 130.36 237.035 130.708C237.955 131.056 238.881 131.416 239.813 131.788C239.91 132.276 239.933 132.789 239.883 133.327C239.855 133.622 239.812 133.916 239.753 134.21C239.705 134.448 239.647 134.684 239.579 134.918C239.426 135.441 239.225 135.94 238.977 136.417C238.729 136.889 238.455 137.311 238.153 137.682C237.332 137.917 236.493 138.091 235.638 138.204C234.783 138.316 233.923 138.386 233.059 138.412C232.2 138.44 231.34 138.433 230.479 138.391C229.617 138.355 228.775 138.31 227.954 138.255C227.877 138.166 227.831 137.948 227.816 137.603C227.806 137.259 227.817 136.892 227.847 136.503C227.879 136.109 227.916 135.732 227.957 135.371C227.982 135.139 228.012 134.953 228.045 134.812C228.062 134.731 228.078 134.663 228.094 134.608C228.544 134.678 229.036 134.732 229.571 134.771C230.107 134.805 230.632 134.826 231.147 134.835C231.667 134.839 232.147 134.828 232.584 134.8C233.023 134.767 233.362 134.717 233.602 134.649C233.685 134.502 233.76 134.309 233.829 134.07C233.864 133.951 233.893 133.833 233.916 133.716C233.94 133.6 233.957 133.487 233.968 133.379C233.86 133.262 233.668 133.142 233.393 133.018C233.119 132.889 232.8 132.759 232.436 132.628C232.073 132.492 231.685 132.353 231.271 132.212C230.862 132.072 230.466 131.929 230.085 131.784C229.704 131.634 229.355 131.482 229.038 131.329C228.727 131.171 228.486 131.007 228.315 130.835Z"
                    fill="#FFBF51" />
            </g>
            <path
                d="M383.306 393.419C398.823 385.425 399.245 379.938 394.149 372.88L393.523 372.301C394.735 372.246 395.948 372.191 397.16 372.136C401.969 370.703 406.738 368.056 408.999 363.094L426.205 333.154C430.223 326.29 429.31 317.219 423.67 312.009L423.043 311.43L373.317 277.241C368.344 273.822 362.867 273.463 358.099 276.11C353.917 278.122 350.947 280.079 347.391 282.671L360.156 265.082C366.6 258.107 366.232 247.19 359.338 240.821L341.164 224.03C336.15 219.398 327.622 218.571 321.055 221.906C316.287 224.553 310.892 226.62 307.922 228.578C309.639 225.462 310.729 221.768 313.031 218.019C316.423 210.575 314.924 202.139 309.284 196.928C308.657 196.349 308.03 195.77 308.03 195.77L288.725 181.46C281.873 176.305 272.173 176.745 265.729 183.72L255.144 193.92L262.595 180.825C266.614 173.96 265.701 164.89 260.061 159.679L259.434 159.1L209.707 124.911C204.735 121.493 199.258 121.134 194.49 123.78C187.337 127.75 180.812 132.299 174.872 136.213L212.826 91.3596C219.27 84.3849 218.316 74.1015 211.422 67.7326L187.608 45.731C182.594 41.099 174.652 39.6375 168.085 42.973C160.892 45.7296 151.941 50.3883 144.748 53.1449C147.595 47.5485 150.988 40.1049 153.249 35.1425C156.641 27.699 155.183 20.4757 149.543 15.2648C148.916 14.6858 148.289 14.1068 148.289 14.1068L122.132 -5.35853C115.279 -10.5144 106.206 -9.49477 99.721 -3.7331L90.934 5.77788C30.5711 66.0806 -25.6495 129.852 -84.3417 191.724C-87.2707 194.895 -88.9463 199.223 -88.7827 204.075C-88.6191 208.927 -86.6572 213.09 -83.5237 215.985L-82.897 216.564L-59.7909 235.561C-52.9382 240.717 -43.2382 240.276 -36.7945 233.301L-28.5933 224.425C-26.795 223.735 -25.6234 222.467 -24.4518 221.199C-25.5416 224.893 -26.0047 229.167 -26.4678 233.44C-28.0616 240.194 -29.0287 247.528 -30.6224 254.282C-31.6304 260.402 -29.6276 265.779 -25.2407 269.832C-24.614 270.41 -23.9873 270.989 -23.3606 271.568L1.46192 287.45C5.80791 290.29 11.9113 291.227 17.3061 289.16C26.2976 285.714 33.9129 277.471 36.7601 271.875C38.5175 269.973 39.6482 267.492 40.1522 264.431C42.7948 252.77 46.9904 233.14 51.9353 217.729C68.1199 211.527 88.5278 204.526 101.157 200.915C101.157 200.915 101.743 200.281 102.955 200.225C100.612 202.762 99.5221 206.456 99.6448 210.095L38.7629 277.251C38.1771 277.885 37.0055 279.153 36.4197 279.787L27.047 289.932C20.6033 296.907 20.9714 307.825 27.8651 314.193C27.8651 314.193 28.4918 314.772 29.1185 315.351L44.7041 327.4C51.5569 332.556 61.2568 332.115 67.1148 325.775L77.1142 316.209C77.7 315.575 79.4983 314.885 80.0841 314.251L137.029 256.386C141.293 256.8 145.517 256.001 149.699 253.988L153.255 251.397C152.669 252.031 152.083 252.665 151.497 253.299C130.327 273.699 80.4114 323.956 71.0386 334.101C64.5949 341.076 65.5488 351.359 71.8158 357.149L72.4425 357.728L86.1889 369.253C91.8292 374.463 101.529 374.023 107.428 368.895C111.57 365.67 115.67 361.231 120.397 357.372L112.728 382.019C110.507 388.194 112.551 394.783 116.938 398.836C117.565 399.415 117.565 399.415 118.191 399.994L149.363 424.091C156.216 429.247 165.289 428.228 171.147 421.887L180.56 412.955C181.146 412.321 181.146 412.321 181.732 411.687C179.471 416.649 179.634 421.501 181.596 425.665C174.948 426.574 164.468 442.747 164.468 442.747C164.468 442.747 142.604 468.383 154.882 479.727L155.509 480.306C158.015 482.622 161.735 484.883 164.241 487.199C170.467 491.775 175.481 496.407 182.293 500.35C188.519 504.927 194.745 509.504 200.93 512.868C207.742 516.81 213.927 520.174 218.859 522.38C223.164 524.007 228.055 524.999 232.278 524.2C236.502 523.401 240.725 522.602 245.534 521.168C249.716 519.156 253.899 517.144 258.081 515.131C262.264 513.119 266.405 509.893 269.961 507.302C272.345 505.979 275.274 502.809 280.001 498.949C282.344 496.413 284.102 494.511 287.071 492.553C288.243 491.285 290 489.383 292.97 487.426C297.071 482.987 302.384 478.494 307.656 472.787C312.928 467.081 318.2 461.374 324.685 455.612C330.543 449.272 335.815 443.565 340.502 438.493C348.117 430.25 352.013 419.746 352.272 409.408C354.697 409.297 357.081 407.974 360.091 407.23L383.306 393.419ZM266.049 427.296L257.193 416.764L263.092 411.636L272.533 421.534L266.049 427.296Z"
                fill="#FFCA70" />
            <path
                d="M203.381 72.7376L180.004 50.7255C177.544 48.4084 173.307 48.0296 170.325 50.0347C162.56 54.7578 148.192 61.6864 139.197 65.2509C137.398 65.9638 136.191 66.0306 134.984 66.0975C134.984 66.0975 134.368 65.5182 133.753 64.9389C133.138 64.3597 133.138 64.3597 132.523 63.7804C132.5 62.5551 132.476 61.3297 133.068 60.6836C135.935 52.5518 142.329 39.3181 146.403 31.1194C147.54 27.3766 146.855 23.1212 144.394 20.8042L143.779 20.2249L118.035 0.797187C114.368 -1.45305 109.539 -1.18577 106.58 2.04466L39.0099 70.797C35.4584 74.6736 35.5515 79.575 39.2425 83.0506L49.0852 92.3188C52.161 95.2151 56.9893 94.9478 60.564 92.2967L89.6603 65.5399C89.6603 65.5399 92.0279 62.9555 93.2582 64.1141C93.8734 64.6933 93.8966 65.9187 93.328 67.7901C88.7091 79.0855 81.247 99.7382 78.4038 109.095C77.2665 112.838 77.9282 115.868 80.3889 118.185L82.2344 119.923C84.6951 122.24 88.3395 123.265 91.3223 121.26C100.909 117.049 121.266 107.336 133.244 101.766C135.043 101.053 136.25 100.987 136.865 101.566C137.48 102.145 137.504 103.37 136.935 105.242L133.976 108.472L110.369 137.992C107.41 141.222 108.118 146.703 111.194 149.599C111.194 149.599 111.194 149.599 111.809 150.178L127.165 163.435C130.241 166.331 136.276 165.997 138.62 162.187L203.613 84.9911C207.165 81.1146 207.072 76.2132 203.381 72.7376Z"
                fill="#FFDB8D" />
            <path
                d="M220.798 224.236L185.149 190.66C183.919 189.502 182.667 187.12 183.825 184.605C184.417 183.959 184.984 182.089 186.166 180.799C188.601 181.89 211.272 199.637 224.133 209.345C228.412 212.173 234.417 210.617 237.349 206.165L254.871 175.785C256.621 172.624 255.936 168.372 253.478 166.057C253.478 166.057 253.477 166.057 252.863 165.478L203.312 130.829C201.469 129.092 199.057 129.225 196.669 130.583C175.177 142.798 160.328 155.26 147.464 176.805L146.873 177.45C145.715 179.965 145.762 182.414 147.014 184.796L194.459 235.494C194.459 235.494 194.459 235.494 195.074 236.072C197.532 238.388 201.764 238.768 204.743 236.765L219.071 228.621C222.074 227.843 222.027 225.394 220.798 224.236ZM209.858 157.431C210.45 156.786 211.655 156.72 212.27 157.298L224.516 166.428C225.745 167.586 225.792 170.035 224.61 171.325L219.904 177.713C218.722 179.004 216.925 179.715 215.105 179.203L201.039 169.561C200.424 168.982 200.4 167.758 200.992 167.112L209.858 157.431Z"
                fill="#FFDB8D" />
            <path
                d="M115.328 166.57L97.4097 143.686C96.796 143.108 96.796 143.108 96.1822 142.53C94.3408 140.795 90.7056 139.77 88.3216 141.125C74.5369 144.941 40.4055 155.994 36.794 156.192C35.5902 156.258 35.5902 156.258 34.3864 156.324C31.3886 157.1 28.981 157.233 28.3672 156.654C28.3672 156.654 28.3672 156.654 27.7534 156.076C27.1396 155.498 29.4998 152.92 30.7036 152.854L31.2937 152.21L57.2323 122.636C60.1825 119.414 60.6776 113.879 56.9949 110.409L34.8987 89.5908C31.8298 86.6993 26.4007 86.3853 22.8604 90.2514L-64.4436 186.838C-67.9839 190.704 -67.889 195.594 -64.2063 199.064C-64.2063 199.064 -64.2063 199.064 -63.5925 199.642L-40.93 218.594C-37.8611 221.486 -32.4557 220.577 -29.5054 217.355L-4.13316 189.648C-2.36301 187.715 -0.569122 187.005 0.658444 188.161C1.27223 188.74 1.29597 189.962 1.3197 191.185C0.777114 194.275 -1.95956 208.5 -5.8526 225.237C-7.52783 232.061 -8.58929 239.463 -10.2645 246.286C-10.8071 249.376 -10.1459 252.399 -8.30452 254.134C-7.69073 254.713 -7.69073 254.713 -7.07695 255.291L17.332 271.087C22.2186 274.49 28.7803 271.071 30.4793 265.47C34.3723 248.733 41.6633 220.794 47.374 204.569C64.109 197.531 94.0388 187.321 109.594 181.572C116.769 178.73 119.035 171.262 115.328 166.57Z"
                fill="#FFDB8D" />
        </g>
        <path
            d="M36.9993 56.5509C39.4808 45.1208 51.4823 22.1254 79.6363 21.584L79.6363 55.6485C71.8759 47.8881 62.2657 52.415 58.4306 55.6485C49.0459 48.9709 40.2328 53.4678 36.9993 56.5509Z"
            fill="#FFE3B1" />
        <path
            d="M36.9993 56.5509C39.4808 45.1208 51.4823 22.1254 79.6363 21.584M36.9993 56.5509C40.2328 53.4678 49.0459 48.9709 58.4306 55.6485M36.9993 56.5509L63.6192 86.3274M79.6363 21.584C64.296 23.7497 59.1074 45.196 58.4306 55.6485M79.6363 21.584L79.6363 55.6485M58.4306 55.6485C62.2657 52.415 71.8759 47.8881 79.6363 55.6485M58.4306 55.6485L69.9358 83.3946M79.6363 55.6485L79.6363 79.334"
            stroke="#FF9000" stroke-linecap="round" />
        <path
            d="M122.499 56.5509C120.018 45.1208 108.016 22.1254 79.8622 21.584L79.8622 55.6485C87.6226 47.8881 97.2329 52.415 101.068 55.6485C110.453 48.9709 119.266 53.4678 122.499 56.5509Z"
            fill="#FFE3B1" />
        <path
            d="M122.499 56.5509C120.018 45.1208 108.016 22.1254 79.8622 21.584M122.499 56.5509C119.266 53.4678 110.453 48.9709 101.068 55.6485M122.499 56.5509L95.8793 86.584M79.8622 21.584C95.2025 23.7497 100.391 45.196 101.068 55.6485M79.8622 21.584L79.8622 55.6485M101.068 55.6485C97.2329 52.415 87.6226 47.8881 79.8622 55.6485M101.068 55.6485L89.5627 83.6513M79.8622 55.6485L79.8622 79.5906"
            stroke="#FF9000" stroke-linecap="round" />
        <path
            d="M76.6118 79.9604C78.6229 78.7993 81.1007 78.7993 83.1118 79.9604L107.089 93.8038C109.1 94.9649 110.339 97.1108 110.339 99.433L110.339 127.12C110.339 129.442 109.1 131.588 107.089 132.749L83.1118 146.593C81.1007 147.754 78.6229 147.754 76.6118 146.593L52.6342 132.749C50.6231 131.588 49.3842 129.442 49.3842 127.12L49.3842 99.433C49.3842 97.1108 50.6231 94.9649 52.6342 93.8038L76.6118 79.9604Z"
            fill="#FFE033" stroke="#FF9000" stroke-linecap="round" />
        <path
            d="M76.5271 83.7793C78.5235 82.6402 80.973 82.6402 82.9695 83.7793L103.834 95.6835C105.861 96.8402 107.112 98.9951 107.112 101.329L107.112 125.005C107.112 127.339 105.861 129.494 103.834 130.651L82.9695 142.555C80.973 143.694 78.5235 143.694 76.5271 142.555L55.6629 130.651C53.6356 129.494 52.3841 127.339 52.3841 125.005L52.3841 101.329C52.3841 98.9951 53.6356 96.8402 55.6629 95.6835L76.5271 83.7793Z"
            fill="#FFE033" stroke="#FF9000" stroke-linecap="round" />
        <path
            d="M57.1396 115.09C57.1292 114.845 57.124 114.6 57.124 114.355C57.124 113.382 57.2074 112.405 57.374 111.426C57.5824 110.207 57.9261 109.053 58.4053 107.965C59.1709 107.668 59.9704 107.418 60.8037 107.215C61.637 107.012 62.4782 106.848 63.3271 106.723C64.1813 106.592 65.0355 106.507 65.8896 106.465C66.3792 106.439 66.861 106.426 67.335 106.426C67.6891 106.426 68.0407 106.434 68.3896 106.449C68.5511 106.96 68.6475 107.525 68.6787 108.145C68.7047 108.608 68.7178 109.051 68.7178 109.473C68.7178 109.613 68.7152 109.751 68.71 109.887C67.8037 110.027 66.8923 110.137 65.9756 110.215C65.0641 110.293 64.1553 110.423 63.249 110.605C63.0667 110.913 62.9495 111.246 62.8975 111.605C62.8454 111.965 62.8141 112.329 62.8037 112.699C63.7829 112.892 64.7594 113.069 65.7334 113.23C66.7126 113.392 67.6995 113.564 68.6943 113.746C68.887 114.21 69.012 114.712 69.0693 115.254C69.1006 115.551 69.1162 115.85 69.1162 116.152C69.1162 116.397 69.1058 116.642 69.085 116.887C69.0381 117.434 68.9391 117.967 68.7881 118.488C68.637 119.004 68.4495 119.475 68.2256 119.902C67.46 120.298 66.6657 120.637 65.8428 120.918C65.0199 121.199 64.1839 121.439 63.335 121.637C62.4912 121.835 61.6396 121.999 60.7803 122.129C59.9209 122.264 59.0798 122.387 58.2568 122.496C58.1631 122.423 58.0745 122.217 57.9912 121.879C57.9131 121.54 57.8506 121.176 57.8037 120.785C57.7568 120.389 57.7178 120.009 57.6865 119.645C57.6657 119.41 57.6579 119.22 57.6631 119.074C57.6631 118.991 57.6657 118.921 57.6709 118.863C58.1292 118.842 58.6266 118.798 59.1631 118.73C59.6995 118.658 60.223 118.574 60.7334 118.48C61.249 118.382 61.7204 118.275 62.1475 118.16C62.5745 118.04 62.9001 117.923 63.124 117.809C63.1761 117.647 63.2126 117.441 63.2334 117.191C63.2438 117.066 63.249 116.944 63.249 116.824C63.249 116.704 63.2438 116.59 63.2334 116.48C63.1032 116.387 62.8896 116.306 62.5928 116.238C62.2959 116.165 61.9548 116.1 61.5693 116.043C61.1839 115.98 60.7725 115.921 60.335 115.863C59.9027 115.806 59.4834 115.743 59.0771 115.676C58.6709 115.603 58.2959 115.522 57.9521 115.434C57.6136 115.34 57.3428 115.225 57.1396 115.09ZM70.8034 110.082C70.8242 109.462 70.8633 108.887 70.9206 108.355C70.9831 107.819 71.0404 107.311 71.0925 106.832C71.6029 106.77 72.1836 106.707 72.8346 106.645C73.4857 106.577 74.1784 106.52 74.9128 106.473C75.6524 106.431 76.418 106.4 77.2096 106.379C77.7149 106.368 78.2175 106.361 78.7175 106.355C79.0039 106.355 79.2878 106.358 79.569 106.363C80.3503 106.374 81.1107 106.405 81.8503 106.457C82.5951 106.504 83.2852 106.569 83.9206 106.652C84.0404 106.803 84.168 107.03 84.3034 107.332C84.444 107.629 84.5768 107.957 84.7018 108.316C84.832 108.671 84.944 109.038 85.0378 109.418C85.1367 109.793 85.2018 110.126 85.2331 110.418C85.1393 110.725 84.9987 111.03 84.8112 111.332C84.6237 111.629 84.4102 111.91 84.1706 112.176C83.931 112.441 83.681 112.676 83.4206 112.879C83.1602 113.082 82.9076 113.246 82.6628 113.371C83.3451 113.585 83.9857 113.915 84.5846 114.363C85.1888 114.806 85.6836 115.4 86.069 116.145C86.0273 116.592 85.9544 117.087 85.8503 117.629C85.7513 118.165 85.6289 118.681 85.4831 119.176C85.3425 119.671 85.181 120.118 84.9987 120.52C84.8164 120.921 84.6185 121.204 84.405 121.371C84.1185 121.423 83.7435 121.488 83.28 121.566C82.8216 121.65 82.3216 121.725 81.78 121.793C81.2383 121.866 80.6784 121.934 80.1003 121.996C79.5221 122.064 78.9831 122.108 78.4831 122.129C77.5352 122.181 76.6185 122.207 75.7331 122.207C75.5091 122.207 75.2904 122.204 75.0768 122.199C73.9883 122.184 72.9909 122.079 72.0846 121.887C72.0221 121.397 71.9857 120.71 71.9753 119.824C71.9701 119.47 71.9675 119.1 71.9675 118.715C71.9675 118.137 71.9727 117.527 71.9831 116.887C71.9987 115.814 72.0247 114.691 72.0612 113.52C72.0977 112.348 72.1263 111.238 72.1471 110.191C72.0742 110.181 71.9805 110.178 71.8659 110.184C71.7565 110.189 71.6367 110.191 71.5065 110.191C71.3815 110.191 71.2539 110.184 71.1237 110.168C70.9935 110.152 70.8867 110.124 70.8034 110.082ZM77.0612 117.715C77.0925 118.319 77.1393 118.824 77.2018 119.23C77.3581 119.262 77.5247 119.277 77.7018 119.277C77.7487 119.277 77.793 119.277 77.8346 119.277C78.0638 119.267 78.293 119.251 78.5221 119.23C78.7513 119.21 78.9753 119.176 79.194 119.129C79.4128 119.082 79.6029 119.03 79.7643 118.973C80.0091 118.618 80.168 118.178 80.2409 117.652C80.293 117.246 80.319 116.806 80.319 116.332C80.319 116.191 80.3164 116.048 80.3112 115.902C80.1914 115.809 80.0013 115.73 79.7409 115.668C79.4805 115.6 79.194 115.556 78.8815 115.535C78.7461 115.525 78.6107 115.52 78.4753 115.52L77.9596 115.543C77.6471 115.569 77.3841 115.618 77.1706 115.691C77.0925 116.264 77.0508 116.796 77.0456 117.285C77.0508 117.431 77.056 117.574 77.0612 117.715ZM77.0768 111.121C77.0664 111.387 77.0612 111.626 77.0612 111.84C77.0612 112.053 77.0664 112.233 77.0768 112.379C77.207 112.41 77.405 112.431 77.6706 112.441C77.7383 112.441 77.806 112.441 77.8737 112.441C78.0768 112.441 78.2852 112.431 78.4987 112.41C78.7852 112.389 79.056 112.35 79.3112 112.293C79.5716 112.236 79.7487 112.171 79.8425 112.098C79.8789 111.879 79.8971 111.647 79.8971 111.402C79.8971 111.376 79.8971 111.348 79.8971 111.316C79.8919 111.035 79.8633 110.764 79.8112 110.504C79.7591 110.243 79.6784 110.012 79.569 109.809C79.4649 109.605 79.332 109.444 79.1706 109.324C78.9987 109.288 78.819 109.27 78.6315 109.27C78.4857 109.27 78.3346 109.28 78.1784 109.301C77.8138 109.348 77.4779 109.431 77.1706 109.551C77.1602 109.796 77.1445 110.053 77.1237 110.324C77.1029 110.59 77.0872 110.855 77.0768 111.121ZM87.3343 111.23C87.3239 111.007 87.3187 110.777 87.3187 110.543C87.3239 110.132 87.3421 109.71 87.3734 109.277C87.4255 108.595 87.5296 107.934 87.6859 107.293C87.8265 107.23 88.1026 107.171 88.514 107.113C88.9255 107.051 89.4177 106.999 89.9906 106.957C90.5687 106.915 91.2093 106.879 91.9125 106.848C92.6156 106.816 93.3317 106.79 94.0609 106.77C94.7953 106.749 95.5166 106.733 96.225 106.723C96.6677 106.712 97.0895 106.707 97.4906 106.707C97.7302 106.707 97.9619 106.707 98.1859 106.707C98.7848 106.717 99.2953 106.733 99.7171 106.754C100.144 106.775 100.444 106.801 100.616 106.832C100.636 107.077 100.647 107.361 100.647 107.684C100.647 108.001 100.636 108.322 100.616 108.645C100.595 108.962 100.566 109.264 100.53 109.551C100.493 109.837 100.459 110.077 100.428 110.27C99.85 110.342 99.2822 110.405 98.725 110.457C98.1729 110.504 97.6078 110.538 97.0296 110.559C96.9776 110.824 96.9255 111.212 96.8734 111.723C96.8213 112.228 96.7692 112.803 96.7171 113.449C96.6703 114.095 96.6286 114.783 96.5921 115.512C96.5557 116.241 96.5244 116.962 96.4984 117.676C96.4723 118.384 96.4567 119.056 96.4515 119.691C96.4463 120.009 96.4411 120.309 96.4359 120.59C96.4359 120.871 96.4411 121.132 96.4515 121.371C95.639 121.512 94.8265 121.645 94.014 121.77C93.4776 121.853 92.9411 121.892 92.4046 121.887C92.1338 121.887 91.863 121.876 91.5921 121.855C91.4984 120.767 91.4281 119.775 91.3812 118.879C91.3395 117.983 91.3135 117.118 91.3031 116.285C91.2979 115.868 91.2953 115.452 91.2953 115.035C91.2953 114.618 91.2979 114.197 91.3031 113.77C91.3135 112.926 91.3239 112.014 91.3343 111.035C91.0947 111.02 90.8421 111.012 90.5765 111.012C90.514 111.012 90.4463 111.012 90.3734 111.012C90.0296 111.017 89.6807 111.03 89.3265 111.051C88.9723 111.066 88.6234 111.095 88.2796 111.137C87.9411 111.178 87.626 111.21 87.3343 111.23Z"
            fill="#FF9429" />
    </g>
    <defs>
        <clipPath id="clip0_3419_2991">
            <rect width="335" height="160" fill="white" transform="translate(0 0.140625)" />
        </clipPath>
    </defs>
</svg>