<svg viewBox="0 0 160 336" fill="none" xmlns="http://www.w3.org/2000/svg">
    <g clip-path="url(#clip0_3419_3205)">
        <rect width="160" height="335" rx="6" transform="matrix(-1 0 0 1 160 0.138672)" fill="#FFDB8D" />
        <mask id="mask0_3419_3205" style="mask-type:alpha" maskUnits="userSpaceOnUse" x="-1" y="0" width="161"
            height="335">
            <mask id="path-2-inside-1_3419_3205" fill="white">
                <path
                    d="M160 5.99999C160 2.68628 157.313 0 154 0H5.99965C2.68594 0 -0.000350952 2.68629 -0.000350952 6V329C-0.000350952 332.314 2.68594 335 5.99965 335H154C157.313 335 160 332.314 160 329V5.99999Z" />
            </mask>
            <path
                d="M160 5.99999C160 2.68628 157.313 0 154 0H5.99965C2.68594 0 -0.000350952 2.68629 -0.000350952 6V329C-0.000350952 332.314 2.68594 335 5.99965 335H154C157.313 335 160 332.314 160 329V5.99999Z"
                fill="#FFDB8D" />
            <path
                d="M154 0.5H5.99965V-0.5H154V0.5ZM0.499649 6V329H-0.500351V6H0.499649ZM5.99965 334.5H154V335.5H5.99965V334.5ZM159.5 329V5.99999H160.5V329H159.5ZM154 334.5C157.037 334.5 159.5 332.037 159.5 329H160.5C160.5 332.59 157.589 335.5 154 335.5V334.5ZM0.499649 329C0.499649 332.037 2.96208 334.5 5.99965 334.5V335.5C2.40981 335.5 -0.500351 332.59 -0.500351 329H0.499649ZM5.99965 0.5C2.96208 0.5 0.499649 2.96243 0.499649 6H-0.500351C-0.500351 2.41015 2.40981 -0.5 5.99965 -0.5V0.5ZM154 -0.5C157.589 -0.5 160.5 2.41014 160.5 5.99999H159.5C159.5 2.96242 157.037 0.5 154 0.5V-0.5Z"
                fill="#FFB433" mask="url(#path-2-inside-1_3419_3205)" />
        </mask>
        <g mask="url(#mask0_3419_3205)">
            <path
                d="M208.064 218.407C223.581 210.413 224.004 204.927 218.908 197.869L218.282 197.29C219.494 197.234 220.707 197.179 221.919 197.124C226.728 195.691 231.496 193.045 233.758 188.082L250.963 158.143C254.982 151.278 254.069 142.208 248.429 136.997L247.802 136.418L198.075 102.229C193.103 98.8103 187.626 98.4516 182.858 101.098C178.675 103.11 175.706 105.068 172.15 107.659L184.915 90.0704C191.358 83.0957 190.99 72.1782 184.097 65.8093L165.922 49.0186C160.909 44.3866 152.38 43.5591 145.814 46.8947C141.046 49.5411 135.651 51.6085 132.681 53.5658C134.398 50.4505 135.487 46.7563 137.79 43.007C141.182 35.5634 139.683 27.1271 134.043 21.9162C133.416 21.3372 132.789 20.7582 132.789 20.7582L113.484 6.44865C106.631 1.2928 96.9314 1.73342 90.4877 8.70814L79.9024 18.9083L87.3542 5.8132C91.3729 -1.05138 90.4599 -10.1218 84.8196 -15.3327L84.1929 -15.9116L34.4661 -50.1003C29.4934 -53.5192 24.0167 -53.8778 19.2485 -51.2314C12.0963 -47.2618 5.5707 -42.7132 -0.369072 -38.7986L37.585 -83.6521C44.0287 -90.6268 43.0748 -100.91 36.1811 -107.279L12.3666 -129.281C7.35298 -133.913 -0.589585 -135.374 -7.15605 -132.039C-14.3492 -129.282 -23.2998 -124.623 -30.4929 -121.867C-27.6458 -127.463 -24.2537 -134.907 -21.9923 -139.869C-18.6002 -147.313 -20.0581 -154.536 -25.6984 -159.747C-26.3251 -160.326 -26.9518 -160.905 -26.9518 -160.905L-53.1096 -180.37C-59.9623 -185.526 -69.0356 -184.506 -75.5203 -178.745L-84.3072 -169.234C-144.67 -108.931 -200.891 -45.1598 -259.583 16.7127C-262.512 19.883 -264.188 24.2113 -264.024 29.0635C-263.86 33.9157 -261.898 38.0788 -258.765 40.9738L-258.138 41.5528L-235.032 60.5493C-228.179 65.7051 -218.479 65.2645 -212.036 58.2898L-203.835 49.4128C-202.036 48.7237 -200.865 47.4556 -199.693 46.1875C-200.783 49.8817 -201.246 54.1549 -201.709 58.4282C-203.303 65.1826 -204.27 72.516 -205.864 79.2704C-206.872 85.3908 -204.869 90.7669 -200.482 94.8198C-199.855 95.3988 -199.229 95.9778 -198.602 96.5568L-173.779 112.438C-169.433 115.278 -163.33 116.216 -157.935 114.148C-148.944 110.702 -141.328 102.46 -138.481 96.8632C-136.724 94.961 -135.593 92.4798 -135.089 89.4196C-132.446 77.7579 -128.251 58.1287 -123.306 42.7177C-107.121 36.5154 -86.7134 29.5138 -74.0844 25.9029C-74.0844 25.9029 -73.4986 25.2688 -72.2862 25.2138C-74.6293 27.75 -75.7191 31.4443 -75.5964 35.0834L-136.478 102.239C-137.064 102.873 -138.236 104.142 -138.822 104.776L-148.194 114.921C-154.638 121.895 -154.27 132.813 -147.376 139.182C-147.376 139.182 -146.749 139.761 -146.123 140.34L-130.537 152.388C-123.684 157.544 -113.984 157.104 -108.126 150.763L-98.127 141.197C-97.5412 140.563 -95.7429 139.874 -95.1571 139.24L-38.2122 81.3744C-33.948 81.7882 -29.7247 80.9889 -25.5423 78.9765L-21.9866 76.3852C-22.5724 77.0192 -23.1582 77.6533 -23.744 78.2874C-44.9145 98.6876 -94.8299 148.944 -104.203 159.089C-110.646 166.064 -109.692 176.347 -103.425 182.137L-102.799 182.716L-89.0523 194.241C-83.412 199.452 -73.712 199.011 -67.8132 193.884C-63.6717 190.658 -59.5712 186.22 -54.8439 182.36L-62.5133 207.007C-64.7337 213.182 -62.6901 219.772 -58.3032 223.824C-57.6765 224.403 -57.6765 224.403 -57.0498 224.982L-25.8784 249.08C-19.0256 254.236 -9.95234 253.216 -4.09438 246.875L5.31924 237.943C5.90504 237.309 5.90506 237.309 6.49084 236.675C4.22948 241.638 4.39308 246.49 6.355 250.653C-0.293306 251.562 -10.7736 267.736 -10.7736 267.736C-10.7736 267.736 -32.6375 293.372 -20.3594 304.715L-19.7327 305.294C-17.2259 307.61 -13.5066 309.871 -10.9998 312.187C-4.77371 316.764 0.239858 321.396 7.05174 325.338C13.2778 329.915 19.5039 334.492 25.6891 337.856C32.501 341.799 38.6862 345.162 43.618 347.368C47.923 348.995 52.8139 349.988 57.0372 349.189C61.2605 348.389 65.4838 347.59 70.2928 346.157C74.4752 344.144 78.6576 342.132 82.84 340.12C87.0223 338.107 91.1638 334.882 94.7195 332.29C97.1036 330.967 100.033 327.797 104.76 323.937C107.103 321.401 108.86 319.499 111.83 317.542C113.002 316.274 114.759 314.371 117.729 312.414C121.83 307.976 127.143 303.482 132.415 297.776C137.687 292.069 142.959 286.362 149.444 280.601C155.302 274.26 160.574 268.553 165.26 263.481C172.876 255.238 176.772 244.734 177.03 234.396C179.455 234.286 181.839 232.962 184.85 232.218L208.064 218.407ZM90.8074 252.284L81.9519 241.752L87.8507 236.624L97.2921 246.522L90.8074 252.284Z"
                fill="#FFCA70" />
            <path
                d="M45.558 49.2267L9.90909 15.6498C8.67982 14.492 7.42704 12.1099 8.58578 9.59478C9.1769 8.94938 9.74452 7.07968 10.9268 5.78889C13.3618 6.88023 36.0328 24.627 48.8932 34.3356C53.1721 37.1636 59.1774 35.6069 62.1095 31.1556L79.6317 0.774979C81.3816 -2.38551 80.6964 -6.63734 78.2379 -8.95299C78.2379 -8.95299 78.2379 -8.95299 77.6232 -9.5319L28.0728 -44.1807C26.2289 -45.9174 23.8174 -45.7844 21.4294 -44.4272C-0.0627687 -32.2117 -14.9115 -19.7497 -27.7752 1.79484L-28.3663 2.44024C-29.525 4.95534 -29.478 7.40395 -28.2252 9.78608L19.2193 60.4838C19.2193 60.4838 19.2193 60.4838 19.8339 61.0627C22.2925 63.3784 26.5244 63.7578 29.5035 61.7552L43.8316 53.6115C46.8343 52.8331 46.7873 50.3845 45.558 49.2267ZM34.6188 -17.5783C35.21 -18.2237 36.4157 -18.2902 37.0304 -17.7113L49.2761 -8.58168C50.5053 -7.42385 50.5524 -4.97524 49.3701 -3.68445L44.6646 2.70303C43.4824 3.99382 41.6855 4.70569 39.8651 4.19326L25.799 -5.44878C25.1843 -6.0277 25.1608 -7.25199 25.752 -7.89739L34.6188 -17.5783Z"
                fill="#FFDB8D" />
            <path
                d="M177.951 71.4702L160.114 54.6738C157.654 52.357 153.419 51.9781 149.822 53.4034C143.243 56.8332 131.884 62.9803 124.69 65.8309C122.891 66.5436 121.684 66.6103 121.093 67.2563C120.478 66.6771 119.886 67.323 119.271 66.7438L118.656 66.1646C119.224 64.2936 118.609 63.7144 118.586 62.4893C120.883 56.2302 126.115 45.5165 129.619 39.1907C131.962 35.3819 131.277 31.1274 128.202 28.2314L127.587 27.6522L108.59 13.3728C104.923 11.1228 100.096 11.3898 97.1378 14.6194L41.4231 70.4359C37.8728 74.3114 34.2992 76.9619 37.9895 80.437L51.4971 91.954C54.5723 94.8499 56.3242 91.687 60.4895 88.3907L83.6365 66.8749C83.6365 66.8749 86.0033 64.2912 87.2334 65.4496C87.8485 66.0288 87.8718 67.2539 87.2801 67.8998C83.2314 77.3217 77.5008 93.5819 74.6356 101.712C73.4988 105.454 74.1605 108.483 76.6207 110.8C79.0809 113.117 82.7245 114.142 85.7064 112.137C94.0837 107.995 110.247 100.356 120.423 95.5005C121.629 95.4338 122.221 94.7879 123.451 95.9463C124.066 96.5255 124.089 97.7505 122.906 99.0424L120.539 101.626L101.651 124.746C98.1006 128.621 96.9405 131.138 100.016 134.034L100.631 134.614L115.392 148.514C119.082 151.989 122.041 148.76 125.591 144.884L178.184 83.7213C181.142 80.4917 181.026 74.3661 177.951 71.4702Z"
                fill="#FFDB8D" />
            <path
                d="M209.732 200.935L174.083 167.359C172.854 166.201 171.601 163.819 172.76 161.304C173.351 160.659 173.919 158.789 175.101 157.498C177.536 158.59 200.207 176.336 213.067 186.045C217.345 188.873 223.351 187.316 226.283 182.865L243.804 152.485C246.145 148.679 245.46 144.427 242.387 141.533C242.387 141.533 242.387 141.533 241.772 140.954L192.223 106.305C190.379 104.569 187.968 104.702 185.58 106.059C164.088 118.274 149.24 130.736 136.376 152.28L135.785 152.925C134.627 155.44 134.674 157.889 135.926 160.271L183.37 210.968C183.37 210.968 183.37 210.968 183.985 211.547C186.443 213.862 190.675 214.242 193.654 212.239C196.355 210.704 212.872 203.893 209.732 200.935ZM198.792 134.132C199.384 133.486 200.589 133.42 201.204 133.999L213.449 143.128C214.679 144.286 214.726 146.734 213.543 148.025L208.838 154.413C207.656 155.703 205.859 156.415 204.039 155.903L189.973 146.261C189.358 145.682 189.335 144.458 189.926 143.812L198.792 134.132Z"
                fill="#FFDB8D" />
            <path
                d="M6.34832 41.5509C5.11677 40.3916 2.6994 40.5262 0.304909 41.8873C-0.287997 42.5342 -1.47381 43.828 -2.06672 44.475C-6.90145 44.7441 -11.759 43.7867 -14.2221 41.4681C-14.8379 40.8885 -14.8379 40.8885 -15.4537 40.3088C-18.5783 34.9576 -16.8682 29.3371 -12.1707 21.7087C-10.962 21.6414 -8.54463 21.5068 -7.35882 20.213C-4.98719 17.6253 -3.82425 15.1049 -5.67158 13.366C-6.90313 12.2067 -9.32049 12.3413 -12.3079 14.3494C-13.4937 15.6432 -15.2724 17.5839 -15.2496 18.8105C-21.2472 21.6 -27.8835 22.5833 -32.194 18.5259C-32.194 18.5259 -32.194 18.5259 -32.8097 17.9463C-35.2728 15.6277 -35.3872 9.49494 -33.6771 3.87452C-33.6771 3.87452 -32.4684 3.80724 -31.8755 3.16032C-31.2826 2.5134 -31.2826 2.5134 -30.6897 1.86649C-28.911 -0.0742697 -27.748 -2.59467 -28.9796 -3.75394C-30.2111 -4.91321 -32.6285 -4.77865 -34.4072 -2.83789C-36.1859 -0.897136 -36.756 0.976346 -36.1173 2.78254L-50.9628 17.7289C-53.9274 20.9635 -55.0446 25.937 -51.9657 28.8352L-29.0448 57.6411L-28.429 58.2207C-25.9659 60.5393 -21.7241 60.9171 -18.1438 58.2621L-0.812304 46.8608C0.419247 48.02 2.83662 47.8855 4.61534 45.9447C7.0327 45.8102 6.98696 43.3571 6.34832 41.5509Z"
                fill="#FFDB8D" />
            <path
                d="M79.3192 140.194L63.9656 125.73C60.8948 122.837 56.6905 123.68 53.1239 126.326C45.424 133.485 20.5291 155.672 12.2151 162.252C11.6246 162.897 9.82949 163.608 9.21535 163.03L8.60119 162.451C8.57752 161.228 8.57752 161.228 8.55387 160.004C10.8448 153.755 27.6138 116.706 33.9672 102.274C35.7149 99.1159 34.4393 95.5121 31.9827 93.1979L5.62189 70.7664C2.55117 67.8736 -2.26734 68.1385 -5.21975 71.3624C-22.3674 88.8377 -76.1958 142.62 -85.6435 152.936C-88.5959 156.16 -89.0918 161.698 -86.021 164.591L-72.5336 176.096C-70.077 178.41 -65.2585 178.145 -62.2824 176.145C-51.0159 166.341 -31.459 148.733 -31.459 148.733C-31.459 148.733 -29.6639 148.022 -29.0498 148.6C-28.4357 149.179 -29.0025 151.047 -29.0025 151.047L-43.7634 198.395C-44.3066 201.487 -43.6451 204.512 -41.8027 206.247L-41.1885 206.826L-10.576 230.861C-7.5053 233.754 -2.71044 232.265 0.241965 229.041L77.7134 150.692C82.4845 147.98 82.3899 143.087 79.3192 140.194Z"
                fill="#FFDB8D" />
            <path
                d="M160.522 214.268C153.778 207.912 146.373 198.536 137.177 189.87C121.236 174.848 102.349 163.044 83.8894 173.224C79.1272 175.93 72.0315 182.431 66.68 185.78C61.9416 189.708 57.2032 193.635 51.8755 198.206C49.5181 200.78 47.1608 203.354 44.8035 205.928C43.0355 207.859 41.2675 209.79 39.4996 211.72C35.3743 216.225 32.4514 220.664 30.1178 224.46C23.141 237.068 32.9744 247.533 41.5578 255.622C42.784 256.778 44.0102 257.933 45.2364 259.089C49.5281 263.133 52.6174 267.243 56.9091 271.288C59.3615 273.599 62.4271 276.487 64.8795 278.798C65.4926 279.376 65.4926 279.376 66.1057 279.954C66.7188 280.532 66.7188 280.532 66.7188 280.532L67.3319 281.11L63.7959 284.971C62.6172 286.258 60.2124 286.39 58.9862 285.234C50.4741 280.809 24.9377 267.535 13.997 262.021C11.5683 260.931 8.57413 261.706 7.41924 264.215L-1.93868 278.176C-3.68288 281.328 -2.99849 285.569 -0.546079 287.88C-0.546079 287.88 -0.546065 287.88 0.0670367 288.458C12.9142 300.565 26.7953 310.409 44.0202 320.287C50.1037 323.621 54.9847 327.022 60.4313 328.558C63.4731 330.226 67.0804 330.028 70.6877 329.831C74.295 329.634 77.8785 328.215 81.462 326.796C85.0455 325.377 89.2184 323.315 92.7781 320.675C111.857 306.525 126.713 288.993 144.216 273.235C150.109 266.799 155.413 261.007 160.128 255.858C170.736 244.274 171.582 225.889 160.522 214.268ZM92.8395 261.986C91.6608 263.273 89.2559 263.404 88.0297 262.249L75.107 247.673C72.6309 244.141 72.5357 239.256 76.0717 235.394L94.3885 217.886C97.3351 214.669 102.145 214.405 105.21 217.294L119.359 233.025C119.972 233.603 119.996 234.825 119.407 235.468L92.8395 261.986Z"
                fill="#FFDB8D" />
            <path
                d="M97.7992 29.2383L105.962 44.7197L83.1622 80.7493L86.8215 94.8233L71.903 86.6604L67.9622 70.053L97.7992 29.2383Z"
                fill="#FFE3B1" />
            <path
                d="M131.577 44.7197L139.74 57.9493L147.88 83.8456L129.617 118.279C127.834 129.163 110.576 143.972 89.9177 135.357L83.1622 136.201L37.2808 208.542C34.0907 213.421 24.1638 220.251 9.97718 208.542L73.5919 123.534L82.0363 121.357L109.621 114.245L112.879 107.208L123.695 83.8456L129.044 66.3198L131.577 44.7197Z"
                fill="#FFE3B1" />
            <path
                d="M67.9622 70.053L97.7992 29.2383L105.962 44.7197L83.1622 80.7493M67.9622 70.053L71.903 86.6604L86.8215 94.8233L83.1622 80.7493M67.9622 70.053L83.1622 80.7493M147.88 83.8456L139.74 57.9493L131.577 44.7197L129.044 66.3198M147.88 83.8456L129.617 118.279M147.88 83.8456L129.044 66.3198M129.617 118.279C127.834 129.163 110.576 143.972 89.9177 135.357M129.617 118.279L112.879 107.208M89.9177 135.357L83.1622 136.201M89.9177 135.357L82.0363 121.357M83.1622 136.201L37.2808 208.542C34.0907 213.421 24.1638 220.251 9.97718 208.542L73.5919 123.534M83.1622 136.201L73.5919 123.534M73.5919 123.534L82.0363 121.357M82.0363 121.357L109.621 114.245L112.879 107.208M112.879 107.208L123.695 83.8456L129.044 66.3198"
                stroke="#FF982A" stroke-linejoin="round" />
            <path
                d="M64.8656 36.2751L98.0804 29.5195L68.3902 71.2903L72.1841 86.9416L80.6286 91.4453L102.021 90.0379L131.295 45.5639L138.051 75.4009L116.94 110.867L125.947 116.216C111.76 136.707 91.8878 130.946 83.7249 125.504L76.6878 127.475L27.2687 204.185C23.2482 210.426 15.0615 212.453 8.59325 208.81C1.55741 204.848 -0.688142 195.778 3.68611 188.99L52.762 112.838L46.3691 104.39C36.208 90.963 36.3946 72.3682 46.8233 59.1477L64.8656 36.2751Z"
                fill="#FFE033" />
            <path
                d="M116.94 110.867L125.947 116.216C111.76 136.707 91.8878 130.946 83.7249 125.504L76.6878 127.475L27.2687 204.185C23.2482 210.426 15.0615 212.453 8.59325 208.81V208.81C1.55741 204.848 -0.688142 195.778 3.68611 188.99L52.762 112.838L46.3691 104.39C36.208 90.963 36.3946 72.3682 46.8233 59.1477L64.8656 36.2751L98.0804 29.5195L68.3902 71.2903L72.1841 86.9416L80.6286 91.4453M116.94 110.867L138.051 75.4009L131.295 45.5639L102.021 90.0379L80.6286 91.4453M116.94 110.867L80.6286 91.4453"
                stroke="#FF982A" stroke-linejoin="round" />
            <path
                d="M66.8366 90.3202L61.77 69.5495L82.0366 40.498L68.5255 42.1869L54.0339 64.2394C50.7642 69.215 47.9509 74.6355 47.6917 80.5837C47.284 89.9369 49.9462 102.118 61.77 109.179L9.40593 191.243C7.09349 194.867 8.21125 199.683 11.8834 201.919V201.919C15.3846 204.05 19.9427 203.051 22.232 199.651L74.9998 121.283M66.8366 90.3202L117.503 117.342C116.594 118.319 115.26 119.464 113.563 120.538M66.8366 90.3202L68.5255 96.7942L113.563 120.538M88.7921 121.283C99.3724 126.573 108.25 123.899 113.563 120.538"
                stroke="#FF982A" stroke-linejoin="round" />
            <path
                d="M117.503 117.343L66.8368 90.3205L68.5257 96.7946L113.563 120.538C115.261 119.464 116.594 118.32 117.503 117.343Z"
                fill="#FFE3B1" />
            <path
                d="M69.6841 45.7382L54.2509 69.9174C51.3356 74.6869 47.1 87.5377 53.4792 100.784C48.9781 94.6967 42.831 78.7659 54.2509 63.744L68.5257 41.8799L82.0309 40.5937L78.687 44.7093L69.6841 45.7382Z"
                fill="#FFE3B1" />
            <path
                d="M69.6841 45.7382L54.2509 69.9174C51.3356 74.6869 47.1 87.5377 53.4792 100.784C48.9781 94.6967 42.831 78.7659 54.2509 63.744L68.5257 41.8799M69.6841 45.7382L78.687 44.7093L82.0309 40.5937L68.5257 41.8799M69.6841 45.7382L68.5257 41.8799M66.8368 90.3205L117.503 117.343C116.594 118.32 115.261 119.464 113.563 120.538L68.5257 96.7946L66.8368 90.3205Z"
                stroke="#FF982A" stroke-linejoin="round" />
        </g>
        <g clip-path="url(#clip1_3419_3205)">
            <path
                d="M131.776 212.044L122.9 208.076L122.442 207.871L122.524 207.511C123.577 202.86 123.378 198.247 121.945 193.793L121.825 193.42L122.233 193.344L131.015 191.695L124.304 179.339L115.522 180.988L115.113 181.065L114.844 180.72C111.614 176.588 107.222 172.748 101.772 169.304L101.351 169.038L101.522 168.716L104.844 162.456L89.5513 155.656L86.1022 161.947L85.9457 162.232L85.5226 162.103C80.2376 160.494 73.9875 159.664 67.4142 159.714L66.9811 159.717L66.7856 159.357L62.8739 152.155L47.9357 154.96L51.8474 162.162L52.0441 162.524L51.6839 162.668C46.2632 164.831 41.9697 167.613 39.2415 170.707L39.0209 170.957L38.6105 170.774L29.66 166.772L23.8064 177.498L32.7584 181.452L33.2192 181.655L33.1381 182.017C32.0969 186.671 32.2688 191.289 33.6372 195.757L33.7498 196.125L33.3471 196.2L24.5648 197.85L31.2544 210.166L40.0367 208.517L40.439 208.442L40.7099 208.779C44.0145 212.898 48.4337 216.733 53.8703 220.187L54.2931 220.455L54.1164 220.778L50.6986 227.012L66.0841 233.832L69.4328 227.523L69.5875 227.231L70.0165 227.363C75.2984 228.988 81.5566 229.831 88.145 229.791L88.5776 229.788L88.7728 230.148L92.6845 237.35L107.623 234.545L103.711 227.343L103.514 226.981L103.874 226.837C109.295 224.673 113.589 221.892 116.317 218.798L116.536 218.549L116.945 218.73L125.979 222.719L131.776 212.044ZM86.158 179.367L86.1767 179.375L86.195 179.384C92.3653 182.478 96.8582 186.373 99.2442 190.766C101.63 195.158 101.808 199.863 99.8294 204.487L99.8238 204.5L99.817 204.513C95.1854 213.021 81.6604 215.514 69.5253 210.202L69.508 210.194L69.4911 210.186C63.2849 207.105 58.7674 203.212 56.3788 198.814C53.9903 194.417 53.8341 189.704 55.8548 185.079L55.86 185.067L55.8663 185.055C60.4979 176.548 74.0229 174.054 86.158 179.367Z"
                fill="#FFE3B1" stroke="#FF9429" />
            <path
                d="M136.392 203.202L127.516 199.234L127.058 199.03L127.14 198.669C128.193 194.019 127.994 189.406 126.561 184.951L126.441 184.579L126.849 184.502L135.631 182.853L128.92 170.497L120.138 172.146L119.729 172.223L119.46 171.878C116.23 167.747 111.838 163.906 106.388 160.462L105.967 160.196L106.138 159.874L109.46 153.614L94.1672 146.814L90.7181 153.105L90.5617 153.39L90.1385 153.261C84.8535 151.652 78.6035 150.823 72.0302 150.872L71.597 150.875L71.4015 150.516L67.4899 143.313L52.5516 146.118L56.4633 153.32L56.6601 153.683L56.2999 153.826C50.8792 155.99 46.5857 158.771 43.8574 161.866L43.6369 162.116L43.2265 161.932L34.2759 157.931L28.4223 168.657L37.3744 172.61L37.8351 172.813L37.7541 173.175C36.7129 177.829 36.8847 182.447 38.2531 186.915L38.3658 187.283L37.9631 187.359L29.1808 189.008L35.8704 201.324L44.6526 199.675L45.0549 199.6L45.3259 199.937C48.6304 204.056 53.0497 207.891 58.4862 211.345L58.9091 211.614L58.7324 211.936L55.3145 218.17L70.7001 224.99L74.0488 218.681L74.2035 218.389L74.6325 218.521C79.9144 220.146 86.1725 220.99 92.761 220.949L93.1936 220.947L93.3888 221.306L97.3005 228.508L112.239 225.703L108.327 218.501L108.13 218.139L108.49 217.995C113.911 215.832 118.205 213.05 120.933 209.956L121.152 209.707L121.561 209.888L130.595 213.877L136.392 203.202ZM90.7739 170.525L90.7927 170.533L90.8109 170.542C96.9813 173.636 101.474 177.531 103.86 181.924C106.246 186.317 106.424 191.021 104.445 195.645L104.44 195.659L104.433 195.671C99.8014 204.179 86.2763 206.673 74.1413 201.36L74.124 201.352L74.1071 201.344C67.9009 198.263 63.3833 194.37 60.9948 189.972C58.6063 185.575 58.45 180.863 60.4707 176.237L60.476 176.225L60.4823 176.214C65.1139 167.706 78.6389 165.212 90.7739 170.525Z"
                fill="#FFE033" stroke="#FF9429" />
            <path
                d="M111.369 226.119L108.522 233.658L94.2428 236.339L97.6786 228.69L111.369 226.119ZM131.251 191.028L128.607 191.525L127.4 185.097L135.304 183.613L131.251 191.028ZM49.5997 156.342L48.4807 154.493L52.1465 146.514L55.3457 152.822L49.5997 156.342ZM31.2243 209.593L24.5138 197.726L28.5768 189.892L35.2337 201.457L31.2243 209.593ZM66.1016 233.407L51.365 226.649L55.201 218.726L69.9376 225.485L66.1016 233.407ZM121.685 210.745L129.907 214.244L126.376 222.104L117.191 218.474L121.685 210.745Z"
                fill="#FFE3B1" stroke="#FF9429" />
        </g>
    </g>
    <defs>
        <clipPath id="clip0_3419_3205">
            <rect width="160" height="335.095" fill="white" transform="translate(0 0.140625)" />
        </clipPath>
        <clipPath id="clip1_3419_3205">
            <rect width="160" height="160" fill="white" transform="translate(0.00170898 87.6367)" />
        </clipPath>
    </defs>
</svg>